<?xml version="1.0" encoding="UTF-8" standalone="no"?>
<!-- Created with Inkscape (http://www.inkscape.org/) -->

<svg
   xmlns:dc="http://purl.org/dc/elements/1.1/"
   xmlns:cc="http://creativecommons.org/ns#"
   xmlns:rdf="http://www.w3.org/1999/02/22-rdf-syntax-ns#"
   xmlns:svg="http://www.w3.org/2000/svg"
   xmlns="http://www.w3.org/2000/svg"
   xmlns:xlink="http://www.w3.org/1999/xlink"
   xmlns:sodipodi="http://sodipodi.sourceforge.net/DTD/sodipodi-0.dtd"
   xmlns:inkscape="http://www.inkscape.org/namespaces/inkscape"
   id="svg2"
   version="1.1"
   inkscape:version="0.48.4 r9939"
   width="2481"
   height="663"
   sodipodi:docname="Pepper-and-Carrot_by-David-Revoy_E03P00.svg">
  <metadata
     id="metadata8">
    <rdf:RDF>
      <cc:Work
         rdf:about="">
        <dc:format>image/svg+xml</dc:format>
        <dc:type
           rdf:resource="http://purl.org/dc/dcmitype/StillImage" />
        <dc:title />
      </cc:Work>
    </rdf:RDF>
  </metadata>
  <defs
     id="defs6">
    <pattern
       y="0"
       x="0"
       height="6"
       width="6"
       patternUnits="userSpaceOnUse"
       id="EMFhbasepattern" />
  </defs>
  <sodipodi:namedview
     pagecolor="#ffffff"
     bordercolor="#666666"
     borderopacity="1"
     objecttolerance="10"
     gridtolerance="10"
     guidetolerance="10"
     inkscape:pageopacity="0"
     inkscape:pageshadow="2"
     inkscape:window-width="1680"
     inkscape:window-height="1033"
     id="namedview4"
     showgrid="false"
     inkscape:zoom="0.40071843"
     inkscape:cx="1347.2662"
     inkscape:cy="-157.03876"
     inkscape:window-x="1920"
     inkscape:window-y="0"
     inkscape:window-maximized="1"
     inkscape:current-layer="layer1" />
  <g
     inkscape:groupmode="layer"
     id="layer2"
     inkscape:label="artwork"
     sodipodi:insensitive="true">
    <image
       sodipodi:absref="/home/deevad/Production/Webcomics/2014-10-02_ep03_The-secret-ingredients/lang/ar/../gfx_Pepper-and-Carrot_by-David-Revoy_E03P00.png"
       xlink:href="../gfx_Pepper-and-Carrot_by-David-Revoy_E03P00.png"
       width="2481"
       height="663"
       id="image10"
       x="0"
       y="0" />
  </g>
  <g
     inkscape:groupmode="layer"
     id="layer1"
     inkscape:label="txt"
     style="display:inline">
    <rect
       style="color:#000000;fill:#ffffff;stroke:none;stroke-width:2.01900005;marker:none;visibility:visible;display:inline;overflow:visible;enable-background:accumulate"
       id="rect2994"
       width="2512.9866"
       height="671.29431"
       x="-17.468624"
       y="11.669838"
       ry="3.3313999" />
    <flowRoot
       xml:space="preserve"
       id="flowRoot2987"
       style="font-style:normal;font-variant:normal;font-weight:normal;font-stretch:normal;font-size:12px;line-height:125%;font-family:Arial;-inkscape-font-specification:Arial;letter-spacing:0px;word-spacing:0px;fill:#301b0b;fill-opacity:1;stroke:none"
       transform="translate(-701.81836,-122.27392)"><flowRegion
         id="flowRegion2989"><rect
           id="rect2991"
           width="2410.7913"
           height="122.53042"
           x="739.22333"
           y="644.36664"
           style="fill:#301b0b;fill-opacity:1" /></flowRegion><flowPara
         id="flowPara2993"
         style="font-style:normal;font-variant:normal;font-weight:normal;font-stretch:normal;font-size:100px;font-family:AlHor;-inkscape-font-specification:AlHor;text-align:center;text-anchor:middle;fill:#301b0b;fill-opacity:1">حلقة ٣ : المكوناتُ السرية</flowPara></flowRoot>    <path
       inkscape:connector-curvature="0"
       id="path4149"
       d="m 775.94777,500.41112 c 0,-2.90699 -3.44189,-5.07182 -7.57218,-4.7626 -3.57959,0.24764 -3.78609,0.12363 -4.95608,-2.96876 -2.06514,-5.19545 -0.48185,-8.47362 7.5031,-15.83399 5.98891,-5.50477 15.90159,-17.62764 17.48487,-21.33866 0.34417,-0.74226 1.6521,-1.23707 3.23536,-1.23707 5.02519,0 7.70987,-4.57701 5.30055,-9.27775 -0.75723,-1.54629 -0.069,-3.89661 4.26794,-13.85466 2.82237,-6.55624 7.228,-18.24616 9.77504,-25.97676 4.88747,-14.96806 5.92005,-17.3184 8.7424,-19.60691 1.65211,-1.29888 1.92748,-1.29888 2.96005,-0.18556 1.65211,1.79372 6.74612,1.60816 8.67359,-0.30923 0.8949,-0.92778 2.2028,-1.42259 2.96005,-1.1752 2.34047,0.86595 5.64469,7.11293 9.08663,17.56583 4.06142,12.36944 5.78238,15.52386 11.01405,20.59567 5.57495,5.31922 11.15085,7.05106 20.44397,6.24703 3.85494,-0.30928 9.84389,-0.61856 13.35465,-0.74226 6.5396,-0.12359 8.88007,-1.36073 8.88007,-4.70071 0,-0.80406 1.37677,-2.16479 3.16657,-3.09256 10.25684,-5.44294 38.68698,-26.40973 50.38943,-37.04814 l 6.33314,-5.81405 -9.36198,-5.44294 c -9.15552,-5.31921 -9.29314,-5.50477 -7.91637,-7.29845 0.75712,-0.98963 1.44551,-2.6596 1.44551,-3.71108 0,-4.45329 -7.3656,-6.8655 -10.94522,-3.58739 -1.72094,1.54629 -1.92742,1.42258 -10.39455,-6.3707 -8.74235,-8.04066 -14.7313,-14.78246 -17.55368,-19.73057 l -1.58323,-2.65962 -3.71733,2.10295 c -6.60847,3.77292 -11.70246,5.31921 -17.34711,5.31921 -4.40571,0 -5.85133,-0.3711 -8.1918,-2.16478 -6.0577,-4.57702 -7.09026,-10.39105 -3.16657,-17.50396 2.68477,-4.88627 13.28579,-14.72064 22.85425,-21.27604 l 6.402,-4.32961 0.68838,6.30884 c 0.75712,7.6069 3.5795,11.87465 9.84378,14.96721 l 3.99266,1.97927 -2.96009,-4.88628 c -2.34048,-3.83478 -3.16647,-6.43253 -3.78609,-12.18389 -0.48181,-4.0822 -0.68839,-7.5459 -0.48181,-7.73145 0.75714,-0.68036 9.08656,6.8655 13.07923,11.93651 3.37303,4.26775 3.9238,5.38107 3.0977,6.74181 -0.55076,0.86591 -0.9637,2.22665 -0.9637,2.96886 0,1.91737 4.19902,5.38109 6.60835,5.38109 1.51448,0 3.09771,1.42256 5.92008,5.13364 5.43829,7.23662 12.04665,13.66915 20.30731,19.79244 14.18064,10.51476 24.16214,13.91657 57.54761,19.4832 16.9341,2.7833 22.0971,4.39146 21.1333,6.55624 -1.5143,3.21629 -1.5143,4.39144 -0.1374,6.24698 0.8259,1.11334 2.3404,2.28852 3.373,2.59776 4.1992,1.17519 -0.9638,9.03034 -8.1231,12.24659 -3.0976,1.42259 -7.2278,2.22665 -14.6624,2.96886 l -10.3946,0.98963 -2.20277,-2.16479 c -3.85484,-3.71108 -11.42702,-1.85555 -11.42702,2.84514 0,0.86594 -0.55077,1.60816 -1.23915,1.60816 -2.06515,0 -12.45874,4.08219 -16.52016,6.43254 -2.134,1.23702 -10.32579,7.66958 -18.24205,14.28686 -13.56114,11.31878 -14.52494,11.93732 -17.5538,11.62804 -4.06141,-0.43293 -7.29683,2.1648 -6.88379,5.44297 0.27544,1.91737 -0.68838,2.90699 -6.60846,6.86547 -15.97046,10.82403 -30.56403,16.20507 -45.98383,16.94724 -12.25311,0.61853 -13.9052,0.24755 -15.07548,-3.21621 -0.48191,-1.54629 -1.92753,-3.21631 -3.44096,-3.89662 -2.27169,-1.1752 -2.75357,-1.11334 -5.30058,0.1855 -1.92744,0.98962 -3.30422,1.17521 -4.40562,0.6804 -1.99632,-0.98962 -9.70617,-8.41185 -13.83643,-13.35995 l -3.16658,-3.71111 -4.26794,9.52519 c -9.49965,21.15317 -22.23472,40.88377 -33.45529,51.95517 -6.95267,6.8036 -16.0393,10.57649 -16.0393,6.61801 z m 444.07153,-8.59725 c -3.7171,-2.2266 -7.7097,-9.40147 -6.746,-12.06101 0.3442,-0.92776 6.4018,-6.74184 13.4923,-12.98877 12.2524,-10.76217 14.3861,-13.11259 15.8316,-17.25656 l 0.6197,-1.79374 -4.4056,1.73188 c -7.7099,3.09249 -18.792,1.42257 -28.9111,-4.39151 -4.0614,-2.28846 -4.2679,-2.53591 -3.7862,-5.56663 0.6885,-4.51515 -2.2027,-7.05106 -7.0903,-6.37066 -3.373,0.49481 -3.6484,0.37108 -6.746,-3.58739 -3.855,-4.82441 -8.2606,-12.49399 -11.2206,-19.54504 -2.0652,-4.88542 -2.0652,-5.25653 -0.6884,-7.48318 1.9273,-2.96887 1.0325,-6.55626 -1.8587,-7.73143 -1.8586,-0.74221 -2.2716,-1.66997 -2.7535,-6.37069 -0.826,-7.97883 -0.6884,-13.4836 0.4819,-21.70985 0.8261,-6.24698 1.239,-7.29846 2.7535,-7.29846 4.681,0 7.0903,-6.67996 3.5108,-9.8962 l -1.8587,-1.66999 3.5796,-6.92738 c 7.228,-13.79286 11.7714,-17.75134 20.4449,-17.75134 5.6447,0 10.5322,1.23703 19.4123,4.82442 l 6.2634,2.5359 -1.8578,-2.10296 c -2.0651,-2.41221 -8.3294,-6.18513 -12.5285,-7.60772 -2.3404,-0.80405 -2.0651,-0.86592 2.3405,-0.43295 11.082,0.92778 24.6432,8.59732 34.0739,19.1121 6.4709,7.2366 14.043,19.545 17.0032,27.83312 l 2.4782,6.67994 -1.9966,1.79367 c -1.1011,0.98965 -1.9962,2.72146 -1.9962,3.83479 0,2.22665 2.8912,5.38107 4.9563,5.38107 1.9275,0 2.4782,1.91741 3.4419,12.7414 0.9638,11.37982 0.482,20.84308 -1.7208,31.17234 -1.5146,6.9891 -1.6521,7.17469 -4.1303,7.17469 -3.1666,0 -6.1954,2.65963 -6.1954,5.4429 0,1.1752 1.0325,2.90708 2.4092,4.0822 l 2.3406,1.97923 -5.1629,9.7107 c -6.0577,11.31884 -15.1443,23.87466 -20.9268,28.94648 -3.7863,3.27798 -4.2678,3.46367 -6.5396,2.53582 -3.0977,-1.23689 -6.6085,0 -8.0533,2.96895 -1.3766,2.65963 -3.9925,2.65963 -8.2605,0.0622 z m 19.2051,-76.32464 c 3.0977,0 6.8836,-3.71108 6.4019,-6.24701 -0.482,-2.2258 0.1366,-2.34954 4.4745,-1.2362 2.6156,0.67954 2.96,0.55666 3.3042,-1.17516 1.3079,-5.99959 -3.5798,-21.15318 -11.7024,-36.49234 -4.5435,-8.59732 -4.8878,-9.64881 -3.6488,-10.88583 1.7902,-1.85555 1.7212,-5.69033 -0.1366,-7.60772 -1.6519,-1.66999 -7.159,-2.04109 -8.1915,-0.61853 -0.3441,0.55666 -1.6512,0 -3.5097,-1.60812 -8.0542,-6.98921 -16.7278,-6.43254 -21.1333,1.36073 -3.5109,6.30885 -4.5434,12.61769 -4.6123,28.20424 0,15.58654 1.0327,20.22541 6.4019,28.57534 5.4383,8.47281 16.1082,16.5135 23.2664,17.62683 l 3.3043,0.49481 1.8586,-5.19553 c 1.5145,-4.39146 2.134,-5.19551 3.9237,-5.19551 z m -557.85927,53.37773 c 0,-2.84523 -1.99629,-4.76251 -5.507,-5.4429 -2.68466,-0.49481 -3.23538,-0.98962 -3.85489,-3.71112 -0.8949,-3.83475 -0.8949,-3.77289 10.60097,-14.59692 6.95264,-6.55625 9.70608,-9.89619 12.66609,-15.27723 2.13399,-3.83484 4.40564,-6.92739 5.09403,-6.92739 1.92745,0 5.78231,-3.83481 5.78231,-5.75218 0,-0.98964 -0.96373,-2.65963 -2.20281,-3.71109 -2.13389,-1.9174 -2.20274,-2.47406 -2.61577,-17.50313 -0.34418,-13.35991 -0.75722,-16.69988 -2.8912,-24.12204 -1.65212,-5.87589 -2.13399,-8.84474 -1.51444,-9.40141 2.47815,-2.22664 0,-8.78291 -3.37305,-8.78291 -1.30794,0 -6.6772,-17.68947 -6.6772,-21.83352 0.069,-8.34995 3.16656,-13.05065 9.22419,-14.04026 l 3.30421,-0.55667 -0.41302,3.03071 c -0.48184,3.95849 1.72096,6.18515 6.19536,6.18515 l 3.37305,0 2.89121,7.2366 c 3.9925,9.71069 6.05764,17.07098 9.36188,33.02864 5.64473,27.27647 7.02137,48.6762 3.9926,61.29393 -1.44559,6.30886 -1.51443,6.37063 -4.06147,5.93768 -1.92744,-0.37108 -3.0977,0.0622 -4.88748,1.67002 -2.95994,2.65963 -2.95994,4.94809 -0.069,7.60772 l 2.27166,1.97924 -2.7535,4.14406 c -9.15538,13.97839 -19.34332,21.33876 -29.53127,21.40062 -3.99261,0 -4.40564,-0.18558 -4.40564,-1.8556 z m 289.1181,1.23707 c -6.47086,-2.84523 -9.43084,-7.91704 -9.56856,-16.20508 -0.0688,-5.50476 1.37675,-7.97881 6.40199,-11.07139 5.36932,-3.27817 5.92009,-3.21631 5.92009,1.11335 0,3.83474 1.92742,8.65911 3.99255,10.2054 0.8261,0.61854 1.10143,-0.92775 1.10143,-5.93771 l 0,-6.74184 2.6158,0.18559 c 5.85038,0.37109 10.80677,7.42214 10.80677,15.52468 0,9.40147 -3.51077,12.80327 -13.62904,13.23631 -3.4419,0.1855 -6.8839,0.0622 -7.64103,-0.30931 z m 491.84447,-5.19555 c -5.7825,-1.23707 -13.63,-4.70073 -13.63,-6.06143 0,-1.97924 -3.3731,-4.57701 -5.9204,-4.57701 -1.652,0 -3.3727,-1.29884 -6.4704,-4.9481 -11.9779,-13.97838 -18.5177,-34.5131 -20.7204,-65.1287 -1.2391,-16.76173 -0.7571,-35.379 0.9637,-41.50228 0.9639,-3.27813 1.5145,-3.89665 3.3041,-3.89665 4.8877,0 7.5724,-5.75219 4.4747,-9.71065 -1.6521,-2.10296 -0.826,-4.0822 2.8913,-6.74181 4.7497,-3.33997 10.5322,-1.36074 15.9015,5.38107 3.9924,4.94811 4.5434,9.21586 2.1338,16.57618 -1.0326,3.09256 -2.3402,7.79328 -2.9599,10.45287 -0.6885,3.03073 -1.6522,4.94813 -2.616,5.25738 -4.5433,1.42257 -6.3331,6.3707 -3.4417,9.27771 1.1014,1.05146 1.239,2.28851 0.6195,5.81404 -1.0326,5.62846 0.2765,19.05021 2.5471,26.84349 l 1.652,5.81404 -2.134,1.73101 c -4.5434,3.64922 -1.3767,10.70027 4.4058,9.95805 2.4781,-0.3711 2.9599,0 6.264,5.07182 6.3333,9.64884 13.8364,14.6588 23.1294,15.40096 5.231,0.43304 6.1261,0.24755 8.9482,-1.66992 5.7135,-3.83484 9.8437,-11.0714 13.2859,-23.37985 1.6521,-5.62848 2.8222,-8.22539 4.612,-9.70983 2.8912,-2.41219 3.029,-5.56663 0.413,-7.85514 -1.2391,-1.11332 -1.7208,-2.35034 -1.3768,-3.46366 1.1703,-4.20592 -1.4455,-43.72895 -4.3367,-63.83064 l -2.9602,-20.72023 2.1341,-1.66998 c 2.6159,-2.10294 2.7537,-6.18513 0.2049,-8.41179 -0.9637,-0.92776 -2.4092,-1.66999 -3.0288,-1.66999 -0.8948,0 -1.8586,-3.21544 -3.3041,-10.88503 -1.1016,-5.99956 -3.6487,-17.99876 -5.7138,-26.59609 -4.9553,-21.21503 -5.024,-22.2665 -2.4782,-26.84352 1.8586,-3.21625 2.6161,-3.77291 5.7138,-4.20588 3.5107,-0.4948 6.0575,-2.41221 6.0575,-4.577 0,-0.68038 1.1705,-1.11332 3.2357,-1.11332 5.0938,0 7.2279,2.59776 9.5682,11.56618 3.3731,12.74141 9.0867,48.6152 11.4961,71.74683 2.9598,28.08051 7.7786,59.31546 12.1155,77.49978 3.7171,16.01952 11.9088,38.22334 15.695,42.8622 2.4093,2.8452 4.6809,4.02032 5.5759,2.78334 0.4131,-0.6804 5.1628,-1.05148 15.351,-1.23707 13.7675,-0.18559 14.7311,-0.30922 16.7277,-2.04107 1.1011,-1.05149 2.0651,-2.65962 2.0651,-3.58739 0,-1.60816 -3.1666,-5.13368 -5.2317,-5.87591 -1.1703,-0.3711 -11.7025,-17.68866 -14.2495,-23.37898 -7.7786,-17.44209 -10.3948,-28.82276 -9.6373,-42.43007 0.6196,-11.68991 0.8946,-12.43213 4.7498,-12.43213 5.5759,0 8.0541,-5.75219 4.0614,-9.52509 l -1.9276,-1.85554 5.0942,-4.51517 c 9.7062,-8.53549 24.3017,-10.39103 36.8301,-4.57699 15.6952,7.17474 29.527,27.02904 34.8319,49.85221 3.1667,13.79287 2.6161,33.27607 -0.9636,33.27607 -2.0651,0 -4.9563,3.15441 -4.9563,5.38106 0,1.11332 0.8261,2.84434 1.9276,3.77209 l 1.854,1.67 -2.5425,4.70071 c -1.3767,2.59776 -2.6892,4.9481 -2.8268,5.25735 -0.2016,0.30928 2.4138,1.73185 5.8555,3.21629 5.0943,2.1648 7.6365,2.72148 14.3185,3.0307 l 8.187,0.43304 4.8188,-4.57708 c 5.92,-5.62847 7.5721,-10.01993 8.9491,-24.12122 0.8992,-9.03029 0.6881,-11.75174 -1.9276,-32.47198 -2.5426,-20.2254 -2.6801,-22.7613 -1.441,-23.99832 2.1294,-2.10295 1.7164,-6.18515 -0.6885,-7.97883 -2.0007,-1.4226 -2.4138,-3.64925 -7.8475,-47.68661 -3.1664,-25.42091 -5.7181,-47.37817 -5.7181,-48.80074 0.075,-3.89663 3.1022,-9.52512 6.2689,-11.56621 1.7163,-1.11334 4.8829,-2.10298 7.8476,-2.41221 5.0204,-0.49481 5.0939,-0.49481 6.8835,2.16479 1.028,1.48444 2.5426,5.31924 3.4421,8.47365 1.4411,5.38108 1.4411,5.93773 0.064,8.04067 -2.1294,3.21629 -1.9275,4.76258 1.1012,7.29847 2.9648,2.47406 3.3778,4.39144 6.0579,29.44125 1.1015,9.89623 1.1015,12.9888 0.2764,15.09176 -0.9636,2.28769 -0.8901,3.0299 0.4866,5.1947 1.1656,1.85553 2.2026,7.97882 3.9191,23.25612 2.6158,23.75094 6.4066,51.58406 7.9852,59.62472 1.1015,5.31924 1.0371,5.6285 -0.8901,7.42217 -1.1751,0.98964 -2.0651,2.59776 -2.0651,3.5874 0,1.91739 3.7813,5.75217 5.7823,5.75217 0.7526,0 1.8538,2.0411 2.8912,5.44293 2.0652,6.74096 9.1506,16.69906 14.3181,20.10087 3.5797,2.28849 4.4698,2.47408 11.6293,2.47408 6.3329,0 8.1225,0.30922 10.0502,1.66992 2.8911,2.0411 4.8923,2.10296 7.7098,0.12363 1.5143,-1.05148 4.479,-1.66992 9.7749,-2.0411 17.0721,-1.1133 25.6813,-5.81398 33.5932,-18.12242 l 2.5517,-3.95768 -5.0943,2.59695 c -4.7544,2.41219 -5.5069,2.53589 -10.8122,1.97923 -19.614,-2.04109 -36.1351,-13.91573 -44.7446,-32.16189 -7.4346,-15.83395 -8.9491,-41.25488 -3.6438,-59.934 0.7525,-2.65961 1.3032,-3.09256 3.5061,-3.09256 4.892,0 7.5082,-5.81403 4.1304,-9.15401 -2.0652,-2.10297 -1.0281,-4.20589 4.6168,-9.40058 7.9852,-7.36034 12.6659,-7.11293 29.6001,1.66917 l 9.0131,4.63885 -5.0204,-4.63885 c -2.8271,-2.53511 -7.095,-5.81323 -9.4996,-7.17397 -2.4142,-1.42257 -4.2038,-2.72145 -3.9927,-2.84513 0.8904,-0.86595 10.6011,1.60811 15.4199,3.89663 7.2966,3.52551 12.455,7.73059 18.9259,15.40018 6.8836,8.28807 14.5294,21.40056 13.1525,22.69944 -2.6893,2.4122 0,8.7829 3.6437,8.7829 1.6522,0 4.7547,7.79327 6.9574,17.3184 2.0652,8.84474 2.267,31.85346 0.413,42.05894 -1.7255,9.70983 -5.9934,22.20381 -9.8486,29.19304 -4.6808,8.3499 -6.4705,10.391 -9.0866,10.391 -2.8912,0 -5.92,2.7215 -5.92,5.31927 0,1.42256 -1.1655,2.59777 -4.3322,4.45328 -11.7758,6.74184 -18.7239,7.79322 -49.8385,7.42214 -22.515,-0.24745 -23.6161,-0.37108 -28.7744,-2.35032 -8.3341,-3.15444 -16.8701,-11.00953 -21.4775,-19.7306 l -3.7172,-6.9892 -1.1015,3.64926 c -2.7534,9.40137 -11.84,19.48315 -21.0001,23.19427 -2.3406,0.92775 -7.0215,1.91737 -10.4635,2.16473 -5.7826,0.43294 -6.3331,0.30931 -8.3982,-1.73179 -2.5423,-2.47404 -5.5713,-2.78336 -8.6002,-0.86598 -1.3765,0.86598 -2.9647,1.11334 -4.6168,0.74226 -2.1292,-0.43295 -17.2096,-7.60773 -25.4701,-12.06102 l -2.8913,-1.54629 -5.158,3.40181 c -7.1593,4.57701 -15.9035,7.97881 -25.2656,9.83441 -10.1877,2.0411 -13.4234,2.0411 -15.695,-0.0622 -1.0326,-0.86598 -2.8912,-1.60815 -4.1303,-1.60815 -2.6157,0 -5.989,2.59768 -5.989,4.57701 0,1.11334 -0.6882,1.23697 -3.8547,0.74217 -12.6664,-1.79365 -22.5791,-11.19512 -25.6078,-24.30762 l -1.0325,-4.51514 -1.7211,6.18516 c -0.9637,3.33994 -2.9599,8.1644 -4.4055,10.70031 -2.3406,4.02034 -3.029,4.57701 -6.1268,5.07182 -4.0612,0.55667 -5.851,2.47404 -5.851,6.1233 0,2.35032 -0.6195,2.96885 -4.2682,4.82437 -6.746,3.4018 -12.735,4.63887 -21.8894,4.51514 -4.5434,-0.0622 -9.7753,-0.37118 -11.6338,-0.80412 z m 150.1364,-77.87009 c -0.075,-9.15398 -0.4861,-12.55583 -1.8631,-16.51431 -1.3767,-3.71109 -1.6522,-5.44291 -0.9636,-7.17476 1.3125,-3.15441 -0.4776,-6.30884 -3.9193,-6.92736 -2.0651,-0.37111 -3.7172,-1.85554 -6.9571,-6.18513 -4.8187,-6.55625 -8.6005,-8.7829 -12.5948,-7.42216 -3.6482,1.29888 -5.1628,4.76256 -5.7824,13.42173 -0.482,6.30885 -0.2765,8.9066 1.3081,14.28768 2.6156,8.96846 12.5258,26.65797 19.0698,34.08013 l 5.3695,6.06061 3.1667,-6.06061 3.2305,-5.9996 -0.065,-11.56622 z m 169.3415,-1.73181 c 0.2017,-0.18556 0.2765,-3.58739 0.2017,-7.48404 -0.1366,-3.95849 0.2765,-8.22624 0.8261,-9.46325 0.9639,-2.1648 7.1595,-5.62849 9.9862,-5.62849 2.5425,0 -2.6893,-16.20505 -9.1602,-28.38979 -7.2966,-13.66915 -14.456,-19.42132 -20.9908,-17.00913 -6.471,2.41221 -10.1239,11.50437 -10.8124,27.21461 -0.6149,11.93733 0.3491,17.19471 4.3414,24.24578 1.5145,2.65957 2.7536,5.93773 2.7536,7.2366 0,2.78331 2.8177,5.62846 5.6448,5.62846 1.1012,0 2.6801,0.61852 3.5794,1.36074 3.4422,2.78331 11.5647,4.14405 13.6299,2.28851 z M 816.6999,347.14424 c -8.05405,-1.85553 -15.69508,-8.53548 -17.82906,-15.71024 -1.92745,-6.43254 0.34422,-14.10212 5.02518,-16.88542 l 2.34051,-1.36074 3.51074,6.8655 c 3.30423,6.43256 8.46709,12.98878 10.25687,12.98878 0.41302,0 -0.20652,-1.97922 -1.37676,-4.32957 -2.54702,-5.31924 -5.50706,-14.53508 -4.81868,-15.15361 0.96373,-0.86591 8.46709,2.72148 11.5648,5.50479 4.47446,4.08219 7.4345,10.20549 7.4345,15.46283 0,9.15402 -6.95262,14.65878 -16.1081,12.61768 z m 760.3107,-61.47944 c 0.6886,-5.44293 -6.0575,-8.2881 -10.1878,-4.26774 -1.6521,1.60813 -2.3405,1.79368 -3.5108,1.05147 -5.3692,-3.52553 -5.9889,-13.91657 -1.239,-20.84393 3.5793,-5.19553 7.2966,-7.05106 14.9376,-7.484 5.1629,-0.30928 6.6774,-0.0619 9.8441,1.54626 3.1682,1.66999 3.7189,2.41221 4.1963,5.56663 0.4865,3.52552 2.5517,5.81404 5.2317,5.81404 1.1013,0 1.2392,0.92776 0.7618,4.9481 -0.9636,8.16437 -4.8188,12.80323 -12.8058,15.1536 -6.746,2.0411 -7.641,1.85555 -7.2281,-1.48443 z m 168.5864,-15.33917 c -4.0661,-1.11331 -9.6375,-5.62844 -11.5647,-9.40139 -1.8632,-3.71109 -2.4141,-13.66915 -0.7619,-13.66915 1.7899,0 5.4428,-4.02036 5.4428,-6.06146 0,-2.84515 4.7452,-4.63885 12.1153,-4.63885 7.3613,0 12.0423,2.22665 16.1082,7.73144 l 3.0292,4.02033 -2.6893,1.48444 c -4.7454,2.59775 -4.8189,7.11292 -0.1367,9.71067 l 2.6159,1.42258 -2.4048,3.21627 c -4.4057,5.75218 -13.428,8.34995 -21.7529,6.18512 z M 848.43424,254.36798 c 0,-7.42217 4.47449,-11.4425 23.95469,-21.77166 9.98159,-5.19552 13.76758,-6.80368 16.38349,-6.80368 3.37303,0 5.57589,-1.36072 6.67733,-4.20589 0.41294,-0.98963 20.23833,-12.06075 24.78166,-13.7926 2.27161,-0.86591 -0.41305,10.20521 -3.23542,13.35963 -2.68466,2.90704 -51.28429,27.83312 -52.45458,26.84353 -1.51447,-1.29888 -6.60846,-0.80407 -8.19074,0.74222 -0.8261,0.8659 -1.5145,2.47403 -1.5145,3.58735 0,1.54629 -0.82605,2.41221 -3.16652,3.40184 l -3.23541,1.42257 0,-2.78331 z M 1525.864,230.6789 c -2.6156,-0.92776 -2.8911,-0.61851 4.5434,-4.51515 3.2353,-1.73183 9.0177,-5.0718 12.7349,-7.484 5.4384,-3.46371 7.2969,-4.20592 9.3621,-3.8348 3.1667,0.55665 7.5035,-2.90676 7.0905,-5.75193 -0.205,-1.29887 1.1011,-2.96887 4.3367,-5.75217 l 4.5433,-3.89655 -4.4056,-3.40184 c -4.6124,-3.52552 -7.3657,-7.54577 -8.3296,-12.12279 -1.1012,-5.381 3.5108,-18.61712 6.8839,-19.60672 2.4092,-0.61851 4.7498,-4.08219 4.1992,-6.06146 -0.2764,-1.05137 0.5506,-2.41211 2.4092,-4.02024 4.1303,-3.46369 6.2644,-4.26775 11.3584,-4.26775 8.8112,0 13.9023,5.44291 14.178,15.1535 0.1365,4.94805 0,5.50471 -2.2673,7.11284 -2.6892,1.91739 -3.3061,5.44293 -1.4501,8.10252 0.8261,1.17509 0.6241,2.28843 -0.8261,5.25729 l -1.8559,3.77294 4.1966,2.72138 4.1302,2.6596 -0.5509,7.42218 c -0.3395,4.0821 -0.6149,8.47357 -0.6149,9.77244 0,2.16454 -0.2115,2.28825 -1.7897,1.48418 -1.2392,-0.55667 -1.8632,-1.73159 -1.8632,-3.27788 0,-4.51513 -4.8848,-7.05106 -9.2906,-4.88624 -1.3767,0.61849 -2.2027,0.61849 -3.1663,-0.062 -1.0326,-0.80408 -2.2031,-0.0619 -6.1268,3.77292 -17.5537,17.44186 -26.7089,22.6992 -39.0312,22.57551 -3.3729,-0.062 -7.1591,-0.43297 -8.3982,-0.86591 z m 54.9329,-56.09872 c -2.0651,-6.98911 -13.2169,-11.19501 -13.8365,-5.19552 -0.482,4.76257 2.0652,7.97883 10.2567,13.05057 l 3.1667,1.97926 0.6885,-3.40183 c 0.3442,-1.85546 0.2764,-4.7625 -0.2765,-6.43248 z m 116.6135,36.30652 -2.2763,-0.8659 3.653,-1.91741 c 10.0504,-5.25734 20.7892,-12.12279 29.8023,-19.05004 5.4429,-4.20592 10.2614,-8.10255 10.6012,-8.65922 0.4131,-0.55657 -0.964,-2.22656 -3.5797,-4.26765 -7.4344,-5.62849 -9.6372,-11.68983 -7.4344,-20.10154 2.5516,-10.01984 10.6743,-21.7097 17.0715,-24.67857 3.7174,-1.73182 5.9204,-1.4844 8.6096,0.92778 1.9918,1.79368 2.9553,2.10293 5.5069,1.66998 2.9557,-0.49483 3.2309,-0.3711 5.094,2.84515 3.5797,6.24695 1.9276,21.46221 -3.3042,30.55437 -1.1747,2.10287 -1.1012,2.28842 2.818,4.82432 3.9923,2.53593 4.1302,2.72148 3.9923,6.92737 -0.064,2.35028 -0.3393,6.74172 -0.688,9.83429 l -0.551,5.56654 -8.6001,-4.94802 -8.5359,-5.00996 -3.5155,3.58738 c -3.093,3.15443 -3.9192,3.52545 -6.746,3.21626 -4.4698,-0.43295 -7.4345,2.22656 -6.7459,6.1232 0.4861,2.47406 0.075,3.09259 -3.6441,6.06137 -6.9571,5.50477 -13.3546,7.85514 -21.8905,8.04069 -3.9925,0.1236 -8.3338,-0.18555 -9.6372,-0.68039 z m 55.0702,-56.09878 c -2.2025,-7.36034 -13.29,-11.13315 -14.1161,-4.76258 -0.1365,1.11332 -0.6885,2.78331 -1.3034,3.77295 -1.6521,2.72145 -1.3125,4.26775 1.239,6.55617 1.9277,1.73183 2.8913,2.0411 5.709,1.60813 2.616,-0.37112 3.9926,-0.062 5.7182,1.11331 l 2.3404,1.60817 0.615,-3.40185 c 0.413,-1.85553 0.2764,-4.82432 -0.2017,-6.4943 z"
       style="fill:#301b0b;fill-opacity:1;fill-rule:nonzero;stroke:none" />
  </g>
</svg>
