<?xml version="1.0" encoding="UTF-8" standalone="no"?>
<!-- Created with Inkscape (http://www.inkscape.org/) -->

<svg
   xmlns:dc="http://purl.org/dc/elements/1.1/"
   xmlns:cc="http://creativecommons.org/ns#"
   xmlns:rdf="http://www.w3.org/1999/02/22-rdf-syntax-ns#"
   xmlns:svg="http://www.w3.org/2000/svg"
   xmlns="http://www.w3.org/2000/svg"
   xmlns:xlink="http://www.w3.org/1999/xlink"
   xmlns:sodipodi="http://sodipodi.sourceforge.net/DTD/sodipodi-0.dtd"
   xmlns:inkscape="http://www.inkscape.org/namespaces/inkscape"
   id="svg2"
   version="1.1"
   inkscape:version="0.91 r13725"
   width="2481"
   height="3503"
   sodipodi:docname="Pepper-and-Carrot_by-David-Revoy_E03P07.svg">
  <metadata
     id="metadata8">
    <rdf:RDF>
      <cc:Work
         rdf:about="">
        <dc:format>image/svg+xml</dc:format>
        <dc:type
           rdf:resource="http://purl.org/dc/dcmitype/StillImage" />
        <dc:title />
      </cc:Work>
    </rdf:RDF>
  </metadata>
  <defs
     id="defs6" />
  <sodipodi:namedview
     pagecolor="#ffffff"
     bordercolor="#666666"
     borderopacity="1"
     objecttolerance="10"
     gridtolerance="10"
     guidetolerance="10"
     inkscape:pageopacity="0"
     inkscape:pageshadow="2"
     inkscape:window-width="960"
     inkscape:window-height="969"
     id="namedview4"
     showgrid="false"
     inkscape:zoom="0.5"
     inkscape:cx="994.54016"
     inkscape:cy="774.07253"
     inkscape:window-x="960"
     inkscape:window-y="30"
     inkscape:window-maximized="0"
     inkscape:current-layer="layer1" />
  <g
     inkscape:groupmode="layer"
     id="layer2"
     inkscape:label="artwork"
     sodipodi:insensitive="true">
    <image
       sodipodi:absref="/home/nightlock/peppercarrot-translations/peppercarrot_ep03_translation/kr/../gfx_Pepper-and-Carrot_by-David-Revoy_E03P07.png"
       xlink:href="../gfx_Pepper-and-Carrot_by-David-Revoy_E03P07.png"
       y="0"
       x="0"
       id="image10"
       height="3503"
       width="2481" />
  </g>
  <g
     inkscape:groupmode="layer"
     id="layer3"
     inkscape:label="speechbubbles">
    <path
       style="fill:#ffffff;stroke:none"
       d="m 532.88121,2211.4516 c -5.27598,-26.4597 41.45988,-30.6925 47.50611,-36.1733 6.04623,-5.4808 19.86621,-25.2117 30.23121,-28.5002 10.36491,-3.2885 48.36981,10.9617 61.32605,18.6347 12.95618,7.6732 31.8556,-8.0464 50.96106,-4.3845 19.10548,3.6618 25.04873,24.1155 33.68617,30.6923 8.63745,6.577 49.2336,8.7694 50.09738,37.2695 0.86377,28.5002 -58.73482,28.5002 -69.09982,30.6925 -10.36501,2.1924 -38.86868,17.5385 -54.41609,15.3462 -15.54742,-2.1923 -44.91486,-13.1539 -59.59859,-15.3462 -14.68372,-2.1923 -36.2774,9.8654 -45.77861,1.0962 -9.50123,-8.7694 -8.63749,-15.3463 -12.95622,-19.7309 -4.31874,-4.3846 -26.68269,-3.1367 -31.95865,-29.5963 z"
       id="path3250"
       inkscape:connector-curvature="0"
       sodipodi:nodetypes="zssszsssssssz" />
    <path
       style="fill:#ffffff;stroke:none"
       d="m 367.89187,2402.1905 c 11.06337,-75.2667 49.28228,-147.3077 279.60144,-156.9849 230.31918,-9.6771 324.86068,89.2449 325.86644,146.2325 1.00576,56.9876 -67.38596,163.4363 -253.45167,165.5868 -186.06571,2.1505 -345.98164,-7.5267 -352.01621,-154.8344 z"
       id="path3270"
       inkscape:connector-curvature="0" />
    <path
       style="fill:#ffffff;stroke:none"
       d="m 929.28059,2436.0482 c 18.77335,14.6015 45.8904,32.3319 55.27707,31.2889 9.38668,-1.0429 39.63264,-1.0429 57.36304,-9.3867 17.7303,-8.3437 82.191,36.2751 86.3629,68.607 -35.4608,-37.5467 -84.9631,-43.4989 -101.1675,-40.6756 -13.9753,2.4349 -44.64436,26.3028 -54.03104,26.3028 -26.07409,2.0859 -55.27707,-10.4297 -64.66374,-34.4178 -9.38667,-23.9882 20.85927,-41.7186 20.85927,-41.7186 z"
       id="path3272"
       inkscape:connector-curvature="0"
       sodipodi:nodetypes="ccscscsc" />
    <path
       style="fill:#ffffff;stroke:none"
       d="m 403.89555,2764.9406 c 8.54145,-90.0958 89.29701,-193.5102 278.76194,-178.6248 189.46494,14.8854 261.67905,79.1276 256.24357,202.1279 -5.43547,123.0002 -107.9329,170.7903 -267.11451,163.7393 -159.18161,-7.0509 -277.20895,-57.1912 -267.891,-187.2424 z"
       id="path3274"
       inkscape:connector-curvature="0" />
    <path
       style="fill:#ffffff;stroke:none"
       d="m 924.61883,2750.2524 c 48.74721,-18.1385 83.15697,8.1623 93.67117,29.0216 10.5141,20.8592 63.0845,9.9761 74.5545,-11.7901 -19.9609,52.676 -79.703,54.6393 -121.73244,26.0768 -12.33917,-8.3855 -34.85287,3.408 -41.54166,27.8751 -6.18209,22.6137 -31.71475,33.9701 -31.71475,33.9701 z"
       id="path3276"
       inkscape:connector-curvature="0"
       sodipodi:nodetypes="cscsscc" />
    <path
       style="fill:#ffffff;stroke:none"
       d="m 601.21632,1179.7464 c 2.04146,-33.5835 26.53894,-47.9764 37.76695,-52.774 11.22801,-4.7976 59.20223,-11.9941 90.8448,-11.9941 31.64258,0 110.23865,2.3988 123.50811,3.5983 13.26947,1.1994 50.01568,25.1875 51.03641,46.7769 1.02073,21.5893 -5.10364,35.9822 -23.47675,49.1757 -18.3731,13.1935 -132.69466,19.1905 -139.83976,17.9911 -7.14509,-1.1994 -102.07281,-9.5952 -108.19718,-13.1935 -6.12437,-3.5982 -30.62185,-13.1934 -31.64258,-39.5804 z"
       id="path3278"
       inkscape:connector-curvature="0" />
    <path
       style="fill:#ffffff;stroke:none"
       d="m 648.0982,1268.2309 c 6.7868,-49.0459 25.20812,-80.9827 136.70557,-74.1391 111.49745,6.8435 149.30963,30.7963 148.34009,69.5768 -0.96955,38.7805 -49.4467,90.1077 -137.67511,80.9828 -88.22843,-9.1247 -150.27918,-19.3902 -147.37055,-76.4205 z"
       id="path3280"
       inkscape:connector-curvature="0" />
    <path
       style="fill:#ffffff;stroke:none"
       d="m 916.67011,1251.9255 c 34.97404,-9.6007 44.08738,-22.9239 59.17422,-29.0958 15.08684,-6.1719 37.37227,13.723 46.96907,13.7075 9.256,-0.6973 19.9337,-8.8917 36.0086,-26.0513 -21.96,40.2843 -33.2152,37.0962 -41.8047,37.7132 -11.8077,0.8482 -22.22209,-10.1381 -34.98947,-2.4485 -12.36675,7.4482 -45.47364,48.1035 -67.41814,49.475 -21.94449,1.3715 -28.60064,-6.5624 -28.60064,-6.5624 z"
       id="path3282"
       inkscape:connector-curvature="0"
       sodipodi:nodetypes="csccssscc" />
    <path
       style="fill:#ffffff;stroke:none"
       d="m 654.91967,242.60501 c -9.29272,-57.13627 15.01128,-104.29636 30.73741,-116.08639 15.72612,-11.79002 42.88942,-26.30082 56.47107,-29.021594 13.58165,-2.720775 228.74358,-10.883099 241.61041,-3.6277 12.86683,7.255404 70.76754,33.556224 83.63434,68.926294 12.8669,35.37007 14.2965,98.85481 -2.8593,118.80716 -17.1558,19.95235 -33.5966,58.95012 -131.52753,64.39167 -97.93084,5.44155 -226.58142,-9.8672 -254.47723,-51.69472 -15.72612,-23.58005 -23.58917,-51.69472 -23.58917,-51.69472 z"
       id="path3286"
       inkscape:connector-curvature="0"
       sodipodi:nodetypes="csssssssc" />
    <path
       style="fill:#ffffff;stroke:none"
       d="m 1059.9192,210.46832 c 57.57,-27.60206 176.6532,-67.82221 291.0046,52.83824 -146.6853,-86.74934 -164.8238,-65.45632 -280.7524,-28.3907 -115.92869,37.06563 -106.46512,3.15452 -106.46512,3.15452 z"
       id="path3288"
       inkscape:connector-curvature="0" />
  </g>
  <g
     inkscape:groupmode="layer"
     id="layer1"
     inkscape:label="txt">
    <flowRoot
       xml:space="preserve"
       id="flowRoot2987"
       style="font-style:normal;font-variant:normal;font-weight:normal;font-stretch:normal;font-size:12px;line-height:125%;font-family:Lavi;-inkscape-font-specification:Lavi;letter-spacing:0px;word-spacing:0px;fill:#000000;fill-opacity:1;stroke:none"
       transform="matrix(1.5016202,0,0,1.5016202,254.04427,-302.76135)"><flowRegion
         id="flowRegion2989"><rect
           id="rect2991"
           width="573.02454"
           height="197.47694"
           x="120.55251"
           y="283.87552"
           style="font-style:normal;font-variant:normal;font-weight:normal;font-stretch:normal;font-family:Lavi;-inkscape-font-specification:Lavi" /></flowRegion><flowPara
         style="font-style:normal;font-variant:normal;font-weight:normal;font-stretch:normal;font-size:48px;line-height:100%;font-family:'Nanum Pen Script OTF';-inkscape-font-specification:'Nanum Pen Script OTF';text-align:center;text-anchor:middle"
         id="flowPara3390">이제 됐어 캐럿,</flowPara><flowPara
         style="font-style:normal;font-variant:normal;font-weight:normal;font-stretch:normal;font-size:48px;line-height:100%;font-family:'Nanum Pen Script OTF';-inkscape-font-specification:'Nanum Pen Script OTF';text-align:center;text-anchor:middle"
         id="flowPara3384">필요한 재료는 다</flowPara><flowPara
         style="font-style:normal;font-variant:normal;font-weight:normal;font-stretch:normal;font-size:48px;line-height:100%;font-family:'Nanum Pen Script OTF';-inkscape-font-specification:'Nanum Pen Script OTF';text-align:center;text-anchor:middle"
         id="flowPara3386">얻은 것 같아</flowPara></flowRoot>    <flowRoot
       xml:space="preserve"
       id="flowRoot2987-8"
       style="font-style:normal;font-variant:normal;font-weight:normal;font-stretch:normal;font-size:12px;line-height:125%;font-family:Lavi;-inkscape-font-specification:Lavi;letter-spacing:0px;word-spacing:0px;fill:#000000;fill-opacity:1;stroke:none"
       transform="matrix(1.5567205,0,0,1.5567205,78.625325,714.64871)"><flowRegion
         id="flowRegion2989-57"><rect
           id="rect2991-1"
           width="646.4549"
           height="79.985016"
           x="120.55251"
           y="265.53046"
           style="font-style:normal;font-variant:normal;font-weight:normal;font-stretch:normal;font-family:Lavi;-inkscape-font-specification:Lavi" /></flowRegion><flowPara
         style="font-style:normal;font-variant:normal;font-weight:normal;font-stretch:normal;font-size:48px;font-family:'Nanum Pen Script OTF';-inkscape-font-specification:'Nanum Pen Script OTF';text-align:center;text-anchor:middle"
         id="flowPara3017-3">완벽해 ...</flowPara><flowPara
         style="font-style:normal;font-variant:normal;font-weight:normal;font-stretch:normal;font-size:48px;font-family:'Nanum Pen Script OTF';-inkscape-font-specification:'Nanum Pen Script OTF';text-align:center;text-anchor:middle"
         id="flowPara3057" /></flowRoot>    <flowRoot
       xml:space="preserve"
       id="flowRoot2987-8-6"
       style="font-style:normal;font-variant:normal;font-weight:normal;font-stretch:normal;font-size:12px;line-height:125%;font-family:Lavi;-inkscape-font-specification:Lavi;letter-spacing:0px;word-spacing:0px;fill:#000000;fill-opacity:1;stroke:none"
       transform="matrix(1.6150283,0,0,1.6150283,70.479767,785.41902)"><flowRegion
         id="flowRegion2989-57-9"><rect
           id="rect2991-1-7"
           width="646.4549"
           height="79.985016"
           x="120.55251"
           y="265.53046"
           style="font-style:normal;font-variant:normal;font-weight:normal;font-stretch:normal;font-family:Lavi;-inkscape-font-specification:Lavi" /></flowRegion><flowPara
         style="font-style:normal;font-variant:normal;font-weight:normal;font-stretch:normal;font-size:48px;font-family:'Nanum Pen Script OTF';-inkscape-font-specification:'Nanum Pen Script OTF';text-align:center;text-anchor:middle"
         id="flowPara3017-3-3">... 보이네</flowPara><flowPara
         style="font-style:normal;font-variant:normal;font-weight:normal;font-stretch:normal;font-size:48px;font-family:'Nanum Pen Script OTF';-inkscape-font-specification:'Nanum Pen Script OTF';text-align:center;text-anchor:middle"
         id="flowPara3057-7" /></flowRoot>    <flowRoot
       xml:space="preserve"
       id="flowRoot2987-8-6-0"
       style="font-style:normal;font-variant:normal;font-weight:normal;font-stretch:normal;font-size:12px;line-height:125%;font-family:Lavi;-inkscape-font-specification:Lavi;letter-spacing:0px;word-spacing:0px;fill:#000000;fill-opacity:1;stroke:none"
       transform="matrix(1.7715803,0,0,1.7715803,-126.01005,1688.33)"><flowRegion
         id="flowRegion2989-57-9-5"><rect
           id="rect2991-1-7-6"
           width="646.4549"
           height="79.985016"
           x="120.55251"
           y="265.53046"
           style="font-style:normal;font-variant:normal;font-weight:normal;font-stretch:normal;font-family:Lavi;-inkscape-font-specification:Lavi" /></flowRegion><flowPara
         style="font-style:normal;font-variant:normal;font-weight:normal;font-stretch:normal;font-size:48px;font-family:'Nanum Pen Script OTF';-inkscape-font-specification:'Nanum Pen Script OTF';text-align:center;text-anchor:middle"
         id="flowPara3017-3-3-0">음 ...</flowPara><flowPara
         style="font-style:normal;font-variant:normal;font-weight:normal;font-stretch:normal;font-size:48px;font-family:'Nanum Pen Script OTF';-inkscape-font-specification:'Nanum Pen Script OTF';text-align:center;text-anchor:middle"
         id="flowPara3057-7-3" /></flowRoot>    <flowRoot
       xml:space="preserve"
       id="flowRoot2987-8-6-0-1"
       style="font-style:normal;font-variant:normal;font-weight:normal;font-stretch:normal;font-size:12px;line-height:100%;font-family:Lavi;-inkscape-font-specification:Lavi;letter-spacing:0px;word-spacing:0px;fill:#000000;fill-opacity:1;stroke:none"
       transform="matrix(1.4694564,0,0,1.5033303,-13.43582,1926.1797)"><flowRegion
         id="flowRegion2989-57-9-5-4"><rect
           id="rect2991-1-7-6-9"
           width="697.53107"
           height="220.44458"
           x="120.55251"
           y="265.53046"
           style="font-style:normal;font-variant:normal;font-weight:normal;font-stretch:normal;line-height:100%;font-family:Lavi;-inkscape-font-specification:Lavi" /></flowRegion><flowPara
         style="font-style:normal;font-variant:normal;font-weight:normal;font-stretch:normal;font-size:72px;line-height:100%;font-family:'Nanum Pen Script OTF';-inkscape-font-specification:'Nanum Pen Script OTF';text-align:center;text-anchor:middle"
         id="flowPara3017-3-3-0-3">최고로 ... 맛있는...</flowPara><flowPara
         style="font-style:normal;font-variant:normal;font-weight:normal;font-stretch:normal;font-size:64px;line-height:100%;font-family:'Nanum Pen Script OTF';-inkscape-font-specification:'Nanum Pen Script OTF';text-align:center;text-anchor:middle"
         id="flowPara3057-7-3-2">커피야!</flowPara></flowRoot>    <flowRoot
       xml:space="preserve"
       id="flowRoot2987-4"
       style="font-style:normal;font-variant:normal;font-weight:normal;font-stretch:normal;font-size:12px;line-height:125%;font-family:'Nanum Pen Script OTF';-inkscape-font-specification:'Nanum Pen Script OTF';letter-spacing:0px;word-spacing:0px;fill:#000000;fill-opacity:1;stroke:none"
       transform="matrix(1.488341,0,0,1.488341,-12.953173,2209.8303)"><flowRegion
         id="flowRegion2989-3"><rect
           id="rect2991-15"
           width="632.52966"
           height="283.11609"
           x="146.23564"
           y="309.55865"
           style="font-style:normal;font-variant:normal;font-weight:normal;font-stretch:normal;font-family:'Nanum Pen Script OTF';-inkscape-font-specification:'Nanum Pen Script OTF'" /></flowRegion><flowPara
         style="font-style:normal;font-variant:normal;font-weight:normal;font-stretch:normal;font-size:48px;line-height:100%;font-family:'Nanum Pen Script OTF';-inkscape-font-specification:'Nanum Pen Script OTF';text-align:center;text-anchor:middle"
         id="flowPara3393">이것만 있으면 오늘 밤을</flowPara><flowPara
         style="font-style:normal;font-variant:normal;font-weight:normal;font-stretch:normal;font-size:48px;line-height:100%;font-family:'Nanum Pen Script OTF';-inkscape-font-specification:'Nanum Pen Script OTF';text-align:center;text-anchor:middle"
         id="flowPara3397">새서 최고의 포션을 만들</flowPara><flowPara
         style="font-style:normal;font-variant:normal;font-weight:normal;font-stretch:normal;font-size:48px;line-height:100%;font-family:'Nanum Pen Script OTF';-inkscape-font-specification:'Nanum Pen Script OTF';text-align:center;text-anchor:middle"
         id="flowPara3399">준비는 다 됐어</flowPara></flowRoot>    <flowRoot
       xml:space="preserve"
       id="flowRoot2987-4-6"
       style="font-style:normal;font-variant:normal;font-weight:normal;font-stretch:normal;font-size:12px;line-height:125%;font-family:Lavi;-inkscape-font-specification:Lavi;letter-spacing:0px;word-spacing:0px;fill:#000000;fill-opacity:1;stroke:none"
       transform="matrix(1.2718747,0,0,1.2718747,1686.0454,3070.0318)"><flowRegion
         id="flowRegion2989-3-2"><rect
           id="rect2991-15-0"
           width="676.55792"
           height="400.5246"
           x="120.55251"
           y="265.53046"
           style="font-style:normal;font-variant:normal;font-weight:normal;font-stretch:normal;font-family:Lavi;-inkscape-font-specification:Lavi" /></flowRegion><flowPara
         style="font-style:normal;font-variant:normal;font-weight:normal;font-stretch:normal;font-size:48px;font-family:'Nanum Pen Script OTF';-inkscape-font-specification:'Nanum Pen Script OTF';text-align:center;text-anchor:middle"
         id="flowPara3195-9">다음 화에 계속...</flowPara></flowRoot>  </g>
</svg>
