<?xml version="1.0" encoding="UTF-8" standalone="no"?>
<!-- Created with Inkscape (http://www.inkscape.org/) -->

<svg
   xmlns:dc="http://purl.org/dc/elements/1.1/"
   xmlns:cc="http://creativecommons.org/ns#"
   xmlns:rdf="http://www.w3.org/1999/02/22-rdf-syntax-ns#"
   xmlns:svg="http://www.w3.org/2000/svg"
   xmlns="http://www.w3.org/2000/svg"
   xmlns:xlink="http://www.w3.org/1999/xlink"
   xmlns:sodipodi="http://sodipodi.sourceforge.net/DTD/sodipodi-0.dtd"
   xmlns:inkscape="http://www.inkscape.org/namespaces/inkscape"
   id="svg2"
   version="1.1"
   inkscape:version="0.92.1 renderfarm"
   width="2481"
   height="3503"
   sodipodi:docname="Pepper-and-Carrot_by-David-Revoy_E03P04_092.svg">
  <sodipodi:namedview pagecolor="#ffffff" bordercolor="#666666" inkscape:pageopacity="0" inkscape:pageshadow="2" inkscape:window-width="1813" inkscape:window-height="955" id="namedview70" showgrid="false" inkscape:zoom="0.4" inkscape:cx="1284.4231" inkscape:cy="2618.6204" inkscape:current-layer="layer1" /><metadata
     id="metadata8">
    <rdf:RDF>
      <cc:Work
         rdf:about="">
        <dc:format>image/svg+xml</dc:format>
        <dc:type
           rdf:resource="http://purl.org/dc/dcmitype/StillImage" />
        <dc:title />
      </cc:Work>
    </rdf:RDF>
  </metadata>
  <defs
     id="defs6" />
  <sodipodi:namedview
     pagecolor="#ffffff"
     bordercolor="#666666"
     borderopacity="1"
     objecttolerance="10"
     gridtolerance="10"
     guidetolerance="10"
     inkscape:pageopacity="0"
     inkscape:pageshadow="2"
     inkscape:window-width="960"
     inkscape:window-height="962"
     id="namedview4"
     showgrid="false"
     inkscape:zoom="0.36045077"
     inkscape:cx="1347.4882"
     inkscape:cy="1055.9242"
     inkscape:window-x="960"
     inkscape:window-y="30"
     inkscape:window-maximized="0"
     inkscape:current-layer="layer1" />
  <g
     inkscape:groupmode="layer"
     id="layer2"
     inkscape:label="artwork"
     sodipodi:insensitive="true"
     style="display:inline">
    <image
       sodipodi:absref="/home/deevad/peppercarrot/webcomics/ep03_The-secret-ingredients/lang/kr/../gfx_Pepper-and-Carrot_by-David-Revoy_E03P04.png"
       xlink:href="../gfx_Pepper-and-Carrot_by-David-Revoy_E03P04.png"
       y="0"
       x="0"
       id="image10"
       height="3503"
       width="2481" />
  </g>
  <g
     inkscape:groupmode="layer"
     id="layer3"
     inkscape:label="speechbubbles">
    <path
       style="fill:#ffffff;stroke:none"
       d="m 224.19782,1380.2353 c 1.37932,-33.1037 29.59695,-40.0081 54.4247,-42.7668 24.82775,-2.7586 100.69031,8.276 92.4144,48.2762 -8.27592,40.0003 -53.74673,43.4447 -84.09176,39.3068 -30.34503,-4.138 -62.10052,-15.8662 -62.74734,-44.8162 z"
       id="path3938"
       inkscape:connector-curvature="0"
       sodipodi:nodetypes="csssc" />
    <path
       style="color:#000000;fill:#ffffff;fill-opacity:1;fill-rule:nonzero;stroke:none;stroke-width:1px;marker:none;visibility:visible;display:inline;overflow:visible;enable-background:accumulate"
       d="m 368.94185,1386.0419 c 24.68756,9.5472 45.26052,39.3825 48.00359,45.9462 -12.34378,-7.1604 -50.74665,-26.8516 -68.57656,-29.8351 -15.13337,-2.5324 20.57297,-16.1111 20.57297,-16.1111 z"
       id="path3940"
       inkscape:connector-curvature="0"
       sodipodi:nodetypes="ccsc" />
    <path
       style="color:#000000;display:inline;overflow:visible;visibility:visible;fill:#ffffff;fill-opacity:1;fill-rule:nonzero;stroke:none;stroke-width:1px;stroke-linecap:butt;stroke-linejoin:miter;stroke-opacity:1;marker:none;enable-background:accumulate"
       d="m 286.56445,2352.9568 c -46.10847,-7.088 -113.73422,-30.1239 -126.7983,-73.5377 -13.06406,-43.4138 -9.99016,-97.4595 16.90645,-121.3814 26.8966,-23.9219 73.00508,-44.2998 112.96575,-36.3259 39.96067,7.974 92.21694,37.2119 104.51254,77.9677 12.29559,40.7558 0.76847,127.5834 -50.71933,144.4172 -51.48778,16.834 -56.86711,8.8601 -56.86711,8.8601 z"
       id="path3970"
       inkscape:connector-curvature="0" />
    <path
       style="fill:#ffffff;stroke:none;stroke-width:1px;stroke-linecap:butt;stroke-linejoin:miter;stroke-opacity:1;color:#000000;fill-opacity:1;fill-rule:nonzero;marker:none;visibility:visible;display:inline;overflow:visible;enable-background:accumulate"
       d="m 254.8459,2340.3223 c 1.81384,47.1601 45.34624,116.0864 91.59941,107.924 -55.32242,-26.3008 -69.83322,-87.0647 -66.20552,-101.5755 3.6277,-14.5108 -25.39389,-6.3485 -25.39389,-6.3485 z"
       id="path3978"
       inkscape:connector-curvature="0" />
    <path
       style="color:#000000;display:inline;overflow:visible;visibility:visible;fill:#ffffff;fill-opacity:1;fill-rule:nonzero;stroke:none;stroke-width:1px;stroke-linecap:butt;stroke-linejoin:miter;stroke-opacity:1;marker:none;enable-background:accumulate"
       d="m 977.66503,2224.0127 c 0,-60.5827 20.78238,-91.8206 82.43677,-97.5002 61.6542,-5.6796 229.2987,-11.3593 256.3157,8.5194 27.0171,19.8787 36.7155,46.3836 38.101,86.1409 1.3854,39.7573 -60.2688,101.2867 -121.9232,98.4468 -61.6543,-2.8398 -148.2475,2.8399 -181.4993,-11.3592 -33.2517,-14.1991 -70.65998,-35.971 -73.43097,-84.2477 z"
       id="path3986"
       inkscape:connector-curvature="0" />
    <path
       style="color:#000000;fill:#ffffff;fill-opacity:1;fill-rule:nonzero;stroke:none;stroke-width:1px;marker:none;visibility:visible;display:inline;overflow:visible;enable-background:accumulate"
       d="m 997.61738,2413.7832 c 35.37012,-43.5324 121.79372,-42.2278 129.95602,-52.2039 8.1623,-9.9762 20.5935,-15.8155 18.7797,-56.6271 -1.8139,-40.8116 -29.9286,-45.3462 -29.9286,-45.3462 l -9.0692,30.8354 c 0,0 14.4493,43.961 3.8265,51.0758 -10.6227,7.1148 -99.659,25.7577 -113.56442,72.266 z"
       id="path3994"
       inkscape:connector-curvature="0"
       sodipodi:nodetypes="csscczc" />
    <path
       style="color:#000000;display:inline;overflow:visible;visibility:visible;fill:#ffffff;fill-opacity:1;fill-rule:nonzero;stroke:none;stroke-width:1px;stroke-linecap:butt;stroke-linejoin:miter;stroke-opacity:1;marker:none;enable-background:accumulate"
       d="m 1825.3966,2254.0523 c -13.5105,-27.0208 -42.9154,-36.5576 -50.8627,-38.147 24.6366,-3.1789 38.147,-3.9736 48.4785,2.3842 -23.8419,-21.4577 -30.1998,-31.7891 -34.9681,-34.1734 -4.7684,-2.3842 15.0999,-3.1789 24.6366,0 -0.7948,-6.3578 7.9473,-2.3842 7.9473,-2.3842 l -15.0999,-18.2787 18.2788,7.1526 -5.5631,-38.147 35.7628,6.3578 15.0998,-30.1997 3.9737,20.663 69.9361,-34.1734 2.3842,30.9945 50.8626,-30.1998 19.8682,28.6103 15.8946,-21.4577 4.7684,15.8945 57.2205,-15.8945 1.5894,23.8419 70.7309,-7.9474 -19.0735,19.8683 30.1997,1.5894 -15.8946,7.1526 17.484,2.3842 -27.8154,16.6893 32.5838,2.3842 c 0,0 -9.5367,10.3314 -15.0998,12.7156 8.742,4.7685 23.0471,9.5368 23.0471,9.5368 0,0 -15.0998,6.3578 -20.6629,7.1525 8.742,5.5631 15.0998,6.3579 15.0998,6.3579 l -8.742,3.1789 29.405,19.0735 -37.3523,3.9736 c 0,0 12.7156,10.3315 17.4841,11.1262 -13.5104,-0.7947 -23.842,-1.5895 -23.842,-1.5895 0,0 11.1263,8.7421 14.3052,8.7421 3.1789,0 -16.6893,1.5895 -16.6893,1.5895 11.9209,11.1261 21.4576,13.5103 21.4576,13.5103 l -37.3522,-1.5895 -7.1526,24.6367 -13.5103,-19.8682 -6.3579,61.1941 -45.2995,-59.6047 -19.0735,18.2788 -21.4577,-23.8419 -33.3786,70.7309 0.7947,-50.068 -57.2204,31.7892 15.0998,-26.226 -96.1621,25.4313 20.6629,-27.0208 -44.5048,0.7948 11.1262,-17.4841 c 0,0 -58.0152,10.3314 -54.0416,7.9473 3.9737,-2.3842 23.0472,-15.0998 30.9945,-25.4313 z"
       id="path4002"
       inkscape:connector-curvature="0"
       sodipodi:nodetypes="cccsccccccccccccccccccccccccccccccccsc" />
    <path
       style="color:#000000;display:inline;overflow:visible;visibility:visible;fill:#ffffff;fill-opacity:1;fill-rule:nonzero;stroke:none;stroke-width:1px;stroke-linecap:butt;stroke-linejoin:miter;stroke-opacity:1;marker:none;enable-background:accumulate"
       d="m 1726.2673,2335.3268 c 5.9696,-37.415 38.0557,-68.7215 73.8728,-74.8301 35.8172,-6.1086 331.3082,4.5815 353.6939,13.7443 22.3856,9.1629 56.7104,16.035 47.0099,80.1751 -9.7005,64.1401 -52.2333,77.8844 -94.7661,79.4116 -42.5328,1.5271 -295.491,10.6899 -331.3081,-24.4344 -35.8171,-35.1242 -49.9947,-32.07 -48.5024,-74.0665 z"
       id="path4010"
       inkscape:connector-curvature="0" />
    <path
       style="fill:#ffffff;stroke:none;stroke-width:1px;stroke-linecap:butt;stroke-linejoin:miter;stroke-opacity:1;color:#000000;fill-opacity:1;fill-rule:nonzero;marker:none;visibility:visible;display:inline;overflow:visible;enable-background:accumulate"
       d="m 1715.9019,2480.8956 c 26.3008,-46.2531 61.6709,-30.8354 73.4609,-29.9285 11.79,0.9069 54.4155,4.5346 73.4609,-34.4631 19.0455,-38.9978 67.1125,-44.4393 67.1125,-44.4393 l -27.2078,58.9501 c 0,0 -38.0908,33.5562 -66.2055,37.1839 -28.1147,3.6277 -67.1124,-9.0693 -80.7163,-4.5346 -13.6039,4.5346 -29.0216,4.5346 -39.9047,17.2315 z"
       id="path4018"
       inkscape:connector-curvature="0" />
  </g>
  <g
     inkscape:groupmode="layer"
     id="layer1"
     inkscape:label="txt"
     style="display:inline">
    <flowRoot
       xml:space="preserve"
       id="flowRoot2987-4"
       style="font-style:normal;font-variant:normal;font-weight:normal;font-stretch:normal;line-height:0.01%;font-family:Lavi;-inkscape-font-specification:Lavi;text-align:center;letter-spacing:0px;word-spacing:0px;text-anchor:middle;fill:#000000;fill-opacity:1;stroke:none"
       transform="translate(2.774304,22.194432)"><flowRegion
         id="flowRegion2989-5"><rect
           id="rect2991-7"
           width="421.09622"
           height="231.56981"
           x="57.775215"
           y="2140.9873"
           style="font-style:normal;font-variant:normal;font-weight:normal;font-stretch:normal;line-height:100%;font-family:Lavi;-inkscape-font-specification:Lavi;text-align:center;text-anchor:middle" /></flowRegion><flowPara
         style="font-style:normal;font-variant:normal;font-weight:normal;font-stretch:normal;font-size:75.64789581px;line-height:100%;font-family:'Nanum Pen Script OTF';-inkscape-font-specification:'Nanum Pen Script OTF';text-align:center;text-anchor:middle"
         id="flowPara3033"> ... 아!</flowPara><flowPara
         style="font-style:normal;font-variant:normal;font-weight:normal;font-stretch:normal;font-size:75.64789581px;line-height:100%;font-family:'Nanum Pen Script OTF';-inkscape-font-specification:'Nanum Pen Script OTF';text-align:center;text-anchor:middle"
         id="flowPara3024">그래!</flowPara></flowRoot>    <flowRoot
       xml:space="preserve"
       id="flowRoot2987-4-5"
       style="font-style:normal;font-variant:normal;font-weight:normal;font-stretch:normal;line-height:0.01%;font-family:Lavi;-inkscape-font-specification:Lavi;text-align:center;letter-spacing:0px;word-spacing:0px;text-anchor:middle;fill:#000000;fill-opacity:1;stroke:none"
       transform="matrix(1.6203336,0,0,1.6203336,681.01553,1671.6993)"><flowRegion
         id="flowRegion2989-5-5"><rect
           id="rect2991-7-8"
           width="418.87445"
           height="140.22493"
           x="87.260864"
           y="296.04782"
           style="font-style:normal;font-variant:normal;font-weight:normal;font-stretch:normal;line-height:100%;font-family:Lavi;-inkscape-font-specification:Lavi;text-align:center;text-anchor:middle" /></flowRegion><flowPara
         style="font-style:normal;font-variant:normal;font-weight:normal;font-stretch:normal;font-size:48px;line-height:100%;font-family:'Nanum Pen Script OTF';-inkscape-font-specification:'Nanum Pen Script OTF';text-align:center;text-anchor:middle"
         id="flowPara3372">... 그게 딱</flowPara><flowPara
         style="font-style:normal;font-variant:normal;font-weight:normal;font-stretch:normal;font-size:48px;line-height:100%;font-family:'Nanum Pen Script OTF';-inkscape-font-specification:'Nanum Pen Script OTF';text-align:center;text-anchor:middle"
         id="flowPara3376">필요하지!</flowPara></flowRoot>    <flowRoot
       xml:space="preserve"
       id="flowRoot2987-4-5-9"
       style="font-style:normal;font-variant:normal;font-weight:normal;font-stretch:normal;line-height:0.01%;font-family:Lavi;-inkscape-font-specification:Lavi;text-align:center;letter-spacing:0px;word-spacing:0px;text-anchor:middle;fill:#000000;fill-opacity:1;stroke:none"
       transform="matrix(2.9174652,0,0,2.7148817,951.20839,1403.8505)"><flowRegion
         id="flowRegion2989-5-5-0"><rect
           id="rect2991-7-8-3"
           width="469.71762"
           height="144.28166"
           x="120.55251"
           y="265.53046"
           style="font-style:normal;font-variant:normal;font-weight:normal;font-stretch:normal;font-family:Lavi;-inkscape-font-specification:Lavi;text-align:center;text-anchor:middle" /></flowRegion><flowPara
         style="font-style:normal;font-variant:normal;font-weight:normal;font-stretch:normal;font-size:48px;line-height:1.25;font-family:'Nanum Pen Script OTF';-inkscape-font-specification:'Nanum Pen Script OTF';text-align:center;text-anchor:middle"
         id="flowPara3024-5-4">당근아!</flowPara></flowRoot>    <flowRoot
       xml:space="preserve"
       id="flowRoot2987-4-5-6"
       style="font-style:normal;font-variant:normal;font-weight:normal;font-stretch:normal;line-height:0.01%;font-family:Lavi;-inkscape-font-specification:Lavi;text-align:center;letter-spacing:0px;word-spacing:0px;text-anchor:middle;fill:#000000;fill-opacity:1;stroke:none"
       transform="matrix(1.3495605,0,0,1.3634291,1460.814,1919.1229)"><flowRegion
         id="flowRegion2989-5-5-8"><rect
           id="rect2991-7-8-5"
           width="583.94647"
           height="187.58496"
           x="81.712257"
           y="268.30475"
           style="font-style:normal;font-variant:normal;font-weight:normal;font-stretch:normal;line-height:100%;font-family:Lavi;-inkscape-font-specification:Lavi;text-align:center;text-anchor:middle" /></flowRegion><flowPara
         style="font-style:normal;font-variant:normal;font-weight:normal;font-stretch:normal;font-size:48px;line-height:100%;font-family:'Nanum Pen Script OTF';-inkscape-font-specification:'Nanum Pen Script OTF';text-align:center;text-anchor:middle"
         id="flowPara3381">어서 준비해, 같이</flowPara><flowPara
         style="font-style:normal;font-variant:normal;font-weight:normal;font-stretch:normal;font-size:48px;line-height:100%;font-family:'Nanum Pen Script OTF';-inkscape-font-specification:'Nanum Pen Script OTF';text-align:center;text-anchor:middle"
         id="flowPara3382">재료를 찾으러 가자.</flowPara></flowRoot>    <flowRoot
       xml:space="preserve"
       id="flowRoot2987-4-0"
       style="font-style:normal;font-variant:normal;font-weight:normal;font-stretch:normal;line-height:0.01%;font-family:Lavi;-inkscape-font-specification:Lavi;text-align:center;letter-spacing:0px;word-spacing:0px;text-anchor:middle;fill:#000000;fill-opacity:1;stroke:none"
       transform="translate(47.104249,1074.6036)"><flowRegion
         id="flowRegion2989-5-2"><rect
           id="rect2991-7-3"
           width="247.77328"
           height="219.06728"
           x="120.55251"
           y="265.53046"
           style="font-style:normal;font-variant:normal;font-weight:normal;font-stretch:normal;font-family:Lavi;-inkscape-font-specification:Lavi;text-align:center;text-anchor:middle" /></flowRegion><flowPara
         style="font-size:48px;line-height:1.25;text-align:center;text-anchor:middle"
         id="flowPara3024-3">...</flowPara></flowRoot>    <text
       xml:space="preserve"
       style="font-style:normal;font-weight:normal;line-height:0%;font-family:sans-serif;letter-spacing:0px;word-spacing:0px;fill:#000000;fill-opacity:1;stroke:none;stroke-width:1px;stroke-linecap:butt;stroke-linejoin:miter;stroke-opacity:1"
       x="2114.0195"
       y="2892.6531"
       id="text3389"><tspan
         sodipodi:role="line"
         id="tspan3391"
         x="2114.0195"
         y="2892.6531"
         style="font-size:40px;line-height:1.25"> </tspan></text>
  </g>
</svg>
