<?xml version="1.0" encoding="UTF-8" standalone="no"?>
<!-- Created with Inkscape (http://www.inkscape.org/) -->

<svg
   xmlns:dc="http://purl.org/dc/elements/1.1/"
   xmlns:cc="http://creativecommons.org/ns#"
   xmlns:rdf="http://www.w3.org/1999/02/22-rdf-syntax-ns#"
   xmlns:svg="http://www.w3.org/2000/svg"
   xmlns="http://www.w3.org/2000/svg"
   xmlns:xlink="http://www.w3.org/1999/xlink"
   xmlns:sodipodi="http://sodipodi.sourceforge.net/DTD/sodipodi-0.dtd"
   xmlns:inkscape="http://www.inkscape.org/namespaces/inkscape"
   id="svg2"
   version="1.1"
   inkscape:version="0.91+devel r"
   width="2481"
   height="3503"
   sodipodi:docname="Pepper-and-Carrot_by-David-Revoy_E03P06.svg"
   viewBox="0 0 2481 3503">
  <metadata
     id="metadata8">
    <rdf:RDF>
      <cc:Work
         rdf:about="">
        <dc:format>image/svg+xml</dc:format>
        <dc:type
           rdf:resource="http://purl.org/dc/dcmitype/StillImage" />
        <dc:title />
      </cc:Work>
    </rdf:RDF>
  </metadata>
  <defs
     id="defs6" />
  <sodipodi:namedview
     pagecolor="#ffffff"
     bordercolor="#666666"
     borderopacity="1"
     objecttolerance="10"
     gridtolerance="10"
     guidetolerance="10"
     inkscape:pageopacity="0"
     inkscape:pageshadow="2"
     inkscape:window-width="1920"
     inkscape:window-height="1041"
     id="namedview4"
     showgrid="false"
     inkscape:zoom="0.36045077"
     inkscape:cx="833.73756"
     inkscape:cy="1133.7194"
     inkscape:window-x="0"
     inkscape:window-y="20"
     inkscape:window-maximized="1"
     inkscape:current-layer="layer1"
     inkscape:document-units="px" />
  <g
     inkscape:groupmode="layer"
     id="layer2"
     inkscape:label="artwork"
     sodipodi:insensitive="true">
    <image
       sodipodi:absref="/home/hsc/graphics/Projekte/peppercarrot/ep003-secret-ingredient/peppercarrot_ep03_translation/de/../gfx_Pepper-and-Carrot_by-David-Revoy_E03P06.png"
       xlink:href="../gfx_Pepper-and-Carrot_by-David-Revoy_E03P06.png"
       width="2481"
       height="3503"
       id="image10"
       x="0"
       y="0" />
  </g>
  <g
     inkscape:groupmode="layer"
     id="layer3"
     inkscape:label="speechbubbles">
    <path
       style="fill:#ffffff;stroke:none"
       d="m 159.76021,952.9225 c 7.1965,-81.55976 67.1669,-143.92898 112.7444,-157.12247 45.5775,-13.19349 209.8964,-2.39882 226.6881,0 16.7918,2.39882 109.1462,37.18165 131.9349,80.36035 22.7888,43.17869 -9.5952,163.11952 -62.3692,190.70592 -52.7739,27.5864 -211.0958,49.1757 -233.8846,44.3781 -22.7887,-4.7976 -183.5094,-43.1787 -175.1136,-158.3219 z"
       id="path3021"
       inkscape:connector-curvature="0" />
    <path
       style="fill:#ffffff;stroke:none"
       d="m 733.88311,1085.2688 c -44.306,12.9389 -54.1082,2.7446 -64.3025,-9.8023 -10.1943,-12.5468 -18.0361,-25.0936 -28.6225,-25.8778 -10.5864,-0.7842 -23.9174,4.313 -33.3275,9.4101 -9.4102,5.0972 -16.507,-1.9213 -25.1329,-8.9789 -8.626,-7.0576 -62.695,-32.5825 -62.695,-32.5825 0,0 18.8203,41.1693 28.6225,51.7557 9.8022,10.5864 13.331,14.5073 18.4281,17.644 5.0972,3.1367 18.8203,9.0181 29.7988,6.2734 10.9785,-2.7446 19.9965,-10.5864 27.8383,-14.5072 7.8417,-3.9209 21.1532,-0.549 30.9554,7.2928 9.8022,7.8418 34.739,22.2706 51.9909,15.9972 17.2519,-6.2734 26.4464,-16.6245 26.4464,-16.6245 z"
       id="path3023"
       inkscape:connector-curvature="0"
       sodipodi:nodetypes="csssscssssssc" />
    <path
       style="fill:#ffffff;stroke:none"
       d="m 1218.246,3142.3097 c 2.8185,-93.0106 142.2795,-103.4392 214.4114,-108.9878 72.1319,-5.5486 263.5588,-24.9687 335.6907,49.9375 72.1319,74.9062 33.2917,141.4895 -11.0972,160.9096 -44.3888,19.4202 -63.809,55.4861 -97.1006,55.4861 -33.2917,0 -297.782,7.0019 -365.3993,-30.1129 -36.0596,-19.793 -79.3235,-34.2218 -76.505,-127.2325 z"
       id="path3100"
       inkscape:connector-curvature="0"
       sodipodi:nodetypes="zsssssz" />
    <path
       style="fill:#ffffff;stroke:none;stroke-width:1px;stroke-linecap:butt;stroke-linejoin:miter;stroke-opacity:1"
       d="m 1116.307,3102.8707 c 15.5043,16.6969 26.238,26.8343 36.3754,25.6417 10.1374,-1.1926 22.0637,-1.789 29.2196,-11.33 7.1558,-9.5411 22.0637,-19.6785 28.6232,-17.2933 6.5595,2.3853 30.4122,11.9264 38.7607,29.2196 8.3484,17.2932 25.0453,-21.4674 25.0453,-21.4674 0,0 -23.2564,-25.6417 -28.6232,-28.6233 -5.3669,-2.9816 -19.6785,-16.1006 -42.3386,-0.5963 -22.6601,15.5043 -33.3938,32.7975 -45.3202,36.9717 -11.9263,4.1742 -31.0085,0.5963 -41.7422,-12.5227 z"
       id="path3137"
       inkscape:connector-curvature="0" />
  </g>
  <g
     inkscape:groupmode="layer"
     id="layer1"
     inkscape:label="txt">
    <flowRoot
       xml:space="preserve"
       id="flowRoot2987"
       style="font-style:normal;font-variant:normal;font-weight:normal;font-stretch:normal;font-size:12px;line-height:125%;font-family:Lavi;-inkscape-font-specification:Lavi;letter-spacing:0px;word-spacing:0px;fill:#000000;fill-opacity:1;stroke:none"
       transform="translate(-68.111416,572.62572)"><flowRegion
         id="flowRegion2989"><rect
           id="rect2991"
           width="676.91821"
           height="308.9158"
           x="120.55251"
           y="265.53046"
           style="font-style:normal;font-variant:normal;font-weight:normal;font-stretch:normal;font-family:Lavi;-inkscape-font-specification:Lavi" /></flowRegion><flowPara
         style="font-size:48px;text-align:center;text-anchor:middle"
         id="flowPara3019">...dazu Phönix-</flowPara><flowPara
         style="font-size:48px;text-align:center;text-anchor:middle"
         id="flowPara4169">Eierschalen aus</flowPara><flowPara
         style="font-size:48px;text-align:center;text-anchor:middle"
         id="flowPara4179">dem Tal der</flowPara><flowPara
         style="font-size:48px;text-align:center;text-anchor:middle"
         id="flowPara4171">Vulkane...</flowPara></flowRoot>    <flowRoot
       xml:space="preserve"
       id="flowRoot2987-0"
       style="font-style:normal;font-variant:normal;font-weight:normal;font-stretch:normal;font-size:12px;line-height:125%;font-family:Lavi;-inkscape-font-specification:Lavi;letter-spacing:0px;word-spacing:0px;fill:#000000;fill-opacity:1;stroke:none"
       transform="translate(1071.7068,2814.2573)"><flowRegion
         id="flowRegion2989-9"><rect
           id="rect2991-9"
           width="626.15924"
           height="205.81171"
           x="120.55251"
           y="265.53046"
           style="font-style:normal;font-variant:normal;font-weight:normal;font-stretch:normal;font-family:Lavi;-inkscape-font-specification:Lavi" /></flowRegion><flowPara
         style="font-size:48px;text-align:center;text-anchor:middle"
         id="flowPara3117">...und zuletzt noch einen</flowPara><flowPara
         style="font-size:48px;text-align:center;text-anchor:middle"
         id="flowPara4186">Tropfen Milch von einer</flowPara><flowPara
         style="font-size:48px;text-align:center;text-anchor:middle"
         id="flowPara4188">jungen Drachenkuh</flowPara></flowRoot>  </g>
</svg>
