<?xml version="1.0" encoding="UTF-8" standalone="no"?>
<!-- Created with Inkscape (http://www.inkscape.org/) -->

<svg
   xmlns:dc="http://purl.org/dc/elements/1.1/"
   xmlns:cc="http://creativecommons.org/ns#"
   xmlns:rdf="http://www.w3.org/1999/02/22-rdf-syntax-ns#"
   xmlns:svg="http://www.w3.org/2000/svg"
   xmlns="http://www.w3.org/2000/svg"
   xmlns:xlink="http://www.w3.org/1999/xlink"
   xmlns:sodipodi="http://sodipodi.sourceforge.net/DTD/sodipodi-0.dtd"
   xmlns:inkscape="http://www.inkscape.org/namespaces/inkscape"
   id="svg2"
   version="1.1"
   inkscape:version="0.92.1 renderfarm"
   width="2481"
   height="3503"
   sodipodi:docname="Pepper-and-Carrot_by-David-Revoy_E03P07_092.svg">
  <sodipodi:namedview pagecolor="#ffffff" bordercolor="#666666" inkscape:pageopacity="0" inkscape:pageshadow="2" inkscape:window-width="1813" inkscape:window-height="955" id="namedview70" showgrid="false" inkscape:zoom="0.4" inkscape:cx="1284.4231" inkscape:cy="2618.6204" inkscape:current-layer="layer1" /><metadata
     id="metadata8">
    <rdf:RDF>
      <cc:Work
         rdf:about="">
        <dc:format>image/svg+xml</dc:format>
        <dc:type
           rdf:resource="http://purl.org/dc/dcmitype/StillImage" />
        <dc:title />
      </cc:Work>
    </rdf:RDF>
  </metadata>
  <defs
     id="defs6" />
  <sodipodi:namedview
     pagecolor="#ffffff"
     bordercolor="#666666"
     borderopacity="1"
     objecttolerance="10"
     gridtolerance="10"
     guidetolerance="10"
     inkscape:pageopacity="0"
     inkscape:pageshadow="2"
     inkscape:window-width="1224"
     inkscape:window-height="1006"
     id="namedview4"
     showgrid="false"
     inkscape:zoom="0.38544754"
     inkscape:cx="1170.2373"
     inkscape:cy="932.88773"
     inkscape:window-x="684"
     inkscape:window-y="27"
     inkscape:window-maximized="0"
     inkscape:current-layer="layer1" />
  <g
     inkscape:groupmode="layer"
     id="layer2"
     inkscape:label="artwork"
     sodipodi:insensitive="true">
    <image
       sodipodi:absref="/home/deevad/peppercarrot/webcomics/ep03_The-secret-ingredients/lang/fi/../gfx_Pepper-and-Carrot_by-David-Revoy_E03P07.png"
       xlink:href="../gfx_Pepper-and-Carrot_by-David-Revoy_E03P07.png"
       y="0"
       x="0"
       id="image10"
       height="3503"
       width="2481" />
  </g>
  <g
     inkscape:groupmode="layer"
     id="layer3"
     inkscape:label="speechbubbles">
    <path
       style="fill:#ffffff;stroke:none"
       d="m 503.47767,2211.4516 c -6.41079,-26.4597 50.37762,-30.6925 57.72435,-36.1733 7.34674,-5.4808 24.13929,-25.2117 36.73373,-28.5002 12.59434,-3.2885 58.77382,10.9617 74.51687,18.6347 15.74295,7.6732 38.70751,-8.0464 61.92243,-4.3845 23.21493,3.6618 30.43653,24.1155 40.93183,30.6923 10.4953,6.577 59.8234,8.7694 60.87297,37.2695 1.04957,28.5002 -71.36827,28.5002 -83.96271,30.6925 -12.59444,2.1924 -47.22905,17.5385 -66.12061,15.3462 -18.89156,-2.1923 -54.57574,-13.1539 -72.41783,-15.3462 -17.84209,-2.1923 -44.08041,9.8654 -55.62528,1.0962 -11.54487,-8.7694 -10.49534,-15.3463 -15.743,-19.7309 -5.24767,-4.3846 -32.42196,-3.1367 -38.83275,-29.5963 z"
       id="path3250"
       inkscape:connector-curvature="0"
       sodipodi:nodetypes="zssszsssssssz" />
    <path
       style="fill:#ffffff;stroke:none"
       d="m 346.26392,2416.5772 c 11.85374,-82.1355 52.80304,-160.751 299.5764,-171.3113 246.77337,-10.5602 348.06899,97.3893 349.1466,159.5776 1.07762,62.1883 -72.20007,178.3514 -271.55846,180.6982 -199.3584,2.3468 -370.69886,-8.2136 -377.16454,-168.9645 z"
       id="path3270"
       inkscape:connector-curvature="0" />
    <path
       style="fill:#ffffff;stroke:none"
       d="m 929.28059,2436.0482 c 18.77335,14.6015 45.8904,32.3319 55.27707,31.2889 9.38668,-1.0429 39.63264,-1.0429 57.36304,-9.3867 17.7303,-8.3437 82.191,36.2751 86.3629,68.607 -35.4608,-37.5467 -84.9631,-43.4989 -101.1675,-40.6756 -13.9753,2.4349 -44.64436,26.3028 -54.03104,26.3028 -26.07409,2.0859 -55.27707,-10.4297 -64.66374,-34.4178 -9.38667,-23.9882 20.85927,-41.7186 20.85927,-41.7186 z"
       id="path3272"
       inkscape:connector-curvature="0"
       sodipodi:nodetypes="ccscscsc" />
    <path
       style="fill:#ffffff;stroke:none"
       d="m 226.48225,2791.0594 c 11.87865,-120.1766 124.18582,-258.1183 387.67572,-238.263 263.48989,19.8553 363.91842,105.5463 356.35928,269.6133 -7.55913,164.067 -150.10285,227.8129 -371.47756,218.4077 -221.37471,-9.4051 -385.51596,-76.286 -372.55744,-249.758 z"
       id="path3274"
       inkscape:connector-curvature="0" />
    <path
       style="fill:#ffffff;stroke:none"
       d="m 924.61883,2750.2524 c 48.74721,-18.1385 83.15697,8.1623 93.67117,29.0216 10.5141,20.8592 63.0845,9.9761 74.5545,-11.7901 -19.9609,52.676 -79.703,54.6393 -121.73244,26.0768 -12.33917,-8.3855 -34.85287,3.408 -41.54166,27.8751 -6.18209,22.6137 -31.71475,33.9701 -31.71475,33.9701 z"
       id="path3276"
       inkscape:connector-curvature="0"
       sodipodi:nodetypes="cscsscc" />
    <path
       style="fill:#ffffff;stroke:none"
       d="m 418.41019,1171.5799 c 3.27204,-38.7657 42.53649,-55.3795 60.5327,-60.9174 17.99621,-5.5379 94.88908,-13.8449 145.60566,-13.8449 50.71658,0 176.69002,2.7689 197.95826,4.1535 21.26825,1.3845 80.16492,29.0741 81.80094,53.9949 1.63602,24.9207 -8.1801,41.5346 -37.62843,56.7639 -29.44833,15.2294 -212.68243,22.1517 -224.13457,20.7673 -11.45212,-1.3845 -163.60186,-11.0758 -173.41797,-15.2294 -9.81612,-4.1534 -49.08057,-15.2292 -50.71659,-45.6879 z"
       id="path3278"
       inkscape:connector-curvature="0" />
    <path
       style="fill:#ffffff;stroke:none"
       d="m 528.64367,1281.0367 c 9.63078,-57.4135 35.77146,-94.799 193.99135,-86.7877 158.21989,8.0111 211.87707,36.0503 210.50124,81.447 -1.37582,45.3965 -70.16708,105.4804 -195.36716,94.7988 -125.2001,-10.6815 -213.2529,-22.6983 -209.12543,-89.4581 z"
       id="path3280"
       inkscape:connector-curvature="0" />
    <path
       style="fill:#ffffff;stroke:none"
       d="m 916.67011,1251.9255 c 34.97404,-9.6007 44.08738,-22.9239 59.17422,-29.0958 15.08684,-6.1719 37.37227,13.723 46.96907,13.7075 9.256,-0.6973 19.9337,-8.8917 36.0086,-26.0513 -21.96,40.2843 -33.2152,37.0962 -41.8047,37.7132 -11.8077,0.8482 -22.22209,-10.1381 -34.98947,-2.4485 -12.36675,7.4482 -45.47364,48.1035 -67.41814,49.475 -21.94449,1.3715 -28.60064,-6.5624 -28.60064,-6.5624 z"
       id="path3282"
       inkscape:connector-curvature="0"
       sodipodi:nodetypes="csccssscc" />
    <path
       style="fill:#ffffff;stroke:none"
       d="m 541.43417,242.60501 c -11.79003,-57.13627 19.04541,-104.29636 38.99776,-116.08639 19.95235,-11.79002 54.4155,-26.30082 71.64707,-29.021594 17.23157,-2.720775 290.21596,-10.883099 306.54061,-3.6277 16.32465,7.255404 89.78559,33.556224 106.11019,68.926294 16.3247,35.37007 18.1385,98.85481 -3.6277,118.80716 -21.7662,19.95235 -42.6254,58.95012 -166.87416,64.39167 -124.24871,5.44155 -287.47275,-9.8672 -322.86526,-51.69472 -19.95235,-23.58005 -29.92851,-51.69472 -29.92851,-51.69472 z"
       id="path3286"
       inkscape:connector-curvature="0"
       sodipodi:nodetypes="csssssssc" />
    <path
       style="fill:#ffffff;stroke:none"
       d="m 1059.9192,210.46832 c 57.57,-27.60206 176.6532,-67.82221 291.0046,52.83824 -146.6853,-86.74934 -164.8238,-65.45632 -280.7524,-28.3907 -115.92869,37.06563 -106.46512,3.15452 -106.46512,3.15452 z"
       id="path3288"
       inkscape:connector-curvature="0" />
  </g>
  <g
     inkscape:groupmode="layer"
     id="layer1"
     inkscape:label="txt">
    <flowRoot
       xml:space="preserve"
       id="flowRoot2987"
       style="font-style:normal;font-variant:normal;font-weight:normal;font-stretch:normal;line-height:0.01%;font-family:Lavi;-inkscape-font-specification:Lavi;letter-spacing:0px;word-spacing:0px;fill:#000000;fill-opacity:1;stroke:none"
       transform="translate(408.71268,-137.28313)"><flowRegion
         id="flowRegion2989"><rect
           id="rect2991"
           width="558.34851"
           height="226.82907"
           x="120.55251"
           y="265.53046"
           style="font-style:normal;font-variant:normal;font-weight:normal;font-stretch:normal;font-family:Lavi;-inkscape-font-specification:Lavi" /></flowRegion><flowPara
         id="flowPara2995"
         style="font-size:48px;line-height:1.25;text-align:center;text-anchor:middle">Siinä se, Carrot,</flowPara><flowPara
         style="font-size:48px;line-height:1.25;text-align:center;text-anchor:middle"
         id="flowPara3015">minulla lienee nyt</flowPara><flowPara
         style="font-size:48px;line-height:1.25;text-align:center;text-anchor:middle"
         id="flowPara3017">kaikki tarvittava</flowPara></flowRoot>    <flowRoot
       xml:space="preserve"
       id="flowRoot2987-8"
       style="font-style:normal;font-variant:normal;font-weight:normal;font-stretch:normal;line-height:0.01%;font-family:Lavi;-inkscape-font-specification:Lavi;letter-spacing:0px;word-spacing:0px;fill:#000000;fill-opacity:1;stroke:none"
       transform="translate(239.63783,865.99256)"><flowRegion
         id="flowRegion2989-57"><rect
           id="rect2991-1"
           width="646.4549"
           height="79.985016"
           x="120.55251"
           y="265.53046"
           style="font-style:normal;font-variant:normal;font-weight:normal;font-stretch:normal;font-family:Lavi;-inkscape-font-specification:Lavi" /></flowRegion><flowPara
         style="font-size:48px;line-height:1.25;text-align:center;text-anchor:middle"
         id="flowPara3017-3">Tämä näyttää ...</flowPara><flowPara
         style="font-size:48px;line-height:1.25;text-align:center;text-anchor:middle"
         id="flowPara3057"> </flowPara></flowRoot>    <flowRoot
       xml:space="preserve"
       id="flowRoot2987-8-6"
       style="font-style:normal;font-variant:normal;font-weight:normal;font-stretch:normal;line-height:0.01%;font-family:Lavi;-inkscape-font-specification:Lavi;letter-spacing:0px;word-spacing:0px;fill:#000000;fill-opacity:1;stroke:none"
       transform="translate(272.00728,980.40241)"><flowRegion
         id="flowRegion2989-57-9"><rect
           id="rect2991-1-7"
           width="646.4549"
           height="79.985016"
           x="120.55251"
           y="265.53046"
           style="font-style:normal;font-variant:normal;font-weight:normal;font-stretch:normal;font-family:Lavi;-inkscape-font-specification:Lavi" /></flowRegion><flowPara
         style="font-size:48px;line-height:1.25;text-align:center;text-anchor:middle"
         id="flowPara3017-3-3">... täydelliseltä</flowPara><flowPara
         style="font-size:48px;line-height:1.25;text-align:center;text-anchor:middle"
         id="flowPara3057-7"> </flowPara></flowRoot>    <flowRoot
       xml:space="preserve"
       id="flowRoot2987-8-6-0"
       style="font-style:normal;font-variant:normal;font-weight:normal;font-stretch:normal;line-height:0.01%;font-family:Lavi;-inkscape-font-specification:Lavi;letter-spacing:0px;word-spacing:0px;fill:#000000;fill-opacity:1;stroke:none"
       transform="translate(215.17296,1914.6074)"><flowRegion
         id="flowRegion2989-57-9-5"><rect
           id="rect2991-1-7-6"
           width="646.4549"
           height="79.985016"
           x="120.55251"
           y="265.53046"
           style="font-style:normal;font-variant:normal;font-weight:normal;font-stretch:normal;font-family:Lavi;-inkscape-font-specification:Lavi" /></flowRegion><flowPara
         style="font-size:48px;line-height:1.25;text-align:center;text-anchor:middle"
         id="flowPara3017-3-3-0">Mmm ...</flowPara><flowPara
         style="font-size:48px;line-height:1.25;text-align:center;text-anchor:middle"
         id="flowPara3057-7-3"> </flowPara></flowRoot>    <flowRoot
       xml:space="preserve"
       id="flowRoot2987-8-6-0-1"
       style="font-style:normal;font-variant:normal;font-weight:normal;font-stretch:normal;line-height:0.01%;font-family:Lavi;-inkscape-font-specification:Lavi;letter-spacing:0px;word-spacing:0px;fill:#000000;fill-opacity:1;stroke:none"
       transform="matrix(1.0270069,0,0,1.0526176,191.3772,1995.5088)"><flowRegion
         id="flowRegion2989-57-9-5-4"><rect
           id="rect2991-1-7-6-9"
           width="725.31885"
           height="289.45618"
           x="120.55251"
           y="265.53046"
           style="font-style:normal;font-variant:normal;font-weight:normal;font-stretch:normal;font-family:Lavi;-inkscape-font-specification:Lavi" /></flowRegion><flowPara
         style="font-size:72px;line-height:1.25;text-align:center;text-anchor:middle"
         id="flowPara3385">Parasta ...</flowPara><flowPara
         style="font-size:72px;line-height:1.25;text-align:center;text-anchor:middle"
         id="flowPara3389">Kahvia ...</flowPara><flowPara
         style="font-size:64px;line-height:1.25;text-align:center;text-anchor:middle"
         id="flowPara3149">Ikinä !</flowPara><flowPara
         style="font-size:64px;line-height:1.25;text-align:center;text-anchor:middle"
         id="flowPara3057-7-3-2"> </flowPara></flowRoot>    <flowRoot
       xml:space="preserve"
       id="flowRoot2987-4"
       style="font-style:normal;font-variant:normal;font-weight:normal;font-stretch:normal;line-height:0.01%;font-family:Lavi;-inkscape-font-specification:Lavi;letter-spacing:0px;word-spacing:0px;fill:#000000;fill-opacity:1;stroke:none"
       transform="translate(128.00688,2371.2539)"><flowRegion
         id="flowRegion2989-3"><rect
           id="rect2991-15"
           width="676.55792"
           height="400.5246"
           x="120.55251"
           y="265.53046"
           style="font-style:normal;font-variant:normal;font-weight:normal;font-stretch:normal;font-family:Lavi;-inkscape-font-specification:Lavi" /></flowRegion><flowPara
         style="font-size:48px;line-height:1.25;text-align:center;text-anchor:middle"
         id="flowPara3017-0">Tätä juuri tarvitsen</flowPara><flowPara
         style="font-size:48px;line-height:1.25;text-align:center;text-anchor:middle"
         id="flowPara3189">pystyäkseni työskentelemään</flowPara><flowPara
         style="font-size:48px;line-height:1.25;text-align:center;text-anchor:middle"
         id="flowPara3191">koko yön ja valmistamaan</flowPara><flowPara
         style="font-size:48px;line-height:1.25;text-align:center;text-anchor:middle"
         id="flowPara3193">parhaimman taikajuoman</flowPara><flowPara
         style="font-size:48px;line-height:1.25;text-align:center;text-anchor:middle"
         id="flowPara3195">huomiseen kilpailuun</flowPara></flowRoot>    <flowRoot
       xml:space="preserve"
       id="flowRoot2987-4-6"
       style="font-style:normal;font-variant:normal;font-weight:normal;font-stretch:normal;line-height:0.01%;font-family:Lavi;-inkscape-font-specification:Lavi;letter-spacing:0px;word-spacing:0px;fill:#000000;fill-opacity:1;stroke:none"
       transform="translate(1782.1297,3155.1742)"><flowRegion
         id="flowRegion2989-3-2"><rect
           id="rect2991-15-0"
           width="676.55792"
           height="400.5246"
           x="120.55251"
           y="265.53046"
           style="font-style:normal;font-variant:normal;font-weight:normal;font-stretch:normal;font-family:Lavi;-inkscape-font-specification:Lavi" /></flowRegion><flowPara
         style="font-size:48px;line-height:1.25;text-align:center;text-anchor:middle"
         id="flowPara3195-9">Jatkuu ...</flowPara></flowRoot>    <flowRoot
       xml:space="preserve"
       id="flowRoot3391"
       style="font-style:normal;font-weight:normal;line-height:0.01%;font-family:sans-serif;letter-spacing:0px;word-spacing:0px;fill:#000000;fill-opacity:1;stroke:none;stroke-width:1px;stroke-linecap:butt;stroke-linejoin:miter;stroke-opacity:1"><flowRegion
         id="flowRegion3393"><rect
           id="rect3395"
           width="2.5943868"
           height="44.104576"
           x="723.83392"
           y="2291.4214" /></flowRegion><flowPara
         id="flowPara3397"
         style="font-size:40px;line-height:1.25"> </flowPara></flowRoot>    <flowRoot
       xml:space="preserve"
       id="flowRoot3399"
       style="font-style:normal;font-weight:normal;line-height:0.01%;font-family:sans-serif;letter-spacing:0px;word-spacing:0px;fill:#000000;fill-opacity:1;stroke:none;stroke-width:1px;stroke-linecap:butt;stroke-linejoin:miter;stroke-opacity:1"><flowRegion
         id="flowRegion3401"><rect
           id="rect3403"
           width="10.377547"
           height="44.104576"
           x="812.04303"
           y="2304.3933" /></flowRegion><flowPara
         id="flowPara3405"
         style="font-size:40px;line-height:1.25"> </flowPara></flowRoot>  </g>
</svg>
