<?xml version="1.0" encoding="UTF-8" standalone="no"?>
<!-- Created with Inkscape (http://www.inkscape.org/) -->

<svg
   xmlns:dc="http://purl.org/dc/elements/1.1/"
   xmlns:cc="http://creativecommons.org/ns#"
   xmlns:rdf="http://www.w3.org/1999/02/22-rdf-syntax-ns#"
   xmlns:svg="http://www.w3.org/2000/svg"
   xmlns="http://www.w3.org/2000/svg"
   xmlns:xlink="http://www.w3.org/1999/xlink"
   xmlns:sodipodi="http://sodipodi.sourceforge.net/DTD/sodipodi-0.dtd"
   xmlns:inkscape="http://www.inkscape.org/namespaces/inkscape"
   id="svg2"
   version="1.1"
   inkscape:version="0.92.1 renderfarm"
   width="2481"
   height="3503"
   sodipodi:docname="Pepper-and-Carrot_by-David-Revoy_E03P02_092.svg">
  <sodipodi:namedview pagecolor="#ffffff" bordercolor="#666666" inkscape:pageopacity="0" inkscape:pageshadow="2" inkscape:window-width="1813" inkscape:window-height="955" id="namedview70" showgrid="false" inkscape:zoom="0.4" inkscape:cx="1284.4231" inkscape:cy="2618.6204" inkscape:current-layer="layer1" /><metadata
     id="metadata8">
    <rdf:RDF>
      <cc:Work
         rdf:about="">
        <dc:format>image/svg+xml</dc:format>
        <dc:type
           rdf:resource="http://purl.org/dc/dcmitype/StillImage" />
        <dc:title />
      </cc:Work>
    </rdf:RDF>
  </metadata>
  <defs
     id="defs6" />
  <sodipodi:namedview
     pagecolor="#ffffff"
     bordercolor="#666666"
     borderopacity="1"
     objecttolerance="10"
     gridtolerance="10"
     guidetolerance="10"
     inkscape:pageopacity="0"
     inkscape:pageshadow="2"
     inkscape:window-width="1920"
     inkscape:window-height="1026"
     id="namedview4"
     showgrid="false"
     inkscape:zoom="0.35960389"
     inkscape:cx="1152.0265"
     inkscape:cy="201.87037"
     inkscape:window-x="0"
     inkscape:window-y="27"
     inkscape:window-maximized="1"
     inkscape:current-layer="layer1" />
  <g
     inkscape:groupmode="layer"
     id="layer3"
     inkscape:label="artwork"
     sodipodi:insensitive="true">
    <image
       sodipodi:absref="/home/deevad/peppercarrot/webcomics/ep03_The-secret-ingredients/lang/el/../gfx_Pepper-and-Carrot_by-David-Revoy_E03P02.png"
       xlink:href="../gfx_Pepper-and-Carrot_by-David-Revoy_E03P02.png"
       width="2481"
       height="3503"
       id="image10"
       x="0"
       y="0" />
  </g>
  <g
     inkscape:groupmode="layer"
     id="layer2"
     inkscape:label="speechbubbles">
    <path
       style="color:#000000;display:inline;overflow:visible;visibility:visible;fill:#ffffff;fill-opacity:1;fill-rule:nonzero;stroke:none;stroke-width:1px;marker:none;enable-background:accumulate"
       d="m 788.30399,1344.8521 c 26.24678,-47.6331 46.66094,-50.5494 61.24248,-54.4378 1.94421,4.8605 6.80472,12.6373 6.80472,12.6373 0,0 28.19098,-10.6931 39.85622,-10.6931 11.66523,0 11.66523,16.5258 11.66523,16.5258 0,0 -54.43776,22.3583 -65.13089,31.1072 -4.86051,-13.6094 -8.74892,-19.442 -8.74892,-25.2746 -8.74893,-0.9721 -35.96781,13.6094 -45.68884,30.1352 z"
       id="path4456"
       inkscape:connector-curvature="0" />
    <path
       style="color:#000000;display:inline;overflow:visible;visibility:visible;fill:#ffffff;fill-opacity:1;fill-rule:nonzero;stroke:none;stroke-width:1px;marker:none;enable-background:accumulate"
       d="m 859.20233,1165.5084 c -23.53103,18.6533 -28.38498,41.4079 -25.64484,51.8404 2.74018,10.4324 37.10948,58.8151 39.9566,71.8637 2.84711,13.0487 -29.44956,71.9628 -21.7282,91.0511 7.72137,19.0884 30.88543,76.3536 122.43714,80.3073 91.55167,3.9538 115.36787,-7.723 144.27227,-8.1276 28.9045,-0.4046 137.1061,14.6594 153.1854,11.8167 16.0797,-2.8428 23.9946,-7.3164 35.485,-9.2223 11.4903,-1.9061 98.3105,-0.5037 126.6241,-43.656 28.3137,-43.152 30.02,-58.0096 13.7777,-87.4495 -16.2424,-29.4397 -7.1202,-60.9798 4.1359,-96.9127 11.2563,-35.9328 -18.605,-73.116 -37.9295,-78.8726 -50.357,-15.0013 -499.98675,-34.0115 -554.57157,17.3615 z"
       id="path4464"
       inkscape:connector-curvature="0"
       sodipodi:nodetypes="csssssssssssc" />
    <path
       style="color:#000000;display:inline;overflow:visible;visibility:visible;fill:#ffffff;fill-opacity:1;fill-rule:nonzero;stroke:none;stroke-width:1px;marker:none;enable-background:accumulate"
       d="m 918.57699,1746.6769 c 3.09915,-51.6023 35.64016,-74.0957 46.48717,-79.3882 10.847,-5.2926 21.69405,-50.2794 198.34514,-59.5413 106.9205,-5.2926 156.5068,27.7859 167.3539,30.4322 10.847,2.6463 94.1149,70.2561 74.7954,127.3441 -13.9461,41.2099 -30.4208,56.2255 -58.9218,63.8982 -32.7929,8.8284 -234.3633,11.198 -279.3009,0.6129 -44.9377,-10.5851 -130.16404,5.2925 -148.75891,-83.3579 z"
       id="path4472"
       inkscape:connector-curvature="0"
       sodipodi:nodetypes="cscssssc" />
    <path
       style="color:#000000;display:inline;overflow:visible;visibility:visible;fill:#ffffff;fill-opacity:1;fill-rule:nonzero;stroke:none;stroke-width:1px;marker:none;enable-background:accumulate"
       d="m 1401.117,1731.9816 c 49.7882,35.7734 123.3881,38.0092 147.1998,35.7734 -62.7763,19.0046 -125.5527,21.2404 -158.0232,-4.4717 -32.4706,-25.7121 10.8234,-31.3017 10.8234,-31.3017 z"
       id="path4480"
       inkscape:connector-curvature="0" />
    <path
       style="color:#000000;display:inline;overflow:visible;visibility:visible;fill:#ffffff;fill-opacity:1;fill-rule:nonzero;stroke:none;stroke-width:1px;marker:none;enable-background:accumulate"
       d="m 1135.1368,2042.5408 c -0.4226,-23.024 7.1915,-34.536 12.7043,-38.7222 5.5128,-4.1862 -0.4417,-24.0706 33.9833,-36.6292 34.425,-12.5587 104.9114,-9.4189 114.9919,-8.3724 11.0832,-5.2328 114.992,-8.3723 161.5372,30.3499 46.5453,38.7223 71.1931,102.5617 -16.5846,131.8651 65.2234,20.931 153.7078,91.0498 149.3666,159.0754 -4.3412,68.0258 -138.0728,151.7497 -240.6909,164.3082 -102.618,12.5587 -261.5889,-60.6998 -281.7459,-123.4928 -20.1569,-62.7929 31.6786,-162.215 57.141,-175.8201 25.4624,-13.6052 56.649,-19.8845 77.7934,-25.1172 -52.8111,-14.6516 -68.2083,-61.7465 -68.4963,-77.4447 z"
       id="path4488"
       inkscape:connector-curvature="0"
       sodipodi:nodetypes="csscscsssscc" />
    <path
       style="color:#000000;display:inline;overflow:visible;visibility:visible;fill:#ffffff;fill-opacity:1;fill-rule:nonzero;stroke:none;stroke-width:1px;marker:none;enable-background:accumulate"
       d="m 946.61581,2338.5085 c 5.57335,17.1181 11.16282,35.0294 23.39088,48.7241 3.55856,3.8199 7.50649,7.5251 12.13185,9.9498 5.37245,1.4498 10.84942,-1.4122 14.12754,-5.6132 5.15892,-5.7353 8.19632,-13.9047 15.56852,-17.285 5.4261,-2.3306 10.8729,0.8814 15.6761,3.1704 12.1284,6.0748 23.505,13.8279 36.5404,17.9363 14.3756,5.5799 29.9067,10.4081 45.4842,8.0016 6.1477,-1.0555 12.4312,-3.0194 17.0066,-7.4624 12.2544,-10.8656 18.4537,-28.9219 13.6291,-44.8231 -4.0403,-9.8511 -16.6784,-15.851 -26.5414,-11.0096 -5.2446,2.4777 -7.97,8.0957 -8.8455,13.5685 -3.4893,9.7595 -12.4516,16.8979 -22.4619,19.0846 -8.2318,1.9398 -16.9874,1.2749 -24.9579,-1.4727 -11.8256,-0.8743 -20.7496,-9.4594 -30.3291,-15.4411 -4.4172,-2.6676 -9.2966,-5.2059 -14.5159,-5.4716 -7.5326,1.3916 -11.8483,8.4752 -14.80768,14.8891 -3.22265,6.5363 -6.22228,14.4823 -13.58052,17.3225 -4.84088,2.6585 -8.79493,-2.5041 -12.54101,-4.8769 -11.06465,-9.2145 -19.10985,-21.7672 -24.06428,-35.1993 -0.37642,-1.3148 -0.64489,-2.6514 -0.91,-3.992 z"
       id="path4496"
       inkscape:connector-curvature="0" />
    <path
       style="color:#000000;display:inline;overflow:visible;visibility:visible;fill:#ffffff;fill-opacity:1;fill-rule:nonzero;stroke:none;stroke-width:1px;marker:none;enable-background:accumulate"
       d="m 1558.3048,2587.7862 c 4.4742,-26.8453 35.7937,-46.0205 73.5049,-45.3813 37.7112,0.6391 65.1957,33.8761 58.1648,58.8039 -7.0309,24.9278 -33.237,39.6288 -70.3091,35.1545 -37.0721,-4.4742 -65.8349,-30.0411 -61.3606,-48.5771 z"
       id="path4514"
       inkscape:connector-curvature="0" />
    <path
       style="color:#000000;display:inline;overflow:visible;visibility:visible;fill:#ffffff;fill-opacity:1;fill-rule:nonzero;stroke:none;stroke-width:1px;marker:none;enable-background:accumulate"
       d="m 1684.2219,2595.4562 c 17.8969,-1.2783 37.0721,-7.0309 39.6288,-17.8968 1.9175,14.701 -14.701,36.4329 -41.5463,35.1545 -26.8453,-1.2783 -19.8144,-14.701 -19.8144,-14.701 z"
       id="path4522"
       inkscape:connector-curvature="0" />
    <path
       style="color:#000000;display:inline;overflow:visible;visibility:visible;fill:#ffffff;fill-opacity:1;fill-rule:nonzero;stroke:none;stroke-width:1px;marker:none;enable-background:accumulate"
       d="m 737.60499,2944.4786 c 27.84159,-62.7088 91.50166,-103.1763 250.1045,-99.6489 158.60281,3.5274 188.08661,14.9914 209.43701,31.7465 21.3504,16.7552 52.8677,112.8768 36.6008,179.0155 -16.2671,66.1387 -81.3349,135.8049 -236.88764,130.5137 -155.5528,-5.2911 -155.87247,-7.7037 -179.95324,-21.1643 -45.75083,-25.5737 -107.14304,-157.7537 -79.30143,-220.4625 z"
       id="path4530"
       inkscape:connector-curvature="0"
       sodipodi:nodetypes="zsssssz" />
    <path
       style="color:#000000;display:inline;overflow:visible;visibility:visible;fill:#ffffff;fill-opacity:1;fill-rule:nonzero;stroke:none;stroke-width:1px;marker:none;enable-background:accumulate"
       d="m 734.90975,3253.4067 c 27.21888,10.6931 31.10729,9.721 39.85622,-1.9442 8.74893,-11.6652 17.49785,-31.1073 43.74463,-34.9957 26.24678,-3.8884 38.88411,5.8326 47.63304,11.6652 1.9442,-18.4699 -7.77682,-45.6888 -16.52575,-56.3819 -8.74893,-10.6932 53.46566,7.7768 53.46566,7.7768 0,0 8.74892,47.633 -7.77683,65.1309 -16.52574,17.4978 -53.46565,-4.8605 -71.93561,-4.8605 -18.46995,0 -32.07939,26.2467 -46.66093,29.163 -14.58155,2.9163 -30.13519,-7.7768 -41.80043,-15.5536 z"
       id="path4538"
       inkscape:connector-curvature="0" />
    <path
       style="color:#000000;display:inline;overflow:visible;visibility:visible;fill:#ffffff;fill-opacity:1;fill-rule:nonzero;stroke:none;stroke-width:1px;marker:none;enable-background:accumulate"
       d="m 1271.4882,3031.0308 c 6.6444,-55.9672 62.3744,-94.995 202.6545,-79.126 75.1415,8.5002 160.5732,15.4392 151.714,97.46 -8.8592,82.021 -131.7808,75.2664 -157.251,76.2312 -25.4703,0.965 -157.3844,-12.6481 -179.3991,-41.4929 -13.7806,-18.0562 -18.8258,-35.7031 -17.7184,-53.0723 z"
       id="path4546"
       inkscape:connector-curvature="0"
       sodipodi:nodetypes="cssssc" />
    <path
       style="color:#000000;display:inline;overflow:visible;visibility:visible;fill:#ffffff;fill-opacity:1;fill-rule:nonzero;stroke:none;stroke-width:1px;marker:none;enable-background:accumulate"
       d="m 1361.2886,3213.7375 c 5.1094,-34.7421 65.7361,-53.0197 86.0831,-51.2225 20.3469,1.7973 72.7794,10.7836 85.3006,10.7836 12.5211,0 57.9104,-6.2904 74.3445,-8.0876 16.434,-1.7974 36.7809,30.5537 35.2158,44.0333 -1.5652,13.4796 -14.0863,51.2224 -57.1279,55.7157 -43.0416,4.4933 -100.952,-0.8986 -112.6907,3.5946 -11.7386,4.4932 -62.6059,8.9863 -81.3876,-3.5946 -18.7818,-12.581 -34.8472,-16.4805 -29.7378,-51.2225 z"
       id="path4554"
       inkscape:connector-curvature="0"
       sodipodi:nodetypes="zsssssssz" />
    <path
       style="color:#000000;display:inline;overflow:visible;visibility:visible;fill:#ffffff;fill-opacity:1;fill-rule:nonzero;stroke:none;stroke-width:1px;marker:none;enable-background:accumulate"
       d="m 1431.539,3117.3161 c 15.6509,39.1272 126.3248,118.4994 138.6219,131.9144 12.2971,13.415 38.0092,32.4196 58.1317,35.7734 20.1226,3.3537 29.8656,-15.8488 47.3048,-18.9433 14.983,-2.6587 26.4778,2.1745 35.4212,12.2357 -14.533,-25.7121 -39.1272,-25.7121 -49.1884,-21.2404 -10.0613,4.4717 -27.948,17.8867 -44.7168,5.5896 -16.7687,-12.2971 -86.0797,-88.3156 -103.9664,-91.6693 -17.8867,-3.3538 -40.245,-29.0659 -40.245,-43.5988 0,-14.533 -41.363,-10.0613 -41.363,-10.0613 z"
       id="path4562"
       inkscape:connector-curvature="0"
       sodipodi:nodetypes="cssscssssc" />
    <path
       style="fill:#ffffff;fill-opacity:1;stroke:none"
       d="m 321.59441,255.85773 c -5.3873,-67.51221 30.3459,-101.09651 62.8812,-117.00561 41.2339,-20.1625 338.6898,-42.634202 374.5844,13.878 33.0578,52.0459 56.5446,147.73251 -42.1656,194.99931 -98.7101,47.26681 -263.4508,21.37671 -291.4935,12.7827 -28.0426,-8.594 -98.198,-31.6058 -103.8065,-104.6544 z"
       id="path3659-8"
       inkscape:connector-curvature="0"
       sodipodi:nodetypes="cssssc" />
    <path
       style="color:#000000;display:inline;overflow:visible;visibility:visible;fill:#ffffff;fill-opacity:1;fill-rule:nonzero;stroke:none;stroke-width:1px;marker:none;enable-background:accumulate"
       d="m 741.38881,245.94903 c 51.7523,-9.5221 144.349,25.7804 152.6806,130.37991 -39.6949,-95.77711 -111.5887,-108.52201 -153.522,-93.29341 -39.7368,14.4308 -28.4367,-12.3696 -28.4367,-12.3696 z"
       id="path4440-1"
       inkscape:connector-curvature="0"
       sodipodi:nodetypes="ccscc" />
    <path
       style="color:#000000;display:inline;overflow:visible;visibility:visible;fill:#ffffff;fill-opacity:1;fill-rule:nonzero;stroke:none;stroke-width:1px;marker:none;enable-background:accumulate"
       d="m 1951.6128,290.45083 c -2.8517,-0.3412 -11.1967,37.1896 -11.1967,37.1896 0,0 -9.6125,7.4962 -11.4453,9.4383 -0.7114,7.4801 0.7366,17.3799 0.7366,17.3799 l -29.369,11.61741 16.5975,-14.22571 -7.4782,-14.9439 14.6623,-15.5381 7.5275,-27.7153 z"
       id="path4448-7"
       inkscape:connector-curvature="0"
       sodipodi:nodetypes="cccccccccc" />
    <path
       style="color:#000000;display:inline;overflow:visible;visibility:visible;fill:#ffffff;fill-opacity:1;fill-rule:nonzero;stroke:none;stroke-width:1px;marker:none;enable-background:accumulate"
       d="m 1828.2041,235.36183 10.5029,19.7578 -14.8609,3.9041 7.1217,7.6936 7.162,5.5676 9.4016,3.1225 -9.0108,12.7594 12.7899,1.3014 1.3462,10.4107 11.4435,8.4588 9.424,-5.8561 4.7345,11.587 19.4987,-7.0323 4.0389,7.8081 10.7703,-5.856 25.5794,10.4107 1.3463,-8.4587 8.0778,9.1094 2.0195,-11.0614 12.1166,9.76 18.8479,-11.7121 16.1555,-1.3013 2.0195,-9.1094 12.7897,6.5067 -4.712,-17.5682 22.2138,-11.7121 2.6926,-13.0135 -4.0389,-4.5547 -2.6926,-7.1574 12.1166,-8.4587 -18.1749,1.952 16.1554,-9.7601 -13.738,-5.7588 -9.6389,0.3131 -4.0047,-3.2713 -5.8863,-11.91951 -15.2768,8.34081 -8.3359,-16.98461 -17.3182,14.18511 -6.2946,-9.97141 -9.6593,6.4302 -10.129,-3.8752 -12.8066,-13.9261 -8.4794,13.8374 -14.6035,-6.4229 -10.1125,11.1101 -17.5024,-8.6047 -2.5045,7.9122 -13.3513,5.74031 -13.7188,-4.63721 2.7227,17.45971 z"
       id="path4448-1-6"
       inkscape:connector-curvature="0"
       sodipodi:nodetypes="cccccccccccccccccccccccccccccccccccccccccccccccccccc" />
  </g>
  <g
     inkscape:groupmode="layer"
     id="layer1"
     inkscape:label="txt">
    <flowRoot
       xml:space="preserve"
       id="flowRoot2987"
       style="font-style:normal;font-variant:normal;font-weight:normal;font-stretch:normal;line-height:0.01%;font-family:Arial;-inkscape-font-specification:Arial;letter-spacing:0px;word-spacing:0px;fill:#000000;fill-opacity:1;stroke:none"
       transform="translate(-197.47892,-472.94301)"><flowRegion
         id="flowRegion2989"><rect
           id="rect2991"
           width="546.86108"
           height="218.99605"
           x="481.16055"
           y="638.16943" /></flowRegion><flowPara
         id="flowPara2993"
         style="font-style:normal;font-variant:normal;font-weight:bold;font-stretch:normal;font-size:56px;line-height:100%;font-family:Pecita;-inkscape-font-specification:'Pecita Bold';text-align:center;text-anchor:middle">Μμ.. συγνώμη,</flowPara><flowPara
         style="font-style:normal;font-variant:normal;font-weight:bold;font-stretch:normal;font-size:56px;line-height:100%;font-family:Pecita;-inkscape-font-specification:'Pecita Bold';text-align:center;text-anchor:middle"
         id="flowPara2997">τελικά θα πάρω</flowPara><flowPara
         style="font-style:normal;font-variant:normal;font-weight:bold;font-stretch:normal;font-size:56px;line-height:100%;font-family:Pecita;-inkscape-font-specification:'Pecita Bold';text-align:center;text-anchor:middle"
         id="flowPara3064">μόνο τέσσερα</flowPara></flowRoot>    <flowRoot
       xml:space="preserve"
       id="flowRoot2987-4"
       style="font-style:normal;font-variant:normal;font-weight:normal;font-stretch:normal;line-height:0.01%;font-family:Arial;-inkscape-font-specification:Arial;letter-spacing:0px;word-spacing:0px;fill:#000000;fill-opacity:1;stroke:none"
       transform="translate(1211.8478,-403.19693)"><flowRegion
         id="flowRegion2989-7"><rect
           id="rect2991-1"
           width="472.65948"
           height="178.52246"
           x="481.16055"
           y="638.16943" /></flowRegion><flowPara
         style="font-style:normal;font-variant:normal;font-weight:bold;font-stretch:normal;font-size:56px;line-height:100%;font-family:Pecita;-inkscape-font-specification:'Pecita Bold';text-align:center;text-anchor:middle"
         id="flowPara2997-1">Γρρ...</flowPara></flowRoot>    <flowRoot
       xml:space="preserve"
       id="flowRoot2987-5"
       style="font-style:normal;font-variant:normal;font-weight:normal;font-stretch:normal;line-height:0.01%;font-family:Arial;-inkscape-font-specification:Arial;letter-spacing:0px;word-spacing:0px;fill:#000000;fill-opacity:1;stroke:none"
       transform="matrix(0.98088579,0,0,0.9742613,374.50397,555.72031)"><flowRegion
         id="flowRegion2989-6"><rect
           id="rect2991-0"
           width="627.87982"
           height="345.00586"
           x="481.16055"
           y="638.16943" /></flowRegion><flowPara
         style="font-style:normal;font-variant:normal;font-weight:bold;font-stretch:normal;font-size:56px;line-height:100%;font-family:Pecita;-inkscape-font-specification:'Pecita Bold';text-align:center;text-anchor:middle"
         id="flowPara2997-6">Γειά σας, καλέ μου κύριε.</flowPara><flowPara
         style="font-style:normal;font-variant:normal;font-weight:bold;font-stretch:normal;font-size:56px;line-height:100%;font-family:Pecita;-inkscape-font-specification:'Pecita Bold';text-align:center;text-anchor:middle"
         id="flowPara3075">Παρακαλώ ετοιμάστε μου</flowPara><flowPara
         style="font-style:normal;font-variant:normal;font-weight:bold;font-stretch:normal;font-size:56px;line-height:100%;font-family:Pecita;-inkscape-font-specification:'Pecita Bold';text-align:center;text-anchor:middle"
         id="flowPara3081">δύο ντουζίνες απ' όλα. Πρώτης ποιότητας, </flowPara><flowPara
         style="font-style:normal;font-variant:normal;font-weight:bold;font-stretch:normal;font-size:56px;line-height:100%;font-family:Pecita;-inkscape-font-specification:'Pecita Bold';text-align:center;text-anchor:middle"
         id="flowPara3076">όπως πάντα.  </flowPara></flowRoot>    <flowRoot
       xml:space="preserve"
       id="flowRoot2987-5-4"
       style="font-style:normal;font-variant:normal;font-weight:normal;font-stretch:normal;line-height:0.01%;font-family:Arial;-inkscape-font-specification:Arial;letter-spacing:0px;word-spacing:0px;fill:#000000;fill-opacity:1;stroke:none"
       transform="translate(441.57684,1018.2359)"><flowRegion
         id="flowRegion2989-6-3"><rect
           id="rect2991-0-3"
           width="495.15762"
           height="238.49596"
           x="481.16055"
           y="638.16943" /></flowRegion><flowPara
         style="font-style:normal;font-variant:normal;font-weight:normal;font-stretch:normal;font-size:56px;line-height:100%;font-family:Pecita;-inkscape-font-specification:Pecita;text-align:center;text-anchor:middle"
         id="flowPara3081-0">Ευχαρίστηση μου</flowPara><flowPara
         style="font-style:normal;font-variant:normal;font-weight:normal;font-stretch:normal;font-size:56px;line-height:100%;font-family:Pecita;-inkscape-font-specification:Pecita;text-align:center;text-anchor:middle"
         id="flowPara3136">να σας εξυπηρετώ,</flowPara><flowPara
         style="font-style:normal;font-variant:normal;font-weight:normal;font-stretch:normal;font-size:56px;line-height:100%;font-family:Pecita;-inkscape-font-specification:Pecita;text-align:center;text-anchor:middle"
         id="flowPara3138">κυρία Σάφρον</flowPara></flowRoot>    <flowRoot
       xml:space="preserve"
       id="flowRoot2987-5-4-3"
       style="font-style:normal;font-variant:normal;font-weight:normal;font-stretch:normal;line-height:0.01%;font-family:Arial;-inkscape-font-specification:Arial;letter-spacing:0px;word-spacing:0px;fill:#000000;fill-opacity:1;stroke:none"
       transform="translate(681.52507,1352.3066)"><flowRegion
         id="flowRegion2989-6-3-5"><rect
           id="rect2991-0-3-3"
           width="316.26553"
           height="145.35382"
           x="481.16055"
           y="638.16943" /></flowRegion><flowPara
         style="font-style:normal;font-variant:normal;font-weight:bold;font-stretch:normal;font-size:56px;line-height:100%;font-family:Pecita;-inkscape-font-specification:'Pecita Bold';text-align:center;text-anchor:middle"
         id="flowPara3138-6">Ω.. για δές.</flowPara><flowPara
         style="font-style:normal;font-variant:normal;font-weight:bold;font-stretch:normal;font-size:56px;line-height:100%;font-family:Pecita;-inkscape-font-specification:'Pecita Bold';text-align:center;text-anchor:middle"
         id="flowPara3178">Η Πιπεριά</flowPara></flowRoot>    <flowRoot
       xml:space="preserve"
       id="flowRoot2987-5-4-3-8"
       style="font-style:normal;font-variant:normal;font-weight:normal;font-stretch:normal;line-height:0.01%;font-family:Arial;-inkscape-font-specification:Arial;letter-spacing:0px;word-spacing:0px;fill:#000000;fill-opacity:1;stroke:none"
       transform="translate(581.00094,1557.7926)"><flowRegion
         id="flowRegion2989-6-3-5-1"><rect
           id="rect2991-0-3-3-7"
           width="515.51788"
           height="318.33508"
           x="481.16055"
           y="638.16943" /></flowRegion><flowPara
         style="font-style:normal;font-variant:normal;font-weight:bold;font-stretch:normal;font-size:56px;line-height:100%;font-family:Pecita;-inkscape-font-specification:'Pecita Bold';text-align:center;text-anchor:middle"
         id="flowPara3178-8">Μμ.. να μαντέψω,</flowPara><flowPara
         style="font-style:normal;font-variant:normal;font-weight:bold;font-stretch:normal;font-size:56px;line-height:100%;font-family:Pecita;-inkscape-font-specification:'Pecita Bold';text-align:center;text-anchor:middle"
         id="flowPara3212">ανθίζουν οι δουλειές </flowPara><flowPara
         style="font-style:normal;font-variant:normal;font-weight:bold;font-stretch:normal;font-size:56px;line-height:100%;font-family:Pecita;-inkscape-font-specification:'Pecita Bold';text-align:center;text-anchor:middle"
         id="flowPara3214">στην εξοχή;</flowPara></flowRoot>    <flowRoot
       xml:space="preserve"
       id="flowRoot2987-5-4-3-3"
       style="font-style:normal;font-variant:normal;font-weight:normal;font-stretch:normal;line-height:0.01%;font-family:Arial;-inkscape-font-specification:Arial;letter-spacing:0px;word-spacing:0px;fill:#000000;fill-opacity:1;stroke:none"
       transform="matrix(1.3826882,0,0,2.2980085,739.6002,1062.0945)"><flowRegion
         id="flowRegion2989-6-3-5-2"><rect
           id="rect2991-0-3-3-1"
           width="316.26553"
           height="145.35382"
           x="481.16055"
           y="638.16943" /></flowRegion><flowPara
         style="font-style:normal;font-variant:normal;font-weight:bold;font-stretch:normal;font-size:48.34221649px;line-height:100%;font-family:Pecita;-inkscape-font-specification:'Pecita Bold';text-align:center;text-anchor:middle"
         id="flowPara3178-4">...</flowPara></flowRoot>    <flowRoot
       xml:space="preserve"
       id="flowRoot2987-5-4-3-8-4"
       style="font-style:normal;font-variant:normal;font-weight:normal;font-stretch:normal;line-height:0.01%;font-family:Arial;-inkscape-font-specification:Arial;letter-spacing:0px;word-spacing:0px;fill:#000000;fill-opacity:1;stroke:none"
       transform="translate(255.35057,2235.8903)"><flowRegion
         id="flowRegion2989-6-3-5-1-2"><rect
           id="rect2991-0-3-3-7-1"
           width="504.02832"
           height="347.90109"
           x="481.16055"
           y="638.16943" /></flowRegion><flowPara
         style="font-style:normal;font-variant:normal;font-weight:bold;font-stretch:normal;font-size:56px;line-height:100%;font-family:Pecita;-inkscape-font-specification:'Pecita Bold';text-align:center;text-anchor:middle"
         id="flowPara3214-7">Φαντάζομαι </flowPara><flowPara
         style="font-style:normal;font-variant:normal;font-weight:bold;font-stretch:normal;font-size:56px;line-height:100%;font-family:Pecita;-inkscape-font-specification:'Pecita Bold';text-align:center;text-anchor:middle"
         id="flowPara3286">θα ετοιμάζεις τα</flowPara><flowPara
         style="font-style:normal;font-variant:normal;font-weight:bold;font-stretch:normal;font-size:56px;line-height:100%;font-family:Pecita;-inkscape-font-specification:'Pecita Bold';text-align:center;text-anchor:middle"
         id="flowPara3288">συστατικά για τον</flowPara><flowPara
         style="font-style:normal;font-variant:normal;font-weight:bold;font-stretch:normal;font-size:56px;line-height:100%;font-family:Pecita;-inkscape-font-specification:'Pecita Bold';text-align:center;text-anchor:middle"
         id="flowPara3290">αυριανό διαγωνισμό</flowPara><flowPara
         style="font-style:normal;font-variant:normal;font-weight:bold;font-stretch:normal;font-size:56px;line-height:100%;font-family:Pecita;-inkscape-font-specification:'Pecita Bold';text-align:center;text-anchor:middle"
         id="flowPara3292">φίλτρου</flowPara></flowRoot>    <flowRoot
       xml:space="preserve"
       id="flowRoot2987-5-4-3-8-4-1"
       style="font-style:normal;font-variant:normal;font-weight:normal;font-stretch:normal;line-height:0.01%;font-family:Arial;-inkscape-font-specification:Arial;letter-spacing:0px;word-spacing:0px;fill:#000000;fill-opacity:1;stroke:none"
       transform="translate(795.74087,2356.011)"><flowRegion
         id="flowRegion2989-6-3-5-1-2-0"><rect
           id="rect2991-0-3-3-7-1-3"
           width="328.09311"
           height="154.22458"
           x="481.16055"
           y="638.16943" /></flowRegion><flowPara
         style="font-style:normal;font-variant:normal;font-weight:bold;font-stretch:normal;font-size:56px;line-height:100%;font-family:Pecita;-inkscape-font-specification:'Pecita Bold';text-align:center;text-anchor:middle"
         id="flowPara3292-0">... διαγωνισμό</flowPara><flowPara
         style="font-style:normal;font-variant:normal;font-weight:bold;font-stretch:normal;font-size:56px;line-height:100%;font-family:Pecita;-inkscape-font-specification:'Pecita Bold';text-align:center;text-anchor:middle"
         id="flowPara3347"> φίλτρου ;</flowPara></flowRoot>    <flowRoot
       xml:space="preserve"
       id="flowRoot2987-5-4-3-8-4-1-1"
       style="font-style:normal;font-variant:normal;font-weight:normal;font-stretch:normal;line-height:0.01%;font-family:Arial;-inkscape-font-specification:Arial;letter-spacing:0px;word-spacing:0px;fill:#000000;fill-opacity:1;stroke:none"
       transform="translate(851.34286,2555.7993)"><flowRegion
         id="flowRegion2989-6-3-5-1-2-0-9"><rect
           id="rect2991-0-3-3-7-1-3-7"
           width="328.09311"
           height="154.22458"
           x="481.16055"
           y="638.16943"
           style="line-height:100%" /></flowRegion><flowPara
         style="font-style:normal;font-variant:normal;font-weight:bold;font-stretch:normal;font-size:56px;line-height:100%;font-family:Pecita;-inkscape-font-specification:'Pecita Bold';text-align:center;text-anchor:middle"
         id="flowPara3347-5">... αύριο ;</flowPara></flowRoot>  </g>
</svg>
