<?xml version="1.0" encoding="UTF-8" standalone="no"?>
<!-- Created with Inkscape (http://www.inkscape.org/) -->

<svg
   xmlns:dc="http://purl.org/dc/elements/1.1/"
   xmlns:cc="http://creativecommons.org/ns#"
   xmlns:rdf="http://www.w3.org/1999/02/22-rdf-syntax-ns#"
   xmlns:svg="http://www.w3.org/2000/svg"
   xmlns="http://www.w3.org/2000/svg"
   xmlns:xlink="http://www.w3.org/1999/xlink"
   xmlns:sodipodi="http://sodipodi.sourceforge.net/DTD/sodipodi-0.dtd"
   xmlns:inkscape="http://www.inkscape.org/namespaces/inkscape"
   id="svg2"
   version="1.1"
   inkscape:version="0.48.4 r9939"
   width="1100"
   height="765"
   sodipodi:docname="Pepper-and-Carrot_by-David-Revoy_E03.svg">
  <metadata
     id="metadata8">
    <rdf:RDF>
      <cc:Work
         rdf:about="">
        <dc:format>image/svg+xml</dc:format>
        <dc:type
           rdf:resource="http://purl.org/dc/dcmitype/StillImage" />
        <dc:title />
      </cc:Work>
    </rdf:RDF>
  </metadata>
  <defs
     id="defs6">
    <filter
       id="filter3797"
       style="color-interpolation-filters:sRGB;"
       inkscape:label="Drop Shadow">
      <feFlood
         id="feFlood3799"
         flood-opacity="0.8"
         flood-color="rgb(0,0,0)"
         result="flood" />
      <feComposite
         id="feComposite3801"
         in2="SourceGraphic"
         in="flood"
         operator="in"
         result="composite1" />
      <feGaussianBlur
         id="feGaussianBlur3803"
         in="composite"
         stdDeviation="10"
         result="blur" />
      <feOffset
         id="feOffset3805"
         dx="8"
         dy="10"
         result="offset" />
      <feComposite
         id="feComposite3807"
         in2="offset"
         in="SourceGraphic"
         operator="over"
         result="composite2" />
    </filter>
    <filter
       id="filter3836"
       style="color-interpolation-filters:sRGB;"
       inkscape:label="Drop Shadow">
      <feFlood
         id="feFlood3838"
         flood-opacity="0.8"
         flood-color="rgb(0,0,0)"
         result="flood" />
      <feComposite
         id="feComposite3840"
         in2="SourceGraphic"
         in="flood"
         operator="in"
         result="composite1" />
      <feGaussianBlur
         id="feGaussianBlur3842"
         in="composite"
         stdDeviation="5"
         result="blur" />
      <feOffset
         id="feOffset3844"
         dx="8"
         dy="10"
         result="offset" />
      <feComposite
         id="feComposite3846"
         in2="offset"
         in="SourceGraphic"
         operator="over"
         result="composite2" />
    </filter>
    <filter
       color-interpolation-filters="sRGB"
       inkscape:collect="always"
       id="filter3876">
      <feGaussianBlur
         inkscape:collect="always"
         stdDeviation="4.0826887"
         id="feGaussianBlur3878" />
    </filter>
    <filter
       inkscape:collect="always"
       id="filter3837"
       x="-0.010297416"
       width="1.0205948"
       y="-0.15255702"
       height="1.305114">
      <feGaussianBlur
         inkscape:collect="always"
         stdDeviation="6.9921969"
         id="feGaussianBlur3839" />
    </filter>
  </defs>
  <sodipodi:namedview
     pagecolor="#ffffff"
     bordercolor="#666666"
     borderopacity="1"
     objecttolerance="10"
     gridtolerance="10"
     guidetolerance="10"
     inkscape:pageopacity="0"
     inkscape:pageshadow="2"
     inkscape:window-width="1610"
     inkscape:window-height="1028"
     id="namedview4"
     showgrid="false"
     inkscape:zoom="0.90380221"
     inkscape:cx="447.8143"
     inkscape:cy="364.64949"
     inkscape:window-x="0"
     inkscape:window-y="24"
     inkscape:window-maximized="0"
     inkscape:current-layer="svg2" />
  <g
     inkscape:groupmode="layer"
     id="layer1"
     inkscape:label="artwork"
     sodipodi:insensitive="true" />
  <image
     sodipodi:absref="/home/dimitrisax/Επιφάνεια εργασίας/pepper&amp;carrot/peppercarrot_ep03_translation-master/en/../gfx_Pepper-and-Carrot_by-David-Revoy_E03.png"
     xlink:href="../gfx_Pepper-and-Carrot_by-David-Revoy_E03.png"
     y="0"
     x="0"
     id="image10"
     height="765"
     width="1100" />
  <flowRoot
     xml:space="preserve"
     id="flowRoot3063-2"
     style="font-size:90px;font-style:normal;font-variant:normal;font-weight:normal;font-stretch:normal;text-align:center;line-height:125%;letter-spacing:0px;word-spacing:0px;writing-mode:lr-tb;text-anchor:middle;opacity:0.98000004;fill:#000000;fill-opacity:1;stroke:none;display:inline;filter:url(#filter3837);font-family:Purisa;-inkscape-font-specification:Purisa"
     transform="matrix(0.43534167,0,0,0.43534167,-79.146563,533.40396)"><flowRegion
       id="flowRegion3065-8"><rect
         id="rect3067-6"
         width="2718.8806"
         height="147.16573"
         x="90.567055"
         y="400.24826"
         style="font-size:90px;font-style:normal;font-variant:normal;font-weight:normal;font-stretch:normal;text-align:center;line-height:125%;writing-mode:lr-tb;text-anchor:middle;fill:#000000;fill-opacity:1;font-family:Purisa;-inkscape-font-specification:Purisa" /></flowRegion><flowPara
       id="flowPara3069-2"
       style="font-size:110px;font-style:normal;font-variant:normal;font-weight:normal;font-stretch:expanded;text-align:center;line-height:125%;writing-mode:lr-tb;text-anchor:middle;fill:#000000;fill-opacity:1;font-family:Pecita;-inkscape-font-specification:Pecita Expanded">Επεισόδιο 3 : Τα μυστικά συστατικά</flowPara></flowRoot>  <flowRoot
     xml:space="preserve"
     id="flowRoot3063"
     style="font-size:90px;font-style:normal;font-variant:normal;font-weight:normal;font-stretch:normal;text-align:center;line-height:125%;letter-spacing:0px;word-spacing:0px;writing-mode:lr-tb;text-anchor:middle;opacity:0.98000004;fill:#cbba74;fill-opacity:1;stroke:none;display:inline;font-family:Purisa;-inkscape-font-specification:Purisa"
     transform="matrix(0.43534167,0,0,0.43534167,-81.258516,530.53033)"><flowRegion
       id="flowRegion3065"><rect
         id="rect3067"
         width="2718.8806"
         height="147.16573"
         x="90.567055"
         y="400.24826"
         style="font-size:90px;font-style:normal;font-variant:normal;font-weight:normal;font-stretch:normal;text-align:center;line-height:125%;writing-mode:lr-tb;text-anchor:middle;fill:#cbba74;fill-opacity:1;font-family:Purisa;-inkscape-font-specification:Purisa" /></flowRegion><flowPara
       id="flowPara3069"
       style="font-size:110px;font-style:normal;font-variant:normal;font-weight:normal;font-stretch:expanded;text-align:center;line-height:125%;writing-mode:lr-tb;text-anchor:middle;fill:#ffffff;fill-opacity:1;font-family:Pecita;-inkscape-font-specification:Pecita Expanded">Επεισόδιο 3 : Τα μυστικά συστατικά</flowPara></flowRoot>  <g
     inkscape:groupmode="layer"
     id="layer2"
     inkscape:label="txt" />
  <path
     style="opacity:0.98000004;fill:#000000;fill-opacity:1;stroke:none;display:inline;filter:url(#filter3876)"
     d="m 297.54407,713.20372 c -0.96836,-2.52351 -0.70258,-30.77586 0.42774,-45.46832 1.92001,-24.95729 5.4527,-40.94988 9.04564,-40.94988 2.11413,0 2.36119,-0.75355 0.96874,-2.95477 -1.27643,-2.01782 1.58706,-6.67926 5.93302,-9.65831 2.42069,-1.65932 4.87455,-2.38692 8.05,-2.38692 5.31027,0 6.96787,1.26617 6.96787,5.32244 0,2.57175 0.19299,2.76228 1.60821,1.58775 1.36727,-1.13473 1.8198,-1.04534 3.02046,0.59666 3.73458,5.10735 4.86588,21.16782 2.06234,29.27819 -1.94238,5.6191 -5.58174,10.84413 -8.46974,12.16 -6.37782,2.90592 -14.58568,-0.0586 -18.49175,-6.6789 l -2.19233,-3.71571 -1.34718,6.97477 c -0.77291,4.0016 -1.27368,12.37627 -1.17475,19.64606 0.12592,9.25365 -0.27356,14.20543 -1.48113,18.35933 -1.27515,4.38636 -1.41105,6.38371 -0.59385,8.72794 0.58285,1.67195 1.05972,4.23276 1.05972,5.69068 0,4.32272 -4.06262,6.93594 -5.39301,3.46899 z m 28.8331,-62.352 c 2.26022,-2.49751 4.46012,-8.70012 4.51602,-12.73287 0.0241,-1.74166 0.60639,-3.35653 1.29389,-3.58859 1.5902,-0.53676 -0.79911,-5.86701 -4.71711,-10.52328 -2.09119,-2.48524 -3.50115,-3.22146 -6.16953,-3.22146 -4.4048,0 -7.57996,3.29024 -10.36912,10.74493 -1.76926,4.72879 -1.89408,6.03135 -0.87535,9.13513 1.47488,4.49354 5.34355,10.74468 7.08037,11.44074 3.02041,1.21049 7.5688,0.59296 9.24083,-1.2546 z m 310.52694,62.39406 c -0.99631,-1.20048 -1.12727,-6.07107 -0.59437,-22.10537 1.49508,-44.98471 5.78664,-66.30152 15.18114,-75.40704 2.76449,-2.67945 4.36525,-3.35952 8.76679,-3.72453 l 5.38476,-0.44655 0.64287,3.21432 c 0.35357,1.76788 0.39331,3.6181 0.0883,4.11162 -0.305,0.49351 0.12464,0.89729 0.95477,0.89729 0.83013,0 1.98136,-0.7875 2.55828,-1.75 0.98442,-1.64233 1.144,-1.62695 2.59374,0.25 0.84962,1.1 2.25936,4.45702 3.13275,7.46004 2.93463,10.09032 -0.18752,29.03995 -4.78464,29.03995 -1.34365,0 -1.89142,0.71383 -1.89142,2.46482 0,2.97937 -2.56739,4.53518 -7.48392,4.53518 -4.70116,0 -8.62172,-2.09163 -12.31188,-6.56843 -1.63668,-1.98559 -3.22735,-3.20313 -3.53481,-2.70566 -0.30745,0.49748 -1.08961,7.84133 -1.73812,16.31967 -0.89493,11.69992 -1.5492,15.68578 -2.7147,16.53801 -1.37459,1.00513 -1.3616,1.37126 0.12392,3.49214 1.27315,1.81768 1.65951,4.66094 1.65951,12.21252 0,5.41378 -0.46583,10.71365 -1.03518,11.77749 -1.2468,2.32966 -3.25989,2.48858 -4.99779,0.39453 z m 28.60045,-62.1706 c 2.8973,-2.8973 4.55752,-8.24409 4.55752,-14.67764 0,-10.31161 -3.02567,-15.61202 -8.91191,-15.61202 -4.50098,0 -9.10693,4.71681 -11.29376,11.56559 -1.39107,4.35658 -1.41,5.46241 -0.15782,9.21893 1.99423,5.98269 7.14288,11.21547 11.03514,11.21547 1.68327,0 3.83015,-0.76965 4.77083,-1.71033 z m 273.20673,58.96033 c -3.0264,-6.80197 -3.3311,-17.09061 -1.1695,-39.48357 2.4627,-25.51078 2.5338,-41.63292 0.1902,-43.11858 -1.3456,-0.85304 -2.2308,-0.58696 -4.1991,1.26214 -1.5638,1.46912 -3.1205,2.10267 -4.1735,1.69857 -1.4102,-0.54112 -1.5842,-0.1679 -1.0851,2.32739 0.4026,2.01293 -0.173,4.68077 -1.7837,8.26796 -1.3079,2.91286 -3.8094,8.7836 -5.5591,13.04609 -2.3489,5.72255 -3.6644,7.75 -5.0287,7.75 -2.0976,0 -2.4318,-0.42265 -3.3398,-4.22336 -0.5019,-2.10084 -0.3281,-2.59957 0.7606,-2.18183 2.4953,0.95754 2.913,-1.6984 0.7313,-4.64938 -1.2681,-1.71516 -2.1248,-4.38527 -2.1352,-6.65493 -0.01,-2.08477 -0.6845,-6.94032 -1.5,-10.79012 -0.8154,-3.84979 -1.4826,-8.28978 -1.4826,-9.86663 0,-2.34673 -0.3526,-2.77479 -1.9432,-2.35885 -2.6925,0.70412 -5.2816,-2.44426 -4.8818,-5.93646 0.2296,-2.00484 0.9513,-2.92775 2.4575,-3.14259 4.522,-0.64496 11.4676,11.53994 12.9507,22.71965 0.3709,2.79648 0.954,5.07241 1.2956,5.05763 0.3417,-0.0148 1.931,-2.95856 3.5318,-6.5417 1.6009,-3.58315 4.6766,-8.52106 6.835,-10.97312 4.8151,-5.47024 9.3229,-6.10599 13.2498,-1.86871 4.9676,5.36007 5.2514,12.31284 1.9196,47.01569 -2.057,21.42375 -2.0372,33.19855 0.065,38.70267 1.335,3.49587 1.4615,4.93318 0.5789,6.58226 -1.8171,3.39526 -4.009,2.47442 -6.2846,-2.64022 z M 399.02595,663.69125 c -1.03495,-1.70184 -2.44468,-5.18934 -3.13273,-7.75 -0.68804,-2.56066 -1.55981,-5.00839 -1.93726,-5.43942 -0.37745,-0.43103 -1.93144,1.18622 -3.45332,3.59389 -7.01545,11.09874 -18.86413,10.06628 -22.97624,-2.00208 -2.08758,-6.1267 -2.14246,-18.60417 -0.0893,-20.30812 0.825,-0.68469 1.5,-2.78272 1.5,-4.66228 0,-3.89393 3.36421,-11.15651 5.55791,-11.99832 0.80716,-0.30973 2.12561,-0.017 2.9299,0.65048 1.19939,0.99541 1.6755,0.74581 2.64778,-1.38812 2.32348,-5.09949 8.32124,-2.56278 12.25861,5.18468 l 2.36424,4.65204 1.28525,-5.96924 c 1.23409,-5.73162 5.73091,-12.3613 7.31204,-10.78018 1.99262,1.99262 -0.62622,16.04686 -3.35362,17.9975 -3.23771,2.31562 -1.18838,19.10429 3.92542,32.15812 3.07715,7.85492 -0.79674,12.70746 -4.83866,6.06105 z m -15.32097,-13.15868 c 1.1641,-1.23912 3.30532,-4.84958 4.75827,-8.02325 l 2.64173,-5.7703 -2.0716,-6.13437 c -3.4843,-10.31756 -7.07849,-12.38475 -11.42164,-6.56913 -3.37981,4.52567 -5.0214,10.19336 -5.03665,17.38937 -0.016,7.5514 2.06646,11.36062 6.21073,11.36062 1.61455,0 3.69986,-0.95505 4.91916,-2.25294 z m 241.33291,12.45053 c -1.10238,-2.16084 -2.52946,-6.01428 -3.17129,-8.5632 -0.64182,-2.54891 -1.4612,-4.63438 -1.82083,-4.63438 -0.35964,0 -1.53054,1.62786 -2.60202,3.61746 -4.4335,8.23251 -13.8519,11.12821 -19.10596,5.87415 -1.37961,-1.37961 -2.2113,-2.98908 -1.84819,-3.57659 0.3631,-0.58752 -0.24997,-1.91615 -1.36239,-2.95252 -1.42442,-1.32704 -2.22508,-3.7753 -2.70733,-8.2785 -1.21748,-11.36871 2.95593,-24.5096 9.54476,-30.05374 3.80927,-3.20528 4.36831,-3.24216 5.76443,-0.38026 l 1.09763,2.25 0.67182,-2.25 c 0.3695,-1.2375 1.24772,-2.25 1.9516,-2.25 1.59619,0 7.08389,6.15467 7.96611,8.93429 1.13475,3.57528 2.21955,2.27461 3.48985,-4.18429 1.44155,-7.32963 2.56634,-9.75 4.531,-9.75 3.94245,0 4.19533,9.4373 0.29158,10.8814 -1.81593,0.67175 -1.86497,0.90235 -0.48532,2.28201 1.37966,1.37965 1.32068,2.34158 -0.58361,9.51933 l -2.11835,7.9846 2.57083,9.41633 c 1.41395,5.17897 3.18096,10.89027 3.92669,12.69176 0.99983,2.41535 1.07068,3.72828 0.26984,5 -1.96456,3.11964 -4.15563,2.56833 -6.27085,-1.57785 z m -14.23495,-13.69758 c 1.69017,-1.925 3.50669,-3.5 4.03671,-3.5 0.94504,0 1.25057,-2.43105 1.32876,-10.5729 0.057,-5.93571 -4.10044,-13.83708 -7.49171,-14.23825 -2.11222,-0.24986 -3.11291,0.43953 -5.08042,3.5 -3.64654,5.6722 -4.92621,10.77687 -4.47561,17.85346 0.67211,10.55529 5.8276,13.62578 11.68227,6.95769 z m 341.38415,16.39926 c -0.6875,-0.7146 -1.25,-2.38305 -1.25,-3.70768 0,-2.03276 0.3688,-2.31585 2.3643,-1.81501 1.5779,0.39604 3.1255,-0.0668 4.653,-1.39159 1.2588,-1.09174 3.3593,-1.98499 4.6678,-1.98499 3.4625,0 9.3149,-2.6754 9.3149,-4.25825 0,-0.74815 -2.4823,-3.50335 -5.5162,-6.12265 -3.034,-2.6193 -6.409,-6.5122 -7.5,-8.65089 -3.9202,-7.68408 -1.7534,-20.21448 4.2188,-24.39759 2.0995,-1.47051 2.3582,-1.40148 4.4364,1.18392 1.9108,2.37705 2.2963,2.51706 2.8726,1.04336 0.3661,-0.93617 0.3742,-2.17367 0.018,-2.75 -1.615,-2.61315 4.0173,-0.701 7.1435,2.42519 3.73395,3.73408 4.14555,6.99612 1.1218,8.89133 -1.333,0.83551 -2.2198,0.58507 -4.0644,-1.14787 -6.1334,-5.76204 -13.7749,0.9548 -10.3665,9.11215 0.7986,1.91152 2.8435,4.50418 4.544,5.76146 2.1809,1.61241 3.092,3.1145 3.092,5.09791 0,1.54657 0.45,2.81194 1,2.81194 0.55,0 1,-0.7301 1,-1.62245 0,-3.04659 2.7168,0.44069 3.8503,4.94226 1.8475,7.33709 -0.6058,12.56492 -7.1193,15.17114 -5.6636,2.26611 -16.8366,3.11753 -18.481,1.40831 z m -466.8848,-5.73371 -1.71704,-4.83444 -2.92768,3.33444 c -7.56154,8.61213 -15.83455,-0.6411 -12.77929,-14.29342 2.36111,-10.55053 9.87517,-15.01116 13.96313,-8.28905 2.03367,3.34411 2.49822,3.10607 3.55501,-1.82161 0.77368,-3.60761 2.21715,-4.98498 3.68543,-3.5167 0.62734,0.62734 0.24906,3.79613 -1.06982,8.96168 -1.91729,7.50928 -1.9462,8.31688 -0.47945,13.39235 2.59382,8.9755 2.85318,11.90119 1.05503,11.90119 -0.97133,0 -2.22186,-1.84018 -3.28532,-4.83444 z m -5.57785,-7.8747 c 2.09224,-3.80015 2.19943,-4.6029 1.10318,-8.26186 -1.37779,-4.59866 -2.97195,-6.31872 -5.09954,-5.50228 -2.12455,0.81526 -4.791,6.97796 -4.791,11.07296 0,8.35666 4.8503,9.8421 8.78736,2.69118 z m -350.73723,7.80283 c -1.63023,-3.04613 -1.33849,-12.0458 0.41226,-12.71763 1.26604,-0.48582 1.249,-0.88688 -0.12688,-2.98673 -1.37554,-2.09936 -1.49976,-5.01194 -0.92369,-21.65744 1.45472,-42.03269 2.6574,-60.16716 4.14121,-62.44262 2.14364,-3.28731 17.02156,-6.6564 34.96552,-7.9179 7.89395,-0.55496 9.2021,-0.41287 10.4904,1.13944 1.64865,1.9865 2.30659,22.84213 2.42535,76.87973 0.0603,27.42205 -0.0788,29.98172 -1.68431,30.99487 -2.8768,1.81544 -5.20164,-0.42958 -5.56414,-5.37312 -0.17277,-2.35621 0.14367,-4.74181 0.7032,-5.30134 0.68978,-0.68978 0.6828,-1.6424 -0.0216,-2.95869 -1.23414,-2.306 -2.49645,-21.58657 -1.34271,-20.50861 0.43775,0.409 1.40709,-0.12895 2.15409,-1.19544 1.17453,-1.67687 1.08575,-2.38591 -0.65657,-5.24364 -1.81769,-2.98135 -2.01511,-5.02564 -2.01848,-20.90094 -0.002,-9.678 -0.29957,-21.76408 -0.66115,-26.85795 l -0.6574,-9.26157 -4.72821,0.62722 c -3.7141,0.49269 -4.85326,0.30136 -5.31121,-0.89205 -0.79736,-2.07787 -3.36473,-1.91293 -4.54476,0.29198 -0.64474,1.20472 -3.04421,2.19712 -7.16537,2.96352 -3.40781,0.63375 -6.42754,1.3838 -6.71051,1.66677 -0.28297,0.28297 -0.73164,2.77438 -0.99704,5.53647 -0.2654,2.7621 -0.84497,5.02199 -1.28793,5.02199 -1.69231,0 -1.97707,4.02794 -0.48829,6.90693 1.31516,2.54324 1.47576,6.29026 1.04155,24.29998 -0.89384,37.07326 -1.47878,49.07051 -2.4495,50.24016 -0.51918,0.62558 -2.5189,1.24348 -4.4438,1.37312 -2.60818,0.17565 -3.76738,-0.26422 -4.54998,-1.72651 z m 62.89278,-0.34369 c -3.19995,-3.37234 -3.88795,-5.92999 -4.51887,-16.799 -0.52522,-9.04801 0.71745,-25.5502 2.21859,-29.46212 0.35583,-0.92726 1.50028,-1.46786 2.73464,-1.29174 1.83983,0.26251 2.09633,0.90258 1.92474,4.80287 -1.23566,28.08588 -1.22788,29.24167 0.22004,32.70704 1.44877,3.46739 1.53996,3.51074 5.98362,2.84437 4.09741,-0.61444 4.59482,-0.46398 5.40825,1.63595 1.1688,3.01736 -0.93057,6.42261 -3.70818,6.01478 -1.11572,-0.16382 -2.31999,0.17368 -2.67618,0.75 -1.12048,1.81298 -5.36362,1.14063 -7.58665,-1.20215 z m 23.44144,-0.35471 c -0.35955,-1.43258 -0.14313,-9.03679 0.48095,-16.89825 1.52326,-19.18837 1.50612,-19.85354 -0.49206,-19.08677 -2.35067,0.90204 -4.37325,-1.20419 -4.37325,-4.55414 0,-2.1543 0.67035,-3.20443 2.60955,-4.08799 2.25072,-1.0255 2.80868,-0.91942 4.05775,0.77144 1.31841,1.7847 1.53247,1.8119 2.38811,0.30343 0.60369,-1.06428 1.69275,-1.46012 3.0446,-1.1066 1.23747,0.32361 2.45955,-0.0237 2.96586,-0.84297 1.13316,-1.83349 24.93414,-2.74501 24.93414,-0.95492 0,0.63204 0.7875,1.01694 1.75,0.85533 2.354,-0.39525 2.85874,3.45456 0.73179,5.58151 -0.89356,0.89356 -2.67711,1.62465 -3.96345,1.62465 -2.2163,0 -2.37662,0.45395 -3.06075,8.66691 -0.46978,5.63969 -0.27603,11.49023 0.55471,16.75 1.96395,12.43459 1.87003,15.02836 -0.55677,15.3757 -1.50389,0.21524 -2.54908,-0.71019 -3.95294,-3.5 -1.90501,-3.78574 -2.3158,-8.75012 -2.45162,-29.62793 l -0.051,-7.83532 -7.75,0.70693 c -4.2625,0.38881 -7.82493,0.7647 -7.91651,0.83532 -0.40835,0.31486 -2.44408,26.6207 -2.39521,30.95093 0.0299,2.6524 -0.40976,5.6899 -0.97711,6.75 -1.52509,2.84966 -4.79117,2.45302 -5.57682,-0.67726 z m 50.3439,0.60559 c -1.52538,-1.19986 -2.36672,-2.69913 -2.10439,-3.75 0.2404,-0.96298 -0.70163,-3.05837 -2.09339,-4.65641 -1.57492,-1.80836 -2.5139,-4.07406 -2.48658,-6 0.0564,-3.97232 2.27212,-10.18117 4.51969,-12.66472 1.45324,-1.60581 1.55521,-2.37361 0.59508,-4.48086 -1.68074,-3.68883 -1.42104,-13.09369 0.4717,-17.08236 1.99426,-4.20258 5.41786,-6.90654 6.5091,-5.14087 0.54504,0.88189 1.23338,0.74691 2.62823,-0.51541 4.63225,-4.19213 13.03059,1.06112 10.18794,6.37266 -0.97776,1.82696 -1.70308,2.00197 -5.90308,1.42433 -4.39309,-0.60421 -4.96434,-0.43483 -6.92045,2.05196 -1.17265,1.49079 -2.12521,4.11234 -2.11679,5.82567 0.0153,3.11624 1.14526,5.86131 2.34649,5.70055 2.48922,-0.33313 3.70881,0.178 4.65842,1.95236 1.61222,3.01247 0.22317,5.96259 -3.54971,7.539 -4.14672,1.73261 -6.47051,4.93726 -6.47051,8.92323 0,8.04219 7.24289,9.89554 17.52815,4.48519 6.40374,-3.36856 8.47185,-2.8749 8.47185,2.02224 0,2.88213 -3.40344,5.99256 -6.55709,5.99256 -0.8951,0 -2.77162,0.9 -4.17004,2 -3.51551,2.7653 -12.02962,2.76578 -15.54462,8.8e-4 z m 84.49682,-0.005 c -1.8012,-1.09819 -3.74503,-3.23319 -4.3196,-4.74443 -0.57457,-1.51124 -1.75717,-3.535 -2.628,-4.49726 -1.35161,-1.49351 -1.49597,-3.83535 -0.98638,-16.00183 0.65707,-15.68788 2.2234,-22.25235 5.30954,-22.25235 1.55334,0 1.95451,0.85586 2.20203,4.69783 0.1882,2.92121 -0.31188,5.88622 -1.32235,7.84025 -0.94207,1.82175 -1.31312,3.83998 -0.88289,4.80218 0.40817,0.91286 0.77908,5.48474 0.82425,10.15974 0.0494,5.10949 0.6154,9.43747 1.41905,10.85022 1.19406,2.09908 1.80925,2.27939 5.75716,1.68736 4.00151,-0.60005 4.50165,-0.44378 5.27977,1.64978 0.99337,2.67269 0.40149,4.80164 -1.81568,6.53083 -2.27631,1.77532 -5.12178,1.54271 -8.8369,-0.7224 z m 84.24817,-11.74587 c 0.39295,-7.5625 1.14096,-14.19624 1.66225,-14.74164 1.8555,-1.94134 2.97104,1.91155 2.38623,8.24164 -0.31758,3.4375 -0.37882,6.25 -0.13608,6.25 0.24274,0 1.84693,-1.9125 3.56486,-4.25 4.06706,-5.5338 10.70994,-10.75 13.69023,-10.75 3.2083,0 3.09323,2.96569 -0.23574,6.07569 -3.54516,3.31196 -5.40499,7.17258 -5.40499,11.21966 0,6.18163 5.89081,8.7011 11,4.70464 3.03808,-2.37642 4.59246,-2.50443 5.38338,-0.44332 0.69815,1.81937 -3.61824,6.21318 -6.91707,7.04113 -7.59198,1.90547 -12.40751,-1.93044 -13.23503,-10.54262 l -0.48945,-5.09381 -2.15199,2.91686 c -1.18359,1.60427 -3.22743,5.21295 -4.54185,8.0193 -1.31443,2.80635 -3.04222,5.10246 -3.83954,5.10246 -1.23058,0 -1.34169,-2.07805 -0.73521,-13.74999 z m 59.0042,11.72506 c -3.46831,-3.83244 -3.00962,-26.47506 0.53633,-26.47506 1.22881,0 1.48623,1.99181 1.48623,11.5 l 0,11.49999 3,0.0362 c 2.51181,0.0303 3,0.43711 3,2.5 0,2.01488 -0.55598,2.51824 -3.0511,2.76236 -2.107,0.20616 -3.64531,-0.35807 -4.97146,-1.82345 z m 42.69737,0.73556 c -2.22297,-2.67851 -3.25558,-10.83751 -3.85512,-30.46062 l -0.61869,-20.25 2.78586,0 2.78587,0 -2.67825,-2.67825 -2.67825,-2.67825 0.67497,-15.07175 c 0.37124,-8.28946 1.07537,-15.84889 1.56474,-16.79872 0.56734,-1.10115 0.44867,-2.4333 -0.32749,-3.67613 -1.57322,-2.51911 -0.048,-8.96513 2.4842,-10.49894 1.47882,-0.89575 2.19041,-0.63755 3.86384,1.40204 1.92529,2.34656 2.00754,3.29789 1.34012,15.5 -0.39109,7.15 -1.17208,13.56209 -1.73553,14.2491 -0.70149,0.8553 -0.68216,2.11636 0.0613,4 0.59718,1.51299 1.21444,4.209 1.3717,5.99112 0.28142,3.18921 0.49362,3.01536 13.48097,-11.04456 7.25727,-7.85662 15.89711,-17.71166 19.19963,-21.90007 7.03277,-8.91929 7.43045,-9.22714 10.08465,-7.80665 1.47502,0.7894 2.0175,2.08456 2.00895,4.79624 -0.01,3.02819 -1.13276,5.12893 -6.07675,11.36543 -5.26479,6.64116 -6.6639,7.80141 -10.60389,8.79351 -4.44591,1.11949 -4.50208,1.18354 -2.74273,3.1276 1.746,1.92932 1.68459,2.10253 -2.20049,6.20649 -19.77986,20.89429 -24.49992,27.06282 -23.63036,30.88197 0.22773,1.00022 3.62025,2.96714 8.53409,4.94791 16.059,6.47339 32.73185,20.426 32.73185,27.39152 0,3.4004 -1.52402,5.50038 -3.99179,5.50038 -0.87549,0 -3.59799,-2.06542 -6.05,-4.58982 -2.45202,-2.5244 -6.37071,-5.92101 -8.70821,-7.54803 -2.3375,-1.62702 -4.25,-3.7506 -4.25,-4.71905 0,-0.96846 -0.61798,-2.60596 -1.37328,-3.6389 -1.32248,-1.8086 -1.3998,-1.7945 -2.09034,0.38119 -0.39439,1.24259 -1.23891,2.04147 -1.87672,1.77527 -0.63781,-0.26619 -3.53276,-1.48814 -6.43321,-2.71543 -2.90046,-1.2273 -5.52451,-1.98049 -5.83123,-1.67378 -0.30672,0.30672 0.004,4.84752 0.68954,10.09065 1.0123,7.7374 1.00453,9.82538 -0.0412,11.08544 -1.56618,1.88713 -4.41491,2.01484 -5.86873,0.26309 z m 153.79657,-0.96063 c -3.9397,-2.66645 -7.60518,-9.4829 -8.46941,-15.74999 -1.20588,-8.74458 2.5179,-23.50663 6.24284,-24.74827 0.67457,-0.22486 1.73432,0.70573 2.355,2.06798 0.88732,1.94745 0.77265,3.54821 -0.53653,7.48978 -1.96273,5.90921 -1.89925,21.53341 0.0844,20.77222 0.64044,-0.24576 1.95145,0.42282 2.91337,1.48573 3.40108,3.75814 13.63126,1.1788 16.4868,-4.15682 0.56238,-1.05084 1.95483,-1.91062 3.09432,-1.91062 1.59033,0 1.89865,-0.40669 1.32672,-1.75 -0.4098,-0.9625 -0.655,-4.94477 -0.54489,-8.84948 0.17978,-6.37556 -0.0701,-7.42072 -2.4508,-10.25 -2.99287,-3.55683 -7.4976,-4.22258 -11.16944,-1.65073 -2.61038,1.82838 -4.91401,1.09861 -5.67111,-1.79655 -0.70304,-2.6884 1.65656,-6.42226 5.02979,-7.95921 2.1522,-0.98061 2.76258,-0.88327 3.85837,0.61532 1.22174,1.67082 1.36055,1.67507 2.25929,0.0691 0.7181,-1.28317 1.65371,-1.53639 3.74104,-1.0125 6.16806,1.54808 11.47886,11.33805 11.47886,21.16022 0,10.63199 -6.72089,23.16537 -14.36811,26.79421 -4.98095,2.36362 -11.64147,2.09976 -15.66051,-0.62039 z m 62.02862,0.25337 c -1.925,-1.04946 -4.26397,-2.13139 -5.19771,-2.40429 -3.49445,-1.02131 -5.30395,-6.54342 -5.27538,-16.09907 0.0233,-7.79333 0.392,-9.71491 2.75,-14.33216 1.4977,-2.93269 2.72309,-5.52019 2.72309,-5.75 0,-0.22981 -2.475,-0.41784 -5.5,-0.41784 -4.22222,0 -5.5,-0.34849 -5.5,-1.5 0,-1.80819 -1.16679,-1.93321 -2.8,-0.3 -1.76396,1.76396 -3.42697,-0.33839 -3.02818,-3.82818 l 0.32818,-2.87182 11,-0.28034 c 10.52136,-0.26815 11.04351,-0.18394 12,1.9353 1.43087,3.17032 2.93118,3.2764 4.51386,0.31915 1.09108,-2.0387 2.00951,-2.50979 4.43124,-2.27292 2.51711,0.24621 3.11163,0.79357 3.37716,3.10928 0.39582,3.45206 -1.00997,5.27707 -4.62123,5.99932 -10.62188,2.12438 -17.85522,22.12693 -10.6185,29.36365 2.33686,2.33685 3.08781,2.52313 7.89442,1.95821 4.30505,-0.50598 5.42668,-0.32519 5.91747,0.9538 1.70092,4.43252 -0.97394,8.83832 -3.89442,6.41454 -1.22851,-1.01957 -1.5,-0.95124 -1.5,0.37756 0,2.13199 -2.66417,1.98958 -7,-0.37419 z m 28,0.36126 c -3.46578,-2.45772 -4.7966,-4.1785 -7.18034,-9.28435 -4.89147,-10.47731 -0.22959,-35.98507 5.68034,-31.08027 2.37486,1.97096 1.55445,10 -1.0218,10 -0.96644,0 -1.16552,1.56233 -0.79639,6.25 0.66781,8.4807 1.98505,12.34279 5.02544,14.73436 3.33296,2.6217 7.28447,2.55095 12.63141,-0.22614 3.77572,-1.96105 4.54311,-2.9518 6.12783,-7.91146 1.7938,-5.614 1.90485,-6.77432 1.5496,-16.1916 -0.15993,-4.23972 -0.42202,-4.78227 -2.09843,-4.34388 -1.05362,0.27553 -2.16767,0.0932 -2.47568,-0.40516 -0.9066,-1.46691 -6.31037,-1.03846 -8.98217,0.71217 -3.09408,2.02732 -5.45981,0.47362 -5.45981,-3.58575 0,-3.99316 3.17299,-6.30719 9.2655,-6.75722 6.57025,-0.48532 10.70897,1.87118 13.93699,7.93545 3.24736,6.10059 3.28635,20.12035 0.0753,27.09201 -1.92612,4.18195 -2.45785,4.67124 -4.11346,3.78519 -2.49081,-1.33304 -3.25108,-0.44623 -2.13471,2.49003 2.20001,5.78648 -13.79673,11.20663 -20.02966,6.78662 z m 55.26801,-0.36463 c -1.912,-2.23298 -3.9006,-2.60226 -4.4901,-0.83378 -0.7533,2.25992 -5.7835,-4.67374 -7.7285,-10.65307 -3.2061,-9.85593 -5.2206,-30.2976 -3.4424,-34.93135 0.915,-2.38446 4.3157,-1.91534 5.3231,0.7343 1.1678,3.07176 1.6981,23.55314 0.6862,26.50408 -0.6439,1.87775 -0.3951,2.42492 1.305,2.86949 1.1553,0.30213 2.3712,1.62767 2.702,2.94565 0.3308,1.31798 1.7366,3.2892 3.1239,4.38051 6.164,4.84861 12.1801,0.65231 14.907,-10.39787 1.4796,-5.99549 1.5256,-7.90148 0.3903,-16.17021 -1.4022,-10.2132 -1.0856,-12.44774 1.7636,-12.44774 3.1565,0 4.5311,4.74388 4.9784,17.18099 0.4474,12.44214 -0.753,18.53886 -5.0548,25.67202 -3.8621,6.40399 -11.163,9.00202 -14.4637,5.14698 z m 25.3987,1.33333 c -1.4844,-1.48433 -0.4605,-5.69811 3.4689,-14.27561 3.784,-8.26039 4.3365,-8.97732 6.5,-8.43433 2.2048,0.55338 2.3644,0.30991 2.3644,-3.60724 0,-2.66321 0.72,-5.11607 1.9673,-6.7017 l 1.9673,-2.50102 -3.0074,-6.15671 c -4.9606,-10.1553 -6.074,-12.01627 -9.1448,-15.28497 -5.477,-5.8301 -1.8319,-12.56777 3.9018,-7.21225 3.4028,3.17837 4.9883,6.47421 5.837,12.13361 0.6021,4.01504 1.0034,4.67516 2.5448,4.18594 2.3447,-0.74418 2.9127,0.37309 12.4373,24.46391 4.1858,10.58735 7.4724,20.21887 7.3036,21.40338 -0.1902,1.33446 -1.1451,2.2729 -2.5105,2.46713 -1.8017,0.2563 -2.7345,-0.74662 -5.1151,-5.5 -1.6013,-3.19741 -4.199,-9.30096 -5.7726,-13.56346 -1.5736,-4.2625 -3.1768,-7.75 -3.5625,-7.75 -1.0629,0 -7.4909,10.94928 -11.4183,19.44955 -2.4575,5.319 -4.0213,7.55044 -5.2915,7.55044 -0.9917,0 -2.1031,-0.3 -2.4697,-0.66667 z M 381.91057,599.73598 c -0.98574,-1.84186 -0.53221,-3.52455 2.9976,-11.12175 2.28749,-4.92334 4.75865,-11.81722 5.49147,-15.31973 1.52614,-7.29421 2.10595,-8.50898 4.06127,-8.50898 5.63923,0 2.83898,16.67605 -5.28741,31.48751 -3.0488,5.55687 -5.5134,6.73198 -7.26293,3.46295 z m 451.03822,0.0715 c -1.6889,-3.15581 2.9667,-13.10184 5.7876,-12.36418 1.7843,0.46663 1.9349,0.0984 1.5621,-3.82069 -0.5735,-6.028 2.6145,-18.21601 4.8776,-18.64774 1.0914,-0.20821 2.1769,0.6294 2.915,2.24936 1.0229,2.24501 0.8714,2.90533 -1.1633,5.0712 -1.9389,2.06386 -2.0527,2.49011 -0.665,2.49011 2.1663,0 2.1101,1.33784 -0.3595,8.55583 -2.8576,8.35207 -8.1529,17.87357 -10.1487,18.24864 -0.9254,0.17391 -2.188,-0.62823 -2.8058,-1.78253 z"
     id="path3822-2"
     inkscape:connector-curvature="0" />
  <path
     style="opacity:0.98000004;fill:#ffffff;fill-opacity:1;display:inline"
     d="m 293.21921,710.99085 c -0.96836,-2.52351 -0.70258,-30.77586 0.42774,-45.46832 1.92001,-24.9573 5.4527,-40.94989 9.04564,-40.94989 2.11413,0 2.36119,-0.75355 0.96874,-2.95477 -1.27643,-2.01782 1.58706,-6.67926 5.93302,-9.65831 2.42069,-1.65932 4.87455,-2.38692 8.05,-2.38692 5.31027,0 6.96787,1.26617 6.96787,5.32244 0,2.57175 0.19299,2.76228 1.60821,1.58775 1.36727,-1.13473 1.8198,-1.04534 3.02046,0.59666 3.73458,5.10735 4.86588,21.16782 2.06234,29.27819 -1.94238,5.61911 -5.58174,10.84414 -8.46974,12.16001 -6.37782,2.90592 -14.58568,-0.0586 -18.49175,-6.6789 l -2.19233,-3.71572 -1.34718,6.97478 c -0.77291,4.0016 -1.27368,12.37627 -1.17475,19.64606 0.12592,9.25365 -0.27356,14.20543 -1.48113,18.35933 -1.27515,4.38636 -1.41105,6.38371 -0.59385,8.72794 0.58285,1.67195 1.05972,4.23276 1.05972,5.69068 0,4.32272 -4.06262,6.93594 -5.39301,3.46899 z m 28.8331,-62.35201 c 2.26022,-2.49751 4.46012,-8.70012 4.51602,-12.73287 0.0241,-1.74166 0.60639,-3.35653 1.29389,-3.58859 1.5902,-0.53676 -0.79911,-5.86701 -4.71711,-10.52328 -2.09119,-2.48524 -3.50115,-3.22146 -6.16953,-3.22146 -4.4048,0 -7.57996,3.29024 -10.36912,10.74493 -1.76926,4.72879 -1.89408,6.03135 -0.87535,9.13513 1.47488,4.49354 5.34355,10.74468 7.08037,11.44075 3.02041,1.21049 7.5688,0.59296 9.24083,-1.25461 z m 310.52694,62.39407 c -0.99631,-1.20048 -1.12727,-6.07107 -0.59437,-22.10537 1.49508,-44.98472 5.78664,-66.30153 15.18114,-75.40705 2.76449,-2.67945 4.36525,-3.35952 8.76679,-3.72453 l 5.38476,-0.44655 0.64287,3.21432 c 0.35357,1.76788 0.39331,3.6181 0.0883,4.11162 -0.305,0.49351 0.12464,0.89729 0.95477,0.89729 0.83013,0 1.98136,-0.7875 2.55828,-1.75 0.98442,-1.64233 1.144,-1.62695 2.59374,0.25 0.84962,1.1 2.25936,4.45702 3.13275,7.46004 2.93463,10.09032 -0.18752,29.03996 -4.78464,29.03996 -1.34365,0 -1.89142,0.71383 -1.89142,2.46482 0,2.97937 -2.56739,4.53518 -7.48392,4.53518 -4.70116,0 -8.62172,-2.09163 -12.31188,-6.56843 -1.63668,-1.98559 -3.22735,-3.20313 -3.53481,-2.70566 -0.30745,0.49748 -1.08961,7.84133 -1.73812,16.31967 -0.89493,11.69992 -1.5492,15.68578 -2.7147,16.53801 -1.37459,1.00513 -1.3616,1.37126 0.12392,3.49214 1.27315,1.81768 1.65951,4.66094 1.65951,12.21252 0,5.41378 -0.46583,10.71365 -1.03518,11.77749 -1.2468,2.32966 -3.25989,2.48858 -4.99779,0.39453 z M 661.1797,648.8623 c 2.8973,-2.8973 4.55752,-8.24409 4.55752,-14.67764 0,-10.31161 -3.02567,-15.61202 -8.91191,-15.61202 -4.50098,0 -9.10693,4.71681 -11.29376,11.56559 -1.39107,4.35658 -1.41,5.46241 -0.15782,9.21893 1.99423,5.98269 7.14288,11.21548 11.03514,11.21548 1.68327,0 3.83015,-0.76965 4.77083,-1.71034 z m 273.20669,58.96034 c -3.02632,-6.80197 -3.33105,-17.09061 -1.16941,-39.48357 2.46261,-25.51079 2.53372,-41.63293 0.19018,-43.11859 -1.3456,-0.85304 -2.23084,-0.58696 -4.19912,1.26214 -1.56381,1.46912 -3.12048,2.10267 -4.17353,1.69857 -1.41015,-0.54112 -1.58416,-0.1679 -1.0851,2.32739 0.40258,2.01293 -0.17294,4.68077 -1.78363,8.26796 -1.3079,2.91286 -3.80949,8.7836 -5.5591,13.0461 -2.3489,5.72255 -3.66446,7.75 -5.02876,7.75 -2.09757,0 -2.4318,-0.42265 -3.33981,-4.22336 -0.5019,-2.10084 -0.32804,-2.59957 0.76059,-2.18183 2.4953,0.95754 2.91305,-1.6984 0.73129,-4.64939 -1.26807,-1.71516 -2.12474,-4.38527 -2.13513,-6.65493 -0.01,-2.08477 -0.68455,-6.94032 -1.5,-10.79012 -0.81545,-3.84979 -1.48264,-8.28978 -1.48264,-9.86663 0,-2.34673 -0.35263,-2.77479 -1.94318,-2.35885 -2.69255,0.70412 -5.28158,-2.44426 -4.88178,-5.93646 0.22953,-2.00484 0.95125,-2.92775 2.45751,-3.14259 4.52197,-0.64496 11.46759,11.53994 12.95063,22.71965 0.37096,2.79648 0.95401,5.07241 1.29565,5.05763 0.34164,-0.0148 1.93096,-2.95856 3.5318,-6.5417 1.60085,-3.58315 4.6766,-8.52106 6.83499,-10.97312 4.8151,-5.47024 9.32285,-6.10599 13.24983,-1.86871 4.96754,5.36007 5.25141,12.31284 1.91952,47.0157 -2.05693,21.42375 -2.0372,33.19855 0.0648,38.70267 1.33508,3.49587 1.4615,4.93318 0.57894,6.58226 -1.81709,3.39526 -4.00898,2.47442 -6.28458,-2.64022 z m -539.6853,-46.34426 c -1.03495,-1.70184 -2.44468,-5.18934 -3.13273,-7.75 -0.68804,-2.56066 -1.55981,-5.0084 -1.93726,-5.43943 -0.37745,-0.43103 -1.93144,1.18622 -3.45332,3.5939 -7.01545,11.09874 -18.86413,10.06628 -22.97624,-2.00208 -2.08758,-6.12671 -2.14246,-18.60418 -0.0893,-20.30813 0.825,-0.68469 1.5,-2.78272 1.5,-4.66228 0,-3.89393 3.36421,-11.15651 5.55791,-11.99832 0.80716,-0.30973 2.12561,-0.017 2.9299,0.65048 1.19939,0.99541 1.6755,0.74581 2.64778,-1.38812 2.32348,-5.09949 8.32124,-2.56278 12.25861,5.18468 l 2.36424,4.65204 1.28525,-5.96924 c 1.23409,-5.73162 5.73091,-12.3613 7.31204,-10.78018 1.99262,1.99262 -0.62622,16.04686 -3.35362,17.9975 -3.23771,2.31562 -1.18838,19.10429 3.92542,32.15813 3.07715,7.85492 -0.79674,12.70746 -4.83866,6.06105 z m -15.32097,-13.15869 c 1.1641,-1.23912 3.30532,-4.84958 4.75827,-8.02325 l 2.64173,-5.7703 -2.0716,-6.13437 c -3.4843,-10.31756 -7.07849,-12.38475 -11.42164,-6.56913 -3.37981,4.52567 -5.0214,10.19336 -5.03665,17.38937 -0.016,7.5514 2.06646,11.36063 6.21073,11.36063 1.61455,0 3.69986,-0.95506 4.91916,-2.25295 z m 241.33291,12.45054 c -1.10238,-2.16084 -2.52946,-6.01428 -3.17129,-8.5632 -0.64182,-2.54891 -1.4612,-4.63439 -1.82083,-4.63439 -0.35964,0 -1.53054,1.62786 -2.60202,3.61747 -4.4335,8.23251 -13.8519,11.12821 -19.10596,5.87415 -1.37961,-1.37961 -2.2113,-2.98908 -1.84819,-3.57659 0.3631,-0.58752 -0.24997,-1.91615 -1.36239,-2.95252 -1.42442,-1.32705 -2.22508,-3.77531 -2.70733,-8.27851 -1.21748,-11.36871 2.95593,-24.5096 9.54476,-30.05374 3.80927,-3.20528 4.36831,-3.24216 5.76443,-0.38026 l 1.09763,2.25 0.67182,-2.25 c 0.3695,-1.2375 1.24772,-2.25 1.9516,-2.25 1.59619,0 7.08389,6.15467 7.96611,8.93429 1.13475,3.57528 2.21955,2.27461 3.48985,-4.18429 1.44155,-7.32963 2.56634,-9.75 4.531,-9.75 3.94245,0 4.19533,9.4373 0.29158,10.8814 -1.81593,0.67175 -1.86497,0.90235 -0.48532,2.28201 1.37966,1.37965 1.32068,2.34158 -0.58361,9.51933 l -2.11835,7.9846 2.57083,9.41633 c 1.41395,5.17898 3.18096,10.89028 3.92669,12.69177 0.99983,2.41535 1.07068,3.72828 0.26984,5 -1.96456,3.11964 -4.15563,2.56833 -6.27085,-1.57785 z m -14.23495,-13.69759 c 1.69017,-1.925 3.50669,-3.5 4.03671,-3.5 0.94504,0 1.25057,-2.43105 1.32876,-10.5729 0.057,-5.93571 -4.10044,-13.83708 -7.49171,-14.23825 -2.11222,-0.24986 -3.11291,0.43953 -5.08042,3.5 -3.64654,5.6722 -4.92621,10.77687 -4.47561,17.85346 0.67211,10.5553 5.8276,13.62579 11.68227,6.95769 z m 341.38414,16.39927 c -0.6875,-0.7146 -1.25,-2.38305 -1.25,-3.70768 0,-2.03276 0.36877,-2.31585 2.36429,-1.81501 1.57793,0.39604 3.12553,-0.0668 4.65301,-1.39159 1.2588,-1.09174 3.35932,-1.98499 4.66783,-1.98499 3.46246,0 9.31485,-2.6754 9.31485,-4.25825 0,-0.74816 -2.4823,-3.50336 -5.5162,-6.12266 -3.03392,-2.6193 -6.40892,-6.5122 -7.5,-8.65089 -3.92013,-7.68408 -1.75335,-20.21448 4.21888,-24.39759 2.09944,-1.47051 2.35811,-1.40148 4.43637,1.18392 1.91075,2.37705 2.29625,2.51706 2.87255,1.04336 0.3661,-0.93617 0.3742,-2.17367 0.018,-2.75 -1.615,-2.61315 4.0173,-0.701 7.1435,2.42519 3.7341,3.73408 4.1457,6.99612 1.1219,8.89133 -1.3331,0.83551 -2.2199,0.58507 -4.0645,-1.14787 -6.1334,-5.76204 -13.77486,0.9548 -10.36651,9.11215 0.79869,1.91152 2.84353,4.50418 4.54411,5.76146 2.1809,1.61241 3.0919,3.1145 3.0919,5.09791 0,1.54657 0.45,2.81194 1,2.81194 0.55,0 1,-0.7301 1,-1.62245 0,-3.04659 2.7168,0.44069 3.8503,4.94226 1.8475,7.3371 -0.6057,12.56493 -7.1193,15.17115 -5.66355,2.26611 -16.83658,3.11753 -18.48098,1.40831 z m -466.88479,-5.73371 -1.71704,-4.83444 -2.92768,3.33444 c -7.56154,8.61213 -15.83455,-0.6411 -12.77929,-14.29343 2.36111,-10.55053 9.87517,-15.01116 13.96313,-8.28905 2.03367,3.34411 2.49822,3.10607 3.55501,-1.82161 0.77368,-3.60761 2.21715,-4.98498 3.68543,-3.5167 0.62734,0.62734 0.24906,3.79613 -1.06982,8.96168 -1.91729,7.50928 -1.9462,8.31688 -0.47945,13.39236 2.59382,8.9755 2.85318,11.90119 1.05503,11.90119 -0.97133,0 -2.22186,-1.84018 -3.28532,-4.83444 z m -5.57785,-7.8747 c 2.09224,-3.80016 2.19943,-4.60291 1.10318,-8.26187 -1.37779,-4.59866 -2.97195,-6.31872 -5.09954,-5.50228 -2.12455,0.81526 -4.791,6.97796 -4.791,11.07296 0,8.35667 4.8503,9.84211 8.78736,2.69119 z m -350.73722,7.80283 c -1.63024,-3.04613 -1.3385,-12.04581 0.41226,-12.71764 1.26604,-0.48582 1.249,-0.88688 -0.12688,-2.98673 -1.37555,-2.09936 -1.49977,-5.01194 -0.92369,-21.65744 1.45472,-42.03269 2.6574,-60.16716 4.14121,-62.44262 2.14364,-3.28731 17.02156,-6.6564 34.96552,-7.9179 7.89395,-0.55496 9.2021,-0.41287 10.4904,1.13944 1.64865,1.9865 2.30659,22.84213 2.42535,76.87973 0.0603,27.42206 -0.0788,29.98173 -1.68431,30.99488 -2.8768,1.81544 -5.20164,-0.42958 -5.56414,-5.37312 -0.17277,-2.35621 0.14367,-4.74182 0.7032,-5.30135 0.68978,-0.68978 0.6828,-1.6424 -0.0216,-2.95869 -1.23414,-2.306 -2.49645,-21.58657 -1.34271,-20.50861 0.43775,0.409 1.40709,-0.12895 2.15409,-1.19544 1.17453,-1.67687 1.08575,-2.38591 -0.65657,-5.24364 -1.81769,-2.98135 -2.01511,-5.02564 -2.01848,-20.90094 -0.002,-9.678 -0.29957,-21.76408 -0.66115,-26.85795 l -0.6574,-9.26157 -4.72821,0.62722 c -3.7141,0.49269 -4.85326,0.30136 -5.31121,-0.89205 -0.79736,-2.07787 -3.36473,-1.91293 -4.54476,0.29198 -0.64474,1.20472 -3.04421,2.19712 -7.16537,2.96352 -3.40781,0.63375 -6.42754,1.3838 -6.71051,1.66677 -0.28297,0.28297 -0.73164,2.77438 -0.99704,5.53647 -0.2654,2.7621 -0.84497,5.02199 -1.28793,5.02199 -1.69231,0 -1.97707,4.02794 -0.48829,6.90693 1.31516,2.54324 1.47576,6.29026 1.04155,24.29998 -0.89384,37.07326 -1.47878,49.07052 -2.4495,50.24017 -0.51918,0.62558 -2.5189,1.24348 -4.4438,1.37312 -2.60818,0.17565 -3.76738,-0.26422 -4.54998,-1.72651 z m 62.89278,-0.34369 c -3.19995,-3.37234 -3.88795,-5.92999 -4.51887,-16.79901 -0.52522,-9.04801 0.71745,-25.5502 2.21859,-29.46212 0.35583,-0.92726 1.50028,-1.46786 2.73464,-1.29174 1.83983,0.26251 2.09633,0.90258 1.92474,4.80287 -1.23566,28.08588 -1.22788,29.24167 0.22004,32.70704 1.44877,3.4674 1.53996,3.51075 5.98362,2.84438 4.09741,-0.61445 4.59482,-0.46398 5.40825,1.63595 1.1688,3.01736 -0.93057,6.42261 -3.70818,6.01478 -1.11572,-0.16382 -2.31999,0.17368 -2.67618,0.75 -1.12048,1.81298 -5.36362,1.14063 -7.58665,-1.20215 z m 23.44144,-0.35471 c -0.35955,-1.43258 -0.14313,-9.0368 0.48095,-16.89826 1.52326,-19.18837 1.50612,-19.85354 -0.49206,-19.08677 -2.35067,0.90204 -4.37325,-1.20419 -4.37325,-4.55414 0,-2.1543 0.67035,-3.20443 2.60955,-4.08799 2.25072,-1.0255 2.80868,-0.91942 4.05775,0.77144 1.3184,1.7847 1.53246,1.8119 2.3881,0.30343 0.60369,-1.06428 1.69275,-1.46012 3.0446,-1.1066 1.23747,0.32361 2.45955,-0.0237 2.96586,-0.84297 1.13316,-1.83349 24.93414,-2.74501 24.93414,-0.95492 0,0.63204 0.7875,1.01694 1.75,0.85533 2.354,-0.39525 2.85874,3.45456 0.73179,5.58151 -0.89356,0.89356 -2.67711,1.62465 -3.96345,1.62465 -2.2163,0 -2.37662,0.45395 -3.06075,8.66691 -0.46978,5.63969 -0.27603,11.49023 0.55471,16.75 1.96395,12.4346 1.87003,15.02837 -0.55677,15.37571 -1.50389,0.21524 -2.54908,-0.71019 -3.95294,-3.5 -1.90501,-3.78574 -2.3158,-8.75013 -2.45162,-29.62794 l -0.051,-7.83532 -7.75,0.70693 c -4.2625,0.38881 -7.82493,0.7647 -7.91651,0.83532 -0.40835,0.31486 -2.44408,26.6207 -2.39521,30.95094 0.0299,2.6524 -0.40976,5.6899 -0.97711,6.75 -1.52509,2.84966 -4.79116,2.45302 -5.57681,-0.67726 z m 50.34389,0.60559 c -1.52538,-1.19986 -2.36672,-2.69913 -2.10439,-3.75 0.2404,-0.96298 -0.70163,-3.05837 -2.09339,-4.65642 -1.57492,-1.80836 -2.5139,-4.07406 -2.48658,-6 0.0564,-3.97232 2.27212,-10.18117 4.51969,-12.66472 1.45324,-1.60581 1.55521,-2.37361 0.59508,-4.48086 -1.68074,-3.68883 -1.42104,-13.09369 0.4717,-17.08236 1.99426,-4.20258 5.41786,-6.90654 6.5091,-5.14087 0.54504,0.88189 1.23338,0.74691 2.62823,-0.51541 4.63225,-4.19213 13.03059,1.06112 10.18794,6.37266 -0.97776,1.82696 -1.70308,2.00197 -5.90308,1.42433 -4.39309,-0.60421 -4.96434,-0.43483 -6.92045,2.05196 -1.17265,1.49079 -2.12521,4.11234 -2.11679,5.82567 0.0153,3.11624 1.14526,5.86131 2.34649,5.70055 2.48922,-0.33313 3.70881,0.178 4.65842,1.95236 1.61222,3.01247 0.22317,5.96259 -3.54971,7.539 -4.14672,1.73261 -6.47051,4.93726 -6.47051,8.92323 0,8.0422 7.24289,9.89555 17.52815,4.48519 6.40374,-3.36856 8.47185,-2.8749 8.47185,2.02224 0,2.88214 -3.40344,5.99257 -6.55709,5.99257 -0.8951,0 -2.77162,0.9 -4.17004,2 -3.51551,2.7653 -12.02962,2.76578 -15.54462,8.8e-4 z m 84.49682,-0.005 c -1.8012,-1.09819 -3.74503,-3.23319 -4.3196,-4.74443 -0.57457,-1.51124 -1.75717,-3.53501 -2.628,-4.49727 -1.35161,-1.49351 -1.49597,-3.83535 -0.98638,-16.00183 0.65707,-15.68788 2.2234,-22.25235 5.30954,-22.25235 1.55334,0 1.95451,0.85586 2.20203,4.69783 0.1882,2.92121 -0.31188,5.88622 -1.32235,7.84025 -0.94207,1.82175 -1.31312,3.83998 -0.88289,4.80218 0.40817,0.91286 0.77908,5.48474 0.82425,10.15974 0.0494,5.10949 0.6154,9.43747 1.41905,10.85022 1.19406,2.09909 1.80925,2.2794 5.75716,1.68737 4.00151,-0.60006 4.50165,-0.44378 5.27977,1.64978 0.99337,2.67269 0.40149,4.80164 -1.81568,6.53083 -2.27631,1.77532 -5.12178,1.54271 -8.8369,-0.7224 z m 84.24817,-11.74588 c 0.39295,-7.5625 1.14096,-14.19624 1.66225,-14.74164 1.8555,-1.94134 2.97104,1.91155 2.38623,8.24164 -0.31758,3.4375 -0.37882,6.25 -0.13608,6.25 0.24274,0 1.84693,-1.9125 3.56486,-4.25 4.06706,-5.5338 10.70994,-10.75 13.69023,-10.75 3.2083,0 3.09323,2.96569 -0.23574,6.07569 -3.54516,3.31196 -5.40499,7.17258 -5.40499,11.21966 0,6.18164 5.89081,8.70111 11,4.70465 3.03808,-2.37642 4.59246,-2.50443 5.38338,-0.44332 0.69815,1.81937 -3.61824,6.21318 -6.91707,7.04113 -7.59198,1.90547 -12.40751,-1.93044 -13.23503,-10.54263 l -0.48945,-5.09381 -2.15199,2.91686 c -1.18359,1.60427 -3.22743,5.21296 -4.54185,8.01931 -1.31443,2.80635 -3.04222,5.10246 -3.83954,5.10246 -1.23058,0 -1.34169,-2.07805 -0.73521,-13.75 z m 59.0042,11.72507 c -3.46831,-3.83244 -3.00962,-26.47507 0.53633,-26.47507 1.22881,0 1.48623,1.99181 1.48623,11.5 l 0,11.5 3,0.0362 c 2.51181,0.0303 3,0.43711 3,2.5 0,2.01488 -0.55598,2.51824 -3.0511,2.76236 -2.107,0.20616 -3.64531,-0.35807 -4.97146,-1.82345 z m 42.69737,0.73556 c -2.22297,-2.67851 -3.25558,-10.83752 -3.85512,-30.46063 l -0.61869,-20.25 2.78586,0 2.78587,0 -2.67825,-2.67825 -2.67825,-2.67825 0.67497,-15.07175 c 0.37124,-8.28946 1.07537,-15.84889 1.56474,-16.79872 0.56734,-1.10115 0.44867,-2.4333 -0.32749,-3.67613 -1.57322,-2.51911 -0.048,-8.96513 2.4842,-10.49894 1.47882,-0.89575 2.19041,-0.63755 3.86384,1.40204 1.92529,2.34656 2.00754,3.29789 1.34012,15.5 -0.39109,7.15 -1.17208,13.56209 -1.73553,14.2491 -0.70149,0.8553 -0.68216,2.11636 0.0613,4 0.59718,1.51299 1.21444,4.209 1.3717,5.99112 0.28142,3.18921 0.49362,3.01536 13.48097,-11.04456 7.25727,-7.85662 15.89711,-17.71166 19.19963,-21.90007 7.03277,-8.91929 7.43045,-9.22714 10.08465,-7.80665 1.47502,0.7894 2.0175,2.08456 2.00895,4.79624 -0.01,3.02819 -1.13276,5.12893 -6.07675,11.36543 -5.26479,6.64116 -6.6639,7.80141 -10.60389,8.79351 -4.44591,1.11949 -4.50208,1.18354 -2.74273,3.1276 1.746,1.92932 1.68459,2.10253 -2.20049,6.20649 -19.77986,20.89429 -24.49992,27.06282 -23.63036,30.88197 0.22773,1.00022 3.62025,2.96714 8.53409,4.94791 16.059,6.47339 32.73185,20.426 32.73185,27.39153 0,3.4004 -1.52402,5.50038 -3.99179,5.50038 -0.87549,0 -3.59799,-2.06542 -6.05,-4.58982 -2.45202,-2.5244 -6.37071,-5.92102 -8.70821,-7.54804 -2.3375,-1.62702 -4.25,-3.7506 -4.25,-4.71905 0,-0.96846 -0.61798,-2.60596 -1.37328,-3.6389 -1.32248,-1.8086 -1.3998,-1.7945 -2.09034,0.38119 -0.39439,1.24259 -1.23891,2.04147 -1.87672,1.77527 -0.63781,-0.26619 -3.53276,-1.48814 -6.43321,-2.71543 -2.90046,-1.2273 -5.52451,-1.98049 -5.83123,-1.67378 -0.30672,0.30672 0.004,4.84752 0.68954,10.09065 1.0123,7.73741 1.00453,9.82539 -0.0412,11.08545 -1.56618,1.88713 -4.41491,2.01484 -5.86873,0.26309 z m 153.79657,-0.96063 c -3.9397,-2.66645 -7.60518,-9.48291 -8.46941,-15.75 -1.20588,-8.74458 2.5179,-23.50663 6.24284,-24.74827 0.67457,-0.22486 1.73432,0.70573 2.355,2.06798 0.88732,1.94745 0.77265,3.54821 -0.53653,7.48978 -1.96273,5.90921 -1.89925,21.53341 0.0844,20.77222 0.64044,-0.24576 1.95145,0.42282 2.91337,1.48573 3.40108,3.75815 13.63126,1.17881 16.4868,-4.15682 0.56238,-1.05084 1.95483,-1.91062 3.09432,-1.91062 1.59033,0 1.89865,-0.40669 1.32672,-1.75 -0.4098,-0.9625 -0.655,-4.94477 -0.54489,-8.84948 0.17978,-6.37556 -0.0701,-7.42072 -2.4508,-10.25 -2.99287,-3.55683 -7.4976,-4.22258 -11.16944,-1.65073 -2.61038,1.82838 -4.91401,1.09861 -5.67111,-1.79655 -0.70304,-2.6884 1.65656,-6.42226 5.02979,-7.95921 2.1522,-0.98061 2.76258,-0.88327 3.85837,0.61532 1.22174,1.67082 1.36055,1.67507 2.25929,0.0691 0.7181,-1.28317 1.65371,-1.53639 3.74104,-1.0125 6.16806,1.54808 11.47886,11.33805 11.47886,21.16022 0,10.63199 -6.72089,23.16538 -14.36811,26.79422 -4.98095,2.36362 -11.64147,2.09976 -15.66051,-0.62039 z m 62.02862,0.25337 c -1.925,-1.04946 -4.26397,-2.13139 -5.19771,-2.40429 -3.49445,-1.02131 -5.30395,-6.54343 -5.27538,-16.09908 0.0233,-7.79333 0.392,-9.71491 2.75,-14.33216 1.4977,-2.93269 2.72309,-5.52019 2.72309,-5.75 0,-0.22981 -2.475,-0.41784 -5.5,-0.41784 -4.22222,0 -5.5,-0.34849 -5.5,-1.5 0,-1.80819 -1.16679,-1.93321 -2.8,-0.3 -1.76396,1.76396 -3.42697,-0.33839 -3.02818,-3.82818 l 0.32818,-2.87182 11,-0.28034 c 10.52136,-0.26815 11.04351,-0.18394 12,1.9353 1.43087,3.17032 2.93118,3.2764 4.51386,0.31915 1.09108,-2.0387 2.00951,-2.50979 4.43124,-2.27292 2.51711,0.24621 3.11163,0.79357 3.37716,3.10928 0.39582,3.45206 -1.00997,5.27707 -4.62123,5.99932 -10.62188,2.12438 -17.85522,22.12693 -10.6185,29.36365 2.33686,2.33686 3.08781,2.52314 7.89442,1.95822 4.30505,-0.50598 5.42668,-0.32519 5.91747,0.9538 1.70092,4.43252 -0.97394,8.83832 -3.89442,6.41454 -1.22851,-1.01957 -1.5,-0.95124 -1.5,0.37756 0,2.13199 -2.66417,1.98958 -7,-0.37419 z m 28,0.36126 c -3.46578,-2.45772 -4.7966,-4.1785 -7.18034,-9.28436 -4.89147,-10.47731 -0.22959,-35.98507 5.68034,-31.08027 2.37486,1.97096 1.55445,10 -1.0218,10 -0.96644,0 -1.16552,1.56233 -0.79639,6.25 0.66781,8.4807 1.98505,12.34279 5.02544,14.73436 3.33296,2.62171 7.28447,2.55096 12.63141,-0.22614 3.77572,-1.96105 4.54311,-2.9518 6.12783,-7.91146 1.7938,-5.614 1.90485,-6.77432 1.5496,-16.1916 -0.15993,-4.23972 -0.42202,-4.78227 -2.09843,-4.34388 -1.05362,0.27553 -2.16767,0.0932 -2.47568,-0.40516 -0.9066,-1.46691 -6.31037,-1.03846 -8.98217,0.71217 -3.09408,2.02732 -5.45981,0.47362 -5.45981,-3.58575 0,-3.99316 3.17299,-6.30719 9.2655,-6.75722 6.57025,-0.48532 10.70897,1.87118 13.93699,7.93545 3.24736,6.10059 3.28635,20.12035 0.0753,27.09201 -1.92612,4.18195 -2.45785,4.67124 -4.11346,3.78519 -2.49081,-1.33304 -3.25108,-0.44623 -2.13471,2.49004 2.20001,5.78648 -13.79673,11.20663 -20.02966,6.78662 z m 55.26797,-0.36463 c -1.91193,-2.23298 -3.90055,-2.60226 -4.49004,-0.83378 -0.75331,2.25992 -5.78351,-4.67374 -7.72854,-10.65308 -3.20606,-9.85593 -5.22054,-30.2976 -3.4424,-34.93135 0.915,-2.38446 4.3157,-1.91534 5.32309,0.7343 1.16788,3.07176 1.69818,23.55314 0.68624,26.50408 -0.64392,1.87775 -0.39508,2.42492 1.30496,2.86949 1.15533,0.30213 2.37124,1.62767 2.70204,2.94565 0.33079,1.31798 1.73655,3.2892 3.12392,4.38051 6.16402,4.84862 12.1801,0.65231 14.907,-10.39787 1.47954,-5.99549 1.52554,-7.90148 0.39028,-16.17021 -1.40223,-10.2132 -1.08564,-12.44774 1.76358,-12.44774 3.15654,0 4.53114,4.74388 4.97841,17.18099 0.44744,12.44214 -0.753,18.53886 -5.05484,25.67203 -3.86209,6.40399 -11.16291,9.00202 -14.4637,5.14698 z m 25.3987,1.33333 c -1.48434,-1.48433 -0.46041,-5.69811 3.4689,-14.27562 3.78405,-8.26039 4.33656,-8.97732 6.5,-8.43433 2.20484,0.55338 2.36443,0.30991 2.36443,-3.60724 0,-2.66321 0.72004,-5.11607 1.9673,-6.7017 l 1.9673,-2.50102 -3.0074,-6.15671 c -4.96062,-10.1553 -6.074,-12.01627 -9.14474,-15.28497 -5.47701,-5.8301 -1.83199,-12.56777 3.90177,-7.21225 3.40283,3.17837 4.98833,6.47421 5.83701,12.13361 0.6021,4.01504 1.00341,4.67516 2.5448,4.18594 2.3447,-0.74418 2.91271,0.37309 12.43724,24.46391 4.18582,10.58735 7.47246,20.21888 7.30365,21.40339 -0.19018,1.33446 -1.14512,2.2729 -2.5105,2.46713 -1.80175,0.2563 -2.73448,-0.74662 -5.11509,-5.5 -1.60134,-3.19741 -4.19903,-9.30097 -5.77265,-13.56347 -1.57361,-4.2625 -3.17674,-7.75 -3.5625,-7.75 -1.06288,0 -7.49086,10.94928 -11.41824,19.44956 -2.45753,5.319 -4.02138,7.55044 -5.29156,7.55044 -0.99168,0 -2.10306,-0.3 -2.46972,-0.66667 z M 377.58571,597.5231 c -0.98574,-1.84186 -0.53221,-3.52455 2.9976,-11.12175 2.28749,-4.92334 4.75865,-11.81722 5.49147,-15.31973 1.52614,-7.29421 2.10595,-8.50898 4.06127,-8.50898 5.63923,0 2.83898,16.67605 -5.28741,31.48751 -3.0488,5.55687 -5.5134,6.73198 -7.26293,3.46295 z m 451.03825,0.0715 c -1.68894,-3.15581 2.96671,-13.10184 5.78755,-12.36418 1.78437,0.46663 1.93491,0.0984 1.56208,-3.82069 -0.57345,-6.028 2.61453,-18.21601 4.87763,-18.64774 1.09143,-0.20821 2.17692,0.6294 2.91502,2.24936 1.02289,2.24501 0.87142,2.90533 -1.16331,5.0712 -1.9389,2.06386 -2.05273,2.49011 -0.66502,2.49011 2.16635,0 2.11014,1.33784 -0.35946,8.55583 -2.85763,8.35207 -8.15289,17.87357 -10.14876,18.24864 -0.92539,0.17391 -2.18797,-0.62823 -2.80573,-1.78253 z"
     id="path3822"
     inkscape:connector-curvature="0" />
</svg>
