<?xml version="1.0" encoding="UTF-8" standalone="no"?>
<!-- Created with Inkscape (http://www.inkscape.org/) -->

<svg
   xmlns:dc="http://purl.org/dc/elements/1.1/"
   xmlns:cc="http://creativecommons.org/ns#"
   xmlns:rdf="http://www.w3.org/1999/02/22-rdf-syntax-ns#"
   xmlns:svg="http://www.w3.org/2000/svg"
   xmlns="http://www.w3.org/2000/svg"
   xmlns:xlink="http://www.w3.org/1999/xlink"
   xmlns:sodipodi="http://sodipodi.sourceforge.net/DTD/sodipodi-0.dtd"
   xmlns:inkscape="http://www.inkscape.org/namespaces/inkscape"
   id="svg2"
   version="1.1"
   inkscape:version="0.92.1 renderfarm"
   width="2481"
   height="663"
   sodipodi:docname="Pepper-and-Carrot_by-David-Revoy_E03P00_092.svg">
  <sodipodi:namedview pagecolor="#ffffff" bordercolor="#666666" inkscape:pageopacity="0" inkscape:pageshadow="2" inkscape:window-width="1813" inkscape:window-height="955" id="namedview70" showgrid="false" inkscape:zoom="0.4" inkscape:cx="1284.4231" inkscape:cy="2618.6204" inkscape:current-layer="layer1" /><metadata
     id="metadata8">
    <rdf:RDF>
      <cc:Work
         rdf:about="">
        <dc:format>image/svg+xml</dc:format>
        <dc:type
           rdf:resource="http://purl.org/dc/dcmitype/StillImage" />
        <dc:title />
      </cc:Work>
    </rdf:RDF>
  </metadata>
  <defs
     id="defs6" />
  <sodipodi:namedview
     pagecolor="#ffffff"
     bordercolor="#666666"
     borderopacity="1"
     objecttolerance="10"
     gridtolerance="10"
     guidetolerance="10"
     inkscape:pageopacity="0"
     inkscape:pageshadow="2"
     inkscape:window-width="477"
     inkscape:window-height="415"
     id="namedview4"
     showgrid="false"
     inkscape:zoom="0.34845081"
     inkscape:cx="1382.8602"
     inkscape:cy="39.194288"
     inkscape:window-x="44"
     inkscape:window-y="27"
     inkscape:window-maximized="0"
     inkscape:current-layer="layer1" />
  <g
     inkscape:groupmode="layer"
     id="layer2"
     inkscape:label="artwork"
     sodipodi:insensitive="true">
    <image
       sodipodi:absref="/home/deevad/peppercarrot/webcomics/ep03_The-secret-ingredients/lang/el/../gfx_Pepper-and-Carrot_by-David-Revoy_E03P00.png"
       xlink:href="../gfx_Pepper-and-Carrot_by-David-Revoy_E03P00.png"
       y="0"
       x="0"
       id="image10"
       height="663"
       width="2481" />
  </g>
  <g
     inkscape:groupmode="layer"
     id="layer1"
     inkscape:label="txt"
     style="display:inline">
    <rect
       style="color:#000000;fill:#ffffff;fill-opacity:1;fill-rule:nonzero;stroke:none;stroke-width:1.74199997999999989;stroke-linecap:butt;stroke-linejoin:miter;stroke-miterlimit:4;stroke-opacity:1;stroke-dasharray:none;stroke-dashoffset:0;marker:none;visibility:visible;display:inline;overflow:visible;enable-background:accumulate"
       id="rect3006"
       width="2364.7527"
       height="594.05804"
       x="28.698456"
       y="48.853054" />
    <flowRoot
       xml:space="preserve"
       id="flowRoot3063"
       style="font-style:normal;font-variant:normal;font-weight:normal;font-stretch:normal;line-height:0.01%;font-family:Purisa;-inkscape-font-specification:Purisa;text-align:center;letter-spacing:0px;word-spacing:0px;writing-mode:lr-tb;text-anchor:middle;display:inline;opacity:0.98000004;fill:#301b0b;fill-opacity:1;stroke:none"
       transform="matrix(0.91311142,0,0,0.91311142,-83.539024,176.66327)"><flowRegion
         id="flowRegion3065"><rect
           id="rect3067"
           width="2718.8806"
           height="147.16573"
           x="90.567055"
           y="400.24826"
           style="font-style:normal;font-variant:normal;font-weight:normal;font-stretch:normal;font-size:90px;line-height:125%;font-family:Purisa;-inkscape-font-specification:Purisa;text-align:center;writing-mode:lr-tb;text-anchor:middle;fill:#301b0b;fill-opacity:1" /></flowRegion><flowPara
         id="flowPara3069"
         style="font-style:normal;font-variant:normal;font-weight:normal;font-stretch:expanded;font-size:110px;line-height:125%;font-family:Pecita;-inkscape-font-specification:'Pecita Expanded';text-align:center;writing-mode:lr-tb;text-anchor:middle;fill:#301b0b;fill-opacity:1">Επεισόδιο 3 : Τα μυστικά συστατικά</flowPara></flowRoot>    <path
       style="opacity:0.98000004;fill:#341f10;fill-opacity:1;display:inline"
       d="m 591.32581,551.06674 c -2.4324,-6.33838 -1.7647,-77.30067 1.0742,-114.20417 4.8228,-62.68599 13.6957,-102.85506 22.7204,-102.85506 5.3101,0 5.9307,-1.89272 2.4331,-7.42159 -3.206,-5.06822 3.9864,-16.77651 14.9021,-24.25908 6.0801,-4.16776 12.2436,-5.9953 20.2195,-5.9953 13.338,0 17.5014,3.18029 17.5014,13.36855 0,6.45953 0.4848,6.9381 4.0393,3.98799 3.4344,-2.85013 4.571,-2.62562 7.5868,1.49866 9.3803,12.82828 12.2218,53.16785 5.1799,73.53892 -4.8788,14.11367 -14.0197,27.23753 -21.2736,30.54264 -16.0193,7.29889 -36.6354,-0.14718 -46.4464,-16.7756 l -5.5064,-9.33286 -3.3839,17.51875 c -1.9413,10.05093 -3.1992,31.08584 -2.9506,49.3456 0.3164,23.24267 -0.6872,35.68022 -3.7203,46.1137 -3.2027,11.01735 -3.544,16.03416 -1.4915,21.92223 1.4638,4.19948 2.6618,10.63155 2.6618,14.29345 0,10.85751 -10.2042,17.42122 -13.5458,8.71317 z m 72.4209,-156.61142 c 5.6771,-6.27308 11.2026,-21.85236 11.343,-31.98154 0.061,-4.37458 1.5231,-8.43071 3.2499,-9.01357 3.9942,-1.3482 -2.0071,-14.73636 -11.848,-26.43165 -5.2526,-6.24226 -8.7938,-8.09144 -15.4961,-8.09144 -11.0637,0 -19.039,8.2642 -26.0444,26.98836 -4.4441,11.87746 -4.7575,15.14913 -2.1988,22.945 3.7046,11.28656 13.4217,26.98774 17.784,28.73605 7.5865,3.04043 19.0109,1.48935 23.2104,-3.15121 z m 779.95999,156.71706 c -2.5024,-3.01527 -2.8312,-15.24889 -1.4927,-55.52273 3.7553,-112.98947 14.5343,-166.53155 38.1307,-189.40217 6.9437,-6.73006 10.9645,-8.4382 22.0199,-9.35501 l 13.5252,-1.12162 1.6145,8.07351 c 0.8882,4.44043 0.9879,9.08769 0.221,10.32728 -0.766,1.23956 0.3133,2.25375 2.3982,2.25375 2.085,0 4.9768,-1.97798 6.4258,-4.39553 2.4725,-4.12509 2.8734,-4.08646 6.5147,0.62794 2.134,2.7629 5.675,11.19483 7.8687,18.7376 7.3709,25.34417 -0.4709,72.94053 -12.0178,72.94053 -3.3748,0 -4.7507,1.79295 -4.7507,6.19096 0,7.48339 -6.4486,11.39116 -18.7975,11.39116 -11.8083,0 -21.6554,-5.25361 -30.9243,-16.49813 -4.1109,-4.98726 -8.1061,-8.0454 -8.8784,-6.79589 -0.7721,1.24954 -2.7368,19.69531 -4.3656,40.99062 -2.2478,29.38705 -3.8913,39.39846 -6.8186,41.53902 -3.4527,2.52462 -3.4201,3.44424 0.3112,8.77132 3.1978,4.56552 4.1681,11.70702 4.1681,30.67456 0,13.59796 -1.1699,26.9098 -2.6001,29.58188 -3.1316,5.85148 -8.188,6.25065 -12.5531,0.99095 z m 71.8367,-156.1558 c 7.2773,-7.27723 11.4472,-20.70692 11.4472,-36.86627 0,-25.89999 -7.5997,-39.21319 -22.3843,-39.21319 -11.3052,0 -22.8741,11.84736 -28.367,29.04965 -3.4938,10.94255 -3.5415,13.7201 -0.3963,23.15546 5.0092,15.02691 17.941,28.17025 27.7175,28.17025 4.2277,0 9.6201,-1.93316 11.9829,-4.2959 z m 686.2216,148.09247 c -7.6012,-17.08472 -8.3667,-42.92701 -2.9372,-99.17209 6.1854,-64.0762 6.364,-104.57068 0.4777,-108.30226 -3.3797,-2.1426 -5.6034,-1.47429 -10.5472,3.17016 -3.9279,3.69003 -7.8377,5.28133 -10.4827,4.26635 -3.5418,-1.35914 -3.9792,-0.42172 -2.7255,5.84578 1.0112,5.05593 -0.4342,11.75683 -4.4799,20.76689 -3.2852,7.31632 -9.5684,22.06204 -13.963,32.76826 -5.8998,14.3735 -9.2042,19.46591 -12.6309,19.46591 -5.2687,0 -6.1082,-1.06159 -8.3887,-10.60795 -1.2607,-5.27674 -0.8239,-6.52941 1.9104,-5.48016 6.2675,2.40508 7.3166,-4.26592 1.8367,-11.678 -3.1851,-4.30801 -5.3368,-11.01461 -5.3627,-16.71539 -0.025,-5.23637 -1.7196,-17.43221 -3.7676,-27.10187 -2.0483,-9.66963 -3.7241,-20.8217 -3.7241,-24.78232 0,-5.89435 -0.8856,-6.96952 -4.8808,-5.92479 -6.7629,1.76856 -13.2658,-6.13932 -12.2615,-14.91079 0.5763,-5.03561 2.3891,-7.35372 6.1725,-7.89333 11.3578,-1.61997 28.8036,28.98522 32.5284,57.06563 0.932,7.024 2.3963,12.74053 3.2542,12.7034 0.8583,-0.0371 4.8502,-7.4311 8.8709,-16.43098 4.0211,-8.99991 11.7464,-21.40261 17.1677,-27.56152 12.0942,-13.73977 23.4167,-15.33661 33.2802,-4.6937 12.4771,13.46306 13.1901,30.92653 4.8213,118.09075 -5.1664,53.81068 -5.1169,83.38581 0.1633,97.21068 3.3534,8.78068 3.6708,12.39081 1.454,16.53287 -4.5641,8.52797 -10.0695,6.21507 -15.7853,-6.63153 z M 846.22101,426.70475 c -2.5997,-4.27455 -6.1405,-13.03422 -7.8685,-19.4659 -1.7283,-6.4317 -3.918,-12.57973 -4.866,-13.66236 -0.9482,-1.08263 -4.8511,2.97947 -8.6737,9.02687 -17.6212,27.87705 -47.3819,25.28379 -57.7103,-5.02868 -5.2433,-15.38861 -5.3812,-46.72866 -0.2236,-51.00852 2.0722,-1.71976 3.7676,-6.98944 3.7676,-11.7104 0,-9.7805 8.45,-28.02214 13.9599,-30.13655 2.0275,-0.77795 5.3392,-0.0427 7.3591,1.63383 3.0127,2.50021 4.2084,1.87328 6.6507,-3.48658 5.8359,-12.80854 20.9008,-6.437 30.7902,13.02253 l 5.9386,11.68467 3.228,-14.99312 c 3.0997,-14.39629 14.3944,-31.04826 18.366,-27.07691 5.0049,5.00492 -1.5731,40.30539 -8.4235,45.20486 -8.1323,5.81621 -2.9848,47.98484 9.8597,80.77254 7.7289,19.72944 -2.0013,31.91772 -12.1535,15.22372 z m -38.4823,-33.05105 c 2.9239,-3.11234 8.302,-12.18085 11.9516,-20.15225 l 6.6353,-14.49344 -5.2033,-15.40788 c -8.7517,-25.91494 -17.7793,-31.10716 -28.688,-16.49988 -8.4892,11.36726 -12.6125,25.60297 -12.6508,43.6774 -0.04,18.9671 5.1904,28.53483 15.5998,28.53483 4.0552,0 9.2928,-2.39884 12.3554,-5.65878 z m 606.16329,31.27237 c -2.769,-5.42745 -6.3532,-15.10625 -7.9655,-21.50845 -1.612,-6.40217 -3.6701,-11.64031 -4.5734,-11.64031 -0.9032,0 -3.8441,4.08874 -6.5355,9.08608 -11.1357,20.67785 -34.7922,27.95106 -47.989,14.75429 -3.4653,-3.46522 -5.5543,-7.50776 -4.6423,-8.98344 0.9121,-1.47569 -0.6277,-4.81285 -3.422,-7.41593 -3.5777,-3.33317 -5.5885,-9.48254 -6.7999,-20.79337 -3.0582,-28.55512 7.4243,-61.5615 23.9739,-75.4869 9.5677,-8.05079 10.9719,-8.14342 14.4786,-0.9551 l 2.7568,5.65139 1.6877,-5.65139 c 0.9281,-3.10827 3.134,-5.6514 4.902,-5.6514 4.0089,0 17.7925,15.45887 20.0086,22.44053 2.85,8.98014 5.5748,5.71321 8.7654,-10.5098 3.6209,-18.41006 6.4462,-24.48938 11.3807,-24.48938 9.9025,0 10.5374,23.70396 0.7324,27.33115 -4.561,1.68726 -4.6844,2.26646 -1.219,5.73179 3.4653,3.46531 3.3174,5.88142 -1.4657,23.90999 l -5.3209,20.05517 6.4571,23.65129 c 3.5516,13.00817 7.9899,27.35341 9.8628,31.87827 2.5115,6.06672 2.6894,9.36444 0.678,12.55865 -4.9346,7.8357 -10.4381,6.45095 -15.7508,-3.96313 z m -35.7542,-34.40463 c 4.245,-4.83508 8.8078,-8.79106 10.139,-8.79106 2.3736,0 3.1413,-6.10614 3.3374,-26.55627 0.1431,-14.90891 -10.2991,-34.75502 -18.8172,-35.76265 -5.3052,-0.62758 -7.8187,1.10399 -12.7606,8.79106 -9.1589,14.24703 -12.3733,27.0686 -11.2414,44.84307 1.688,26.51206 14.6373,34.22429 29.3428,17.47585 z m 857.4648,41.19053 c -1.7268,-1.79489 -3.1396,-5.98559 -3.1396,-9.3127 0,-5.10574 0.9262,-5.81679 5.9384,-4.55882 3.9633,0.99475 7.8504,-0.16778 11.6871,-3.49529 3.1618,-2.74216 8.4377,-4.98576 11.7243,-4.98576 8.6969,0 23.3965,-6.71988 23.3965,-10.69558 0,-1.87915 -6.2349,-8.79947 -13.8552,-15.37844 -7.6204,-6.57899 -16.0975,-16.3569 -18.8381,-21.72871 -9.8461,-19.30034 -4.404,-50.77334 10.5969,-61.28018 5.273,-3.69352 5.9229,-3.52014 11.1427,2.97369 4.7994,5.97051 5.7677,6.32218 7.2152,2.62064 0.9196,-2.35141 0.9399,-5.45968 0.045,-6.90726 -4.0564,-6.56353 10.0903,-1.76072 17.9426,6.09142 9.379,9.37901 10.4128,17.57237 2.8178,22.33263 -3.3483,2.09858 -5.5758,1.46954 -10.2089,-2.88314 -15.4054,-14.47269 -34.5988,2.3982 -26.0379,22.88726 2.0061,4.80124 7.1421,11.31329 11.4136,14.47125 5.4778,4.04993 7.766,7.82278 7.766,12.80457 0,3.88456 1.1303,7.06283 2.5117,7.06283 1.3815,0 2.5117,-1.83381 2.5117,-4.07515 0,-7.65221 6.824,1.10689 9.671,12.41362 4.6404,18.42879 -1.5213,31.5597 -17.8817,38.10581 -14.2255,5.69187 -42.2891,7.8304 -46.4194,3.53731 z m -1172.6888,-14.40154 -4.3127,-12.14281 -7.3535,8.37521 c -18.9925,21.63135 -39.772,-1.61027 -32.0982,-35.90122 5.9305,-26.50009 24.8038,-37.70398 35.0715,-20.81986 5.1082,8.3995 6.2751,7.80162 8.9295,-4.57539 1.9431,-9.06135 5.5688,-12.52092 9.2568,-8.833 1.5755,1.57571 0.6253,9.53485 -2.6871,22.50932 -4.8157,18.86129 -4.8884,20.88976 -1.2044,33.63797 6.5149,22.54405 7.1665,29.8926 2.6499,29.8926 -2.4397,0 -5.5806,-4.62205 -8.2518,-12.14282 z m -14.0099,-19.77912 c 5.2549,-9.54496 5.5242,-11.56125 2.7709,-20.75157 -3.4607,-11.55059 -7.4649,-15.87092 -12.8089,-13.82024 -5.3361,2.0477 -12.0337,17.52675 -12.0337,27.81229 0,20.98967 12.1827,24.72071 22.0717,6.75952 z m -880.95739,19.59861 c -4.0949,-7.65107 -3.362,-30.25581 1.0353,-31.94327 3.1801,-1.22025 3.1372,-2.2276 -0.3187,-7.50186 -3.4549,-5.27303 -3.7668,-12.58865 -2.3199,-54.39765 3.6539,-105.5748 6.6748,-151.12371 10.4017,-156.83904 5.3841,-8.25684 42.7533,-16.71909 87.8238,-19.88764 19.8274,-1.39391 23.1133,-1.03701 26.3491,2.86197 4.1409,4.98956 5.7935,57.37328 6.0918,193.10117 0.1506,68.8768 -0.1985,75.30601 -4.2306,77.85076 -7.2257,4.5599 -13.0651,-1.07899 -13.9756,-13.49582 -0.4339,-5.91816 0.361,-11.91016 1.7663,-13.31554 1.7326,-1.73255 1.715,-4.12527 -0.056,-7.43144 -3.1,-5.79205 -6.2706,-54.21965 -3.3725,-51.5121 1.0994,1.0273 3.5343,-0.32388 5.4106,-3.00262 2.9499,-4.21185 2.7268,-5.99276 -1.6493,-13.17061 -4.5656,-7.48835 -5.0614,-12.62305 -5.0699,-52.49753 0,-24.30853 -0.7526,-54.6655 -1.6605,-67.45994 l -1.6512,-23.26257 -11.876,1.57541 c -9.3289,1.23751 -12.1901,0.75694 -13.3405,-2.24059 -2.0027,-5.21905 -8.4513,-4.80477 -11.4152,0.73338 -1.6195,3.02593 -7.6461,5.51857 -17.9975,7.44357 -8.5594,1.5918 -16.1441,3.47572 -16.855,4.18646 -0.7108,0.71076 -1.8376,6.96851 -2.5042,13.90613 -0.6666,6.93765 -2.1224,12.61388 -3.2351,12.61388 -4.2506,0 -4.9657,10.11711 -1.2264,17.34835 3.3034,6.38793 3.7068,15.79945 2.6162,61.03501 -2.2449,93.11804 -3.7143,123.25189 -6.1524,126.18974 -1.3042,1.57129 -6.3268,3.12329 -11.1617,3.44891 -6.5511,0.44118 -9.4627,-0.66365 -11.4284,-4.33652 z m 157.9695,-0.86326 c -8.0372,-8.47042 -9.7653,-14.89454 -11.3499,-42.19457 -1.3193,-22.72617 1.8018,-64.17522 5.5725,-74.0009 0.8936,-2.32903 3.768,-3.68688 6.8685,-3.24451 4.6211,0.65935 5.2654,2.26704 4.8343,12.06351 -3.1035,70.54417 -3.0838,73.44721 0.5529,82.15128 3.6389,8.70915 3.8678,8.81803 15.0292,7.14429 10.2915,-1.5433 11.5409,-1.16539 13.5841,4.10907 2.9358,7.57879 -2.3374,16.13186 -9.314,15.10751 -2.8023,-0.41148 -5.8272,0.43623 -6.7218,1.88379 -2.8144,4.55372 -13.4719,2.86496 -19.0558,-3.01947 z m 58.8787,-0.89094 c -0.9032,-3.59825 -0.3593,-22.69798 1.2079,-42.44386 3.8262,-48.19601 3.7832,-49.86674 -1.2358,-47.94081 -5.9043,2.26567 -10.9845,-3.0246 -10.9845,-11.43878 0,-5.41102 1.6839,-8.04866 6.5547,-10.26793 5.653,-2.57578 7.0546,-2.30933 10.1918,1.93766 3.3114,4.48268 3.8492,4.55099 5.9983,0.76213 1.5163,-2.67319 4.2518,-3.66744 7.6472,-2.77948 3.1082,0.81281 6.1777,-0.0596 7.4494,-2.11732 2.8462,-4.60523 62.6278,-6.89473 62.6278,-2.39851 0,1.58753 1.9781,2.55429 4.3956,2.14837 5.9126,-0.99276 7.1805,8.67693 1.8381,14.01924 -2.2446,2.24439 -6.7242,4.08069 -9.955,4.08069 -5.5668,0 -5.9696,1.1402 -7.6879,21.76895 -1.18,14.16537 -0.6933,28.86035 1.3932,42.07148 4.933,31.23234 4.697,37.74719 -1.3985,38.61962 -3.7772,0.54063 -6.4024,-1.78381 -9.9287,-8.79106 -4.7848,-9.50876 -5.8165,-21.97795 -6.1577,-74.41738 l -0.1281,-19.68022 -19.4659,1.77563 c -10.7063,0.97659 -19.6541,1.92072 -19.8841,2.09809 -1.0258,0.79085 -6.139,66.86403 -6.0161,77.74041 0.075,6.66211 -1.0294,14.29148 -2.4542,16.95418 -3.8306,7.15758 -12.0342,6.16132 -14.0075,-1.7011 z m 126.4504,1.52108 c -3.8315,-3.01373 -5.9448,-6.77949 -5.2857,-9.419 0.6037,-2.41873 -1.7626,-7.68179 -5.258,-11.69564 -3.9558,-4.54211 -6.3144,-10.23294 -6.2457,-15.07038 0.1406,-9.9774 5.7069,-25.57236 11.3522,-31.81037 3.6501,-4.03336 3.9063,-5.96186 1.4947,-11.25471 -4.2217,-9.26535 -3.5693,-32.88783 1.1849,-42.90628 5.0089,-10.55576 13.608,-17.34737 16.3491,-12.91248 1.3688,2.21507 3.0979,1.87602 6.6012,-1.29458 11.6352,-10.5295 32.7294,2.66525 25.5894,16.00641 -2.4558,4.58883 -4.2776,5.0284 -14.8268,3.57753 -11.0344,-1.51761 -12.4693,-1.09217 -17.3825,5.15397 -2.9452,3.74447 -5.3378,10.32909 -5.3167,14.63251 0.038,7.82716 2.8766,14.72203 5.8937,14.31825 6.2522,-0.83674 9.3155,0.44708 11.7006,4.9038 4.0497,7.56651 0.5606,14.97642 -8.9159,18.93594 -10.4154,4.35185 -16.2521,12.40107 -16.2521,22.41275 0,20.19981 18.1922,24.85493 44.0262,11.26559 16.0843,-8.46092 21.2788,-7.22098 21.2788,5.07932 0,7.23913 -8.5485,15.0517 -16.4697,15.0517 -2.2482,0 -6.9615,2.26055 -10.4738,5.02345 -8.8301,6.9457 -30.2152,6.9469 -39.0439,0.002 z m 212.2331,-0.0126 c -4.5241,-2.75835 -9.4064,-8.1209 -10.8496,-11.91673 -1.4433,-3.79583 -4.4136,-8.87897 -6.6009,-11.29591 -3.3948,-3.75129 -3.7574,-9.63336 -2.4775,-40.19228 1.6505,-39.40373 5.5845,-55.89191 13.336,-55.89191 3.9018,0 4.9094,2.1497 5.5311,11.79968 0.4727,7.3373 -0.7834,14.78461 -3.3215,19.6926 -2.3661,4.57575 -3.2982,9.645 -2.2176,12.06178 1.0253,2.29286 1.9569,13.77619 2.0705,25.51854 0.1229,12.83365 1.5456,23.70438 3.5641,27.25282 2.9992,5.27232 4.5445,5.72522 14.4605,4.23819 10.0507,-1.50715 11.3067,-1.11465 13.2614,4.14381 2.4949,6.71308 1.0085,12.06042 -4.5605,16.40369 -5.7175,4.45912 -12.8647,3.87487 -22.196,-1.81448 z m 211.6088,-29.50246 c 0.9869,-18.99497 2.8657,-35.65712 4.1751,-37.02702 4.6604,-4.87613 7.4623,4.80129 5.9935,20.70077 -0.7975,8.63407 -0.9515,15.69832 -0.3417,15.69832 0.6096,0 4.639,-4.80368 8.9539,-10.67486 10.2154,-13.89942 26.9005,-27.0011 34.386,-27.0011 8.0584,0 7.7696,7.44902 -0.592,15.26049 -8.9045,8.31876 -13.5759,18.01559 -13.5759,28.18077 0,15.52658 14.7962,21.85482 27.62899,11.81678 7.6309,-5.96892 11.5351,-6.29045 13.5217,-1.11349 1.7534,4.56977 -9.0879,15.60583 -17.37389,17.68541 -19.069,4.78604 -31.1642,-4.84874 -33.2427,-26.48021 l -1.2295,-12.79429 -5.405,7.32638 c -2.9729,4.02949 -8.1066,13.09353 -11.408,20.14231 -3.3014,7.0488 -7.6412,12.81601 -9.6439,12.81601 -3.0909,0 -3.3699,-5.2195 -1.8466,-34.53627 z m 148.20269,29.4502 c -8.7117,-9.62606 -7.5595,-66.49823 1.3471,-66.49823 3.0863,0 3.7329,5.0029 3.7329,28.88491 l 0,28.88488 7.5352,0.091 c 6.309,0.0761 7.5352,1.0979 7.5352,6.27933 0,5.06084 -1.3966,6.32514 -7.6636,6.93831 -5.2923,0.51781 -9.156,-0.89938 -12.4868,-4.58002 z m 107.2441,1.84752 c -5.5833,-6.72769 -8.1771,-27.22091 -9.6829,-76.50887 l -1.5541,-50.86254 6.9974,0 6.9972,0 -6.7269,-6.72705 -6.7271,-6.72704 1.6954,-37.85617 c 0.9325,-20.8209 2.7011,-39.80815 3.9304,-42.19386 1.4249,-2.7658 1.1267,-6.1118 -0.8227,-9.23345 -3.9517,-6.32733 -0.1201,-22.518 6.2397,-26.37051 3.7143,-2.24988 5.5017,-1.60135 9.7048,3.52155 4.8358,5.89393 5.0423,8.28341 3.3659,38.93182 -0.9823,17.95888 -2.944,34.06432 -4.359,35.7899 -1.762,2.14828 -1.7136,5.31573 0.1532,10.04692 1.5,3.80023 3.0502,10.57188 3.4453,15.04808 0.7068,8.01044 1.2398,7.57377 33.8606,-27.74096 18.2282,-19.73371 39.9292,-44.48692 48.2243,-55.00708 17.6644,-22.40285 18.6631,-23.17608 25.3297,-19.6082 3.7051,1.98276 5.0675,5.23585 5.0462,12.04687 -0.026,7.60599 -2.8453,12.88249 -15.2634,28.54689 -13.2235,16.68081 -16.7379,19.59504 -26.6338,22.08693 -11.1672,2.81186 -11.3081,2.97274 -6.8892,7.8557 4.3855,4.84592 4.2312,5.28098 -5.527,15.58902 -49.6817,52.48083 -61.5372,67.97452 -59.3531,77.5672 0.572,2.51228 9.093,7.45264 21.4354,12.42781 40.3359,16.25941 82.2135,51.30461 82.2135,68.80012 0,8.54089 -3.8279,13.81547 -10.0263,13.81547 -2.199,0 -9.0372,-5.18777 -15.196,-11.52839 -6.1588,-6.34062 -16.0015,-14.87198 -21.8726,-18.95861 -5.8713,-4.08664 -10.6749,-9.42051 -10.6749,-11.85298 0,-2.43252 -1.5523,-6.54548 -3.4493,-9.13995 -3.3216,-4.54272 -3.516,-4.5073 -5.2503,0.95745 -0.9906,3.12105 -3.1118,5.12762 -4.7138,4.459 -1.6019,-0.6686 -8.8734,-3.73781 -16.1584,-6.82042 -7.2853,-3.08265 -13.8761,-4.97447 -14.6467,-4.2041 -0.7703,0.77041 0,12.17567 1.7321,25.345 2.5426,19.43426 2.523,24.6787 -0.1031,27.84364 -3.9338,4.73996 -11.089,5.06073 -14.7409,0.66081 z m 386.2956,-2.41284 c -9.8954,-6.69741 -19.1022,-23.81849 -21.2729,-39.55973 -3.0289,-21.96403 6.3244,-59.04233 15.6804,-62.16099 1.6943,-0.56479 4.356,1.7726 5.915,5.19421 2.2288,4.89147 1.9408,8.91215 -1.3475,18.8123 -4.9298,14.84235 -4.7706,54.08613 0.211,52.17422 1.6085,-0.61727 4.9013,1.06201 7.3176,3.73177 8.5425,9.43943 34.2379,2.96082 41.4105,-10.44082 1.4122,-2.63943 4.9099,-4.79896 7.772,-4.79896 3.9944,0 4.7688,-1.02151 3.3323,-4.39553 -1.0293,-2.41754 -1.6452,-12.41994 -1.3686,-22.22751 0.4515,-16.01369 -0.1759,-18.63885 -6.1558,-25.74524 -7.5174,-8.93381 -18.832,-10.60599 -28.0545,-4.14619 -6.5566,4.5924 -12.3426,2.75942 -14.2443,-4.51245 -1.7659,-6.75253 4.1608,-16.13099 12.6335,-19.99139 5.4057,-2.46303 6.9387,-2.21854 9.691,1.54551 3.0688,4.19666 3.4175,4.20733 5.6748,0.17356 1.8037,-3.22297 4.1536,-3.85899 9.3966,-2.54312 15.4924,3.88836 28.8317,28.47813 28.8317,53.14877 0,26.7047 -16.8811,58.18517 -36.0888,67.29984 -12.5107,5.93677 -29.2403,5.27403 -39.335,-1.55825 z m 155.7991,0.63639 c -4.835,-2.63596 -10.7099,-5.35348 -13.0551,-6.03893 -8.7771,-2.56525 -13.3221,-16.4353 -13.2505,-40.43652 0.058,-19.57474 0.9846,-24.40124 6.9073,-35.99852 3.7618,-7.36614 6.8397,-13.86524 6.8397,-14.44246 0,-0.57721 -6.2165,-1.0495 -13.8146,-1.0495 -10.6049,0 -13.8144,-0.87532 -13.8144,-3.76759 0,-4.5417 -2.9308,-4.85571 -7.0329,-0.75352 -4.4304,4.43059 -8.6076,-0.84994 -7.606,-9.61536 l 0.8243,-7.21324 27.629,-0.70413 c 26.427,-0.67353 27.7383,-0.46202 30.1409,4.86094 3.594,7.963 7.3624,8.22944 11.3376,0.80162 2.7406,-5.12067 5.0474,-6.30391 11.13,-5.70895 6.3224,0.6184 7.8155,1.99322 8.4826,7.80966 0.9942,8.67065 -2.5368,13.25458 -11.6074,15.06868 -26.6791,5.33587 -44.8475,55.57689 -26.6708,73.75358 5.8696,5.86954 7.7559,6.33743 19.8288,4.91849 10.8131,-1.27088 13.6302,-0.81679 14.863,2.39569 4.2724,11.13329 -2.4462,22.19949 -9.7817,16.11159 -3.0857,-2.56088 -3.7677,-2.38925 -3.7677,0.94833 0,5.355 -6.6917,4.9973 -17.5821,-0.93986 z m 70.3285,0.90739 c -8.7052,-6.17313 -12.0477,-10.49527 -18.0349,-23.31978 -12.2861,-26.31618 -0.5768,-90.3848 14.2673,-78.06527 5.9651,4.95053 3.9045,25.1173 -2.5664,25.1173 -2.4273,0 -2.9275,3.92416 -2.0004,15.69832 1.6774,21.30124 4.9861,31.00177 12.6227,37.00874 8.3713,6.58501 18.2964,6.4073 31.7266,-0.568 9.4836,-4.92562 11.4111,-7.41413 15.3915,-19.87145 4.5055,-14.10086 4.7846,-17.01528 3.8922,-40.66894 -0.4017,-10.64904 -1.0601,-12.01178 -5.2707,-10.91065 -2.6463,0.69205 -5.4447,0.23408 -6.2182,-1.01766 -2.2772,-3.68448 -15.8501,-2.60833 -22.5609,1.78878 -7.7716,5.09209 -13.7136,1.1896 -13.7136,-9.00643 0,-10.02975 7.9698,-15.84197 23.2724,-16.97233 16.5029,-1.21899 26.8981,4.6999 35.006,19.93172 8.1566,15.32304 8.2546,50.5369 0.1884,68.04783 -4.8379,10.50393 -6.1734,11.73289 -10.3319,9.50737 -6.2562,-3.34823 -8.1657,-1.12081 -5.3619,6.25429 5.5258,14.53409 -34.6535,28.14804 -50.3089,17.04616 z m 138.8183,-0.91586 c -4.8022,-5.60864 -9.7973,-6.53616 -11.2779,-2.09422 -1.8921,5.67631 -14.5266,-11.73917 -19.4119,-26.75764 -8.0528,-24.75545 -13.1125,-76.09941 -8.6464,-87.73815 2.2983,-5.98912 10.8399,-4.81081 13.3702,1.84437 2.9334,7.71543 4.2654,59.15914 1.7236,66.57111 -1.6174,4.7164 -0.9921,6.09074 3.2778,7.20738 2.9018,0.75888 5.9558,4.08827 6.7867,7.39869 0.8308,3.3104 4.3618,8.26158 7.8466,11.00266 15.4823,12.17839 30.5932,1.63843 37.4424,-26.11666 3.7161,-15.05905 3.8317,-19.84638 0.9801,-40.6152 -3.5219,-25.65281 -2.7268,-31.26538 4.4296,-31.26538 7.9285,0 11.3812,11.91535 12.5044,43.15402 1.124,31.25131 -1.8913,46.56462 -12.6963,64.4812 -9.7005,16.0851 -28.0382,22.61066 -36.3289,12.92782 z m 63.7947,3.34897 c -3.7284,-3.72823 -1.1564,-14.31211 8.713,-35.85648 9.5044,-20.74787 10.8921,-22.54861 16.3263,-21.18477 5.5378,1.38995 5.9387,0.77842 5.9387,-9.06041 0,-6.68927 1.8087,-12.85019 4.9413,-16.83287 l 4.9414,-6.28188 -7.5539,-15.464 c -12.4597,-25.50737 -15.2562,-30.18163 -22.9689,-38.39173 -13.7569,-14.64364 -4.6015,-31.56685 9.7999,-18.11522 8.5472,7.9832 12.5296,16.26146 14.6613,30.47636 1.5122,10.08469 2.5202,11.74274 6.3918,10.51395 5.8892,-1.86918 7.3159,0.93709 31.2389,61.44675 10.5136,26.59257 18.7689,50.78435 18.3447,53.75952 -0.4775,3.3518 -2.8762,5.70891 -6.3057,6.19676 -4.5254,0.64377 -6.8681,-1.8753 -12.8475,-13.81451 -4.0222,-8.03103 -10.547,-23.36151 -14.4995,-34.06776 -3.9525,-10.70625 -7.979,-19.46591 -8.948,-19.46591 -2.6698,0 -18.8151,27.50165 -28.6795,48.85202 -6.1728,13.3599 -10.1006,18.96468 -13.2911,18.96468 -2.4909,0 -5.2824,-0.75352 -6.2032,-1.6745 z M 803.23171,266.06635 c -2.4758,-4.62626 -1.3368,-8.85273 7.5292,-27.93485 5.7455,-12.36609 11.9525,-29.68167 13.7932,-38.47903 3.8331,-18.32109 5.2894,-21.37226 10.2005,-21.37226 14.1644,0 7.1309,41.88574 -13.2805,79.08814 -7.6577,13.95737 -13.8481,16.90892 -18.2424,8.698 z m 1132.88659,0.17958 c -4.2422,-7.92653 7.4516,-32.90829 14.5367,-31.05549 4.4819,1.17206 4.86,0.24716 3.9235,-9.59653 -1.4404,-15.14071 6.567,-45.75371 12.2513,-46.8381 2.7414,-0.52298 5.4678,1.58087 7.3218,5.64978 2.5692,5.63886 2.1888,7.29741 -2.922,12.73749 -4.87,5.18385 -5.1559,6.25449 -1.6703,6.25449 5.4414,0 5.3,3.36028 -0.903,21.48994 -7.1775,20.97815 -20.4776,44.89358 -25.4907,45.83566 -2.3244,0.43682 -5.4958,-1.57795 -7.0473,-4.47724 z"
       id="path3822"
       inkscape:connector-curvature="0" />
  </g>
</svg>
