<?xml version="1.0" encoding="UTF-8" standalone="no"?>
<!-- Created with Inkscape (http://www.inkscape.org/) -->

<svg
   xmlns:dc="http://purl.org/dc/elements/1.1/"
   xmlns:cc="http://creativecommons.org/ns#"
   xmlns:rdf="http://www.w3.org/1999/02/22-rdf-syntax-ns#"
   xmlns:svg="http://www.w3.org/2000/svg"
   xmlns="http://www.w3.org/2000/svg"
   xmlns:xlink="http://www.w3.org/1999/xlink"
   xmlns:sodipodi="http://sodipodi.sourceforge.net/DTD/sodipodi-0.dtd"
   xmlns:inkscape="http://www.inkscape.org/namespaces/inkscape"
   id="svg2"
   version="1.1"
   inkscape:version="0.48.4 r9939"
   width="2481"
   height="3503"
   sodipodi:docname="Pepper-and-Carrot_by-David-Revoy_E03P04.svg">
  <metadata
     id="metadata8">
    <rdf:RDF>
      <cc:Work
         rdf:about="">
        <dc:format>image/svg+xml</dc:format>
        <dc:type
           rdf:resource="http://purl.org/dc/dcmitype/StillImage" />
        <dc:title />
      </cc:Work>
    </rdf:RDF>
  </metadata>
  <defs
     id="defs6" />
  <sodipodi:namedview
     pagecolor="#ffffff"
     bordercolor="#666666"
     borderopacity="1"
     objecttolerance="10"
     gridtolerance="10"
     guidetolerance="10"
     inkscape:pageopacity="0"
     inkscape:pageshadow="2"
     inkscape:window-width="1920"
     inkscape:window-height="1056"
     id="namedview4"
     showgrid="false"
     inkscape:zoom="0.50975437"
     inkscape:cx="1396.4214"
     inkscape:cy="1642.493"
     inkscape:window-x="0"
     inkscape:window-y="24"
     inkscape:window-maximized="1"
     inkscape:current-layer="layer1" />
  <g
     inkscape:groupmode="layer"
     id="layer2"
     inkscape:label="artwork"
     sodipodi:insensitive="true"
     style="display:inline">
    <image
       sodipodi:absref="/home/dimitrisax/Επιφάνεια εργασίας/pepper&amp;carrot/peppercarrot_ep03_translation-master/el/../gfx_Pepper-and-Carrot_by-David-Revoy_E03P04.png"
       xlink:href="../gfx_Pepper-and-Carrot_by-David-Revoy_E03P04.png"
       y="0"
       x="0"
       id="image10"
       height="3503"
       width="2481" />
  </g>
  <g
     inkscape:groupmode="layer"
     id="layer3"
     inkscape:label="speechbubbles">
    <path
       style="fill:#ffffff;stroke:none"
       d="m 224.19782,1380.2353 c 1.37932,-33.1037 29.59695,-40.0081 54.4247,-42.7668 24.82775,-2.7586 100.69031,8.276 92.4144,48.2762 -8.27592,40.0003 -53.74673,43.4447 -84.09176,39.3068 -30.34503,-4.138 -62.10052,-15.8662 -62.74734,-44.8162 z"
       id="path3938"
       inkscape:connector-curvature="0"
       sodipodi:nodetypes="csssc" />
    <path
       style="color:#000000;fill:#ffffff;fill-opacity:1;fill-rule:nonzero;stroke:none;stroke-width:1px;marker:none;visibility:visible;display:inline;overflow:visible;enable-background:accumulate"
       d="m 368.94185,1386.0419 c 24.68756,9.5472 45.26052,39.3825 48.00359,45.9462 -12.34378,-7.1604 -50.74665,-26.8516 -68.57656,-29.8351 -15.13337,-2.5324 20.57297,-16.1111 20.57297,-16.1111 z"
       id="path3940"
       inkscape:connector-curvature="0"
       sodipodi:nodetypes="ccsc" />
    <path
       style="fill:#ffffff;stroke:none;stroke-width:1px;stroke-linecap:butt;stroke-linejoin:miter;stroke-opacity:1;color:#000000;fill-opacity:1;fill-rule:nonzero;marker:none;visibility:visible;display:inline;overflow:visible;enable-background:accumulate"
       d="m 280.23979,2358.4608 c -54.41549,-7.2554 -134.22488,-30.8355 -149.64261,-75.2748 -15.41772,-44.4393 -11.79002,-99.7617 19.95235,-124.2487 31.74237,-24.487 86.15787,-45.3462 133.31796,-37.1839 47.1601,8.1623 108.83099,38.0908 123.34179,79.8094 14.5108,41.7185 0.90692,130.5972 -59.85705,147.8287 -60.76396,17.2316 -67.11244,9.0693 -67.11244,9.0693 z"
       id="path3970"
       inkscape:connector-curvature="0" />
    <path
       style="fill:#ffffff;stroke:none;stroke-width:1px;stroke-linecap:butt;stroke-linejoin:miter;stroke-opacity:1;color:#000000;fill-opacity:1;fill-rule:nonzero;marker:none;visibility:visible;display:inline;overflow:visible;enable-background:accumulate"
       d="m 254.8459,2340.3223 c 1.81384,47.1601 45.34624,116.0864 91.59941,107.924 -55.32242,-26.3008 -69.83322,-87.0647 -66.20552,-101.5755 3.6277,-14.5108 -25.39389,-6.3485 -25.39389,-6.3485 z"
       id="path3978"
       inkscape:connector-curvature="0" />
    <path
       style="fill:#ffffff;stroke:none;stroke-width:1px;stroke-linecap:butt;stroke-linejoin:miter;stroke-opacity:1;color:#000000;fill-opacity:1;fill-rule:nonzero;marker:none;visibility:visible;display:inline;overflow:visible;enable-background:accumulate"
       d="m 977.66503,2219.7013 c 0,-58.0432 27.20777,-87.9717 107.92407,-93.4133 80.7163,-5.4415 300.1921,-10.8831 335.5622,8.1623 35.3701,19.0455 48.067,44.4394 49.8809,82.5302 1.8138,38.0908 -78.9025,97.041 -159.6188,94.3202 -80.7163,-2.7208 -194.0819,2.7208 -237.6143,-10.8831 -43.5324,-13.6039 -92.50637,-34.4632 -96.13407,-80.7163 z"
       id="path3986"
       inkscape:connector-curvature="0" />
    <path
       style="color:#000000;fill:#ffffff;fill-opacity:1;fill-rule:nonzero;stroke:none;stroke-width:1px;marker:none;visibility:visible;display:inline;overflow:visible;enable-background:accumulate"
       d="m 997.61738,2413.7832 c 35.37012,-43.5324 121.79372,-42.2278 129.95602,-52.2039 8.1623,-9.9762 20.5935,-15.8155 18.7797,-56.6271 -1.8139,-40.8116 -29.9286,-45.3462 -29.9286,-45.3462 l -9.0692,30.8354 c 0,0 14.4493,43.961 3.8265,51.0758 -10.6227,7.1148 -99.659,25.7577 -113.56442,72.266 z"
       id="path3994"
       inkscape:connector-curvature="0"
       sodipodi:nodetypes="csscczc" />
    <path
       style="color:#000000;fill:#ffffff;fill-opacity:1;fill-rule:nonzero;stroke:none;stroke-width:1px;marker:none;visibility:visible;display:inline;overflow:visible;enable-background:accumulate"
       d="m 1768.8497,2259.606 c -16.5449,-30.8355 -52.5541,-41.7186 -62.2863,-43.5324 30.1699,-3.6277 46.7147,-4.5346 59.3666,2.7208 -29.1967,-24.487 -36.9825,-36.277 -42.8218,-38.9978 -5.8394,-2.7208 18.4913,-3.6277 30.1699,0 -0.9733,-7.2554 9.7322,-2.7208 9.7322,-2.7208 l -18.4912,-20.8593 22.3841,8.1624 -6.8126,-43.5324 43.7951,7.2554 18.4912,-34.4632 4.8662,23.5801 85.6435,-38.9978 2.9197,35.3701 62.2862,-34.4632 24.3305,32.6493 19.4645,-24.487 5.8394,18.1385 70.072,-18.1385 1.9464,27.2078 86.6168,-9.0693 -23.3573,22.6732 36.9825,1.8138 -19.4645,8.1623 21.4109,2.7208 -34.0627,19.0454 39.9021,2.7208 c 0,0 -11.6787,11.79 -18.4913,14.5108 10.7055,5.4416 28.2234,10.8831 28.2234,10.8831 0,0 -18.4911,7.2554 -25.3037,8.1623 10.7055,6.3485 18.4913,7.2554 18.4913,7.2554 l -10.7055,3.6277 36.0092,21.7662 -45.7415,4.5346 c 0,0 15.5716,11.7901 21.411,12.697 -16.5448,-0.9069 -29.1968,-1.8139 -29.1968,-1.8139 0,0 13.6252,9.9762 17.5181,9.9762 3.8929,0 -20.4377,1.8139 -20.4377,1.8139 14.5983,12.6969 26.277,15.4177 26.277,15.4177 l -45.7414,-1.8139 -8.7591,28.1147 -16.5448,-22.6731 -7.7857,69.8332 -55.4737,-68.0194 -23.3574,20.8593 -26.277,-27.2077 -40.8753,80.7163 0.9732,-57.1363 -70.072,36.277 18.4912,-29.9285 -117.7599,29.0216 25.3037,-30.8355 -54.5004,0.907 13.6251,-19.9524 c 0,0 -71.0452,11.79 -66.1791,9.0693 4.8661,-2.7208 28.2235,-17.2315 37.9557,-29.0216 z"
       id="path4002"
       inkscape:connector-curvature="0"
       sodipodi:nodetypes="cccsccccccccccccccccccccccccccccccccsc" />
    <path
       style="color:#000000;fill:#ffffff;fill-opacity:1;fill-rule:nonzero;stroke:none;stroke-width:1px;marker:none;visibility:visible;display:inline;overflow:visible;enable-background:accumulate"
       d="m 1719.3446,2448.2005 c 5.7083,-44.4393 36.3906,-81.6233 70.6406,-88.8787 34.25,-7.2554 316.8125,5.4416 338.2187,16.3247 21.4062,10.8831 54.2291,19.0454 44.9531,95.2271 -9.2761,76.1817 -49.9479,92.5063 -90.6197,94.3202 -40.6719,1.8138 -282.5625,12.6969 -316.8126,-29.0216 -34.2498,-41.7185 -47.8072,-38.0908 -46.3801,-87.9717 z"
       id="path4010"
       inkscape:connector-curvature="0" />
    <path
       style="color:#000000;fill:#ffffff;fill-opacity:1;fill-rule:nonzero;stroke:none;stroke-width:1px;marker:none;visibility:visible;display:inline;overflow:visible;enable-background:accumulate"
       d="m 1652.0929,2571.0605 c 26.3008,-46.2531 61.6709,-30.8354 73.4609,-29.9285 11.79,0.9069 54.4155,4.5346 73.4609,-34.4631 19.0455,-38.9978 67.1125,-44.4393 67.1125,-44.4393 l -27.2078,58.9501 c 0,0 -38.0908,33.5562 -66.2055,37.1839 -28.1147,3.6277 -67.1124,-9.0693 -80.7163,-4.5346 -13.6039,4.5346 -29.0216,4.5346 -39.9047,17.2315 z"
       id="path4018"
       inkscape:connector-curvature="0" />
    <path
       style="color:#000000;fill:#ffffff;fill-opacity:1;fill-rule:nonzero;stroke:none;stroke-width:1px;marker:none;visibility:visible;display:inline;overflow:visible;enable-background:accumulate"
       d="m 1877.1655,2494.5023 c 33.8704,-69.8027 100.6018,-95.8573 108.4076,-111.8719 7.8058,-16.0148 18.3015,-27.851 22.972,-82.0387 4.6705,-54.1881 -16.4262,-51.2284 -16.4262,-51.2284 l -11.6132,44.301 c 0,0 4.6456,54.3492 -4.6398,67.3154 -9.2852,12.9662 -81.009,66.632 -98.7004,133.5226 z"
       id="path3994-2"
       inkscape:connector-curvature="0"
       sodipodi:nodetypes="csscczc" />
  </g>
  <g
     inkscape:groupmode="layer"
     id="layer1"
     inkscape:label="txt"
     style="display:inline">
    <flowRoot
       xml:space="preserve"
       id="flowRoot2987-4"
       style="font-size:12px;font-style:normal;font-variant:normal;font-weight:normal;font-stretch:normal;text-align:center;line-height:125%;letter-spacing:0px;word-spacing:0px;text-anchor:middle;fill:#000000;fill-opacity:1;stroke:none;font-family:Lavi;-inkscape-font-specification:Lavi"
       transform="translate(-9.8686087,1903.9737)"><flowRegion
         id="flowRegion2989-5"><rect
           id="rect2991-7"
           width="306.03366"
           height="214.90581"
           x="120.55251"
           y="265.53046"
           style="font-style:normal;font-variant:normal;font-weight:normal;font-stretch:normal;text-align:center;text-anchor:middle;font-family:Lavi;-inkscape-font-specification:Lavi" /></flowRegion><flowPara
         style="font-size:56px;font-style:normal;font-variant:normal;font-weight:bold;font-stretch:normal;text-align:center;line-height:100%;text-anchor:middle;font-family:Pecita;-inkscape-font-specification:Pecita Bold"
         id="flowPara3033">Χα ... !</flowPara><flowPara
         style="font-size:64px;font-style:normal;font-variant:normal;font-weight:bold;font-stretch:normal;text-align:center;line-height:100%;text-anchor:middle;font-family:Pecita;-inkscape-font-specification:Pecita Bold"
         id="flowPara3024"><flowSpan
   id="flowSpan3027"
   style="font-size:56px;font-style:normal;font-variant:normal;font-weight:bold;font-stretch:normal;text-align:center;line-height:100%;text-anchor:middle;font-family:Pecita;-inkscape-font-specification:Pecita Bold">Το βρήκα</flowSpan></flowPara><flowPara
         style="font-size:64px;font-style:normal;font-variant:normal;font-weight:bold;font-stretch:normal;text-align:center;line-height:100%;text-anchor:middle;font-family:Pecita;-inkscape-font-specification:Pecita Bold"
         id="flowPara3029">...</flowPara></flowRoot>    <flowRoot
       xml:space="preserve"
       id="flowRoot2987-4-5"
       style="font-size:12px;font-style:normal;font-variant:normal;font-weight:normal;font-stretch:normal;text-align:center;line-height:125%;letter-spacing:0px;word-spacing:0px;text-anchor:middle;fill:#000000;fill-opacity:1;stroke:none;font-family:Lavi;-inkscape-font-specification:Lavi"
       transform="translate(865.52392,1899.7178)"><flowRegion
         id="flowRegion2989-5-5"><rect
           id="rect2991-7-8"
           width="469.71762"
           height="144.28166"
           x="120.55251"
           y="265.53046"
           style="font-style:normal;font-variant:normal;font-weight:normal;font-stretch:normal;text-align:center;text-anchor:middle;font-family:Lavi;-inkscape-font-specification:Lavi" /></flowRegion><flowPara
         style="font-size:56px;text-align:center;line-height:100%;text-anchor:middle;font-family:Pecita;-inkscape-font-specification:Pecita"
         id="flowPara3022-2">... Ακριβώς αυτό</flowPara><flowPara
         style="font-size:56px;text-align:center;line-height:100%;text-anchor:middle;font-family:Pecita;-inkscape-font-specification:Pecita"
         id="flowPara3024-5">που χρειάζομαι !</flowPara></flowRoot>    <flowRoot
       xml:space="preserve"
       id="flowRoot2987-4-5-9"
       style="font-size:12px;font-style:normal;font-variant:normal;font-weight:normal;font-stretch:normal;text-align:center;line-height:125%;letter-spacing:0px;word-spacing:0px;text-anchor:middle;fill:#000000;fill-opacity:1;stroke:none;font-family:Lavi;-inkscape-font-specification:Lavi"
       transform="matrix(1.6940983,0,0,1.5764632,1373.2238,1746.2535)"><flowRegion
         id="flowRegion2989-5-5-0"><rect
           id="rect2991-7-8-3"
           width="469.71762"
           height="144.28166"
           x="120.55251"
           y="265.53046"
           style="font-style:normal;font-variant:normal;font-weight:normal;font-stretch:normal;text-align:center;text-anchor:middle;font-family:Lavi;-inkscape-font-specification:Lavi" /></flowRegion><flowPara
         style="font-size:48px;font-style:normal;font-variant:normal;font-weight:bold;font-stretch:normal;text-align:center;text-anchor:middle;font-family:Pecita;-inkscape-font-specification:Pecita Bold"
         id="flowPara3024-5-4">Καροτούλη !</flowPara></flowRoot>    <flowRoot
       xml:space="preserve"
       id="flowRoot2987-4-5-6"
       style="font-size:12px;font-style:normal;font-variant:normal;font-weight:normal;font-stretch:normal;text-align:center;line-height:125%;letter-spacing:0px;word-spacing:0px;text-anchor:middle;fill:#000000;fill-opacity:1;stroke:none;font-family:Lavi;-inkscape-font-specification:Lavi"
       transform="translate(1572.8403,2122.9561)"><flowRegion
         id="flowRegion2989-5-5-8"><rect
           id="rect2991-7-8-5"
           width="503.49176"
           height="207.00507"
           x="120.55251"
           y="265.53046"
           style="font-style:normal;font-variant:normal;font-weight:normal;font-stretch:normal;text-align:center;text-anchor:middle;font-family:Lavi;-inkscape-font-specification:Lavi" /></flowRegion><flowPara
         style="font-size:56px;font-style:normal;font-variant:normal;font-weight:bold;font-stretch:normal;text-align:center;line-height:100%;text-anchor:middle;font-family:Pecita;-inkscape-font-specification:Pecita Bold"
         id="flowPara3024-5-6">Ετοιμάσου, θα</flowPara><flowPara
         style="font-size:56px;font-style:normal;font-variant:normal;font-weight:bold;font-stretch:normal;text-align:center;line-height:100%;text-anchor:middle;font-family:Pecita;-inkscape-font-specification:Pecita Bold"
         id="flowPara3036">μαζέψουμε μαζί</flowPara><flowPara
         style="font-size:56px;font-style:normal;font-variant:normal;font-weight:bold;font-stretch:normal;text-align:center;line-height:100%;text-anchor:middle;font-family:Pecita;-inkscape-font-specification:Pecita Bold"
         id="flowPara3131">τα συστατικά</flowPara></flowRoot>    <flowRoot
       xml:space="preserve"
       id="flowRoot2987-4-0"
       style="font-size:12px;font-style:normal;font-variant:normal;font-weight:normal;font-stretch:normal;text-align:center;line-height:125%;letter-spacing:0px;word-spacing:0px;text-anchor:middle;fill:#000000;fill-opacity:1;stroke:none;font-family:Lavi;-inkscape-font-specification:Lavi"
       transform="translate(47.104249,1074.6036)"><flowRegion
         id="flowRegion2989-5-2"><rect
           id="rect2991-7-3"
           width="247.77328"
           height="219.06728"
           x="120.55251"
           y="265.53046"
           style="font-style:normal;font-variant:normal;font-weight:normal;font-stretch:normal;text-align:center;text-anchor:middle;font-family:Lavi;-inkscape-font-specification:Lavi" /></flowRegion><flowPara
         style="font-size:64px;text-align:center;text-anchor:middle;-inkscape-font-specification:Pecita Bold;font-family:Pecita;font-weight:bold;font-style:normal;font-stretch:normal;font-variant:normal"
         id="flowPara3024-3">...</flowPara></flowRoot>    <flowRoot
       xml:space="preserve"
       id="flowRoot3019"
       style="fill:black;stroke:none;stroke-opacity:1;stroke-width:1px;stroke-linejoin:miter;stroke-linecap:butt;fill-opacity:1;font-family:Pecita;font-style:normal;font-weight:normal;font-size:75px;line-height:100%;letter-spacing:0px;word-spacing:0px;-inkscape-font-specification:Pecita Expanded;font-stretch:expanded;font-variant:normal;text-anchor:middle;text-align:center;writing-mode:lr"><flowRegion
         id="flowRegion3021"><rect
           id="rect3023"
           width="176.1683"
           height="191.42697"
           x="126.23083"
           y="2131.1067" /></flowRegion><flowPara
         id="flowPara3025"></flowPara></flowRoot>  </g>
</svg>
