<?xml version="1.0" encoding="UTF-8" standalone="no"?>
<!-- Created with Inkscape (http://www.inkscape.org/) -->

<svg
   xmlns:dc="http://purl.org/dc/elements/1.1/"
   xmlns:cc="http://creativecommons.org/ns#"
   xmlns:rdf="http://www.w3.org/1999/02/22-rdf-syntax-ns#"
   xmlns:svg="http://www.w3.org/2000/svg"
   xmlns="http://www.w3.org/2000/svg"
   xmlns:xlink="http://www.w3.org/1999/xlink"
   xmlns:sodipodi="http://sodipodi.sourceforge.net/DTD/sodipodi-0.dtd"
   xmlns:inkscape="http://www.inkscape.org/namespaces/inkscape"
   id="svg2"
   version="1.1"
   inkscape:version="0.92.1 renderfarm"
   width="2481"
   height="3503"
   sodipodi:docname="Pepper-and-Carrot_by-David-Revoy_E03P04_092.svg">
  <sodipodi:namedview pagecolor="#ffffff" bordercolor="#666666" inkscape:pageopacity="0" inkscape:pageshadow="2" inkscape:window-width="1813" inkscape:window-height="955" id="namedview70" showgrid="false" inkscape:zoom="0.4" inkscape:cx="1284.4231" inkscape:cy="2618.6204" inkscape:current-layer="layer1" /><metadata
     id="metadata8">
    <rdf:RDF>
      <cc:Work
         rdf:about="">
        <dc:format>image/svg+xml</dc:format>
        <dc:type
           rdf:resource="http://purl.org/dc/dcmitype/StillImage" />
        <dc:title />
      </cc:Work>
    </rdf:RDF>
  </metadata>
  <defs
     id="defs6" />
  <sodipodi:namedview
     pagecolor="#ffffff"
     bordercolor="#666666"
     borderopacity="1"
     objecttolerance="10"
     gridtolerance="10"
     guidetolerance="10"
     inkscape:pageopacity="0"
     inkscape:pageshadow="2"
     inkscape:window-width="1920"
     inkscape:window-height="1026"
     id="namedview4"
     showgrid="false"
     inkscape:zoom="0.36045077"
     inkscape:cx="1494.1077"
     inkscape:cy="570.86052"
     inkscape:window-x="1920"
     inkscape:window-y="27"
     inkscape:window-maximized="1"
     inkscape:current-layer="layer3" />
  <g
     inkscape:groupmode="layer"
     id="layer2"
     inkscape:label="artwork"
     sodipodi:insensitive="true"
     style="display:inline">
    <image
       sodipodi:absref="/home/deevad/peppercarrot/webcomics/ep03_The-secret-ingredients/lang/hu/../gfx_Pepper-and-Carrot_by-David-Revoy_E03P04.png"
       xlink:href="../gfx_Pepper-and-Carrot_by-David-Revoy_E03P04.png"
       y="0"
       x="0"
       id="image10"
       height="3503"
       width="2481" />
  </g>
  <g
     inkscape:groupmode="layer"
     id="layer3"
     inkscape:label="speechbubbles">
    <path
       style="fill:#ffffff;stroke:none"
       d="m 224.19782,1380.2353 c 1.37932,-33.1037 29.59695,-40.0081 54.4247,-42.7668 24.82775,-2.7586 100.69031,8.276 92.4144,48.2762 -8.27592,40.0003 -53.74673,43.4447 -84.09176,39.3068 -30.34503,-4.138 -62.10052,-15.8662 -62.74734,-44.8162 z"
       id="path3938"
       inkscape:connector-curvature="0"
       sodipodi:nodetypes="csssc" />
    <path
       style="color:#000000;fill:#ffffff;fill-opacity:1;fill-rule:nonzero;stroke:none;stroke-width:1px;marker:none;visibility:visible;display:inline;overflow:visible;enable-background:accumulate"
       d="m 368.94185,1386.0419 c 24.68756,9.5472 45.26052,39.3825 48.00359,45.9462 -12.34378,-7.1604 -50.74665,-26.8516 -68.57656,-29.8351 -15.13337,-2.5324 20.57297,-16.1111 20.57297,-16.1111 z"
       id="path3940"
       inkscape:connector-curvature="0"
       sodipodi:nodetypes="ccsc" />
    <path
       style="color:#000000;display:inline;overflow:visible;visibility:visible;fill:#ffffff;fill-opacity:1;fill-rule:nonzero;stroke:none;stroke-width:1px;stroke-linecap:butt;stroke-linejoin:miter;stroke-opacity:1;marker:none;enable-background:accumulate"
       d="m 279.01986,2358.862 c -49.34405,-5.7485 -121.71531,-24.4312 -135.69614,-59.6407 -13.98081,-35.2096 -10.69121,-79.0419 18.09283,-98.4432 28.78402,-19.4012 78.12808,-35.9281 120.89291,-29.461 42.76484,6.467 98.68809,30.1796 111.84651,63.2335 13.15841,33.0539 0.8224,103.4731 -54.27846,117.1257 -55.10085,13.6528 -60.85765,7.1857 -60.85765,7.1857 z"
       id="path3970"
       inkscape:connector-curvature="0" />
    <path
       style="fill:#ffffff;stroke:none;stroke-width:1px;stroke-linecap:butt;stroke-linejoin:miter;stroke-opacity:1;color:#000000;fill-opacity:1;fill-rule:nonzero;marker:none;visibility:visible;display:inline;overflow:visible;enable-background:accumulate"
       d="m 254.8459,2340.3223 c 1.81384,47.1601 45.34624,116.0864 91.59941,107.924 -55.32242,-26.3008 -69.83322,-87.0647 -66.20552,-101.5755 3.6277,-14.5108 -25.39389,-6.3485 -25.39389,-6.3485 z"
       id="path3978"
       inkscape:connector-curvature="0" />
    <path
       style="color:#000000;display:inline;overflow:visible;visibility:visible;fill:#ffffff;fill-opacity:1;fill-rule:nonzero;stroke:none;stroke-width:1px;stroke-linecap:butt;stroke-linejoin:miter;stroke-opacity:1;marker:none;enable-background:accumulate"
       d="m 1013.731,2219.7013 c 0,-58.0432 23.2301,-87.9717 92.1462,-93.4133 68.916,-5.4415 256.3057,-10.8831 286.5048,8.1623 30.1992,19.0455 41.0399,44.4394 42.5886,82.5302 1.5487,38.0908 -67.3674,97.041 -136.2834,94.3202 -68.916,-2.7208 -165.7082,2.7208 -202.8764,-10.8831 -37.1682,-13.6039 -78.9825,-34.4632 -82.0798,-80.7163 z"
       id="path3986"
       inkscape:connector-curvature="0" />
    <path
       style="color:#000000;fill:#ffffff;fill-opacity:1;fill-rule:nonzero;stroke:none;stroke-width:1px;marker:none;visibility:visible;display:inline;overflow:visible;enable-background:accumulate"
       d="m 997.61738,2413.7832 c 35.37012,-43.5324 121.79372,-42.2278 129.95602,-52.2039 8.1623,-9.9762 20.5935,-15.8155 18.7797,-56.6271 -1.8139,-40.8116 -29.9286,-45.3462 -29.9286,-45.3462 l -9.0692,30.8354 c 0,0 14.4493,43.961 3.8265,51.0758 -10.6227,7.1148 -99.659,25.7577 -113.56442,72.266 z"
       id="path3994"
       inkscape:connector-curvature="0"
       sodipodi:nodetypes="csscczc" />
    <path
       style="color:#000000;display:inline;overflow:visible;visibility:visible;fill:#ffffff;fill-opacity:1;fill-rule:nonzero;stroke:none;stroke-width:1px;stroke-linecap:butt;stroke-linejoin:miter;stroke-opacity:1;marker:none;enable-background:accumulate"
       d="m 1761.7508,2259.606 c -18.7123,-30.8355 -59.4389,-41.7186 -70.446,-43.5324 34.1222,-3.6277 52.8345,-4.5346 67.1438,2.7208 -33.0216,-24.487 -41.8273,-36.277 -48.4316,-38.9978 -6.6044,-2.7208 20.9137,-3.6277 34.1223,0 -1.1008,-7.2554 11.0071,-2.7208 11.0071,-2.7208 l -20.9137,-20.8593 25.3166,8.1624 -7.7051,-43.5324 49.5325,7.2554 20.9135,-34.4632 5.5037,23.5801 96.8631,-38.9978 3.3022,35.3701 70.4459,-34.4632 27.518,32.6493 22.0143,-24.487 6.6044,18.1385 79.2517,-18.1385 2.2014,27.2078 97.9639,-9.0693 -26.4172,22.6732 41.8273,1.8138 -22.0143,8.1623 24.2157,2.7208 -38.525,19.0454 45.1294,2.7208 c 0,0 -13.2086,11.79 -20.9137,14.5108 12.1079,5.4416 31.9208,10.8831 31.9208,10.8831 0,0 -20.9136,7.2554 -28.6186,8.1623 12.1079,6.3485 20.9137,7.2554 20.9137,7.2554 l -12.108,3.6277 40.7266,21.7662 -51.7338,4.5346 c 0,0 17.6115,11.7901 24.2158,12.697 -18.7121,-0.9069 -33.0216,-1.8139 -33.0216,-1.8139 0,0 15.4102,9.9762 19.813,9.9762 4.4029,0 -23.115,1.8139 -23.115,1.8139 16.5107,12.6969 29.7193,15.4177 29.7193,15.4177 l -51.7337,-1.8139 -9.9065,28.1147 -18.7122,-22.6731 -8.8058,69.8332 -62.7409,-68.0194 -26.4172,20.8593 -29.7195,-27.2077 -46.2301,80.7163 1.1007,-57.1363 -79.2517,36.277 20.9137,-29.9285 -133.1869,29.0216 28.6186,-30.8355 -61.6402,0.907 15.4101,-19.9524 c 0,0 -80.3524,11.79 -74.8488,9.0693 5.5035,-2.7208 31.9209,-17.2315 42.928,-29.0216 z"
       id="path4002"
       inkscape:connector-curvature="0"
       sodipodi:nodetypes="cccsccccccccccccccccccccccccccccccccsc" />
    <path
       style="fill:#ffffff;stroke:none;stroke-width:1px;stroke-linecap:butt;stroke-linejoin:miter;stroke-opacity:1;color:#000000;fill-opacity:1;fill-rule:nonzero;marker:none;visibility:visible;display:inline;overflow:visible;enable-background:accumulate"
       d="m 1680.5318,2333.0669 c 7.2554,-44.4393 46.2532,-81.6233 89.7856,-88.8787 43.5324,-7.2554 402.6746,5.4416 429.8824,16.3247 27.2077,10.8831 68.9263,19.0454 57.1363,95.2271 -11.7901,76.1817 -63.4848,92.5063 -115.1795,94.3202 -51.6947,1.8138 -359.1423,12.6969 -402.6747,-29.0216 -43.5323,-41.7185 -60.7639,-38.0908 -58.9501,-87.9717 z"
       id="path4010"
       inkscape:connector-curvature="0" />
    <path
       style="fill:#ffffff;stroke:none;stroke-width:1px;stroke-linecap:butt;stroke-linejoin:miter;stroke-opacity:1;color:#000000;fill-opacity:1;fill-rule:nonzero;marker:none;visibility:visible;display:inline;overflow:visible;enable-background:accumulate"
       d="m 1715.9019,2480.8956 c 26.3008,-46.2531 61.6709,-30.8354 73.4609,-29.9285 11.79,0.9069 54.4155,4.5346 73.4609,-34.4631 19.0455,-38.9978 67.1125,-44.4393 67.1125,-44.4393 l -27.2078,58.9501 c 0,0 -38.0908,33.5562 -66.2055,37.1839 -28.1147,3.6277 -67.1124,-9.0693 -80.7163,-4.5346 -13.6039,4.5346 -29.0216,4.5346 -39.9047,17.2315 z"
       id="path4018"
       inkscape:connector-curvature="0" />
  </g>
  <g
     inkscape:groupmode="layer"
     id="layer1"
     inkscape:label="txt"
     style="display:inline">
    <flowRoot
       xml:space="preserve"
       id="flowRoot2987-4"
       style="font-style:normal;font-variant:normal;font-weight:normal;font-stretch:normal;line-height:0.01%;font-family:Lavi;-inkscape-font-specification:Lavi;text-align:center;letter-spacing:0px;word-spacing:0px;text-anchor:middle;fill:#000000;fill-opacity:1;stroke:none"
       transform="translate(22.035887,1935.6508)"><flowRegion
         id="flowRegion2989-5"><rect
           id="rect2991-7"
           width="247.77328"
           height="219.06728"
           x="120.55251"
           y="265.53046"
           style="font-style:normal;font-variant:normal;font-weight:normal;font-stretch:normal;font-family:Lavi;-inkscape-font-specification:Lavi;text-align:center;text-anchor:middle" /></flowRegion><flowPara
         style="font-size:48px;line-height:1.25;text-align:center;text-anchor:middle"
         id="flowPara3024">Ó!</flowPara><flowPara
         style="font-size:48px;line-height:1.25;text-align:center;text-anchor:middle"
         id="flowPara3375">Megvan!</flowPara></flowRoot>    <flowRoot
       xml:space="preserve"
       id="flowRoot2987-4-5"
       style="font-style:normal;font-variant:normal;font-weight:normal;font-stretch:normal;line-height:0.01%;font-family:Lavi;-inkscape-font-specification:Lavi;text-align:center;letter-spacing:0px;word-spacing:0px;text-anchor:middle;fill:#000000;fill-opacity:1;stroke:none"
       transform="translate(879.39544,1890.0077)"><flowRegion
         id="flowRegion2989-5-5"><rect
           id="rect2991-7-8"
           width="469.71762"
           height="144.28166"
           x="120.55251"
           y="265.53046"
           style="font-style:normal;font-variant:normal;font-weight:normal;font-stretch:normal;font-family:Lavi;-inkscape-font-specification:Lavi;text-align:center;text-anchor:middle" /></flowRegion><flowPara
         style="font-size:48px;line-height:1.25;text-align:center;text-anchor:middle"
         id="flowPara3024-5">Pont erre van</flowPara><flowPara
         style="font-size:48px;line-height:1.25;text-align:center;text-anchor:middle"
         id="flowPara3371">szükségem!</flowPara></flowRoot>    <flowRoot
       xml:space="preserve"
       id="flowRoot2987-4-5-9"
       style="font-style:normal;font-variant:normal;font-weight:normal;font-stretch:normal;line-height:0.01%;font-family:Lavi;-inkscape-font-specification:Lavi;text-align:center;letter-spacing:0px;word-spacing:0px;text-anchor:middle;fill:#000000;fill-opacity:1;stroke:none"
       transform="matrix(1.6940983,0,0,1.5764632,1384.3211,1737.9306)"><flowRegion
         id="flowRegion2989-5-5-0"><rect
           id="rect2991-7-8-3"
           width="469.71762"
           height="144.28166"
           x="120.55251"
           y="265.53046"
           style="font-style:normal;font-variant:normal;font-weight:normal;font-stretch:normal;font-family:Lavi;-inkscape-font-specification:Lavi;text-align:center;text-anchor:middle" /></flowRegion><flowPara
         style="font-size:48px;line-height:1.25;text-align:center;text-anchor:middle"
         id="flowPara3024-5-4">Sárgarépa!</flowPara></flowRoot>    <flowRoot
       xml:space="preserve"
       id="flowRoot2987-4-5-6"
       style="font-style:normal;font-variant:normal;font-weight:normal;font-stretch:normal;line-height:0.01%;font-family:Lavi;-inkscape-font-specification:Lavi;text-align:center;letter-spacing:0px;word-spacing:0px;text-anchor:middle;fill:#000000;fill-opacity:1;stroke:none"
       transform="translate(1610.2934,1996.7253)"><flowRegion
         id="flowRegion2989-5-5-8"><rect
           id="rect2991-7-8-5"
           width="503.49176"
           height="207.00507"
           x="120.55251"
           y="265.53046"
           style="font-style:normal;font-variant:normal;font-weight:normal;font-stretch:normal;font-family:Lavi;-inkscape-font-specification:Lavi;text-align:center;text-anchor:middle" /></flowRegion><flowPara
         style="font-size:48px;line-height:1.25;text-align:center;text-anchor:middle"
         id="flowPara3131">Gyere, együtt</flowPara><flowPara
         style="font-size:48px;line-height:1.25;text-align:center;text-anchor:middle"
         id="flowPara3378">fogjuk összegyűjteni a</flowPara><flowPara
         style="font-size:48px;line-height:1.25;text-align:center;text-anchor:middle"
         id="flowPara3380">hozzávalókat!</flowPara></flowRoot>    <flowRoot
       xml:space="preserve"
       id="flowRoot2987-4-0"
       style="font-style:normal;font-variant:normal;font-weight:normal;font-stretch:normal;line-height:0.01%;font-family:Lavi;-inkscape-font-specification:Lavi;text-align:center;letter-spacing:0px;word-spacing:0px;text-anchor:middle;fill:#000000;fill-opacity:1;stroke:none"
       transform="translate(47.104249,1074.6036)"><flowRegion
         id="flowRegion2989-5-2"><rect
           id="rect2991-7-3"
           width="247.77328"
           height="219.06728"
           x="120.55251"
           y="265.53046"
           style="font-style:normal;font-variant:normal;font-weight:normal;font-stretch:normal;font-family:Lavi;-inkscape-font-specification:Lavi;text-align:center;text-anchor:middle" /></flowRegion><flowPara
         style="font-size:48px;line-height:1.25;text-align:center;text-anchor:middle"
         id="flowPara3024-3">...</flowPara></flowRoot>  </g>
</svg>
