<?xml version="1.0" encoding="UTF-8" standalone="no"?>
<!-- Created with Inkscape (http://www.inkscape.org/) -->

<svg
   xmlns:dc="http://purl.org/dc/elements/1.1/"
   xmlns:cc="http://creativecommons.org/ns#"
   xmlns:rdf="http://www.w3.org/1999/02/22-rdf-syntax-ns#"
   xmlns:svg="http://www.w3.org/2000/svg"
   xmlns="http://www.w3.org/2000/svg"
   xmlns:xlink="http://www.w3.org/1999/xlink"
   xmlns:sodipodi="http://sodipodi.sourceforge.net/DTD/sodipodi-0.dtd"
   xmlns:inkscape="http://www.inkscape.org/namespaces/inkscape"
   id="svg2"
   version="1.1"
   inkscape:version="0.91 r"
   width="2481"
   height="3503"
   sodipodi:docname="Pepper-and-Carrot_by-David-Revoy_E03P07.svg">
  <metadata
     id="metadata8">
    <rdf:RDF>
      <cc:Work
         rdf:about="">
        <dc:format>image/svg+xml</dc:format>
        <dc:type
           rdf:resource="http://purl.org/dc/dcmitype/StillImage" />
        <dc:title />
      </cc:Work>
    </rdf:RDF>
  </metadata>
  <defs
     id="defs6" />
  <sodipodi:namedview
     pagecolor="#ffffff"
     bordercolor="#666666"
     borderopacity="1"
     objecttolerance="10"
     gridtolerance="10"
     guidetolerance="10"
     inkscape:pageopacity="0"
     inkscape:pageshadow="2"
     inkscape:window-width="1600"
     inkscape:window-height="838"
     id="namedview4"
     showgrid="false"
     inkscape:zoom="0.41451839"
     inkscape:cx="1235.9697"
     inkscape:cy="2940.3362"
     inkscape:window-x="-8"
     inkscape:window-y="-8"
     inkscape:window-maximized="1"
     inkscape:current-layer="layer3" />
  <g
     inkscape:groupmode="layer"
     id="layer2"
     inkscape:label="artwork"
     sodipodi:insensitive="true">
    <image
       sodipodi:absref="/home/deevad/Production/Webcomics/2014-10-02_ep03_The-secret-ingredients/lang/br/../gfx_Pepper-and-Carrot_by-David-Revoy_E03P07.png"
       xlink:href="../gfx_Pepper-and-Carrot_by-David-Revoy_E03P07.png"
       width="2481"
       height="3503"
       id="image10"
       x="0"
       y="0" />
  </g>
  <g
     inkscape:groupmode="layer"
     id="layer3"
     inkscape:label="speechbubbles">
    <path
       style="fill:#ffffff;stroke:none"
       d="m 503.47767,2211.4516 c -6.41079,-26.4597 50.37762,-30.6925 57.72435,-36.1733 7.34674,-5.4808 24.13929,-25.2117 36.73373,-28.5002 12.59434,-3.2885 58.77382,10.9617 74.51687,18.6347 15.74295,7.6732 38.70751,-8.0464 61.92243,-4.3845 23.21493,3.6618 30.43653,24.1155 40.93183,30.6923 10.4953,6.577 59.8234,8.7694 60.87297,37.2695 1.04957,28.5002 -71.36827,28.5002 -83.96271,30.6925 -12.59444,2.1924 -47.22905,17.5385 -66.12061,15.3462 -18.89156,-2.1923 -54.57574,-13.1539 -72.41783,-15.3462 -17.84209,-2.1923 -44.08041,9.8654 -55.62528,1.0962 -11.54487,-8.7694 -10.49534,-15.3463 -15.743,-19.7309 -5.24767,-4.3846 -32.42196,-3.1367 -38.83275,-29.5963 z"
       id="path3250"
       inkscape:connector-curvature="0"
       sodipodi:nodetypes="zssszsssssssz" />
    <path
       style="fill:#ffffff;stroke:none"
       d="m 346.26392,2402.1905 c 11.85374,-75.2667 52.80304,-147.3077 299.5764,-156.9849 246.77337,-9.6771 348.06899,89.2449 349.1466,146.2325 1.07762,56.9876 -72.20007,163.4363 -271.55846,165.5868 -199.3584,2.1505 -370.69886,-7.5267 -377.16454,-154.8344 z"
       id="path3270"
       inkscape:connector-curvature="0" />
    <path
       style="fill:#ffffff;stroke:none"
       d="m 929.28059,2436.0482 c 18.77335,14.6015 45.8904,32.3319 55.27707,31.2889 9.38668,-1.0429 39.63264,-1.0429 57.36304,-9.3867 17.7303,-8.3437 82.191,36.2751 86.3629,68.607 -35.4608,-37.5467 -84.9631,-43.4989 -101.1675,-40.6756 -13.9753,2.4349 -44.64436,26.3028 -54.03104,26.3028 -26.07409,2.0859 -55.27707,-10.4297 -64.66374,-34.4178 -9.38667,-23.9882 20.85927,-41.7186 20.85927,-41.7186 z"
       id="path3272"
       inkscape:connector-curvature="0"
       sodipodi:nodetypes="ccscscsc" />
    <path
       style="fill:#ffffff;stroke:none"
       d="m 304.7843,2736.0173 c 10.62996,-113.1562 111.13132,-243.04 346.92297,-224.3445 235.79165,18.6954 325.66307,99.3806 318.89855,253.8634 -6.76451,154.4829 -134.32393,214.5049 -332.42757,205.6492 -198.10364,-8.8557 -344.99026,-71.8296 -333.39395,-235.1681 z"
       id="path3274"
       inkscape:connector-curvature="0" />
    <path
       style="fill:#ffffff;stroke:none"
       d="m 929.44371,2757.4897 c 48.74721,-18.1385 83.15699,8.1623 93.67119,29.0216 10.5141,20.8592 63.0845,9.9761 74.5545,-11.7901 -19.9609,52.676 -79.703,54.6393 -121.73246,26.0768 -12.33917,-8.3855 -34.85287,3.408 -41.54166,27.8751 -6.18209,22.6137 -31.71475,33.9701 -31.71475,33.9701 z"
       id="path3276"
       inkscape:connector-curvature="0"
       sodipodi:nodetypes="cscsscc" />
    <path
       style="fill:#ffffff;stroke:none"
       d="m 499.88076,1164.9586 c 2.61065,-44.2984 33.9383,-63.2835 48.2968,-69.6117 14.35851,-6.3283 75.70848,-15.8209 116.17336,-15.8209 40.46489,0 140.97443,3.1641 157.94356,4.7463 16.96915,1.5821 63.96062,33.2237 65.26594,61.7013 1.30532,28.4775 -6.52659,47.4624 -30.02233,64.8654 -23.49573,17.403 -169.69143,25.3134 -178.82866,23.7313 -9.13723,-1.5822 -130.53187,-12.6566 -138.36378,-17.403 -7.83191,-4.7462 -39.15956,-17.4028 -40.46489,-52.2087 z"
       id="path3278"
       inkscape:connector-curvature="0" />
    <path
       style="fill:#ffffff;stroke:none"
       d="m 607.77066,1264.7701 c -0.901,-18.6867 28.17668,-70.3849 152.80433,-64.4369 124.62766,5.948 163.08737,27.2341 165.80897,60.4716 4.3055,52.5808 -61.70784,65.3212 -156.03935,67.3683 -97.24559,2.1104 -157.25569,-16.1383 -162.57395,-63.403 z"
       id="path3280"
       inkscape:connector-curvature="0"
       sodipodi:nodetypes="csssc" />
    <path
       style="fill:#ffffff;stroke:none"
       d="m 896.62131,1273.0042 c 34.36024,11.6074 49.36741,5.6623 65.32534,8.9863 15.95794,3.3241 23.30028,32.2817 31.26364,37.6375 8.06221,4.6001 21.49681,3.7812 44.42051,-1.4495 -40.73821,21.106 -48.28391,12.1671 -55.74871,7.8734 -10.26176,-5.9024 -12.74809,-20.8349 -27.63249,-21.6034 -14.41729,-0.7445 -61.88172,2.6433 -80.83838,-8.4962 -18.95667,-11.1394 -22.75621,-9.6493 -22.75621,-9.6493 z"
       id="path3282"
       inkscape:connector-curvature="0"
       sodipodi:nodetypes="csccssscc" />
    <path
       style="fill:#ffffff;stroke:none"
       d="m 553.2062,252.47324 c -12.9974,-61.38471 15.52369,-112.97383 34.49975,-126.1495 18.97605,-13.17568 51.9158,-29.617124 68.51187,-32.944762 16.59607,-3.327653 280.48554,-18.342147 296.48185,-10.884402 15.99629,7.45775 87.80293,34.167284 104.58173,71.962114 16.7788,37.79483 20.3008,106.25667 -0.2028,128.28112 -20.504,22.02444 -39.6,64.5792 -159.66115,73.27599 -120.06111,8.69679 -278.40902,-4.11081 -313.81607,-48.43997 -19.96055,-24.99035 -30.39518,-55.10059 -30.39518,-55.10059 z"
       id="path3286"
       inkscape:connector-curvature="0"
       sodipodi:nodetypes="csssssssc" />
    <path
       style="fill:#ffffff;stroke:none"
       d="m 1051.5281,183.19728 c 57.57,-27.60206 176.6532,-67.82221 291.0046,52.83824 -146.6853,-86.74934 -177.4104,-50.77191 -293.339,-13.70629 -115.92871,37.06563 -93.87851,-11.52989 -93.87851,-11.52989 z"
       id="path3288"
       inkscape:connector-curvature="0"
       sodipodi:nodetypes="ccscc" />
  </g>
  <g
     inkscape:groupmode="layer"
     id="layer1"
     inkscape:label="txt">
    <flowRoot
       xml:space="preserve"
       id="flowRoot2987"
       style="font-style:normal;font-variant:normal;font-weight:normal;font-stretch:normal;font-size:12px;line-height:125%;font-family:Lavi;-inkscape-font-specification:Lavi;letter-spacing:0px;word-spacing:0px;fill:#000000;fill-opacity:1;stroke:none"
       transform="translate(423.39709,-130.98981)"><flowRegion
         id="flowRegion2989"><rect
           id="rect2991"
           width="558.34851"
           height="226.82907"
           x="120.55251"
           y="265.53046"
           style="font-style:normal;font-variant:normal;font-weight:normal;font-stretch:normal;font-family:Lavi;-inkscape-font-specification:Lavi" /></flowRegion><flowPara
         id="flowPara2995"
         style="font-size:48px;text-align:center;text-anchor:middle">Sed aze Carrot,</flowPara><flowPara
         style="font-size:48px;text-align:center;text-anchor:middle"
         id="flowPara3036">me 'soñj din emañ</flowPara><flowPara
         style="font-size:48px;text-align:center;text-anchor:middle"
         id="flowPara3388">pep tra ganimp.</flowPara></flowRoot>    <flowRoot
       xml:space="preserve"
       id="flowRoot2987-8"
       style="font-style:normal;font-variant:normal;font-weight:normal;font-stretch:normal;font-size:12px;line-height:125%;font-family:Lavi;-inkscape-font-specification:Lavi;letter-spacing:0px;word-spacing:0px;fill:#000000;fill-opacity:1;stroke:none"
       transform="translate(241.05221,836.48918)"><flowRegion
         id="flowRegion2989-57"><rect
           id="rect2991-1"
           width="658.51709"
           height="125.82134"
           x="120.55251"
           y="265.53046"
           style="font-style:normal;font-variant:normal;font-weight:normal;font-stretch:normal;font-family:Lavi;-inkscape-font-specification:Lavi" /></flowRegion><flowPara
         style="font-size:48px;text-align:center;text-anchor:middle"
         id="flowPara3017-3">Evit doare</flowPara><flowPara
         style="font-size:48px;text-align:center;text-anchor:middle"
         id="flowPara3390">ez eo ...</flowPara><flowPara
         style="font-size:48px;text-align:center;text-anchor:middle"
         id="flowPara3057" /></flowRoot>    <flowRoot
       xml:space="preserve"
       id="flowRoot2987-8-6"
       style="font-style:normal;font-variant:normal;font-weight:normal;font-stretch:normal;font-size:12px;line-height:125%;font-family:Lavi;-inkscape-font-specification:Lavi;letter-spacing:0px;word-spacing:0px;fill:#000000;fill-opacity:1;stroke:none"
       transform="translate(315.91109,969.87693)"><flowRegion
         id="flowRegion2989-57-9"><rect
           id="rect2991-1-7"
           width="646.4549"
           height="79.985016"
           x="120.55251"
           y="265.53046"
           style="font-style:normal;font-variant:normal;font-weight:normal;font-stretch:normal;font-family:Lavi;-inkscape-font-specification:Lavi" /></flowRegion><flowPara
         style="font-size:48px;text-align:center;text-anchor:middle"
         id="flowPara3017-3-3">... peurvat</flowPara><flowPara
         style="font-size:48px;text-align:center;text-anchor:middle"
         id="flowPara3057-7" /></flowRoot>    <flowRoot
       xml:space="preserve"
       id="flowRoot2987-8-6-0"
       style="font-size:12px;font-style:normal;font-variant:normal;font-weight:normal;font-stretch:normal;line-height:125%;letter-spacing:0px;word-spacing:0px;fill:#000000;fill-opacity:1;stroke:none;font-family:Lavi;-inkscape-font-specification:Lavi"
       transform="translate(215.17296,1914.6074)"><flowRegion
         id="flowRegion2989-57-9-5"><rect
           id="rect2991-1-7-6"
           width="646.4549"
           height="79.985016"
           x="120.55251"
           y="265.53046"
           style="font-style:normal;font-variant:normal;font-weight:normal;font-stretch:normal;font-family:Lavi;-inkscape-font-specification:Lavi" /></flowRegion><flowPara
         style="font-size:48px;text-align:center;text-anchor:middle"
         id="flowPara3017-3-3-0">Mmm ...</flowPara><flowPara
         style="font-size:48px;text-align:center;text-anchor:middle"
         id="flowPara3057-7-3" /></flowRoot>    <flowRoot
       xml:space="preserve"
       id="flowRoot2987-8-6-0-1"
       style="font-style:normal;font-variant:normal;font-weight:normal;font-stretch:normal;font-size:12px;line-height:125%;font-family:Lavi;-inkscape-font-specification:Lavi;letter-spacing:0px;word-spacing:0px;fill:#000000;fill-opacity:1;stroke:none"
       transform="matrix(1.0270069,0,0,1.0526176,205.85183,2045.348)"><flowRegion
         id="flowRegion2989-57-9-5-4"><rect
           id="rect2991-1-7-6-9"
           width="697.53107"
           height="220.44458"
           x="120.55251"
           y="265.53046"
           style="font-style:normal;font-variant:normal;font-weight:normal;font-stretch:normal;font-family:Lavi;-inkscape-font-specification:Lavi" /></flowRegion><flowPara
         style="font-size:72px;text-align:center;text-anchor:middle"
         id="flowPara3017-3-3-0-3">Best ... Kafe ...</flowPara><flowPara
         style="font-size:64px;text-align:center;text-anchor:middle"
         id="flowPara3149">Ever !</flowPara><flowPara
         style="font-size:48px;text-align:center;text-anchor:middle"
         id="flowPara3057-7-3-2" /></flowRoot>    <flowRoot
       xml:space="preserve"
       id="flowRoot2987-4"
       style="font-size:12px;font-style:normal;font-variant:normal;font-weight:normal;font-stretch:normal;line-height:125%;letter-spacing:0px;word-spacing:0px;fill:#000000;fill-opacity:1;stroke:none;font-family:Lavi;-inkscape-font-specification:Lavi"
       transform="translate(178.98487,2312.4457)"><flowRegion
         id="flowRegion2989-3"><rect
           id="rect2991-15"
           width="676.55792"
           height="400.5246"
           x="120.55251"
           y="265.53046"
           style="font-style:normal;font-variant:normal;font-weight:normal;font-stretch:normal;font-family:Lavi;-inkscape-font-specification:Lavi" /></flowRegion><flowPara
         style="font-size:48px;text-align:center;text-anchor:middle"
         id="flowPara3195">C'est tout ce dont</flowPara><flowPara
         style="font-size:48px;text-align:center;text-anchor:middle"
         id="flowPara3052">j'avais besoin avant de </flowPara><flowPara
         style="font-size:48px;text-align:center;text-anchor:middle"
         id="flowPara3058">bosser toute la nuit </flowPara><flowPara
         style="font-size:48px;text-align:center;text-anchor:middle"
         id="flowPara3060">sur la meilleure potion</flowPara><flowPara
         style="font-size:48px;text-align:center;text-anchor:middle"
         id="flowPara3062">pour le concours de</flowPara><flowPara
         style="font-size:48px;text-align:center;text-anchor:middle"
         id="flowPara3064">demain</flowPara></flowRoot>    <flowRoot
       xml:space="preserve"
       id="flowRoot2987-4-6"
       style="font-size:12px;font-style:normal;font-variant:normal;font-weight:normal;font-stretch:normal;line-height:125%;letter-spacing:0px;word-spacing:0px;fill:#000000;fill-opacity:1;stroke:none;font-family:Lavi;-inkscape-font-specification:Lavi"
       transform="translate(1782.1297,3155.1742)"><flowRegion
         id="flowRegion2989-3-2"><rect
           id="rect2991-15-0"
           width="676.55792"
           height="400.5246"
           x="120.55251"
           y="265.53046"
           style="font-style:normal;font-variant:normal;font-weight:normal;font-stretch:normal;font-family:Lavi;-inkscape-font-specification:Lavi" /></flowRegion><flowPara
         style="font-size:48px;text-align:center;text-anchor:middle"
         id="flowPara3195-9">à suivre ...</flowPara></flowRoot>  </g>
</svg>
