<?xml version="1.0" encoding="UTF-8" standalone="no"?>
<!-- Created with Inkscape (http://www.inkscape.org/) -->

<svg
   xmlns:dc="http://purl.org/dc/elements/1.1/"
   xmlns:cc="http://creativecommons.org/ns#"
   xmlns:rdf="http://www.w3.org/1999/02/22-rdf-syntax-ns#"
   xmlns:svg="http://www.w3.org/2000/svg"
   xmlns="http://www.w3.org/2000/svg"
   xmlns:xlink="http://www.w3.org/1999/xlink"
   xmlns:sodipodi="http://sodipodi.sourceforge.net/DTD/sodipodi-0.dtd"
   xmlns:inkscape="http://www.inkscape.org/namespaces/inkscape"
   id="svg2"
   version="1.1"
   inkscape:version="0.91 r13725"
   width="1100"
   height="765"
   sodipodi:docname="Pepper-and-Carrot_by-David-Revoy_E03.svg">
  <metadata
     id="metadata8">
    <rdf:RDF>
      <cc:Work
         rdf:about="">
        <dc:format>image/svg+xml</dc:format>
        <dc:type
           rdf:resource="http://purl.org/dc/dcmitype/StillImage" />
        <dc:title />
      </cc:Work>
    </rdf:RDF>
  </metadata>
  <defs
     id="defs6">
    <filter
       id="filter3797"
       style="color-interpolation-filters:sRGB;"
       inkscape:label="Drop Shadow">
      <feFlood
         id="feFlood3799"
         flood-opacity="0.8"
         flood-color="rgb(0,0,0)"
         result="flood" />
      <feComposite
         id="feComposite3801"
         in2="SourceGraphic"
         in="flood"
         operator="in"
         result="composite1" />
      <feGaussianBlur
         id="feGaussianBlur3803"
         in="composite"
         stdDeviation="10"
         result="blur" />
      <feOffset
         id="feOffset3805"
         dx="8"
         dy="10"
         result="offset" />
      <feComposite
         id="feComposite3807"
         in2="offset"
         in="SourceGraphic"
         operator="over"
         result="composite2" />
    </filter>
    <filter
       id="filter3836"
       style="color-interpolation-filters:sRGB;"
       inkscape:label="Drop Shadow">
      <feFlood
         id="feFlood3838"
         flood-opacity="0.8"
         flood-color="rgb(0,0,0)"
         result="flood" />
      <feComposite
         id="feComposite3840"
         in2="SourceGraphic"
         in="flood"
         operator="in"
         result="composite1" />
      <feGaussianBlur
         id="feGaussianBlur3842"
         in="composite"
         stdDeviation="5"
         result="blur" />
      <feOffset
         id="feOffset3844"
         dx="8"
         dy="10"
         result="offset" />
      <feComposite
         id="feComposite3846"
         in2="offset"
         in="SourceGraphic"
         operator="over"
         result="composite2" />
    </filter>
    <filter
       style="color-interpolation-filters:sRGB"
       inkscape:label="Drop Shadow"
       id="filter3777">
      <feFlood
         flood-opacity="0.498039"
         flood-color="rgb(0,0,0)"
         result="flood"
         id="feFlood3779" />
      <feComposite
         in="flood"
         in2="SourceGraphic"
         operator="in"
         result="composite1"
         id="feComposite3781" />
      <feGaussianBlur
         in="composite1"
         stdDeviation="6.8"
         result="blur"
         id="feGaussianBlur3783" />
      <feOffset
         dx="0"
         dy="5.96042"
         result="offset"
         id="feOffset3785" />
      <feComposite
         in="SourceGraphic"
         in2="offset"
         operator="over"
         result="fbSourceGraphic"
         id="feComposite3787" />
      <feColorMatrix
         result="fbSourceGraphicAlpha"
         in="fbSourceGraphic"
         values="0 0 0 -1 0 0 0 0 -1 0 0 0 0 -1 0 0 0 0 1 0"
         id="feColorMatrix3921" />
      <feFlood
         id="feFlood3923"
         flood-opacity="0.552941"
         flood-color="rgb(0,0,0)"
         result="flood"
         in="fbSourceGraphic" />
      <feComposite
         id="feComposite3925"
         in2="fbSourceGraphic"
         in="flood"
         operator="in"
         result="composite1" />
      <feGaussianBlur
         id="feGaussianBlur3927"
         in="composite1"
         stdDeviation="7.8"
         result="blur" />
      <feOffset
         id="feOffset3929"
         dx="0"
         dy="6"
         result="offset" />
      <feComposite
         id="feComposite3931"
         in2="offset"
         in="fbSourceGraphic"
         operator="over"
         result="fbSourceGraphic" />
      <feColorMatrix
         result="fbSourceGraphicAlpha"
         in="fbSourceGraphic"
         values="0 0 0 -1 0 0 0 0 -1 0 0 0 0 -1 0 0 0 0 1 0"
         id="feColorMatrix4101" />
      <feFlood
         id="feFlood4103"
         flood-opacity="0.494118"
         flood-color="rgb(0,0,0)"
         result="flood"
         in="fbSourceGraphic" />
      <feComposite
         id="feComposite4105"
         in2="fbSourceGraphic"
         in="flood"
         operator="in"
         result="composite1" />
      <feGaussianBlur
         id="feGaussianBlur4107"
         in="composite1"
         stdDeviation="13.5"
         result="blur" />
      <feOffset
         id="feOffset4109"
         dx="0"
         dy="2.10938"
         result="offset" />
      <feComposite
         id="feComposite4111"
         in2="offset"
         in="fbSourceGraphic"
         operator="over"
         result="composite2" />
    </filter>
    <filter
       style="color-interpolation-filters:sRGB;"
       inkscape:label="Drop Shadow"
       id="filter3738">
      <feFlood
         flood-opacity="0.823529"
         flood-color="rgb(0,0,0)"
         result="flood"
         id="feFlood3740" />
      <feComposite
         in="flood"
         in2="SourceGraphic"
         operator="in"
         result="composite1"
         id="feComposite3742" />
      <feGaussianBlur
         in="composite1"
         stdDeviation="3.1"
         result="blur"
         id="feGaussianBlur3744" />
      <feOffset
         dx="2.6"
         dy="3.6"
         result="offset"
         id="feOffset3746" />
      <feComposite
         in="SourceGraphic"
         in2="offset"
         operator="over"
         result="composite2"
         id="feComposite3748" />
    </filter>
  </defs>
  <sodipodi:namedview
     pagecolor="#ffffff"
     bordercolor="#666666"
     borderopacity="1"
     objecttolerance="10"
     gridtolerance="10"
     guidetolerance="10"
     inkscape:pageopacity="0"
     inkscape:pageshadow="2"
     inkscape:window-width="1366"
     inkscape:window-height="705"
     id="namedview4"
     showgrid="false"
     inkscape:zoom="0.63908467"
     inkscape:cx="228.6413"
     inkscape:cy="352.75083"
     inkscape:window-x="-8"
     inkscape:window-y="-8"
     inkscape:window-maximized="1"
     inkscape:current-layer="svg2" />
  <g
     inkscape:groupmode="layer"
     id="layer1"
     inkscape:label="artwork"
     sodipodi:insensitive="true" />
  <image
     sodipodi:absref="D:\T\oth\david\trns\ep3\peppercarrot_ep03_translation-master\peppercarrot_ep03_translation-master_si\en\..\gfx_Pepper-and-Carrot_by-David-Revoy_E03.png"
     xlink:href="../gfx_Pepper-and-Carrot_by-David-Revoy_E03.png"
     y="0"
     x="0"
     id="image10"
     height="765"
     width="1100" />
  <g
     inkscape:groupmode="layer"
     id="layer2"
     inkscape:label="txt">
    <path
       style="fill:#ffffff;fill-opacity:1;filter:url(#filter3777)"
       d="m 586.99761,680.54691 c -0.11499,-0.115 0.24072,-0.39964 0.79046,-0.63253 0.95808,-0.40586 0.97491,-0.44164 0.40562,-0.86187 -0.32671,-0.24114 -0.98887,-0.43844 -1.4715,-0.43844 -0.48267,0 -0.80283,-0.12093 -0.71146,-0.26873 0.0913,-0.1478 -0.27921,-0.36506 -0.82341,-0.48278 l -0.98951,-0.21404 0.76497,-0.31588 c 0.42074,-0.17373 1.78762,-0.57783 3.03752,-0.89801 1.2499,-0.32018 3.76877,-1.26888 5.59748,-2.10824 1.82872,-0.83936 3.44115,-1.5261 3.58313,-1.5261 0.14201,0 1.55253,-1.22496 3.13449,-2.72212 3.28776,-3.11155 4.19101,-4.64553 5.14532,-8.73831 0.65748,-2.81977 0.83263,-9.34902 0.32457,-12.10071 -0.65672,-3.55704 -0.97791,-4.66185 -2.0922,-7.19705 l -1.19669,-2.72268 1.02481,-0.96654 c 0.77308,-0.72911 1.02485,-1.22284 1.02485,-2.0098 0,-2.61068 -3.07809,-3.91509 -4.91173,-2.08146 l -0.61234,0.61233 -1.32527,-0.77667 c -3.73943,-2.19146 -8.26644,-2.30433 -12.13732,-0.30262 -1.54543,0.79918 -2.99961,1.88013 -3.74812,2.78616 -1.73535,2.10054 -6.94613,9.15835 -6.94613,9.40828 0,0.0773 1.13599,0.76056 2.52441,1.51828 3.94245,2.15156 4.95353,3.00339 5.93337,4.99887 0.8183,1.66648 0.87399,2.0192 0.86133,5.45358 -0.0119,3.20904 -0.12044,3.97489 -0.86142,6.07595 -1.78802,5.06997 -5.71743,9.11161 -11.36072,11.68523 -3.33039,1.51884 -7.11926,2.28003 -11.35209,2.28067 -6.20711,9.1e-4 -11.2707,-1.27754 -15.32053,-3.86818 -1.53125,-0.97954 -1.60059,-1.08162 -1.55261,-2.28539 0.0412,-1.03198 -0.10333,-1.39216 -0.7982,-1.98987 -0.46664,-0.4014 -1.0993,-0.72982 -1.4059,-0.72982 -0.76347,0 -1.04195,-0.4443 -1.72614,-2.7539 -0.47404,-1.60026 -0.58671,-2.91574 -0.57655,-6.73175 0.0147,-5.53634 0.38787,-7.22734 2.51777,-11.41084 1.08966,-2.14029 1.92987,-3.25044 4.11074,-5.4313 1.50761,-1.50762 2.86286,-2.74114 3.0117,-2.74114 0.1488,0 0.91598,-0.40933 1.70488,-0.90963 1.20054,-0.76135 1.33943,-0.94059 0.85208,-1.09964 -2.78902,-0.9102 -4.47469,-2.14397 -5.40706,-3.95751 -0.44347,-0.86258 -0.66945,-2.01076 -0.76534,-3.88881 -0.1201,-2.35254 -0.0571,-2.7926 0.53765,-3.75491 1.46152,-2.36479 4.13054,-3.51457 8.17397,-3.52124 4.66278,-0.008 9.27109,2.12251 9.27109,4.28556 0,1.00416 0.70041,1.83059 1.55146,1.83059 0.32437,0 1.17377,0.56676 1.88755,1.25947 1.37921,1.33846 2.26575,1.80041 3.45528,1.80041 1.34932,0 2.86161,0.95349 3.21616,2.02778 0.5065,1.53471 -0.41125,2.8088 -2.46073,3.41614 -1.35657,0.40201 -4.76724,1.35574 -7.34373,2.05353 -9.78638,2.65045 -14.05712,5.29524 -16.34151,10.11995 -1.0724,2.26489 -1.25538,3.34639 -1.23874,7.32069 0.0129,3.08319 0.0857,3.49973 0.86696,4.95974 2.19428,4.10071 6.93153,6.20761 13.95951,6.20848 5.25343,6.2e-4 9.77647,-1.50606 12.97631,-4.32269 1.56608,-1.37851 2.93499,-3.89785 2.93499,-5.40155 0,-0.50155 0.26715,-1.13193 0.61197,-1.44398 0.77244,-0.69904 0.81525,-2.4207 0.0765,-3.07564 -0.29451,-0.2611 -1.2928,-0.984 -2.21842,-1.60644 l -1.68294,-1.13171 -3.46902,0 c -3.27647,0 -3.50152,-0.0401 -4.05435,-0.72237 -0.32193,-0.39731 -0.58533,-0.90104 -0.58533,-1.11941 0,-0.40895 1.59289,-2.48304 4.57793,-5.96093 0.9389,-1.09391 2.49516,-3.15934 3.45832,-4.58983 5.94423,-8.82847 11.52509,-13.22259 18.48487,-14.55422 5.43411,-1.03971 11.05565,-0.16683 15.24635,2.36737 1.62972,0.98552 4.73713,3.84595 4.75133,4.37368 0.005,0.17404 0.41777,0.85733 0.91796,1.51841 0.5002,0.66108 0.90946,1.38548 0.90946,1.60977 0,0.2243 0.25468,0.99152 0.56599,1.70493 1.18901,2.72505 1.57594,5.19991 1.57594,10.08023 0,3.19488 -0.14731,5.27035 -0.45899,6.46697 -0.25244,0.96918 -0.45898,2.00806 -0.45898,2.30862 0,0.30056 -0.41309,0.91453 -0.91797,1.36438 -0.95529,0.85118 -1.11116,1.41039 -0.63902,2.29262 0.20357,0.38035 -0.0675,1.22263 -1.00307,3.11627 -1.11591,2.25873 -2.2093,4.01706 -5.70164,9.1688 -1.51121,2.2293 -3.14409,3.98285 -3.70873,3.98285 -0.3163,0 -0.57511,0.13769 -0.57511,0.30599 0,0.33354 0.88259,0.42234 3.14648,0.3166 0.80494,-0.0376 2.28996,0.0276 3.30006,0.14479 1.61997,0.18802 1.81479,0.28163 1.65222,0.79385 -0.16331,0.5146 -0.0165,0.5818 1.28977,0.59042 2.81663,0.0186 0.67452,0.75513 -4.23877,1.45745 -2.57991,0.36878 -6.38586,1.08455 -8.45768,1.59059 -3.22353,0.78737 -4.35269,0.92008 -7.8282,0.92008 -2.23372,0 -4.15542,-0.0941 -4.27041,-0.20908 z m -29.13359,-44.74089 c 0.0937,-0.15159 1.20336,-0.59629 2.46596,-0.98821 1.26261,-0.39193 2.29562,-0.79189 2.29562,-0.88881 0,-0.39544 -3.41269,-4.27769 -4.46762,-5.08232 -1.02916,-0.78499 -1.36633,-0.86588 -3.62471,-0.86962 -1.98896,-0.003 -2.67214,0.11902 -3.3951,0.60785 l -0.90511,0.61198 2.14192,0.153 c 2.22515,0.15893 3.04312,0.53659 4.11579,1.90028 0.51033,0.64877 0.60155,1.14359 0.51798,2.80946 -0.075,1.49556 0,2.02201 0.29173,2.02201 0.21624,0 0.46985,-0.12403 0.56354,-0.27562 z m -73.72453,43.30192 c -1.89404,-0.4606 -4.168,-1.69022 -5.93144,-3.20739 l -1.34158,-1.15423 0.8061,-0.80611 c 1.31202,-1.312 0.99474,-3.18197 -0.65586,-3.86567 -0.60748,-0.25163 -1.11609,-0.2695 -1.67054,-0.0587 -0.72746,0.27657 -0.82877,0.2176 -1.15915,-0.67466 -0.19911,-0.53775 -0.40448,-2.65835 -0.45638,-4.71245 -0.0851,-3.36799 -0.0119,-3.99896 0.74533,-6.42576 0.46183,-1.48008 1.15278,-3.37952 1.53548,-4.22099 0.3827,-0.84147 0.88538,-1.96714 1.11707,-2.50148 l 0.42126,-0.97153 -0.83599,0.25217 c -0.45981,0.13869 -1.316,0.46007 -1.90267,0.71416 -0.69885,0.30269 -1.24422,0.36698 -1.58157,0.18644 -0.35785,-0.19153 -1.01236,-0.044 -2.1462,0.48387 -0.89722,0.41769 -1.92455,0.76078 -2.28295,0.76242 -0.35841,0.002 -1.5939,0.47722 -2.74552,1.05683 -1.15165,0.57962 -2.13825,1.00947 -2.1925,0.95524 -0.0542,-0.0542 0.80371,-0.8166 1.90655,-1.69415 1.10282,-0.87755 2.17614,-1.82595 2.38513,-2.10755 1.54922,-2.08742 6.34626,-5.09248 12.78913,-8.01164 4.15199,-1.8812 4.8155,-2.18731 10.08105,-4.65108 1.59879,-0.74808 3.10147,-1.42364 3.33928,-1.50125 0.58003,-0.18927 -3.56406,-4.29119 -5.04557,-4.99421 -1.39418,-0.66159 -2.81231,-0.42921 -3.97895,0.65201 l -0.86396,0.80068 1.33022,0.5201 c 1.73811,0.67957 2.15909,1.31414 2.15909,3.25454 0,1.3797 -0.13011,1.73101 -0.9415,2.54242 -0.82748,0.82747 -1.14932,0.9415 -2.6573,0.9415 -3.58983,0 -5.58426,-1.97655 -5.57786,-5.52791 0.005,-2.8097 2.01998,-6.40565 3.58933,-6.40565 1.07904,0 1.82003,-0.49602 2.03792,-1.36422 0.25122,-1.00093 1.18084,-1.24564 4.56419,-1.20145 l 2.69775,0.0352 3.88101,3.83597 c 3.11533,3.07914 4.13436,3.90375 5.16509,4.17949 1.48833,0.39817 2.54081,1.55913 2.54081,2.80271 0,1.53388 -2.83383,3.54802 -8.1703,5.80707 -4.33577,1.83543 -6.38605,3.14537 -8.86596,5.66452 -3.03777,3.08584 -4.45401,5.35951 -5.90718,9.48347 -0.47202,1.33958 -0.49276,1.70701 -0.1522,2.69765 0.71458,2.07856 2.2466,3.2648 5.93447,4.59509 4.65902,1.6806 9.29083,0.80482 12.12239,-2.29211 0.67868,-0.7423 2.16989,-2.6932 3.3138,-4.33533 1.1439,-1.64214 2.35345,-3.13215 2.68789,-3.31113 0.87709,-0.46941 1.73355,0.20444 2.99814,2.35893 2.34562,3.99616 3.11842,4.97988 4.54984,5.79155 4.95772,2.81122 9.8797,2.59674 13.16305,-0.57358 1.89242,-1.82727 2.50064,-3.16368 2.49185,-5.47523 -0.004,-1.05854 -0.14611,-2.4754 -0.31578,-3.14857 -0.16964,-0.67318 -0.37838,-1.54917 -0.46384,-1.94666 -0.55516,-2.58187 -4.15796,-7.01435 -6.92597,-8.52088 -0.95976,-0.52237 -1.46676,-0.99999 -1.46676,-1.38178 0,-1.13192 -0.58685,-1.76718 -1.63251,-1.76718 -0.54943,0 -1.14069,0.1417 -1.31388,0.31489 -0.21588,0.21586 -1.41391,-0.12649 -3.80956,-1.08861 -3.38485,-1.3594 -5.17761,-2.55211 -5.17761,-3.44461 0,-0.65787 1.75861,-2.15918 3.65553,-3.12069 0.93461,-0.47373 2.04351,-1.23875 2.46425,-1.70002 0.42073,-0.46128 1.77229,-1.64549 3.00343,-2.63157 1.70353,-1.36444 2.47753,-1.7929 3.2388,-1.7929 0.72048,0 1.22386,-0.25088 1.79934,-0.89673 0.97041,-1.08912 2.66002,-1.41326 5.92718,-1.13708 5.61897,0.47497 8.30879,3.99206 7.99087,10.4485 -0.15159,3.07858 -1.1291,5.79311 -2.40893,6.68953 -1.06261,0.7443 -2.48738,0.63667 -3.3212,-0.25089 -0.75916,-0.80809 -0.75815,-1.69307 0.005,-4.7557 0.8788,-3.52521 0.64747,-5.24635 -0.86509,-6.43613 -1.7322,-1.36254 -5.64393,-0.34724 -9.24998,2.40085 -1.2622,0.96189 -2.27714,1.88467 -2.25541,2.05062 0.0217,0.16595 0.85453,0.58238 1.85071,0.92541 0.99615,0.34303 2.23889,0.92823 2.76164,1.30045 0.52272,0.37222 1.07919,0.67677 1.23659,0.67677 0.62303,0 6.22427,5.89913 7.74568,8.15761 5.61808,8.33981 6.62619,15.62383 3.14354,22.7135 -1.32588,2.69915 -4.36294,6.0576 -6.63802,7.34045 -3.00916,1.69677 -8.85168,2.53903 -9.2778,1.33748 -0.54717,-1.54295 -1.86258,-2.04177 -2.90248,-1.10066 -0.52043,0.47099 -0.64426,0.46726 -1.80081,-0.0543 -1.73388,-0.78187 -4.17932,-3.55773 -5.74405,-6.52016 -0.7281,-1.37846 -1.45198,-2.42708 -1.60861,-2.33026 -0.15667,0.0968 -0.51113,0.6148 -0.78774,1.15108 -0.84585,1.63997 -3.96341,5.56099 -5.48953,6.90433 -1.78419,1.57051 -4.63983,2.99489 -6.82,3.40178 -2.16784,0.40458 -5.92428,0.34875 -7.83744,-0.1165 z m 279.52072,-0.0602 c -6.84668,-1.80633 -12.27159,-7.66293 -14.07817,-15.19849 -1.16325,-4.85209 -0.69328,-12.9772 1.11514,-19.28002 2.34391,-8.16898 7.09432,-16.22344 13.53303,-22.94558 l 1.97831,-2.06542 -4.34624,0 c -4.89352,0 -6.34198,-0.42712 -7.22243,-2.12973 -1.49546,-2.89192 0.13595,-4.1872 5.67284,-4.504 l 3.31533,-0.18969 1.09771,0.9638 c 0.65637,0.5763 1.43172,0.96334 1.92852,0.96265 0.91319,-10e-4 2.81975,-1.0319 2.81975,-1.5243 0,-0.44005 4.50688,-0.34917 5.79689,0.11689 1.42833,0.51604 2.21506,1.67087 2.39189,3.51109 0.24402,2.53985 0.0217,2.90607 -3.2142,5.29603 -6.06341,4.47817 -11.14986,10.58938 -14.38741,17.28607 -1.39445,2.88432 -1.39843,2.90188 -1.53964,6.81264 -0.16315,4.5183 0.24791,6.8985 1.89367,10.96498 0.60246,1.48857 0.9016,2.6065 0.72645,2.71475 -0.16377,0.10122 -0.49705,0.66097 -0.74062,1.24388 -0.88519,2.1186 0.51865,4.06726 2.93015,4.06726 1.07298,0 1.39837,0.18804 2.66067,1.53754 0.79101,0.84565 2.24354,2.02677 3.22784,2.62471 1.48258,0.9006 2.16989,1.11465 4.00539,1.24737 2.21028,0.15982 2.21891,0.15742 3.53766,-0.98401 0.72706,-0.62933 2.26845,-2.55499 3.4253,-4.27924 1.15685,-1.72425 2.48754,-3.43719 2.95708,-3.80652 1.07858,-0.84842 2.40589,-0.65214 3.42416,0.50635 0.65304,0.74293 0.71085,1.03881 0.58288,2.98372 -0.3722,5.65712 -5.93104,11.19584 -13.81585,13.76587 -2.81387,0.91716 -6.86394,1.04332 -9.6761,0.3014 z m -44.67436,-10.28179 c -0.75732,-0.15722 -1.92772,-0.32444 -2.6009,-0.37158 -2.07886,-0.14559 -3.51887,-0.5394 -3.51887,-0.96232 0,-0.22237 -0.28298,-0.49412 -0.62881,-0.60389 -0.86157,-0.27345 -0.61889,-0.75879 0.76745,-1.53493 1.76137,-0.98606 4.7976,-3.50158 4.60418,-3.81454 -0.0936,-0.1514 0.0868,-0.4128 0.40094,-0.5809 0.3141,-0.16809 3.16842,-3.9221 6.34297,-8.34222 7.21919,-10.05173 7.30881,-10.2583 7.08088,-16.32094 -0.20002,-5.31973 -1.05083,-8.70696 -3.36897,-13.41256 l -1.63306,-3.31495 0.5431,-1.12189 c 0.65873,-1.36081 0.47973,-2.51444 -0.54995,-3.54413 -0.86289,-0.8629 -1.70017,-1.06911 -2.97657,-0.73309 -0.82002,0.21587 -1.09914,0.0365 -3.44005,-2.21089 -4.2459,-4.07623 -8.95638,-6.71842 -14.48584,-8.12535 -1.87042,-0.4759 -3.34204,-0.58009 -7.95571,-0.56327 -5.35673,0.0195 -5.8502,0.0722 -9.18697,0.98009 -4.32769,1.17755 -8.46313,3.07389 -12.01906,5.51142 l -2.69371,1.8465 1.07791,0.82216 c 1.50874,1.15077 4.39999,1.99102 7.94723,2.30961 3.95821,0.3555 7.78004,1.32976 10.43776,2.6608 10.21363,5.11519 13.93831,11.49859 13.52504,23.17939 -0.17062,4.82201 -0.74743,7.27524 -2.39301,10.17713 -3.02479,5.33405 -8.00057,8.81613 -14.60356,10.21962 -2.42631,0.51572 -3.63775,0.59866 -6.77909,0.46413 -3.44632,-0.14759 -4.05199,-0.26241 -6.11977,-1.16022 -3.32166,-1.44221 -5.93334,-3.61919 -8.03316,-6.69613 -0.51684,-0.75733 -0.97772,-1.42584 -1.02423,-1.48558 -0.0465,-0.0598 -0.53805,0.42218 -1.09232,1.07096 -2.47701,2.89933 -5.70767,6.03215 -6.79641,6.59063 -3.82253,1.96078 -9.60269,2.00048 -14.15779,0.0972 -1.05141,-0.43931 -1.08583,-0.49695 -0.6106,-1.02209 0.95288,-1.05292 0.586,-2.58673 -0.78881,-3.29766 -0.74218,-0.3838 -1.07574,-0.40408 -1.78866,-0.10877 -0.48202,0.19965 -0.95909,0.62359 -1.06016,0.94207 -0.1011,0.31849 -0.34665,0.57848 -0.54567,0.57776 -0.19901,-6.1e-4 -2.03274,-1.55244 -4.07491,-3.44827 -4.76813,-4.42642 -4.92425,-4.51125 -6.70783,-3.64472 -3.09651,1.5044 -5.26013,0.30878 -5.38892,-2.97794 -0.0714,-1.82201 0.95604,-3.16488 7.04524,-9.20842 5.88129,-5.83716 12.59288,-11.69349 24.25689,-21.16581 l 7.53663,-6.12047 -0.98259,-3.10806 c -2.09443,-6.62496 -3.86485,-8.65261 -7.84632,-8.9864 -1.72844,-0.14491 -2.3287,-0.33145 -2.8978,-0.90057 -0.80249,-0.80248 -1.28448,-0.87742 -2.39351,-0.37212 -2.23978,1.02051 -1.36257,4.24415 1.15489,4.24415 0.64289,0 0.80555,0.18289 0.97739,1.09896 0.3219,1.71584 -0.0835,4.08232 -0.91451,5.33803 -0.44646,0.67466 -1.33484,1.42002 -2.18035,1.82931 -1.23482,0.59777 -1.75172,0.66847 -3.84059,0.52529 -2.11882,-0.14522 -2.56326,-0.28387 -3.63759,-1.13476 -1.73701,-1.37572 -2.48833,-3.22954 -2.68221,-6.61788 -0.19513,-3.40973 0.33359,-5.27639 2.04523,-7.22091 2.31208,-2.62667 6.26852,-3.90381 12.10256,-3.90672 5.49935,-0.003 8.41481,1.14322 11.95868,4.70054 2.33932,2.34822 3.32788,3.84995 4.87113,7.39999 l 0.99144,2.28065 1.95199,-1.44214 c 7.46915,-5.51831 16.18971,-9.76054 24.06372,-11.70614 l 2.80304,-0.6926 0.81788,0.64334 c 1.19758,0.94203 2.3581,0.83204 3.32322,-0.31494 l 0.80634,-0.95827 5.57013,0.17244 c 3.993,0.12362 6.30655,0.34589 8.17103,0.78501 11.94133,2.81244 18.9956,9.57599 22.45881,21.53324 1.50473,5.1953 1.77773,7.52802 1.93868,16.56494 0.13347,7.49521 0.0865,8.77491 -0.38787,10.55661 -1.04523,3.92628 -3.68465,8.55372 -8.7749,15.38426 -1.8456,2.47661 -3.33105,4.60297 -3.30101,4.72523 0.03,0.12226 -0.16419,0.34479 -0.43172,0.4945 -0.26752,0.14971 -0.4864,0.4719 -0.4864,0.71598 0,0.47129 0.0347,0.48915 1.22396,0.63047 2.5711,0.30553 3.54932,0.58404 3.99814,1.1383 0.46106,0.56938 0.62783,0.58817 2.27855,0.25666 2.2256,-0.44697 4.63842,-0.46185 4.90515,-0.0303 0.11129,0.18009 0.48407,0.43164 0.82837,0.55901 0.57627,0.21318 0.54053,0.28439 -0.44993,0.89652 -0.65539,0.40507 -1.57599,0.66495 -2.35544,0.66495 -0.70374,0 -1.65136,0.18833 -2.10581,0.41851 -1.23304,0.62454 -5.51664,1.49693 -6.33804,1.29078 -0.39432,-0.099 -2.58153,0.16442 -4.86044,0.58532 -4.43917,0.81989 -4.80467,0.84117 -6.91615,0.40281 z m -33.93433,-18.73664 c 4.79151,-1.45432 8.20705,-4.86374 9.44474,-9.42784 0.2626,-0.9684 0.34369,-2.63815 0.24519,-5.04881 -0.24461,-5.98638 -1.79224,-9.25397 -5.20111,-10.98138 -0.84257,-0.42695 -4.717,-1.85155 -8.60988,-3.16578 -3.89288,-1.31423 -8.41328,-3.01349 -10.04533,-3.77614 l -2.96739,-1.38665 -15.75132,13.66783 c -8.66322,7.5173 -15.7617,13.75693 -15.77443,13.86585 -0.0236,0.2027 4.42203,3.13532 7.16764,4.72817 1.52954,0.88736 1.53132,0.88759 6.88474,0.88759 4.50921,0 5.60235,-0.0919 6.92236,-0.58195 2.67033,-0.99134 4.21961,-2.36883 6.4067,-5.69632 1.49561,-2.27547 2.3119,-3.21619 3.17133,-3.65463 1.10189,-0.56215 1.20679,-0.56558 2.19051,-0.0716 1.40213,0.7041 2.20572,2.00901 3.34724,5.43551 0.79976,2.40058 1.16423,3.06406 2.12745,3.87274 0.6393,0.53672 1.62544,1.14343 2.1914,1.34825 1.42768,0.51665 6.52928,0.50747 8.25016,-0.0148 z M 168.54678,662.6857 c -5.58717,-1.00347 -12.63914,-4.54669 -17.74009,-8.91342 -0.86088,-0.73697 -0.92661,-0.90904 -0.63759,-1.66921 0.73115,-1.92308 -0.66153,-4.74436 -2.7739,-5.61933 -0.50845,-0.21061 -1.5221,-0.31556 -2.25257,-0.23322 -1.29819,0.14632 -1.34884,0.11791 -2.24797,-1.26123 -3.29872,-5.05979 -4.6762,-9.87747 -4.67423,-16.34789 0.002,-4.57752 0.55138,-8.507 1.69926,-12.14069 1.24206,-3.93181 1.82376,-5.10077 2.64021,-5.30568 0.39879,-0.10009 1.13159,-0.6063 1.62845,-1.12491 0.75607,-0.78917 0.91006,-1.21254 0.94438,-2.59648 0.0362,-1.46107 0.18786,-1.82897 1.3025,-3.16029 5.56952,-6.65217 13.35351,-11.15422 22.68884,-13.12262 3.74427,-0.78949 14.65598,-0.78446 18.35933,0.008 7.90688,1.69296 14.22654,5.04452 19.97897,10.59561 l 3.03799,2.93165 -0.38531,1.28604 c -0.77171,2.57575 1.06543,5.24246 3.98937,5.79079 1.28101,0.24023 1.43509,0.37549 2.21132,1.94116 1.17969,2.37944 2.01642,4.64511 2.82512,7.64972 l 0.70004,2.60091 0.81623,-1.83594 c 0.44892,-1.00976 0.97747,-2.20466 1.17454,-2.65533 0.19707,-0.45067 0.46275,-0.75485 0.5904,-0.67596 0.12765,0.0789 0.3199,-0.20643 0.42723,-0.63405 0.10732,-0.42762 0.33847,-0.77748 0.51365,-0.77748 0.45472,0 0.0582,9.12551 -0.50529,11.62757 -0.58793,2.61081 -2.97512,8.31107 -3.98134,9.5069 -0.43673,0.51902 -0.79405,1.08008 -0.79405,1.2468 0,0.17106 -0.28701,0.21204 -0.65874,0.0941 -0.51888,-0.16469 -0.86322,0.0345 -1.62185,0.93809 -0.84907,1.01134 -1.03455,1.10255 -1.56659,0.77028 -0.67638,-0.42241 -1.35463,-1.6839 -1.35463,-2.51951 0,-0.30303 -0.20654,-0.55097 -0.45898,-0.55097 -0.35531,0 -0.45792,-0.39741 -0.4543,-1.75944 0.003,-1.24886 0.0908,-1.62624 0.30131,-1.30045 0.21762,0.33675 0.29786,0.11796 0.3013,-0.82155 0.002,-0.70429 0.13441,-1.62174 0.29297,-2.03877 0.41296,-1.08617 -0.13677,-7.49268 -0.89671,-10.45019 -0.76891,-2.99242 -2.43454,-6.61067 -4.20264,-9.12946 -4.71592,-6.71815 -13.28057,-12.28805 -21.9893,-14.30046 -3.89274,-0.89952 -9.65296,-0.70875 -13.43716,0.44503 -7.88921,2.40537 -13.23332,8.40579 -15.54076,17.44933 -0.5171,2.02667 -0.63574,3.47461 -0.65416,7.98347 -0.02,4.89631 0.0579,5.79656 0.70119,8.1087 2.34453,8.42618 8.37096,14.83237 16.10571,17.12061 3.39877,1.00549 9.14244,1.23775 11.85397,0.47934 2.88815,-0.80781 4.66588,-1.83148 6.61054,-3.80657 1.82247,-1.85098 3.22463,-4.15889 4.29026,-7.06163 0.89402,-2.43528 1.57134,-5.2712 1.57134,-6.57916 0,-0.96858 -0.0789,-1.10096 -0.53548,-0.89811 -3.29624,1.46456 -5.90011,2.06492 -9.56215,2.20467 -4.39015,0.16752 -6.4419,-0.22187 -9.70779,-1.84241 -2.56175,-1.27115 -4.91511,-3.79525 -5.70492,-6.11883 -0.78516,-2.3099 -0.59838,-6.22619 0.3943,-8.2674 1.50866,-3.10219 5.76409,-5.99591 10.42858,-7.09149 2.56267,-0.60191 7.02536,-0.60533 9.32196,-0.007 6.31054,1.64369 10.73041,7.32455 12.12918,15.58963 0.23155,1.36816 0.29685,3.73346 0.18164,6.57876 -0.15121,3.73451 -0.32749,4.93025 -1.10604,7.50245 -3.04983,10.07619 -10.7501,18.17025 -20.22075,21.25483 -2.63827,0.85929 -3.35932,0.95887 -7.80272,1.0776 -2.6927,0.0719 -5.63753,-0.002 -6.54407,-0.16521 z m 22.18954,-36.24642 c 2.31325,-0.77653 5.31476,-2.16669 5.31476,-2.46154 0,-0.39061 -1.29158,-2.51833 -2.06814,-3.40703 -0.46929,-0.53705 -1.60731,-1.32745 -2.52894,-1.75644 -3.25554,-1.51537 -9.60202,-0.897 -11.53851,1.12426 -0.7235,0.75517 -0.84678,1.13887 -0.84678,2.63543 0,3.22904 1.94468,4.57197 6.6778,4.61147 2.11465,0.0177 3.19635,-0.1441 4.98981,-0.74615 z m 235.26531,35.95525 c -3.32671,-0.33918 -7.35845,-1.47316 -10.70961,-3.01222 -8.1367,-3.73688 -13.93818,-10.53592 -16.35718,-19.16982 -0.83443,-2.97821 -0.9653,-4.00232 -1.1362,-8.89176 -0.47547,-13.60179 2.58772,-24.96397 9.15179,-33.94666 1.23788,-1.69397 1.739,-2.63639 1.627,-3.05989 -0.089,-0.33658 -0.17389,-14.03723 -0.18867,-30.44588 -0.0254,-28.15878 -0.0557,-29.77171 -0.53967,-28.72636 -1.1108,2.39919 -3.17739,4.00379 -5.63022,4.37161 -0.86372,0.12953 -2.48488,0.0229 -4.21478,-0.27727 -2.15478,-0.37386 -3.04726,-0.40984 -3.82211,-0.15411 -1.9646,0.64838 -2.13801,3.18757 -0.37435,5.48228 l 0.94331,1.22733 1.03216,-1.53268 c 1.59946,-2.37507 3.57342,-2.77886 5.91647,-1.21027 3.99548,2.67483 3.74231,7.4415 -0.48089,9.05436 -1.90732,0.7284 -7.0662,0.49723 -9.0878,-0.40723 -3.54724,-1.58701 -5.16984,-4.6464 -5.38302,-10.14965 -0.15195,-3.92218 0.19534,-6.09767 1.3462,-8.4327 0.98635,-2.00126 2.22582,-2.80855 5.85399,-3.81281 2.95815,-0.8188 2.97357,-0.81974 3.46581,-0.21185 1.00609,1.24247 3.35086,0.51692 3.77367,-1.16769 0.15131,-0.60293 0.59353,-0.82167 2.85791,-1.41378 2.77421,-0.72541 3.16728,-0.99016 5.47634,-3.68842 1.2465,-1.45661 2.09565,-1.8865 3.28546,-1.66329 1.06582,0.19995 1.75411,1.2176 2.3175,3.42653 0.47278,1.85364 0.50044,6.65553 0.2103,36.52193 l -0.26293,27.06983 6.5357,-6.37008 c 3.59467,-3.50354 9.12762,-9.07561 12.29546,-12.38237 6.28794,-6.5637 7.38972,-8.21706 8.732,-13.1037 0.55723,-2.02864 0.56433,-2.21129 0.0934,-2.40206 -0.43445,-0.176 -0.40694,-0.24607 0.1864,-0.47476 0.57398,-0.22123 0.66036,-0.41713 0.49246,-1.11681 -0.25097,-1.04571 -0.29213,-1.0941 -0.97277,-1.14425 -0.30192,-0.0222 -0.88326,-0.27462 -1.29191,-0.56083 -0.62254,-0.43605 -1.51917,-0.52039 -5.53243,-0.52039 -4.63845,0 -6.70675,-0.17718 -6.69742,-0.57373 0.006,-0.27714 3.24874,-1.48673 7.64522,-2.85221 2.10367,-0.65337 4.92642,-1.53933 6.27277,-1.9688 3.90646,-1.24612 3.73346,-1.21226 3.26303,-0.63851 -0.44662,0.54475 -0.24623,1.13743 0.38457,1.13743 0.21924,0 1.30963,-0.41308 2.42312,-0.91797 1.1135,-0.50488 2.2101,-0.91796 2.4369,-0.91796 0.75527,0 1.66271,1.35745 2.04547,3.05989 0.2081,0.92561 0.56942,1.9879 0.80292,2.36064 0.51568,0.82316 0.53508,1.88278 0.0763,4.16708 -0.30773,1.53236 -0.43402,1.73397 -1.08614,1.73397 -1.83847,0 -3.76513,1.95723 -3.76513,3.82486 0,0.50488 0.28004,1.3773 0.62229,1.9387 l 0.62232,1.02073 -1.68946,2.34514 c -2.68756,3.73061 -4.84514,5.95059 -16.50705,16.98426 -10.816,10.23332 -10.96241,10.38789 -9.63864,10.17534 10.24297,-1.64466 16.63036,-1.45697 21.99842,0.64643 2.52856,0.99078 5.56862,2.80309 5.33531,3.18061 -0.32983,0.53365 0.20382,2.05825 0.99859,2.85303 0.6244,0.62442 1.08755,0.78729 2.23865,0.78729 1.33637,0 1.53578,0.10304 2.51724,1.30079 3.36539,4.107 6.13333,9.87094 7.48996,15.59708 0.7547,3.18539 0.81715,3.95561 0.81317,10.02913 -0.004,6.41839 -0.0285,6.67092 -0.99067,10.3597 -2.41052,9.23989 -8.2027,18.11663 -14.55588,22.3074 -1.48518,0.97968 -1.5182,0.98615 -2.14193,0.4196 -1.55791,-1.41511 -3.09627,-1.62563 -4.70626,-0.64405 -1.04746,0.63863 -1.894,2.18347 -1.894,3.45636 0,0.6655 -0.18758,0.76093 -2.12436,1.08079 -2.28075,0.37665 -8.3087,0.39847 -11.79813,0.0427 z m 10.80819,-18.62101 c 10.38474,-3.32018 16.5778,-13.89487 16.5778,-28.30665 0,-5.59254 -1.13791,-8.90154 -4.20557,-12.22956 -2.68401,-2.91178 -5.60535,-4.68512 -9.46503,-5.74552 -2.1239,-0.58352 -2.91136,-0.63886 -6.98364,-0.49083 -5.37812,0.1955 -8.8984,0.91886 -12.54554,2.57792 -2.70886,1.23223 -6.42723,3.97435 -7.51062,5.53873 -0.38539,0.55649 -1.14849,1.19889 -1.69572,1.42755 -1.21851,0.50912 -1.76228,1.45122 -1.57058,2.7211 0.0892,0.59108 -0.0781,1.40007 -0.43601,2.10749 -1.9951,3.94407 -3.06839,14.94983 -1.94979,19.99352 1.58089,7.12789 5.92728,11.23403 13.7747,13.01323 2.0097,0.45564 3.40651,0.53262 7.80271,0.43001 4.90916,-0.11459 5.59219,-0.20089 8.20729,-1.03699 z m 375.19661,18.62163 c -5.67492,-0.6295 -12.16657,-3.1889 -16.43897,-6.48125 -4.22151,-3.25317 -8.08195,-8.44915 -9.71385,-13.07439 -0.40578,-1.15006 -0.39513,-1.23202 0.18365,-1.41572 1.51119,-0.47963 2.24859,-3.27348 1.33191,-5.04618 -0.45846,-0.88657 -1.84637,-1.82592 -2.69784,-1.82592 -0.66583,0 -0.80714,-0.98738 -0.81167,-5.67242 -0.01,-10.1122 2.08479,-19.17816 6.1833,-26.76237 2.73759,-5.0659 4.29832,-6.84847 18.75338,-21.41922 14.20157,-14.31522 16.78697,-17.10044 17.90147,-19.28488 1.3963,-2.73697 2.8976,-7.85495 2.6635,-9.07969 -0.074,-0.38739 -0.016,-0.70436 0.1289,-0.70436 0.145,0 0.2636,-0.18112 0.2636,-0.40249 0,-0.26006 -0.7309,-0.52018 -2.0654,-0.73507 -1.136,-0.18292 -3.0293,-0.63724 -4.2074,-1.00961 -1.8236,-0.57641 -2.9028,-0.68318 -7.26175,-0.71837 -2.8159,-0.0227 -4.95017,-0.097 -4.74283,-0.16504 0.52358,-0.17178 5.55963,-3.08371 8.0147,-4.63423 3.06748,-1.93727 6.88658,-3.05611 11.33358,-3.32022 3.3246,-0.19745 3.86,-0.15412 5.6608,0.45824 1.9691,0.66957 1.9944,0.69266 2.5384,2.31218 0.3021,0.89972 0.6676,2.65231 0.8122,3.89464 0.1446,1.24234 0.4036,2.34579 0.5756,2.45212 0.4539,0.28052 -0.3191,4.39069 -1.2671,6.73777 -1.7744,4.39307 -5.6241,9.73763 -10.5428,14.63687 -1.9521,1.94432 -3.0645,2.83039 -3.5535,2.83039 -1.2383,0 -2.7494,1.27434 -3.2502,2.7409 -0.3842,1.12507 -1.5661,2.39233 -7.25518,7.77932 -3.7379,3.53942 -6.75666,6.47482 -6.70838,6.52311 0.0483,0.0483 2.07384,-0.19723 4.50125,-0.54561 5.74231,-0.82415 12.39171,-0.69432 15.88801,0.3102 10.2919,2.957 18.0577,12.04427 21.0391,24.61929 0.7414,3.12742 0.8057,3.92779 0.8018,9.97889 0,6.42597 -0.027,6.66709 -0.9963,10.38194 -3.0541,11.70907 -10.3621,21.12382 -19.2781,24.83555 -4.5981,1.91422 -10.9714,2.5613 -17.78388,1.80563 z m 10.93888,-15.42754 c 0.779,-0.84995 0.9947,-1.35342 0.9947,-2.32137 0,-1.0602 0.1171,-1.28054 0.8232,-1.54901 0.4528,-0.17215 1.8362,-0.94433 3.0742,-1.71594 3.9041,-2.43332 7.2418,-6.86348 9.2266,-12.24651 1.9419,-5.2666 2.7917,-14.88105 1.6946,-19.17101 -1.5187,-5.93856 -6.8525,-10.93393 -13.4417,-12.58888 -3.0486,-0.76568 -10.45386,-0.47405 -14.38144,0.56636 -9.40689,2.49188 -15.10562,8.4663 -17.27554,18.11124 -0.98164,4.36324 -1.21851,11.97177 -0.47679,15.31478 1.9642,8.85275 8.89601,13.58804 19.89101,13.58804 2.96265,0 3.52212,0.0746 3.52212,0.46975 0,0.7908 0.99125,2.03688 1.97436,2.48197 1.51858,0.68751 3.21818,0.32254 4.37468,-0.93942 z m -565.0845,14.32396 c -0.58903,-0.0664 -2.39682,-0.26392 -4.01731,-0.43893 -16.70776,-1.80433 -26.92234,-8.29512 -29.20574,-18.5586 -0.75743,-3.40447 -0.45863,-9.60211 0.64618,-13.40314 2.07781,-7.14858 6.94457,-13.18692 13.75856,-17.07069 2.92119,-1.66499 7.61458,-3.57981 11.08216,-4.52133 1.61142,-0.43753 2.44345,-0.80384 2.31671,-1.01993 -1.08677,-1.85291 -3.98963,-5.90101 -4.84481,-6.75618 -1.93553,-1.93553 -4.30936,-2.43499 -7.77308,-1.63547 l -1.56062,0.36023 1.30779,0.65672 c 1.94133,0.97486 2.68473,2.26163 2.68473,4.64703 0,3.86479 -1.70706,5.49828 -5.46495,5.2294 -2.63868,-0.1888 -3.80765,-0.94443 -4.8181,-3.11448 -0.56087,-1.20455 -0.72686,-2.08373 -0.72784,-3.85529 -0.002,-3.35768 0.40375,-4.48677 2.26384,-6.30148 2.04253,-1.99269 3.67829,-2.57293 7.87012,-2.79168 3.77835,-0.19717 7.0905,0.43495 8.50193,1.62259 0.46693,0.3929 1.83967,2.14895 3.05053,3.90234 2.34066,3.38942 3.94211,4.93443 7.6632,7.39308 1.49355,0.98684 2.52353,1.91846 2.90152,2.6244 0.57734,1.07829 0.57734,1.1122 0,2.29492 l -0.58601,1.20045 -5.81378,0.18554 c -3.19758,0.10205 -6.22687,0.2878 -6.73175,0.41279 -3.47995,0.86149 -6.40515,2.42252 -9.63134,5.13975 -2.91307,2.45351 -4.95825,4.98307 -6.3405,7.84218 -1.39198,2.87923 -1.74463,6.66638 -0.85192,9.14891 0.75117,2.08893 2.26795,4.08498 4.33986,5.71115 1.70188,1.33575 1.74374,1.40472 1.66174,2.73819 -0.0463,0.75235 0.0675,1.65119 0.25277,1.99741 0.5037,0.94118 2.07471,1.6463 3.17683,1.42588 1.04408,-0.20882 2.34374,-1.28038 2.34374,-1.9324 0,-0.23304 0.14249,-0.33564 0.31665,-0.228 0.46875,0.2897 4.1185,1.32382 6.5681,1.861 6.04783,1.32625 9.06004,1.69695 15.16721,1.86655 7.45529,0.20704 9.76987,-0.11474 16.19663,-2.25169 4.81701,-1.6017 8.18987,-3.31086 10.81923,-5.48256 3.55583,-2.93692 5.07353,-6.04397 5.08493,-10.40996 0.008,-2.88996 -0.44708,-4.75997 -1.80363,-7.41904 -0.92837,-1.81976 -3.83102,-4.62164 -5.91521,-5.70988 -1.34086,-0.70011 -1.75827,-1.08021 -1.75882,-1.60161 -3.1e-4,-0.37601 -0.38854,-1.11768 -0.86253,-1.64817 -0.70925,-0.79378 -1.09058,-0.96452 -2.15428,-0.96452 -0.89187,0 -1.5045,0.19918 -1.97647,0.64258 -0.64911,0.6098 -0.77722,0.62159 -2.51205,0.2312 -1.00543,-0.22626 -3.99866,-0.49852 -6.65162,-0.60502 -5.52663,-0.22188 -6.99956,-0.62423 -7.77506,-2.12389 l -0.48855,-0.94475 1.70244,-1.58463 c 0.93635,-0.87155 2.71056,-2.34923 3.94269,-3.28373 1.23213,-0.9345 2.57922,-2.22329 2.99352,-2.86398 1.85433,-2.86751 5.04299,-6.89077 6.49846,-8.19937 2.75565,-2.47756 3.42662,-2.69817 8.65967,-2.84713 5.459,-0.1554 7.29632,0.17471 7.02346,1.2619 -0.22202,0.88459 0.25028,2.11537 1.12419,2.92954 0.76404,0.71181 2.95245,0.89345 3.55115,0.29475 0.62698,-0.62699 1.31969,0.002 2.3143,2.10186 0.90965,1.92036 0.98031,2.30131 0.97986,5.28249 -6.2e-4,3.64779 -0.34919,4.62051 -2.14768,5.99228 -0.8639,0.65893 -1.51097,0.85311 -3.25987,0.97824 -3.56901,0.25536 -5.14858,-1.09657 -5.14858,-4.40661 0,-2.89324 1.28339,-4.4784 4.43684,-5.48012 0.54493,-0.17309 0.44763,-0.34417 -0.88802,-1.56133 -1.94023,-1.76811 -3.16262,-2.25496 -5.65161,-2.2509 -3.31672,0.005 -6.3705,1.19285 -8.78032,3.41414 -1.15315,1.06294 -5.94627,7.00837 -5.94627,7.37582 0,0.0715 1.27368,0.21934 2.8304,0.3285 5.44256,0.38167 10.73714,2.25819 14.7402,5.22426 4.37832,3.24412 7.06571,6.99403 8.66044,12.08457 0.75064,2.3961 0.82419,3.07145 0.83601,7.67606 0.0147,5.71304 -0.38293,7.87915 -2.21849,12.08656 -1.67527,3.83999 -5.24407,8.68888 -7.86814,10.69035 l -1.03972,0.79304 -1.0091,-0.61524 c -1.26604,-0.77189 -3.14027,-0.79252 -4.52513,-0.0498 -1.1848,0.63541 -2.45076,2.72253 -2.45076,4.04044 0,0.77452 -0.173,0.89455 -2.21842,1.53912 -2.13292,0.67214 -2.67242,0.70149 -13.99898,0.76158 -6.47931,0.0344 -12.2625,0.008 -12.85153,-0.0582 z m 85.37086,-0.12208 c -3.31753,-0.33061 -6.63781,-0.84041 -9.23795,-1.4184 -1.78487,-0.39676 -2.12497,-0.58684 -2.65381,-1.48313 -0.33362,-0.56543 -0.96341,-1.26187 -1.39956,-1.54764 -1.17078,-0.76714 -3.24453,-0.91692 -4.40269,-0.31802 -0.92938,0.48061 -1.02705,0.46891 -2.5751,-0.30847 -6.02954,-3.02783 -10.12891,-7.97859 -11.42304,-13.7955 -0.76073,-3.41929 -0.47835,-9.40368 0.6276,-13.3008 l 0.81212,-2.86172 1.34998,0.10737 c 1.16813,0.0929 1.47456,-0.0172 2.27469,-0.81733 1.18,-1.18 1.25076,-2.67925 0.18617,-3.94445 l -0.73853,-0.87769 1.77458,-2.12917 c 4.09921,-4.91833 11.04573,-8.9618 19.19935,-11.17566 1.6114,-0.43753 2.44345,-0.80384 2.31671,-1.01993 -1.08678,-1.85291 -3.98964,-5.90101 -4.84482,-6.75618 -1.93553,-1.93553 -4.30936,-2.43499 -7.77309,-1.63547 l -1.5606,0.36023 1.30776,0.65672 c 1.94135,0.97486 2.68475,2.26163 2.68475,4.64703 0,3.86479 -1.70705,5.49828 -5.46496,5.2294 -2.63868,-0.1888 -3.80764,-0.94443 -4.81809,-3.11448 -0.56088,-1.20455 -0.72686,-2.08373 -0.72785,-3.85529 -0.002,-3.35768 0.40376,-4.48677 2.26385,-6.30148 2.04253,-1.99269 3.67828,-2.57293 7.87011,-2.79168 3.77835,-0.19717 7.0905,0.43495 8.50193,1.62259 0.46694,0.3929 1.83967,2.14895 3.05053,3.90234 2.34066,3.38942 3.94211,4.93443 7.66321,7.39308 1.49353,0.98684 2.52352,1.91846 2.90151,2.6244 0.57734,1.07829 0.57734,1.1122 0,2.29492 l -0.586,1.20045 -5.81379,0.18554 c -3.19758,0.10205 -6.22687,0.2878 -6.73175,0.41279 -3.47995,0.86149 -6.40514,2.42252 -9.63133,5.13975 -2.91149,2.45216 -4.9499,4.97291 -6.37097,7.87842 -1.07384,2.19556 -1.12266,2.43401 -1.12775,5.5078 -0.007,3.95445 0.57736,5.37004 3.34471,8.1087 5.15028,5.09689 17.06441,8.55481 30.78849,8.93595 7.4553,0.20704 9.76986,-0.11474 16.19663,-2.25169 10.65664,-3.54342 15.88231,-8.59055 15.90416,-15.36077 0.006,-1.94839 0.11001,-2.37287 0.77223,-3.15986 0.85566,-1.01692 0.92072,-1.40948 0.41681,-2.51547 -0.32615,-0.71579 -1.85655,-1.54779 -2.20538,-1.19895 -0.0867,0.0867 -0.44836,-0.41217 -0.80368,-1.10864 -1.04039,-2.03932 -3.87027,-4.62651 -6.59283,-6.02743 -4.69197,-2.41427 -8.68106,-3.35127 -15.38346,-3.61344 -5.37011,-0.21006 -6.8436,-0.61772 -7.61337,-2.10631 l -0.48854,-0.94475 1.70243,-1.58463 c 0.93635,-0.87155 2.71057,-2.34923 3.94269,-3.28373 1.23213,-0.9345 2.57921,-2.22329 2.99352,-2.86398 1.85435,-2.86751 5.043,-6.89077 6.49847,-8.19937 2.93758,-2.64114 3.31982,-2.75289 9.42463,-2.75516 l 5.35481,-0.002 1.98892,0.94776 c 2.79656,1.33262 4.90687,3.33644 5.99457,5.69205 0.80414,1.74156 0.89012,2.23838 0.88969,5.14076 0,3.64778 -0.34919,4.6205 -2.14767,5.99228 -0.8639,0.65892 -1.51097,0.8531 -3.25988,0.97823 -3.569,0.25536 -5.14857,-1.09657 -5.14857,-4.40661 0,-2.89323 1.28338,-4.4784 4.43684,-5.48011 0.54493,-0.1731 0.44763,-0.34417 -0.88801,-1.56134 -1.89022,-1.72251 -3.16087,-2.2542 -5.38715,-2.2542 -0.96998,0 -2.15799,-0.2057 -2.64004,-0.4571 -0.48206,-0.25141 -1.09884,-0.45795 -1.37065,-0.45899 -0.72617,-0.003 -2.1067,1.18145 -2.1067,1.80715 0,0.29735 -0.34399,0.69738 -0.76442,0.88894 -1.27441,0.58067 -3.37616,2.70845 -5.80442,5.87637 -1.26765,1.65378 -2.30483,3.06538 -2.30483,3.13689 0,0.0715 1.27368,0.21934 2.83039,0.32851 5.44256,0.38167 10.73715,2.25818 14.74022,5.22426 4.3783,3.24411 7.0657,6.99403 8.66043,12.08457 0.75065,2.39609 0.82418,3.07144 0.83602,7.67606 0.0101,3.98501 -0.10964,5.53236 -0.5688,7.34373 -1.62731,6.41943 -5.50431,12.33644 -10.66028,16.26955 -2.6114,1.99204 -5.09239,3.22796 -9.25922,4.61258 l -2.7539,0.9151 -11.93356,0.092 c -6.56346,0.0506 -13.10397,-0.0247 -14.53447,-0.16722 z m 543.74204,-0.60729 c -9.9023,-1.52814 -18.0568,-4.49669 -23.5147,-8.56022 -5.3105,-3.95386 -7.8973,-8.32259 -8.6715,-14.64487 -0.2619,-2.13902 -0.2301,-3.29167 0.1641,-5.95503 0.6463,-4.3669 2.8145,-13.69792 3.6835,-15.85192 3.12,-7.7341 17.5892,-20.513 27.8271,-24.57624 7.38,-2.92898 14.2941,-1.56182 12.5906,2.48959 -0.5985,1.42331 -2.1592,2.36204 -5.4483,3.27705 -11.7556,3.27034 -22.9511,11.94112 -27.2485,21.10362 -1.6933,3.6104 -2.1785,5.93426 -2.1785,10.43474 0,5.04937 0.5372,6.58705 3.3156,9.49074 1.8426,1.92566 1.8839,2.00546 1.7838,3.45324 -0.086,1.23873 0.029,1.63829 0.6985,2.4338 0.9081,1.07921 2.596,1.75296 3.6984,1.47628 0.4087,-0.10258 1.2099,-0.59634 1.7804,-1.09725 1.0368,-0.91032 1.038,-0.91053 2.53,-0.45984 5.0034,1.51133 7.6943,1.83603 15.1092,1.82323 6.6869,-0.0115 7.4288,-0.0691 10.5877,-0.82055 9.9312,-2.36262 18.5349,-8.7777 22.1589,-16.52193 1.7712,-3.78497 2.1838,-5.75797 2.353,-11.25229 0.1313,-4.26195 0.055,-5.60376 -0.486,-8.60949 -1.5092,-8.37649 -4.9664,-15.00828 -10.8999,-20.90893 -3.7615,-3.74064 -6.852,-5.98028 -12.1167,-8.78076 -7.9904,-4.25038 -17.0726,-6.69372 -27.3182,-7.34929 -4.771,-0.30528 -5.9059,-0.28446 -8.8737,0.16278 -8.0581,1.21432 -10.9006,1.18615 -12.2929,-0.12184 -0.9777,-0.91848 -1.0195,-2.63866 -0.088,-3.63799 0.9506,-1.02036 3.3747,-2.00842 6.4609,-2.63345 l 2.6843,-0.54364 -1.1724,-0.7922 c -6.4164,-4.33554 -8.2951,-8.86606 -7.9357,-19.13721 0.1471,-4.20515 0.2943,-5.30553 1.0251,-7.66403 2.7282,-8.80521 9.9666,-14.332 21.4608,-16.38615 4.5738,-0.8174 14.4282,-1.15193 18.1624,-0.61655 7.9006,1.13273 12.1118,3.07716 21.841,10.08459 4.5897,3.30568 4.5899,3.30586 4.7514,4.67943 0.089,0.75548 0.4093,1.75187 0.7122,2.21419 0.5883,0.89774 2.3767,1.80894 3.2106,1.6358 0.6195,-0.1286 1.5473,1.16067 3.1013,4.30959 2.6266,5.322 3.6876,10.50181 3.9021,19.04938 0.1381,5.5013 -0.029,7.78992 -0.6974,9.53063 -0.1612,0.4201 -0.043,0.5348 0.5504,0.5348 0.4156,0 1.2794,0.4162 1.9195,0.92488 0.6401,0.50868 1.4852,0.99062 1.878,1.07096 0.3928,0.0804 1.0429,0.21367 1.4447,0.29626 0.4018,0.0826 1.372,0.0304 2.156,-0.11611 1.4014,-0.2618 1.4163,-0.25621 0.8843,0.33171 -0.5333,0.58918 -0.512,0.59484 1.4394,0.38357 1.0893,-0.11793 2.5259,-0.39752 3.1925,-0.62131 l 1.2119,-0.4069 -0.9059,0.75818 c -2.8461,2.38181 -11.5492,5.33421 -15.7247,5.33442 -0.5771,2e-5 -1.4975,0.16213 -2.0453,0.36022 -1.1319,0.40929 -1.9543,-0.007 -1.9543,-0.989 0,-0.30464 -0.2754,-0.64129 -0.612,-0.74812 -0.6847,-0.21733 -0.8073,-0.64886 -0.2382,-0.83857 0.2367,-0.0789 0.058,-0.44008 -0.4865,-0.9849 -0.5101,-0.51013 -0.7314,-0.93995 -0.5436,-1.05599 0.3536,-0.21854 0.6988,-2.1995 1.4447,-8.28913 1.8765,-15.3218 -3.7552,-26.82697 -16.1232,-32.93829 -1.5997,-0.79046 -4.3622,-1.80942 -6.2374,-2.30065 -2.9975,-0.78527 -4.0523,-0.90134 -9.6386,-1.06058 -6.7109,-0.1913 -10.0926,0.14437 -14.4277,1.43212 -1.5515,0.46086 -2.2289,0.53088 -2.8503,0.29461 -2.5988,-0.98804 -5.3652,0.95338 -5.3652,3.76518 0,0.40089 -0.4056,1.28886 -0.9014,1.97326 -1.3993,1.93173 -2.244,5.12208 -2.114,7.98459 0.099,2.18014 0.2136,2.54871 1.3022,4.18826 2.287,3.44459 6.29,6.74667 11.9638,9.86898 1.8513,1.01874 4.4675,2.23546 5.8138,2.70381 1.3464,0.46835 2.8815,1.1443 3.4113,1.50211 0.5299,0.35781 2.32,1.14872 3.9779,1.75758 13.305,4.88602 13.9096,5.15386 18.3325,8.12149 3.3633,2.25662 8.2328,6.55326 11.0446,9.74509 4.3227,4.90714 6.728,9.40844 9.6407,18.04186 l 1.3273,3.93413 -0.01,9.02667 c -0.01,8.12555 -0.077,9.3694 -0.6984,12.45984 -2.1737,10.81925 -8.2841,20.10954 -16.681,25.36186 l -1.6908,1.05757 -1.0172,-0.62018 c -1.2085,-0.73679 -2.698,-0.79754 -3.9303,-0.16032 -1.0745,0.55566 -1.5857,1.41745 -1.813,3.05672 -0.1682,1.21289 -0.1927,1.23299 -2.7101,2.22355 -4.9972,1.96634 -7.8799,2.52311 -12.8691,2.48554 -2.5865,-0.0195 -5.967,-0.26324 -7.9987,-0.57678 z"
       id="path3391"
       inkscape:connector-curvature="0" />
    <text
       xml:space="preserve"
       style="font-style:normal;font-weight:normal;font-size:33.375px;line-height:125%;font-family:sans-serif;letter-spacing:0px;word-spacing:0px;fill:#ffffff;fill-opacity:1;stroke:none;stroke-width:1px;stroke-linecap:butt;stroke-linejoin:miter;stroke-opacity:1;filter:url(#filter3738)"
       x="278.82205"
       y="739.50989"
       id="text3394"
       sodipodi:linespacing="125%"><tspan
         sodipodi:role="line"
         x="278.82205"
         y="739.50989"
         id="tspan3398"
         style="font-style:normal;font-variant:normal;font-weight:bold;font-stretch:normal;font-family:BhashitaComplex;-inkscape-font-specification:'BhashitaComplex Bold';fill:#ffffff;fill-opacity:1">3වන කතාංගය : රහස් වට්ටෝරුව</tspan></text>
  </g>
</svg>
