<?xml version="1.0" encoding="UTF-8" standalone="no"?>
<!-- Created with Inkscape (http://www.inkscape.org/) -->

<svg
   xmlns:dc="http://purl.org/dc/elements/1.1/"
   xmlns:cc="http://creativecommons.org/ns#"
   xmlns:rdf="http://www.w3.org/1999/02/22-rdf-syntax-ns#"
   xmlns:svg="http://www.w3.org/2000/svg"
   xmlns="http://www.w3.org/2000/svg"
   xmlns:xlink="http://www.w3.org/1999/xlink"
   xmlns:sodipodi="http://sodipodi.sourceforge.net/DTD/sodipodi-0.dtd"
   xmlns:inkscape="http://www.inkscape.org/namespaces/inkscape"
   id="svg2"
   version="1.1"
   inkscape:version="0.91 r13725"
   width="2481"
   height="3265"
   sodipodi:docname="Pepper-and-Carrot_by-David-Revoy_E03P02.svg">
  <metadata
     id="metadata8">
    <rdf:RDF>
      <cc:Work
         rdf:about="">
        <dc:format>image/svg+xml</dc:format>
        <dc:type
           rdf:resource="http://purl.org/dc/dcmitype/StillImage" />
        <dc:title />
      </cc:Work>
    </rdf:RDF>
  </metadata>
  <defs
     id="defs6" />
  <sodipodi:namedview
     pagecolor="#ffffff"
     bordercolor="#666666"
     borderopacity="1"
     objecttolerance="10"
     gridtolerance="10"
     guidetolerance="10"
     inkscape:pageopacity="0"
     inkscape:pageshadow="2"
     inkscape:window-width="1366"
     inkscape:window-height="705"
     id="namedview4"
     showgrid="false"
     inkscape:zoom="0.44473441"
     inkscape:cx="1149.5503"
     inkscape:cy="368.80751"
     inkscape:window-x="-8"
     inkscape:window-y="-8"
     inkscape:window-maximized="1"
     inkscape:current-layer="layer1" />
  <g
     inkscape:groupmode="layer"
     id="layer3"
     inkscape:label="artwork"
     sodipodi:insensitive="true">
    <image
       sodipodi:absref="D:\T\oth\david\trns\ep3\peppercarrot_ep03_translation-master_si\peppercarrot_ep03_translation-master_si\si\..\gfx_Pepper-and-Carrot_by-David-Revoy_E03P02.png"
       xlink:href="../gfx_Pepper-and-Carrot_by-David-Revoy_E03P02.png"
       width="2481"
       height="3265"
       id="image10"
       x="0"
       y="0" />
  </g>
  <g
     inkscape:groupmode="layer"
     id="layer2"
     inkscape:label="speechbubbles">
    <path
       style="fill:#ffffff;fill-opacity:1;stroke:none"
       d="m 542.09925,732.9151 c -7.44983,-76.01844 17.69336,-82.72595 44.69901,-98.3768 27.00564,-15.65086 288.68103,-21.24045 318.48037,17.88669 29.79933,39.12714 45.63022,101.73056 -36.31794,138.62186 -81.94816,36.89131 -209.52656,41.36298 -232.80729,34.65547 -23.28073,-6.70751 -89.39799,-35.77338 -94.05415,-92.78722 z"
       id="path3659"
       inkscape:connector-curvature="0" />
    <path
       style="color:#000000;fill:#ffffff;fill-opacity:1;fill-rule:nonzero;stroke:none;stroke-width:1px;marker:none;visibility:visible;display:inline;overflow:visible;enable-background:accumulate"
       d="M 825.99579,645.57166 C 811.9003,597.54978 820.4062,528.19024 902.01423,489.0631 c -63.57553,74.07424 -64.83926,107.32016 -48.07049,144.21146 16.76878,36.8913 20.12253,55.89591 20.12253,55.89591 z"
       id="path4440"
       inkscape:connector-curvature="0"
       sodipodi:nodetypes="ccscc" />
    <path
       style="color:#000000;fill:#ffffff;fill-opacity:1;fill-rule:nonzero;stroke:none;stroke-width:1px;marker:none;visibility:visible;display:inline;overflow:visible;enable-background:accumulate"
       d="m 2021.6401,87.203428 12.5963,21.765202 -12.5963,4.50315 10.3735,15.01047 c 0,0 -5.9277,8.25577 -5.9277,12.0084 0,3.75261 -6.6687,-1.50105 -6.6687,-1.50105 0,0 -5.9277,9.00628 -7.4096,10.50733 -5.1867,-2.25157 -11.8553,-8.25577 -11.8553,-8.25577 l -10.3735,32.27254 11.1144,-15.01048 9.6324,15.76101 11.8554,-12.00839 2.223,4.50314 8.8915,-12.75891 9.6325,9.0063 4.4457,-9.0063 5.1868,4.50315 -5.1868,7.50525 14.0784,1.50104 1.4819,12.00838 12.5963,9.75682 10.3735,-6.75472 10.3734,7.50525 16.3012,-2.25158 4.4458,9.00629 11.8553,-6.75471 28.1565,12.00838 1.4819,-9.75682 8.8916,10.50735 2.2229,-12.75891 13.3373,11.25786 20.7468,-13.50944 17.7831,-1.50105 2.223,-10.50733 14.0782,7.50523 -5.1867,-20.26414 24.4517,-13.50944 2.9639,-15.01048 -4.4458,-5.25368 -2.9639,-8.25576 13.3373,-9.75681 -20.0059,2.25158 17.783,-11.25787 -0.7409,-25.51782 -123.7406,-16.511531 z"
       id="path4448"
       inkscape:connector-curvature="0" />
    <path
       style="color:#000000;fill:#ffffff;fill-opacity:1;fill-rule:nonzero;stroke:none;stroke-width:1px;marker:none;visibility:visible;display:inline;overflow:visible;enable-background:accumulate"
       d="m 846.70158,1102.0712 c 26.24678,-47.6331 46.66094,-50.5494 61.24248,-54.4378 1.94421,4.8605 6.80472,12.6373 6.80472,12.6373 0,0 28.19098,-10.6931 39.85622,-10.6931 11.66523,0 11.66523,16.5258 11.66523,16.5258 0,0 -54.43776,22.3583 -65.13089,31.1072 -4.86051,-13.6094 -8.74892,-19.442 -8.74892,-25.2746 -8.74893,-0.9721 -35.96781,13.6094 -45.68884,30.1352 z"
       id="path4456"
       inkscape:connector-curvature="0" />
    <path
       style="color:#000000;fill:#ffffff;fill-opacity:1;fill-rule:nonzero;stroke:none;stroke-width:1px;marker:none;visibility:visible;display:inline;overflow:visible;enable-background:accumulate"
       d="m 932.24663,912.51111 c -20.41416,20.41416 -25.27467,45.68883 -23.33047,57.35406 1.94421,11.66524 29.16309,66.10303 31.10729,80.68453 1.94421,14.5816 -27.21887,79.7124 -21.38626,101.0987 5.83262,21.3863 23.33047,85.5451 100.12661,91.3777 76.7961,5.8326 97.2103,-6.8047 121.5128,-6.8047 24.3026,0 114.7082,18.4699 128.3176,15.5536 13.6095,-2.9163 20.4142,-7.7768 30.1352,-9.721 9.721,-1.9442 82.6287,0.9721 107.9034,-46.661 25.2747,-47.633 27.2189,-64.1588 14.5816,-97.2103 -12.6374,-33.0514 -3.8884,-68.0471 6.8047,-107.90337 10.6931,-39.85621 -13.1223,-81.74661 -29.1631,-88.46136 -41.8004,-17.49784 -418.97633,-45.68883 -466.60937,10.69314 z"
       id="path4464"
       inkscape:connector-curvature="0"
       sodipodi:nodetypes="csssssssssssc" />
    <path
       style="color:#000000;fill:#ffffff;fill-opacity:1;fill-rule:nonzero;stroke:none;stroke-width:1px;marker:none;visibility:visible;display:inline;overflow:visible;enable-background:accumulate"
       d="m 938.81379,1493.8206 c 2.9569,-57.6594 34.00428,-82.793 44.35341,-88.7068 10.34913,-5.9138 20.6983,-56.181 189.2412,-66.5301 102.0128,-5.9138 149.3231,31.0473 159.6723,34.0042 10.3491,2.9569 89.795,78.5027 71.3623,142.2915 -13.306,46.0471 -29.0244,62.8251 -56.2173,71.3986 -31.2877,9.8646 -223.606,12.5123 -266.481,0.6847 -42.875,-11.8275 -124.18954,5.9138 -141.93091,-93.1421 z"
       id="path4472"
       inkscape:connector-curvature="0"
       sodipodi:nodetypes="cscssssc" />
    <path
       style="color:#000000;fill:#ffffff;fill-opacity:1;fill-rule:nonzero;stroke:none;stroke-width:1px;marker:none;visibility:visible;display:inline;overflow:visible;enable-background:accumulate"
       d="m 1401.117,1491.9816 c 49.7882,35.7734 123.3881,38.0092 147.1998,35.7734 -62.7763,19.0046 -125.5527,21.2404 -158.0232,-4.4717 -32.4706,-25.7121 10.8234,-31.3017 10.8234,-31.3017 z"
       id="path4480"
       inkscape:connector-curvature="0" />
    <path
       style="color:#000000;display:inline;overflow:visible;visibility:visible;fill:#ffffff;fill-opacity:1;fill-rule:nonzero;stroke:none;stroke-width:1px;marker:none;enable-background:accumulate"
       d="m 1142.538,1794.377 c -10e-5,-22.4815 7.8253,-33.7222 13.4149,-37.8098 5.5896,-4.0876 0,-23.5034 34.6555,-35.7661 34.6555,-12.2627 105.0843,-9.197 115.1456,-8.1751 11.1792,-5.1095 115.1456,-8.1751 160.9802,29.6347 45.8347,37.8099 69.3109,100.1451 -19.0046,128.7579 64.8393,20.4378 152.0369,88.9043 146.4473,155.327 -5.5896,66.4228 -140.8577,148.1739 -243.7062,160.4365 -102.8485,12.2627 -260.475,-59.2695 -279.4796,-120.5828 -19.0046,-61.3133 34.6555,-158.3927 60.3676,-171.6772 25.7121,-13.2846 57.0139,-19.4159 78.2543,-24.5254 -52.5422,-14.3063 -67.0751,-60.2914 -67.075,-75.6197 z"
       id="path4488"
       inkscape:connector-curvature="0"
       sodipodi:nodetypes="csscscsssscc" />
    <path
       style="color:#000000;fill:#ffffff;fill-opacity:1;fill-rule:nonzero;stroke:none;stroke-width:1px;marker:none;visibility:visible;display:inline;overflow:visible;enable-background:accumulate"
       d="m 946.61581,2098.5085 c 5.57335,17.1181 11.16282,35.0294 23.39088,48.7241 3.55856,3.8199 7.50649,7.5251 12.13185,9.9498 5.37245,1.4498 10.84942,-1.4122 14.12754,-5.6132 5.15892,-5.7353 8.19632,-13.9047 15.56852,-17.285 5.4261,-2.3306 10.8729,0.8814 15.6761,3.1704 12.1284,6.0748 23.505,13.8279 36.5404,17.9363 14.3756,5.5799 29.9067,10.4081 45.4842,8.0016 6.1477,-1.0555 12.4312,-3.0194 17.0066,-7.4624 12.2544,-10.8656 18.4537,-28.9219 13.6291,-44.8231 -4.0403,-9.8511 -16.6784,-15.851 -26.5414,-11.0096 -5.2446,2.4777 -7.97,8.0957 -8.8455,13.5685 -3.4893,9.7595 -12.4516,16.8979 -22.4619,19.0846 -8.2318,1.9398 -16.9874,1.2749 -24.9579,-1.4727 -11.8256,-0.8743 -20.7496,-9.4594 -30.3291,-15.4411 -4.4172,-2.6676 -9.2966,-5.2059 -14.5159,-5.4716 -7.5326,1.3916 -11.8483,8.4752 -14.80768,14.8891 -3.22265,6.5363 -6.22228,14.4823 -13.58052,17.3225 -4.84088,2.6585 -8.79493,-2.5041 -12.54101,-4.8769 -11.06465,-9.2145 -19.10985,-21.7672 -24.06428,-35.1993 -0.37642,-1.3148 -0.64489,-2.6514 -0.91,-3.992 z"
       id="path4496"
       inkscape:connector-curvature="0" />
    <path
       style="color:#000000;fill:#ffffff;fill-opacity:1;fill-rule:nonzero;stroke:none;stroke-width:1px;marker:none;visibility:visible;display:inline;overflow:visible;enable-background:accumulate"
       d="m 1558.3048,2347.7862 c 4.4742,-26.8453 35.7937,-46.0205 73.5049,-45.3813 37.7112,0.6391 65.1957,33.8761 58.1648,58.8039 -7.0309,24.9278 -33.237,39.6288 -70.3091,35.1545 -37.0721,-4.4742 -65.8349,-30.0411 -61.3606,-48.5771 z"
       id="path4514"
       inkscape:connector-curvature="0" />
    <path
       style="color:#000000;fill:#ffffff;fill-opacity:1;fill-rule:nonzero;stroke:none;stroke-width:1px;marker:none;visibility:visible;display:inline;overflow:visible;enable-background:accumulate"
       d="m 1684.2219,2355.4562 c 17.8969,-1.2783 37.0721,-7.0309 39.6288,-17.8968 1.9175,14.701 -14.701,36.4329 -41.5463,35.1545 -26.8453,-1.2783 -19.8144,-14.701 -19.8144,-14.701 z"
       id="path4522"
       inkscape:connector-curvature="0" />
    <path
       style="color:#000000;display:inline;overflow:visible;visibility:visible;fill:#ffffff;fill-opacity:1;fill-rule:nonzero;stroke:none;stroke-width:1px;marker:none;enable-background:accumulate"
       d="m 798.25749,2709.9292 c 22.43489,-69.1267 73.73248,-113.736 201.53542,-109.8476 127.80289,3.8885 151.56119,16.5258 168.76549,34.9957 17.2042,18.47 42.601,124.4292 29.493,197.3369 -13.108,72.9077 -65.54,149.7039 -190.8852,143.8713 -125.34524,-5.8327 -125.60283,-8.4922 -145.00723,-23.3305 -36.86624,-28.191 -86.33637,-173.8991 -63.90148,-243.0258 z"
       id="path4530"
       inkscape:connector-curvature="0"
       sodipodi:nodetypes="zsssssz" />
    <path
       style="color:#000000;display:inline;overflow:visible;visibility:visible;fill:#ffffff;fill-opacity:1;fill-rule:nonzero;stroke:none;stroke-width:1px;marker:none;enable-background:accumulate"
       d="m 769.88871,3014.9966 c 27.21888,10.6931 31.10729,9.721 39.85622,-1.9442 8.74893,-11.6652 17.49785,-31.1073 43.74463,-34.9957 26.24678,-3.8884 38.88411,5.8326 47.63304,11.6652 1.9442,-18.4699 -7.77682,-45.6888 -16.52575,-56.3819 -8.74893,-10.6932 53.46566,7.7768 53.46566,7.7768 0,0 8.74892,47.633 -7.77683,65.1309 -16.52574,17.4978 -53.46565,-4.8605 -71.93561,-4.8605 -18.46995,0 -32.07939,26.2467 -46.66093,29.163 -14.58155,2.9163 -30.13519,-7.7768 -41.80043,-15.5536 z"
       id="path4538"
       inkscape:connector-curvature="0" />
    <path
       style="color:#000000;display:inline;overflow:visible;visibility:visible;fill:#ffffff;fill-opacity:1;fill-rule:nonzero;stroke:none;stroke-width:1px;marker:none;enable-background:accumulate"
       d="m 1267.7174,2807.473 c 6.6234,-57.7416 62.177,-98.0068 202.013,-81.6347 74.9037,8.7697 160.0649,15.9287 151.2338,100.5501 -8.8312,84.6212 -131.3637,77.6524 -156.7532,78.648 -25.3897,0.9956 -156.8863,-13.0491 -178.8312,-42.8085 -13.737,-18.6286 -18.7662,-36.8351 -17.6624,-54.7549 z"
       id="path4546"
       inkscape:connector-curvature="0"
       sodipodi:nodetypes="cssssc" />
    <path
       style="color:#000000;display:inline;overflow:visible;visibility:visible;fill:#ffffff;fill-opacity:1;fill-rule:nonzero;stroke:none;stroke-width:1px;marker:none;enable-background:accumulate"
       d="m 1380.4894,2978.8383 c 5.0174,-43.2195 64.5516,-65.9571 84.5318,-63.7213 19.9804,2.2358 71.4679,13.415 83.7635,13.415 12.2956,0 56.8669,-7.8254 73.0049,-10.0612 16.1379,-2.2359 36.1181,38.0092 34.5811,54.778 -1.5368,16.7687 -13.8324,63.7213 -56.0983,69.3109 -42.266,5.5896 -99.133,-1.1179 -110.66,4.4717 -11.5272,5.5896 -61.4778,11.1791 -79.9211,-4.4717 -18.4433,-15.6509 -34.2193,-20.5019 -29.2019,-63.7214 z"
       id="path4554"
       inkscape:connector-curvature="0"
       sodipodi:nodetypes="zsssssssz" />
    <path
       style="color:#000000;fill:#ffffff;fill-opacity:1;fill-rule:nonzero;stroke:none;stroke-width:1px;marker:none;visibility:visible;display:inline;overflow:visible;enable-background:accumulate"
       d="m 1462.2371,2880.4361 c 15.6509,39.1272 126.3248,118.4994 138.6219,131.9144 12.2971,13.415 38.0092,32.4196 58.1317,35.7734 20.1226,3.3537 29.8656,-15.8488 47.3048,-18.9433 14.983,-2.6587 26.4778,2.1745 35.4212,12.2357 -14.533,-25.7121 -39.1272,-25.7121 -49.1884,-21.2404 -10.0613,4.4717 -27.948,17.8867 -44.7168,5.5896 -16.7687,-12.2971 -86.0797,-88.3156 -103.9664,-91.6693 -17.8867,-3.3538 -40.245,-29.0659 -40.245,-43.5988 0,-14.533 -41.363,-10.0613 -41.363,-10.0613 z"
       id="path4562"
       inkscape:connector-curvature="0"
       sodipodi:nodetypes="cssscssssc" />
  </g>
  <g
     inkscape:groupmode="layer"
     id="layer1"
     inkscape:label="txt">
    <flowRoot
       xml:space="preserve"
       id="flowRoot2987"
       style="font-style:normal;font-variant:normal;font-weight:normal;font-stretch:normal;font-size:12px;line-height:125%;font-family:Arial;-inkscape-font-specification:Arial;letter-spacing:0px;word-spacing:0px;fill:#000000;fill-opacity:1;stroke:none"
       transform="translate(8.1373234,15.889736)"><flowRegion
         id="flowRegion2989"><rect
           id="rect2991"
           width="472.65948"
           height="178.52246"
           x="481.16055"
           y="638.16943" /></flowRegion><flowPara
         style="font-style:normal;font-variant:normal;font-weight:bold;font-stretch:normal;font-size:40px;line-height:105.99999428%;font-family:BhashitaComplex;-inkscape-font-specification:'BhashitaComplex Bold';text-align:center;text-anchor:middle"
         id="flowPara2997">අහ්! සමාවෙන්න,</flowPara><flowPara
         style="font-style:normal;font-variant:normal;font-weight:bold;font-stretch:normal;font-size:40px;line-height:105.99999428%;font-family:BhashitaComplex;-inkscape-font-specification:'BhashitaComplex Bold';text-align:center;text-anchor:middle"
         id="flowPara3413">මට ඕනෑකරන්නේ </flowPara><flowPara
         style="font-style:normal;font-variant:normal;font-weight:bold;font-stretch:normal;font-size:40px;line-height:105.99999428%;font-family:BhashitaComplex;-inkscape-font-specification:'BhashitaComplex Bold';text-align:center;text-anchor:middle"
         id="flowPara3985">හතරක් විතරයි.</flowPara></flowRoot>    <flowRoot
       xml:space="preserve"
       id="flowRoot2987-4"
       style="font-style:normal;font-variant:normal;font-weight:normal;font-stretch:normal;font-size:12px;line-height:125%;font-family:Arial;-inkscape-font-specification:Arial;letter-spacing:0px;word-spacing:0px;fill:#000000;fill-opacity:1;stroke:none"
       transform="translate(1440.2208,-525.37239)"><flowRegion
         id="flowRegion2989-7"><rect
           id="rect2991-1"
           width="472.65948"
           height="178.52246"
           x="481.16055"
           y="638.16943" /></flowRegion><flowPara
         style="font-style:normal;font-variant:normal;font-weight:bold;font-stretch:normal;font-size:40px;font-family:BhashitaComplex;-inkscape-font-specification:'BhashitaComplex Bold';text-align:center;text-anchor:middle"
         id="flowPara2997-1">ග්ර්ර්ර්<flowSpan
   style="letter-spacing:-8.11000252px"
   id="flowSpan3995">...</flowSpan></flowPara></flowRoot>    <flowRoot
       xml:space="preserve"
       id="flowRoot2987-5"
       style="font-style:normal;font-variant:normal;font-weight:normal;font-stretch:normal;font-size:12px;line-height:125%;font-family:Arial;-inkscape-font-specification:Arial;letter-spacing:0px;word-spacing:0px;fill:#000000;fill-opacity:1;stroke:none"
       transform="translate(404.88635,287.90317)"><flowRegion
         id="flowRegion2989-6"><rect
           id="rect2991-0"
           width="598.64893"
           height="340.50882"
           x="481.16055"
           y="638.16943" /></flowRegion><flowPara
         style="font-style:normal;font-variant:normal;font-weight:bold;font-stretch:normal;font-size:40px;line-height:116.99999571%;font-family:BhashitaComplex;-inkscape-font-specification:'BhashitaComplex Bold';text-align:center;letter-spacing:-1.42999995px;text-anchor:middle"
         id="flowPara3081">සැරදේවා, </flowPara><flowPara
         style="font-style:normal;font-variant:normal;font-weight:bold;font-stretch:normal;font-size:40px;line-height:116.99999571%;font-family:BhashitaComplex;-inkscape-font-specification:'BhashitaComplex Bold';text-align:center;letter-spacing:-1.42999995px;text-anchor:middle"
         id="flowPara4013">අ<flowSpan
   style="line-height:116.99999571%;letter-spacing:-1.42999995px;word-spacing:-5.90999985px"
   id="flowSpan4273">පේ </flowSpan>හිතහොඳ මුදලාලි.</flowPara><flowPara
         style="font-style:normal;font-variant:normal;font-weight:bold;font-stretch:normal;font-size:40px;line-height:116.99999571%;font-family:BhashitaComplex;-inkscape-font-specification:'BhashitaComplex Bold';text-align:center;letter-spacing:-1.42999995px;text-anchor:middle"
         id="flowPara4855">මට හැම ජාතියෙන්ම </flowPara><flowPara
         style="font-style:normal;font-variant:normal;font-weight:bold;font-stretch:normal;font-size:40px;line-height:116.99999571%;font-family:BhashitaComplex;-inkscape-font-specification:'BhashitaComplex Bold';text-align:center;letter-spacing:-1.42999995px;text-anchor:middle"
         id="flowPara4851">දුසිම් දෙක<flowSpan
   style="letter-spacing:-5.05999994px"
   id="flowSpan4880">ක් </flowSpan>ලෑස්<flowSpan
   style="letter-spacing:-4px"
   id="flowSpan4934">ති </flowSpan>කරන්න. </flowPara><flowPara
         style="font-style:normal;font-variant:normal;font-weight:bold;font-stretch:normal;font-size:40px;line-height:116.99999571%;font-family:BhashitaComplex;-inkscape-font-specification:'BhashitaComplex Bold';text-align:center;letter-spacing:-1.42999995px;text-anchor:middle"
         id="flowPara4853">හැමදාම වගේ, ඉස්තරම්ම වර්ගයෙන් හොඳේ!</flowPara></flowRoot>    <flowRoot
       xml:space="preserve"
       id="flowRoot2987-5-4"
       style="font-style:normal;font-variant:normal;font-weight:normal;font-stretch:normal;font-size:12px;line-height:125%;font-family:Arial;-inkscape-font-specification:Arial;letter-spacing:0px;word-spacing:0px;fill:#000000;fill-opacity:1;stroke:none"
       transform="translate(454.0739,765.76235)"><flowRegion
         id="flowRegion2989-6-3"><rect
           id="rect2991-0-3"
           width="495.15762"
           height="238.49596"
           x="481.16055"
           y="638.16943" /></flowRegion><flowPara
         style="font-style:normal;font-variant:normal;font-weight:bold;font-stretch:normal;font-size:40px;font-family:BhashitaComplex;-inkscape-font-specification:'BhashitaComplex Bold';text-align:center;text-anchor:middle"
         id="flowPara3138">සැෆ්රෝ<flowSpan
   style="letter-spacing:-3.26999999px"
   id="flowSpan4221">න් </flowSpan>පුං<flowSpan
   style="letter-spacing:-2.17px"
   id="flowSpan4296">චි </flowSpan>නෝනා, හැමදාමත් ඔබට සේවය කිරීම මගේ සතුටයි.</flowPara></flowRoot>    <flowRoot
       xml:space="preserve"
       id="flowRoot2987-5-4-3"
       style="font-style:normal;font-variant:normal;font-weight:normal;font-stretch:normal;font-size:12px;line-height:125%;font-family:Arial;-inkscape-font-specification:Arial;letter-spacing:0px;word-spacing:0px;fill:#000000;fill-opacity:1;stroke:none"
       transform="translate(686.02214,1101.9397)"><flowRegion
         id="flowRegion2989-6-3-5"><rect
           id="rect2991-0-3-3"
           width="316.26553"
           height="145.35382"
           x="481.16055"
           y="638.16943" /></flowRegion><flowPara
         style="font-style:normal;font-variant:normal;font-weight:bold;font-stretch:normal;font-size:40px;font-family:BhashitaComplex;-inkscape-font-specification:'BhashitaComplex Bold';text-align:center;text-anchor:middle"
         id="flowPara3178">මේ බලන්නකෝ, පෙපරුත් ඇවිත්</flowPara></flowRoot>    <flowRoot
       xml:space="preserve"
       id="flowRoot2987-5-4-3-8"
       style="font-style:normal;font-variant:normal;font-weight:normal;font-stretch:normal;font-size:12px;line-height:125%;font-family:Arial;-inkscape-font-specification:Arial;letter-spacing:0px;word-spacing:0px;fill:#000000;fill-opacity:1;stroke:none"
       transform="translate(597.11848,1309.178)"><flowRegion
         id="flowRegion2989-6-3-5-1"><rect
           id="rect2991-0-3-3-7"
           width="486.28693"
           height="210.40549"
           x="481.16055"
           y="638.16943" /></flowRegion><flowPara
         style="font-style:normal;font-variant:normal;font-weight:bold;font-stretch:normal;font-size:41.25px;font-family:BhashitaComplex;-inkscape-font-specification:'BhashitaComplex Bold';text-align:center;text-anchor:middle"
         id="flowPara3214">ගම් පළාතේ වැඩකටයුතු ජයටම කෙරෙනව නේද. මං හරිද?</flowPara></flowRoot>    <flowRoot
       xml:space="preserve"
       id="flowRoot2987-5-4-3-3"
       style="font-size:12px;font-style:normal;font-variant:normal;font-weight:normal;font-stretch:normal;line-height:125%;letter-spacing:0px;word-spacing:0px;fill:#000000;fill-opacity:1;stroke:none;font-family:Arial;-inkscape-font-specification:Arial"
       transform="matrix(1.1166839,0,0,1.2016907,915.6386,1535.5229)"><flowRegion
         id="flowRegion2989-6-3-5-2"><rect
           id="rect2991-0-3-3-1"
           width="316.26553"
           height="145.35382"
           x="481.16055"
           y="638.16943" /></flowRegion><flowPara
         style="font-size:48px;font-style:normal;font-variant:normal;font-weight:normal;font-stretch:normal;text-align:center;text-anchor:middle;font-family:Lavi;-inkscape-font-specification:Lavi"
         id="flowPara3178-4">...</flowPara></flowRoot>    <flowRoot
       xml:space="preserve"
       id="flowRoot2987-5-4-3-8-4"
       style="font-style:normal;font-variant:normal;font-weight:normal;font-stretch:normal;font-size:12px;line-height:125%;font-family:Arial;-inkscape-font-specification:Arial;letter-spacing:0px;word-spacing:0px;fill:#000000;fill-opacity:1;stroke:none"
       transform="translate(272.0702,1995.8903)"><flowRegion
         id="flowRegion2989-6-3-5-1-2"><rect
           id="rect2991-0-3-3-7-1"
           width="504.02832"
           height="347.90109"
           x="481.16055"
           y="638.16943" /></flowRegion><flowPara
         style="font-style:normal;font-variant:normal;font-weight:bold;font-stretch:normal;font-size:42.5px;font-family:BhashitaComplex;-inkscape-font-specification:'BhashitaComplex Bold';text-align:center;text-anchor:middle"
         id="flowPara3292">මයෙ හිතේ,</flowPara><flowPara
         style="font-style:normal;font-variant:normal;font-weight:bold;font-stretch:normal;font-size:42.5px;font-family:BhashitaComplex;-inkscape-font-specification:'BhashitaComplex Bold';text-align:center;text-anchor:middle"
         id="flowPara4992">හෙට තියෙන </flowPara><flowPara
         style="font-style:normal;font-variant:normal;font-weight:bold;font-stretch:normal;font-size:42.5px;font-family:BhashitaComplex;-inkscape-font-specification:'BhashitaComplex Bold';text-align:center;text-anchor:middle"
         id="flowPara4988">මායාවඩි තරඟයට</flowPara><flowPara
         style="font-style:normal;font-variant:normal;font-weight:bold;font-stretch:normal;font-size:42.5px;font-family:BhashitaComplex;-inkscape-font-specification:'BhashitaComplex Bold';text-align:center;text-anchor:middle"
         id="flowPara4986">කළමනාටික ලෑස්ති </flowPara><flowPara
         style="font-style:normal;font-variant:normal;font-weight:bold;font-stretch:normal;font-size:42.5px;font-family:BhashitaComplex;-inkscape-font-specification:'BhashitaComplex Bold';text-align:center;text-anchor:middle"
         id="flowPara4990">කොරනව වගේ?</flowPara></flowRoot>    <flowRoot
       xml:space="preserve"
       id="flowRoot2987-5-4-3-8-4-1"
       style="font-style:normal;font-variant:normal;font-weight:normal;font-stretch:normal;font-size:12px;line-height:132.00000429%;font-family:Arial;-inkscape-font-specification:Arial;letter-spacing:0px;word-spacing:0px;fill:#000000;fill-opacity:1;stroke:none;"
       transform="translate(792.16347,2106.0738)"><flowRegion
         id="flowRegion2989-6-3-5-1-2-0"><rect
           id="rect2991-0-3-3-7-1-3"
           width="328.09311"
           height="154.22458"
           x="481.16055"
           y="638.16943"
           style="line-height:132.00000429%;" /></flowRegion><flowPara
         style="font-style:normal;font-variant:normal;font-weight:bold;font-stretch:normal;font-size:48px;font-family:BhashitaComplex;-inkscape-font-specification:'BhashitaComplex Bold';text-align:center;text-anchor:middle;line-height:132.00000429%;"
         id="flowPara3347"><flowSpan
   style="letter-spacing:-6.57000147px;line-height:132.00000429%;"
   id="flowSpan5000">...</flowSpan><flowSpan
   style="line-height:132.00000429%;"
   id="flowSpan5134">මායාවඩි </flowSpan>තරඟයක්?</flowPara></flowRoot>    <flowRoot
       xml:space="preserve"
       id="flowRoot2987-5-4-3-8-4-1-1"
       style="font-style:normal;font-variant:normal;font-weight:normal;font-stretch:normal;font-size:12px;line-height:125%;font-family:Arial;-inkscape-font-specification:Arial;letter-spacing:0px;word-spacing:0px;fill:#000000;fill-opacity:1;stroke:none"
       transform="translate(865.65244,2311.0294)"><flowRegion
         id="flowRegion2989-6-3-5-1-2-0-9"><rect
           id="rect2991-0-3-3-7-1-3-7"
           width="328.09311"
           height="154.22458"
           x="481.16055"
           y="638.16943" /></flowRegion><flowPara
         style="font-style:normal;font-variant:normal;font-weight:bold;font-stretch:normal;font-size:46.25px;font-family:BhashitaComplex;-inkscape-font-specification:'BhashitaComplex Bold';text-align:center;text-anchor:middle"
         id="flowPara3347-5"><flowSpan
   style="line-height:0%;letter-spacing:-7.89000307px"
   id="flowSpan5222">...</flowSpan>හෙට?</flowPara></flowRoot>    <flowRoot
       xml:space="preserve"
       id="flowRoot4941"
       style="fill:black;stroke:none;stroke-opacity:1;stroke-width:1px;stroke-linejoin:miter;stroke-linecap:butt;fill-opacity:1;font-family:sans-serif;font-style:normal;font-weight:normal;font-size:40px;line-height:125%;letter-spacing:0px;word-spacing:0px"><flowRegion
         id="flowRegion4943"><rect
           id="rect4945"
           width="222.60477"
           height="83.195717"
           x="1182.7284"
           y="1749.4888" /></flowRegion><flowPara
         id="flowPara4947" /></flowRoot>    <flowRoot
       xml:space="preserve"
       id="flowRoot4956"
       style="fill:black;stroke:none;stroke-opacity:1;stroke-width:1px;stroke-linejoin:miter;stroke-linecap:butt;fill-opacity:1;font-family:sans-serif;font-style:normal;font-weight:normal;font-size:40px;line-height:125%;letter-spacing:0px;word-spacing:0px"><flowRegion
         id="flowRegion4958"><rect
           id="rect4960"
           width="260.82983"
           height="83.195717"
           x="1146.7518"
           y="2005.8215" /></flowRegion><flowPara
         id="flowPara4962" /></flowRoot>    <flowRoot
       xml:space="preserve"
       id="flowRoot4964"
       style="fill:black;stroke:none;stroke-opacity:1;stroke-width:1px;stroke-linejoin:miter;stroke-linecap:butt;fill-opacity:1;font-family:sans-serif;font-style:normal;font-weight:normal;font-size:40px;line-height:125%;letter-spacing:0px;word-spacing:0px"><flowRegion
         id="flowRegion4966"><rect
           id="rect4968"
           width="276.56955"
           height="121.42078"
           x="1128.7635"
           y="1954.1053" /></flowRegion><flowPara
         id="flowPara4970" /></flowRoot>  </g>
</svg>
