<?xml version="1.0" encoding="UTF-8" standalone="no"?>
<!-- Created with Inkscape (http://www.inkscape.org/) -->

<svg
   xmlns:dc="http://purl.org/dc/elements/1.1/"
   xmlns:cc="http://creativecommons.org/ns#"
   xmlns:rdf="http://www.w3.org/1999/02/22-rdf-syntax-ns#"
   xmlns:svg="http://www.w3.org/2000/svg"
   xmlns="http://www.w3.org/2000/svg"
   xmlns:xlink="http://www.w3.org/1999/xlink"
   xmlns:sodipodi="http://sodipodi.sourceforge.net/DTD/sodipodi-0.dtd"
   xmlns:inkscape="http://www.inkscape.org/namespaces/inkscape"
   id="svg2"
   version="1.1"
   inkscape:version="0.92.1 renderfarm"
   width="2481"
   height="663"
   sodipodi:docname="Pepper-and-Carrot_by-David-Revoy_E03P00_092.svg">
  <sodipodi:namedview pagecolor="#ffffff" bordercolor="#666666" inkscape:pageopacity="0" inkscape:pageshadow="2" inkscape:window-width="1813" inkscape:window-height="955" id="namedview70" showgrid="false" inkscape:zoom="0.4" inkscape:cx="1284.4231" inkscape:cy="2618.6204" inkscape:current-layer="layer1" /><metadata
     id="metadata8">
    <rdf:RDF>
      <cc:Work
         rdf:about="">
        <dc:format>image/svg+xml</dc:format>
        <dc:type
           rdf:resource="http://purl.org/dc/dcmitype/StillImage" />
        <dc:title />
      </cc:Work>
    </rdf:RDF>
  </metadata>
  <defs
     id="defs6" />
  <sodipodi:namedview
     pagecolor="#ffffff"
     bordercolor="#666666"
     borderopacity="1"
     objecttolerance="10"
     gridtolerance="10"
     guidetolerance="10"
     inkscape:pageopacity="0"
     inkscape:pageshadow="2"
     inkscape:window-width="1130"
     inkscape:window-height="765"
     id="namedview4"
     showgrid="false"
     inkscape:zoom="0.28335072"
     inkscape:cx="1814.0029"
     inkscape:cy="-19.046768"
     inkscape:window-x="387"
     inkscape:window-y="93"
     inkscape:window-maximized="0"
     inkscape:current-layer="layer1" />
  <g
     inkscape:groupmode="layer"
     id="layer2"
     inkscape:label="artwork"
     sodipodi:insensitive="true">
    <image
       sodipodi:absref="/home/deevad/peppercarrot/webcomics/ep03_The-secret-ingredients/lang/si/../gfx_Pepper-and-Carrot_by-David-Revoy_E03P00.png"
       xlink:href="../gfx_Pepper-and-Carrot_by-David-Revoy_E03P00.png"
       width="2481"
       height="663"
       id="image10"
       x="0"
       y="0" />
    <rect
       style="display:inline;fill:#ffffff;fill-opacity:1"
       id="rect3345"
       width="1986.9369"
       height="494.08734"
       x="268.21884"
       y="59.507618" />
  </g>
  <g
     inkscape:groupmode="layer"
     id="layer1"
     inkscape:label="txt"
     style="display:inline">
    <flowRoot
       xml:space="preserve"
       id="flowRoot2987"
       style="font-style:normal;font-variant:normal;font-weight:normal;font-stretch:normal;line-height:0.01%;font-family:Arial;-inkscape-font-specification:Arial;letter-spacing:0px;word-spacing:0px;fill:#301b0b;fill-opacity:1;stroke:none"
       transform="translate(-701.81836,-122.27392)"><flowRegion
         id="flowRegion2989"><rect
           id="rect2991"
           width="2405.8"
           height="107.55731"
           x="739.22333"
           y="644.36664"
           style="fill:#301b0b;fill-opacity:1" /></flowRegion><flowPara
         id="flowPara2993"
         style="font-style:normal;font-variant:normal;font-weight:bold;font-stretch:normal;font-size:72px;line-height:1.25;font-family:BhashitaComplex;-inkscape-font-specification:'BhashitaComplex Bold';text-align:center;text-anchor:middle;fill:#301b0b;fill-opacity:1">3වන කතාංගය : රහස් වට්ටෝරුව</flowPara></flowRoot>    <path
       style="display:inline;fill:#301b0b;fill-opacity:1"
       d="m 1352.0084,427.00895 c -0.2276,-0.22781 0.4771,-0.79165 1.5662,-1.25301 1.8977,-0.80398 1.9311,-0.87486 0.8034,-1.70731 -0.6472,-0.47769 -1.9589,-0.8685 -2.9148,-0.8685 -0.9563,0 -1.5905,-0.23956 -1.4096,-0.53235 0.1811,-0.29278 -0.5531,-0.72315 -1.631,-0.95636 l -1.9602,-0.424 1.5155,-0.62573 c 0.8332,-0.34414 3.541,-1.14465 6.017,-1.7789 2.4758,-0.63426 7.4657,-2.51358 11.0882,-4.17631 3.6226,-1.66271 6.8168,-3.02311 7.0981,-3.02311 0.2812,0 3.0755,-2.42653 6.2091,-5.39233 6.5129,-6.16378 8.3022,-9.2025 10.1926,-17.31003 1.3024,-5.5858 1.6494,-18.51984 0.6428,-23.97075 -1.3007,-7.04627 -1.937,-9.23484 -4.1444,-14.25691 l -2.3706,-5.39345 2.0301,-1.91467 c 1.5315,-1.4443 2.0302,-2.42236 2.0302,-3.98128 0,-5.17158 -6.0975,-7.75555 -9.73,-4.12324 l -1.2128,1.21299 -2.6253,-1.53853 c -7.4077,-4.34113 -16.3753,-4.56472 -24.0433,-0.59946 -3.0615,1.58311 -5.9421,3.72441 -7.4247,5.51918 -3.4377,4.16105 -13.7599,18.14212 -13.7599,18.63721 0,0.15321 2.2503,1.50662 5.0007,3.00763 7.8096,4.2621 9.8127,5.94953 11.7535,9.90245 1.6212,3.30119 1.7315,3.99991 1.7065,10.80319 -0.024,6.35691 -0.2387,7.87401 -1.7065,12.03608 -3.5419,10.04327 -11.326,18.04951 -22.5049,23.14771 -6.5972,3.00872 -14.103,4.51659 -22.4877,4.51785 -12.296,10e-4 -22.3267,-2.53073 -30.3491,-7.66262 -3.0333,-1.9404 -3.1707,-2.14261 -3.0756,-4.52723 0.081,-2.04428 -0.2047,-2.75776 -1.5812,-3.9418 -0.9243,-0.79514 -2.1777,-1.44571 -2.7849,-1.44571 -1.5126,0 -2.064,-0.88015 -3.4195,-5.45529 -0.939,-3.17002 -1.1622,-5.77592 -1.1422,-13.33518 0.029,-10.96715 0.7685,-14.3169 4.9876,-22.60415 2.1587,-4.2398 3.8229,-6.43894 8.1432,-10.75907 2.9865,-2.98653 5.671,-5.43004 5.9659,-5.43004 0.2948,0 1.8145,-0.81084 3.3773,-1.8019 2.3782,-1.50821 2.6533,-1.86328 1.688,-2.17831 -5.525,-1.80307 -8.8642,-4.2471 -10.7111,-7.8396 -0.8785,-1.70871 -1.3262,-3.9832 -1.5161,-7.7035 -0.238,-4.66022 -0.1126,-5.53195 1.0649,-7.43822 2.8954,-4.6845 8.1824,-6.96215 16.1921,-6.97536 9.2367,-0.0152 18.3656,4.20455 18.3656,8.48942 0,1.9892 1.3874,3.62628 3.0733,3.62628 0.6427,0 2.3251,1.12271 3.739,2.49493 2.7323,2.65141 4.4884,3.56652 6.845,3.56652 2.6728,0 5.6684,1.88878 6.3709,4.01688 1.0033,3.04018 -0.8147,5.56406 -4.8746,6.76717 -2.6872,0.79635 -9.4435,2.68564 -14.5476,4.06791 -19.386,5.25038 -27.8461,10.48954 -32.3714,20.04699 -2.1244,4.4866 -2.4869,6.62897 -2.4537,14.50181 0.024,6.10762 0.1696,6.93276 1.7174,9.82494 4.3466,8.12326 13.7308,12.29688 27.6528,12.29862 10.4067,0.001 19.3667,-2.98341 25.7052,-8.56298 3.1024,-2.73075 5.8142,-7.72139 5.8142,-10.70014 0,-0.99352 0.5291,-2.24229 1.2121,-2.86044 1.5302,-1.38473 1.6149,-4.79524 0.1516,-6.09263 -0.5835,-0.51723 -2.561,-1.94924 -4.3946,-3.18227 l -3.3336,-2.24183 -6.8721,0 c -6.4904,0 -6.9363,-0.0795 -8.0313,-1.43099 -0.6377,-0.78703 -1.1597,-1.78489 -1.1597,-2.21747 0,-0.81011 3.1555,-4.91876 9.0687,-11.80823 1.8598,-2.16697 4.9428,-6.25844 6.8509,-9.09216 11.775,-17.48864 22.8303,-26.19313 36.6171,-28.831 10.7647,-2.05959 21.9007,-0.33049 30.2021,4.68963 3.2285,1.95226 9.384,7.61858 9.4121,8.66397 0.013,0.34477 0.8275,1.69831 1.8184,3.00787 0.9909,1.30957 1.8015,2.74456 1.8015,3.18888 0,0.44431 0.5047,1.96411 1.1213,3.37735 2.3553,5.39813 3.1218,10.30068 3.1218,19.96828 0,6.32887 -0.2918,10.44023 -0.9091,12.81066 -0.5001,1.9199 -0.9093,3.97785 -0.9093,4.57325 0,0.59538 -0.8183,1.8116 -1.8183,2.70274 -1.8926,1.68613 -2.2013,2.79389 -1.2659,4.54153 0.4032,0.75345 -0.1347,2.42196 -1.9871,6.17315 -2.2105,4.47441 -4.3766,7.95753 -11.2946,18.16279 -2.9937,4.41611 -6.2282,7.88978 -7.3467,7.88978 -0.6267,0 -1.1394,0.27277 -1.1394,0.60616 0,0.66071 1.7486,0.83663 6.2331,0.62716 1.5945,-0.0745 4.5363,0.0546 6.5373,0.28683 3.209,0.37242 3.5948,0.55789 3.2727,1.57255 -0.3233,1.01941 -0.034,1.1525 2.555,1.16959 5.5798,0.0368 1.3362,1.49587 -8.3967,2.88711 -5.1106,0.73053 -12.65,2.14843 -16.7541,3.15087 -6.3854,1.55973 -8.6224,1.82263 -15.5072,1.82263 -4.4249,0 -8.2316,-0.18638 -8.4596,-0.41419 z m -57.7115,-88.62886 c 0.1854,-0.3003 2.3836,-1.18121 4.8848,-1.95761 2.5011,-0.77638 4.5475,-1.56867 4.5475,-1.76065 0,-0.78336 -6.7603,-8.47384 -8.8503,-10.06777 -2.0385,-1.55502 -2.7066,-1.71525 -7.18,-1.72267 -3.9401,-0.007 -5.2933,0.23579 -6.7256,1.20412 l -1.7929,1.2123 4.2429,0.30308 c 4.4078,0.31485 6.0283,1.06294 8.1533,3.76432 1.0108,1.28519 1.1916,2.26538 1.0259,5.56538 -0.1485,2.96261 0,4.00547 0.5779,4.00547 0.4284,0 0.931,-0.24569 1.1165,-0.54597 z m -146.0437,85.77836 c -3.7519,-0.91242 -8.2565,-3.34823 -11.75,-6.35364 l -2.6575,-2.28646 1.597,-1.59686 c 2.5989,-2.59899 1.9704,-6.30327 -1.2993,-7.65766 -1.2034,-0.49846 -2.211,-0.53386 -3.3093,-0.11637 -1.4411,0.54787 -1.6417,0.43106 -2.2961,-1.33646 -0.3944,-1.06524 -0.8012,-5.26601 -0.9041,-9.33505 -0.1687,-6.67178 -0.024,-7.92168 1.4763,-12.72903 0.9151,-2.93192 2.2837,-6.69461 3.0418,-8.36151 0.758,-1.66691 1.754,-3.89678 2.2128,-4.95527 l 0.8346,-1.92455 -1.6559,0.49954 c -0.9111,0.27474 -2.6072,0.91136 -3.7692,1.4147 -1.3844,0.5996 -2.4648,0.72697 -3.1331,0.3693 -0.7088,-0.37938 -2.0054,-0.0872 -4.2514,0.95854 -1.7774,0.8274 -3.8124,1.50706 -4.5224,1.51031 -0.7101,0.003 -3.1574,0.94534 -5.4386,2.09352 -2.2814,1.14817 -4.2359,1.99969 -4.3433,1.89226 -0.1072,-0.10744 1.592,-1.61763 3.7768,-3.356 2.1845,-1.73838 4.3106,-3.61709 4.7248,-4.17492 3.0689,-4.13506 12.5715,-10.08789 25.3344,-15.87054 8.2249,-3.72656 9.5392,-4.33295 19.9699,-9.21352 3.1671,-1.48189 6.144,-2.82014 6.6149,-2.97388 1.1489,-0.37493 -7.0601,-8.50057 -9.9949,-9.89323 -2.7618,-1.31055 -5.571,-0.85022 -7.882,1.29161 l -1.7114,1.58609 2.635,1.03028 c 3.4431,1.34619 4.2768,2.60325 4.2768,6.44705 0,2.7331 -0.2574,3.42902 -1.8649,5.03636 -1.6391,1.63918 -2.2766,1.86507 -5.2639,1.86507 -7.1112,0 -11.0621,-3.91544 -11.0494,-10.95043 0.014,-5.56586 4.0014,-12.6892 7.1102,-12.6892 2.1375,0 3.6055,-0.98259 4.037,-2.70243 0.4977,-1.98279 2.3392,-2.46755 9.0413,-2.38 l 5.3442,0.0698 7.688,7.59882 c 6.1712,6.0996 8.1898,7.73308 10.2317,8.27931 2.9483,0.78874 5.0332,3.08854 5.0332,5.552 0,3.03853 -5.6136,7.02839 -16.1847,11.50344 -8.589,3.63586 -12.6505,6.23078 -17.5632,11.22104 -6.0175,6.11286 -8.8229,10.61686 -11.7016,18.78615 -0.9351,2.65364 -0.9761,3.38149 -0.3014,5.3439 1.4155,4.11748 4.4505,6.46734 11.7557,9.10256 9.2292,3.32918 18.4045,1.59431 24.0136,-4.54052 1.3445,-1.47043 4.2987,-5.33503 6.5645,-8.58802 2.266,-3.25296 4.662,-6.20457 5.3247,-6.55912 1.7372,-0.92987 3.4339,0.40499 5.939,4.6729 4.6464,7.91613 6.1774,9.8648 9.013,11.47268 9.8209,5.56885 19.5711,5.14397 26.0751,-1.13623 3.7488,-3.61969 4.9536,-6.26705 4.9363,-10.84608 -0.014,-2.0969 -0.2894,-4.9036 -0.6255,-6.23713 -0.3361,-1.33352 -0.7497,-3.0688 -0.9189,-3.85621 -1.0998,-5.11452 -8.2367,-13.89497 -13.7199,-16.87932 -1.9013,-1.03479 -2.9057,-1.98092 -2.9057,-2.73719 0,-2.24228 -1.1625,-3.5007 -3.2338,-3.5007 -1.0885,0 -2.2597,0.2807 -2.6027,0.62379 -0.4276,0.4276 -2.8008,-0.25057 -7.5466,-2.15649 -6.705,-2.69288 -10.2565,-5.05555 -10.2565,-6.82353 0,-1.3032 3.4837,-4.27723 7.2413,-6.1819 1.8516,-0.93844 4.0482,-2.45388 4.8816,-3.36764 0.8334,-0.91377 3.5108,-3.2596 5.9496,-5.21298 3.3745,-2.70288 4.9079,-3.55161 6.4159,-3.55161 1.4273,0 2.4244,-0.49697 3.5644,-1.77636 1.9223,-2.15748 5.2692,-2.79959 11.7413,-2.2525 11.1309,0.9409 16.4591,7.90803 15.8295,20.69785 -0.3002,6.09846 -2.2368,11.47577 -4.772,13.25153 -2.1049,1.4744 -4.9273,1.26121 -6.5792,-0.49701 -1.5037,-1.60078 -1.5017,-3.35387 0.014,-9.42074 1.7409,-6.98322 1.2827,-10.39269 -1.7137,-12.74956 -3.4313,-2.69912 -11.1802,-0.68789 -18.3237,4.75591 -2.5002,1.90547 -4.5106,3.73343 -4.4677,4.06216 0.043,0.32872 1.6929,1.15367 3.6661,1.83319 1.9734,0.67952 4.4352,1.83875 5.4707,2.57611 1.0355,0.73735 2.1378,1.34063 2.4496,1.34063 1.2341,0 12.33,11.6858 15.3437,16.15971 11.1289,16.52064 13.1261,30.94981 6.2273,44.99403 -2.6267,5.34683 -8.6428,11.99969 -13.1496,14.54094 -5.961,3.36121 -17.5347,5.02967 -18.3788,2.64948 -1.0838,-3.05648 -3.6896,-4.04462 -5.7496,-2.18037 -1.0309,0.93301 -1.2763,0.92565 -3.5672,-0.10743 -3.4348,-1.54884 -8.2791,-7.04763 -11.3786,-12.91604 -1.4424,-2.73063 -2.8764,-4.80787 -3.1867,-4.61609 -0.3103,0.19178 -1.0125,1.21789 -1.5604,2.28022 -1.6755,3.24867 -7.8513,11.01598 -10.8745,13.67705 -3.5343,3.11107 -9.1912,5.93268 -13.5098,6.73871 -4.2945,0.80146 -11.7356,0.69085 -15.5255,-0.23076 z m 553.7129,-0.11911 c -13.5629,-3.57825 -24.3093,-15.17982 -27.8882,-30.10727 -2.3041,-9.61169 -1.3732,-25.70702 2.2092,-38.1925 4.6431,-16.18225 14.0533,-32.13762 26.808,-45.45376 l 3.9191,-4.09148 -8.6097,0 c -9.6939,0 -12.5631,-0.84609 -14.3073,-4.21886 -2.9624,-5.72869 0.2693,-8.29456 11.2376,-8.92212 l 6.5674,-0.37576 2.1744,1.90921 c 1.3003,1.14162 2.8363,1.90833 3.8203,1.90697 1.809,-10e-4 5.5859,-2.04413 5.5859,-3.01955 0,-0.87173 8.9277,-0.69169 11.4833,0.23156 2.8293,1.02224 4.3878,3.30987 4.7381,6.95524 0.4834,5.03129 0.043,5.75673 -6.3672,10.4911 -12.0112,8.87098 -22.0871,20.97689 -28.5006,34.24261 -2.7621,5.71365 -2.77,5.74846 -3.0497,13.49541 -0.3233,8.95048 0.491,13.6655 3.7511,21.72092 1.1936,2.94878 1.7861,5.16332 1.4391,5.37776 -0.3244,0.2005 -0.9846,1.30935 -1.4671,2.46407 -1.7535,4.19679 1.0275,8.05696 5.8044,8.05696 2.1255,0 2.7701,0.37249 5.2706,3.04578 1.567,1.67517 4.4444,4.0149 6.3943,5.19937 2.9367,1.78405 4.2984,2.20806 7.9344,2.47099 4.3783,0.31657 4.3955,0.31182 7.0077,-1.94929 1.4403,-1.24665 4.4938,-5.06125 6.7854,-8.47688 2.2917,-3.41564 4.9277,-6.80886 5.8578,-7.54048 2.1367,-1.68067 4.7659,-1.29186 6.783,1.00304 1.2937,1.4717 1.4082,2.05781 1.1547,5.91054 -0.7374,11.20642 -11.7489,22.17826 -27.3682,27.26934 -5.5742,1.81684 -13.5971,2.06675 -19.1678,0.59708 z m -88.497,-20.36763 c -1.5005,-0.31147 -3.8189,-0.6427 -5.1524,-0.7361 -4.1181,-0.2884 -6.9706,-1.06851 -6.9706,-1.90629 0,-0.4405 -0.5607,-0.97882 -1.2456,-1.19626 -1.7069,-0.54167 -1.226,-1.50313 1.5202,-3.04059 3.4893,-1.95333 9.5038,-6.93641 9.1206,-7.55638 -0.1853,-0.29991 0.1721,-0.81773 0.7943,-1.15073 0.6222,-0.33298 6.2763,-7.76941 12.565,-16.5254 14.3007,-19.91185 14.4781,-20.32104 14.0266,-32.33074 -0.396,-10.53807 -2.0816,-17.24795 -6.6737,-26.56946 l -3.235,-6.56668 1.0761,-2.2224 c 1.3048,-2.69568 0.9501,-4.98094 -1.0897,-7.02069 -1.7093,-1.70937 -3.3679,-2.11784 -5.8964,-1.45222 -1.6243,0.42762 -2.1773,0.0721 -6.8145,-4.37965 -8.4107,-8.07473 -17.742,-13.30874 -28.6955,-16.09578 -3.7051,-0.94275 -6.6203,-1.14915 -15.7596,-1.11584 -10.6115,0.0387 -11.589,0.14299 -18.1988,1.94152 -8.5729,2.33265 -16.765,6.08919 -23.8091,10.91777 l -5.336,3.6578 2.1353,1.62865 c 2.9887,2.2796 8.7161,3.94409 15.7428,4.5752 7.841,0.7042 15.4119,2.63416 20.6766,5.27088 20.2326,10.13286 27.6109,22.77796 26.7922,45.91692 -0.3379,9.55207 -1.4805,14.41177 -4.7403,20.16024 -5.9919,10.56641 -15.8487,17.46418 -28.9287,20.24441 -4.8063,1.0216 -7.2062,1.18591 -13.4291,0.91942 -6.8268,-0.29236 -8.0268,-0.51982 -12.1228,-2.29831 -6.5801,-2.85694 -11.7535,-7.16941 -15.9131,-13.26463 -1.0239,-1.50021 -1.937,-2.82449 -2.0289,-2.94284 -0.093,-0.11829 -1.066,0.83633 -2.164,2.12151 -4.9067,5.7434 -11.3064,11.94932 -13.4631,13.05562 -7.5724,3.88417 -19.0223,3.96284 -28.0457,0.19262 -2.0829,-0.87025 -2.1511,-0.98442 -1.2096,-2.02469 1.8876,-2.08576 1.1607,-5.12414 -1.5627,-6.53247 -1.4702,-0.76026 -2.1309,-0.80044 -3.5432,-0.21544 -0.9548,0.39548 -1.8999,1.23527 -2.1,1.86618 -0.2002,0.63092 -0.6867,1.14593 -1.081,1.1445 -0.3943,-0.001 -4.0266,-3.07528 -8.0722,-6.83079 -9.4452,-8.76849 -9.7547,-8.93652 -13.2877,-7.21998 -6.1341,2.98012 -10.4199,0.6117 -10.675,-5.89912 -0.1412,-3.60927 1.8936,-6.26943 13.956,-18.2413 11.6505,-11.56302 24.9458,-23.16405 48.0515,-41.92812 l 14.9296,-12.12428 -1.9466,-6.15685 c -4.1488,-13.12365 -7.6561,-17.14029 -15.543,-17.80151 -3.424,-0.28705 -4.6131,-0.65658 -5.7403,-1.78397 -1.5898,-1.58967 -2.5447,-1.73811 -4.7415,-0.73715 -4.4367,2.02155 -2.6992,8.40738 2.2878,8.40738 1.2734,0 1.5957,0.36231 1.9363,2.17697 0.6375,3.39899 -0.1656,8.08684 -1.8117,10.57431 -0.8845,1.33647 -2.6441,2.81298 -4.3191,3.62376 -2.4462,1.18415 -3.47,1.32419 -7.608,1.04058 -4.1973,-0.28768 -5.0777,-0.56232 -7.206,-2.24791 -3.4408,-2.7252 -4.9291,-6.3975 -5.3131,-13.10961 -0.3866,-6.75447 0.6609,-10.45219 4.0513,-14.30415 4.5802,-5.20329 12.4176,-7.73322 23.9747,-7.73897 10.8936,-0.005 16.6691,2.26463 23.6891,9.31146 4.6342,4.65167 6.5924,7.62651 9.6496,14.65892 l 1.9638,4.51783 3.8669,-2.85678 c 14.7958,-10.93145 32.0708,-19.33503 47.6687,-23.18913 l 5.5526,-1.37201 1.6202,1.27442 c 2.3722,1.8661 4.6712,1.64822 6.5831,-0.62386 l 1.5972,-1.89831 11.0342,0.34161 c 7.9099,0.24488 12.4929,0.68519 16.1862,1.55506 23.6552,5.57127 37.6291,18.96942 44.4894,42.65599 2.981,10.29157 3.5218,14.91255 3.8404,32.8141 0.2645,14.84756 0.1715,17.38256 -0.7682,20.91198 -2.0706,7.77772 -7.2991,16.94441 -17.3824,30.47526 -3.656,4.90601 -6.5988,9.11819 -6.5391,9.36037 0.059,0.24221 -0.3254,0.68302 -0.8553,0.97959 -0.5301,0.29655 -0.9635,0.93479 -0.9635,1.41831 0,0.93359 0.069,0.96894 2.4247,1.24892 5.093,0.60523 7.0307,1.15695 7.9198,2.25488 0.9134,1.12793 1.2438,1.16514 4.5137,0.50843 4.4088,-0.8854 9.1884,-0.91488 9.7169,-0.0599 0.2204,0.35674 0.9589,0.85504 1.641,1.10735 1.1414,0.42227 1.0706,0.56337 -0.8913,1.77596 -1.2985,0.80239 -3.122,1.31722 -4.666,1.31722 -1.3941,0 -3.2713,0.37306 -4.1716,0.82905 -2.4425,1.23717 -10.928,2.96531 -12.5551,2.55695 -0.7813,-0.19606 -5.1139,0.3257 -9.6284,1.15947 -8.7936,1.62413 -9.5176,1.6663 -13.7002,0.79795 z m -67.2219,-37.11611 c 9.4917,-2.88092 16.2576,-9.63478 18.7094,-18.67594 0.5202,-1.91837 0.6808,-5.22603 0.4858,-10.0014 -0.4846,-11.85864 -3.5504,-18.33152 -10.3031,-21.75342 -1.6692,-0.84576 -9.344,-3.66781 -17.0556,-6.27122 -7.7117,-2.60339 -16.6663,-5.96953 -19.8991,-7.48028 l -5.8784,-2.74687 -31.2024,27.0751 c -17.1613,14.89131 -31.2228,27.25163 -31.2481,27.46738 -0.047,0.40157 8.7598,6.21087 14.1986,9.36623 3.03,1.75779 3.0336,1.75823 13.6383,1.75823 8.9325,0 11.0979,-0.18204 13.7128,-1.15279 5.2898,-1.96378 8.3587,-4.69251 12.691,-11.28406 2.963,-4.50756 4.5799,-6.37105 6.2823,-7.23957 2.1828,-1.11359 2.3908,-1.12038 4.3395,-0.14186 2.7774,1.3948 4.3693,3.97975 6.6306,10.76744 1.5842,4.75539 2.3062,6.0697 4.2142,7.67163 1.2664,1.06322 3.2199,2.26508 4.341,2.6708 2.8282,1.02346 12.9342,1.00528 16.3432,-0.0294 z M 523.08413,391.62711 c -11.06783,-1.98781 -25.03727,-9.0067 -35.1419,-17.65692 -1.70541,-1.45991 -1.83566,-1.80074 -1.26312,-3.30659 1.4484,-3.80951 -1.31046,-9.3983 -5.4949,-11.13156 -1.00724,-0.41718 -3.01518,-0.62508 -4.46217,-0.46199 -2.57167,0.28986 -2.67199,0.23357 -4.45306,-2.49842 -6.53458,-10.02313 -9.26332,-19.56664 -9.25941,-32.38413 0,-9.06778 1.09232,-16.85183 3.36614,-24.04994 2.46045,-7.78869 3.61272,-10.1043 5.23012,-10.51023 0.78998,-0.19827 2.2416,-1.20104 3.2258,-2.22836 1.49776,-1.5633 1.80279,-2.40197 1.87078,-5.14346 0.0721,-2.89429 0.37212,-3.62308 2.58016,-6.26033 11.03289,-13.17756 26.45244,-22.09582 44.94512,-25.99512 7.41715,-1.56392 29.03262,-1.55397 36.36869,0.0169 15.66303,3.35364 28.18186,9.99287 39.57714,20.98925 l 6.01799,5.80743 -0.76325,2.54756 c -1.52869,5.10239 2.11054,10.38497 7.90269,11.47119 2.53763,0.47588 2.84278,0.74381 4.38049,3.84531 2.33689,4.71354 3.99444,9.20165 5.59643,15.15362 l 1.38673,5.15222 1.61691,-3.63687 c 0.88929,-2.00028 1.93625,-4.3673 2.32658,-5.26004 0.39043,-0.89276 0.91672,-1.49531 1.1696,-1.33904 0.25288,0.15628 0.63372,-0.40893 0.84635,-1.25599 0.21253,-0.8471 0.67045,-1.54016 1.01753,-1.54016 0.90071,0 0.11513,18.07705 -1.00101,23.03348 -1.16459,5.17183 -5.89356,16.46372 -7.88678,18.83257 -0.86517,1.02815 -1.57295,2.13958 -1.57295,2.46984 0,0.33886 -0.56853,0.42004 -1.30495,0.18631 -1.02785,-0.32622 -1.71002,0.0685 -3.21278,1.85831 -1.68196,2.00339 -2.04939,2.18407 -3.10326,1.52589 -1.33988,-0.83677 -2.68348,-3.33571 -2.68348,-4.99101 0,-0.60028 -0.40915,-1.09144 -0.90921,-1.09144 -0.70388,0 -0.90711,-0.78722 -0.89991,-3.48532 0.009,-2.47391 0.1798,-3.22149 0.59687,-2.57612 0.43108,0.66708 0.59006,0.23367 0.59686,-1.62743 0.009,-1.39517 0.2662,-3.21256 0.58036,-4.03868 0.818,-2.15163 -0.2709,-14.84253 -1.77639,-20.70117 -1.5231,-5.92779 -4.82266,-13.09533 -8.32516,-18.08488 -9.3419,-13.30823 -26.30798,-24.34187 -43.55938,-28.32832 -7.71129,-1.78192 -19.12188,-1.40401 -26.61812,0.88157 -15.62808,4.76489 -26.21438,16.65137 -30.78526,34.56602 -1.02434,4.01471 -1.2594,6.883 -1.29585,15.81478 -0.0401,9.69926 0.11458,11.48259 1.38896,16.0628 4.64436,16.69174 16.58233,29.382 31.9044,33.91486 6.73269,1.99181 18.11056,2.45191 23.48194,0.94954 5.72125,-1.6002 9.24289,-3.62804 13.09506,-7.54056 3.61023,-3.66669 6.38781,-8.23852 8.49876,-13.98865 1.77098,-4.82415 3.11266,-10.44194 3.11266,-13.03292 0,-1.91869 -0.15627,-2.18092 -1.06067,-1.77909 -6.52967,2.90121 -11.68781,4.09048 -18.94208,4.3673 -8.69658,0.33187 -12.76091,-0.43949 -19.23051,-3.64968 -5.07465,-2.51806 -9.73654,-7.51814 -11.30108,-12.12104 -1.55533,-4.57576 -1.1853,-12.33367 0.78107,-16.37718 2.98863,-6.14524 11.41832,-11.87752 20.65841,-14.04777 5.07644,-1.19236 13.91678,-1.19914 18.46624,-0.0143 12.50072,3.25604 21.25627,14.50947 24.02713,30.88207 0.45861,2.71023 0.58805,7.39574 0.35981,13.03212 -0.29954,7.39781 -0.64872,9.7665 -2.19104,14.86187 -6.04152,19.9603 -21.29521,35.99411 -40.05597,42.10448 -5.22633,1.70218 -6.65462,1.89945 -15.45672,2.13465 -5.33403,0.14255 -11.16762,-0.005 -12.96341,-0.32725 z m 43.95611,-71.8019 c 4.58241,-1.53827 10.52821,-4.29209 10.52821,-4.87616 0,-0.77378 -2.55854,-4.98867 -4.09685,-6.74911 -0.92964,-1.06388 -3.18406,-2.6296 -5.00968,-3.47942 -6.44907,-3.00184 -19.02106,-1.77689 -22.85703,2.22711 -1.4333,1.49594 -1.67747,2.25601 -1.67747,5.2206 0,6.39653 3.85229,9.05681 13.22832,9.13504 4.18895,0.035 6.33176,-0.28547 9.8845,-1.47806 z m 466.04566,71.22506 c -6.5901,-0.67191 -14.5767,-2.91823 -21.2151,-5.96703 -16.11829,-7.40251 -27.61069,-20.87098 -32.40245,-37.9742 -1.65293,-5.89963 -1.91218,-7.92834 -2.25085,-17.61401 -0.94182,-26.94426 5.12616,-49.45204 18.12916,-67.2462 2.45213,-3.35566 3.44491,-5.22253 3.22303,-6.06145 -0.17627,-0.66676 -0.34444,-27.80688 -0.3737,-60.31137 -0.0495,-55.78079 -0.10992,-58.97591 -1.06918,-56.90514 -2.20043,4.75267 -6.2941,7.93125 -11.15304,8.6599 -1.71105,0.25657 -4.92241,0.0453 -8.34919,-0.54925 -4.26857,-0.7406 -6.03636,-0.81189 -7.57142,-0.3053 -3.89172,1.2844 -4.23519,6.31437 -0.7415,10.86006 l 1.86851,2.43128 2.04477,-3.03616 c 3.16835,-4.70486 7.07874,-5.50475 11.72006,-2.39745 7.91475,5.29868 7.41342,14.74113 -0.95253,17.9361 -3.77836,1.44293 -13.9977,0.98499 -18.00248,-0.8067 -7.02682,-3.14375 -10.24105,-9.20421 -10.66339,-20.10582 -0.30102,-7.76959 0.38703,-12.07909 2.66687,-16.70464 1.95383,-3.96438 4.40913,-5.56357 11.59641,-7.55295 5.85982,-1.62197 5.89032,-1.62384 6.86552,-0.41964 1.99284,2.46126 6.63771,1.02398 7.47525,-2.31313 0.29978,-1.19437 1.17578,-1.62768 5.66143,-2.80062 5.49546,-1.43699 6.27418,-1.96142 10.84832,-7.30651 2.4692,-2.88545 4.1512,-3.73704 6.5081,-3.29489 2.1115,0.3961 3.4749,2.41199 4.5909,6.78774 0.9366,3.67197 0.9914,13.18419 0.4167,72.34766 l -0.5209,53.62365 12.9468,-12.61874 c 7.1207,-6.94031 18.0811,-17.97822 24.3564,-24.5287 12.456,-13.00228 14.6386,-16.27749 17.2974,-25.95761 1.104,-4.0186 1.118,-4.38042 0.1853,-4.75832 -0.8608,-0.34864 -0.8061,-0.48745 0.3692,-0.94048 1.1369,-0.43824 1.3082,-0.82631 0.9755,-2.21232 -0.4972,-2.07148 -0.5788,-2.16735 -1.9269,-2.26669 -0.5981,-0.0441 -1.7497,-0.54401 -2.5592,-1.11099 -1.2334,-0.86378 -3.0095,-1.03085 -10.9594,-1.03085 -9.1885,0 -13.2856,-0.35099 -13.2671,-1.1365 0.014,-0.54902 6.4355,-2.94512 15.1446,-5.65005 4.1672,-1.29429 9.7589,-3.04932 12.426,-3.90007 7.7384,-2.46848 7.3957,-2.40142 6.4637,-1.26486 -0.8847,1.07913 -0.4877,2.25319 0.7618,2.25319 0.4343,0 2.5944,-0.81831 4.8002,-1.81844 2.2058,-1.00014 4.3781,-1.81844 4.8272,-1.81844 1.4961,0 3.2938,2.68903 4.0521,6.06143 0.4122,1.83359 1.1279,3.93793 1.5903,4.67632 1.0216,1.63061 1.06,3.72964 0.1514,8.2547 -0.6097,3.03552 -0.8599,3.4349 -2.1516,3.4349 -3.6419,0 -7.4585,3.87715 -7.4585,7.57679 0,1.00016 0.5546,2.72835 1.2327,3.84044 l 1.2328,2.022 -3.3469,4.64559 c -5.3237,7.39011 -9.5977,11.78773 -32.6992,33.64473 -21.4258,20.27158 -21.7159,20.5778 -19.0935,20.15674 20.2907,-3.25798 32.9437,-2.88618 43.5773,1.28053 5.009,1.96267 11.0311,5.55275 10.5689,6.3006 -0.6533,1.05713 0.4038,4.07726 1.9782,5.65166 1.2369,1.23693 2.1544,1.55958 4.4346,1.55958 2.6473,0 3.0422,0.20412 4.9865,2.57677 6.6666,8.13573 12.1496,19.55374 14.8371,30.89685 1.495,6.31006 1.6188,7.83582 1.6108,19.86708 -0.014,12.71442 -0.056,13.21467 -1.9625,20.52191 -4.775,18.30363 -16.2489,35.88791 -28.8342,44.18956 -2.9419,1.94067 -3.0074,1.95348 -4.2429,0.83119 -3.0862,-2.80324 -6.1335,-3.22029 -9.3228,-1.27583 -2.0749,1.26509 -3.7519,4.32533 -3.7519,6.84683 0,1.31833 -0.3715,1.50737 -4.2083,2.14097 -4.5179,0.74615 -16.4589,0.78935 -23.3712,0.0846 z m 21.4102,-36.88703 c 20.5715,-6.57708 32.8395,-27.52486 32.8395,-56.07371 0,-11.07846 -2.2541,-17.63338 -8.3309,-24.22599 -5.3169,-5.76807 -11.1037,-9.28094 -18.7496,-11.38151 -4.2072,-1.15591 -5.7672,-1.26557 -13.8342,-0.97232 -10.6536,0.38728 -17.6269,1.82023 -24.8517,5.10671 -5.3661,2.44098 -12.732,7.87295 -14.8781,10.9719 -0.7635,1.10237 -2.2751,2.37492 -3.3591,2.82786 -2.4138,1.00854 -3.49104,2.87478 -3.1113,5.39035 0.1768,1.17088 -0.1547,2.77344 -0.86364,4.1748 -3.95216,7.81294 -6.07826,29.61465 -3.86244,39.60591 3.13167,14.11988 11.74158,22.25387 27.28678,25.77837 3.9811,0.9026 6.7481,1.0551 15.4568,0.85183 9.7246,-0.22698 11.0777,-0.39795 16.2579,-2.0542 z m 743.2408,36.88827 c -11.2418,-1.247 -24.1013,-6.31701 -32.5646,-12.83896 -8.3626,-6.44432 -16.01,-16.73724 -19.2427,-25.89953 -0.8036,-2.27821 -0.7826,-2.44056 0.3639,-2.80445 2.9937,-0.95013 4.4544,-6.48455 2.6384,-9.99616 -0.9082,-1.75625 -3.6574,-3.61703 -5.3443,-3.61703 -1.3188,0 -1.5987,-1.95595 -1.6079,-11.23671 -0.019,-20.03164 4.13,-37.99075 12.2488,-53.0146 5.4231,-10.03521 8.5148,-13.56638 37.1493,-42.43012 28.1324,-28.35756 33.254,-33.8749 35.4617,-38.20214 2.7659,-5.42177 5.7401,-15.56017 5.2763,-17.98629 -0.1468,-0.76742 -0.032,-1.39529 0.2553,-1.39529 0.2872,0 0.5222,-0.35879 0.5222,-0.7973 0,-0.51519 -1.4481,-1.03045 -4.0916,-1.45614 -2.2503,-0.36236 -6.0008,-1.26234 -8.3345,-1.99998 -3.6124,-1.14184 -5.7503,-1.35333 -14.3851,-1.42305 -5.578,-0.0451 -9.8058,-0.19216 -9.3953,-0.32694 1.0373,-0.34027 11.0134,-6.10863 15.8768,-9.18011 6.0764,-3.83762 13.6418,-6.05398 22.451,-6.57716 6.586,-0.39113 7.6464,-0.30529 11.2138,0.90777 3.9005,1.32634 3.9508,1.37211 5.0282,4.58028 0.5986,1.7823 1.3227,5.25406 1.6091,7.71505 0.2863,2.46097 0.7994,4.64684 1.1404,4.85749 0.8989,0.55567 -0.6324,8.69767 -2.5102,13.34708 -3.5151,8.70241 -11.141,19.28964 -20.8848,28.99472 -3.867,3.85158 -6.0705,5.60684 -7.0391,5.60684 -2.4529,0 -5.4466,2.52438 -6.4385,5.42955 -0.7612,2.22867 -3.1023,4.73905 -14.372,15.41033 -7.4046,7.01137 -13.3845,12.82621 -13.2889,12.92189 0.096,0.0958 4.1081,-0.39071 8.9166,-1.08083 11.3754,-1.63258 24.5475,-1.37541 31.4733,0.61448 20.3876,5.85763 35.771,23.85895 41.6769,48.76929 1.4688,6.19521 1.5962,7.78071 1.5883,19.76755 -0.013,12.72944 -0.055,13.20707 -1.9734,20.56596 -6.05,23.19493 -20.5268,41.84496 -38.1888,49.19765 -9.1086,3.79195 -21.7336,5.0738 -35.2286,3.57686 z m 21.6693,-30.56099 c 1.5429,-1.68369 1.9703,-2.68104 1.9703,-4.59849 0,-2.10019 0.2319,-2.53667 1.6308,-3.06851 0.8969,-0.341 3.6373,-1.87063 6.0897,-3.39915 7.7338,-4.82024 14.3455,-13.59612 18.2772,-24.25955 3.8467,-10.43283 5.5302,-29.47843 3.3569,-37.97657 -3.0083,-11.76392 -13.5742,-21.65945 -26.627,-24.9378 -6.0389,-1.51677 -20.7086,-0.93907 -28.4888,1.12193 -18.6344,4.93626 -29.9234,16.77122 -34.2217,35.87725 -1.9447,8.6433 -2.4139,23.71531 -0.9446,30.33761 3.891,17.53672 17.6226,26.91704 39.4029,26.91704 5.8689,0 6.977,0.14781 6.977,0.93053 0,1.56653 1.9637,4.03495 3.9112,4.91663 3.0083,1.36193 6.3751,0.63896 8.6661,-1.86092 z M 700.00962,388.86538 c -1.16691,-0.13162 -4.74798,-0.52281 -7.95806,-0.86947 -33.09702,-3.57428 -53.33143,-16.43213 -57.85478,-36.76343 -1.50037,-6.74404 -0.90841,-19.02116 1.28013,-26.55078 4.11598,-14.16092 13.7567,-26.12247 27.25483,-33.81597 5.78664,-3.29822 15.08398,-7.09137 21.95303,-8.95646 3.19216,-0.86673 4.84029,-1.59235 4.58921,-2.02042 -2.1528,-3.6705 -7.9032,-11.68953 -9.5972,-13.3836 -3.83414,-3.83416 -8.53659,-4.82355 -15.39802,-3.23975 l -3.09144,0.71361 2.59059,1.30092 c 3.84566,1.93112 5.3183,4.48013 5.3183,9.20548 0,7.65592 -3.38157,10.89174 -10.82574,10.35912 -5.22702,-0.374 -7.54269,-1.87086 -9.54432,-6.16959 -1.11104,-2.38615 -1.43991,-4.12775 -1.44181,-7.63711 0,-6.65137 0.79979,-8.88802 4.48449,-12.48283 4.04621,-3.94741 7.28652,-5.09682 15.59027,-5.53015 7.48462,-0.39059 14.04582,0.86161 16.84173,3.21425 0.92503,0.7783 3.64426,4.25693 6.04293,7.73029 4.63677,6.71423 7.80908,9.77479 15.18028,14.64525 2.9587,1.95485 4.99896,3.80033 5.74781,5.19876 1.14367,2.13602 1.14367,2.20321 0,4.54609 l -1.1609,2.37803 -11.51672,0.36753 c -6.33425,0.20215 -12.33502,0.57011 -13.33513,0.8177 -6.89357,1.70658 -12.68823,4.79887 -19.07913,10.18152 -5.77062,4.86027 -9.82193,9.87116 -12.56009,15.53488 -2.75747,5.70358 -3.45604,13.20568 -1.68758,18.12341 1.48796,4.13804 4.4926,8.09209 8.59697,11.31343 3.37125,2.64602 3.45425,2.78268 3.29177,5.42417 -0.0911,1.49038 0.13368,3.27092 0.50074,3.95676 0.99783,1.86441 4.10988,3.2612 6.29312,2.82457 2.06819,-0.41366 4.64276,-2.53634 4.64276,-3.82796 0,-0.46163 0.28231,-0.66487 0.6273,-0.45166 0.92854,0.57388 8.15848,2.62241 13.01099,3.68653 11.98033,2.62722 17.94736,3.36154 30.04522,3.69752 14.76849,0.41013 19.35347,-0.2273 32.08444,-4.46045 9.54229,-3.17286 16.2237,-6.55861 21.43229,-10.86061 7.04385,-5.81784 10.05035,-11.97271 10.07288,-20.62147 0.0151,-5.72484 -0.88548,-9.42922 -3.57283,-14.69667 -1.8391,-3.6048 -7.58901,-9.15518 -11.71758,-11.3109 -2.65616,-1.38687 -3.48311,-2.13981 -3.4842,-3.17269 -5.5e-4,-0.74484 -0.76966,-2.21405 -1.70858,-3.26492 -1.40496,-1.57243 -2.16033,-1.91064 -4.26748,-1.91064 -1.76683,0 -2.98026,0.39454 -3.91534,1.2729 -1.28583,1.20798 -1.53959,1.23133 -4.97613,0.45799 -1.99173,-0.4482 -7.92121,-0.98753 -13.17652,-1.1985 -10.94785,-0.43955 -13.86561,-1.23658 -15.40182,-4.20728 l -0.96779,-1.87151 3.37237,-3.13905 c 1.85487,-1.72649 5.36947,-4.65366 7.81036,-6.50486 2.44059,-1.85119 5.10912,-4.40421 5.92988,-5.67337 3.6734,-5.68037 9.98991,-13.6502 12.87304,-16.24245 5.45878,-4.9079 6.78788,-5.34489 17.15423,-5.63997 10.81397,-0.30784 14.45357,0.34608 13.91308,2.49973 -0.43979,1.75232 0.4957,4.19043 2.22682,5.80324 1.51362,1.41004 5.84868,1.76986 7.03463,0.58386 1.24201,-1.24201 2.61426,0.004 4.58457,4.16366 1.80187,3.80412 1.94201,4.55876 1.94104,10.46431 -9.5e-4,7.22604 -0.69175,9.15295 -4.25441,11.87033 -1.71133,1.30529 -2.99318,1.68995 -6.45761,1.93783 -7.06995,0.50586 -10.19901,-2.17223 -10.19901,-8.72921 0,-5.73135 2.54227,-8.87145 8.78898,-10.85579 1.07961,-0.3429 0.88685,-0.68178 -1.759,-3.0929 -3.84348,-3.50252 -6.26499,-4.46693 -11.1955,-4.45888 -6.57013,0.009 -12.61954,2.36295 -17.39316,6.76318 -2.28438,2.10562 -11.77927,13.88317 -11.77927,14.61105 0,0.1417 2.52317,0.43449 5.60688,0.65075 10.78141,0.75606 21.26949,4.47332 29.19937,10.34893 8.67314,6.42638 13.9966,13.85473 17.15574,23.93876 1.48697,4.74652 1.63261,6.08436 1.6561,15.2058 0.0289,11.31715 -0.75852,15.60808 -4.39469,23.9427 -3.31866,7.60678 -10.3882,17.21211 -15.58621,21.17692 l -2.05961,1.57095 -1.99903,-1.21874 c -2.50791,-1.52907 -6.22061,-1.56993 -8.96401,-0.0988 -2.34703,1.25871 -4.85481,5.39317 -4.85481,8.00386 0,1.53429 -0.34265,1.77204 -4.39442,3.0489 -4.22528,1.33148 -5.29404,1.38962 -27.73121,1.50863 -12.83508,0.068 -24.29123,0.0163 -25.45803,-0.11527 z m 169.11424,-0.24183 c -6.57177,-0.65491 -13.14904,-1.66481 -18.29979,-2.80977 -3.5356,-0.78595 -4.20936,-1.16249 -5.2571,-2.93798 -0.66084,-1.12007 -1.90834,-2.49969 -2.77239,-3.06579 -2.31928,-1.51963 -6.42724,-1.81637 -8.72151,-0.62997 -1.84103,0.95207 -2.03448,0.92889 -5.10102,-0.61105 -11.94413,-5.99793 -20.06471,-15.80511 -22.62827,-27.32801 -1.50703,-6.77341 -0.94758,-18.62809 1.24311,-26.34807 l 1.60884,-5.66888 2.67429,0.21271 c 2.31392,0.18403 2.92091,-0.034 4.50584,-1.6191 2.33756,-2.3375 2.47783,-5.30742 0.3689,-7.81368 l -1.46294,-1.73866 3.51527,-4.21776 c 8.12029,-9.74288 21.88086,-17.75276 38.0327,-22.13827 3.19212,-0.86673 4.84039,-1.59235 4.58924,-2.02042 -2.15276,-3.6705 -7.90322,-11.68953 -9.59724,-13.3836 -3.83414,-3.83416 -8.53659,-4.82355 -15.39798,-3.23975 l -3.09155,0.71361 2.59076,1.30092 c 3.84568,1.93112 5.31809,4.48013 5.31809,9.20548 0,7.65592 -3.38143,10.89174 -10.82564,10.35912 -5.22701,-0.374 -7.54271,-1.87086 -9.54435,-6.16959 -1.11106,-2.38615 -1.43985,-4.12775 -1.44177,-7.63711 0,-6.65137 0.79975,-8.88802 4.48455,-12.48283 4.04614,-3.94741 7.28648,-5.09682 15.59019,-5.53015 7.48473,-0.39059 14.0458,0.86161 16.84182,3.21425 0.92491,0.7783 3.64427,4.25693 6.04282,7.73029 4.63678,6.71423 7.80911,9.77479 15.18036,14.64525 2.95855,1.95485 4.99893,3.80033 5.74771,5.19876 1.14363,2.13602 1.14363,2.20321 0,4.54609 l -1.16081,2.37803 -11.51671,0.36753 c -6.33424,0.20215 -12.33515,0.57011 -13.33521,0.8177 -6.89354,1.70658 -12.68825,4.79887 -19.07908,10.18152 -5.76749,4.85758 -9.80552,9.85103 -12.62051,15.60667 -2.12721,4.34927 -2.22393,4.82162 -2.23396,10.9106 -0.0137,7.83351 1.14364,10.6377 6.62564,16.06283 10.20231,10.09662 33.80356,16.94655 60.99016,17.70155 14.76832,0.41013 19.35344,-0.2273 32.08427,-4.46045 21.11025,-7.01931 31.46203,-17.01733 31.50517,-30.42871 0.0137,-3.85965 0.21805,-4.70051 1.5297,-6.25949 1.69512,-2.01447 1.824,-2.7921 0.82571,-4.98301 -0.646,-1.4179 -3.67765,-3.06605 -4.36871,-2.37502 -0.17175,0.17176 -0.88824,-0.81651 -1.59195,-2.19616 -2.06098,-4.03975 -7.66691,-9.16482 -13.06001,-11.93994 -9.29444,-4.78252 -17.1967,-6.63867 -30.47365,-7.15803 -10.63784,-0.41611 -13.55668,-1.22363 -15.08158,-4.17243 l -0.96778,-1.87151 3.37252,-3.13905 c 1.85476,-1.72649 5.36934,-4.65366 7.81007,-6.50486 2.44073,-1.85119 5.10926,-4.40421 5.93003,-5.67337 3.67326,-5.68037 9.9899,-13.6502 12.87289,-16.24245 5.81929,-5.23193 6.57644,-5.45331 18.66979,-5.4578 l 10.60747,-0.004 3.93993,1.87745 c 5.53984,2.63984 9.7202,6.60926 11.87489,11.27559 1.5929,3.44992 1.76327,4.43409 1.76244,10.18352 0,7.22604 -0.69176,9.15294 -4.25442,11.87035 -1.71133,1.30527 -2.99317,1.68992 -6.4576,1.93781 -7.06996,0.50587 -10.19902,-2.17222 -10.19902,-8.72921 0,-5.73132 2.54227,-8.87144 8.78898,-10.85578 1.07961,-0.34289 0.88685,-0.68178 -1.759,-3.09291 -3.74443,-3.41219 -6.26141,-4.46543 -10.67163,-4.46543 -1.92154,0 -4.27475,-0.40749 -5.22975,-0.9055 -0.95486,-0.49801 -2.17681,-0.90716 -2.7151,-0.90922 -1.43847,-0.005 -4.17322,2.34038 -4.17322,3.57985 0,0.58905 -0.68145,1.38145 -1.51432,1.76092 -2.52454,1.15027 -6.688,5.36526 -11.49817,11.64074 -2.51121,3.27604 -4.56574,6.07234 -4.56574,6.21398 0,0.14171 2.52304,0.4345 5.60688,0.65076 10.78128,0.75606 21.26949,4.47333 29.19937,10.34894 8.67316,6.42637 13.99673,13.85472 17.15575,23.93876 1.48696,4.74651 1.6326,6.08435 1.65609,15.20578 0.0192,7.89408 -0.2172,10.95926 -1.12673,14.54747 -3.22358,12.71648 -10.90368,24.43773 -21.11739,32.22896 -5.173,3.94611 -10.08772,6.39439 -18.34183,9.13724 l -5.45535,1.81275 -23.6396,0.18218 c -13.0019,0.10016 -25.95819,-0.0488 -28.79186,-0.33125 z m 1077.11834,-1.20301 c -19.6157,-3.02714 -35.7693,-8.90766 -46.581,-16.95725 -10.5198,-7.83234 -15.6442,-16.48653 -17.1778,-29.01055 -0.5187,-4.23728 -0.4556,-6.52059 0.325,-11.79655 1.2803,-8.65057 5.5755,-27.13473 7.2969,-31.40166 6.1805,-15.32076 34.843,-40.63497 55.1239,-48.68399 14.6193,-5.80213 28.3154,-3.09389 24.9411,4.93172 -1.1857,2.81948 -4.2772,4.67905 -10.7929,6.49163 -23.287,6.47833 -45.4646,23.65462 -53.9775,41.80495 -3.3545,7.15199 -4.3154,11.7554 -4.3154,20.67057 0,10.00247 1.064,13.04853 6.5679,18.80056 3.6502,3.8146 3.7319,3.97268 3.5337,6.84064 -0.1695,2.45384 0.058,3.24535 1.3837,4.82121 1.7988,2.13783 5.1425,3.47251 7.3263,2.9244 0.8095,-0.2032 2.3966,-1.18131 3.5268,-2.17356 2.0538,-1.80329 2.0562,-1.8037 5.0115,-0.91092 9.9117,2.99384 15.242,3.63706 29.9308,3.61169 13.2462,-0.0229 14.7158,-0.13671 20.9733,-1.62545 19.6731,-4.68019 36.7167,-17.38806 43.8954,-32.72891 3.5086,-7.49777 4.3259,-11.40617 4.6614,-22.29008 0.26,-8.44264 0.1099,-11.10067 -0.9629,-17.05485 -2.9898,-16.5933 -9.8381,-29.73046 -21.5921,-41.41926 -7.4512,-7.40999 -13.5733,-11.84658 -24.0025,-17.39417 -15.8285,-8.41973 -33.8196,-13.25984 -54.1155,-14.55849 -9.4509,-0.60472 -11.6992,-0.56349 -17.5781,0.32245 -15.9626,2.40551 -21.5936,2.3497 -24.3517,-0.24133 -1.9366,-1.81946 -2.0195,-5.22702 -0.1752,-7.20661 1.8831,-2.02129 6.6851,-3.97858 12.7986,-5.21672 l 5.3174,-1.07691 -2.3226,-1.5693 c -12.7104,-8.58843 -16.4319,-17.56312 -15.7199,-37.90961 0.2915,-8.33017 0.583,-10.50993 2.0305,-15.18198 5.4046,-17.44255 19.7433,-28.39078 42.5124,-32.45993 9.0605,-1.61922 28.5814,-2.28189 35.9786,-1.22134 15.6507,2.24386 23.9929,6.09567 43.2658,19.97695 9.0918,6.54835 9.0924,6.5487 9.412,9.26964 0.1761,1.49657 0.8111,3.47035 1.4111,4.38616 1.1653,1.77838 4.7079,3.58341 6.3599,3.24044 1.2273,-0.25474 3.0651,2.29921 6.1435,8.53702 5.2031,10.54255 7.3049,20.80344 7.7298,37.73564 0.2735,10.89772 -0.059,15.43132 -1.3814,18.87956 -0.3193,0.8322 -0.085,1.0594 1.0902,1.0594 0.8233,0 2.5344,0.82445 3.8023,1.83214 1.2682,1.00767 2.9422,1.96234 3.7203,2.12151 0.7782,0.15917 2.0661,0.42324 2.8619,0.58689 0.796,0.16361 2.7178,0.0601 4.2708,-0.23002 2.7762,-0.51862 2.8057,-0.50755 1.7518,0.65708 -1.0564,1.16713 -1.0142,1.17833 2.8514,0.75985 2.1577,-0.23362 5.0036,-0.78748 6.3241,-1.23079 l 2.4008,-0.80605 -1.7947,1.50191 c -5.6379,4.7182 -22.878,10.56673 -31.1496,10.56715 -1.1432,5e-5 -2.9664,0.32117 -4.0515,0.71359 -2.2421,0.81077 -3.8714,-0.0143 -3.8714,-1.95914 0,-0.6035 -0.5455,-1.27037 -1.2123,-1.48199 -1.3563,-0.43052 -1.5992,-1.28537 -0.4718,-1.66117 0.469,-0.15629 0.1155,-0.87178 -0.9638,-1.951 -1.0105,-1.01055 -1.4488,-1.862 -1.077,-2.09185 0.7005,-0.43291 1.3845,-4.35709 2.862,-16.42028 3.7173,-30.35149 -7.4388,-53.14254 -31.9391,-65.24866 -3.1688,-1.56586 -8.6413,-3.58437 -12.3557,-4.55745 -5.9378,-1.55557 -8.0274,-1.7855 -19.0936,-2.10095 -13.2938,-0.37895 -19.9926,0.28599 -28.5804,2.83694 -3.0734,0.91294 -4.4153,1.05165 -5.6463,0.5836 -5.1479,-1.95724 -10.6281,1.88861 -10.6281,7.4586 0,0.79415 -0.8036,2.55314 -1.7855,3.9089 -2.772,3.82663 -4.4454,10.14651 -4.1879,15.81697 0.1962,4.3187 0.4233,5.04883 2.5796,8.29668 4.5306,6.82351 12.4603,13.36474 23.6998,19.54984 3.6671,2.01807 8.8497,4.42829 11.5167,5.35607 2.6671,0.92777 5.7079,2.26678 6.7576,2.97559 1.0496,0.70881 4.5956,2.27555 7.8799,3.48166 26.3561,9.67888 27.554,10.20945 36.3156,16.08815 6.6624,4.47021 16.3087,12.9816 21.8785,19.30441 8.5631,9.72075 13.3278,18.63753 19.0977,35.73981 l 2.6293,7.79327 -0.016,17.88126 c -0.015,16.09621 -0.1532,18.5602 -1.3835,24.68215 -4.3057,21.43226 -16.4102,39.83573 -33.0438,50.24024 l -3.3495,2.09498 -2.0151,-1.22853 c -2.3938,-1.45952 -5.3445,-1.57988 -7.7853,-0.31758 -2.1287,1.10074 -3.1412,2.80787 -3.5916,6.05517 -0.3334,2.40267 -0.3817,2.44248 -5.3688,4.40471 -9.8989,3.8952 -15.6093,4.99813 -25.4926,4.9237 -5.1239,-0.0386 -11.8204,-0.52145 -15.8451,-1.14257 z"
       id="path3550"
       inkscape:connector-curvature="0" />
  </g>
</svg>
