<?xml version="1.0" encoding="UTF-8" standalone="no"?>
<!-- Created with Inkscape (http://www.inkscape.org/) -->

<svg
   xmlns:dc="http://purl.org/dc/elements/1.1/"
   xmlns:cc="http://creativecommons.org/ns#"
   xmlns:rdf="http://www.w3.org/1999/02/22-rdf-syntax-ns#"
   xmlns:svg="http://www.w3.org/2000/svg"
   xmlns="http://www.w3.org/2000/svg"
   xmlns:xlink="http://www.w3.org/1999/xlink"
   xmlns:sodipodi="http://sodipodi.sourceforge.net/DTD/sodipodi-0.dtd"
   xmlns:inkscape="http://www.inkscape.org/namespaces/inkscape"
   id="svg2"
   version="1.1"
   inkscape:version="0.92.1 renderfarm"
   width="2481"
   height="3503"
   sodipodi:docname="Pepper-and-Carrot_by-David-Revoy_E03P02_092.svg">
  <sodipodi:namedview pagecolor="#ffffff" bordercolor="#666666" inkscape:pageopacity="0" inkscape:pageshadow="2" inkscape:window-width="1813" inkscape:window-height="955" id="namedview70" showgrid="false" inkscape:zoom="0.4" inkscape:cx="1284.4231" inkscape:cy="2618.6204" inkscape:current-layer="layer1" /><metadata
     id="metadata8">
    <rdf:RDF>
      <cc:Work
         rdf:about="">
        <dc:format>image/svg+xml</dc:format>
        <dc:type
           rdf:resource="http://purl.org/dc/dcmitype/StillImage" />
        <dc:title />
      </cc:Work>
    </rdf:RDF>
  </metadata>
  <defs
     id="defs6" />
  <sodipodi:namedview
     pagecolor="#ffffff"
     bordercolor="#666666"
     borderopacity="1"
     objecttolerance="10"
     gridtolerance="10"
     guidetolerance="10"
     inkscape:pageopacity="0"
     inkscape:pageshadow="2"
     inkscape:window-width="1920"
     inkscape:window-height="1026"
     id="namedview4"
     showgrid="false"
     inkscape:zoom="0.25427835"
     inkscape:cx="979.84165"
     inkscape:cy="1748.0418"
     inkscape:window-x="0"
     inkscape:window-y="27"
     inkscape:window-maximized="1"
     inkscape:current-layer="layer2" />
  <g
     inkscape:groupmode="layer"
     id="layer3"
     inkscape:label="artwork"
     sodipodi:insensitive="true">
    <image
       sodipodi:absref="/home/deevad/peppercarrot/webcomics/ep03_The-secret-ingredients/lang/cn/../gfx_Pepper-and-Carrot_by-David-Revoy_E03P02.png"
       xlink:href="../gfx_Pepper-and-Carrot_by-David-Revoy_E03P02.png"
       width="2481"
       height="3503"
       id="image10"
       x="0"
       y="0" />
  </g>
  <g
     inkscape:groupmode="layer"
     id="layer2"
     inkscape:label="speechbubbles">
    <path
       style="color:#000000;display:inline;overflow:visible;visibility:visible;fill:#ffffff;fill-opacity:1;fill-rule:nonzero;stroke:none;stroke-width:1px;marker:none;enable-background:accumulate"
       d="m 812.24844,1341.346 c 26.24678,-47.6331 46.66094,-50.5494 61.24248,-54.4378 1.94421,4.8605 6.80472,12.6373 6.80472,12.6373 0,0 28.19098,-10.6931 39.85622,-10.6931 11.66523,0 11.66523,16.5258 11.66523,16.5258 0,0 -54.43776,22.3583 -65.13089,31.1072 -4.86051,-13.6094 -8.74892,-19.442 -8.74892,-25.2746 -8.74893,-0.9721 -35.96781,13.6094 -45.68884,30.1352 z"
       id="path4456"
       inkscape:connector-curvature="0" />
    <path
       style="color:#000000;display:inline;overflow:visible;visibility:visible;fill:#ffffff;fill-opacity:1;fill-rule:nonzero;stroke:none;stroke-width:1px;marker:none;enable-background:accumulate"
       d="m 906.88881,1144.4164 c -22.43602,17.2862 -27.77792,38.6883 -25.64117,48.5661 2.13678,9.8778 32.05145,55.9744 34.18822,68.3217 2.13676,12.3474 -29.91468,67.4986 -23.50439,85.608 6.41029,18.1094 25.64115,72.4376 110.04323,77.3765 84.4022,4.9389 106.8382,-5.7621 133.5476,-5.7621 26.7097,0 126.0692,15.64 141.0264,13.1705 14.9575,-2.4695 22.4361,-6.5852 33.1199,-8.2316 10.6837,-1.6463 90.8124,0.8232 118.5903,-39.5114 27.7779,-40.3345 29.9147,-54.3282 16.0258,-82.3154 -13.889,-27.9871 -4.2735,-57.6207 7.4786,-91.37 11.7522,-33.7493 -14.422,-69.2212 -32.0515,-74.907 -45.9403,-14.8169 -460.47231,-38.6883 -512.82299,9.0547 z"
       id="path4464"
       inkscape:connector-curvature="0"
       sodipodi:nodetypes="csssssssssssc" />
    <path
       style="color:#000000;display:inline;overflow:visible;visibility:visible;fill:#ffffff;fill-opacity:1;fill-rule:nonzero;stroke:none;stroke-width:1px;marker:none;enable-background:accumulate"
       d="m 917.85185,1758.1465 c 3.54013,-56.1943 40.71139,-80.6893 53.10181,-86.4529 12.3904,-5.7636 24.78082,-54.7535 226.56764,-64.8397 122.1342,-5.7635 178.7761,30.2585 191.1665,33.1403 12.3904,2.8817 107.5065,76.508 85.438,138.6761 -15.9305,44.877 -34.7492,61.2287 -67.3057,69.5844 -37.459,9.6141 -267.7107,12.1944 -319.0425,0.6674 -51.3318,-11.527 -148.68502,5.7635 -169.92575,-90.7756 z"
       id="path4472"
       inkscape:connector-curvature="0"
       sodipodi:nodetypes="cscssssc" />
    <path
       style="color:#000000;display:inline;overflow:visible;visibility:visible;fill:#ffffff;fill-opacity:1;fill-rule:nonzero;stroke:none;stroke-width:1px;marker:none;enable-background:accumulate"
       d="m 1458.6006,1765.4421 c 58.4773,18.4121 129.086,-2.4772 151.0046,-12.0462 -53.6863,37.6803 -112.616,59.4327 -151.498,45.1626 -38.8821,-14.2701 0.4934,-33.1164 0.4934,-33.1164 z"
       id="path4480"
       inkscape:connector-curvature="0" />
    <path
       style="color:#000000;display:inline;overflow:visible;visibility:visible;fill:#ffffff;fill-opacity:1;fill-rule:nonzero;stroke:none;stroke-width:1px;marker:none;enable-background:accumulate"
       d="m 1124.1567,2091.134 c -10e-5,-22.8658 9.6268,-34.2988 16.5032,-38.4562 6.8764,-4.1575 0,-23.9053 42.6336,-36.3776 42.6336,-12.4724 100.045,-22.7245 132.6593,-21.6852 42.9837,-3.2868 197.8667,-4.4948 254.253,33.9615 56.3863,38.4563 118.995,119.0476 10.3483,148.1497 79.766,20.7872 121.83,63.6838 114.9536,131.2421 -6.8764,67.5584 -177.7818,106.7762 -304.3072,119.2485 -126.5254,12.4723 -324.9363,-29.7222 -348.316,-92.0838 -23.3796,-62.3616 35.888,-128.63 67.5193,-142.1417 31.6314,-13.5117 54.3995,-17.8378 80.5297,-23.0346 -64.638,-14.551 -66.7769,-63.2323 -66.7768,-78.8227 z"
       id="path4488"
       inkscape:connector-curvature="0"
       sodipodi:nodetypes="csscscsssscc" />
    <path
       style="color:#000000;display:inline;overflow:visible;visibility:visible;fill:#ffffff;fill-opacity:1;fill-rule:nonzero;stroke:none;stroke-width:1px;marker:none;enable-background:accumulate"
       d="m 957.13333,2238.8479 c 5.57335,17.1181 11.16282,35.0294 23.39088,48.7241 3.55856,3.8199 7.50649,7.5251 12.13185,9.9498 5.37246,1.4498 10.84944,-1.4122 14.12754,-5.6132 5.1589,-5.7353 8.1963,-13.9047 15.5685,-17.285 5.4261,-2.3306 10.8729,0.8814 15.6761,3.1704 12.1284,6.0748 23.505,13.8279 36.5404,17.9363 14.3756,5.5799 29.9067,10.4081 45.4842,8.0016 6.1477,-1.0555 12.4312,-3.0194 17.0066,-7.4624 12.2544,-10.8656 18.4537,-28.9219 13.6291,-44.8231 -4.0403,-9.8511 -16.6784,-15.851 -26.5414,-11.0096 -5.2446,2.4777 -7.97,8.0957 -8.8455,13.5685 -3.4893,9.7595 -12.4516,16.8979 -22.4619,19.0846 -8.2318,1.9398 -16.9874,1.2749 -24.9579,-1.4727 -11.8256,-0.8743 -20.7496,-9.4594 -30.3291,-15.4411 -4.4172,-2.6676 -9.2966,-5.2059 -14.5159,-5.4716 -7.5326,1.3916 -11.8483,8.4752 -14.8077,14.8891 -3.2226,6.5363 -6.2222,14.4823 -13.58048,17.3225 -4.84088,2.6585 -8.79493,-2.5041 -12.54101,-4.8769 -11.06465,-9.2145 -19.10985,-21.7672 -24.06428,-35.1993 -0.37642,-1.3148 -0.64489,-2.6514 -0.91,-3.992 z"
       id="path4496"
       inkscape:connector-curvature="0" />
    <path
       style="color:#000000;display:inline;overflow:visible;visibility:visible;fill:#ffffff;fill-opacity:1;fill-rule:nonzero;stroke:none;stroke-width:1px;marker:none;enable-background:accumulate"
       d="m 1555.3311,2584.8125 c 4.4742,-26.8453 35.7937,-46.0205 73.5049,-45.3813 37.7112,0.6391 65.1957,33.8761 58.1648,58.8039 -7.0309,24.9278 -33.237,39.6288 -70.3091,35.1545 -37.0721,-4.4742 -65.8349,-30.0411 -61.3606,-48.5771 z"
       id="path4514"
       inkscape:connector-curvature="0" />
    <path
       style="color:#000000;display:inline;overflow:visible;visibility:visible;fill:#ffffff;fill-opacity:1;fill-rule:nonzero;stroke:none;stroke-width:1px;marker:none;enable-background:accumulate"
       d="m 1681.2482,2592.4825 c 17.8969,-1.2783 37.0721,-7.0309 39.6288,-17.8968 1.9175,14.701 -14.701,36.4329 -41.5463,35.1545 -26.8453,-1.2783 -19.8144,-14.701 -19.8144,-14.701 z"
       id="path4522"
       inkscape:connector-curvature="0" />
    <path
       style="color:#000000;display:inline;overflow:visible;visibility:visible;fill:#ffffff;fill-opacity:1;fill-rule:nonzero;stroke:none;stroke-width:1px;marker:none;enable-background:accumulate"
       d="m 769.80657,2968.6334 c 26.76753,-65.9333 87.9717,-108.4819 240.45593,-104.7733 152.4843,3.709 180.8307,15.7625 201.3575,33.3792 20.5265,17.6168 50.828,118.6812 35.1886,188.2211 -15.6395,69.5398 -78.1971,142.7885 -227.7489,137.2253 -149.55188,-5.5632 -149.85922,-8.0998 -173.01099,-22.2528 -43.98585,-26.8887 -103.00966,-165.866 -76.24214,-231.7995 z"
       id="path4530"
       inkscape:connector-curvature="0"
       sodipodi:nodetypes="zsssssz" />
    <path
       style="color:#000000;display:inline;overflow:visible;visibility:visible;fill:#ffffff;fill-opacity:1;fill-rule:nonzero;stroke:none;stroke-width:1px;marker:none;enable-background:accumulate"
       d="m 674.9976,3200.8588 c 27.21888,10.6931 31.10729,9.721 39.85622,-1.9442 8.74893,-11.6652 17.49785,-31.1073 43.74463,-34.9957 26.24678,-3.8884 38.88411,5.8326 47.63304,11.6652 1.9442,-18.4699 -7.77682,-45.6888 -16.52575,-56.3819 -8.74893,-10.6932 53.46566,7.7768 53.46566,7.7768 0,0 8.74892,47.633 -7.77683,65.1309 -16.52574,17.4978 -53.46565,-4.8605 -71.93561,-4.8605 -18.46995,0 -32.07939,26.2467 -46.66093,29.163 -14.58155,2.9163 -30.13519,-7.7768 -41.80043,-15.5536 z"
       id="path4538"
       inkscape:connector-curvature="0" />
    <path
       style="color:#000000;display:inline;overflow:visible;visibility:visible;fill:#ffffff;fill-opacity:1;fill-rule:nonzero;stroke:none;stroke-width:1px;marker:none;enable-background:accumulate"
       d="m 1305.4542,3002.977 c 7.1661,-57.0318 67.2714,-96.802 218.5643,-80.6312 81.0407,8.6619 173.1793,15.7329 163.6246,99.3141 -9.5548,83.5811 -142.1264,76.698 -169.5963,77.6813 -27.4698,0.9834 -169.7402,-12.8887 -193.4831,-42.2823 -14.8625,-18.3996 -20.3038,-36.3823 -19.1095,-54.0819 z"
       id="path4546"
       inkscape:connector-curvature="0"
       sodipodi:nodetypes="cssssc" />
    <path
       style="color:#000000;display:inline;overflow:visible;visibility:visible;fill:#ffffff;fill-opacity:1;fill-rule:nonzero;stroke:none;stroke-width:1px;marker:none;enable-background:accumulate"
       d="m 1337.8657,3175.391 c 6.315,-43.2195 81.2463,-65.9571 106.3941,-63.7213 25.1478,2.2358 89.9514,13.415 105.4269,13.415 15.4756,0 71.5742,-7.8254 91.8858,-10.0612 20.3117,-2.2359 45.4594,38.0092 43.5249,54.778 -1.9344,16.7687 -17.4099,63.7213 -70.607,69.3109 -53.1971,5.5896 -124.7713,-1.1179 -139.2796,4.4717 -14.5083,5.5896 -77.3776,11.1791 -100.5908,-4.4717 -23.2133,-15.6509 -43.0693,-20.5019 -36.7543,-63.7214 z"
       id="path4554"
       inkscape:connector-curvature="0"
       sodipodi:nodetypes="zsssssssz" />
    <path
       style="color:#000000;display:inline;overflow:visible;visibility:visible;fill:#ffffff;fill-opacity:1;fill-rule:nonzero;stroke:none;stroke-width:1px;marker:none;enable-background:accumulate"
       d="m 1470.5061,3094.9771 c 15.6509,39.1272 126.3248,118.4994 138.6219,131.9144 12.2971,13.415 38.0092,32.4196 58.1317,35.7734 20.1226,3.3537 29.8656,-15.8488 47.3048,-18.9433 14.983,-2.6587 26.4778,2.1745 35.4212,12.2357 -14.533,-25.7121 -39.1272,-25.7121 -49.1884,-21.2404 -10.0613,4.4717 -27.948,17.8867 -44.7168,5.5896 -16.7687,-12.2971 -86.0797,-88.3156 -103.9664,-91.6693 -17.8867,-3.3538 -40.245,-29.0659 -40.245,-43.5988 0,-14.533 -41.363,-10.0613 -41.363,-10.0613 z"
       id="path4562"
       inkscape:connector-curvature="0"
       sodipodi:nodetypes="cssscssssc" />
    <path
       style="fill:#ffffff;fill-opacity:1;stroke:none"
       d="m 335.31108,250.08623 c -4.97528,-67.5122 28.0251,-101.0965 58.07216,-117.0056 38.08048,-20.1625 312.78732,-42.634196 345.93686,13.878 30.5295,52.0459 52.22016,147.73251 -38.94084,194.99931 -91.161,47.2668 -243.3026,21.3767 -269.20054,12.7827 -25.89804,-8.594 -90.68797,-31.6058 -95.86764,-104.65441 z"
       id="path3659-8"
       inkscape:connector-curvature="0"
       sodipodi:nodetypes="cssssc" />
    <path
       style="color:#000000;display:inline;overflow:visible;visibility:visible;fill:#ffffff;fill-opacity:1;fill-rule:nonzero;stroke:none;stroke-width:1px;marker:none;enable-background:accumulate"
       d="m 737.30487,240.17753 c 51.7523,-9.5221 144.3491,25.7804 152.6806,130.37991 -39.6949,-95.7771 -111.5887,-108.52201 -153.522,-93.2934 -39.7368,14.4308 -28.4367,-12.36961 -28.4367,-12.36961 z"
       id="path4440-1"
       inkscape:connector-curvature="0"
       sodipodi:nodetypes="ccscc" />
    <path
       style="color:#000000;display:inline;overflow:visible;visibility:visible;fill:#ffffff;fill-opacity:1;fill-rule:nonzero;stroke:none;stroke-width:1px;marker:none;enable-background:accumulate"
       d="m 1947.5289,284.67934 c -2.8517,-0.3412 -11.1967,37.1896 -11.1967,37.1896 0,0 -9.6125,7.4962 -11.4453,9.4383 -0.7114,7.4801 0.7366,17.3799 0.7366,17.3799 l -29.369,11.6174 16.5975,-14.2257 -7.4782,-14.9439 14.6623,-15.5381 7.5275,-27.7153 z"
       id="path4448-7"
       inkscape:connector-curvature="0"
       sodipodi:nodetypes="cccccccccc" />
    <path
       style="color:#000000;display:inline;overflow:visible;visibility:visible;fill:#ffffff;fill-opacity:1;fill-rule:nonzero;stroke:none;stroke-width:1px;marker:none;enable-background:accumulate"
       d="m 1835.2436,229.59033 10.5029,19.7578 -14.8609,3.9041 7.1217,7.6936 7.162,5.5676 9.4016,3.1225 -9.0108,12.75941 12.7899,1.3014 1.3462,10.4107 11.4435,8.4588 9.424,-5.8561 4.7345,11.587 19.4987,-7.0323 4.0389,7.8081 10.7703,-5.856 25.5794,10.4107 1.3463,-8.4587 8.0778,9.1094 2.0195,-11.0614 12.1166,9.76 18.8479,-11.7121 16.1555,-1.3013 2.0195,-9.1094 12.7897,6.5067 -4.712,-17.5682 22.2138,-11.71211 2.6926,-13.0135 -4.0389,-4.5547 -2.6926,-7.1574 12.1166,-8.4587 -18.1749,1.952 16.1554,-9.7601 -13.738,-5.7588 -9.6389,0.3131 -4.0047,-3.2713 -5.8863,-11.9195 -15.2768,8.3408 -8.3359,-16.9846 -17.3182,14.1851 -6.2946,-9.9714 -9.6593,6.4302 -10.129,-3.8752 -12.8066,-13.9261 -8.4794,13.8374 -14.6035,-6.4229 -10.1125,11.1101 -17.5024,-8.6047 -2.5045,7.9122 -13.3513,5.7403 -13.7188,-4.6372 2.7227,17.4597 z"
       id="path4448-1-6"
       inkscape:connector-curvature="0"
       sodipodi:nodetypes="cccccccccccccccccccccccccccccccccccccccccccccccccccc" />
  </g>
  <g
     inkscape:groupmode="layer"
     id="layer1"
     inkscape:label="txt">
    <flowRoot
       xml:space="preserve"
       id="flowRoot2987"
       style="font-style:normal;font-variant:normal;font-weight:normal;font-stretch:normal;line-height:0.01%;font-family:Arial;-inkscape-font-specification:Arial;letter-spacing:0px;word-spacing:0px;fill:#000000;fill-opacity:1;stroke:none"
       transform="translate(-194.2358,-484.77064)"><flowRegion
         id="flowRegion2989"><rect
           id="rect2991"
           width="555.85522"
           height="250.47551"
           x="481.16055"
           y="638.16943" /></flowRegion><flowPara
         style="font-style:normal;font-variant:normal;font-weight:normal;font-stretch:normal;font-size:48px;line-height:1.25;font-family:'WenQuanYi Micro Hei';-inkscape-font-specification:'WenQuanYi Micro Hei';text-align:center;text-anchor:middle"
         id="flowPara3066">呃，不好意思，</flowPara><flowPara
         style="font-style:normal;font-variant:normal;font-weight:normal;font-stretch:normal;font-size:48px;line-height:1.25;font-family:'WenQuanYi Micro Hei';-inkscape-font-specification:'WenQuanYi Micro Hei';text-align:center;text-anchor:middle"
         id="flowPara3404">我还是只</flowPara><flowPara
         style="font-style:normal;font-variant:normal;font-weight:normal;font-stretch:normal;font-size:48px;line-height:1.25;font-family:'WenQuanYi Micro Hei';-inkscape-font-specification:'WenQuanYi Micro Hei';text-align:center;text-anchor:middle"
         id="flowPara3406">要四个吧</flowPara></flowRoot>    <flowRoot
       xml:space="preserve"
       id="flowRoot2987-4"
       style="font-style:normal;font-variant:normal;font-weight:normal;font-stretch:normal;line-height:0.01%;font-family:Arial;-inkscape-font-specification:Arial;letter-spacing:0px;word-spacing:0px;fill:#000000;fill-opacity:1;stroke:none"
       transform="translate(1223.0365,-409.24083)"><flowRegion
         id="flowRegion2989-7"><rect
           id="rect2991-1"
           width="472.65948"
           height="178.52246"
           x="481.16055"
           y="638.16943" /></flowRegion><flowPara
         style="font-style:normal;font-variant:normal;font-weight:normal;font-stretch:normal;font-size:40px;line-height:1.25;font-family:'WenQuanYi Micro Hei';-inkscape-font-specification:'WenQuanYi Micro Hei';text-align:center;text-anchor:middle"
         id="flowPara2997-1">哼……</flowPara></flowRoot>    <flowRoot
       xml:space="preserve"
       id="flowRoot2987-5"
       style="font-style:normal;font-variant:normal;font-weight:normal;font-stretch:normal;line-height:0.01%;font-family:Arial;-inkscape-font-specification:Arial;letter-spacing:0px;word-spacing:0px;fill:#000000;fill-opacity:1;stroke:none"
       transform="translate(432.6348,548.18677)"><flowRegion
         id="flowRegion2989-6"><rect
           id="rect2991-0"
           width="526.69586"
           height="315.77493"
           x="481.16055"
           y="638.16943" /></flowRegion><flowPara
         style="font-style:normal;font-variant:normal;font-weight:normal;font-stretch:normal;font-size:48px;line-height:1.25;font-family:'WenQuanYi Micro Hei';-inkscape-font-specification:'WenQuanYi Micro Hei';text-align:center;text-anchor:middle"
         id="flowPara3081">亲爱的老板早晨好，请您给我每样来一打，老规矩，要品质最好的。</flowPara></flowRoot>    <flowRoot
       xml:space="preserve"
       id="flowRoot2987-5-4"
       style="font-style:normal;font-variant:normal;font-weight:normal;font-stretch:normal;line-height:0.01%;font-family:Arial;-inkscape-font-specification:Arial;letter-spacing:0px;word-spacing:0px;fill:#000000;fill-opacity:1;stroke:none"
       transform="translate(490.07088,1030.5284)"><flowRegion
         id="flowRegion2989-6-3"><rect
           id="rect2991-0-3"
           width="463.67816"
           height="225.00478"
           x="481.16055"
           y="638.16943" /></flowRegion><flowPara
         style="font-style:normal;font-variant:normal;font-weight:normal;font-stretch:normal;font-size:48px;line-height:1.25;font-family:'WenQuanYi Micro Hei';-inkscape-font-specification:'WenQuanYi Micro Hei';text-align:center;text-anchor:middle"
         id="flowPara3138">能为您服务一直是我的荣幸，藏红花小姐</flowPara></flowRoot>    <flowRoot
       xml:space="preserve"
       id="flowRoot2987-5-4-3"
       style="font-style:normal;font-variant:normal;font-weight:normal;font-stretch:normal;line-height:0.01%;font-family:Arial;-inkscape-font-specification:Arial;letter-spacing:0px;word-spacing:0px;fill:#000000;fill-opacity:1;stroke:none"
       transform="translate(700.25095,1406.409)"><flowRegion
         id="flowRegion2989-6-3-5"><rect
           id="rect2991-0-3-3"
           width="399.46124"
           height="206.06419"
           x="481.16055"
           y="638.16943" /></flowRegion><flowPara
         style="font-style:normal;font-variant:normal;font-weight:normal;font-stretch:normal;font-size:48px;line-height:1.25;font-family:'WenQuanYi Micro Hei';-inkscape-font-specification:'WenQuanYi Micro Hei';text-align:center;text-anchor:middle"
         id="flowPara3093">嘿，我说，这不是小辣椒吗。</flowPara></flowRoot>    <flowRoot
       xml:space="preserve"
       id="flowRoot2987-5-4-3-8"
       style="font-style:normal;font-variant:normal;font-weight:normal;font-stretch:normal;line-height:0.01%;font-family:Arial;-inkscape-font-specification:Arial;letter-spacing:0px;word-spacing:0px;fill:#000000;fill-opacity:1;stroke:none"
       transform="translate(608.57225,1589.0201)"><flowRegion
         id="flowRegion2989-6-3-5-1"><rect
           id="rect2991-0-3-3-7"
           width="555.99146"
           height="286.85565"
           x="481.16055"
           y="638.16943" /></flowRegion><flowPara
         style="font-style:normal;font-variant:normal;font-weight:normal;font-stretch:normal;font-size:48px;line-height:1.25;font-family:'WenQuanYi Micro Hei';-inkscape-font-specification:'WenQuanYi Micro Hei';text-align:center;text-anchor:middle"
         id="flowPara3100">话说回来，看得出来你在乡下一定生意兴隆吧？</flowPara></flowRoot>    <flowRoot
       xml:space="preserve"
       id="flowRoot2987-5-4-3-3"
       style="font-style:normal;font-variant:normal;font-weight:normal;font-stretch:normal;line-height:0.01%;font-family:Arial;-inkscape-font-specification:Arial;letter-spacing:0px;word-spacing:0px;fill:#000000;fill-opacity:1;stroke:none"
       transform="matrix(1.1166839,0,0,1.2016907,912.66492,1772.5492)"><flowRegion
         id="flowRegion2989-6-3-5-2"><rect
           id="rect2991-0-3-3-1"
           width="316.26553"
           height="145.35382"
           x="481.16055"
           y="638.16943" /></flowRegion><flowPara
         style="font-style:normal;font-variant:normal;font-weight:normal;font-stretch:normal;font-size:48px;line-height:1.25;font-family:Lavi;-inkscape-font-specification:Lavi;text-align:center;text-anchor:middle"
         id="flowPara3178-4">...</flowPara></flowRoot>    <flowRoot
       xml:space="preserve"
       id="flowRoot2987-5-4-3-8-4"
       style="font-style:normal;font-variant:normal;font-weight:normal;font-stretch:normal;line-height:0.01%;font-family:Arial;-inkscape-font-specification:Arial;letter-spacing:0px;word-spacing:0px;fill:#000000;fill-opacity:1;stroke:none"
       transform="translate(264.05387,2280.1593)"><flowRegion
         id="flowRegion2989-6-3-5-1-2"><rect
           id="rect2991-0-3-3-7-1"
           width="506.27682"
           height="417.60565"
           x="481.16055"
           y="638.16943" /></flowRegion><flowPara
         style="font-style:normal;font-variant:normal;font-weight:normal;font-stretch:normal;font-size:48px;line-height:1.25;font-family:'WenQuanYi Micro Hei';-inkscape-font-specification:'WenQuanYi Micro Hei';text-align:center;text-anchor:middle"
         id="flowPara3124">我猜你已经</flowPara><flowPara
         style="font-style:normal;font-variant:normal;font-weight:normal;font-stretch:normal;font-size:48px;line-height:1.25;font-family:'WenQuanYi Micro Hei';-inkscape-font-specification:'WenQuanYi Micro Hei';text-align:center;text-anchor:middle"
         id="flowPara3426">开始准备</flowPara><flowPara
         style="font-style:normal;font-variant:normal;font-weight:normal;font-stretch:normal;font-size:48px;line-height:1.25;font-family:'WenQuanYi Micro Hei';-inkscape-font-specification:'WenQuanYi Micro Hei';text-align:center;text-anchor:middle"
         id="flowPara3430">明天魔药大赛的</flowPara><flowPara
         style="font-style:normal;font-variant:normal;font-weight:normal;font-stretch:normal;font-size:48px;line-height:1.25;font-family:'WenQuanYi Micro Hei';-inkscape-font-specification:'WenQuanYi Micro Hei';text-align:center;text-anchor:middle"
         id="flowPara3438">材料了吧？</flowPara></flowRoot>    <flowRoot
       xml:space="preserve"
       id="flowRoot2987-5-4-3-8-4-1"
       style="font-style:normal;font-variant:normal;font-weight:normal;font-stretch:normal;line-height:0.01%;font-family:Arial;-inkscape-font-specification:Arial;letter-spacing:0px;word-spacing:0px;fill:#000000;fill-opacity:1;stroke:none"
       transform="translate(820.66924,2306.4132)"><flowRegion
         id="flowRegion2989-6-3-5-1-2-0"><rect
           id="rect2991-0-3-3-7-1-3"
           width="357.32404"
           height="181.207"
           x="481.16055"
           y="638.16943" /></flowRegion><flowPara
         style="font-style:normal;font-variant:normal;font-weight:normal;font-stretch:normal;font-size:48px;line-height:1.25;font-family:'WenQuanYi Micro Hei';-inkscape-font-specification:'WenQuanYi Micro Hei';text-align:center;text-anchor:middle"
         id="flowPara3130">……魔药</flowPara><flowPara
         style="font-style:normal;font-variant:normal;font-weight:normal;font-stretch:normal;font-size:48px;line-height:1.25;font-family:'WenQuanYi Micro Hei';-inkscape-font-specification:'WenQuanYi Micro Hei';text-align:center;text-anchor:middle"
         id="flowPara3444">            大赛？</flowPara></flowRoot>    <flowRoot
       xml:space="preserve"
       id="flowRoot2987-5-4-3-8-4-1-1"
       style="font-style:normal;font-variant:normal;font-weight:normal;font-stretch:normal;line-height:0.01%;font-family:Arial;-inkscape-font-specification:Arial;letter-spacing:0px;word-spacing:0px;fill:#000000;fill-opacity:1;stroke:none"
       transform="translate(867.17583,2507.5821)"><flowRegion
         id="flowRegion2989-6-3-5-1-2-0-9"><rect
           id="rect2991-0-3-3-7-1-3-7"
           width="328.09311"
           height="154.22458"
           x="481.16055"
           y="638.16943" /></flowRegion><flowPara
         style="font-style:normal;font-variant:normal;font-weight:normal;font-stretch:normal;font-size:48px;line-height:1.25;font-family:'WenQuanYi Micro Hei';-inkscape-font-specification:'WenQuanYi Micro Hei';text-align:center;text-anchor:middle"
         id="flowPara3347-5">……明天？</flowPara></flowRoot>  </g>
</svg>
