<?xml version="1.0" encoding="UTF-8" standalone="no"?>
<!-- Created with Inkscape (http://www.inkscape.org/) -->

<svg
   xmlns:dc="http://purl.org/dc/elements/1.1/"
   xmlns:cc="http://creativecommons.org/ns#"
   xmlns:rdf="http://www.w3.org/1999/02/22-rdf-syntax-ns#"
   xmlns:svg="http://www.w3.org/2000/svg"
   xmlns="http://www.w3.org/2000/svg"
   xmlns:xlink="http://www.w3.org/1999/xlink"
   xmlns:sodipodi="http://sodipodi.sourceforge.net/DTD/sodipodi-0.dtd"
   xmlns:inkscape="http://www.inkscape.org/namespaces/inkscape"
   id="svg2"
   version="1.1"
   inkscape:version="0.92.1 renderfarm"
   width="2481"
   height="3503"
   sodipodi:docname="Pepper-and-Carrot_by-David-Revoy_E03P06_092.svg">
  <sodipodi:namedview pagecolor="#ffffff" bordercolor="#666666" inkscape:pageopacity="0" inkscape:pageshadow="2" inkscape:window-width="1813" inkscape:window-height="955" id="namedview70" showgrid="false" inkscape:zoom="0.4" inkscape:cx="1284.4231" inkscape:cy="2618.6204" inkscape:current-layer="layer1" /><metadata
     id="metadata8">
    <rdf:RDF>
      <cc:Work
         rdf:about="">
        <dc:format>image/svg+xml</dc:format>
        <dc:type
           rdf:resource="http://purl.org/dc/dcmitype/StillImage" />
        <dc:title />
      </cc:Work>
    </rdf:RDF>
  </metadata>
  <defs
     id="defs6" />
  <sodipodi:namedview
     pagecolor="#ffffff"
     bordercolor="#666666"
     borderopacity="1"
     objecttolerance="10"
     gridtolerance="10"
     guidetolerance="10"
     inkscape:pageopacity="0"
     inkscape:pageshadow="2"
     inkscape:window-width="1920"
     inkscape:window-height="1026"
     id="namedview4"
     showgrid="false"
     inkscape:zoom="0.36045077"
     inkscape:cx="1608.5645"
     inkscape:cy="527.23844"
     inkscape:window-x="0"
     inkscape:window-y="27"
     inkscape:window-maximized="1"
     inkscape:current-layer="layer1" />
  <g
     inkscape:groupmode="layer"
     id="layer2"
     inkscape:label="artwork"
     sodipodi:insensitive="true">
    <image
       sodipodi:absref="/home/deevad/peppercarrot/webcomics/ep03_The-secret-ingredients/lang/cn/../gfx_Pepper-and-Carrot_by-David-Revoy_E03P06.png"
       xlink:href="../gfx_Pepper-and-Carrot_by-David-Revoy_E03P06.png"
       width="2481"
       height="3503"
       id="image10"
       x="0"
       y="0" />
  </g>
  <g
     inkscape:groupmode="layer"
     id="layer3"
     inkscape:label="speechbubbles">
    <path
       style="fill:#ffffff;stroke:none"
       d="m 159.77676,900.76034 c 7.57156,-101.20206 26.2786,-120.33148 74.23149,-156.12252 40.60676,-30.30805 209.54632,-28.77913 257.92265,-24.96874 62.17854,4.89752 114.83462,46.13622 138.81101,99.71379 23.9765,53.57756 -10.09527,202.40413 -65.61972,236.63423 -55.52435,34.2301 -172.32974,50.1309 -254.397,43.9686 -49.65466,-3.7285 -159.7818,-56.3518 -150.94843,-199.22536 z"
       id="path3021"
       inkscape:connector-curvature="0"
       sodipodi:nodetypes="csssssc" />
    <path
       style="fill:#ffffff;stroke:none"
       d="m 733.88311,1085.2688 c -44.306,12.9389 -54.1082,2.7446 -64.3025,-9.8023 -10.1943,-12.5468 -18.0361,-25.0936 -28.6225,-25.8778 -10.5864,-0.7842 -23.9174,4.313 -33.3275,9.4101 -9.4102,5.0972 -16.507,-1.9213 -25.1329,-8.9789 -8.626,-7.0576 -62.695,-32.5825 -62.695,-32.5825 0,0 18.8203,41.1693 28.6225,51.7557 9.8022,10.5864 13.331,14.5073 18.4281,17.644 5.0972,3.1367 18.8203,9.0181 29.7988,6.2734 10.9785,-2.7446 19.9965,-10.5864 27.8383,-14.5072 7.8417,-3.9209 21.1532,-0.549 30.9554,7.2928 9.8022,7.8418 34.739,22.2706 51.9909,15.9972 17.2519,-6.2734 26.4464,-16.6245 26.4464,-16.6245 z"
       id="path3023"
       inkscape:connector-curvature="0"
       sodipodi:nodetypes="csssscssssssc" />
    <path
       style="fill:#ffffff;stroke:none"
       d="m 1264.6311,3147.3982 c 2.7711,-100.5802 155.6636,-122.6522 226.5843,-128.6523 70.9206,-6.0002 259.1332,-27.0008 330.0538,54.0015 70.9206,81.0023 45.8771,120.6199 7.4912,163.2101 -32.7341,36.3196 -114.9686,56.7284 -187.4805,68.0979 -90.038,14.1173 -242.833,-3.2231 -309.315,-43.3585 -35.4541,-21.4037 -70.105,-12.7186 -67.3338,-113.2987 z"
       id="path3100"
       inkscape:connector-curvature="0"
       sodipodi:nodetypes="zsssssz" />
    <path
       style="fill:#ffffff;stroke:none"
       d="m 1129.7469,3139.8145 c 21.6616,12.3189 36.3515,19.4589 47.9057,15.6882 11.554,-3.7706 25.3208,-7.419 31.6023,-18.5755 6.2814,-11.1565 21.4663,-24.8883 29.6226,-24.2454 8.1564,0.643 38.0028,3.8281 51.4556,18.5689 13.4528,14.7409 24.5547,-27.4016 24.5547,-27.4016 0,0 -32.6208,-19.0608 -39.516,-20.5927 -6.8954,-1.5319 -26.3964,-10.6636 -49.457,10.3018 -23.0604,20.9655 -31.8401,40.6119 -44.8361,47.754 -12.9959,7.1421 -35.9993,8.5538 -51.3318,-1.4977 z"
       id="path3137"
       inkscape:connector-curvature="0" />
  </g>
  <g
     inkscape:groupmode="layer"
     id="layer1"
     inkscape:label="txt">
    <flowRoot
       xml:space="preserve"
       id="flowRoot2987"
       style="font-style:normal;font-variant:normal;font-weight:normal;font-stretch:normal;line-height:0.01%;font-family:Lavi;-inkscape-font-specification:Lavi;letter-spacing:0px;word-spacing:0px;fill:#000000;fill-opacity:1;stroke:none"
       transform="translate(-70.208632,518.94521)"><flowRegion
         id="flowRegion2989"><rect
           id="rect2991"
           width="676.91821"
           height="308.9158"
           x="120.55251"
           y="265.53046"
           style="font-style:normal;font-variant:normal;font-weight:normal;font-stretch:normal;font-family:Lavi;-inkscape-font-specification:Lavi" /></flowRegion><flowPara
         style="font-style:normal;font-variant:normal;font-weight:normal;font-stretch:normal;font-size:48px;line-height:1.25;font-family:'WenQuanYi Micro Hei';-inkscape-font-specification:'WenQuanYi Micro Hei';text-align:center;text-anchor:middle"
         id="flowPara3033">……然后一些</flowPara><flowPara
         style="font-style:normal;font-variant:normal;font-weight:normal;font-stretch:normal;font-size:48px;line-height:1.25;font-family:'WenQuanYi Micro Hei';-inkscape-font-specification:'WenQuanYi Micro Hei';text-align:center;text-anchor:middle"
         id="flowPara3362">火山谷的</flowPara><flowPara
         style="font-style:normal;font-variant:normal;font-weight:normal;font-stretch:normal;font-size:48px;line-height:1.25;font-family:'WenQuanYi Micro Hei';-inkscape-font-specification:'WenQuanYi Micro Hei';text-align:center;text-anchor:middle"
         id="flowPara3364">凤凰蛋壳</flowPara><flowPara
         style="font-style:normal;font-variant:normal;font-weight:normal;font-stretch:normal;font-size:48px;line-height:1.25;font-family:'WenQuanYi Micro Hei';-inkscape-font-specification:'WenQuanYi Micro Hei';text-align:center;text-anchor:middle"
         id="flowPara3366">碎片</flowPara></flowRoot>    <flowRoot
       xml:space="preserve"
       id="flowRoot2987-0"
       style="font-style:normal;font-variant:normal;font-weight:normal;font-stretch:normal;line-height:0.01%;font-family:Lavi;-inkscape-font-specification:Lavi;letter-spacing:0px;word-spacing:0px;fill:#000000;fill-opacity:1;stroke:none"
       transform="translate(1124.4186,2797.6115)"><flowRegion
         id="flowRegion2989-9"><rect
           id="rect2991-9"
           width="626.15924"
           height="205.81171"
           x="120.55251"
           y="265.53046"
           style="font-style:normal;font-variant:normal;font-weight:normal;font-stretch:normal;font-family:Lavi;-inkscape-font-specification:Lavi" /></flowRegion><flowPara
         style="font-style:normal;font-variant:normal;font-weight:normal;font-stretch:normal;font-size:48px;line-height:1.25;font-family:'WenQuanYi Micro Hei';-inkscape-font-specification:'WenQuanYi Micro Hei';text-align:center;text-anchor:middle"
         id="flowPara3046"> ……最后，</flowPara><flowPara
         style="font-style:normal;font-variant:normal;font-weight:normal;font-stretch:normal;font-size:48px;line-height:1.25;font-family:'WenQuanYi Micro Hei';-inkscape-font-specification:'WenQuanYi Micro Hei';text-align:center;text-anchor:middle"
         id="flowPara3372">几滴年轻</flowPara><flowPara
         style="font-style:normal;font-variant:normal;font-weight:normal;font-stretch:normal;font-size:48px;line-height:1.25;font-family:'WenQuanYi Micro Hei';-inkscape-font-specification:'WenQuanYi Micro Hei';text-align:center;text-anchor:middle"
         id="flowPara3374">奶牛龙的乳汁</flowPara></flowRoot>  </g>
</svg>
