<?xml version="1.0" encoding="UTF-8" standalone="no"?>
<!-- Created with Inkscape (http://www.inkscape.org/) -->

<svg
   xmlns:dc="http://purl.org/dc/elements/1.1/"
   xmlns:cc="http://creativecommons.org/ns#"
   xmlns:rdf="http://www.w3.org/1999/02/22-rdf-syntax-ns#"
   xmlns:svg="http://www.w3.org/2000/svg"
   xmlns="http://www.w3.org/2000/svg"
   xmlns:xlink="http://www.w3.org/1999/xlink"
   xmlns:sodipodi="http://sodipodi.sourceforge.net/DTD/sodipodi-0.dtd"
   xmlns:inkscape="http://www.inkscape.org/namespaces/inkscape"
   id="svg2"
   version="1.1"
   inkscape:version="0.92.1 renderfarm"
   width="2481"
   height="2041"
   sodipodi:docname="Pepper-and-Carrot_by-David-Revoy_E03P08_092.svg">
  <sodipodi:namedview pagecolor="#ffffff" bordercolor="#666666" inkscape:pageopacity="0" inkscape:pageshadow="2" inkscape:window-width="1813" inkscape:window-height="955" id="namedview70" showgrid="false" inkscape:zoom="0.4" inkscape:cx="1284.4231" inkscape:cy="2618.6204" inkscape:current-layer="layer1" /><metadata
     id="metadata8">
    <rdf:RDF>
      <cc:Work
         rdf:about="">
        <dc:format>image/svg+xml</dc:format>
        <dc:type
           rdf:resource="http://purl.org/dc/dcmitype/StillImage" />
        <dc:title />
      </cc:Work>
    </rdf:RDF>
  </metadata>
  <defs
     id="defs6" />
  <sodipodi:namedview
     pagecolor="#ffffff"
     bordercolor="#666666"
     borderopacity="1"
     objecttolerance="10"
     gridtolerance="10"
     guidetolerance="10"
     inkscape:pageopacity="0"
     inkscape:pageshadow="2"
     inkscape:window-width="1920"
     inkscape:window-height="1026"
     id="namedview4"
     showgrid="false"
     inkscape:zoom="0.43650537"
     inkscape:cx="1124.256"
     inkscape:cy="888.3631"
     inkscape:window-x="0"
     inkscape:window-y="27"
     inkscape:window-maximized="1"
     inkscape:current-layer="layer2" />
  <g
     inkscape:groupmode="layer"
     id="layer1"
     inkscape:label="artwork"
     style="display:inline"
     sodipodi:insensitive="true">
    <image
       sodipodi:absref="/home/deevad/peppercarrot/webcomics/ep03_The-secret-ingredients/lang/cn/../gfx_Pepper-and-Carrot_by-David-Revoy_E03P08.png"
       xlink:href="../gfx_Pepper-and-Carrot_by-David-Revoy_E03P08.png"
       y="0"
       x="0"
       id="image10"
       height="2041"
       width="2481" />
  </g>
  <g
     inkscape:groupmode="layer"
     id="layer3"
     inkscape:label="speechbubbles">
    <path
       style="fill:#ffffff;stroke:none;stroke-width:1px;stroke-linecap:butt;stroke-linejoin:miter;stroke-opacity:1"
       d="m 91.403294,555.16506 c 1.062829,-51.0158 26.570726,-103.09442 170.052636,-112.65988 143.48192,-9.56546 203.00034,48.89014 207.25166,90.34047 4.25132,41.45033 -82.90066,96.71744 -162.61284,97.78027 C 226.38258,631.68874 91.403294,618.9348 91.403294,555.16506 z"
       id="path4279"
       inkscape:connector-curvature="0" />
    <path
       style="fill:#ffffff;stroke:none"
       d="m 325.22567,807.05553 c 70.14672,-44.63882 88.21481,-124.35099 45.70165,-190.24639 -42.51316,-65.8954 -82.90066,-54.20428 -82.90066,-54.20428 l 35.07336,41.45033 c 0,0 97.78026,97.78027 2.12565,203.00034 z"
       id="path4281"
       inkscape:connector-curvature="0"
       sodipodi:nodetypes="csccc" />
  </g>
  <g
     inkscape:groupmode="layer"
     id="layer2"
     inkscape:label="text"
     style="display:inline">
    <flowRoot
       xml:space="preserve"
       id="flowRoot2987"
       style="font-style:normal;font-variant:normal;font-weight:normal;font-stretch:normal;line-height:0.01%;font-family:Arial;-inkscape-font-specification:Arial;letter-spacing:0px;word-spacing:0px;fill:#000000;fill-opacity:1;stroke:none"
       transform="matrix(0.90141682,0,0,0.98994497,584.25749,4.6110755)"><flowRegion
         id="flowRegion2989"><rect
           id="rect2991"
           width="1737.4337"
           height="1241.702"
           x="-141.0901"
           y="266.68515" /></flowRegion><flowPara
         id="flowPara2993"
         style="font-style:normal;font-variant:normal;font-weight:normal;font-stretch:normal;font-size:48px;line-height:1.25;font-family:Lavi;-inkscape-font-specification:Lavi;text-align:center;text-anchor:middle">Алексей, 獨孤欣, Albert Westra, Alejandro Flores Prieto, Alex Lusco,</flowPara><flowPara
         id="flowPara2995"
         style="font-style:normal;font-variant:normal;font-weight:normal;font-stretch:normal;font-size:48px;line-height:1.25;font-family:Lavi;-inkscape-font-specification:Lavi;text-align:center;text-anchor:middle">Alex Silver, Alex Vandiver, Alexander Sopicki, Andreas Rieger, Andrew,</flowPara><flowPara
         id="flowPara2997"
         style="font-style:normal;font-variant:normal;font-weight:normal;font-stretch:normal;font-size:48px;line-height:1.25;font-family:Lavi;-inkscape-font-specification:Lavi;text-align:center;text-anchor:middle">Andrew Grady, Andrey Alekseenko, Anna Orlova, Antan Karmola, Antoine,</flowPara><flowPara
         id="flowPara2999"
         style="font-style:normal;font-variant:normal;font-weight:normal;font-stretch:normal;font-size:48px;line-height:1.25;font-family:Lavi;-inkscape-font-specification:Lavi;text-align:center;text-anchor:middle">Aslak Kjølås-Sæverud, Axel Bordelon, Axel Philipsenburg, Ben Evans,</flowPara><flowPara
         id="flowPara3001"
         style="font-style:normal;font-variant:normal;font-weight:normal;font-stretch:normal;font-size:48px;line-height:1.25;font-family:Lavi;-inkscape-font-specification:Lavi;text-align:center;text-anchor:middle">Boonsak Watanavisit, Boudewijn Rempt, carlos levischi, Charlotte Lacombe-bar, Chris Sakkas, Christophe Carré, Clara Dexter, Colby Driedger,</flowPara><flowPara
         id="flowPara3003"
         style="font-style:normal;font-variant:normal;font-weight:normal;font-stretch:normal;font-size:48px;line-height:1.25;font-family:Lavi;-inkscape-font-specification:Lavi;text-align:center;text-anchor:middle">Conway Scott Smith, Dmitry, Eitan Goldshtrom, Enrico Billich,</flowPara><flowPara
         id="flowPara3005"
         style="font-style:normal;font-variant:normal;font-weight:normal;font-stretch:normal;font-size:48px;line-height:1.25;font-family:Lavi;-inkscape-font-specification:Lavi;text-align:center;text-anchor:middle">-epsilon-, Garret Patterson, Gustav Strömbom, Guy Davis,</flowPara><flowPara
         id="flowPara3007"
         style="font-style:normal;font-variant:normal;font-weight:normal;font-stretch:normal;font-size:48px;line-height:1.25;font-family:Lavi;-inkscape-font-specification:Lavi;text-align:center;text-anchor:middle">Helmar Suschka, Ilyas Akhmedov, Inga Huang, Irene C.,</flowPara><flowPara
         id="flowPara3009"
         style="font-style:normal;font-variant:normal;font-weight:normal;font-stretch:normal;font-size:48px;line-height:1.25;font-family:Lavi;-inkscape-font-specification:Lavi;text-align:center;text-anchor:middle">Jean-Baptiste Hebbrecht, JEM, Jessey Wright, John, Jónatan Nilsson,</flowPara><flowPara
         id="flowPara3011"
         style="font-style:normal;font-variant:normal;font-weight:normal;font-stretch:normal;font-size:48px;line-height:1.25;font-family:Lavi;-inkscape-font-specification:Lavi;text-align:center;text-anchor:middle">Joseph Bowman, Juanjo Fernández Monreal, Jurgo van den Elzen,</flowPara><flowPara
         id="flowPara3013"
         style="font-style:normal;font-variant:normal;font-weight:normal;font-stretch:normal;font-size:48px;line-height:1.25;font-family:Lavi;-inkscape-font-specification:Lavi;text-align:center;text-anchor:middle">Kai-Ting (Danil) Ko, Kasper Hansen, Kathryn Wuerstl, Ken Mingyuan Xia,</flowPara><flowPara
         id="flowPara3015"
         style="font-style:normal;font-variant:normal;font-weight:normal;font-stretch:normal;font-size:48px;line-height:1.25;font-family:Lavi;-inkscape-font-specification:Lavi;text-align:center;text-anchor:middle">Liselle, Lorentz Grip, MacCoy, Mandy, Martin Owens, Maurice-Marie Stromer,</flowPara><flowPara
         id="flowPara3017"
         style="font-style:normal;font-variant:normal;font-weight:normal;font-stretch:normal;font-size:48px;line-height:1.25;font-family:Lavi;-inkscape-font-specification:Lavi;text-align:center;text-anchor:middle">Mauricio Vega, mefflin ross bullis-bates, Michelle Pereira Garcia,</flowPara><flowPara
         id="flowPara3019"
         style="font-style:normal;font-variant:normal;font-weight:normal;font-stretch:normal;font-size:48px;line-height:1.25;font-family:Lavi;-inkscape-font-specification:Lavi;text-align:center;text-anchor:middle">Morten Hellesø Johansen, Nazhif, Nicki Aya, Nicolae Berbece, Nicole Heersema,</flowPara><flowPara
         id="flowPara3021"
         style="font-style:normal;font-variant:normal;font-weight:normal;font-stretch:normal;font-size:48px;line-height:1.25;font-family:Lavi;-inkscape-font-specification:Lavi;text-align:center;text-anchor:middle">No Reward, Noah Summers, Noble Hays, Olivier Amrein, Olivier Brun,</flowPara><flowPara
         id="flowPara3023"
         style="font-style:normal;font-variant:normal;font-weight:normal;font-stretch:normal;font-size:48px;line-height:1.25;font-family:Lavi;-inkscape-font-specification:Lavi;text-align:center;text-anchor:middle">Oscar Moreno, Pavel Semenov, Peter Moonen, Pierre Vuillemin, Ret Samys,</flowPara><flowPara
         id="flowPara3025"
         style="font-style:normal;font-variant:normal;font-weight:normal;font-stretch:normal;font-size:48px;line-height:1.25;font-family:Lavi;-inkscape-font-specification:Lavi;text-align:center;text-anchor:middle">Reuben Tracey, Rustin Simons, Sami T, Sean Adams, Shadefalcon,</flowPara></flowRoot>    <flowRoot
       xml:space="preserve"
       id="flowRoot3027-8-8"
       style="font-style:normal;font-variant:normal;font-weight:normal;font-stretch:normal;line-height:0.01%;font-family:Arial;-inkscape-font-specification:Arial;text-align:center;letter-spacing:0px;word-spacing:0px;text-anchor:middle;fill:#a72f14;fill-opacity:1;stroke:none"
       transform="matrix(1.1896535,0,0,1.2337535,-280.19733,1229.1328)"><flowRegion
         id="flowRegion3029-9-3"><rect
           id="rect3031-9-1"
           width="2230.314"
           height="376.21677"
           x="135.21135"
           y="219.33444"
           style="text-align:center;text-anchor:middle;fill:#a72f14;fill-opacity:1" /></flowRegion><flowPara
         id="flowPara3033-3-0"
         style="font-size:12px;line-height:1.25"> </flowPara><flowPara
         style="font-style:normal;font-variant:normal;font-weight:normal;font-stretch:normal;font-size:48px;line-height:1.25;font-family:Lavi;-inkscape-font-specification:Lavi;text-align:center;text-anchor:middle;fill:#a72f14;fill-opacity:1"
         id="flowPara3067-4">http://www.patreon.com/davidrevoy</flowPara></flowRoot>    <flowRoot
       xml:space="preserve"
       id="flowRoot3027-8-8-2"
       style="font-style:normal;font-variant:normal;font-weight:normal;font-stretch:normal;line-height:0.01%;font-family:Arial;-inkscape-font-specification:Arial;text-align:center;letter-spacing:0px;word-spacing:0px;text-anchor:middle;fill:#000000;fill-opacity:1;stroke:none"
       transform="matrix(0.91226779,0,0,0.92588081,45.426939,1130.2226)"><flowRegion
         id="flowRegion3029-9-3-5"><rect
           id="rect3031-9-1-6"
           width="2230.314"
           height="376.21677"
           x="135.21135"
           y="219.33444"
           style="text-align:center;text-anchor:middle" /></flowRegion><flowPara
         id="flowPara3033-3-0-2"
         style="font-size:12px;line-height:1.25"> </flowPara><flowPara
         style="font-style:normal;font-variant:normal;font-weight:normal;font-stretch:normal;font-size:48px;line-height:1.25;font-family:'WenQuanYi Micro Hei';-inkscape-font-specification:'WenQuanYi Micro Hei';text-align:center;text-anchor:middle"
         id="flowPara3231">特别鸣谢</flowPara><flowPara
         style="font-style:normal;font-variant:normal;font-weight:normal;font-stretch:normal;font-size:48px;line-height:1.25;font-family:'WenQuanYi Micro Hei';-inkscape-font-specification:'WenQuanYi Micro Hei';text-align:center;text-anchor:middle"
         id="flowPara3233">Amireeti,  David Tschumperlé (Gmic)和全体'team Krita' !</flowPara></flowRoot>    <flowRoot
       xml:space="preserve"
       id="flowRoot3027-8-8-2-8"
       style="font-style:normal;font-variant:normal;font-weight:normal;font-stretch:normal;line-height:0.01%;font-family:Arial;-inkscape-font-specification:Arial;text-align:center;letter-spacing:0px;word-spacing:0px;text-anchor:middle;fill:#000000;fill-opacity:1;stroke:none"
       transform="matrix(0.74146229,0,0,0.78743223,305.21556,1573.1779)"><flowRegion
         id="flowRegion3029-9-3-5-1"><rect
           id="rect3031-9-1-6-8"
           width="2230.314"
           height="376.21677"
           x="135.21135"
           y="219.33444"
           style="text-align:center;text-anchor:middle" /></flowRegion><flowPara
         id="flowPara3033-3-0-2-4"
         style="font-size:12px;line-height:1.25"> </flowPara><flowPara
         style="font-style:normal;font-variant:normal;font-weight:normal;font-stretch:normal;font-size:48px;line-height:1.25;font-family:'WenQuanYi Micro Hei';-inkscape-font-specification:'WenQuanYi Micro Hei';text-align:center;text-anchor:middle"
         id="flowPara3279">工具：本集100%由开源软件绘制</flowPara><flowPara
         style="font-style:normal;font-variant:normal;font-weight:normal;font-stretch:normal;font-size:48px;line-height:1.25;font-family:'WenQuanYi Micro Hei';-inkscape-font-specification:'WenQuanYi Micro Hei';text-align:center;text-anchor:middle"
         id="flowPara3233-6">Xubuntu (Gnu/Linux)环境下Krita et Gmic</flowPara></flowRoot>    <flowRoot
       xml:space="preserve"
       id="flowRoot3027-8-8-2-8-2"
       style="font-style:normal;font-variant:normal;font-weight:normal;font-stretch:normal;line-height:0.01%;font-family:Arial;-inkscape-font-specification:Arial;text-align:center;letter-spacing:0px;word-spacing:0px;text-anchor:middle;display:inline;fill:#000000;fill-opacity:1;stroke:none"
       transform="matrix(1.0543523,0,0,1.2586015,-33.247891,217.99763)"><flowRegion
         id="flowRegion3029-9-3-5-1-8"><rect
           id="rect3031-9-1-6-8-6"
           width="335.19684"
           height="81.528976"
           x="135.21135"
           y="219.33444"
           style="text-align:center;text-anchor:middle" /></flowRegion><flowPara
         style="font-style:normal;font-variant:normal;font-weight:normal;font-stretch:normal;font-size:48px;line-height:1.25;font-family:'WenQuanYi Micro Hei';-inkscape-font-specification:'WenQuanYi Micro Hei';text-align:center;text-anchor:middle"
         id="flowPara3233-6-1">万分感谢！</flowPara></flowRoot>    <flowRoot
       xml:space="preserve"
       id="flowRoot3027-87"
       style="font-style:normal;font-variant:normal;font-weight:normal;font-stretch:normal;line-height:0.01%;font-family:Arial;-inkscape-font-specification:Arial;text-align:center;letter-spacing:0px;word-spacing:0px;text-anchor:middle;display:inline;fill:#000000;fill-opacity:1;stroke:none"
       transform="matrix(1.2334095,0,0,1.2851851,-461.72927,-161.44679)"><flowRegion
         id="flowRegion3029-8"><rect
           id="rect3031-7"
           width="2475.8752"
           height="241.27675"
           x="135.21135"
           y="219.33444"
           style="text-align:center;text-anchor:middle" /></flowRegion><flowPara
         style="font-style:normal;font-variant:normal;font-weight:normal;font-stretch:normal;font-size:48px;line-height:1.25;font-family:'WenQuanYi Micro Hei';-inkscape-font-specification:'WenQuanYi Micro Hei';text-align:center;text-anchor:middle"
         id="flowPara3044">小辣椒与萝卜头是完全免费且开源的，项目资金由读者捐助。</flowPara><flowPara
         style="font-style:normal;font-variant:normal;font-weight:normal;font-stretch:normal;font-size:48px;line-height:1.25;font-family:'WenQuanYi Micro Hei';-inkscape-font-specification:'WenQuanYi Micro Hei';text-align:center;text-anchor:middle"
         id="flowPara3385">本集有93位捐助者：</flowPara></flowRoot>    <flowRoot
       xml:space="preserve"
       id="flowRoot3027-8-8-2-1"
       style="font-style:normal;font-variant:normal;font-weight:normal;font-stretch:normal;line-height:0.01%;font-family:Arial;-inkscape-font-specification:Arial;text-align:center;letter-spacing:0px;word-spacing:0px;text-anchor:middle;display:inline;fill:#000000;fill-opacity:1;stroke:none"
       transform="matrix(0.91226779,0,0,0.94129239,86.713957,1257.2996)"><flowRegion
         id="flowRegion3029-9-3-5-4"><rect
           id="rect3031-9-1-6-81"
           width="2230.314"
           height="376.21677"
           x="135.21135"
           y="219.33444"
           style="text-align:center;text-anchor:middle" /></flowRegion><flowPara
         style="font-style:normal;font-variant:normal;font-weight:normal;font-stretch:normal;font-size:48px;line-height:1.25;font-family:'WenQuanYi Micro Hei';-inkscape-font-specification:'WenQuanYi Micro Hei';text-align:center;text-anchor:middle"
         id="flowPara3055">您也可以成为下一集小辣椒与萝卜头的捐助者：</flowPara></flowRoot>    <path
       inkscape:connector-curvature="0"
       id="path3435"
       d="m 884.17248,1597.9524 1.4956,2.8752 c -5.5341,1.135 -12.2649,1.8918 -20.267,2.1946 l -0.8229,-2.8756 c 6.5814,0 13.0879,-0.7564 19.5943,-2.1942 z m -2.3934,4.54 3.141,1.135 c -0.972,2.497 -2.0938,4.767 -3.2905,6.81 l 4.8611,0 0,6.2802 -2.9167,0 0,-3.4804 -16.2285,0 0,3.4804 -2.9167,0 0,-6.2802 13.9849,0 c 1.496,-2.724 2.6178,-5.3722 3.3654,-7.945 z m -6.8803,0.681 c 1.0469,1.4378 1.9444,3.1022 2.6174,4.994 l -2.7668,1.4378 c -0.5986,-1.7406 -1.4211,-3.4808 -2.3931,-5.221 l 2.5425,-1.2108 z m -6.6559,0.454 c 0.9724,1.4378 1.7949,3.1022 2.468,4.9182 l -2.7672,1.362 c -0.5982,-1.7402 -1.3462,-3.405 -2.2436,-4.994 l 2.5428,-1.2862 z m 1.4956,17.6303 c 1.3462,2.043 2.9916,3.7832 5.0109,5.221 1.8694,-1.6648 3.3654,-3.632 4.5617,-5.9778 l -11.6664,0 0,-3.1777 15.1816,0 0,3.0265 c -1.3461,3.3292 -3.0665,6.0532 -5.1602,8.0207 2.4679,1.2863 5.2348,2.1943 8.3758,2.8753 l -1.2712,2.951 c -4.0385,-0.8326 -7.329,-2.1188 -9.7224,-3.7832 -2.6174,1.6644 -5.4592,2.9506 -8.6003,3.7832 l -1.7199,-2.7998 c 2.8417,-0.7564 5.3097,-1.7402 7.3289,-3.0265 -1.8697,-1.589 -3.3654,-3.178 -4.5621,-4.8427 l 2.2436,-2.27 z m -16.5277,-16.6465 3.5152,0 0,-6.6588 2.8418,0 0,6.6588 3.5148,0 0,2.951 -3.5148,0 0,7.8692 2.7668,-1.7402 0.5986,2.8752 c -1.0473,0.8322 -2.2436,1.589 -3.3654,2.3455 l 0,11.1988 c 0,1.589 -0.2226,2.6482 -0.5982,3.2534 -0.4487,0.5298 -1.1218,0.8326 -2.2436,0.8326 -0.9724,0 -1.8698,-0.075 -2.7672,-0.3039 l -0.748,-2.951 c 1.0472,0.1502 2.0941,0.3039 3.0665,0.3039 0.3003,0 0.4487,-0.681 0.4487,-1.8918 l 0,-8.853 c -0.9724,0.6055 -2.0193,1.2108 -3.0665,1.7405 l -1.0469,-3.3295 c 1.4956,-0.6053 2.8418,-1.2863 4.1134,-2.0427 l 0,-9.307 -3.5152,0 0,-2.951 z"
       style="display:inline;fill:#000000;fill-opacity:1;fill-rule:nonzero;stroke:none" />
    <path
       inkscape:connector-curvature="0"
       id="path3437"
       d="m 891.05278,1605.2164 5.4592,0 0,-7.264 2.9916,0 0,7.264 5.1602,0 0,2.951 -5.1602,0 0,1.589 c 2.1687,2.5728 4.0384,4.994 5.609,7.4152 l -1.9444,3.0268 c -1.2716,-2.3458 -2.4679,-4.3888 -3.6646,-6.129 l 0,20.1273 -2.9916,0 0,-17.7815 c -1.1218,3.5562 -2.7669,6.6585 -4.8611,9.3067 l -2.0192,-2.1942 c 3.216,-4.3131 5.4596,-9.4583 6.5814,-15.3603 l -5.1603,0 0,-2.951 z m 13.9103,-5.0698 17.051,0 c -0.5981,8.2478 -2.5425,15.2848 -5.9828,21.2623 2.0942,3.9348 5.0854,7.264 8.825,9.988 l -1.6455,3.1022 c -3.5148,-2.4966 -6.5813,-5.8262 -9.1238,-10.0634 -2.9916,4.0102 -6.6559,7.264 -11.218,9.761 l -1.6455,-2.6482 c 4.7865,-2.4216 8.4512,-5.7508 11.2181,-9.9126 -2.9167,-5.9017 -4.936,-12.0307 -6.0578,-18.3113 l -1.4207,0 0,-3.178 z m 4.5618,3.178 c 0.8974,5.221 2.4679,10.2908 4.861,15.1333 2.468,-4.8425 3.9639,-9.9123 4.5621,-15.1333 l -9.4231,0 z"
       style="display:inline;fill:#000000;fill-opacity:1;fill-rule:nonzero;stroke:none" />
    <path
       inkscape:connector-curvature="0"
       id="path3439"
       d="m 933.98008,1597.9524 c 1.6451,2.1188 3.0662,4.313 4.1131,6.6588 l -2.7669,1.6644 c -0.9723,-2.27 -2.3185,-4.4642 -3.9639,-6.583 l 2.6177,-1.7402 z m -5.609,11.6528 8.0021,0 0,18.3112 3.0661,-3.632 1.9444,1.8915 c -1.4207,1.9675 -3.2905,4.0106 -5.6087,5.9778 l -2.2436,-2.043 0,-17.6303 -5.1603,0 0,-2.8752 z m 16.9765,-11.5016 2.7669,0.9838 c -0.3003,1.135 -0.5982,2.27 -1.0469,3.405 l 14.35866,0 0,3.0268 -7.55326,0 0,10.0634 8.37616,0 0,3.178 -8.37616,0 0,15.4361 -2.9164,0 0,-15.4361 -10.3206,0 0,-3.178 10.3206,0 0,-10.0634 -5.0108,0 c -1.2713,3.2534 -2.5429,5.675 -3.7392,7.264 l -2.3185,-1.8918 c 2.4679,-3.7078 4.2628,-7.945 5.4595,-12.7878 z"
       style="display:inline;fill:#000000;fill-opacity:1;fill-rule:nonzero;stroke:none" />
    <path
       inkscape:connector-curvature="0"
       id="path3441"
       d="m 966.13784,1600.1466 34.02816,0 0,3.0268 -5.60896,0 0,26.9373 c 0,1.5132 -0.3742,2.497 -1.0473,3.178 -0.6731,0.6052 -2.0192,0.908 -4.113,0.908 -1.0473,0 -2.0942,-0.075 -2.9167,-0.3039 l -0.5985,-2.951 c 1.0472,0.1502 2.0941,0.3039 3.0665,0.3039 1.1218,0 1.7949,-0.1502 2.1687,-0.454 0.3003,-0.2252 0.5236,-0.7568 0.5236,-1.4378 l 0,-26.1805 -25.5025,0 0,-3.0268 z m 18.2481,9.1558 0,13.847 -11.2181,0 0,2.27 -2.9166,0 0,-16.117 14.1347,0 z m -11.2181,10.896 8.3014,0 0,-7.8692 -8.3014,0 0,7.8692 z"
       style="display:inline;fill:#000000;fill-opacity:1;fill-rule:nonzero;stroke:none" />
    <path
       inkscape:connector-curvature="0"
       id="path3443"
       d="m 1015.0483,1616.2636 -5.3097,0 0,-6.5072 5.3097,0 0,6.5072 z m 0,14.3011 -5.3097,0 0,-6.4318 5.3097,0 0,6.4318 z"
       style="display:inline;fill:#000000;fill-opacity:1;fill-rule:nonzero;stroke:none" />
    <path
       inkscape:connector-curvature="0"
       id="path3445"
       d="m 1054.3114,1604.6112 c -1.3462,0 -2.5425,0.2252 -3.5898,0.7564 -1.1218,0.5298 -2.0192,1.2866 -2.7669,2.3458 -0.7479,0.9838 -1.3461,2.1942 -1.7203,3.632 -0.4487,1.4378 -0.5982,3.0268 -0.5982,4.8428 0,1.816 0.1484,3.4804 0.5237,4.9182 0.3738,1.4375 0.8974,2.6483 1.645,3.632 0.6731,0.9835 1.5706,1.7403 2.6924,2.27 1.0472,0.5295 2.3185,0.7565 3.8141,0.7565 1.0462,0 2.0931,-0.075 3.0654,-0.3039 0.972,-0.2252 1.9444,-0.5298 2.9167,-0.8326 l 0,3.1781 c -0.4487,0.2252 -0.9723,0.3785 -1.4211,0.5297 -0.4487,0.1502 -0.9723,0.3039 -1.4956,0.3783 -0.5236,0.075 -1.1218,0.1501 -1.7203,0.2252 -0.5982,0 -1.1953,0.075 -1.9433,0.075 -2.0192,0 -3.7392,-0.3782 -5.2352,-1.135 -1.4956,-0.681 -2.6923,-1.6648 -3.6643,-2.951 -0.9724,-1.362 -1.6454,-2.8752 -2.1691,-4.6912 -0.4487,-1.816 -0.673,-3.859 -0.673,-6.129 0,-2.1188 0.3003,-4.1618 0.8229,-5.9778 0.5232,-1.816 1.2712,-3.3292 2.3181,-4.6154 1.0473,-1.362 2.3185,-2.3458 3.889,-3.1026 1.4957,-0.681 3.2905,-1.0592 5.3098,-1.0592 1.2705,0 2.5418,0.1501 3.7385,0.454 1.1963,0.3038 2.3181,0.681 3.2905,1.2108 l -1.4211,3.1022 c -0.8225,-0.3782 -1.645,-0.7568 -2.5425,-1.0592 -0.8974,-0.3039 -1.9447,-0.454 -3.0654,-0.454 z"
       style="display:inline;fill:#000000;fill-opacity:1;fill-rule:nonzero;stroke:none" />
    <path
       inkscape:connector-curvature="0"
       id="path3447"
       d="m 1074.4282,1608.5456 c 0.3003,0 0.7476,0 1.1964,0.075 0.4487,0 0.8228,0.075 1.1218,0.1501 l -0.4488,3.3296 c -0.3738,-0.075 -0.673,-0.1501 -1.0469,-0.2288 -0.3738,0 -0.748,-0.075 -1.0469,-0.075 -0.7479,0 -1.4959,0.2252 -2.0941,0.5297 -0.6731,0.3039 -1.1967,0.8323 -1.6454,1.4375 -0.4488,0.6056 -0.8226,1.362 -1.1218,2.27 -0.2262,0.8326 -0.3739,1.816 -0.3739,2.8752 l 0,11.6528 -3.2905,0 0,-21.6405 2.6924,0 0.3738,4.0103 0.1484,0 c 0.3742,-0.6053 0.6731,-1.135 1.0472,-1.6648 0.3004,-0.5295 0.7477,-0.9835 1.1218,-1.362 0.4488,-0.454 0.972,-0.7565 1.4957,-0.9835 0.5236,-0.2252 1.1218,-0.3785 1.8697,-0.3785 z"
       style="display:inline;fill:#000000;fill-opacity:1;fill-rule:nonzero;stroke:none" />
    <path
       inkscape:connector-curvature="0"
       id="path3449"
       d="m 1088.7124,1631.0187 c -1.4211,0 -2.6175,-0.3039 -3.7393,-0.7568 -1.1218,-0.5294 -2.0941,-1.2104 -2.9167,-2.1185 -0.7479,-0.9837 -1.421,-2.1187 -1.8697,-3.4807 -0.3739,-1.362 -0.5982,-2.951 -0.5982,-4.7671 0,-1.7402 0.1484,-3.3292 0.5982,-4.767 0.3738,-1.362 0.9723,-2.5724 1.7199,-3.5562 0.748,-0.9838 1.5706,-1.7402 2.6178,-2.27 1.0469,-0.454 2.1687,-0.7568 3.3654,-0.7568 1.2713,0 2.3182,0.2252 3.2905,0.7568 0.9724,0.454 1.7949,1.0592 2.468,1.9672 0.6731,0.8326 1.1967,1.816 1.5705,3.0268 0.3738,1.2108 0.5236,2.497 0.5236,3.9348 l 0,2.1942 -12.714,0 c 0.074,2.5725 0.5237,4.4643 1.496,5.5993 0.972,1.2107 2.3182,1.816 4.188,1.816 0.5981,0 1.1967,0 1.7199,-0.075 0.5237,-0.075 1.0473,-0.1502 1.5706,-0.3039 0.5236,-0.1501 0.9723,-0.3038 1.421,-0.454 0.5236,-0.2252 0.9724,-0.454 1.4211,-0.681 l 0,3.2535 c -0.4487,0.2288 -0.9724,0.454 -1.4211,0.6055 -0.4487,0.2288 -0.9723,0.3783 -1.4956,0.454 -0.4487,0.1502 -0.9723,0.2253 -1.496,0.3039 -0.5232,0 -1.1218,0.075 -1.7199,0.075 z m -0.8975,-19.5221 c -1.3461,0 -2.4679,0.5298 -3.2905,1.589 -0.8229,0.9838 -1.2716,2.497 -1.4211,4.4646 l 9.0494,0 c 0,-0.908 -0.074,-1.7406 -0.2262,-2.4216 -0.1484,-0.7564 -0.4487,-1.4374 -0.8229,-1.9672 -0.3003,-0.5298 -0.7476,-0.908 -1.2712,-1.2108 -0.5982,-0.3038 -1.1967,-0.454 -2.0193,-0.454 z"
       style="display:inline;fill:#000000;fill-opacity:1;fill-rule:nonzero;stroke:none" />
    <path
       inkscape:connector-curvature="0"
       id="path3451"
       d="m 1112.2702,1630.5647 -0.6731,-2.951 -0.1484,0 c -0.3742,0.6052 -0.8229,1.0592 -1.1967,1.5132 -0.4487,0.454 -0.8974,0.7568 -1.3462,1.0596 -0.4487,0.3038 -0.9723,0.454 -1.5705,0.6052 -0.5982,0.1501 -1.2712,0.2252 -2.0941,0.2252 -0.8226,0 -1.5705,-0.1502 -2.3182,-0.454 -0.748,-0.2252 -1.3461,-0.6052 -1.8698,-1.135 -0.5236,-0.5298 -0.8974,-1.2108 -1.1967,-2.043 -0.3003,-0.7568 -0.4487,-1.7402 -0.4487,-2.8752 0,-2.1188 0.6731,-3.7836 2.0942,-4.9186 1.421,-1.2105 3.5897,-1.8157 6.5064,-1.8915 l 3.3654,-0.1501 0,-1.362 c 0,-0.908 -0.074,-1.589 -0.2261,-2.1946 -0.2226,-0.6052 -0.4487,-1.0592 -0.8226,-1.4374 -0.3003,-0.3786 -0.7479,-0.6056 -1.1967,-0.7568 -0.5236,-0.1501 -1.1218,-0.3039 -1.7199,-0.3039 -1.0473,0 -1.9447,0.2253 -2.8422,0.5298 -0.8974,0.3039 -1.72,0.681 -2.5425,1.135 l -1.1967,-2.724 c 0.8974,-0.5298 1.9443,-0.9838 3.0661,-1.362 1.1218,-0.3038 2.2437,-0.5298 3.5153,-0.5298 1.2712,0 2.3181,0.1502 3.2156,0.454 0.9723,0.2253 1.7203,0.681 2.3185,1.2866 0.5981,0.5294 1.0469,1.2862 1.3461,2.1942 0.2226,0.908 0.3738,1.9673 0.3738,3.2538 l 0,14.8305 -2.393,0 z m -6.1326,-2.497 c 0.7479,0 1.421,-0.075 2.0941,-0.3783 0.5982,-0.2252 1.1967,-0.6055 1.6454,-1.135 0.4488,-0.454 0.8226,-1.135 1.0469,-1.8917 0.3004,-0.7568 0.4487,-1.6648 0.4487,-2.724 l 0,-1.9673 -2.6174,0.1502 c -1.1218,0.075 -2.0941,0.2288 -2.8421,0.454 -0.7476,0.1501 -1.3462,0.454 -1.7949,0.8322 -0.4487,0.3786 -0.7476,0.8326 -0.972,1.362 -0.1484,0.5298 -0.2261,1.135 -0.2261,1.816 0,1.2108 0.2261,2.1188 0.8225,2.6486 0.5982,0.6052 1.4211,0.8322 2.3931,0.8322 z"
       style="display:inline;fill:#000000;fill-opacity:1;fill-rule:nonzero;stroke:none" />
    <path
       inkscape:connector-curvature="0"
       id="path3453"
       d="m 1127.078,1628.0677 c 0.1484,0 0.4487,0 0.6731,-0.075 0.3003,0 0.5981,-0.075 0.8225,-0.075 0.3003,-0.075 0.5236,-0.075 0.748,-0.1501 0.2226,-0.075 0.3738,-0.075 0.4487,-0.1502 l 0,2.724 c -0.1484,0.075 -0.3738,0.1502 -0.5982,0.2253 -0.2261,0.075 -0.5236,0.1501 -0.8229,0.2252 -0.3003,0.075 -0.5981,0.075 -0.8974,0.1501 -0.3003,0 -0.6731,0.075 -0.972,0.075 -0.748,0 -1.4211,-0.1502 -2.0942,-0.3782 -0.673,-0.1502 -1.1967,-0.5298 -1.7199,-1.0596 -0.4488,-0.5294 -0.8229,-1.2104 -1.0473,-2.043 -0.3003,-0.908 -0.4487,-2.043 -0.4487,-3.3292 l 0,-12.5605 -2.8418,0 0,-1.589 2.8418,-1.5136 1.4211,-4.54 1.9443,0 0,4.9186 5.0857,0 0,2.724 -5.0857,0 0,12.5605 c 0,1.2862 0.2226,2.1942 0.5985,2.8752 0.3738,0.6056 1.0469,0.9838 1.9444,0.9838 z"
       style="display:inline;fill:#000000;fill-opacity:1;fill-rule:nonzero;stroke:none" />
    <path
       inkscape:connector-curvature="0"
       id="path3455"
       d="m 1137.0993,1630.5647 -3.3654,0 0,-21.6405 3.3654,0 0,21.6405 z m -3.5898,-27.4671 c 0,-0.7564 0.1484,-1.362 0.5236,-1.7402 0.3739,-0.3039 0.8226,-0.5298 1.4211,-0.5298 0.2261,0 0.5233,0.075 0.7476,0.1502 0.2262,0.075 0.4488,0.2287 0.5986,0.3782 0.2226,0.2252 0.3738,0.454 0.4487,0.7568 0.074,0.2252 0.1484,0.6052 0.1484,0.9834 0,0.7568 -0.1484,1.362 -0.5982,1.7406 -0.3742,0.3782 -0.8229,0.5294 -1.3462,0.5294 -0.5985,0 -1.0472,-0.1501 -1.421,-0.5294 -0.3738,-0.3786 -0.5236,-0.9838 -0.5236,-1.7406 z"
       style="display:inline;fill:#000000;fill-opacity:1;fill-rule:nonzero;stroke:none" />
    <path
       inkscape:connector-curvature="0"
       id="path3457"
       d="m 1147.2704,1630.5647 -6.9552,-21.6405 3.5149,0 3.6647,12.0307 c 0.1484,0.454 0.3003,1.0595 0.4487,1.7405 0.2226,0.681 0.3738,1.362 0.5982,2.043 0.1484,0.7565 0.3003,1.362 0.4487,2.043 0.1484,0.6053 0.3003,1.0593 0.3003,1.4375 l 0.1484,0 c 0.074,-0.3782 0.1484,-0.8322 0.3003,-1.4375 0.1484,-0.681 0.3004,-1.2865 0.5237,-2.043 0.1483,-0.681 0.3738,-1.362 0.5232,-2.043 0.2261,-0.681 0.3742,-1.2865 0.5236,-1.7405 l 3.6647,-12.0307 3.44,0 -6.8803,21.6405 -4.2628,0 z"
       style="display:inline;fill:#000000;fill-opacity:1;fill-rule:nonzero;stroke:none" />
    <path
       inkscape:connector-curvature="0"
       id="path3459"
       d="m 1169.6315,1631.0187 c -1.3461,0 -2.6174,-0.3039 -3.7392,-0.7568 -1.1218,-0.5294 -2.0941,-1.2104 -2.9167,-2.1185 -0.748,-0.9837 -1.421,-2.1187 -1.7949,-3.4807 -0.4487,-1.362 -0.673,-2.951 -0.673,-4.7671 0,-1.7402 0.1484,-3.3292 0.5981,-4.767 0.3742,-1.362 0.9724,-2.5724 1.7204,-3.5562 0.7476,-0.9838 1.5705,-1.7402 2.6174,-2.27 1.0469,-0.454 2.1687,-0.7568 3.4403,-0.7568 1.1964,0 2.2436,0.2252 3.2156,0.7568 0.9723,0.454 1.7949,1.0592 2.468,1.9672 0.673,0.8326 1.1967,1.816 1.5705,3.0268 0.3742,1.2108 0.5236,2.497 0.5236,3.9348 l 0,2.1942 -12.7136,0 c 0.074,2.5725 0.5232,4.4643 1.4956,5.5993 0.9723,1.2107 2.3185,1.816 4.1879,1.816 0.6731,0 1.1967,0 1.7204,-0.075 0.5981,-0.075 1.0469,-0.1502 1.5705,-0.3039 0.5233,-0.1501 0.972,-0.3038 1.4207,-0.454 0.5236,-0.2252 0.9723,-0.454 1.4211,-0.681 l 0,3.2535 c -0.4488,0.2288 -0.9724,0.454 -1.4211,0.6055 -0.4487,0.2288 -0.972,0.3783 -1.4956,0.454 -0.4487,0.1502 -0.9724,0.2253 -1.4956,0.3039 -0.5237,0 -1.1218,0.075 -1.7204,0.075 z m -0.8225,-19.5221 c -1.4211,0 -2.5429,0.5298 -3.3654,1.589 -0.8225,0.9838 -1.2713,2.497 -1.4211,4.4646 l 9.0493,0 c 0,-0.908 -0.074,-1.7406 -0.2226,-2.4216 -0.1483,-0.7564 -0.4487,-1.4374 -0.8225,-1.9672 -0.3003,-0.5298 -0.748,-0.908 -1.2716,-1.2108 -0.5982,-0.3038 -1.1964,-0.454 -1.9443,-0.454 z"
       style="display:inline;fill:#000000;fill-opacity:1;fill-rule:nonzero;stroke:none" />
    <path
       inkscape:connector-curvature="0"
       id="path3461"
       d="m 1202.9856,1604.6112 c -1.2712,0 -2.468,0.2252 -3.5149,0.7564 -1.1218,0.5298 -2.0192,1.2866 -2.7672,2.3458 -0.748,0.9838 -1.3461,2.1942 -1.7949,3.632 -0.3738,1.4378 -0.5981,3.0268 -0.5981,4.8428 0,1.816 0.2261,3.4804 0.5232,4.9182 0.3742,1.4375 0.9724,2.6483 1.6455,3.632 0.7479,0.9835 1.6454,1.7403 2.7672,2.27 1.0469,0.5295 2.3181,0.7565 3.7392,0.7565 1.1218,0 2.1687,-0.075 3.1411,-0.3039 0.9719,-0.2252 1.9443,-0.5298 2.9166,-0.8326 l 0,3.1781 c -0.5236,0.2252 -0.9723,0.3785 -1.421,0.5297 -0.5237,0.1502 -0.9724,0.3039 -1.5706,0.3783 -0.4487,0.075 -1.0468,0.1501 -1.645,0.2252 -0.5986,0 -1.2716,0.075 -1.9447,0.075 -2.0193,0 -3.8141,-0.3782 -5.2349,-1.135 -1.4959,-0.681 -2.6923,-1.6648 -3.6646,-2.951 -0.9724,-1.362 -1.72,-2.8752 -2.1687,-4.6912 -0.4487,-1.816 -0.6731,-3.859 -0.6731,-6.129 0,-2.1188 0.2261,-4.1618 0.7476,-5.9778 0.5986,-1.816 1.3462,-3.3292 2.3934,-4.6154 1.0469,-1.362 2.3182,-2.3458 3.8887,-3.1026 1.496,-0.681 3.2909,-1.0592 5.2352,-1.0592 1.3462,0 2.6174,0.1501 3.8141,0.454 1.1964,0.3038 2.3182,0.681 3.2905,1.2108 l -1.4956,3.1022 c -0.748,-0.3782 -1.5705,-0.7568 -2.4679,-1.0592 -0.8975,-0.3039 -1.9444,-0.454 -3.1411,-0.454 z"
       style="display:inline;fill:#000000;fill-opacity:1;fill-rule:nonzero;stroke:none" />
    <path
       inkscape:connector-curvature="0"
       id="path3463"
       d="m 1230.8808,1619.7444 c 0,1.816 -0.2261,3.405 -0.673,4.767 -0.3739,1.4375 -0.972,2.5725 -1.72,3.5563 -0.748,0.9838 -1.72,1.6648 -2.7672,2.1942 -1.1218,0.454 -2.3182,0.7568 -3.7393,0.7568 -1.2712,0 -2.393,-0.3039 -3.4403,-0.7568 -1.1218,-0.5294 -2.0192,-1.2104 -2.8418,-2.1942 -0.7479,-0.9838 -1.3461,-2.1188 -1.7948,-3.5563 -0.4488,-1.362 -0.6731,-2.951 -0.6731,-4.767 0,-1.816 0.2226,-3.405 0.5982,-4.767 0.4487,-1.362 1.0472,-2.5728 1.7948,-3.4808 0.748,-0.9834 1.7204,-1.7402 2.7673,-2.1942 1.1218,-0.5298 2.393,-0.7568 3.7392,-0.7568 1.2716,0 2.3934,0.2252 3.5152,0.7568 1.0469,0.454 1.9443,1.2108 2.7669,2.1942 0.748,0.908 1.3461,2.1188 1.7949,3.4808 0.4487,1.362 0.673,2.951 0.673,4.767 z m -14.1347,0 c 0,2.724 0.3742,4.767 1.1967,6.2045 0.8975,1.362 2.2437,2.043 4.1134,2.043 1.9444,0 3.2905,-0.681 4.1131,-2.043 0.8229,-1.4375 1.2716,-3.4805 1.2716,-6.2045 0,-2.724 -0.4487,-4.8428 -1.2716,-6.129 -0.8975,-1.4378 -2.2436,-2.1188 -4.1131,-2.1188 -1.8697,0 -3.2908,0.681 -4.1134,2.1188 -0.8225,1.2862 -1.1967,3.405 -1.1967,6.129 z"
       style="display:inline;fill:#000000;fill-opacity:1;fill-rule:nonzero;stroke:none" />
    <path
       inkscape:connector-curvature="0"
       id="path3465"
       d="m 1260.4219,1630.5647 0,-13.9225 c 0,-1.6648 -0.3004,-2.951 -0.8975,-3.859 -0.6731,-0.8326 -1.5705,-1.2866 -2.8421,-1.2866 -0.8975,0 -1.72,0.2252 -2.3182,0.5298 -0.5985,0.3039 -1.1218,0.7568 -1.5705,1.362 -0.3742,0.6052 -0.6731,1.2862 -0.8229,2.1942 -0.2226,0.908 -0.3003,1.8918 -0.3003,3.1023 l 0,11.8798 -3.3654,0 0,-13.9225 c 0,-1.6648 -0.3003,-2.951 -0.8975,-3.859 -0.5981,-0.8326 -1.5705,-1.2866 -2.8417,-1.2866 -0.9724,0 -1.7949,0.2252 -2.3931,0.5298 -0.6731,0.3782 -1.1967,0.8322 -1.5705,1.5132 -0.3742,0.681 -0.6731,1.5136 -0.8229,2.497 -0.1484,0.9838 -0.2261,2.043 -0.2261,3.3293 l 0,11.1988 -3.3654,0 0,-21.6405 2.7672,0 0.4487,2.951 0.1484,0 c 0.3003,-0.6056 0.6731,-1.0596 1.0469,-1.4378 0.4487,-0.454 0.8974,-0.8322 1.3462,-1.0592 0.5236,-0.3039 1.0472,-0.5298 1.5705,-0.6056 0.5236,-0.1501 1.1218,-0.2252 1.6454,-0.2252 1.4956,0 2.6923,0.3039 3.6647,0.908 0.972,0.5298 1.72,1.4378 2.1687,2.724 l 0.1484,0 c 0.3738,-0.681 0.748,-1.2104 1.1967,-1.6644 0.4487,-0.3786 0.8974,-0.7568 1.4207,-1.0596 0.5985,-0.3038 1.1218,-0.5294 1.7203,-0.681 0.5982,-0.1501 1.1964,-0.2252 1.7949,-0.2252 2.1687,0 3.7392,0.6056 4.861,1.8918 1.1218,1.2862 1.6455,3.2538 1.6455,6.0532 l 0,14.074 -3.3654,0 z"
       style="display:inline;fill:#000000;fill-opacity:1;fill-rule:nonzero;stroke:none" />
    <path
       inkscape:connector-curvature="0"
       id="path3467"
       d="m 1294.2254,1630.5647 0,-13.9225 c 0,-1.6648 -0.3004,-2.951 -0.8975,-3.859 -0.5982,-0.8326 -1.5705,-1.2866 -2.8418,-1.2866 -0.8974,0 -1.6454,0.2252 -2.3185,0.5298 -0.5981,0.3039 -1.1218,0.7568 -1.4956,1.362 -0.4487,0.6052 -0.6731,1.2862 -0.8974,2.1942 -0.1484,0.908 -0.3004,1.8918 -0.3004,3.1023 l 0,11.8798 -3.3654,0 0,-13.9225 c 0,-1.6648 -0.3003,-2.951 -0.8974,-3.859 -0.5982,-0.8326 -1.5705,-1.2866 -2.8418,-1.2866 -0.9723,0 -1.7203,0.2252 -2.3934,0.5298 -0.5982,0.3782 -1.1218,0.8322 -1.4956,1.5132 -0.4487,0.681 -0.6731,1.5136 -0.8975,2.497 -0.1483,0.9838 -0.2225,2.043 -0.2225,3.3293 l 0,11.1988 -3.3654,0 0,-21.6405 2.7672,0 0.4487,2.951 0.2226,0 c 0.3003,-0.6056 0.5982,-1.0596 1.0469,-1.4378 0.3738,-0.454 0.8225,-0.8322 1.3462,-1.0592 0.4487,-0.3039 0.9723,-0.5298 1.4956,-0.6056 0.5985,-0.1501 1.1218,-0.2252 1.7203,-0.2252 1.4207,0 2.6923,0.3039 3.6643,0.908 0.9724,0.5298 1.6454,1.4378 2.1691,2.724 l 0.1484,0 c 0.3003,-0.681 0.673,-1.2104 1.1218,-1.6644 0.4487,-0.3786 0.972,-0.7568 1.4956,-1.0596 0.5236,-0.3038 1.0469,-0.5294 1.6454,-0.681 0.5982,-0.1501 1.1964,-0.2252 1.7949,-0.2252 2.1687,0 3.8141,0.6056 4.861,1.8918 1.1218,1.2862 1.6454,3.2538 1.6454,6.0532 l 0,14.074 -3.3654,0 z"
       style="display:inline;fill:#000000;fill-opacity:1;fill-rule:nonzero;stroke:none" />
    <path
       inkscape:connector-curvature="0"
       id="path3469"
       d="m 1320.3261,1619.7444 c 0,1.816 -0.2262,3.405 -0.5986,4.767 -0.4487,1.4375 -0.972,2.5725 -1.7948,3.5563 -0.7477,0.9838 -1.6451,1.6648 -2.7669,2.1942 -1.1218,0.454 -2.3185,0.7568 -3.6647,0.7568 -1.2713,0 -2.468,-0.3039 -3.5149,-0.7568 -1.0472,-0.5294 -2.0192,-1.2104 -2.7672,-2.1942 -0.8225,-0.9838 -1.421,-2.1188 -1.8698,-3.5563 -0.3738,-1.362 -0.5981,-2.951 -0.5981,-4.767 0,-1.816 0.1483,-3.405 0.5981,-4.767 0.3742,-1.362 0.9724,-2.5728 1.7204,-3.4808 0.8225,-0.9834 1.7199,-1.7402 2.8417,-2.1942 1.0469,-0.5298 2.3185,-0.7568 3.6647,-0.7568 1.2713,0 2.468,0.2252 3.5149,0.7568 1.0469,0.454 2.0192,1.2108 2.7672,2.1942 0.7476,0.908 1.4207,2.1188 1.7949,3.4808 0.4487,1.362 0.6731,2.951 0.6731,4.767 z m -14.1347,0 c 0,2.724 0.4487,4.767 1.2712,6.2045 0.8226,1.362 2.1687,2.043 4.1134,2.043 1.8694,0 3.2156,-0.681 4.0385,-2.043 0.8225,-1.4375 1.2713,-3.4805 1.2713,-6.2045 0,-2.724 -0.4488,-4.8428 -1.2713,-6.129 -0.8229,-1.4378 -2.1691,-2.1188 -4.1134,-2.1188 -1.8698,0 -3.2159,0.681 -4.0385,2.1188 -0.8225,1.2862 -1.2712,3.405 -1.2712,6.129 z"
       style="display:inline;fill:#000000;fill-opacity:1;fill-rule:nonzero;stroke:none" />
    <path
       inkscape:connector-curvature="0"
       id="path3471"
       d="m 1338.2738,1630.5647 0,-13.9225 c 0,-1.6648 -0.3003,-2.951 -0.9723,-3.859 -0.5982,-0.8326 -1.6451,-1.2866 -2.9913,-1.2866 -0.9723,0 -1.7948,0.2252 -2.5428,0.5298 -0.6731,0.3782 -1.1967,0.8322 -1.5705,1.5132 -0.4488,0.681 -0.748,1.5136 -0.8975,2.497 -0.2261,0.9838 -0.3003,2.043 -0.3003,3.3293 l 0,11.1988 -3.3654,0 0,-21.6405 2.7672,0 0.4487,2.951 0.2226,0 c 0.3004,-0.6056 0.6731,-1.0596 1.0469,-1.4378 0.4487,-0.454 0.8975,-0.8322 1.4211,-1.0592 0.5233,-0.3039 1.0469,-0.5298 1.5705,-0.6056 0.5982,-0.1501 1.1964,-0.2252 1.7949,-0.2252 2.2436,0 3.8887,0.6056 5.0105,1.8918 1.1967,1.2862 1.7203,3.2538 1.7203,6.0532 l 0,14.0741 -3.3654,0 z"
       style="display:inline;fill:#000000;fill-opacity:1;fill-rule:nonzero;stroke:none" />
    <path
       inkscape:connector-curvature="0"
       id="path3473"
       d="m 1360.0368,1624.6627 c 0,1.0592 -0.1484,1.9672 -0.5236,2.724 -0.3739,0.8322 -0.8975,1.5132 -1.5706,2.043 -0.673,0.5298 -1.4956,0.908 -2.393,1.135 -0.9724,0.3038 -2.0193,0.454 -3.216,0.454 -1.3461,0 -2.4679,-0.1502 -3.4399,-0.3782 -0.9724,-0.2253 -1.7949,-0.6056 -2.5429,-0.9838 l 0,-3.3293 c 0.3738,0.2253 0.8225,0.454 1.2713,0.681 0.5236,0.1502 0.9723,0.3783 1.4959,0.5295 0.5233,0.1501 1.0469,0.3038 1.5706,0.3785 0.5981,0.075 1.1218,0.1502 1.645,0.1502 0.8229,0 1.496,-0.075 2.0193,-0.2252 0.5985,-0.1502 1.0472,-0.3782 1.421,-0.6052 0.3004,-0.3039 0.5982,-0.6056 0.748,-0.9838 0.1484,-0.3782 0.2226,-0.8322 0.2226,-1.2862 0,-0.454 -0.074,-0.8326 -0.1484,-1.135 -0.1484,-0.3039 -0.3741,-0.681 -0.6731,-0.9838 -0.3741,-0.3039 -0.8229,-0.6052 -1.3461,-0.9838 -0.5986,-0.3039 -1.2716,-0.681 -2.1691,-1.0592 -0.8974,-0.454 -1.72,-0.8322 -2.393,-1.2108 -0.748,-0.3782 -1.3462,-0.8322 -1.7949,-1.3617 -0.5236,-0.454 -0.8975,-1.0595 -1.1967,-1.6648 -0.2262,-0.6052 -0.3738,-1.362 -0.3738,-2.27 0,-0.908 0.2261,-1.7402 0.5236,-2.4212 0.3738,-0.7568 0.8225,-1.362 1.4207,-1.816 0.5985,-0.5298 1.3462,-0.908 2.2436,-1.135 0.8229,-0.2252 1.7949,-0.3786 2.8421,-0.3786 1.1964,0 2.3182,0.1502 3.2905,0.454 0.9724,0.2253 1.9444,0.6056 2.7673,1.0596 l -1.1218,2.8752 c -0.8229,-0.3782 -1.6455,-0.681 -2.468,-0.9837 -0.8229,-0.3039 -1.7203,-0.454 -2.5429,-0.454 -1.2712,0 -2.1687,0.2252 -2.7672,0.681 -0.6731,0.454 -0.972,1.0595 -0.972,1.8917 0,0.454 0.074,0.8323 0.2226,1.2108 0.1484,0.3039 0.3738,0.681 0.7476,0.9835 0.3742,0.3038 0.8229,0.6055 1.3462,0.908 0.5985,0.3038 1.3462,0.6055 2.169,1.0595 0.8975,0.3782 1.72,0.7565 2.3931,1.1347 0.6731,0.3786 1.2713,0.8326 1.7949,1.362 0.4487,0.454 0.8225,1.0596 1.1218,1.6648 0.2261,0.6052 0.3738,1.362 0.3738,2.27 z"
       style="display:inline;fill:#000000;fill-opacity:1;fill-rule:nonzero;stroke:none" />
    <path
       inkscape:connector-curvature="0"
       id="path3475"
       d="m 1390.9985,1630.5647 -2.9916,-8.9288 -10.0213,0 -2.9916,8.9288 -3.4399,0 9.8718,-28.9045 3.1411,0 9.9464,28.9045 -3.5149,0 z m -4.0385,-12.1823 -2.7672,-8.3232 c -0.074,-0.2252 -0.1484,-0.5298 -0.2261,-0.908 -0.1484,-0.3039 -0.2262,-0.681 -0.3004,-1.0596 -0.1484,-0.3782 -0.2261,-0.8322 -0.3738,-1.2104 -0.074,-0.454 -0.2226,-0.908 -0.3003,-1.2866 -0.074,0.3786 -0.2226,0.8326 -0.3003,1.2866 -0.1484,0.3782 -0.2262,0.8322 -0.3003,1.2104 -0.1484,0.454 -0.2262,0.7568 -0.3739,1.135 -0.074,0.3039 -0.1484,0.6056 -0.2226,0.8326 l -2.6923,8.3232 7.8526,0 z"
       style="display:inline;fill:#000000;fill-opacity:1;fill-rule:nonzero;stroke:none" />
    <path
       inkscape:connector-curvature="0"
       id="path3477"
       d="m 1403.787,1628.0677 c 0.2262,0 0.4488,0 0.748,-0.075 0.3004,0 0.5233,-0.075 0.8226,-0.075 0.2261,-0.075 0.4487,-0.075 0.6731,-0.1501 0.2225,-0.075 0.3738,-0.075 0.5236,-0.1502 l 0,2.724 c -0.1484,0.075 -0.3742,0.1502 -0.5986,0.2253 -0.3003,0.075 -0.5232,0.1501 -0.8225,0.2252 -0.3003,0.075 -0.5982,0.075 -0.9723,0.1501 -0.3004,0 -0.5982,0.075 -0.8975,0.075 -0.7476,0 -1.4956,-0.1502 -2.0938,-0.3782 -0.6731,-0.1502 -1.2716,-0.5298 -1.7203,-1.0596 -0.4487,-0.5294 -0.8225,-1.2104 -1.1218,-2.043 -0.2226,-0.908 -0.3738,-2.043 -0.3738,-3.3292 l 0,-12.5605 -2.8418,0 0,-1.589 2.8418,-1.5136 1.421,-4.54 1.9444,0 0,4.9186 5.0854,0 0,2.724 -5.0854,0 0,12.5605 c 0,1.2862 0.1484,2.1942 0.5236,2.8752 0.4487,0.6056 1.0469,0.9838 1.9443,0.9838 z"
       style="display:inline;fill:#000000;fill-opacity:1;fill-rule:nonzero;stroke:none" />
    <path
       inkscape:connector-curvature="0"
       id="path3479"
       d="m 1416.6505,1628.0677 c 0.2261,0 0.4487,0 0.6731,-0.075 0.3003,0 0.5981,-0.075 0.8225,-0.075 0.3003,-0.075 0.5236,-0.075 0.748,-0.1501 0.2261,-0.075 0.3738,-0.075 0.4487,-0.1502 l 0,2.724 c -0.1484,0.075 -0.3742,0.1502 -0.5985,0.2253 -0.2261,0.075 -0.5233,0.1501 -0.8226,0.2252 -0.3003,0.075 -0.5981,0.075 -0.8974,0.1501 -0.3003,0 -0.5982,0.075 -0.9723,0.075 -0.7477,0 -1.4208,-0.1502 -2.0938,-0.3782 -0.6731,-0.1502 -1.1967,-0.5298 -1.7204,-1.0596 -0.4487,-0.5294 -0.8225,-1.2104 -1.0469,-2.043 -0.3003,-0.908 -0.4487,-2.043 -0.4487,-3.3292 l 0,-12.5605 -2.8418,0 0,-1.589 2.8418,-1.5136 1.4211,-4.54 1.9443,0 0,4.9186 5.0854,0 0,2.724 -5.0854,0 0,12.5605 c 0,1.2862 0.2226,2.1942 0.5982,2.8752 0.3742,0.6056 1.0473,0.9838 1.9447,0.9838 z"
       style="display:inline;fill:#000000;fill-opacity:1;fill-rule:nonzero;stroke:none" />
    <path
       inkscape:connector-curvature="0"
       id="path3481"
       d="m 1432.0564,1608.5456 c 0.3739,0 0.748,0 1.1968,0.075 0.4487,0 0.8225,0.075 1.1963,0.1501 l -0.4487,3.3296 c -0.3738,-0.075 -0.7476,-0.1501 -1.1218,-0.2288 -0.3003,0 -0.6731,-0.075 -0.972,-0.075 -0.8229,0 -1.496,0.2252 -2.1691,0.5297 -0.5981,0.3039 -1.1218,0.8323 -1.645,1.4375 -0.4488,0.6056 -0.8229,1.362 -1.0473,2.27 -0.2261,0.8326 -0.3738,1.816 -0.3738,2.8752 l 0,11.6528 -3.3654,0 0,-21.6405 2.7672,0 0.3738,4.0103 0.1484,0 c 0.3004,-0.6053 0.6731,-1.135 0.9724,-1.6648 0.3738,-0.5295 0.7476,-0.9835 1.1963,-1.362 0.4488,-0.454 0.8975,-0.7565 1.496,-0.9835 0.5233,-0.2252 1.1218,-0.3785 1.7949,-0.3785 z"
       style="display:inline;fill:#000000;fill-opacity:1;fill-rule:nonzero;stroke:none" />
    <path
       inkscape:connector-curvature="0"
       id="path3483"
       d="m 1441.3301,1630.5647 -3.3654,0 0,-21.6405 3.3654,0 0,21.6405 z m -3.5897,-27.4671 c 0,-0.7564 0.1484,-1.362 0.5232,-1.7402 0.3742,-0.3039 0.8975,-0.5298 1.4211,-0.5298 0.3003,0 0.5236,0.075 0.748,0.1502 0.2261,0.075 0.4487,0.2287 0.5982,0.3782 0.2226,0.2252 0.3738,0.454 0.4487,0.7568 0.1484,0.2252 0.1484,0.6052 0.1484,0.9834 0,0.7568 -0.1484,1.362 -0.5982,1.7406 -0.3742,0.3782 -0.8229,0.5294 -1.3462,0.5294 -0.5236,0 -1.0472,-0.1501 -1.421,-0.5294 -0.3738,-0.3786 -0.5237,-0.9838 -0.5237,-1.7406 z"
       style="display:inline;fill:#000000;fill-opacity:1;fill-rule:nonzero;stroke:none" />
    <path
       inkscape:connector-curvature="0"
       id="path3485"
       d="m 1456.9604,1608.5456 c 1.1218,0 2.168,0.2252 3.14,0.7568 0.8975,0.454 1.7204,1.135 2.3934,2.1188 0.6731,0.908 1.1964,2.043 1.5706,3.4804 0.3738,1.362 0.5232,3.0268 0.5232,4.8428 0,1.816 -0.1484,3.4805 -0.5232,4.8425 -0.3742,1.4378 -0.8975,2.5728 -1.5706,3.5565 -0.673,0.9081 -1.4959,1.6645 -2.3934,2.1185 -0.972,0.454 -2.0182,0.7568 -3.14,0.7568 -0.7479,0 -1.421,-0.1502 -2.0192,-0.3039 -0.5982,-0.1501 -1.1218,-0.3782 -1.5705,-0.681 -0.4487,-0.3039 -0.8975,-0.6052 -1.2713,-0.9834 -0.3741,-0.3786 -0.6731,-0.7568 -0.9723,-1.2108 l -0.2261,0 -0.6731,2.724 -2.468,0 0,-30.6451 3.3654,0 0,7.4156 c 0,0.454 0,0.9835 0,1.5132 0,0.454 0,0.9838 -0.074,1.4378 0,0.454 0,0.9835 -0.074,1.5133 l 0.1484,0 c 0.3003,-0.4541 0.5982,-0.9081 0.9724,-1.2863 0.3738,-0.3785 0.7476,-0.7568 1.2712,-1.0595 0.4487,-0.2288 0.9724,-0.454 1.5705,-0.6053 0.5982,-0.2252 1.2713,-0.3038 2.0193,-0.3038 z m -0.673,2.951 c -0.9724,0 -1.7949,0.2252 -2.468,0.5298 -0.6731,0.3782 -1.1967,0.8322 -1.5705,1.5132 -0.3738,0.681 -0.6731,1.589 -0.8975,2.5728 -0.1484,1.0592 -0.2226,2.27 -0.2226,3.632 0,1.2863 0.074,2.497 0.2226,3.5563 0.2262,0.9837 0.5237,1.8917 0.8975,2.5727 0.3738,0.681 0.8974,1.2105 1.5705,1.589 0.6731,0.3783 1.4956,0.5295 2.468,0.5295 1.7199,0 2.9156,-0.681 3.6636,-2.1185 0.8225,-1.4377 1.1967,-3.4807 1.1967,-6.2048 0,-2.724 -0.3742,-4.767 -1.1967,-6.129 -0.748,-1.362 -1.9437,-2.043 -3.6636,-2.043 z"
       style="display:inline;fill:#000000;fill-opacity:1;fill-rule:nonzero;stroke:none" />
    <path
       inkscape:connector-curvature="0"
       id="path3487"
       d="m 1482.9852,1630.5647 -0.4487,-2.8753 -0.2226,0 c -0.3004,0.6053 -0.6731,1.0593 -1.1218,1.5133 -0.3738,0.3782 -0.8226,0.681 -1.3462,0.9838 -0.5233,0.3038 -1.0469,0.454 -1.6451,0.6052 -0.5236,0.1501 -1.1218,0.2252 -1.7203,0.2252 -1.1218,0 -2.0938,-0.1502 -2.9167,-0.454 -0.8225,-0.3039 -1.5705,-0.8322 -2.0938,-1.4378 -0.5985,-0.681 -1.0472,-1.5132 -1.3461,-2.497 -0.3004,-0.9834 -0.3742,-2.1942 -0.3742,-3.5562 l 0,-14.1495 3.2908,0 0,13.9983 c 0,1.6644 0.3739,2.951 1.0469,3.7832 0.5982,0.908 1.6455,1.2862 2.9916,1.2862 0.972,0 1.7949,-0.1502 2.468,-0.5294 0.6731,-0.3039 1.2713,-0.8326 1.6451,-1.4378 0.4487,-0.681 0.748,-1.5132 0.8974,-2.497 0.1484,-0.9838 0.3003,-2.1188 0.3003,-3.3293 l 0,-11.2742 3.2905,0 0,21.6405 -2.6923,0 z"
       style="display:inline;fill:#000000;fill-opacity:1;fill-rule:nonzero;stroke:none" />
    <path
       inkscape:connector-curvature="0"
       id="path3489"
       d="m 1498.2417,1628.0677 c 0.2261,0 0.5236,0 0.748,-0.075 0.3003,0 0.5982,-0.075 0.8225,-0.075 0.3003,-0.075 0.5236,-0.075 0.748,-0.1501 0.2261,-0.075 0.3738,-0.075 0.4487,-0.1502 l 0,2.724 c -0.1484,0.075 -0.3738,0.1502 -0.5982,0.2253 -0.2226,0.075 -0.5236,0.1501 -0.8228,0.2252 -0.3004,0.075 -0.5982,0.075 -0.8975,0.1501 -0.3003,0 -0.6731,0.075 -0.972,0.075 -0.748,0 -1.4211,-0.1502 -2.0941,-0.3782 -0.6731,-0.1502 -1.1967,-0.5298 -1.72,-1.0596 -0.4487,-0.5294 -0.8229,-1.2104 -1.0473,-2.043 -0.3003,-0.908 -0.4487,-2.043 -0.4487,-3.3292 l 0,-12.5605 -2.8418,0 0,-1.589 2.8418,-1.5136 1.4211,-4.54 1.9443,0 0,4.9186 5.0858,0 0,2.724 -5.0858,0 0,12.5605 c 0,1.2862 0.2262,2.1942 0.5986,2.8752 0.3738,0.6056 1.0469,0.9838 1.8694,0.9838 z"
       style="display:inline;fill:#000000;fill-opacity:1;fill-rule:nonzero;stroke:none" />
    <path
       inkscape:connector-curvature="0"
       id="path3491"
       d="m 1508.3379,1630.5647 -3.3654,0 0,-21.6405 3.3654,0 0,21.6405 z m -3.5898,-27.4671 c 0,-0.7564 0.1484,-1.362 0.5237,-1.7402 0.3738,-0.3039 0.8225,-0.5298 1.421,-0.5298 0.2226,0 0.5233,0.075 0.7477,0.1502 0.2226,0.075 0.4487,0.2287 0.5985,0.3782 0.2261,0.2252 0.3738,0.454 0.4487,0.7568 0.074,0.2252 0.1484,0.6052 0.1484,0.9834 0,0.7568 -0.1484,1.362 -0.5985,1.7406 -0.3738,0.3782 -0.8226,0.5294 -1.3462,0.5294 -0.5982,0 -1.0469,-0.1501 -1.4207,-0.5294 -0.3742,-0.3786 -0.5236,-0.9838 -0.5236,-1.7406 z"
       style="display:inline;fill:#000000;fill-opacity:1;fill-rule:nonzero;stroke:none" />
    <path
       inkscape:connector-curvature="0"
       id="path3493"
       d="m 1531.2976,1619.7444 c 0,1.816 -0.2262,3.405 -0.6731,4.767 -0.3738,1.4375 -0.9724,2.5725 -1.72,3.5563 -0.748,0.9838 -1.7203,1.6648 -2.7672,2.1942 -1.1218,0.454 -2.3931,0.7568 -3.7392,0.7568 -1.2717,0 -2.3935,-0.3039 -3.5153,-0.7568 -1.0469,-0.5294 -1.9443,-1.2104 -2.7668,-2.1942 -0.748,-0.9838 -1.3462,-2.1188 -1.7949,-3.5563 -0.4487,-1.362 -0.6731,-2.951 -0.6731,-4.767 0,-1.816 0.2261,-3.405 0.5982,-4.767 0.4487,-1.362 1.0469,-2.5728 1.7949,-3.4808 0.7479,-0.9834 1.7199,-1.7402 2.7672,-2.1942 1.1218,-0.5298 2.3181,-0.7568 3.7392,-0.7568 1.2713,0 2.3931,0.2252 3.5149,0.7568 1.0472,0.454 1.9447,1.2108 2.6923,2.1942 0.8229,0.908 1.4211,2.1188 1.8698,3.4808 0.4487,1.362 0.6731,2.951 0.6731,4.767 z m -14.1347,0 c 0,2.724 0.3738,4.767 1.1967,6.2045 0.8974,1.362 2.2436,2.043 4.113,2.043 1.9447,0 3.2909,-0.681 4.1134,-2.043 0.8225,-1.4375 1.1967,-3.4805 1.1967,-6.2045 0,-2.724 -0.3742,-4.8428 -1.2716,-6.129 -0.8225,-1.4378 -2.1687,-2.1188 -4.0385,-2.1188 -1.9443,0 -3.2905,0.681 -4.113,2.1188 -0.8229,1.2862 -1.1967,3.405 -1.1967,6.129 z"
       style="display:inline;fill:#000000;fill-opacity:1;fill-rule:nonzero;stroke:none" />
    <path
       inkscape:connector-curvature="0"
       id="path3495"
       d="m 1549.2464,1630.5647 0,-13.9225 c 0,-1.6648 -0.3003,-2.951 -0.9724,-3.859 -0.673,-0.8326 -1.645,-1.2866 -2.9912,-1.2866 -1.0472,0 -1.8698,0.2252 -2.5429,0.5298 -0.673,0.3782 -1.1967,0.8322 -1.6454,1.5132 -0.3738,0.681 -0.6731,1.5136 -0.8974,2.497 -0.1484,0.9838 -0.2226,2.043 -0.2226,3.3293 l 0,11.1988 -3.3654,0 0,-21.6405 2.6923,0 0.5236,2.951 0.1484,0 c 0.3003,-0.6056 0.6731,-1.0596 1.1218,-1.4378 0.4487,-0.454 0.8975,-0.8322 1.4211,-1.0592 0.4487,-0.3039 0.972,-0.5298 1.5705,-0.6056 0.5982,-0.1501 1.1218,-0.2252 1.72,-0.2252 2.2436,0 3.9636,0.6056 5.0854,1.8918 1.1218,1.2862 1.7203,3.2538 1.7203,6.0532 l 0,14.0741 -3.3654,0 z"
       style="display:inline;fill:#000000;fill-opacity:1;fill-rule:nonzero;stroke:none" />
    <path
       inkscape:connector-curvature="0"
       id="path3497"
       d="m 919.24728,1671.5756 c 2.1687,1.2866 4.1879,2.7998 5.9079,4.6158 l -2.0193,2.6482 c -1.8694,-1.9672 -3.8141,-3.7078 -5.7584,-5.221 l 1.8698,-2.043 z m -11.7417,1.135 2.468,1.589 c -1.4207,3.7832 -2.9912,6.6588 -4.5618,8.7772 l -2.4679,-2.3454 c 1.8694,-2.497 3.3654,-5.221 4.5617,-8.0208 z m 4.5621,0.1501 2.9167,0 0,6.4315 c 0,0.7568 0.2226,1.2108 0.5233,1.4378 0.3742,0.2252 1.3462,0.3038 2.9167,0.3038 1.8698,0 3.6646,-0.075 5.5344,-0.1501 1.72,-0.075 2.6924,-0.3782 2.9164,-0.8322 0.2261,-0.5298 0.4487,-1.5136 0.673,-3.1026 l 2.9167,1.2866 c -0.5981,2.951 -1.3461,4.6154 -2.3181,4.994 -1.4211,0.454 -4.6367,0.681 -9.7224,0.681 l -1.3462,0 c -2.0938,0 -3.4399,-0.3039 -4.0381,-0.8326 -0.6731,-0.5294 -0.9724,-1.362 -0.9724,-2.497 l 0,-7.7177 z m 20.3419,0 c 2.0193,2.4967 3.7392,5.2965 5.1603,8.3233 l -2.9916,1.589 c -1.1218,-2.951 -2.7672,-5.7508 -4.861,-8.4748 l 2.6923,-1.4375 z m -12.1154,-24.8942 2.6923,0.7564 c -0.4487,1.2866 -0.8975,2.4216 -1.4956,3.4808 l 14.583,0 0,2.6482 -2.7668,4.767 -3.2909,0 2.8421,-4.767 -12.7136,0 c 0,0.1502 -0.3003,0.681 -0.9723,1.7406 -0.5982,1.0592 -1.6455,2.3454 -3.1411,3.7832 l -2.4679,-2.043 c 3.141,-3.0268 5.3846,-6.5072 6.7308,-10.3662 z m -8.9745,0.1501 2.7673,1.0592 c -0.748,1.8918 -1.5705,3.632 -2.468,5.221 l 0,16.5711 -2.8418,0 0,-12.031 c -0.8229,1.4377 -1.8698,2.724 -3.0665,4.0102 l -2.4679,-1.7402 c 3.5152,-3.9345 6.2075,-8.2475 8.0769,-13.0903 z m 12.7886,8.626 2.8418,0 0,9.7611 c 0,1.5132 -0.2226,2.497 -0.5982,3.1022 -0.3738,0.6052 -1.3462,0.908 -2.7672,0.908 -0.8226,0 -1.5706,-0.1502 -2.2436,-0.3782 l -0.5982,-3.1026 c 0.9723,0.3038 1.9443,0.454 2.8418,0.454 0.3741,0 0.5236,-0.454 0.5236,-1.4374 l 0,-9.3071 z m -5.3098,3.632 2.3931,1.4375 c -1.6454,3.0268 -3.3654,5.448 -5.1603,7.264 l -2.2436,-2.1942 c 2.0942,-2.043 3.7392,-4.1618 5.0108,-6.5073 z m 11.9657,0.454 c 2.2436,1.7403 4.3377,3.632 6.2072,5.9021 l -1.9444,2.497 c -1.8697,-2.497 -3.889,-4.6158 -6.0577,-6.2806 l 1.7949,-2.1185 z"
       style="display:inline;fill:#000000;fill-opacity:1;fill-rule:nonzero;stroke:none" />
    <path
       inkscape:connector-curvature="0"
       id="path3499"
       d="m 941.98218,1652.6591 11.2177,0 c 0.6731,-1.4378 1.2712,-2.951 1.8698,-4.3888 l 2.84166,0.6056 c -0.3738,1.2862 -0.8225,2.497 -1.3461,3.7832 l 17.7244,0 0,3.0268 -19.21996,0 c -0.748,1.589 -1.7204,3.1022 -2.7669,4.6912 l 18.99536,0 0,20.2027 c 0,1.2866 -0.3004,2.1946 -1.0469,2.8756 -0.6731,0.7564 -1.72,1.0592 -3.0662,1.0592 -1.496,0 -3.2159,-0.075 -5.3101,-0.3038 l -0.7476,-3.1781 c 2.6923,0.2253 4.6367,0.3039 5.9079,0.3039 0.8975,0 1.3462,-0.5298 1.3462,-1.5132 l 0,-3.3296 -16.52736,0 0,8.3236 -2.9167,0 0,-19.6732 c -1.7204,1.8914 -3.4403,3.632 -5.3101,5.1452 l -2.2436,-2.1942 c 4.3377,-3.7836 7.778,-7.9451 10.3206,-12.4093 l -9.7221,0 0,-3.0268 z m 9.8719,14.5281 16.52736,0 0,-3.7836 -16.52736,0 0,3.7836 z m 0,6.4314 16.52736,0 0,-3.632 -16.52736,0 0,3.632 z"
       style="display:inline;fill:#000000;fill-opacity:1;fill-rule:nonzero;stroke:none" />
    <path
       inkscape:connector-curvature="0"
       id="path3501"
       d="m 979.30054,1655.6859 5.4592,0 0,-7.264 2.9167,0 0,7.264 5.1602,0 0,2.951 -5.1602,0 0,1.5887 c 2.169,2.497 4.0384,4.994 5.609,7.4156 l -1.9444,3.0264 c -1.2712,-2.3454 -2.4679,-4.3884 -3.6646,-6.2044 l 0,20.2026 -2.9167,0 0,-17.7814 c -1.1964,3.5562 -2.8418,6.6584 -4.936,9.307 l -2.0192,-2.27 c 3.216,-4.313 5.4596,-9.3828 6.6563,-15.2845 l -5.1603,0 0,-2.951 z m 13.8354,-5.0698 17.05136,0 c -0.5236,8.172 -2.5429,15.2845 -5.9828,21.2623 2.1687,3.9344 5.0854,7.1882 8.8246,9.988 l -1.6451,3.1022 c -3.5152,-2.497 -6.5813,-5.902 -9.1242,-10.0638 -2.91666,4.0106 -6.65586,7.264 -11.21796,9.761 l -1.5706,-2.6482 c 4.7116,-2.4212 8.4512,-5.7508 11.14346,-9.988 -2.91666,-5.8262 -4.93586,-11.9552 -5.98316,-18.2355 l -1.4956,0 0,-3.178 z m 4.5621,3.178 c 0.8975,5.221 2.46796,10.2905 4.86096,15.1333 2.468,-4.8428 3.9636,-9.9123 4.5622,-15.1333 l -9.42316,0 z"
       style="display:inline;fill:#000000;fill-opacity:1;fill-rule:nonzero;stroke:none" />
    <path
       inkscape:connector-curvature="0"
       id="path3503"
       d="m 1035.0164,1648.2703 2.7672,0.908 -1.0469,2.5728 11.0682,0 0,2.7998 c -1.4956,2.497 -3.2156,4.6155 -5.3097,6.1287 1.2712,0.7568 2.468,1.2865 3.4403,1.589 1.0469,0.3038 2.6174,0.681 4.7116,1.135 l -1.3462,2.7998 c -3.5152,-0.8322 -6.6563,-2.043 -9.2737,-3.632 -2.4679,1.5132 -5.609,2.724 -9.498,3.7832 l -0.8226,-2.7995 c 2.9167,-0.7567 5.5342,-1.6647 7.7778,-2.8755 -1.1964,-0.681 -2.468,-1.9672 -3.8142,-3.7832 -0.5981,0.8325 -1.1963,1.6647 -1.7949,2.4212 l -2.4679,-2.0427 c 2.5429,-2.7998 4.4126,-5.7508 5.609,-9.0046 z m 4.8614,10.8961 c 1.8694,-1.4375 3.2905,-2.951 4.4123,-4.6155 l -8.9744,0 c -0.1484,0 -0.1484,0.075 -0.1484,0.1502 1.5705,1.8918 3.141,3.405 4.7115,4.4642 z m 2.6174,5.675 1.7949,2.1942 c -3.1411,2.1188 -7.1047,3.7078 -11.966,4.8428 l -1.6451,-2.7998 c 5.1603,-1.135 9.049,-2.5724 11.8162,-4.2372 z m 3.141,4.8428 1.72,2.1942 c -4.113,2.951 -9.1988,5.1452 -15.331,6.6584 l -1.7204,-2.8752 c 6.6563,-1.6648 11.7417,-3.632 15.3314,-5.9774 z m 2.7673,4.6154 1.7948,2.1942 c -4.5621,4.1618 -10.9936,6.8858 -19.3699,8.172 l -1.5705,-2.6482 c 8.7501,-1.5132 15.1071,-4.086 19.1456,-7.718 z m -25.2033,-26.1805 2.6174,0.7568 c -0.6731,2.951 -1.4956,5.7504 -2.4679,8.5502 l 0,27.2397 -2.8418,0 0,-20.8082 c -0.748,1.589 -1.5705,3.0268 -2.468,4.2376 l -1.4956,-2.951 c 3.141,-5.5238 5.3846,-11.1989 6.6559,-17.0251 z m 2.6174,5.5238 2.8422,0 0,24.8939 -2.8422,0 0,-24.8939 z"
       style="display:inline;fill:#000000;fill-opacity:1;fill-rule:nonzero;stroke:none" />
    <path
       inkscape:connector-curvature="0"
       id="path3505"
       d="m 1055.0583,1650.6161 12.4893,0 0,15.4361 -8.8246,0 0,14.0736 c 3.141,-1.2104 5.9079,-2.3454 8.3759,-3.4804 l 0.4487,2.951 c -2.9167,1.589 -6.4316,3.0264 -10.4701,4.313 l -1.421,-1.589 0,-19.2193 8.8249,0 0,-9.4582 -9.4231,0 0,-3.0268 z m 18.6968,-2.1942 2.9167,0.908 c -0.3003,1.8914 -0.6731,3.7832 -1.1218,5.675 l 12.4893,0 0,3.0265 -2.3185,0 c -0.7477,7.037 -2.3182,12.712 -4.7116,17.025 2.0192,2.497 4.5621,4.767 7.4788,6.81 l -2.1687,2.951 c -2.6923,-1.9676 -5.0108,-4.313 -7.105,-7.1128 -2.1687,2.8752 -4.861,5.221 -8.077,7.1128 l -2.0937,-2.6486 c 3.3654,-1.8914 6.0577,-4.313 8.0769,-7.264 -1.7203,-2.6482 -3.3654,-5.7504 -4.8614,-9.3066 -0.4487,1.135 -0.9719,2.1942 -1.4207,3.178 l -2.3934,-1.8918 c 2.3934,-5.1453 4.1134,-11.35 5.3101,-18.4625 z m 0,12.9387 c 1.4956,4.313 3.2156,7.945 5.1603,10.8206 1.8694,-3.7836 3.0661,-8.4748 3.6643,-14.1498 l -7.7777,0 -1.0469,3.3292 z"
       style="display:inline;fill:#000000;fill-opacity:1;fill-rule:nonzero;stroke:none" />
    <path
       inkscape:connector-curvature="0"
       id="path3507"
       d="m 1102.3234,1680.2774 -3.8141,5.675 -2.1687,0 2.468,-5.675 -2.1687,0 0,-5.221 5.6835,0 0,5.221 z"
       style="display:inline;fill:#000000;fill-opacity:1;fill-rule:nonzero;stroke:none" />
    <path
       inkscape:connector-curvature="0"
       id="path3509"
       d="m 1152.2063,1648.5731 c 3.5898,6.0532 7.4788,10.7445 11.5919,13.847 l -1.8695,3.4805 c -4.1883,-3.3292 -8.1518,-8.3232 -11.966,-14.8305 l 2.2436,-2.497 z m -10.7693,0.1502 2.1687,1.8918 c -3.2156,6.2048 -7.1046,11.4254 -11.5918,15.5872 l -2.0941,-2.951 c 4.1882,-3.4808 8.0769,-8.3232 11.5172,-14.528 z m -5.609,15.2848 21.763,0 c 0,9.7606 -0.3003,15.5872 -0.9724,17.4786 -0.673,1.8918 -2.1687,2.8756 -4.2628,2.8756 -1.1964,0 -2.6174,-0.075 -4.188,-0.3038 l -0.5981,-3.3293 c 1.7199,0.2253 3.141,0.3039 4.3374,0.3039 0.748,0 1.3461,-0.5294 1.6454,-1.589 0.3738,-1.0592 0.6731,-5.1452 0.8225,-12.4092 l -9.1238,0 c -0.3004,4.3888 -1.3462,7.945 -3.0662,10.5178 -1.7949,2.6482 -4.7865,4.994 -9.0493,7.1124 l -2.3185,-2.6482 c 3.889,-1.8918 6.6563,-3.9348 8.2268,-6.2048 1.5705,-2.1942 2.6174,-5.1452 3.141,-8.7772 l -6.357,0 0,-3.0265 z"
       style="display:inline;fill:#000000;fill-opacity:1;fill-rule:nonzero;stroke:none" />
    <path
       inkscape:connector-curvature="0"
       id="path3511"
       d="m 1185.0378,1648.2703 c 0.8226,0.908 1.4208,1.8918 1.7949,2.951 l 14.4329,0 0,2.724 -33.5784,0 0,-2.724 15.5558,0 c -0.2262,-0.681 -0.6731,-1.362 -1.1218,-2.043 l 2.9166,-0.908 z m -12.3398,7.8696 24.7535,0 0,8.3233 -24.7535,0 0,-8.3233 z m 2.9167,5.3722 18.8452,0 0,-2.5727 -18.8452,0 0,2.5727 z m -4.2628,4.8425 26.0996,0 0,3.4808 c -3.2908,1.2862 -6.8806,2.497 -10.918,3.632 l 0,1.135 14.2834,0 0,2.951 -14.2834,0 0,4.313 c 0,0.908 -0.3739,1.6644 -1.0469,2.1942 -0.6731,0.5298 -1.6455,0.7568 -2.9167,0.7568 -1.2716,0 -2.6178,-0.1501 -3.8891,-0.454 l -0.4487,-3.0268 c 1.0469,0.3782 2.1687,0.5298 3.5898,0.5298 1.1967,0 1.72,-0.2252 1.72,-0.681 l 0,-3.632 -15.6303,0 0,-2.951 15.6303,0 0,-2.724 c 2.7672,-0.8322 5.3101,-1.6648 7.5526,-2.497 l -19.7426,0 0,-3.0268 z"
       style="display:inline;fill:#000000;fill-opacity:1;fill-rule:nonzero;stroke:none" />
    <path
       inkscape:connector-curvature="0"
       id="path3513"
       d="m 1215.5498,1680.2774 -3.8141,5.675 -2.2436,0 2.5425,-5.675 -2.2436,0 0,-5.221 5.7588,0 0,5.221 z"
       style="display:inline;fill:#000000;fill-opacity:1;fill-rule:nonzero;stroke:none" />
    <path
       inkscape:connector-curvature="0"
       id="path3515"
       d="m 1257.5797,1661.2094 c -0.5233,1.5132 -0.972,3.0268 -1.4956,4.3888 l 16.827,0 0,2.3454 c -1.8698,4.0106 -4.1879,7.1882 -6.9551,9.4582 2.9915,1.6648 6.282,3.1026 9.8718,4.313 l -1.2712,2.951 c -4.1883,-1.2862 -7.9276,-3.0264 -11.3679,-5.3722 -3.6643,2.4212 -7.8526,4.2372 -12.7136,5.3722 l -1.4211,-3.178 c 4.4872,-0.908 8.3014,-2.27 11.4424,-4.086 -2.468,-2.1184 -4.5618,-4.6154 -6.2821,-7.5664 -2.3181,4.2372 -5.4592,7.945 -9.6475,11.1984 l -2.0192,-2.1942 c 6.0577,-5.3722 10.0216,-11.2742 11.8911,-17.6302 l -8.2265,0 -0.8974,-2.724 3.1411,-7.5665 2.7672,0.681 -2.468,6.4315 6.581,0 c 0.8229,-2.724 1.496,-5.9021 2.0942,-9.4583 l 2.7672,0.7568 c -0.5985,3.2534 -1.1218,6.2045 -1.7203,8.7015 l 16.3037,0 0,3.178 -17.2012,0 z m 5.609,14.301 c 2.5429,-1.8918 4.5621,-4.1618 6.0578,-6.8858 l -12.5642,0 c 1.7949,2.724 3.9639,4.994 6.5064,6.8858 z m 4.1134,-26.1805 c 1.7949,1.5132 3.5149,3.2534 5.1603,5.221 l -2.0941,2.1942 c -1.5706,-1.8918 -3.3654,-3.7832 -5.4592,-5.675 l 2.393,-1.7402 z"
       style="display:inline;fill:#000000;fill-opacity:1;fill-rule:nonzero;stroke:none" />
    <path
       inkscape:connector-curvature="0"
       id="path3517"
       d="m 1289.14,1648.1191 2.6174,0.7568 c -0.4487,1.2862 -1.0469,2.497 -1.6454,3.632 l 8.3013,0 c -0.5233,-0.8326 -1.0469,-1.6648 -1.6451,-2.497 l 2.5425,-1.589 c 1.0473,1.2104 1.8698,2.6482 2.468,4.086 l 10.9191,0 0,2.6482 -11.966,0 0,2.4213 10.47,0 0,2.6482 -10.47,0 0,2.3458 10.47,0 0,2.724 -10.47,0 0,2.497 13.1624,0 0,2.8752 -25.6517,0 0,1.0596 -2.8421,0 0,-11.9556 c -1.0469,1.2865 -2.1687,2.497 -3.3654,3.632 l -1.4956,-2.724 c 3.9636,-3.9345 6.8057,-8.1717 8.6006,-12.5605 z m 8.6751,9.4583 0,-2.4213 -9.2737,0 -0.3003,0.5298 0,1.8915 9.573,0 z m 0,4.994 0,-2.3458 -9.5726,0 0,2.3458 9.5726,0 z m 0,5.221 0,-2.497 -9.5726,0 0,2.497 9.5726,0 z m 13.0878,5.5234 0,11.35 -2.7672,0 0,-1.7402 -20.1924,0 0,1.7402 -2.8418,0 0,-11.35 25.8014,0 z m -22.9596,6.81 20.1924,0 0,-3.9344 -20.1924,0 0,3.9344 z"
       style="display:inline;fill:#000000;fill-opacity:1;fill-rule:nonzero;stroke:none" />
    <path
       inkscape:connector-curvature="0"
       id="path3519"
       d="m 1328.7758,1680.2774 -3.8141,5.675 -2.2426,0 2.5418,-5.675 -2.2425,0 0,-5.221 5.7574,0 0,5.221 z"
       style="display:inline;fill:#000000;fill-opacity:1;fill-rule:nonzero;stroke:none" />
    <path
       inkscape:connector-curvature="0"
       id="path3521"
       d="m 1362.3553,1648.1191 2.9912,0.908 -0.8974,1.7402 8.5257,0 0,2.724 -4.7116,0 c 0.8229,0.8326 1.496,1.6648 2.2436,2.4971 l -2.6923,1.589 c -0.7476,-1.362 -1.72,-2.7241 -2.7669,-4.0861 l -2.3934,0 c -1.1964,1.6648 -2.5425,3.1026 -4.113,4.3888 l -2.3934,-1.8917 c 2.9915,-2.4213 5.0108,-5.0695 6.2075,-7.8693 z m 15.331,0 2.8422,0.908 c -0.2261,0.5298 -0.4487,1.135 -0.748,1.7402 l 10.1711,0 0,2.724 -5.9083,0 1.3462,1.6648 -2.6923,1.589 c -0.5982,-1.0592 -1.2713,-2.1188 -2.0193,-3.2538 l -2.5428,0 c -0.972,1.4378 -2.0938,2.7241 -3.3654,3.9348 l -2.5426,-1.8917 c 2.468,-2.2701 4.2629,-4.6913 5.4592,-7.4153 z m -18.547,11.804 12.6391,0 0,-2.043 2.9913,0 0,2.043 12.0409,0 0,2.7995 -12.0409,0 0,3.0268 15.0321,0 0,2.8752 -33.3548,0 0,-2.8752 15.3314,0 0,-3.0268 -12.6391,0 0,-2.7995 z m -1.0469,11.8041 21.6881,0 0,-2.1946 2.9167,0 0,2.1946 5.9082,0 0,2.8752 -5.9082,0 0,5.9774 c 0,1.4378 -0.3738,2.497 -1.1218,3.1026 -0.6731,0.5294 -2.3185,0.8322 -4.936,0.8322 -1.8697,0 -3.5897,-0.2252 -5.3097,-0.6052 l -0.3742,-3.178 c 1.8698,0.5294 3.7396,0.7564 5.6839,0.7564 1.1218,0 1.8698,-0.075 2.3931,-0.3782 0.5236,-0.2252 0.748,-0.6052 0.748,-0.9838 l 0,-5.5234 -21.6881,0 0,-2.8752 z m 5.4592,3.4804 c 1.496,1.2862 2.9916,2.724 4.5622,4.3888 l -2.468,2.1184 c -1.2713,-1.589 -2.8418,-3.1022 -4.6367,-4.6154 l 2.5425,-1.8918 z"
       style="display:inline;fill:#000000;fill-opacity:1;fill-rule:nonzero;stroke:none" />
    <path
       inkscape:connector-curvature="0"
       id="path3523"
       d="m 1400.1224,1648.1191 2.9167,0.908 -0.8975,1.7402 8.6006,0 0,2.724 -4.7115,0 c 0.7479,0.8326 1.4956,1.6648 2.1686,2.4971 l -2.6174,1.589 c -0.8225,-1.362 -1.7199,-2.7241 -2.8417,-4.0861 l -2.3186,0 c -1.1967,1.6648 -2.5428,3.1026 -4.1133,4.3888 l -2.3931,-1.8917 c 2.9167,-2.4213 5.0108,-5.0695 6.2072,-7.8693 z m 15.3314,0 2.7672,0.908 c -0.1484,0.5298 -0.4487,1.135 -0.748,1.7402 l 10.1711,0 0,2.724 -5.8333,0 1.2712,1.6648 -2.6174,1.589 c -0.5985,-1.0592 -1.2716,-2.1188 -2.0941,-3.2538 l -2.468,0 c -0.9723,1.4378 -2.1687,2.7241 -3.4403,3.9348 l -2.468,-1.8917 c 2.468,-2.2701 4.2629,-4.6913 5.4596,-7.4153 z m -18.6219,11.804 12.7136,0 0,-2.043 2.9167,0 0,2.043 12.1155,0 0,2.7995 -12.1155,0 0,3.0268 15.0321,0 0,2.8752 -33.2798,0 0,-2.8752 15.331,0 0,-3.0268 -12.7136,0 0,-2.7995 z m -0.9724,11.8041 21.6135,0 0,-2.1946 2.9916,0 0,2.1946 5.9079,0 0,2.8752 -5.9079,0 0,5.9774 c 0,1.4378 -0.3742,2.497 -1.1218,3.1026 -0.748,0.5294 -2.3934,0.8322 -4.9359,0.8322 -1.8698,0 -3.6647,-0.2252 -5.3101,-0.6052 l -0.4487,-3.178 c 1.8698,0.5294 3.8141,0.7564 5.7588,0.7564 1.0469,0 1.8694,-0.075 2.393,-0.3782 0.4488,-0.2252 0.6731,-0.6052 0.6731,-0.9838 l 0,-5.5234 -21.6135,0 0,-2.8752 z m 5.4596,3.4804 c 1.4211,1.2862 2.9916,2.724 4.5621,4.3888 l -2.5429,2.1184 c -1.2712,-1.589 -2.7672,-3.1022 -4.5621,-4.6154 l 2.5429,-1.8918 z"
       style="display:inline;fill:#000000;fill-opacity:1;fill-rule:nonzero;stroke:none" />
    <path
       inkscape:connector-curvature="0"
       id="path3525"
       d="m 1433.8513,1669.5326 0,-5.3722 5.0109,0 0,5.3722 -5.0109,0 z m 11.966,0 0,-5.3722 5.0105,0 0,5.3722 -5.0105,0 z m 12.0406,0 0,-5.3722 5.0098,0 0,5.3722 -5.0098,0 z"
       style="display:inline;fill:#000000;fill-opacity:1;fill-rule:nonzero;stroke:none" />
    <path
       inkscape:connector-curvature="0"
       id="path3527"
       d="m 1471.6177,1669.5326 0,-5.3722 5.0108,0 0,5.3722 -5.0108,0 z m 11.8911,0 0,-5.3722 5.0108,0 0,5.3722 -5.0108,0 z m 12.1155,0 0,-5.3722 5.0108,0 0,5.3722 -5.0108,0 z"
       style="display:inline;fill:#000000;fill-opacity:1;fill-rule:nonzero;stroke:none" />
    <flowRoot
       xml:space="preserve"
       id="flowRoot3027-8-8-2-8-6"
       style="font-style:normal;font-variant:normal;font-weight:normal;font-stretch:normal;line-height:0.01%;font-family:Arial;-inkscape-font-specification:Arial;text-align:center;letter-spacing:0px;word-spacing:0px;text-anchor:middle;display:inline;fill:#000000;fill-opacity:1;stroke:none"
       transform="matrix(0.78840156,0,0,0.81820527,230.51194,1509.8907)"><flowRegion
         id="flowRegion3029-9-3-5-1-2"><rect
           id="rect3031-9-1-6-8-7"
           width="2230.314"
           height="376.21677"
           x="135.21135"
           y="219.33444"
           style="text-align:center;text-anchor:middle" /></flowRegion><flowPara
         id="flowPara3033-3-0-2-4-3"
         style="font-size:12px;line-height:1.25"> </flowPara><flowPara
         style="font-style:normal;font-variant:normal;font-weight:normal;font-stretch:normal;font-size:48px;line-height:1.25;font-family:'WenQuanYi Micro Hei';-inkscape-font-specification:'WenQuanYi Micro Hei';text-align:center;text-anchor:middle"
         id="flowPara3233-6-14">开源：所有资源，使用字体，图层文件均可在官方网站上免费下载</flowPara></flowRoot>  </g>
</svg>
