<?xml version="1.0" encoding="UTF-8" standalone="no"?>
<!-- Created with Inkscape (http://www.inkscape.org/) -->

<svg
   xmlns:dc="http://purl.org/dc/elements/1.1/"
   xmlns:cc="http://creativecommons.org/ns#"
   xmlns:rdf="http://www.w3.org/1999/02/22-rdf-syntax-ns#"
   xmlns:svg="http://www.w3.org/2000/svg"
   xmlns="http://www.w3.org/2000/svg"
   xmlns:sodipodi="http://sodipodi.sourceforge.net/DTD/sodipodi-0.dtd"
   xmlns:inkscape="http://www.inkscape.org/namespaces/inkscape"
   id="svg2"
   version="1.1"
   inkscape:version="0.92.1 renderfarm"
   width="2481"
   height="663"
   sodipodi:docname="Pepper-and-Carrot_by-David-Revoy_E03P00_092.svg">
  <sodipodi:namedview pagecolor="#ffffff" bordercolor="#666666" inkscape:pageopacity="0" inkscape:pageshadow="2" inkscape:window-width="1813" inkscape:window-height="955" id="namedview70" showgrid="false" inkscape:zoom="0.4" inkscape:cx="1284.4231" inkscape:cy="2618.6204" inkscape:current-layer="layer1" /><metadata
     id="metadata8">
    <rdf:RDF>
      <cc:Work
         rdf:about="">
        <dc:format>image/svg+xml</dc:format>
        <dc:type
           rdf:resource="http://purl.org/dc/dcmitype/StillImage" />
        <dc:title />
      </cc:Work>
    </rdf:RDF>
  </metadata>
  <defs
     id="defs6" />
  <sodipodi:namedview
     pagecolor="#ffffff"
     bordercolor="#666666"
     borderopacity="1"
     objecttolerance="10"
     gridtolerance="10"
     guidetolerance="10"
     inkscape:pageopacity="0"
     inkscape:pageshadow="2"
     inkscape:window-width="477"
     inkscape:window-height="415"
     id="namedview4"
     showgrid="false"
     inkscape:zoom="0.20035922"
     inkscape:cx="416.70512"
     inkscape:cy="-19.887724"
     inkscape:window-x="387"
     inkscape:window-y="93"
     inkscape:window-maximized="0"
     inkscape:current-layer="layer1"
     inkscape:snap-page="true" />
  <g
     inkscape:groupmode="layer"
     id="layer2"
     inkscape:label="artwork"
     style="display:inline"
     sodipodi:insensitive="true">
    <rect
       style="opacity:1;fill:#ffffff;fill-opacity:1;stroke:none;stroke-width:13.30000019;stroke-linecap:round;stroke-linejoin:round;stroke-miterlimit:4;stroke-dasharray:none;stroke-opacity:1"
       id="rect4161"
       width="2481"
       height="663"
       x="0"
       y="0" />
  </g>
  <g
     inkscape:groupmode="layer"
     id="layer1"
     inkscape:label="txt"
     style="display:inline">
    <flowRoot
       xml:space="preserve"
       id="flowRoot2987"
       style="font-style:normal;font-variant:normal;font-weight:normal;font-stretch:normal;line-height:0.01%;font-family:Arial;-inkscape-font-specification:Arial;letter-spacing:0px;word-spacing:0px;display:inline;fill:#301b0b;fill-opacity:1;stroke:none"
       transform="translate(-701.05548,-172.838)"><flowRegion
         id="flowRegion2989"><rect
           id="rect2991"
           width="2405.8"
           height="107.55731"
           x="739.22333"
           y="644.36664"
           style="fill:#301b0b;fill-opacity:1" /></flowRegion><flowPara
         id="flowPara2993"
         style="font-style:normal;font-variant:normal;font-weight:500;font-stretch:normal;font-size:72px;line-height:1.25;font-family:'Rounded M+ 1c';-inkscape-font-specification:'Rounded M+ 1c Medium';text-align:center;text-anchor:middle;fill:#301b0b;fill-opacity:1">Tập 3: Nguyên liệu bí mật</flowPara></flowRoot>    <path
       style="display:inline;fill:#301b0b;fill-opacity:1"
       d="m 1525.9271,170.86889 c -12.661,-0.01 -25.167,1.96035 -35.6601,5.90995 -23.0273,8.6674 -41.6338,28.49657 -49.9318,53.21275 l -2.2872,6.81089 2.3019,3.23033 c 3.4279,4.81398 3.0366,10.14749 -1.0507,14.36448 -1.5687,1.61846 -2.4036,2.60381 -2.8484,4.14182 l -0.8145,0.90305 0.3249,4.7305 c -0.011,0.60649 -0.011,1.20993 -0.011,1.9306 0,14.75618 5.1582,32.47656 13.7547,47.26271 5.5037,9.46636 19.4819,23.42936 29.1552,29.12353 9.1634,5.39393 24.4252,10.55221 35.2719,11.92118 16.9293,2.13663 37.0905,-0.27836 50.1027,-6.00278 5.2951,-2.32947 5.6716,-2.74812 5.6716,-6.29818 0,-5.02922 3.2044,-7.01867 7.1441,-4.43721 3.6355,2.38207 5.687,1.49119 13.1472,-5.70318 7.6188,-7.34751 10.5159,-12.28028 8.9398,-15.22534 -2.6043,-4.86615 -5.9107,-3.755 -17.348,5.83188 -8.5915,7.20157 -21.1075,13.61025 -34.0291,17.42391 -23.5351,6.94608 -46.8312,1.49375 -62.7075,-14.67466 -5.3976,-5.49679 -13.453,-16.9072 -13.453,-19.05699 0,-0.67254 -1.1442,-2.91181 -2.5446,-4.97525 -1.4003,-2.06344 -2.8237,-6.14303 -3.1628,-9.06432 -0.3391,-2.92129 -1.1955,-8.71363 -1.9032,-12.87275 -1.8456,-10.84536 -0.771,-34.48435 2.0635,-45.3722 1.2375,-4.75328 4.4313,-12.91425 7.0979,-18.13496 4.2024,-8.22787 4.6888,-9.84622 3.6396,-12.14906 -1.7092,-3.75118 1.5015,-7.34943 5.7306,-6.42055 2.2909,0.50316 4.3603,-0.30084 9.25,-3.59956 12.0511,-8.12995 26.7808,-11.47123 42.9437,-9.73949 9.8112,1.0512 16.8292,3.3098 23.5765,7.58524 6.5714,4.16399 10.7505,9.50366 17.5146,22.37594 4.4625,8.49226 5.4647,10.07082 7.9377,10.55182 0.5861,0.24859 1.188,0.34815 1.863,0.34815 0.6516,0 1.2214,-0.0708 1.7281,-0.20045 1.0299,-0.0981 1.8792,-0.30954 2.19,-0.62033 0.1937,-0.19369 0.3289,-0.95583 0.4094,-2.08884 0.1983,-0.8672 0.216,-1.94168 0.062,-3.23876 -0.011,-1.80114 -0.07,-3.8351 -0.23,-6.1125 -0.6893,-9.80625 -0.8936,-10.50438 -3.2767,-11.10253 -1.3988,-0.35105 -3.8093,-2.1422 -5.3551,-3.97934 -2.2463,-2.66962 -2.7039,-4.13682 -2.2787,-7.30673 0.2926,-2.18143 0.2227,-4.41835 -0.1562,-4.97102 -0.04,-0.0576 -0.1004,-0.12104 -0.1497,-0.18146 l 0,-0.2743 -0.4832,-0.22998 c -2.2248,-2.02268 -8.5363,-5.16 -15.546,-7.6612 -11.1155,-3.96608 -23.9317,-5.95515 -36.5928,-5.96481 z m 287.026,1.05075 c -6.7393,-0.0522 -14.2418,0.46967 -22.667,1.5276 -9.8722,1.23958 -14.5953,1.31472 -23.0006,0.37135 -12.8472,-1.4419 -18.7056,-0.23461 -19.7871,4.0743 -1.0432,4.15642 1.9927,6.67955 9.1066,7.56836 6.6075,0.82556 12.0752,4.84518 12.0752,8.87653 0,1.16128 0.7292,2.71643 1.6205,3.45609 0.8912,0.73967 1.6204,2.44112 1.6204,3.78102 0,1.33989 -0.7292,3.04135 -1.6204,3.78101 -1.2943,1.07417 -1.6205,4.28621 -1.6205,15.96172 l 0,14.61768 4.3212,3.9899 c 3.4669,3.20058 4.3212,4.74016 4.3212,7.7899 0,4.17041 -3.1058,8.96313 -6.5092,10.04333 -2.0708,0.65723 -2.1332,1.79701 -2.1332,39.37575 0,0.80682 -3e-4,1.33935 0,2.11627 0,0.0447 0,0.0628 0,0.1076 l 0,13.19769 c -0.055,29.36989 -0.9147,27.761 -10.8535,28.7965 -3.8343,0.39948 -7.5789,1.10508 -8.3216,1.56768 -1.2078,0.75225 -1.598,2.85416 -1.3273,4.96892 0.04,0.5452 0.1477,1.05449 0.3145,1.5297 0.4051,1.40503 1.1051,2.66455 2.0635,3.33583 3.3389,2.33869 12.1786,2.12423 19.7449,-0.47896 7.8996,-2.7179 12.6096,-2.72273 20.4558,-0.0232 5.7184,1.96741 6.4683,2.00414 9.4462,0.46419 1.7788,-0.91986 5.0288,-1.54251 7.2224,-1.38413 4.9633,0.35836 6.6273,-0.62411 6.6273,-3.9055 0,-3.88769 -2.506,-5.61223 -9.3977,-6.4733 -6.5789,-0.82198 -11.0129,-2.61463 -12.3769,-4.97314 -0.016,-0.0297 -0.03,-0.0629 -0.046,-0.0928 -0.072,-0.13359 -0.1415,-0.26802 -0.194,-0.40511 -0.3691,-0.96181 -0.671,-4.06306 -0.671,-6.89317 0,-3.77371 -0.576,-5.6681 -2.1605,-7.10207 -1.1884,-1.07542 -2.1606,-3.01994 -2.1606,-4.32116 0,-1.30122 0.9722,-3.24574 2.1606,-4.32116 2.1119,-1.91109 2.1605,-3.32705 2.1605,-62.63576 l 0,-59.74303 c 0.067,-0.39416 0.1335,-0.7919 0.2089,-1.13304 l 2.5805,-2.42432 c 2.5158,-2.36222 3.7072,-2.61498 12.1532,-2.58679 7.9229,0.0265 10.3616,0.49242 15.8457,3.03199 8.2542,3.8223 15.8909,11.81526 18.8523,19.73008 2.6924,7.19618 2.7789,11.77296 0.3819,20.34617 -1.4538,5.19952 -2.9607,7.68586 -7.3004,12.03512 -6.9652,6.98049 -12.892,9.10229 -25.4143,9.10229 -10.1513,0 -11.9063,0.81253 -11.9063,5.51538 0,2.26465 1.1998,3.78663 5.3212,6.7476 1.0241,0.73575 1.9595,1.47612 2.8906,2.31672 1.6766,1.70472 3.3463,3.60037 5.0829,5.77069 3.7059,4.97378 8.7871,13.08973 18.0316,28.26269 24.6726,40.4953 27.9941,45.3722 30.9043,45.3722 1.9123,0 3.3092,1.10165 4.971,3.91816 0.5762,0.97644 1.2897,1.87902 2.1438,2.7176 0.016,0.0449 0.034,0.0834 0.051,0.12872 0.044,0.12341 0.3347,0.34086 0.7597,0.60554 1.3209,1.12377 2.9223,2.1253 4.8423,3.01933 6.7117,3.1253 12.9623,3.27642 17.637,0.42622 6.4125,-3.90977 3.9157,-9.35186 -6.3362,-13.80325 -4.5603,-1.98007 -5.6706,-3.29974 -12.9635,-15.40681 -4.3868,-7.2826 -8.7068,-13.58114 -9.598,-13.99735 -5.7492,-2.68491 -5.9414,-2.93352 -5.9522,-7.7034 -0.011,-2.60527 -0.3051,-5.22295 -0.6646,-5.81711 -0.3594,-0.59416 -5.338,-8.70784 -11.0625,-18.03157 -5.7246,-9.32373 -10.4083,-17.654 -10.4083,-18.51053 0,-0.86956 2.5484,-2.59135 5.7707,-3.89917 4.372,-1.7745 6.1394,-3.18066 7.292,-5.79813 1.374,-3.12071 1.9796,-3.45651 6.2643,-3.48773 4.2621,-0.031 5.2109,-0.55021 9.347,-5.11873 5.2648,-5.81505 8.0559,-12.89516 8.0559,-20.43478 0,-0.5577 0,-1.03318 -0.011,-1.48118 l 0.308,-2.62688 -0.6983,-0.29118 c -0.4944,-1.14105 -1.5956,-1.61737 -4.0449,-2.59733 -3.2445,-1.29817 -4.8642,-2.77837 -5.9901,-5.47319 -1.6868,-4.03706 -1.1954,-6.81455 2.0045,-11.35782 l 2.0867,-2.96447 -3.7283,-3.93505 c -0.3289,-0.38212 -0.7505,-0.80709 -1.1646,-1.22798 l -0.4875,-0.51483 c -10.8895,-11.49267 -24.2511,-16.81358 -44.4691,-16.97027 z m -1242.08728,3.14804 c -6.77449,0.0662 -16.09311,1.54687 -18.31642,3.29573 -3.54343,2.78726 -4.75601,2.70656 -8.27519,-0.55491 -2.55708,-2.36983 -3.88365,-2.70073 -10.82823,-2.70073 -1.05767,0 -2.00331,0.0196 -2.86951,0.0569 -0.18615,0.008 -0.34132,0.0238 -0.51905,0.0337 -0.64304,0.0267 -1.25818,0.0695 -1.79556,0.1498 -4.39068,0.53382 -5.40131,2.09793 -4.9647,5.90573 0.26976,2.35262 1.32094,3.47364 4.6693,4.97946 12.6252,5.67776 12.38827,5.15152 12.40858,27.43348 0.0153,16.86151 -0.0722,17.55422 -2.38635,19.17516 -0.86478,0.60571 -2.44331,0.99178 -5.99857,1.24486 l -28.6066,0.43043 c -0.65439,2.8e-4 -0.97392,0.006 -1.65419,0.006 -21.27453,0 -34.6363,0.41563 -35.9492,1.11826 -1.11865,0.59868 -1.75438,1.63957 -1.98545,3.26619 -0.0803,0.46363 -0.10555,0.97496 -0.10555,1.55714 0,0.56887 0.0252,1.06784 0.10122,1.52338 0.22712,1.6455 0.86356,2.69728 1.98968,3.29995 1.3033,0.6975 14.00624,1.12136 33.75908,1.1246 1.97776,3.7e-4 3.76972,0.0263 5.67997,0.038 l 17.61801,0.27218 c 6.54614,0.19569 11.14931,0.46639 12.25034,0.77224 3.97986,1.10554 6.38257,4.41889 6.38257,8.79846 0,1.22313 1.21533,3.6678 2.70073,5.43311 3.6276,4.31116 3.65689,10.38612 0.0696,14.64932 -0.64799,0.7701 -1.13723,1.36188 -1.51071,2.23022 l -1.25965,1.58667 0,13.47198 c -0.0697,3.62893 -0.12961,7.6116 -0.20044,13.36227 -0.39596,32.14911 -0.38984,32.12657 -9.96104,34.909 -4.01491,1.16715 -6.12088,2.40483 -6.58513,3.86752 -0.97637,3.0763 0.21255,5.97914 2.99823,7.32362 5.15964,2.49024 14.82868,0.84045 14.82868,-2.52983 0,-0.95165 1.4218,-3.14986 3.15858,-4.88663 2.33786,-2.33787 4.18185,-3.15857 7.10418,-3.15857 2.92232,0 4.76842,0.8207 7.10628,3.15857 1.73678,1.73677 3.15648,3.9073 3.15648,4.82334 0,4.26892 11.78504,5.44922 16.59891,1.66263 1.56552,-1.23145 2.84632,-2.8583 2.84632,-3.61433 0,-2.16982 -3.53401,-4.81337 -8.86387,-6.62944 -2.69786,-0.91925 -6.06141,-2.90102 -7.47342,-4.40345 l -2.00656,-2.13315 c -0.25078,-0.84887 -0.44562,-2.07207 -0.595,-3.96037 l -0.50638,-50.99308 0,-52.00165 -1.40522,-1.90317 c -0.28873,-1.48953 -0.65138,-2.12913 -1.12882,-2.65642 -2.80823,-3.10136 -2.7344,-9.17051 0.16035,-13.08586 1.68419,-2.27801 2.37369,-4.74853 2.37369,-8.49674 0,-10.13454 2.78356,-13.92285 11.62366,-15.82668 6.31057,-1.35907 7.59731,-9.50652 1.73438,-10.97803 -1.33565,-0.33522 -3.30998,-0.46939 -5.56813,-0.4473 z m 223.2952,0.0401 -2.5805,2.58046 c -2.33115,2.33117 -3.47335,5.22399 -3.39481,8.28363 -0.04,0.52557 0,1.02815 0.14346,1.54659 0.23173,1.46618 0.73093,2.95382 1.51911,4.42454 2.74826,5.12747 2.75625,5.48325 0.21951,10.45899 -2.29637,4.50427 -1.14748,6.65356 3.21128,6.00701 2.769,-0.41073 3.41825,-1.40295 6.49233,-9.9104 1.99238,-5.51383 2.85261,-6.57566 6.75808,-8.34905 8.82457,-4.00707 21.62785,-1.91711 24.3087,3.9667 0.8558,1.87828 1.22775,16.23963 1.23855,47.20996 0.0108,42.59866 0.0983,44.6506 2.15215,47.75222 1.18044,1.78248 2.14784,4.94233 2.14784,7.02189 0,2.07956 -0.9674,5.23941 -2.14784,7.02189 -1.86166,2.81104 -2.14859,5.10352 -2.16911,17.28465 -0.0151,9.07491 -0.50298,14.99933 -1.37986,16.7445 -0.77878,1.54983 -4.10867,4.08182 -7.81525,5.9416 -4.70661,2.36156 -6.55574,3.91611 -6.81296,5.7306 -0.39971,2.81946 1.3966,5.43175 4.63769,6.74548 3.48447,1.41242 4.36059,1.19833 6.85725,-1.67317 2.59151,-2.98044 5.76151,-3.49286 7.63592,-1.23432 0.72131,0.86908 4.62386,1.75001 9.58337,2.16269 4.60229,0.38297 11.77099,0.99369 15.93009,1.35669 6.7061,0.58531 7.7865,0.41187 9.5347,-1.52759 1.0392,-1.15274 1.5571,-2.84045 1.591,-4.46464 0,-0.0752 0,-0.14904 0,-0.22366 0,-0.14521 -0.011,-0.28927 -0.015,-0.43254 -0.1048,-1.69328 -0.7548,-3.2224 -1.9306,-3.8633 -0.8913,-0.4858 -4.1085,-1.90421 -7.1507,-3.15226 -3.5064,-1.43853 -5.978,-3.24957 -6.7518,-4.94781 -0.8153,-1.78955 -1.2216,-12.82904 -1.2216,-33.25058 l 0,-29.44636 -0.7892,-0.74059 c -0.3154,-1.24139 -0.7536,-1.77869 -1.3714,-2.33782 -1.1883,-1.07541 -2.1606,-3.07746 -2.1606,-4.44986 0,-1.38967 0.9574,-3.00835 2.1606,-3.65231 1.5349,-0.82147 1.9822,-1.75859 2.1099,-9.5053 0.049,-2.39618 0.051,-5.52277 0.051,-9.73317 l 0,-0.0422 0,-16.64745 0,-1.47695 -3.1523,-3.02144 c -1.7344,-1.66167 -3.44481,-4.18028 -3.80001,-5.59557 -0.82048,-3.26869 1.79721,-9.63101 4.57441,-11.11728 1.2153,-0.65045 2.4401,-2.81197 2.859,-5.04487 1.7859,-9.51961 5.3694,-12.38191 15.4004,-12.30942 9.3139,0.0673 13.0285,2.48332 17.6075,11.45278 3.2366,6.33992 4.2404,7.45828 6.9691,7.7688 4.1007,0.46665 5.9944,-2.06032 5.9944,-7.99668 0,-7.8524 -1.1401,-11.2465 -4.3339,-12.89807 -1.914,-0.98982 -3.0688,-2.05076 -3.5278,-3.32105 -0.059,-0.74721 -0.046,-1.67327 0.017,-2.90118 0.1275,-0.45193 0.292,-0.92121 0.5213,-1.42421 1.018,-2.23453 0.9601,-2.95441 -0.2997,-3.75147 -0.8801,-0.55688 -22.8657,-0.99251 -50.491,-1.00223 l -48.93165,-0.0169 z m -366.27968,0.0464 c -2.89968,-0.0933 -5.00251,0.18688 -6.54504,0.83976 -1.5175,0.13265 -2.51003,0.29106 -2.74926,0.47896 -3.37057,2.64738 1.02381,10.51807 5.87198,10.51807 5.59412,0 11.1426,6.59588 11.1426,13.2441 0,1.9955 0.71433,4.57094 1.58668,5.72428 1.9575,2.58807 2.11082,8.46401 0.30383,11.62156 -0.19785,0.34571 -0.36961,1.37962 -0.5296,2.84421 -1.28535,3.8548 -1.35749,12.48398 -1.3588,57.32924 -5.1e-4,0.055 -10e-4,0.0843 -0.002,0.13926 -0.61062,65.51381 -0.003,61.38008 -9.34705,63.73292 -2.54651,0.64121 -5.16627,1.81226 -5.82134,2.60156 -0.66186,0.7975 -0.96176,1.87564 -0.96635,3.0151 -0.0408,0.17871 -0.0696,0.35451 -0.0696,0.52328 0,0.28516 0.10338,0.65193 0.24475,1.0423 0.4002,1.78769 1.46048,3.49206 2.99612,4.30217 1.75425,0.92544 4.59368,1.20643 8.10218,0.80179 13.45899,-1.55224 19.88606,-1.75778 25.65901,-0.81655 6.14718,1.00224 6.25482,0.97527 9.93994,-2.60367 2.04883,-1.9898 4.69349,-3.61855 5.87619,-3.61855 2.68855,0 3.76828,-1.58663 1.996,-2.93282 -0.73615,-0.55917 -3.64265,-1.86724 -6.45852,-2.9075 -8.04863,-2.97336 -9.46521,-5.57127 -9.46521,-17.36483 0,-8.80185 -0.26504,-10.18716 -2.30828,-12.00769 -1.27031,-1.13187 -2.97856,-3.63711 -3.79578,-5.56813 -1.26092,-2.97948 -1.26092,-4.0424 0,-7.02189 0.81722,-1.93101 2.52547,-4.43626 3.79578,-5.56814 2.2937,-2.04365 2.30828,-2.3903 2.30828,-49.9128 0,-33.48474 0.36946,-48.66533 1.2301,-50.55422 0.67647,-1.48472 2.9856,-3.46769 5.13138,-4.40557 8.35584,-3.65218 9.29972,-4.38164 9.6572,-7.47552 0.002,-0.0179 1.7e-4,-0.0368 0.002,-0.0549 0.0274,-0.24662 0.0366,-0.50071 0.0253,-0.7638 0.0145,-1.45237 -0.32655,-2.90484 -0.8904,-3.46875 -0.0797,-0.0796 -0.31925,-0.15447 -0.64142,-0.22787 -1.7197,-1.37689 -5.39756,-1.57897 -12.89597,-0.86508 -8.36593,-0.26696 -18.70459,-0.34489 -27.18661,-0.20466 -1.79446,-0.21539 -3.43689,-0.37054 -4.8381,-0.41566 z m 1562.04316,18.3185 c -6.7562,0 -14.6333,7.18215 -22.513,20.52552 -4.9367,8.35966 -6.1102,12.377 -4.2663,14.59869 1.7144,2.06584 3.1966,2.02563 6.4986,-0.17302 3.9533,-2.63228 5.3719,-4.76776 5.3719,-8.08952 0,-1.63577 1.1132,-4.26804 2.4728,-5.84876 2.035,-2.36576 4.0597,-3.12718 11.4507,-4.31061 9.6994,-1.55306 13.0838,-3.5608 13.0838,-7.75826 0,-0.19555 -0.018,-0.3817 -0.029,-0.57179 0.013,-0.0726 0.029,-0.15025 0.029,-0.211 0,-0.38299 -0.073,-0.77337 -0.2047,-1.16468 -0.9634,-4.39476 -5.2909,-6.99657 -11.8938,-6.99657 z m -343.8742,5.48584 c -3.3759,0.0322 -7.4482,1.03714 -9.8196,2.59102 -5.3145,3.48218 -2.0727,13.52895 4.3654,13.52895 5.0385,0 8.4966,2.2703 19.0844,12.52883 3.9998,3.8753 6.8355,6.46417 8.942,7.99457 0.506,0.40567 0.9236,0.72114 1.1457,0.83765 0.2101,0.11023 0.3965,0.18375 0.5929,0.27219 2.282,1.2099 3.4872,0.63363 4.6461,-1.20689 0.7943,-1.2616 0.3086,-3.41087 -1.8188,-8.05787 -4.3405,-9.48076 -7.7185,-13.44877 -11.4507,-13.44877 -4.6924,0 -8.6666,-4.00279 -9.3998,-9.46943 -0.4989,-3.7194 -1.1202,-4.73209 -3.2323,-5.26219 -0.882,-0.22133 -1.93,-0.31878 -3.0553,-0.30806 z m -614.8795,2.63321 c -1.0661,0.0447 -2.1345,0.34001 -3.188,0.89462 -3.7099,1.95301 -11.7346,10.22774 -20.593,21.23446 -8.30548,10.31962 -9.52318,12.60058 -7.81948,14.65355 2.55328,3.07652 5.57638,1.43888 15.97438,-8.65076 5.7822,-5.61088 11.7332,-10.66484 13.2229,-11.23123 4.3142,-1.64024 8.7509,0.99004 18.5401,10.98647 9.5035,9.70486 12.9725,11.71807 15.6199,9.07065 1.4098,-1.40937 1.4084,-1.96097 -0.015,-4.70095 -2.1063,-4.05569 -16.34,-20.46689 -18.4557,-21.27878 -0.9015,-0.34595 -2.8324,-2.52017 -4.2917,-4.83177 -2.6245,-4.15746 -5.796,-6.28056 -8.9947,-6.14626 z m 999.0199,11.2903 c -1.7226,-0.009 -3.369,0.43162 -4.1228,1.38624 -0.5865,0.7427 -1.3479,7.24337 -1.6922,14.44466 -0.4515,9.44408 -1.2709,14.86359 -2.9413,19.44523 -1.2735,3.49359 -2.6385,8.53852 -3.0319,11.21224 l -0.6183,4.19879 c -0.041,0.0491 -0.077,0.10176 -0.1202,0.1498 -0.1731,0.19124 -0.34,0.35628 -0.5085,0.51272 l -6.045,0 c -6.9299,0 -9.7374,1.32786 -10.1172,4.9457 -0.2359,0.83759 -0.209,1.6447 0.057,2.39057 0.455,2.91034 2.4514,4.00678 6.9248,4.00678 0.9456,0 1.7536,-0.008 2.4877,0.0232 0.1324,0.005 0.2617,0.0151 0.3924,0.0232 5.2095,0.35028 5.0964,3.58895 5.4584,32.36231 0.4181,33.23436 0.9273,35.90338 8.0325,42.14188 3.6986,3.24745 3.7623,3.26047 6.9207,1.39468 3.0541,-1.80409 3.3502,-1.79591 7.0493,0.19622 l 3.8612,2.07829 4.9984,-2.65009 c 6.9573,-3.68974 16.4239,-13.13336 16.4239,-16.3837 0,-2.869 -1.45,-4.58664 -3.6355,-5.01533 l -0.5739,-0.69628 -1.0887,0.60554 c -1.8534,0.14278 -4.0222,1.01861 -6.2138,2.69019 -1.9873,1.51582 -5.2841,3.45455 -7.3278,4.3085 -5.5783,2.33071 -6.7188,0.55416 -7.6549,-11.93172 -0.676,-9.01656 -1.0649,-10.46868 -3.0742,-11.49498 -7.9196,-4.04518 -8.2913,-14.81106 -0.6477,-18.76371 2.7311,-1.41229 3.1497,-2.06934 3.1986,-6.39313 0.098,-1.08723 0.1628,-2.42544 0.2342,-4.1819 l 0.067,-1.66897 c 0.1925,-1.64249 0.4623,-3.08068 0.7638,-3.87385 0.5477,-1.44033 1.0304,-2.12717 2.3146,-2.46231 l 3.6608,-0.29961 c 0.2775,-0.002 0.5207,-0.009 0.8291,-0.009 3.164,0 6.3609,-0.60766 7.1042,-1.35036 0.7433,-0.7427 3.3918,-1.35037 5.8867,-1.35037 3.989,0 4.5822,-0.31781 4.91,-2.63954 0.4807,-3.40671 -1.3689,-4.84019 -7.7119,-5.2854 -2.0458,-0.20485 -4.6768,-0.33966 -8.3258,-0.44731 l -5.5218,-0.16246 c -1.5222,-0.21632 -2.5445,-0.50421 -2.9033,-0.86297 -0.3866,-0.38666 -0.6713,-1.88118 -0.8777,-4.57225 l -0.4114,-18.21725 c -5e-4,-0.39452 -0.011,-0.64234 -0.011,-1.04864 0,-13.47224 -0.4499,-23.38258 -1.1183,-24.63146 -0.4096,-0.76525 -1.3296,-1.33488 -2.4497,-1.69218 -0.5334,-0.2504 -1.1625,-0.35091 -1.8947,-0.37979 -0.3124,-0.0308 -0.6266,-0.0512 -0.9389,-0.0527 z m -1274.74287,2.16058 c -1.72263,-0.009 -3.36899,0.43162 -4.12282,1.38624 -0.58649,0.7427 -1.35436,7.18394 -1.70697,14.31385 -0.3525,7.12992 -1.42404,15.56264 -2.37999,18.7384 -2.00128,6.64846 -8.74359,14.69091 -13.24419,15.79714 -5.08816,1.25067 -7.79408,3.63236 -7.79408,6.86364 0,0.12145 0.0184,0.21863 0.0205,0.33548 -2.2e-4,0.0179 0,0.0326 0,0.0507 0,0.24259 0.0184,0.47507 0.0508,0.70261 0.3283,3.29033 2.25975,4.50474 6.96496,4.50474 0.69009,0 1.24115,0.009 1.81662,0.0168 0.5153,0.009 1.02962,0.0321 1.52969,0.0759 4.7267,0.53749 4.64417,4.44746 5.02378,32.31589 0.42931,31.5154 1.09855,36.07121 5.48382,37.29323 4.65097,1.2961 7.415,3.1978 8.94189,6.15048 1.28576,2.48626 2.26536,3.00879 5.63771,3.00879 2.24463,0 6.65416,-1.28152 9.79856,-2.84843 7.40107,-3.68809 17.39235,-13.35489 17.39235,-16.82679 0,-2.869 -1.44996,-4.58664 -3.6355,-5.01533 l -0.57385,-0.69628 -1.09088,0.60554 0,0 c -1.85248,0.14381 -4.01976,1.01992 -6.20962,2.69019 -4.99742,3.81173 -10.41789,5.9427 -12.24606,4.81278 -1.87301,-1.15755 -3.04037,-10.22474 -3.15866,-24.53442 -0.0821,-9.8957 -0.3673,-11.43381 -2.79137,-15.00591 -3.35959,-4.95065 -3.43197,-9.09117 -0.22794,-13.04788 1.35998,-1.67953 3.05096,-4.38995 3.75779,-6.02389 0.93445,-2.15992 1.28879,-2.74453 5.31287,-2.9054 1.31925,-0.0441 2.95168,-0.0622 4.97528,-0.0633 0.32625,-2.3e-4 0.57785,-0.002 0.92829,-0.002 0.12651,0 0.22179,-0.006 0.34613,-0.006 5.1438,-0.0186 7.68443,-0.18616 9.29007,-0.79123 3.15693,-0.8427 4.24521,-2.44726 4.24521,-5.27275 0,-3.67507 -3.07256,-4.7326 -13.75685,-4.7326 -0.30626,0 -0.54382,-0.0165 -0.83982,-0.019 l -6.35718,-0.30594 c -1.96462,-0.22281 -3.25632,-0.55136 -3.67558,-0.97058 -0.38664,-0.38665 -0.6713,-1.88117 -0.87774,-4.57224 l -0.41137,-18.21725 c -5.4e-4,-0.39452 -0.0108,-0.64234 -0.0108,-1.04864 0,-13.47224 -0.44994,-23.38259 -1.11831,-24.63147 -0.40954,-0.76524 -1.32963,-1.33487 -2.44967,-1.69218 -0.53345,-0.2504 -1.1625,-0.35091 -1.89472,-0.37978 -0.31242,-0.0308 -0.62657,-0.0512 -0.93888,-0.0527 z m 187.83559,12.99937 c -1.1806,0 -2.7537,1.36125 -3.7093,3.20922 -2.1697,4.19559 -4.8823,5.5665 -12.7103,6.42477 -1.4112,0.15471 -0.8744,6.55266 0.8249,9.83867 0.8987,1.7379 2.9648,3.88173 4.5913,4.76424 1.6263,0.88251 5.2478,1.6241 8.0494,1.64786 4.1697,0.0354 5.7728,-0.55295 8.8365,-3.24297 4.3735,-3.83996 5.6371,-8.17887 3.9076,-13.41923 -1.3952,-4.22762 -6.6968,-9.22256 -9.7901,-9.22256 z m 1012.49588,9.18668 c -2.9098,0.16455 -5.9945,2.50159 -11.1953,7.88486 -6.929,7.17204 -18.4114,21.24844 -20.2786,24.85934 -1.5538,3.005 0.041,5.6019 3.4413,5.6019 1.6025,0 0.1967,1.81685 -5.4479,7.04299 -7.4228,6.87238 -13.1808,15.74253 -13.1808,20.30397 0,0.35618 0.1557,0.86332 0.4051,1.44109 0.078,0.65568 0.3874,1.19269 1.0128,1.83988 0,0.002 0,0.004 0,0.006 0.5263,0.83626 1.1304,1.6952 1.8188,2.47918 4.5265,5.15542 4.454,10.36572 -0.2132,15.18103 l -3.456,3.56369 2.3694,4.8782 c 3.0165,6.20884 9.7417,13.51634 16.3309,17.74461 3.9988,2.56607 6.3573,3.29995 10.6004,3.29995 3.8409,0 6.2121,0.62979 8.0072,2.12471 l 0,0 c 2.0283,1.68915 4.2175,2.13196 10.6953,2.16058 14.6052,0.0645 25.5422,-4.01543 35.1686,-13.11962 6.5462,-6.19121 9.1468,-10.96606 8.3131,-15.25699 -0.4286,-2.20602 0.075,-3.73049 1.8525,-5.623 1.836,-1.95432 2.2628,-3.05185 2.1015,-7.7878 0.1174,-1.70796 -0.013,-3.62242 -0.3819,-5.77069 -1.7033,-14.72338 -11.11,-27.05429 -26.2814,-34.25914 -7.0759,-3.36035 -9.3342,-3.88699 -18.4894,-4.3085 -9.6198,-0.4429 -18.6344,0.77348 -26.6338,3.59324 -1.1883,0.41887 2.4346,-3.90968 8.0515,-9.61923 5.6169,-5.70957 11.4847,-10.82429 13.0394,-11.36627 4.4732,-1.55936 8.8113,1.00601 18.6034,11.00546 9.5036,9.70487 12.9703,11.71807 15.6178,9.07065 1.4095,-1.40937 1.4064,-1.96097 -0.031,-4.70095 -0.8963,-1.70781 -3.9202,-5.7715 -6.7201,-9.03056 -2.7999,-3.25906 -5.8313,-7.05747 -6.7371,-8.43977 -1.3972,-2.13241 -2.2499,-2.4108 -5.6166,-1.84198 -5.1156,0.86427 -7.0262,-1.16605 -6.0408,-6.41844 0.6393,-3.40784 0.3988,-3.9023 -2.6881,-5.49852 -1.4332,-0.74115 -2.7199,-1.11499 -4.0426,-1.0402 z m -288.3468,24.39094 c -1.5952,0.0151 -3.4065,0.0931 -5.5745,0.21943 -17.6613,1.02892 -30.0398,6.41512 -31.3347,13.44455 -0.071,0.24122 -0.1203,0.47419 -0.1203,0.68996 0,0.0632 0.014,0.12938 0.018,0.19411 -0.011,0.11412 -0.018,0.22692 -0.018,0.34181 0,3.6274 2.6119,5.58245 6.2518,5.52805 0.071,0.005 0.1454,0.019 0.2152,0.019 0.1513,0 0.3396,-0.0237 0.5549,-0.0675 2.0693,-0.18292 4.4075,-0.96281 6.7729,-2.42855 6.8994,-4.27529 11.3387,-5.59758 18.8059,-5.6019 7.798,-0.004 11.0107,1.54518 15.4068,7.43333 2.0774,2.78247 2.2261,4.45169 2.2261,24.78128 0,23.41479 -0.418,25.50638 -6.2223,31.07734 -6.7499,6.47853 -19.4026,8.3136 -28.345,4.11017 -19.2904,-9.06759 -16.6241,-36.3621 4.0026,-40.96664 5.6085,-1.25203 6.7856,-1.16508 13.0394,0.94736 10.201,3.4457 13.7442,2.77752 13.7442,-2.58891 0,-2.94406 -2.5285,-5.22252 -8.9524,-8.06419 -6.9033,-3.05362 -14.1754,-3.75172 -23.0217,-2.21122 -10.6991,1.86319 -17.5869,5.0689 -18.4218,8.57269 -0.9953,4.17669 -2.4399,5.53228 -5.8953,5.53228 -5.0087,0 -8.938,6.95103 -9.4293,16.67909 -0.6897,13.65742 3.6337,23.2732 11.0034,24.47111 4.4541,0.72399 5.7693,1.74675 9.5981,7.46287 1.999,2.98464 3.6611,4.04391 7.8912,5.02799 10.7533,2.50161 21.4934,1.14789 33.183,-4.18401 7.2011,-3.28462 7.3282,-3.30239 9.5665,-1.27651 0.4924,0.44565 0.9968,0.79555 1.6838,1.07396 1.682,1.5609 2.7761,1.59126 6.6442,0.9347 0.043,-0.008 0.083,-0.0117 0.1266,-0.019 2.3809,0.0987 5.4235,0.15146 9.6339,0.18357 3.5933,0.0274 6.7932,-0.0373 9.5708,-0.14558 3.3129,0.38489 5.7094,0.20037 7.1316,-0.614 0.2207,-0.0583 0.3885,-0.11856 0.4684,-0.18145 1.913,-1.50607 1.6738,-5.66565 -0.4263,-7.41856 -0.9769,-0.81545 -3.7216,-2.21248 -6.0998,-3.10372 -6.9946,-2.62122 -8.8023,-6.06452 -9.2542,-17.62224 -0.064,-1.62333 -0.1288,-2.92204 -0.2026,-4.0933 -0.042,-1.32411 -0.1341,-2.36356 -0.2953,-3.20078 -0.4187,-2.8979 -1.197,-4.10117 -3.0131,-6.16947 -4.2676,-4.86045 -4.2278,-9.77579 0.1162,-14.11974 1.9112,-1.91125 2.7519,-3.25126 3.0614,-5.30228 0.018,-0.11002 0.035,-0.22653 0.046,-0.34182 0.079,-0.66947 0.1142,-1.40704 0.1098,-2.2724 -0.055,-10.85124 -8.9051,-20.88315 -21.9055,-24.83191 -4.7133,-1.43164 -7.5554,-1.94447 -12.341,-1.89895 z m -633.3773,3.20078 c -4.8214,0.0489 -9.4801,0.57296 -13.5184,1.61832 -12.5353,3.24495 -22.10368,9.36878 -22.10368,14.14717 0,4.31249 -2.8807,8.63202 -6.7013,10.04966 -1.959,0.72691 -4.2829,1.69442 -5.1651,2.15003 -2.2503,1.16215 -3.756,6.71516 -4.0701,14.18725 -0.1856,2.21281 -0.1778,4.46544 0.017,6.73283 0.3278,7.49195 0.9848,10.24905 3.7684,16.19381 4.6795,9.99377 13.5962,19.16704 23.40348,24.07656 7.2157,3.61211 8.0858,3.79401 15.2148,3.1839 4.5035,-0.38543 8.2175,-0.20073 9.1825,0.45785 4.2088,2.87228 17.774,0.0335 29.5181,-6.17791 9.0504,-4.78676 12.3616,-8.56005 10.5244,-11.99291 -1.8105,-3.38291 -6.1323,-2.90567 -15.8942,1.75547 -7.8787,3.76188 -9.1783,4.04986 -18.2067,4.02999 -7.9998,-0.0176 -10.6369,-0.47297 -14.8857,-2.56569 -7.577,-3.73208 -15.3777,-11.2493 -18.6836,-18.00624 -2.5994,-5.31296 -2.8407,-6.80097 -2.4053,-14.80337 0.5884,-10.80841 3.0854,-16.85507 9.5897,-23.22835 9.279,-9.09232 20.8598,-12.20202 32.4804,-8.7204 8.9977,2.69575 17.7343,14.49678 16.924,22.85912 l -0.2005,2.05931 c -0.2014,0.30221 -0.4263,0.59087 -0.6942,0.85874 -0.2045,0.20453 -0.4145,0.37692 -0.633,0.54437 l -22.1397,0.51272 c -24.7599,0.57316 -26.8995,1.03857 -26.8995,5.85719 0,1.83605 0.1384,2.98737 2.1648,3.7135 l 0.038,0.15192 0.479,0 c 0.2809,0.0803 0.589,0.15708 0.9326,0.22576 1.9209,0.63855 7.1727,0.78754 18.5906,0.8271 3.4215,0.0179 7.2924,0.0271 11.8579,0.0274 0.2689,10e-6 0.4506,0 0.7237,0 l 30.8284,0 1.3631,0 0,-3.69873 c 0,-2.36858 0.9709,-4.85224 2.7007,-6.90795 3.2786,-3.89639 3.317,-4.95098 0.4494,-12.61535 -2.7757,-7.41882 -11.6518,-17.31432 -19.2342,-21.44123 -7.313,-3.98018 -18.7086,-6.16952 -29.3156,-6.06187 z m -378.61656,1.21111 c -1.52852,-0.01 -3.1051,0.0339 -4.7326,0.1287 -18.67713,1.0881 -31.45502,7.04618 -31.45502,14.67043 0,5.86585 6.81741,7.3746 13.7948,3.05098 6.81829,-4.22501 11.24513,-5.56046 18.55483,-5.59557 0.22278,2e-4 0.4115,0.003 0.62455,0.004 7.51107,0.049 10.71266,1.6357 15.03334,7.42278 2.07742,2.78247 2.22599,4.45169 2.22599,24.78128 0,23.41479 -0.41793,25.50637 -6.22223,31.07733 -6.74987,6.47854 -19.40254,8.31361 -28.34496,4.11017 -19.29046,-9.06759 -16.62413,-36.36209 4.00256,-40.96663 5.60859,-1.25203 6.78558,-1.16509 13.03944,0.94736 10.20095,3.4457 13.74417,2.77752 13.74417,-2.58891 0,-2.94406 -2.52841,-5.22252 -8.95249,-8.06419 -14.33412,-6.34067 -34.78067,-2.34043 -47.14244,9.22255 -6.80964,6.36962 -9.80279,12.41912 -9.80279,19.81236 0,5.36683 0.18169,5.73087 3.53415,7.13161 6.93195,2.89636 9.35261,7.96683 6.76237,14.16616 -1.55759,3.72783 -1.54188,4.18617 0.22154,6.13782 2.63615,2.91754 11.63506,7.38776 18.10964,8.99468 l 0.002,0 c 10.53272,2.6141 21.43099,1.26433 33.22316,-4.11438 7.20115,-3.28462 7.32815,-3.3024 9.56648,-1.27652 0.49127,0.44465 0.99707,0.79375 1.68162,1.07185 1.68335,1.56299 2.77653,1.59367 6.64632,0.93681 0.0434,-0.008 0.0833,-0.0117 0.1266,-0.019 2.38099,0.0988 5.42295,0.15146 9.63399,0.18356 3.59232,0.0274 6.79147,-0.0373 9.56859,-0.14558 3.33308,0.38837 5.73048,0.20403 7.14637,-0.61821 0.21346,-0.0573 0.37964,-0.11565 0.45786,-0.17724 1.95038,-1.53552 1.65859,-5.5972 -0.54014,-7.51772 -1.03978,-0.9082 -3.67451,-2.22261 -5.85509,-2.92227 -2.18057,-0.69967 -4.54987,-1.97704 -5.26431,-2.83787 -0.71444,-0.86086 -2.84463,-1.56558 -4.7326,-1.56558 -2.97566,0 -4.94039,-1.12362 -5.6863,-2.63532 -0.21414,-0.59711 -0.31819,-1.2245 -0.30804,-1.85886 0.18551,-1.3599 1.20611,-2.79249 3.20289,-3.92871 l 3.23454,-1.83987 0,-0.65197 0.0126,-0.006 0,-14.64721 0,-14.64934 0,-1.96013 -2.78091,-1.26808 c -5.14463,-2.34406 -7.47106,-10.18712 -4.27474,-14.41302 2.5633,-3.38899 1.93264,-5.47262 -2.91172,-9.61922 -6.15076,-5.26483 -14.44454,-7.89543 -25.14418,-7.96293 z m 266.25798,3.06574 c -1.4945,-0.006 -2.703,0.20962 -3.684,0.65619 -1.8181,0.28523 -2.3861,0.79833 -2.878,1.7175 -2.17,4.05474 -0.3327,7.02138 5.5576,8.97781 8.7586,2.90914 8.761,2.92175 8.387,32.71887 -0.3611,28.7647 -0.5535,29.54134 -7.7288,31.06468 -3.6961,0.78469 -7.18,3.34273 -7.18,5.27064 0,0.66695 0.7566,2.29171 1.6816,3.61223 1.2477,1.7814 2.5782,2.32332 6.066,2.38845 0.4621,0.0445 0.9235,0.0448 1.3842,0.002 3.8947,-0.0474 4.9316,-0.56573 6.9017,-3.23031 2.8987,-3.92079 5.103,-4.08065 8.7541,-0.63721 2.29,2.15976 4.3267,2.72837 11.9612,3.34637 8.1494,0.65968 9.4949,0.50699 11.7756,-1.33982 2.0139,-1.63069 2.4183,-2.71026 1.8546,-4.95625 -0.5745,-2.28867 -1.6916,-3.11783 -5.4984,-4.0764 -8.9103,-2.24377 -8.6486,-1.10764 -9.0053,-39.16266 -0.053,-5.70789 -0.137,-10.69622 -0.2385,-15.17259 -0.033,-6.37773 -0.1502,-10.91391 -0.5,-14.04588 -0.1983,-3.31434 -0.4238,-5.26614 -0.6667,-5.50906 -0.1247,-0.12478 -0.5846,-0.24329 -1.2132,-0.35869 -1.3161,-1.29793 -3.4807,-1.04756 -6.6274,-0.59712 -2.611,-0.14105 -5.5542,-0.2541 -8.8828,-0.28695 -2.7862,-0.0276 -4.694,-0.0271 -6.5915,-0.0232 -1.3562,-0.22304 -2.5764,-0.35401 -3.629,-0.35868 z m 241.88368,1.28074 c -1.4553,0.055 -2.3506,0.46993 -3.5848,1.27862 -5.169,3.38684 -2.5672,8.40301 5.0682,9.77114 2.2258,0.39882 5.3857,1.87666 7.0219,3.28308 l 1.6625,1.42843 c 1.0947,3.29566 1.402,9.26621 1.6247,20.31453 l 0.2279,13.89819 c 0.054,3.32858 0.1205,5.7971 0.1814,8.59379 0.1992,10.549 0.398,17.24424 0.7533,20.42003 0.2422,3.08809 0.5214,4.63608 0.8524,4.84021 0.1568,0.0967 0.7156,0.18885 1.5276,0.27429 1.4786,1.07477 2.1173,1.07952 5.4795,0.31649 2.8683,0.10598 6.2616,0.17935 9.9695,0.17935 3.3486,0 5.9905,-0.0172 8.1359,-0.0655 3.2535,0.32863 5.1354,0.16263 6.7371,-0.50849 1.4043,-0.28759 2.1405,-0.71209 2.7661,-1.33771 2.7899,-2.78976 0.824,-5.12029 -6.7961,-8.05997 -3.5091,-1.35371 -6.9881,-3.28123 -7.7308,-4.28319 -0.071,-0.0955 -0.1347,-0.24686 -0.2005,-0.38612 -0.1802,-0.48779 -0.3378,-1.03736 -0.4832,-1.6331 -0.4279,-2.12725 -0.6667,-5.6192 -0.6667,-10.18891 0,-9.38263 -0.2611,-10.74119 -2.7007,-14.04799 -3.2869,-4.45511 -3.4783,-9.5224 -0.5043,-13.3032 1.3595,-1.72827 1.8619,-3.09381 1.9601,-7.48185 0.1144,-1.73315 0.1523,-3.90941 0.1477,-6.92905 0,-3.35964 -0.1636,-6.57752 -0.403,-8.90396 l -0.1202,-4.97313 -8.1022,-0.10338 c -4.4562,-0.0566 -11.5998,-0.73734 -15.8753,-1.51283 -3.4772,-0.63071 -5.4926,-0.93482 -6.948,-0.87984 z m -59.57,2.13737 c -1.825,0.042 -2.7997,0.32768 -3.4497,0.86719 -0.011,0.009 -0.018,0.0184 -0.029,0.0274 -1.1864,0.358 -1.3012,0.95231 -1.4431,1.9538 -0.011,0.0764 0,0.14054 -0.013,0.21522 -0.044,0.22703 -0.061,0.45444 -0.042,0.68151 -0.059,2.86375 1.8256,4.40783 6.7771,5.65465 2.5756,0.64853 5.8412,2.11752 7.2582,3.26408 2.565,2.0753 2.5787,2.20774 3.1165,29.56662 0.274,13.94542 0.5017,21.60769 1.2005,25.85312 0.1058,1.16642 0.2104,2.00486 0.3122,2.22389 0.093,0.19975 0.2308,0.38845 0.3862,0.56968 0.8246,2.09825 2.0646,2.40112 4.0299,2.40112 3.0717,0 7.7644,3.6458 8.7246,6.77924 0.4049,1.32136 1.2226,3.01089 1.8168,3.75359 0.2424,0.30305 0.8512,0.54956 1.6879,0.74903 1.5251,0.73428 4.5927,0.86729 8.1992,0.55702 4.1723,-0.0745 8.6915,-0.5288 11.552,-1.39045 9.612,-2.89537 18.0816,-10.0981 16.5546,-14.07754 -0.9468,-2.4671 -4.3823,-2.16221 -10.7122,0.95159 -6.5392,3.21674 -12.6047,3.40932 -17.2403,0.54437 -5.3453,-3.30356 -6.3029,-6.5181 -6.832,-22.95196 -0.3496,-10.85536 -0.8774,-15.15632 -1.975,-16.06721 -1.9403,-1.61039 -1.907,-4.34824 0.086,-6.98392 0.2982,-0.3942 0.5566,-1.22705 0.7808,-2.31038 0.7644,-1.66597 0.9296,-3.67303 0.806,-7.9798 0.2163,-5.34864 -0.033,-11.03973 -0.9074,-12.67443 -0.2609,-0.48758 -0.6612,-0.8454 -1.517,-1.10982 -1.1473,-1.13282 -2.8632,-1.18094 -5.4331,-0.58446 -2.5928,-0.0955 -6.105,-0.12484 -11.1447,-0.12448 -2.6864,1.8e-4 -4.3113,0.0151 -6.2222,0.0253 -2.7203,-0.25849 -4.8997,-0.41693 -6.3278,-0.38402 z m 200.856,4.13971 c -15.5706,0 -22.3208,0.18309 -26.3553,0.90727 -2.802,0.0631 -5.6707,0.1076 -8.3849,0.17935 -2.3766,0.0628 -6.5087,-0.19209 -9.1824,-0.56758 -5.9624,-0.83736 -10.8029,0.80712 -10.8029,3.6692 0,1.14407 7.535,12.66628 16.7445,25.60625 9.2094,12.93997 16.7445,24.08456 16.7445,24.76652 0,0.68195 -3.2814,1.83845 -7.292,2.56779 -4.0106,0.72936 -11.3963,3.30319 -16.4133,5.72006 -19.8763,9.57518 -35.5631,31.44351 -35.6834,49.74401 0,0.47285 0.011,0.88812 0.029,1.27229 l -0.1372,0.8503 0.2722,0.25319 c 0.3019,1.55711 1.1033,2.31656 3.0173,3.30629 0.5736,0.29665 1.1514,0.68708 1.7111,1.10138 1.1353,1.06466 2.06,2.05719 2.7872,3.013 1.5737,3.40527 1.0287,8.99595 -1.2258,11.8621 -1.1172,1.42028 -1.7737,2.53863 -1.9412,3.80001 l -0.5106,0.75113 0.5992,1.15626 c 0.3444,1.6839 1.3448,3.81576 3.0616,7.03666 4.3496,8.1608 13.3542,18.06907 21.0825,23.19881 5.6483,3.74912 6.37,3.95938 9.5939,2.79357 4.4222,-1.59907 6.5781,-0.76326 7.9145,3.06996 1.0064,2.88704 2.8972,3.94559 10.4336,5.83188 1.1883,0.29747 9.4526,0.39942 18.365,0.22788 14.2098,-0.27352 17.1687,-0.65444 24.0322,-3.10373 26.8142,-9.56881 42.8178,-26.92525 44.2623,-48.00119 0.9978,-14.55721 -2.3934,-24.51193 -11.7017,-34.35408 -4.7145,-4.98491 -8.6288,-7.42246 -15.5418,-9.67621 -4.7251,-1.54044 1.7931,-2.81281 17.772,-3.46873 2.52,-0.10349 4.1587,-0.19259 5.9754,-0.28485 3.0614,-0.0645 5.1374,-0.17417 6.602,-0.45575 3.6601,-0.42156 4.6839,-1.06088 5.9964,-2.45808 2.9976,-3.19079 8.5349,-3.34892 13.339,-0.37979 3.4763,2.14843 3.5123,2.14992 11.7946,0.0317 11.3647,-2.9066 22.6335,-9.06417 29.9274,-16.35417 7.3463,-7.34237 10.1068,-13.67659 9.3576,-21.47288 -0.646,-6.72301 -3.2656,-9.96191 -7.6949,-9.51373 -4.6038,0.46585 -5.7564,2.93986 -3.9371,8.45243 1.3633,4.13099 1.3091,4.88581 -0.6056,8.41868 -4.5596,8.41273 -16.5636,11.6865 -47.9421,13.0732 -13.2037,0.58351 -25.5073,1.71785 -30.3219,2.79356 -15.5096,3.46522 -34.5693,14.73304 -34.5693,20.4369 0,2.76396 -2.72,5.60662 -5.9269,6.19479 -3.6464,0.66876 -7.32,8.90399 -7.8827,17.67288 -0.6053,9.43151 0.9122,14.5985 5.3909,18.36705 1.9075,1.60507 4.0557,2.41957 6.0281,2.46442 1.4619,0.1561 2.7452,-0.23238 3.6607,-0.99378 0.6231,-0.41301 1.173,-0.94785 1.6141,-1.61623 1.3739,-2.08187 1.1678,-2.6946 -2.3082,-6.8552 -4.644,-5.55844 -5.0814,-10.79336 -1.3652,-16.35628 5.2901,-7.91864 14.8929,-9.56754 24.3023,-4.17134 10.3818,5.95386 14.8648,15.26314 14.1261,29.33031 -0.2885,5.4932 -1.2137,9.54506 -3.0341,13.30107 -5.2641,10.86175 -19.6815,22.16007 -34.6051,27.11698 -3.2258,1.07144 -7.2822,1.71599 -11.5077,1.9517 -1.1108,0.0217 -2.3108,0.0361 -3.6354,0.0422 -1.0197,0.004 -1.8581,0.002 -2.7261,0.002 -5.1186,-0.21095 -10.0076,-1.01473 -13.5037,-2.40745 -12.3932,-4.93719 -24.6741,-18.01913 -30.305,-32.28001 -2.0968,-5.30996 -2.4993,-8.36163 -2.5447,-19.27221 -0.084,-20.34547 4.3669,-30.41563 18.0274,-40.7873 9.0796,-6.89371 16.1504,-9.44621 26.1633,-9.44621 4.3854,0 8.7406,-0.29555 9.6804,-0.6562 2.456,-0.94249 2.1055,-4.10602 -0.8461,-7.63377 -6.9147,-8.26451 -22.2872,-31.435 -22.2872,-33.59872 -0.011,-3.79817 3.8211,-4.56381 22.7915,-4.56381 16.5405,0 17.3417,0.10036 19.3841,2.43066 8.4256,9.61332 8.775,9.78291 13.0669,6.30872 2.2717,-1.83891 2.5906,-3.11661 2.9201,-11.68064 0.4292,-11.15368 -1.3583,-17.11809 -5.431,-18.12863 -0.5265,-0.13064 -3.4962,-0.20223 -7.9397,-0.22788 -4.7855,-0.25362 -11.8311,-0.30804 -22.4793,-0.30804 z m 651.4532,6.64421 c 6.8786,0.0264 12.6663,2.45558 18.2405,7.59368 16.1582,14.89419 10.5778,47.7479 -9.1129,53.6474 -5.0963,1.52687 -13.4145,1.45334 -18.5189,-0.16457 -2.0796,-0.65914 -6.0196,-3.43395 -8.7563,-6.16526 -6.3294,-6.31694 -8.8112,-13.38452 -8.8112,-25.08299 0,-7.60069 0.411,-9.37217 3.6524,-15.72541 4.6251,-9.0653 10.4501,-13.07563 20.2891,-13.96781 1.0299,-0.0933 2.0346,-0.1388 3.0173,-0.13504 z M 652.87717,370.73742 c -4.56625,-0.1902 -9.15717,1.89329 -11.4612,6.34881 -2.11677,4.09336 -2.09782,10.78472 0.0401,13.83701 1.578,2.25289 1.86992,2.30029 4.80856,0.78067 4.10122,-2.12083 9.12873,-2.05351 12.5204,0.1688 2.43782,1.59731 2.901,1.61429 4.36547,0.1498 2.54593,-2.54593 3.07663,-9.69093 1.0381,-13.9868 -2.20338,-4.64327 -6.74515,-7.1081 -11.31141,-7.29829 z"
       id="path4242"
       inkscape:connector-curvature="0" />
  </g>
</svg>
