<?xml version="1.0" encoding="UTF-8" standalone="no"?>
<!-- Created with Inkscape (http://www.inkscape.org/) -->

<svg
   xmlns:dc="http://purl.org/dc/elements/1.1/"
   xmlns:cc="http://creativecommons.org/ns#"
   xmlns:rdf="http://www.w3.org/1999/02/22-rdf-syntax-ns#"
   xmlns:svg="http://www.w3.org/2000/svg"
   xmlns="http://www.w3.org/2000/svg"
   xmlns:xlink="http://www.w3.org/1999/xlink"
   xmlns:sodipodi="http://sodipodi.sourceforge.net/DTD/sodipodi-0.dtd"
   xmlns:inkscape="http://www.inkscape.org/namespaces/inkscape"
   id="svg2"
   version="1.1"
   inkscape:version="0.92.1 renderfarm"
   width="2481"
   height="3503"
   sodipodi:docname="Pepper-and-Carrot_by-David-Revoy_E03P02_092.svg">
  <sodipodi:namedview pagecolor="#ffffff" bordercolor="#666666" inkscape:pageopacity="0" inkscape:pageshadow="2" inkscape:window-width="1813" inkscape:window-height="955" id="namedview70" showgrid="false" inkscape:zoom="0.4" inkscape:cx="1284.4231" inkscape:cy="2618.6204" inkscape:current-layer="layer1" /><metadata
     id="metadata8">
    <rdf:RDF>
      <cc:Work
         rdf:about="">
        <dc:format>image/svg+xml</dc:format>
        <dc:type
           rdf:resource="http://purl.org/dc/dcmitype/StillImage" />
        <dc:title />
      </cc:Work>
    </rdf:RDF>
  </metadata>
  <defs
     id="defs6" />
  <sodipodi:namedview
     pagecolor="#ffffff"
     bordercolor="#666666"
     borderopacity="1"
     objecttolerance="10"
     gridtolerance="10"
     guidetolerance="10"
     inkscape:pageopacity="0"
     inkscape:pageshadow="2"
     inkscape:window-width="1920"
     inkscape:window-height="1026"
     id="namedview4"
     showgrid="false"
     inkscape:zoom="0.33628312"
     inkscape:cx="882.70995"
     inkscape:cy="1297.5519"
     inkscape:window-x="0"
     inkscape:window-y="27"
     inkscape:window-maximized="1"
     inkscape:current-layer="layer1" />
  <g
     inkscape:groupmode="layer"
     id="layer3"
     inkscape:label="artwork"
     sodipodi:insensitive="true">
    <image
       sodipodi:absref="/home/deevad/peppercarrot/webcomics/ep03_The-secret-ingredients/lang/vi/../gfx_Pepper-and-Carrot_by-David-Revoy_E03P02.png"
       xlink:href="../gfx_Pepper-and-Carrot_by-David-Revoy_E03P02.png"
       width="2481"
       height="3503"
       id="image10"
       x="0"
       y="0" />
  </g>
  <g
     inkscape:groupmode="layer"
     id="layer2"
     inkscape:label="speechbubbles">
    <path
       style="color:#000000;display:inline;overflow:visible;visibility:visible;fill:#ffffff;fill-opacity:1;fill-rule:nonzero;stroke:none;stroke-width:1px;marker:none;enable-background:accumulate"
       d="m 815.92394,1338.0331 c 26.24678,-47.6331 46.66094,-50.5494 61.24248,-54.4378 1.94421,4.8605 6.80472,12.6373 6.80472,12.6373 0,0 28.19098,-10.6931 39.85622,-10.6931 11.66523,0 11.66523,16.5258 11.66523,16.5258 0,0 -54.43776,22.3583 -65.13089,31.1072 -4.86051,-13.6094 -8.74892,-19.442 -8.74892,-25.2746 -8.74893,-0.9721 -35.96781,13.6094 -45.68884,30.1352 z"
       id="path4456"
       inkscape:connector-curvature="0" />
    <path
       style="color:#000000;display:inline;overflow:visible;visibility:visible;fill:#ffffff;fill-opacity:1;fill-rule:nonzero;stroke:none;stroke-width:1px;marker:none;enable-background:accumulate"
       d="m 901.46899,1149.6819 c -20.41416,21.1525 -25.27467,47.3413 -23.33047,59.4285 1.94421,12.0872 29.16309,68.494 31.10729,83.6029 1.94421,15.109 -27.21887,82.5955 -21.38626,104.7554 5.83262,22.1598 23.33047,88.6392 100.12661,94.6828 76.79614,6.0435 97.21034,-7.0509 121.51284,-7.0509 24.3026,0 114.7082,19.138 128.3176,16.1162 13.6095,-3.0218 20.4142,-8.0581 30.1352,-10.0726 9.721,-2.0145 82.6287,1.0073 107.9034,-48.3487 25.2747,-49.3559 27.2189,-66.4794 14.5816,-100.7264 -12.6374,-34.2468 -3.8884,-70.5083 6.8047,-111.8062 10.6931,-41.2978 -13.1223,-84.7033 -29.1631,-91.6609 -41.8004,-18.1308 -418.97637,-47.3414 -466.60941,11.0799 z"
       id="path4464"
       inkscape:connector-curvature="0"
       sodipodi:nodetypes="csssssssssssc" />
    <path
       style="color:#000000;display:inline;overflow:visible;visibility:visible;fill:#ffffff;fill-opacity:1;fill-rule:nonzero;stroke:none;stroke-width:1px;marker:none;enable-background:accumulate"
       d="m 908.03615,1729.7825 c 2.9569,-57.6594 34.00428,-82.793 44.35341,-88.7068 10.34913,-5.9138 20.6983,-56.181 189.24124,-66.5301 102.0128,-5.9138 149.3231,31.0473 159.6723,34.0042 10.3491,2.9569 89.795,78.5027 71.3623,142.2915 -13.306,46.0471 -29.0244,62.8251 -56.2173,71.3986 -31.2877,9.8646 -223.606,12.5123 -266.481,0.6847 -42.875,-11.8275 -124.18958,5.9138 -141.93095,-93.1421 z"
       id="path4472"
       inkscape:connector-curvature="0"
       sodipodi:nodetypes="cscssssc" />
    <path
       style="color:#000000;display:inline;overflow:visible;visibility:visible;fill:#ffffff;fill-opacity:1;fill-rule:nonzero;stroke:none;stroke-width:1px;marker:none;enable-background:accumulate"
       d="m 1370.3394,1727.9435 c 49.7882,35.7734 123.3881,38.0092 147.1998,35.7734 -62.7763,19.0046 -125.5527,21.2404 -158.0232,-4.4717 -32.4706,-25.7121 10.8234,-31.3017 10.8234,-31.3017 z"
       id="path4480"
       inkscape:connector-curvature="0" />
    <path
       style="color:#000000;display:inline;overflow:visible;visibility:visible;fill:#ffffff;fill-opacity:1;fill-rule:nonzero;stroke:none;stroke-width:1px;marker:none;enable-background:accumulate"
       d="m 1107.2633,2025.3097 c -10e-5,-24.5941 7.8253,-36.8912 13.4149,-41.3629 5.5896,-4.4717 0,-25.7121 34.6555,-39.1271 34.6555,-13.4151 105.0843,-10.0613 115.1456,-8.9434 11.1792,-5.5896 115.1456,-8.9433 160.9802,32.4196 45.8347,41.363 69.3109,109.556 -19.0046,140.8577 64.8393,22.3584 152.0369,97.2589 146.4473,169.9236 -5.5896,72.6647 -140.8577,162.0982 -243.7062,175.5132 -102.8485,13.415 -260.475,-64.8393 -279.4796,-131.9144 -19.0046,-67.0751 34.6555,-173.2773 60.3676,-187.8102 25.7121,-14.533 57.0139,-21.2405 78.2543,-26.8301 -52.5422,-15.6508 -67.0751,-65.9572 -67.075,-82.726 z"
       id="path4488"
       inkscape:connector-curvature="0"
       sodipodi:nodetypes="csscscsssscc" />
    <path
       style="color:#000000;display:inline;overflow:visible;visibility:visible;fill:#ffffff;fill-opacity:1;fill-rule:nonzero;stroke:none;stroke-width:1px;marker:none;enable-background:accumulate"
       d="m 915.83817,2334.4704 c 5.57335,17.1181 11.16282,35.0294 23.39088,48.7241 3.55856,3.8199 7.50649,7.5251 12.13185,9.9498 5.37245,1.4498 10.84942,-1.4122 14.12754,-5.6132 5.15892,-5.7353 8.19632,-13.9047 15.56852,-17.285 5.4261,-2.3306 10.8729,0.8814 15.6761,3.1704 12.12844,6.0748 23.50504,13.8279 36.54044,17.9363 14.3756,5.5799 29.9067,10.4081 45.4842,8.0016 6.1477,-1.0555 12.4312,-3.0194 17.0066,-7.4624 12.2544,-10.8656 18.4537,-28.9219 13.6291,-44.8231 -4.0403,-9.8511 -16.6784,-15.851 -26.5414,-11.0096 -5.2446,2.4777 -7.97,8.0957 -8.8455,13.5685 -3.4893,9.7595 -12.4516,16.8979 -22.4619,19.0846 -8.2318,1.9398 -16.9874,1.2749 -24.9579,-1.4727 -11.8256,-0.8743 -20.7496,-9.4594 -30.32914,-15.4411 -4.4172,-2.6676 -9.2966,-5.2059 -14.5159,-5.4716 -7.5326,1.3916 -11.8483,8.4752 -14.80768,14.8891 -3.22265,6.5363 -6.22228,14.4823 -13.58052,17.3225 -4.84088,2.6585 -8.79493,-2.5041 -12.54101,-4.8769 -11.06465,-9.2145 -19.10985,-21.7672 -24.06428,-35.1993 -0.37642,-1.3148 -0.64489,-2.6514 -0.91,-3.992 z"
       id="path4496"
       inkscape:connector-curvature="0" />
    <path
       style="color:#000000;display:inline;overflow:visible;visibility:visible;fill:#ffffff;fill-opacity:1;fill-rule:nonzero;stroke:none;stroke-width:1px;marker:none;enable-background:accumulate"
       d="m 1527.5272,2583.7481 c 4.4742,-26.8453 35.7937,-46.0205 73.5049,-45.3813 37.7112,0.6391 65.1957,33.8761 58.1648,58.8039 -7.0309,24.9278 -33.237,39.6288 -70.3091,35.1545 -37.0721,-4.4742 -65.8349,-30.0411 -61.3606,-48.5771 z"
       id="path4514"
       inkscape:connector-curvature="0" />
    <path
       style="color:#000000;display:inline;overflow:visible;visibility:visible;fill:#ffffff;fill-opacity:1;fill-rule:nonzero;stroke:none;stroke-width:1px;marker:none;enable-background:accumulate"
       d="m 1653.4443,2591.4181 c 17.8969,-1.2783 37.0721,-7.0309 39.6288,-17.8968 1.9175,14.701 -14.701,36.4329 -41.5463,35.1545 -26.8453,-1.2783 -19.8144,-14.701 -19.8144,-14.701 z"
       id="path4522"
       inkscape:connector-curvature="0" />
    <path
       style="color:#000000;display:inline;overflow:visible;visibility:visible;fill:#ffffff;fill-opacity:1;fill-rule:nonzero;stroke:none;stroke-width:1px;marker:none;enable-background:accumulate"
       d="m 712.88104,2945.8911 c 26.62073,-69.1267 87.48926,-113.736 239.1373,-109.8476 151.64806,3.8885 179.83906,16.5258 200.25326,34.9957 20.4141,18.47 50.5493,124.4292 34.9957,197.3369 -15.5537,72.9077 -77.7683,149.7039 -226.50003,143.8713 -148.73174,-5.8327 -149.03739,-8.4922 -172.06221,-23.3305 -43.74463,-28.191 -102.44475,-173.8991 -75.82402,-243.0258 z"
       id="path4530"
       inkscape:connector-curvature="0"
       sodipodi:nodetypes="zsssssz" />
    <path
       style="color:#000000;display:inline;overflow:visible;visibility:visible;fill:#ffffff;fill-opacity:1;fill-rule:nonzero;stroke:none;stroke-width:1px;marker:none;enable-background:accumulate"
       d="m 704.13211,3258.9083 c 27.21888,10.6931 31.10729,9.721 39.85622,-1.9442 8.74893,-11.6652 17.49785,-31.1073 43.74463,-34.9957 26.24678,-3.8884 38.88411,5.8326 47.63304,11.6652 1.9442,-18.4699 -7.77682,-45.6888 -16.52575,-56.3819 -8.74893,-10.6932 53.46566,7.7768 53.46566,7.7768 0,0 8.74892,47.633 -7.77683,65.1309 -16.52574,17.4978 -53.46565,-4.8605 -71.93561,-4.8605 -18.46995,0 -32.07939,26.2467 -46.66093,29.163 -14.58155,2.9163 -30.13519,-7.7768 -41.80043,-15.5536 z"
       id="path4538"
       inkscape:connector-curvature="0" />
    <path
       style="color:#000000;display:inline;overflow:visible;visibility:visible;fill:#ffffff;fill-opacity:1;fill-rule:nonzero;stroke:none;stroke-width:1px;marker:none;enable-background:accumulate"
       d="m 1266.6785,3022.5151 c 6.7075,-64.8392 62.9668,-110.0538 204.5791,-91.6693 75.8551,9.8477 162.0981,17.8867 153.1548,112.9098 -8.9434,95.023 -133.0323,87.1976 -158.7444,88.3155 -25.7122,1.118 -158.8791,-14.6531 -181.1028,-48.0705 -13.9115,-20.9185 -19.0046,-41.3629 -17.8867,-61.4855 z"
       id="path4546"
       inkscape:connector-curvature="0"
       sodipodi:nodetypes="cssssc" />
    <path
       style="color:#000000;display:inline;overflow:visible;visibility:visible;fill:#ffffff;fill-opacity:1;fill-rule:nonzero;stroke:none;stroke-width:1px;marker:none;enable-background:accumulate"
       d="m 1276.0689,3210.3031 c 7.2989,-43.2195 93.9051,-65.9571 122.971,-63.7213 29.0659,2.2358 103.9664,13.415 121.8531,13.415 17.8867,0 82.7259,-7.8254 106.2022,-10.0612 23.4763,-2.2359 52.5422,38.0092 50.3063,54.778 -2.2358,16.7687 -42.6078,79.461 -104.0933,85.0506 -61.4855,5.5896 -102.8358,17.5432 -133.9978,15.7144 -45.9337,-2.6958 -93.9306,-15.8033 -120.7606,-31.4541 -26.8301,-15.6509 -49.7798,-20.5019 -42.4809,-63.7214 z"
       id="path4554"
       inkscape:connector-curvature="0"
       sodipodi:nodetypes="zsssssssz" />
    <path
       style="color:#000000;display:inline;overflow:visible;visibility:visible;fill:#ffffff;fill-opacity:1;fill-rule:nonzero;stroke:none;stroke-width:1px;marker:none;enable-background:accumulate"
       d="m 1431.4595,3116.398 c 15.6509,39.1272 126.3248,118.4994 138.6219,131.9144 12.2971,13.415 38.0092,32.4196 58.1317,35.7734 20.1226,3.3537 29.8656,-15.8488 47.3048,-18.9433 14.983,-2.6587 26.4778,2.1745 35.4212,12.2357 -14.533,-25.7121 -39.1272,-25.7121 -49.1884,-21.2404 -10.0613,4.4717 -27.948,17.8867 -44.7168,5.5896 -16.7687,-12.2971 -86.0797,-88.3156 -103.9664,-91.6693 -17.8867,-3.3538 -40.245,-29.0659 -40.245,-43.5988 0,-14.533 -41.363,-10.0613 -41.363,-10.0613 z"
       id="path4562"
       inkscape:connector-curvature="0"
       sodipodi:nodetypes="cssscssssc" />
    <path
       style="fill:#ffffff;fill-opacity:1;stroke:none"
       d="m 339.92272,274.33105 c -5.3873,-67.51221 30.3459,-101.09651 62.8813,-117.00561 41.2339,-20.1625 338.6897,-42.6342 374.5844,13.878 33.0577,52.0459 56.5446,147.73251 -42.1656,194.99931 -98.7102,47.2668 -263.4509,21.3767 -291.4935,12.7827 -28.0427,-8.594 -98.198,-31.6058 -103.8066,-104.6544 z"
       id="path3659-8"
       inkscape:connector-curvature="0"
       sodipodi:nodetypes="cssssc" />
    <path
       style="color:#000000;display:inline;overflow:visible;visibility:visible;fill:#ffffff;fill-opacity:1;fill-rule:nonzero;stroke:none;stroke-width:1px;marker:none;enable-background:accumulate"
       d="m 759.71712,264.42235 c 51.7523,-9.5221 144.3491,25.7804 152.6806,130.3799 -39.6949,-95.7771 -111.5887,-108.522 -153.522,-93.2934 -39.7368,14.4308 -28.4367,-12.3696 -28.4367,-12.3696 z"
       id="path4440-1"
       inkscape:connector-curvature="0"
       sodipodi:nodetypes="ccscc" />
    <path
       style="color:#000000;display:inline;overflow:visible;visibility:visible;fill:#ffffff;fill-opacity:1;fill-rule:nonzero;stroke:none;stroke-width:1px;marker:none;enable-background:accumulate"
       d="m 1969.9411,308.92415 c -2.8517,-0.3412 -11.1967,37.1896 -11.1967,37.1896 0,0 -9.6125,7.4962 -11.4453,9.4383 -0.7114,7.4801 0.7366,17.3799 0.7366,17.3799 l -29.369,11.6174 16.5975,-14.2257 -7.4782,-14.9439 14.6623,-15.5381 7.5275,-27.7153 z"
       id="path4448-7"
       inkscape:connector-curvature="0"
       sodipodi:nodetypes="cccccccccc" />
    <path
       style="color:#000000;display:inline;overflow:visible;visibility:visible;fill:#ffffff;fill-opacity:1;fill-rule:nonzero;stroke:none;stroke-width:1px;marker:none;enable-background:accumulate"
       d="m 1857.6558,253.83515 10.5029,19.7578 -14.8609,3.9041 7.1217,7.6936 7.162,5.5676 9.4016,3.1225 -9.0108,12.7594 12.7899,1.3014 1.3462,10.4107 11.4435,8.4588 9.424,-5.8561 4.7345,11.587 19.4987,-7.0323 4.0389,7.8081 10.7703,-5.856 25.5794,10.4107 1.3463,-8.4587 8.0778,9.1094 2.0195,-11.0614 12.1166,9.76 18.8479,-11.7121 16.1555,-1.3013 2.0195,-9.1094 12.7897,6.5067 -4.712,-17.5682 22.2138,-11.7121 2.6926,-13.0135 -4.0389,-4.5547 -2.6926,-7.1574 12.1166,-8.4587 -18.1749,1.952 16.1554,-9.7601 -13.738,-5.7588 -9.6389,0.3131 -4.0047,-3.2713 -5.8863,-11.91951 -15.2768,8.34081 -8.3359,-16.98461 -17.3182,14.18511 -6.2946,-9.97141 -9.6593,6.4302 -10.129,-3.8752 -12.8066,-13.9261 -8.4794,13.8374 -14.6035,-6.4229 -10.1125,11.1101 -17.5024,-8.6047 -2.5045,7.9122 -13.3513,5.74031 -13.7188,-4.63721 2.7227,17.45971 z"
       id="path4448-1-6"
       inkscape:connector-curvature="0"
       sodipodi:nodetypes="cccccccccccccccccccccccccccccccccccccccccccccccccccc" />
  </g>
  <g
     inkscape:groupmode="layer"
     id="layer1"
     inkscape:label="txt">
    <flowRoot
       xml:space="preserve"
       id="flowRoot2987"
       style="font-style:normal;font-variant:normal;font-weight:normal;font-stretch:normal;line-height:0.01%;font-family:Arial;-inkscape-font-specification:Arial;letter-spacing:0px;word-spacing:0px;fill:#000000;fill-opacity:1;stroke:none"
       transform="translate(-136.02088,-451.54088)"><flowRegion
         id="flowRegion2989"><rect
           id="rect2991"
           width="461.41684"
           height="243.72992"
           x="481.16055"
           y="638.16943" /></flowRegion><flowPara
         style="font-style:normal;font-variant:normal;font-weight:500;font-stretch:normal;font-size:48px;line-height:1.25;font-family:'Rounded M+ 1c';-inkscape-font-specification:'Rounded M+ 1c Medium';text-align:center;text-anchor:middle"
         id="flowPara2997">Xin lỗi..., tôi </flowPara><flowPara
         style="font-style:normal;font-variant:normal;font-weight:500;font-stretch:normal;font-size:48px;line-height:1.25;font-family:'Rounded M+ 1c';-inkscape-font-specification:'Rounded M+ 1c Medium';text-align:center;text-anchor:middle"
         id="flowPara3415">chỉ có đủ cho bốn trái.</flowPara></flowRoot>    <flowRoot
       xml:space="preserve"
       id="flowRoot2987-4"
       style="font-style:normal;font-variant:normal;font-weight:normal;font-stretch:normal;line-height:0.01%;font-family:Arial;-inkscape-font-specification:Arial;letter-spacing:0px;word-spacing:0px;fill:#000000;fill-opacity:1;stroke:none"
       transform="translate(1244.543,-382.09742)"><flowRegion
         id="flowRegion2989-7"><rect
           id="rect2991-1"
           width="472.65948"
           height="178.52246"
           x="481.16055"
           y="638.16943" /></flowRegion><flowPara
         style="font-style:normal;font-variant:normal;font-weight:500;font-stretch:normal;font-size:40px;line-height:1.25;font-family:'Rounded M+ 1c';-inkscape-font-specification:'Rounded M+ 1c Medium';text-align:center;text-anchor:middle"
         id="flowPara2997-1">Hừ...</flowPara></flowRoot>    <flowRoot
       xml:space="preserve"
       id="flowRoot2987-5"
       style="font-style:normal;font-variant:normal;font-weight:normal;font-stretch:normal;line-height:0.01%;font-family:Arial;-inkscape-font-specification:Arial;letter-spacing:0px;word-spacing:0px;fill:#000000;fill-opacity:1;stroke:none"
       transform="translate(356.10871,517.86506)"><flowRegion
         id="flowRegion2989-6"><rect
           id="rect2991-0"
           width="598.64893"
           height="340.50882"
           x="481.16055"
           y="638.16943" /></flowRegion><flowPara
         style="font-style:normal;font-variant:normal;font-weight:500;font-stretch:normal;font-size:44.375px;line-height:1.25;font-family:'Rounded M+ 1c';-inkscape-font-specification:'Rounded M+ 1c Medium';text-align:center;text-anchor:middle"
         id="flowPara2997-6">Xin chào quí ngài.</flowPara><flowPara
         style="font-style:normal;font-variant:normal;font-weight:500;font-stretch:normal;font-size:44.375px;line-height:1.25;font-family:'Rounded M+ 1c';-inkscape-font-specification:'Rounded M+ 1c Medium';text-align:center;text-anchor:middle"
         id="flowPara3426">Làm ơn chuẩn bị</flowPara><flowPara
         style="font-style:normal;font-variant:normal;font-weight:500;font-stretch:normal;font-size:44.375px;line-height:1.25;font-family:'Rounded M+ 1c';-inkscape-font-specification:'Rounded M+ 1c Medium';text-align:center;text-anchor:middle"
         id="flowPara3436">một tá các thứ</flowPara><flowPara
         style="font-style:normal;font-variant:normal;font-weight:500;font-stretch:normal;font-size:44.375px;line-height:1.25;font-family:'Rounded M+ 1c';-inkscape-font-specification:'Rounded M+ 1c Medium';text-align:center;text-anchor:middle"
         id="flowPara3442">cho tôi, </flowPara><flowPara
         style="font-style:normal;font-variant:normal;font-weight:500;font-stretch:normal;font-size:44.375px;line-height:1.25;font-family:'Rounded M+ 1c';-inkscape-font-specification:'Rounded M+ 1c Medium';text-align:center;text-anchor:middle"
         id="flowPara3438">Chất lượng cao, </flowPara><flowPara
         style="font-style:normal;font-variant:normal;font-weight:500;font-stretch:normal;font-size:44.375px;line-height:1.25;font-family:'Rounded M+ 1c';-inkscape-font-specification:'Rounded M+ 1c Medium';text-align:center;text-anchor:middle"
         id="flowPara3434">như mọi khi.  </flowPara></flowRoot>    <flowRoot
       xml:space="preserve"
       id="flowRoot2987-5-4"
       style="font-style:normal;font-variant:normal;font-weight:normal;font-stretch:normal;line-height:0.01%;font-family:Arial;-inkscape-font-specification:Arial;letter-spacing:0px;word-spacing:0px;fill:#000000;fill-opacity:1;stroke:none"
       transform="translate(415.29626,973.72424)"><flowRegion
         id="flowRegion2989-6-3"><rect
           id="rect2991-0-3"
           width="495.15762"
           height="238.49596"
           x="481.16055"
           y="638.16943" /></flowRegion><flowPara
         style="font-style:normal;font-variant:normal;font-weight:500;font-stretch:normal;font-size:45px;line-height:1.25;font-family:'Rounded M+ 1c';-inkscape-font-specification:'Rounded M+ 1c Medium';text-align:center;text-anchor:middle"
         id="flowPara3453">Rất vui khi</flowPara><flowPara
         style="font-style:normal;font-variant:normal;font-weight:500;font-stretch:normal;font-size:45px;line-height:1.25;font-family:'Rounded M+ 1c';-inkscape-font-specification:'Rounded M+ 1c Medium';text-align:center;text-anchor:middle"
         id="flowPara3457">được giúp cô,</flowPara><flowPara
         style="font-style:normal;font-variant:normal;font-weight:500;font-stretch:normal;font-size:45px;line-height:1.25;font-family:'Rounded M+ 1c';-inkscape-font-specification:'Rounded M+ 1c Medium';text-align:center;text-anchor:middle"
         id="flowPara3459">cô Saffron</flowPara></flowRoot>    <flowRoot
       xml:space="preserve"
       id="flowRoot2987-5-4-3"
       style="font-style:normal;font-variant:normal;font-weight:normal;font-stretch:normal;line-height:0.01%;font-family:Arial;-inkscape-font-specification:Arial;letter-spacing:0px;word-spacing:0px;fill:#000000;fill-opacity:1;stroke:none"
       transform="translate(655.2445,1335.9016)"><flowRegion
         id="flowRegion2989-6-3-5"><rect
           id="rect2991-0-3-3"
           width="325.25967"
           height="158.84502"
           x="481.16055"
           y="638.16943" /></flowRegion><flowPara
         style="font-style:normal;font-variant:normal;font-weight:500;font-stretch:normal;font-size:45px;line-height:1.25;font-family:'Rounded M+ 1c';-inkscape-font-specification:'Rounded M+ 1c Medium';text-align:center;text-anchor:middle"
         id="flowPara3178">Nhìn kìa,</flowPara><flowPara
         style="font-style:normal;font-variant:normal;font-weight:500;font-stretch:normal;font-size:45px;line-height:1.25;font-family:'Rounded M+ 1c';-inkscape-font-specification:'Rounded M+ 1c Medium';text-align:center;text-anchor:middle"
         id="flowPara3463">đó là Hạt Tiêu.</flowPara></flowRoot>    <flowRoot
       xml:space="preserve"
       id="flowRoot2987-5-4-3-8"
       style="font-style:normal;font-variant:normal;font-weight:normal;font-stretch:normal;line-height:0.01%;font-family:Arial;-inkscape-font-specification:Arial;letter-spacing:0px;word-spacing:0px;fill:#000000;fill-opacity:1;stroke:none"
       transform="translate(548.84964,1519.1516)"><flowRegion
         id="flowRegion2989-6-3-5-1"><rect
           id="rect2991-0-3-3-7"
           width="531.25763"
           height="239.63644"
           x="481.16055"
           y="638.16943" /></flowRegion><flowPara
         style="font-style:normal;font-variant:normal;font-weight:500;font-stretch:normal;font-size:45px;line-height:1.25;font-family:'Rounded M+ 1c';-inkscape-font-specification:'Rounded M+ 1c Medium';text-align:center;text-anchor:middle"
         id="flowPara3214">Tui đoán là </flowPara><flowPara
         style="font-style:normal;font-variant:normal;font-weight:500;font-stretch:normal;font-size:45px;line-height:1.25;font-family:'Rounded M+ 1c';-inkscape-font-specification:'Rounded M+ 1c Medium';text-align:center;text-anchor:middle"
         id="flowPara3470">chuyện làm ăn </flowPara><flowPara
         style="font-style:normal;font-variant:normal;font-weight:500;font-stretch:normal;font-size:45px;line-height:1.25;font-family:'Rounded M+ 1c';-inkscape-font-specification:'Rounded M+ 1c Medium';text-align:center;text-anchor:middle"
         id="flowPara3472">không tốt khi ở ngoại thành nhỉ?</flowPara></flowRoot>    <flowRoot
       xml:space="preserve"
       id="flowRoot2987-5-4-3-3"
       style="font-style:normal;font-variant:normal;font-weight:normal;font-stretch:normal;line-height:0.01%;font-family:Arial;-inkscape-font-specification:Arial;letter-spacing:0px;word-spacing:0px;fill:#000000;fill-opacity:1;stroke:none"
       transform="matrix(1.1166839,0,0,1.2016907,884.86096,1771.4848)"><flowRegion
         id="flowRegion2989-6-3-5-2"><rect
           id="rect2991-0-3-3-1"
           width="316.26553"
           height="145.35382"
           x="481.16055"
           y="638.16943" /></flowRegion><flowPara
         style="font-style:normal;font-variant:normal;font-weight:normal;font-stretch:normal;font-size:48px;line-height:1.25;font-family:Lavi;-inkscape-font-specification:Lavi;text-align:center;text-anchor:middle"
         id="flowPara3178-4">...</flowPara></flowRoot>    <flowRoot
       xml:space="preserve"
       id="flowRoot2987-5-4-3-8-4"
       style="font-style:normal;font-variant:normal;font-weight:normal;font-stretch:normal;line-height:0.01%;font-family:Arial;-inkscape-font-specification:Arial;letter-spacing:0px;word-spacing:0px;fill:#000000;fill-opacity:1;stroke:none"
       transform="translate(223.25577,2227.3551)"><flowRegion
         id="flowRegion2989-6-3-5-1-2"><rect
           id="rect2991-0-3-3-7-1"
           width="504.02832"
           height="347.90109"
           x="481.16055"
           y="638.16943" /></flowRegion><flowPara
         style="font-style:normal;font-variant:normal;font-weight:500;font-stretch:normal;font-size:45px;line-height:1.25;font-family:'Rounded M+ 1c';-inkscape-font-specification:'Rounded M+ 1c Medium';text-align:center;text-anchor:middle"
         id="flowPara3288">Tui đoán là </flowPara><flowPara
         style="font-style:normal;font-variant:normal;font-weight:500;font-stretch:normal;font-size:45px;line-height:1.25;font-family:'Rounded M+ 1c';-inkscape-font-specification:'Rounded M+ 1c Medium';text-align:center;text-anchor:middle"
         id="flowPara3481">cô đã chuẩn bị </flowPara><flowPara
         style="font-style:normal;font-variant:normal;font-weight:500;font-stretch:normal;font-size:45px;line-height:1.25;font-family:'Rounded M+ 1c';-inkscape-font-specification:'Rounded M+ 1c Medium';text-align:center;text-anchor:middle"
         id="flowPara3483">nguyên liệu cho cuộc thi thần dược</flowPara><flowPara
         style="font-style:normal;font-variant:normal;font-weight:500;font-stretch:normal;font-size:45px;line-height:1.25;font-family:'Rounded M+ 1c';-inkscape-font-specification:'Rounded M+ 1c Medium';text-align:center;text-anchor:middle"
         id="flowPara3292">ngày mai, phải chứ?</flowPara></flowRoot>    <flowRoot
       xml:space="preserve"
       id="flowRoot2987-5-4-3-8-4-1"
       style="font-style:normal;font-variant:normal;font-weight:normal;font-stretch:normal;line-height:0.01%;font-family:Arial;-inkscape-font-specification:Arial;letter-spacing:0px;word-spacing:0px;fill:#000000;fill-opacity:1;stroke:none"
       transform="translate(791.12268,2333.1146)"><flowRegion
         id="flowRegion2989-6-3-5-1-2-0"><rect
           id="rect2991-0-3-3-7-1-3"
           width="328.09311"
           height="154.22458"
           x="481.16055"
           y="638.16943" /></flowRegion><flowPara
         style="font-style:normal;font-variant:normal;font-weight:500;font-stretch:normal;font-size:45px;line-height:1.25;font-family:'Rounded M+ 1c';-inkscape-font-specification:'Rounded M+ 1c Medium';text-align:center;text-anchor:middle"
         id="flowPara3347">... cuộc thi thần dược?</flowPara></flowRoot>    <flowRoot
       xml:space="preserve"
       id="flowRoot2987-5-4-3-8-4-1-1"
       style="font-style:normal;font-variant:normal;font-weight:normal;font-stretch:normal;line-height:0.01%;font-family:Arial;-inkscape-font-specification:Arial;letter-spacing:0px;word-spacing:0px;fill:#000000;fill-opacity:1;stroke:none"
       transform="translate(834.8748,2546.9913)"><flowRegion
         id="flowRegion2989-6-3-5-1-2-0-9"><rect
           id="rect2991-0-3-3-7-1-3-7"
           width="328.09311"
           height="154.22458"
           x="481.16055"
           y="638.16943" /></flowRegion><flowPara
         style="font-style:normal;font-variant:normal;font-weight:500;font-stretch:normal;font-size:45px;line-height:1.25;font-family:'Rounded M+ 1c';-inkscape-font-specification:'Rounded M+ 1c Medium';text-align:center;text-anchor:middle"
         id="flowPara3347-5">...vào ngày mai?</flowPara></flowRoot>  </g>
</svg>
