<?xml version="1.0" encoding="UTF-8" standalone="no"?>
<!-- Created with Inkscape (http://www.inkscape.org/) -->

<svg
   xmlns:dc="http://purl.org/dc/elements/1.1/"
   xmlns:cc="http://creativecommons.org/ns#"
   xmlns:rdf="http://www.w3.org/1999/02/22-rdf-syntax-ns#"
   xmlns:svg="http://www.w3.org/2000/svg"
   xmlns="http://www.w3.org/2000/svg"
   xmlns:xlink="http://www.w3.org/1999/xlink"
   xmlns:sodipodi="http://sodipodi.sourceforge.net/DTD/sodipodi-0.dtd"
   xmlns:inkscape="http://www.inkscape.org/namespaces/inkscape"
   id="svg2"
   version="1.1"
   inkscape:version="0.48.4 r9939"
   width="2481"
   height="3503"
   sodipodi:docname="Pepper-and-Carrot_by-David-Revoy_E03P04.svg">
  <metadata
     id="metadata8">
    <rdf:RDF>
      <cc:Work
         rdf:about="">
        <dc:format>image/svg+xml</dc:format>
        <dc:type
           rdf:resource="http://purl.org/dc/dcmitype/StillImage" />
        <dc:title />
      </cc:Work>
    </rdf:RDF>
  </metadata>
  <defs
     id="defs6" />
  <sodipodi:namedview
     pagecolor="#ffffff"
     bordercolor="#666666"
     borderopacity="1"
     objecttolerance="10"
     gridtolerance="10"
     guidetolerance="10"
     inkscape:pageopacity="0"
     inkscape:pageshadow="2"
     inkscape:window-width="1366"
     inkscape:window-height="700"
     id="namedview4"
     showgrid="false"
     inkscape:zoom="0.36045077"
     inkscape:cx="1373.1467"
     inkscape:cy="2926.2092"
     inkscape:window-x="-6"
     inkscape:window-y="43"
     inkscape:window-maximized="1"
     inkscape:current-layer="layer1" />
  <g
     inkscape:groupmode="layer"
     id="layer2"
     inkscape:label="artwork"
     sodipodi:insensitive="true"
     style="display:inline">
    <image
       sodipodi:absref="/home/juanjo/Imágenes/Comics-Revoy/3/peppercarrot_ep03_translation-master/es-es/../gfx_Pepper-and-Carrot_by-David-Revoy_E03P04.png"
       xlink:href="../gfx_Pepper-and-Carrot_by-David-Revoy_E03P04.png"
       y="0"
       x="0"
       id="image10"
       height="3503"
       width="2481" />
  </g>
  <g
     inkscape:groupmode="layer"
     id="layer3"
     inkscape:label="speechbubbles">
    <path
       style="fill:#ffffff;stroke:none"
       d="m 216.35017,1378.886 c 1.4887,-33.1037 28.09723,-38.6588 54.89389,-41.4175 26.79665,-2.7586 108.6753,8.276 99.74309,48.2762 -8.93222,40.0003 -49.1272,42.7589 -81.87866,38.621 -32.75147,-4.138 -70.22567,-13.8311 -72.75832,-45.4797 z"
       id="path3938"
       inkscape:connector-curvature="0"
       sodipodi:nodetypes="csssc" />
    <path
       style="fill:#ffffff;stroke:none;stroke-width:1px;stroke-linecap:butt;stroke-linejoin:miter;stroke-opacity:1;color:#000000;fill-opacity:1;fill-rule:nonzero;marker:none;visibility:visible;display:inline;overflow:visible;enable-background:accumulate"
       d="m 365.51302,1381.9273 c 24.68756,10.9722 45.26052,45.2605 48.00359,52.8039 -12.34378,-8.2292 -50.74665,-30.8594 -68.57656,-34.2882 -15.13337,-2.9103 20.57297,-18.5157 20.57297,-18.5157 z"
       id="path3940"
       inkscape:connector-curvature="0"
       sodipodi:nodetypes="ccsc" />
    <path
       style="fill:#ffffff;stroke:none;stroke-width:1px;stroke-linecap:butt;stroke-linejoin:miter;stroke-opacity:1;color:#000000;fill-opacity:1;fill-rule:nonzero;marker:none;visibility:visible;display:inline;overflow:visible;enable-background:accumulate"
       d="m 280.23979,2358.4608 c -54.41549,-7.2554 -134.22488,-30.8355 -149.64261,-75.2748 -15.41772,-44.4393 -11.79002,-99.7617 19.95235,-124.2487 31.74237,-24.487 86.15787,-45.3462 133.31796,-37.1839 47.1601,8.1623 108.83099,38.0908 123.34179,79.8094 14.5108,41.7185 0.90692,130.5972 -59.85705,147.8287 -60.76396,17.2316 -67.11244,9.0693 -67.11244,9.0693 z"
       id="path3970"
       inkscape:connector-curvature="0" />
    <path
       style="fill:#ffffff;stroke:none;stroke-width:1px;stroke-linecap:butt;stroke-linejoin:miter;stroke-opacity:1;color:#000000;fill-opacity:1;fill-rule:nonzero;marker:none;visibility:visible;display:inline;overflow:visible;enable-background:accumulate"
       d="m 254.8459,2340.3223 c 1.81384,47.1601 45.34624,116.0864 91.59941,107.924 -55.32242,-26.3008 -69.83322,-87.0647 -66.20552,-101.5755 3.6277,-14.5108 -25.39389,-6.3485 -25.39389,-6.3485 z"
       id="path3978"
       inkscape:connector-curvature="0" />
    <path
       style="color:#000000;fill:#ffffff;fill-opacity:1;fill-rule:nonzero;stroke:none;stroke-width:1px;marker:none;visibility:visible;display:inline;overflow:visible;enable-background:accumulate"
       d="m 977.66503,2222.5755 c 0,-59.7361 29.80857,-90.5375 118.24037,-96.1379 88.4319,-5.6002 342.7586,-13.9748 381.5097,5.6261 38.751,19.601 38.7901,48.5099 40.7774,87.7117 1.9872,39.2018 -86.4447,99.8714 -174.8765,97.0713 -88.4319,-2.8002 -223.7312,5.5744 -271.4248,-8.4263 -47.6936,-14.0007 -90.2517,-38.2427 -94.22617,-85.8449 z"
       id="path3986"
       inkscape:connector-curvature="0"
       sodipodi:nodetypes="csssssc" />
    <path
       style="color:#000000;fill:#ffffff;fill-opacity:1;fill-rule:nonzero;stroke:none;stroke-width:1px;marker:none;visibility:visible;display:inline;overflow:visible;enable-background:accumulate"
       d="m 997.61738,2413.7832 c 35.37012,-43.5324 121.79372,-42.2278 129.95602,-52.2039 8.1623,-9.9762 20.5935,-15.8155 18.7797,-56.6271 -1.8139,-40.8116 -29.9286,-45.3462 -29.9286,-45.3462 l -9.0692,30.8354 c 0,0 14.4493,43.961 3.8265,51.0758 -10.6227,7.1148 -99.659,25.7577 -113.56442,72.266 z"
       id="path3994"
       inkscape:connector-curvature="0"
       sodipodi:nodetypes="csscczc" />
    <path
       style="fill:#ffffff;stroke:none;stroke-width:1px;stroke-linecap:butt;stroke-linejoin:miter;stroke-opacity:1;color:#000000;fill-opacity:1;fill-rule:nonzero;marker:none;visibility:visible;display:inline;overflow:visible;enable-background:accumulate"
       d="m 1802.0598,2259.606 c -15.4178,-30.8355 -48.974,-41.7186 -58.0432,-43.5324 28.1146,-3.6277 43.5324,-4.5346 55.3224,2.7208 -27.2078,-24.487 -34.4632,-36.277 -39.9047,-38.9978 -5.4416,-2.7208 17.2316,-3.6277 28.1147,0 -0.907,-7.2554 9.0692,-2.7208 9.0692,-2.7208 l -17.2316,-20.8593 20.8593,8.1624 -6.3485,-43.5324 40.8117,7.2554 17.2315,-34.4632 4.5347,23.5801 79.8093,-38.9978 2.7208,35.3701 58.0432,-34.4632 22.6731,32.6493 18.1385,-24.487 5.4416,18.1385 65.2986,-18.1385 1.8138,27.2078 80.7163,-9.0693 -21.7662,22.6732 34.4632,1.8138 -18.1385,8.1623 19.9523,2.7208 -31.7423,19.0454 37.1839,2.7208 c 0,0 -10.8831,11.79 -17.2316,14.5108 9.9762,5.4416 26.3008,10.8831 26.3008,10.8831 0,0 -17.2315,7.2554 -23.58,8.1623 9.9762,6.3485 17.2316,7.2554 17.2316,7.2554 l -9.9762,3.6277 33.5562,21.7662 -42.6255,4.5346 c 0,0 14.5108,11.7901 19.9524,12.697 -15.4177,-0.9069 -27.2078,-1.8139 -27.2078,-1.8139 0,0 12.697,9.9762 16.3247,9.9762 3.6277,0 -19.0454,1.8139 -19.0454,1.8139 13.6038,12.6969 24.4869,15.4177 24.4869,15.4177 l -42.6254,-1.8139 -8.1624,28.1147 -15.4177,-22.6731 -7.2554,69.8332 -51.6947,-68.0194 -21.7662,20.8593 -24.487,-27.2077 -38.0908,80.7163 0.9069,-57.1363 -65.2986,36.277 17.2316,-29.9285 -109.7379,29.0216 23.58,-30.8355 -50.7878,0.907 12.697,-19.9524 c 0,0 -66.2055,11.79 -61.6709,9.0693 4.5346,-2.7208 26.3009,-17.2315 35.3701,-29.0216 z"
       id="path4002"
       inkscape:connector-curvature="0"
       sodipodi:nodetypes="cccsccccccccccccccccccccccccccccccccsc" />
    <path
       style="color:#000000;fill:#ffffff;fill-opacity:1;fill-rule:nonzero;stroke:none;stroke-width:1px;marker:none;visibility:visible;display:inline;overflow:visible;enable-background:accumulate"
       d="m 1674.9875,2370.0926 c 7.4988,-54.3903 47.8046,-99.9006 92.7972,-108.7806 44.9925,-8.8801 416.181,6.6599 444.3014,19.98 28.1203,13.3203 71.2382,23.3101 59.0528,116.5508 -12.1856,93.2408 -65.6142,113.2208 -119.0429,115.4409 -53.4286,2.2199 -371.1885,15.5399 -416.1811,-35.5203 -44.9924,-51.0603 -62.802,-46.6203 -60.9274,-107.6708 z"
       id="path4010"
       inkscape:connector-curvature="0" />
    <path
       style="color:#000000;fill:#ffffff;fill-opacity:1;fill-rule:nonzero;stroke:none;stroke-width:1px;marker:none;visibility:visible;display:inline;overflow:visible;enable-background:accumulate"
       d="m 1649.3186,2533.6074 c 26.3008,-46.2531 61.6709,-30.8354 73.4609,-29.9285 11.79,0.9069 54.4155,4.5346 73.4609,-34.4631 19.0455,-38.9978 67.1125,-44.4393 67.1125,-44.4393 l -27.2078,58.9501 c 0,0 -38.0908,33.5562 -66.2055,37.1839 -28.1147,3.6277 -67.1124,-9.0693 -80.7163,-4.5346 -13.6039,4.5346 -29.0216,4.5346 -39.9047,17.2315 z"
       id="path4018"
       inkscape:connector-curvature="0" />
  </g>
  <g
     inkscape:groupmode="layer"
     id="layer1"
     inkscape:label="txt"
     style="display:inline">
    <flowRoot
       xml:space="preserve"
       id="flowRoot2987-4"
       style="font-size:12px;font-style:normal;font-variant:normal;font-weight:normal;font-stretch:normal;text-align:center;line-height:125%;letter-spacing:0px;word-spacing:0px;text-anchor:middle;fill:#000000;fill-opacity:1;stroke:none;font-family:Lavi;-inkscape-font-specification:Lavi"
       transform="translate(27.584495,1892.8765)"><flowRegion
         id="flowRegion2989-5"><rect
           id="rect2991-7"
           width="247.77328"
           height="219.06728"
           x="120.55251"
           y="265.53046"
           style="font-style:normal;font-variant:normal;font-weight:normal;font-stretch:normal;text-align:center;text-anchor:middle;font-family:Lavi;-inkscape-font-specification:Lavi" /></flowRegion><flowPara
         style="font-size:48px;text-align:center;text-anchor:middle"
         id="flowPara3033">¡ Ey ... !</flowPara><flowPara
         style="font-size:48px;text-align:center;text-anchor:middle"
         id="flowPara3022">¡Ya sé!</flowPara><flowPara
         style="font-size:48px;text-align:center;text-anchor:middle"
         id="flowPara3024">...</flowPara></flowRoot>    <flowRoot
       xml:space="preserve"
       id="flowRoot2987-4-5"
       style="font-size:12px;font-style:normal;font-variant:normal;font-weight:normal;font-stretch:normal;text-align:center;line-height:125%;letter-spacing:0px;word-spacing:0px;text-anchor:middle;fill:#000000;fill-opacity:1;stroke:none;font-family:Lavi;-inkscape-font-specification:Lavi"
       transform="translate(879.39544,1890.0077)"><flowRegion
         id="flowRegion2989-5-5"><rect
           id="rect2991-7-8"
           width="469.71762"
           height="144.28166"
           x="120.55251"
           y="265.53046"
           style="font-style:normal;font-variant:normal;font-weight:normal;font-stretch:normal;text-align:center;text-anchor:middle;font-family:Lavi;-inkscape-font-specification:Lavi" /></flowRegion><flowPara
         style="font-size:48px;text-align:center;text-anchor:middle"
         id="flowPara3024-5">...¡es exactamente</flowPara><flowPara
         style="font-size:48px;text-align:center;text-anchor:middle"
         id="flowPara3021">lo que necesito!</flowPara></flowRoot>    <flowRoot
       xml:space="preserve"
       id="flowRoot2987-4-5-9"
       style="font-size:12px;font-style:normal;font-variant:normal;font-weight:normal;font-stretch:normal;text-align:center;line-height:125%;letter-spacing:0px;word-spacing:0px;text-anchor:middle;fill:#000000;fill-opacity:1;stroke:none;font-family:Lavi;-inkscape-font-specification:Lavi"
       transform="matrix(1.6940983,0,0,1.5764632,1384.3211,1737.9306)"><flowRegion
         id="flowRegion2989-5-5-0"><rect
           id="rect2991-7-8-3"
           width="469.71762"
           height="144.28166"
           x="120.55251"
           y="265.53046"
           style="font-style:normal;font-variant:normal;font-weight:normal;font-stretch:normal;text-align:center;text-anchor:middle;font-family:Lavi;-inkscape-font-specification:Lavi" /></flowRegion><flowPara
         style="font-size:48px;text-align:center;text-anchor:middle"
         id="flowPara3024-5-4">¡ Carrot !</flowPara></flowRoot>    <flowRoot
       xml:space="preserve"
       id="flowRoot2987-4-5-6"
       style="font-size:12px;font-style:normal;font-variant:normal;font-weight:normal;font-stretch:normal;text-align:center;line-height:125%;letter-spacing:0px;word-spacing:0px;text-anchor:middle;fill:#000000;fill-opacity:1;stroke:none;font-family:Lavi;-inkscape-font-specification:Lavi"
       transform="translate(1604.7448,2018.9197)"><flowRegion
         id="flowRegion2989-5-5-8"><rect
           id="rect2991-7-8-5"
           width="503.49176"
           height="207.00507"
           x="120.55251"
           y="265.53046"
           style="font-style:normal;font-variant:normal;font-weight:normal;font-stretch:normal;text-align:center;text-anchor:middle;font-family:Lavi;-inkscape-font-specification:Lavi" /></flowRegion><flowPara
         style="font-size:48px;text-align:center;text-anchor:middle"
         id="flowPara3028">¡Prepárate! ¡Vamos a cazar juntos los ingredientes!</flowPara></flowRoot>    <flowRoot
       xml:space="preserve"
       id="flowRoot2987-4-0"
       style="font-size:12px;font-style:normal;font-variant:normal;font-weight:normal;font-stretch:normal;text-align:center;line-height:125%;letter-spacing:0px;word-spacing:0px;text-anchor:middle;fill:#000000;fill-opacity:1;stroke:none;font-family:Lavi;-inkscape-font-specification:Lavi"
       transform="translate(47.104249,1074.6036)"><flowRegion
         id="flowRegion2989-5-2"><rect
           id="rect2991-7-3"
           width="247.77328"
           height="219.06728"
           x="120.55251"
           y="265.53046"
           style="font-style:normal;font-variant:normal;font-weight:normal;font-stretch:normal;text-align:center;text-anchor:middle;font-family:Lavi;-inkscape-font-specification:Lavi" /></flowRegion><flowPara
         style="font-size:48px;text-align:center;text-anchor:middle"
         id="flowPara3024-3">...</flowPara></flowRoot>  </g>
</svg>
