<?xml version="1.0" encoding="UTF-8" standalone="no"?>
<!-- Created with Inkscape (http://www.inkscape.org/) -->

<svg
   xmlns:dc="http://purl.org/dc/elements/1.1/"
   xmlns:cc="http://creativecommons.org/ns#"
   xmlns:rdf="http://www.w3.org/1999/02/22-rdf-syntax-ns#"
   xmlns:svg="http://www.w3.org/2000/svg"
   xmlns="http://www.w3.org/2000/svg"
   xmlns:xlink="http://www.w3.org/1999/xlink"
   xmlns:sodipodi="http://sodipodi.sourceforge.net/DTD/sodipodi-0.dtd"
   xmlns:inkscape="http://www.inkscape.org/namespaces/inkscape"
   id="svg2"
   version="1.1"
   inkscape:version="0.92.1 renderfarm"
   width="2481"
   height="3503"
   sodipodi:docname="Pepper-and-Carrot_by-David-Revoy_E03P02_092.svg">
  <sodipodi:namedview pagecolor="#ffffff" bordercolor="#666666" inkscape:pageopacity="0" inkscape:pageshadow="2" inkscape:window-width="1813" inkscape:window-height="955" id="namedview70" showgrid="false" inkscape:zoom="0.4" inkscape:cx="1284.4231" inkscape:cy="2618.6204" inkscape:current-layer="layer1" /><metadata
     id="metadata8">
    <rdf:RDF>
      <cc:Work
         rdf:about="">
        <dc:format>image/svg+xml</dc:format>
        <dc:type
           rdf:resource="http://purl.org/dc/dcmitype/StillImage" />
        <dc:title />
      </cc:Work>
    </rdf:RDF>
  </metadata>
  <defs
     id="defs6" />
  <sodipodi:namedview
     pagecolor="#ffffff"
     bordercolor="#666666"
     borderopacity="1"
     objecttolerance="10"
     gridtolerance="10"
     guidetolerance="10"
     inkscape:pageopacity="0"
     inkscape:pageshadow="2"
     inkscape:window-width="1920"
     inkscape:window-height="1026"
     id="namedview4"
     showgrid="false"
     inkscape:zoom="0.44473442"
     inkscape:cx="1321.0335"
     inkscape:cy="2628.0805"
     inkscape:window-x="1920"
     inkscape:window-y="27"
     inkscape:window-maximized="1"
     inkscape:current-layer="layer2" />
  <g
     inkscape:groupmode="layer"
     id="layer3"
     inkscape:label="artwork"
     sodipodi:insensitive="true">
    <image
       sodipodi:absref="/home/deevad/peppercarrot/webcomics/ep03_The-secret-ingredients/lang/es/../gfx_Pepper-and-Carrot_by-David-Revoy_E03P02.png"
       xlink:href="../gfx_Pepper-and-Carrot_by-David-Revoy_E03P02.png"
       y="0"
       x="0"
       id="image10"
       height="3503"
       width="2481" />
  </g>
  <g
     inkscape:groupmode="layer"
     id="layer2"
     inkscape:label="speechbubbles">
    <path
       style="color:#000000;display:inline;overflow:visible;visibility:visible;fill:#ffffff;fill-opacity:1;fill-rule:nonzero;stroke:none;stroke-width:1px;marker:none;enable-background:accumulate"
       d="m 801.73092,1344.9127 c 26.24678,-47.6331 46.66094,-50.5494 61.24248,-54.4378 1.94421,4.8605 6.80472,12.6373 6.80472,12.6373 0,0 28.19098,-10.6931 39.85622,-10.6931 11.66523,0 11.66523,16.5258 11.66523,16.5258 0,0 -54.43776,22.3583 -65.13089,31.1072 -4.86051,-13.6094 -8.74892,-19.442 -8.74892,-25.2746 -8.74893,-0.9721 -35.96781,13.6094 -45.68884,30.1352 z"
       id="path4456"
       inkscape:connector-curvature="0" />
    <path
       style="color:#000000;display:inline;overflow:visible;visibility:visible;fill:#ffffff;fill-opacity:1;fill-rule:nonzero;stroke:none;stroke-width:1px;marker:none;enable-background:accumulate"
       d="m 896.37129,1154.1115 c -22.43602,21.0295 -27.77792,47.0659 -25.64117,59.0828 2.13678,12.0168 32.05145,68.0954 34.18822,83.1165 2.13676,15.0211 -29.91468,82.115 -23.50439,104.1459 6.41029,22.0309 25.64115,88.1235 110.04325,94.1319 84.4022,6.0085 106.8382,-7.0098 133.5476,-7.0098 26.7097,0 126.0692,19.0267 141.0264,16.0225 14.9575,-3.0042 22.4361,-8.0113 33.1199,-10.0141 10.6837,-2.0028 90.8124,1.0014 118.5903,-48.0674 27.7779,-49.0687 29.9147,-66.0926 16.0258,-100.1403 -13.889,-34.0476 -4.2735,-70.0982 7.4786,-111.1557 11.7522,-41.0576 -14.422,-84.2106 -32.0515,-91.1278 -45.9403,-18.0252 -460.47233,-47.0659 -512.82301,11.0155 z"
       id="path4464"
       inkscape:connector-curvature="0"
       sodipodi:nodetypes="csssssssssssc" />
    <path
       style="color:#000000;display:inline;overflow:visible;visibility:visible;fill:#ffffff;fill-opacity:1;fill-rule:nonzero;stroke:none;stroke-width:1px;marker:none;enable-background:accumulate"
       d="m 907.33433,1751.1915 c 3.54013,-62.2021 40.71139,-89.3159 53.10181,-95.6957 12.3904,-6.3797 24.78082,-60.6072 226.56766,-71.7717 122.1342,-6.3797 178.7761,33.4934 191.1665,36.6833 12.3904,3.1898 107.5065,84.6875 85.438,153.5021 -15.9305,49.6748 -34.7492,67.7747 -67.3057,77.0237 -37.459,10.6419 -267.7107,13.4981 -319.0425,0.7387 -51.3318,-12.7593 -148.68504,6.3797 -169.92577,-100.4804 z"
       id="path4472"
       inkscape:connector-curvature="0"
       sodipodi:nodetypes="cscssssc" />
    <path
       style="color:#000000;display:inline;overflow:visible;visibility:visible;fill:#ffffff;fill-opacity:1;fill-rule:nonzero;stroke:none;stroke-width:1px;marker:none;enable-background:accumulate"
       d="m 1448.0831,1769.0088 c 58.4773,18.4121 129.086,-2.4772 151.0046,-12.0462 -53.6863,37.6803 -112.616,59.4327 -151.498,45.1626 -38.8821,-14.2701 0.4934,-33.1164 0.4934,-33.1164 z"
       id="path4480"
       inkscape:connector-curvature="0" />
    <path
       style="color:#000000;display:inline;overflow:visible;visibility:visible;fill:#ffffff;fill-opacity:1;fill-rule:nonzero;stroke:none;stroke-width:1px;marker:none;enable-background:accumulate"
       d="m 1113.6392,2034.7535 c -10e-5,-26.918 9.6268,-40.3771 16.5032,-45.2713 6.8764,-4.8943 0,-28.1417 42.6336,-42.8243 42.6336,-14.6827 100.045,-26.7517 132.6593,-25.5282 42.9837,-3.8692 197.8667,-5.2913 254.253,39.98 56.3863,45.2714 118.995,140.1448 10.3483,174.4043 79.766,24.471 121.83,74.9696 114.9536,154.5004 -6.8764,79.5309 -177.7818,125.6987 -304.3072,140.3813 -126.5254,14.6826 -324.9363,-34.9895 -348.316,-108.4026 -23.3796,-73.4131 35.888,-151.4253 67.5193,-167.3315 31.6314,-15.9062 54.3995,-20.999 80.5297,-27.1168 -64.638,-17.1296 -66.7769,-74.438 -66.7768,-92.7913 z"
       id="path4488"
       inkscape:connector-curvature="0"
       sodipodi:nodetypes="csscscsssscc" />
    <path
       style="color:#000000;display:inline;overflow:visible;visibility:visible;fill:#ffffff;fill-opacity:1;fill-rule:nonzero;stroke:none;stroke-width:1px;marker:none;enable-background:accumulate"
       d="m 946.61581,2242.4146 c 5.57335,17.1181 11.16282,35.0294 23.39088,48.7241 3.55856,3.8199 7.50649,7.5251 12.13185,9.9498 5.37246,1.4498 10.84946,-1.4122 14.12756,-5.6132 5.1589,-5.7353 8.1963,-13.9047 15.5685,-17.285 5.4261,-2.3306 10.8729,0.8814 15.6761,3.1704 12.1284,6.0748 23.505,13.8279 36.5404,17.9363 14.3756,5.5799 29.9067,10.4081 45.4842,8.0016 6.1477,-1.0555 12.4312,-3.0194 17.0066,-7.4624 12.2544,-10.8656 18.4537,-28.9219 13.6291,-44.8231 -4.0403,-9.8511 -16.6784,-15.851 -26.5414,-11.0096 -5.2446,2.4777 -7.97,8.0957 -8.8455,13.5685 -3.4893,9.7595 -12.4516,16.8979 -22.4619,19.0846 -8.2318,1.9398 -16.9874,1.2749 -24.9579,-1.4727 -11.8256,-0.8743 -20.7496,-9.4594 -30.3291,-15.4411 -4.4172,-2.6676 -9.2966,-5.2059 -14.5159,-5.4716 -7.5326,1.3916 -11.8483,8.4752 -14.8077,14.8891 -3.2226,6.5363 -6.2222,14.4823 -13.5805,17.3225 -4.84088,2.6585 -8.79493,-2.5041 -12.54101,-4.8769 -11.06465,-9.2145 -19.10985,-21.7672 -24.06428,-35.1993 -0.37642,-1.3148 -0.64489,-2.6514 -0.91,-3.992 z"
       id="path4496"
       inkscape:connector-curvature="0" />
    <path
       style="color:#000000;display:inline;overflow:visible;visibility:visible;fill:#ffffff;fill-opacity:1;fill-rule:nonzero;stroke:none;stroke-width:1px;marker:none;enable-background:accumulate"
       d="m 1544.8136,2588.3792 c 4.4742,-26.8453 35.7937,-46.0205 73.5049,-45.3813 37.7112,0.6391 65.1957,33.8761 58.1648,58.8039 -7.0309,24.9278 -33.237,39.6288 -70.3091,35.1545 -37.0721,-4.4742 -65.8349,-30.0411 -61.3606,-48.5771 z"
       id="path4514"
       inkscape:connector-curvature="0" />
    <path
       style="color:#000000;display:inline;overflow:visible;visibility:visible;fill:#ffffff;fill-opacity:1;fill-rule:nonzero;stroke:none;stroke-width:1px;marker:none;enable-background:accumulate"
       d="m 1670.7307,2596.0492 c 17.8969,-1.2783 37.0721,-7.0309 39.6288,-17.8968 1.9175,14.701 -14.701,36.4329 -41.5463,35.1545 -26.8453,-1.2783 -19.8144,-14.701 -19.8144,-14.701 z"
       id="path4522"
       inkscape:connector-curvature="0" />
    <path
       style="color:#000000;display:inline;overflow:visible;visibility:visible;fill:#ffffff;fill-opacity:1;fill-rule:nonzero;stroke:none;stroke-width:1px;marker:none;enable-background:accumulate"
       d="m 741.69231,2966.2901 c 27.74612,-79.0281 91.18786,-130.0271 249.24679,-125.5818 158.0589,4.4455 187.4417,18.8929 208.7189,40.0084 21.277,21.1156 52.6862,142.252 36.4751,225.6028 -16.2113,83.3508 -81.0559,171.147 -236.0752,164.479 -155.01936,-6.6682 -155.33793,-9.7086 -179.33612,-26.6723 -45.59392,-32.229 -106.77558,-198.8079 -79.02947,-277.8361 z"
       id="path4530"
       inkscape:connector-curvature="0"
       sodipodi:nodetypes="zsssssz" />
    <path
       style="color:#000000;display:inline;overflow:visible;visibility:visible;fill:#ffffff;fill-opacity:1;fill-rule:nonzero;stroke:none;stroke-width:1px;marker:none;enable-background:accumulate"
       d="m 667.45376,3216.3202 c 27.21888,10.6931 31.10729,9.721 39.85622,-1.9442 8.74893,-11.6652 17.49785,-31.1073 43.74463,-34.9957 26.24678,-3.8884 38.88411,5.8326 47.63304,11.6652 1.9442,-18.4699 -7.77682,-45.6888 -16.52575,-56.3819 -8.74893,-10.6932 53.46566,7.7768 53.46566,7.7768 0,0 8.74892,47.633 -7.77683,65.1309 -16.52574,17.4978 -53.46565,-4.8605 -71.93561,-4.8605 -18.46995,0 -32.07939,26.2467 -46.66093,29.163 -14.58155,2.9163 -30.13519,-7.7768 -41.80043,-15.5536 z"
       id="path4538"
       inkscape:connector-curvature="0" />
    <path
       style="color:#000000;display:inline;overflow:visible;visibility:visible;fill:#ffffff;fill-opacity:1;fill-rule:nonzero;stroke:none;stroke-width:1px;marker:none;enable-background:accumulate"
       d="m 1258.7504,3006.5437 c 7.8433,-57.0318 73.6293,-96.802 239.2213,-80.6312 88.7,8.6619 189.5468,15.7329 179.0891,99.3141 -10.4578,83.5811 -155.5591,76.698 -185.6252,77.6813 -30.0661,0.9834 -185.7827,-12.8887 -211.7696,-42.2823 -16.2672,-18.3996 -22.2228,-36.3823 -20.9156,-54.0819 z"
       id="path4546"
       inkscape:connector-curvature="0"
       sodipodi:nodetypes="cssssc" />
    <path
       style="color:#000000;display:inline;overflow:visible;visibility:visible;fill:#ffffff;fill-opacity:1;fill-rule:nonzero;stroke:none;stroke-width:1px;marker:none;enable-background:accumulate"
       d="m 1306.8465,3178.9577 c 7.2989,-43.2195 93.9051,-65.9571 122.971,-63.7213 29.0659,2.2358 103.9664,13.415 121.8531,13.415 17.8867,0 82.7259,-7.8254 106.2022,-10.0612 23.4763,-2.2359 52.5422,38.0092 50.3063,54.778 -2.2358,16.7687 -20.1225,63.7213 -81.608,69.3109 -61.4855,5.5896 -144.2115,-1.1179 -160.9802,4.4717 -16.7688,5.5896 -89.4335,11.1791 -116.2635,-4.4717 -26.8301,-15.6509 -49.7798,-20.5019 -42.4809,-63.7214 z"
       id="path4554"
       inkscape:connector-curvature="0"
       sodipodi:nodetypes="zsssssssz" />
    <path
       style="color:#000000;display:inline;overflow:visible;visibility:visible;fill:#ffffff;fill-opacity:1;fill-rule:nonzero;stroke:none;stroke-width:1px;marker:none;enable-background:accumulate"
       d="m 1459.9886,3098.5438 c 15.6509,39.1272 126.3248,118.4994 138.6219,131.9144 12.2971,13.415 38.0092,32.4196 58.1317,35.7734 20.1226,3.3537 29.8656,-15.8488 47.3048,-18.9433 14.983,-2.6587 26.4778,2.1745 35.4212,12.2357 -14.533,-25.7121 -39.1272,-25.7121 -49.1884,-21.2404 -10.0613,4.4717 -27.948,17.8867 -44.7168,5.5896 -16.7687,-12.2971 -86.0797,-88.3156 -103.9664,-91.6693 -17.8867,-3.3538 -40.245,-29.0659 -40.245,-43.5988 0,-14.533 -41.363,-10.0613 -41.363,-10.0613 z"
       id="path4562"
       inkscape:connector-curvature="0"
       sodipodi:nodetypes="cssscssssc" />
    <path
       style="fill:#ffffff;fill-opacity:1;stroke:none"
       d="m 312.97174,242.34447 c -5.69887,-63.98724 32.10077,-95.81802 66.51755,-110.89647 43.61847,-19.10977 358.27574,-40.40818 396.24619,13.15339 34.96939,49.32847 59.8145,140.01905 -44.60399,184.81795 -104.41848,44.79889 -278.68591,20.26057 -308.35018,12.11528 -29.66439,-8.14528 -103.87671,-29.95559 -109.80957,-99.19015 z"
       id="path3659-8"
       inkscape:connector-curvature="0"
       sodipodi:nodetypes="cssssc" />
    <path
       style="color:#000000;display:inline;overflow:visible;visibility:visible;fill:#ffffff;fill-opacity:1;fill-rule:nonzero;stroke:none;stroke-width:1px;marker:none;enable-background:accumulate"
       d="m 748.47447,239.68848 c 51.7523,-9.5221 144.3491,25.7804 152.6806,130.3799 -39.6949,-95.7771 -111.5887,-108.522 -153.522,-93.2934 -39.7368,14.4308 -28.4367,-12.3696 -28.4367,-12.3696 z"
       id="path4440-1"
       inkscape:connector-curvature="0"
       sodipodi:nodetypes="ccscc" />
    <path
       style="color:#000000;display:inline;overflow:visible;visibility:visible;fill:#ffffff;fill-opacity:1;fill-rule:nonzero;stroke:none;stroke-width:1px;marker:none;enable-background:accumulate"
       d="m 1958.6985,284.19028 c -2.8517,-0.3412 -11.1967,37.1896 -11.1967,37.1896 0,0 -9.6125,7.4962 -11.4453,9.4383 -0.7114,7.4801 0.7366,17.3799 0.7366,17.3799 l -29.369,11.6174 16.5975,-14.2257 -7.4782,-14.9439 14.6623,-15.5381 7.5275,-27.7153 z"
       id="path4448-7"
       inkscape:connector-curvature="0"
       sodipodi:nodetypes="cccccccccc" />
    <path
       style="color:#000000;display:inline;overflow:visible;visibility:visible;fill:#ffffff;fill-opacity:1;fill-rule:nonzero;stroke:none;stroke-width:1px;marker:none;enable-background:accumulate"
       d="m 1846.4132,229.10128 10.5029,19.7578 -14.8609,3.9041 7.1217,7.6936 7.162,5.5676 9.4016,3.1225 -9.0108,12.7594 12.7899,1.3014 1.3462,10.4107 11.4435,8.4588 9.424,-5.8561 4.7345,11.587 19.4987,-7.0323 4.0389,7.8081 10.7703,-5.856 25.5794,10.4107 1.3463,-8.4587 8.0778,9.1094 2.0195,-11.0614 12.1166,9.76 18.8479,-11.7121 16.1555,-1.3013 2.0195,-9.1094 12.7897,6.5067 -4.712,-17.5682 22.2138,-11.7121 2.6926,-13.0135 -4.0389,-4.5547 -2.6926,-7.1574 12.1166,-8.4587 -18.1749,1.952 16.1554,-9.7601 -13.738,-5.7588 -9.6389,0.3131 -4.0047,-3.2713 -5.8863,-11.9195 -15.2768,8.3408 -8.3359,-16.9846 -17.3182,14.1851 -6.2946,-9.9714 -9.6593,6.4302 -10.129,-3.8752 -12.8066,-13.9261 -8.4794,13.8374 -14.6035,-6.4229 -10.1125,11.1101 -17.5024,-8.6047 -2.5045,7.9122 -13.3513,5.7403 -13.7188,-4.6372 2.7227,17.4597 z"
       id="path4448-1-6"
       inkscape:connector-curvature="0"
       sodipodi:nodetypes="cccccccccccccccccccccccccccccccccccccccccccccccccccc" />
  </g>
  <g
     inkscape:groupmode="layer"
     id="layer1"
     inkscape:label="txt">
    <flowRoot
       xml:space="preserve"
       id="flowRoot2987"
       style="font-style:normal;font-variant:normal;font-weight:normal;font-stretch:normal;line-height:0.01%;font-family:Arial;-inkscape-font-specification:Arial;letter-spacing:0px;word-spacing:0px;fill:#000000;fill-opacity:1;stroke:none"
       transform="translate(-200.2852,-495.22558)"><flowRegion
         id="flowRegion2989"><rect
           id="rect2991"
           width="555.85522"
           height="250.47551"
           x="481.16055"
           y="638.16943" /></flowRegion><flowPara
         style="font-style:normal;font-variant:normal;font-weight:normal;font-stretch:normal;font-size:48px;line-height:1.25;font-family:Lavi;-inkscape-font-specification:Lavi;text-align:center;text-anchor:middle"
         id="flowPara2997">¡Vaya, lo siento! </flowPara><flowPara
         style="font-style:normal;font-variant:normal;font-weight:normal;font-stretch:normal;font-size:48px;line-height:1.25;font-family:Lavi;-inkscape-font-specification:Lavi;text-align:center;text-anchor:middle"
         id="flowPara3066">Creo que me llevaré solamente cuatro.</flowPara></flowRoot>    <flowRoot
       xml:space="preserve"
       id="flowRoot2987-4"
       style="font-style:normal;font-variant:normal;font-weight:normal;font-stretch:normal;line-height:0.01%;font-family:Arial;-inkscape-font-specification:Arial;letter-spacing:0px;word-spacing:0px;fill:#000000;fill-opacity:1;stroke:none"
       transform="translate(1234.847,-404.44868)"><flowRegion
         id="flowRegion2989-7"><rect
           id="rect2991-1"
           width="472.65948"
           height="178.52246"
           x="481.16055"
           y="638.16943" /></flowRegion><flowPara
         style="font-style:normal;font-variant:normal;font-weight:normal;font-stretch:normal;font-size:40px;line-height:1.25;font-family:Lavi;-inkscape-font-specification:Lavi;text-align:center;text-anchor:middle"
         id="flowPara2997-1">Grrr...</flowPara></flowRoot>    <flowRoot
       xml:space="preserve"
       id="flowRoot2987-5"
       style="font-style:normal;font-variant:normal;font-weight:normal;font-stretch:normal;line-height:0.01%;font-family:Arial;-inkscape-font-specification:Arial;letter-spacing:0px;word-spacing:0px;fill:#000000;fill-opacity:1;stroke:none"
       transform="translate(416.11728,531.49032)"><flowRegion
         id="flowRegion2989-6"><rect
           id="rect2991-0"
           width="526.69586"
           height="315.77493"
           x="481.16055"
           y="638.16943" /></flowRegion><flowPara
         style="font-style:normal;font-variant:normal;font-weight:normal;font-stretch:normal;font-size:48px;line-height:1.25;font-family:Lavi;-inkscape-font-specification:Lavi;text-align:center;text-anchor:middle"
         id="flowPara3081">¡Buenos días, tendero! Por favor, prepárame dos docenas de cada.</flowPara><flowPara
         style="font-style:normal;font-variant:normal;font-weight:normal;font-stretch:normal;font-size:48px;line-height:1.25;font-family:Lavi;-inkscape-font-specification:Lavi;text-align:center;text-anchor:middle"
         id="flowPara3051"> De la mejor calidad, como siempre.  </flowPara></flowRoot>    <flowRoot
       xml:space="preserve"
       id="flowRoot2987-5-4"
       style="font-style:normal;font-variant:normal;font-weight:normal;font-stretch:normal;line-height:0.01%;font-family:Arial;-inkscape-font-specification:Arial;letter-spacing:0px;word-spacing:0px;fill:#000000;fill-opacity:1;stroke:none"
       transform="translate(477.55336,994.09511)"><flowRegion
         id="flowRegion2989-6-3"><rect
           id="rect2991-0-3"
           width="463.67816"
           height="225.00478"
           x="481.16055"
           y="638.16943" /></flowRegion><flowPara
         style="font-style:normal;font-variant:normal;font-weight:normal;font-stretch:normal;font-size:48px;line-height:1.25;font-family:Lavi;-inkscape-font-specification:Lavi;text-align:center;text-anchor:middle"
         id="flowPara3138">Siempre es un</flowPara><flowPara
         style="font-style:normal;font-variant:normal;font-weight:normal;font-stretch:normal;font-size:48px;line-height:1.25;font-family:Lavi;-inkscape-font-specification:Lavi;text-align:center;text-anchor:middle"
         id="flowPara3053"> placer servirla, señorita Azafrán</flowPara></flowRoot>    <flowRoot
       xml:space="preserve"
       id="flowRoot2987-5-4-3"
       style="font-style:normal;font-variant:normal;font-weight:normal;font-stretch:normal;line-height:0.01%;font-family:Arial;-inkscape-font-specification:Arial;letter-spacing:0px;word-spacing:0px;fill:#000000;fill-opacity:1;stroke:none"
       transform="translate(684.75974,1300.6073)"><flowRegion
         id="flowRegion2989-6-3-5"><rect
           id="rect2991-0-3-3"
           width="399.46124"
           height="206.06419"
           x="481.16055"
           y="638.16943" /></flowRegion><flowPara
         style="font-style:normal;font-variant:normal;font-weight:normal;font-stretch:normal;font-size:48px;line-height:1.25;font-family:Lavi;-inkscape-font-specification:Lavi;text-align:center;text-anchor:middle"
         id="flowPara3178">¡Anda, mira! </flowPara><flowPara
         style="font-style:normal;font-variant:normal;font-weight:normal;font-stretch:normal;font-size:48px;line-height:1.25;font-family:Lavi;-inkscape-font-specification:Lavi;text-align:center;text-anchor:middle"
         id="flowPara3093">Si está aquí Pepper...</flowPara></flowRoot>    <flowRoot
       xml:space="preserve"
       id="flowRoot2987-5-4-3-8"
       style="font-style:normal;font-variant:normal;font-weight:normal;font-stretch:normal;line-height:0.01%;font-family:Arial;-inkscape-font-specification:Arial;letter-spacing:0px;word-spacing:0px;fill:#000000;fill-opacity:1;stroke:none"
       transform="translate(602.0021,1541.771)"><flowRegion
         id="flowRegion2989-6-3-5-1"><rect
           id="rect2991-0-3-3-7"
           width="555.99146"
           height="286.85565"
           x="481.16055"
           y="638.16943" /></flowRegion><flowPara
         style="font-style:normal;font-variant:normal;font-weight:normal;font-stretch:normal;font-size:48px;line-height:1.25;font-family:Lavi;-inkscape-font-specification:Lavi;text-align:center;text-anchor:middle"
         id="flowPara3100">A ver, déjame adivinar... </flowPara><flowPara
         style="font-style:normal;font-variant:normal;font-weight:normal;font-stretch:normal;font-size:48px;line-height:1.25;font-family:Lavi;-inkscape-font-specification:Lavi;text-align:center;text-anchor:middle"
         id="flowPara3059">...las cosas van viento en popa en el campo,</flowPara><flowPara
         style="font-style:normal;font-variant:normal;font-weight:normal;font-stretch:normal;font-size:48px;line-height:1.25;font-family:Lavi;-inkscape-font-specification:Lavi;text-align:center;text-anchor:middle"
         id="flowPara3057">¿verdad?</flowPara></flowRoot>    <flowRoot
       xml:space="preserve"
       id="flowRoot2987-5-4-3-3"
       style="font-style:normal;font-variant:normal;font-weight:normal;font-stretch:normal;line-height:0.01%;font-family:Arial;-inkscape-font-specification:Arial;letter-spacing:0px;word-spacing:0px;fill:#000000;fill-opacity:1;stroke:none"
       transform="matrix(1.1166839,0,0,1.2016907,902.1474,1776.1159)"><flowRegion
         id="flowRegion2989-6-3-5-2"><rect
           id="rect2991-0-3-3-1"
           width="316.26553"
           height="145.35382"
           x="481.16055"
           y="638.16943" /></flowRegion><flowPara
         style="font-style:normal;font-variant:normal;font-weight:normal;font-stretch:normal;font-size:48px;line-height:1.25;font-family:Lavi;-inkscape-font-specification:Lavi;text-align:center;text-anchor:middle"
         id="flowPara3178-4">...</flowPara></flowRoot>    <flowRoot
       xml:space="preserve"
       id="flowRoot2987-5-4-3-8-4"
       style="font-style:normal;font-variant:normal;font-weight:normal;font-stretch:normal;line-height:0.01%;font-family:Arial;-inkscape-font-specification:Arial;letter-spacing:0px;word-spacing:0px;fill:#000000;fill-opacity:1;stroke:none"
       transform="translate(249.53635,2247.726)"><flowRegion
         id="flowRegion2989-6-3-5-1-2"><rect
           id="rect2991-0-3-3-7-1"
           width="506.27682"
           height="417.60565"
           x="481.16055"
           y="638.16943" /></flowRegion><flowPara
         style="font-style:normal;font-variant:normal;font-weight:normal;font-stretch:normal;font-size:48px;line-height:1.25;font-family:Lavi;-inkscape-font-specification:Lavi;text-align:center;text-anchor:middle"
         id="flowPara3124">Supongo que </flowPara><flowPara
         style="font-style:normal;font-variant:normal;font-weight:normal;font-stretch:normal;font-size:48px;line-height:1.25;font-family:Lavi;-inkscape-font-specification:Lavi;text-align:center;text-anchor:middle"
         id="flowPara3082">estarás preparando </flowPara><flowPara
         style="font-style:normal;font-variant:normal;font-weight:normal;font-stretch:normal;font-size:48px;line-height:1.25;font-family:Lavi;-inkscape-font-specification:Lavi;text-align:center;text-anchor:middle"
         id="flowPara3084">los ingredientes </flowPara><flowPara
         style="font-style:normal;font-variant:normal;font-weight:normal;font-stretch:normal;font-size:48px;line-height:1.25;font-family:Lavi;-inkscape-font-specification:Lavi;text-align:center;text-anchor:middle"
         id="flowPara3086">para el concurso</flowPara><flowPara
         style="font-style:normal;font-variant:normal;font-weight:normal;font-stretch:normal;font-size:48px;line-height:1.25;font-family:Lavi;-inkscape-font-specification:Lavi;text-align:center;text-anchor:middle"
         id="flowPara3088"> de pociones de mañana</flowPara></flowRoot>    <flowRoot
       xml:space="preserve"
       id="flowRoot2987-5-4-3-8-4-1"
       style="font-style:normal;font-variant:normal;font-weight:normal;font-stretch:normal;line-height:0.01%;font-family:Arial;-inkscape-font-specification:Arial;letter-spacing:0px;word-spacing:0px;fill:#000000;fill-opacity:1;stroke:none"
       transform="translate(810.15172,2249.9799)"><flowRegion
         id="flowRegion2989-6-3-5-1-2-0"><rect
           id="rect2991-0-3-3-7-1-3"
           width="357.32404"
           height="181.207"
           x="481.16055"
           y="638.16943" /></flowRegion><flowPara
         style="font-style:normal;font-variant:normal;font-weight:normal;font-stretch:normal;font-size:48px;line-height:1.25;font-family:Lavi;-inkscape-font-specification:Lavi;text-align:center;text-anchor:middle"
         id="flowPara3347"> </flowPara><flowPara
         style="font-style:normal;font-variant:normal;font-weight:normal;font-stretch:normal;font-size:48px;line-height:1.25;font-family:Lavi;-inkscape-font-specification:Lavi;text-align:center;text-anchor:middle"
         id="flowPara3128">... ¿un concurso</flowPara><flowPara
         style="font-style:normal;font-variant:normal;font-weight:normal;font-stretch:normal;font-size:48px;line-height:1.25;font-family:Lavi;-inkscape-font-specification:Lavi;text-align:center;text-anchor:middle"
         id="flowPara3130">de pociones?</flowPara></flowRoot>    <flowRoot
       xml:space="preserve"
       id="flowRoot2987-5-4-3-8-4-1-1"
       style="font-style:normal;font-variant:normal;font-weight:normal;font-stretch:normal;line-height:0.01%;font-family:Arial;-inkscape-font-specification:Arial;letter-spacing:0px;word-spacing:0px;fill:#000000;fill-opacity:1;stroke:none"
       transform="translate(856.65831,2511.1488)"><flowRegion
         id="flowRegion2989-6-3-5-1-2-0-9"><rect
           id="rect2991-0-3-3-7-1-3-7"
           width="328.09311"
           height="154.22458"
           x="481.16055"
           y="638.16943" /></flowRegion><flowPara
         style="font-style:normal;font-variant:normal;font-weight:normal;font-stretch:normal;font-size:48px;line-height:1.25;font-family:Lavi;-inkscape-font-specification:Lavi;text-align:center;text-anchor:middle"
         id="flowPara3347-5">... ¿mañana?</flowPara></flowRoot>  </g>
</svg>
