<?xml version="1.0" encoding="UTF-8" standalone="no"?>
<!-- Created with Inkscape (http://www.inkscape.org/) -->

<svg
   xmlns:dc="http://purl.org/dc/elements/1.1/"
   xmlns:cc="http://creativecommons.org/ns#"
   xmlns:rdf="http://www.w3.org/1999/02/22-rdf-syntax-ns#"
   xmlns:svg="http://www.w3.org/2000/svg"
   xmlns="http://www.w3.org/2000/svg"
   xmlns:xlink="http://www.w3.org/1999/xlink"
   xmlns:sodipodi="http://sodipodi.sourceforge.net/DTD/sodipodi-0.dtd"
   xmlns:inkscape="http://www.inkscape.org/namespaces/inkscape"
   id="svg2"
   version="1.1"
   inkscape:version="0.92.1 renderfarm"
   width="2481"
   height="3503"
   sodipodi:docname="Pepper-and-Carrot_by-David-Revoy_E03P06_092.svg">
  <sodipodi:namedview pagecolor="#ffffff" bordercolor="#666666" inkscape:pageopacity="0" inkscape:pageshadow="2" inkscape:window-width="1813" inkscape:window-height="955" id="namedview70" showgrid="false" inkscape:zoom="0.4" inkscape:cx="1284.4231" inkscape:cy="2618.6204" inkscape:current-layer="layer1" /><metadata
     id="metadata8">
    <rdf:RDF>
      <cc:Work
         rdf:about="">
        <dc:format>image/svg+xml</dc:format>
        <dc:type
           rdf:resource="http://purl.org/dc/dcmitype/StillImage" />
        <dc:title />
      </cc:Work>
    </rdf:RDF>
  </metadata>
  <defs
     id="defs6" />
  <sodipodi:namedview
     pagecolor="#ffffff"
     bordercolor="#666666"
     borderopacity="1"
     objecttolerance="10"
     gridtolerance="10"
     guidetolerance="10"
     inkscape:pageopacity="0"
     inkscape:pageshadow="2"
     inkscape:window-width="1920"
     inkscape:window-height="1026"
     id="namedview4"
     showgrid="false"
     inkscape:zoom="0.72090154"
     inkscape:cx="1592.909"
     inkscape:cy="373.09197"
     inkscape:window-x="1920"
     inkscape:window-y="27"
     inkscape:window-maximized="1"
     inkscape:current-layer="layer3" />
  <g
     inkscape:groupmode="layer"
     id="layer2"
     inkscape:label="artwork"
     sodipodi:insensitive="true">
    <image
       sodipodi:absref="/home/deevad/peppercarrot/webcomics/ep03_The-secret-ingredients/lang/nl/../gfx_Pepper-and-Carrot_by-David-Revoy_E03P06.png"
       xlink:href="../gfx_Pepper-and-Carrot_by-David-Revoy_E03P06.png"
       width="2481"
       height="3503"
       id="image10"
       x="0"
       y="0" />
  </g>
  <g
     inkscape:groupmode="layer"
     id="layer3"
     inkscape:label="speechbubbles">
    <path
       style="fill:#ffffff;stroke:none"
       d="m 165.6454,950.96077 c 7.1965,-81.55976 75.99468,-107.63699 121.57218,-120.83048 45.5775,-13.19349 197.14516,-2.39882 213.93686,0 16.7918,2.39882 97.37582,5.79398 120.16452,48.97268 22.7888,43.17869 24.25061,142.35303 -28.52339,169.93943 -52.7739,27.5864 -178.29342,32.4379 -245.17052,29.8335 C 247.82941,1074.9895 157.2496,1066.104 165.6454,950.96077 Z"
       id="path3021"
       inkscape:connector-curvature="0"
       sodipodi:nodetypes="csssssc" />
    <path
       style="fill:#ffffff;stroke:none"
       d="m 732.90225,1078.4027 c -44.306,12.9389 -54.1082,2.7446 -64.3025,-9.8023 -10.1943,-12.5468 -18.0361,-25.0936 -28.6225,-25.8778 -10.5864,-0.7842 -23.9174,4.313 -33.3275,9.4101 -9.4102,5.0972 -16.507,-1.9213 -25.1329,-8.9789 -8.626,-7.0576 -62.695,-32.5825 -62.695,-32.5825 0,0 18.8203,41.1693 28.6225,51.7557 9.8022,10.5864 13.331,14.5073 18.4281,17.644 5.0972,3.1367 18.8203,9.0181 29.7988,6.2734 10.9785,-2.7446 19.9965,-10.5864 27.8383,-14.5072 7.8417,-3.9209 21.1532,-0.549 30.9554,7.2928 9.8022,7.8418 34.739,22.2706 51.9909,15.9972 17.2519,-6.2734 26.4464,-16.6245 26.4464,-16.6245 z"
       id="path3023"
       inkscape:connector-curvature="0"
       sodipodi:nodetypes="csssscssssssc" />
    <path
       style="fill:#ffffff;stroke:none"
       d="m 1241.7867,3148.1949 c 2.8185,-93.0106 132.4709,-94.6114 204.6028,-100.16 72.1319,-5.5486 257.9595,-9.6494 304.303,37.1862 38.4365,38.8446 31.33,132.6617 1.6541,154.0436 -39.3102,28.3234 -52.0386,40.7731 -78.4642,45.6774 -32.7327,6.0749 -319.361,9.9445 -368.3419,-13.4382 -37.1216,-17.7212 -66.5723,-30.2983 -63.7538,-123.309 z"
       id="path3100"
       inkscape:connector-curvature="0"
       sodipodi:nodetypes="zsssssz" />
    <path
       style="fill:#ffffff;stroke:none;stroke-width:1px;stroke-linecap:butt;stroke-linejoin:miter;stroke-opacity:1"
       d="m 1116.307,3102.8707 c 15.5043,16.6969 26.238,26.8343 36.3754,25.6417 10.1374,-1.1926 22.0637,-1.789 29.2196,-11.33 7.1558,-9.5411 22.0637,-19.6785 28.6232,-17.2933 6.5595,2.3853 30.4122,11.9264 38.7607,29.2196 8.3484,17.2932 25.0453,-21.4674 25.0453,-21.4674 0,0 -23.2564,-25.6417 -28.6232,-28.6233 -5.3669,-2.9816 -19.6785,-16.1006 -42.3386,-0.5963 -22.6601,15.5043 -33.3938,32.7975 -45.3202,36.9717 -11.9263,4.1742 -31.0085,0.5963 -41.7422,-12.5227 z"
       id="path3137"
       inkscape:connector-curvature="0" />
  </g>
  <g
     inkscape:groupmode="layer"
     id="layer1"
     inkscape:label="txt">
    <flowRoot
       xml:space="preserve"
       id="flowRoot2987"
       style="font-style:normal;font-variant:normal;font-weight:normal;font-stretch:normal;line-height:0.01%;font-family:Lavi;-inkscape-font-specification:Lavi;letter-spacing:0px;word-spacing:0px;fill:#000000;fill-opacity:1;stroke:none"
       transform="translate(-64.092281,600.08993)"><flowRegion
         id="flowRegion2989"><rect
           id="rect2991"
           width="411.10388"
           height="278.509"
           x="259.8353"
           y="258.6644"
           style="font-style:normal;font-variant:normal;font-weight:normal;font-stretch:normal;font-family:Lavi;-inkscape-font-specification:Lavi" /></flowRegion><flowPara
         style="font-size:48px;line-height:1.25;text-align:center;text-anchor:middle"
         id="flowPara3019">... plus de schaal van een feniksei uit de vulkanenvallei...</flowPara></flowRoot>    <flowRoot
       xml:space="preserve"
       id="flowRoot2987-0"
       style="font-style:normal;font-variant:normal;font-weight:normal;font-stretch:normal;line-height:0.01%;font-family:Lavi;-inkscape-font-specification:Lavi;letter-spacing:0px;word-spacing:0px;fill:#000000;fill-opacity:1;stroke:none"
       transform="translate(1071.7068,2814.2573)"><flowRegion
         id="flowRegion2989-9"><rect
           id="rect2991-9"
           width="626.15924"
           height="205.81171"
           x="120.55251"
           y="265.53046"
           style="font-style:normal;font-variant:normal;font-weight:normal;font-stretch:normal;font-family:Lavi;-inkscape-font-specification:Lavi" /></flowRegion><flowPara
         style="font-size:48px;line-height:1.25;text-align:center;text-anchor:middle"
         id="flowPara3117">... en ten slotte een</flowPara><flowPara
         style="font-size:48px;line-height:1.25;text-align:center;text-anchor:middle"
         id="flowPara4164">drupje melk van een</flowPara><flowPara
         style="font-size:48px;line-height:1.25;text-align:center;text-anchor:middle"
         id="flowPara4166">jonge DrakenKoe</flowPara></flowRoot>  </g>
</svg>
