<?xml version="1.0" encoding="UTF-8" standalone="no"?>
<!-- Created with Inkscape (http://www.inkscape.org/) -->

<svg
   xmlns:dc="http://purl.org/dc/elements/1.1/"
   xmlns:cc="http://creativecommons.org/ns#"
   xmlns:rdf="http://www.w3.org/1999/02/22-rdf-syntax-ns#"
   xmlns:svg="http://www.w3.org/2000/svg"
   xmlns="http://www.w3.org/2000/svg"
   xmlns:xlink="http://www.w3.org/1999/xlink"
   xmlns:sodipodi="http://sodipodi.sourceforge.net/DTD/sodipodi-0.dtd"
   xmlns:inkscape="http://www.inkscape.org/namespaces/inkscape"
   id="svg2"
   version="1.1"
   inkscape:version="0.48.5 r10040"
   width="2481"
   height="3503"
   sodipodi:docname="Pepper-and-Carrot_by-David-Revoy_E03P05.svg">
  <metadata
     id="metadata8">
    <rdf:RDF>
      <cc:Work
         rdf:about="">
        <dc:format>image/svg+xml</dc:format>
        <dc:type
           rdf:resource="http://purl.org/dc/dcmitype/StillImage" />
        <dc:title />
      </cc:Work>
    </rdf:RDF>
  </metadata>
  <defs
     id="defs6" />
  <sodipodi:namedview
     pagecolor="#ffffff"
     bordercolor="#666666"
     borderopacity="1"
     objecttolerance="10"
     gridtolerance="10"
     guidetolerance="10"
     inkscape:pageopacity="0"
     inkscape:pageshadow="2"
     inkscape:window-width="1292"
     inkscape:window-height="745"
     id="namedview4"
     showgrid="false"
     inkscape:zoom="0.43942712"
     inkscape:cx="1656.8628"
     inkscape:cy="263.42505"
     inkscape:window-x="66"
     inkscape:window-y="-8"
     inkscape:window-maximized="1"
     inkscape:current-layer="layer3" />
  <g
     inkscape:groupmode="layer"
     id="layer2"
     inkscape:label="artwork"
     sodipodi:insensitive="true"
     style="display:inline">
    <image
       sodipodi:absref="C:\Users\Gwen\Documents\Academie_du_Gallo\Traduction_BD\peppercarrot_ep03_translation-master\go\../gfx_Pepper-and-Carrot_by-David-Revoy_E03P05.png"
       xlink:href="../gfx_Pepper-and-Carrot_by-David-Revoy_E03P05.png"
       y="0"
       x="0"
       id="image10"
       height="3503"
       width="2481" />
  </g>
  <g
     inkscape:groupmode="layer"
     id="layer3"
     inkscape:label="speechbubbles">
    <path
       style="fill:#ffffff;stroke:none"
       d="m 1606.2675,760.5092 c 12.8925,-84.49542 123.0635,-100.53885 138.2999,-108.02579 15.2364,-7.48694 102.4594,-12.73413 113.0077,-11.66456 10.5483,1.06956 123.5561,9.0596 136.4484,7.99003 12.8923,-1.06955 109.9842,10.75898 135.7688,22.52417 25.7847,11.76518 103.5127,79.55009 103.5127,110.56739 0,31.0173 -29.3009,94.12147 -99.6228,122.99966 -70.3219,28.87818 -205.1057,53.4781 -288.32,48.1303 -83.2144,-5.34781 -145.332,-19.25212 -169.9446,-41.71294 -24.6127,-22.46079 -80.8703,-109.09534 -69.1501,-150.80826 z"
       id="path3061"
       inkscape:connector-curvature="0"
       sodipodi:nodetypes="cssssssssc" />
    <path
       style="fill:#ffffff;stroke:none"
       d="m 1585.3047,973.8132 c 55.1757,24.47096 131.0944,11.89808 156.4446,-58.40596 15.3597,-42.5973 19.8163,-69.87856 19.8163,-69.87856 l 30.2459,34.4178 -14.6015,49.01929 c 0,0 -66.7497,114.72603 -191.9053,44.84743 z"
       id="path3063"
       inkscape:connector-curvature="0"
       sodipodi:nodetypes="cscccc" />
    <path
       style="fill:#ffffff;stroke:none"
       d="m 1078.4244,1879.791 c 3.1289,-70.647 43.8045,-122.6512 264.9128,-121.67 221.1082,0.9812 270.1275,17.6618 281.6001,87.3277 11.4726,69.6659 -26.0741,93.215 -77.1793,118.7265 -51.1052,25.5115 -170.003,59.8538 -268.0416,42.192 -98.0386,-17.6618 -207.5498,-58.8726 -201.292,-126.5762 z"
       id="path3065"
       inkscape:connector-curvature="0" />
    <path
       style="fill:#ffffff;stroke:none;stroke-width:1px;stroke-linecap:butt;stroke-linejoin:miter;stroke-opacity:1"
       d="m 1178.5489,2195.1236 c -49.0193,-99.0815 -43.8045,-127.2416 51.1052,-205.4638 94.9097,-78.2223 31.2889,-88.6519 31.2889,-88.6519 0,0 -235.7098,154.3586 -82.3941,294.1157 z"
       id="path3067"
       inkscape:connector-curvature="0" />
  </g>
  <g
     inkscape:groupmode="layer"
     id="layer1"
     inkscape:label="txt">
    <flowRoot
       xml:space="preserve"
       id="flowRoot2987"
       style="font-size:12px;font-style:normal;font-variant:normal;font-weight:normal;font-stretch:normal;line-height:125%;letter-spacing:0px;word-spacing:0px;fill:#000000;fill-opacity:1;stroke:none;font-family:Lavi;-inkscape-font-specification:Lavi"
       transform="translate(1487.2986,457.6741)"><flowRegion
         id="flowRegion2989"><rect
           id="rect2991"
           width="595.16437"
           height="279.48315"
           x="120.55251"
           y="265.53046"
           style="font-style:normal;font-variant:normal;font-weight:normal;font-stretch:normal;font-family:Lavi;-inkscape-font-specification:Lavi" /></flowRegion><flowPara
         style="font-size:48px;text-align:center;text-anchor:middle"
         id="flowPara3983">Me faoraet dez degoutalhs de brime de hurets, </flowPara><flowPara
         style="font-size:48px;text-align:center;text-anchor:middle"
         id="flowPara3985">pour comencer…</flowPara></flowRoot>    <flowRoot
       xml:space="preserve"
       id="flowRoot2987-3"
       style="font-size:12px;font-style:normal;font-variant:normal;font-weight:normal;font-stretch:normal;line-height:125%;letter-spacing:0px;word-spacing:0px;fill:#000000;fill-opacity:1;stroke:none;font-family:Lavi;-inkscape-font-specification:Lavi"
       transform="translate(979.6641,1559.3361)"><flowRegion
         id="flowRegion2989-7"><rect
           id="rect2991-1"
           width="490.67957"
           height="315.00369"
           x="120.55251"
           y="265.53046"
           style="font-style:normal;font-variant:normal;font-weight:normal;font-stretch:normal;font-family:Lavi;-inkscape-font-specification:Lavi" /></flowRegion><flowPara
         style="font-size:48px;text-align:center;text-anchor:middle"
         id="flowPara3059">... e qheuqe baes de la foreyt faeyney</flowPara></flowRoot>  </g>
</svg>
