<?xml version="1.0" encoding="UTF-8" standalone="no"?>
<!-- Created with Inkscape (http://www.inkscape.org/) -->

<svg
   xmlns:dc="http://purl.org/dc/elements/1.1/"
   xmlns:cc="http://creativecommons.org/ns#"
   xmlns:rdf="http://www.w3.org/1999/02/22-rdf-syntax-ns#"
   xmlns:svg="http://www.w3.org/2000/svg"
   xmlns="http://www.w3.org/2000/svg"
   xmlns:xlink="http://www.w3.org/1999/xlink"
   xmlns:sodipodi="http://sodipodi.sourceforge.net/DTD/sodipodi-0.dtd"
   xmlns:inkscape="http://www.inkscape.org/namespaces/inkscape"
   id="svg2"
   version="1.1"
   inkscape:version="0.92.2 (5c3e80d, 2017-08-06)"
   width="2481"
   height="3503"
   sodipodi:docname="Pepper-and-Carrot_by-David-Revoy_E03P04.svg">
  <metadata
     id="metadata8">
    <rdf:RDF>
      <cc:Work
         rdf:about="">
        <dc:format>image/svg+xml</dc:format>
        <dc:type
           rdf:resource="http://purl.org/dc/dcmitype/StillImage" />
        <dc:title></dc:title>
      </cc:Work>
    </rdf:RDF>
  </metadata>
  <defs
     id="defs6">
    <filter
       style="color-interpolation-filters:sRGB;"
       inkscape:label="Drop Shadow"
       id="filter1061">
      <feFlood
         flood-opacity="0.498039"
         flood-color="rgb(0,0,0)"
         result="flood"
         id="feFlood1051" />
      <feComposite
         in="flood"
         in2="SourceGraphic"
         operator="in"
         result="composite1"
         id="feComposite1053" />
      <feGaussianBlur
         in="composite1"
         stdDeviation="3"
         result="blur"
         id="feGaussianBlur1055" />
      <feOffset
         dx="-1.30208"
         dy="10.1"
         result="offset"
         id="feOffset1057" />
      <feComposite
         in="SourceGraphic"
         in2="offset"
         operator="over"
         result="composite2"
         id="feComposite1059" />
    </filter>
  </defs>
  <sodipodi:namedview
     pagecolor="#ffffff"
     bordercolor="#666666"
     borderopacity="1"
     objecttolerance="10"
     gridtolerance="10"
     guidetolerance="10"
     inkscape:pageopacity="0"
     inkscape:pageshadow="2"
     inkscape:window-width="1366"
     inkscape:window-height="705"
     id="namedview4"
     showgrid="false"
     inkscape:zoom="0.50975437"
     inkscape:cx="1549.3446"
     inkscape:cy="815.15191"
     inkscape:window-x="-8"
     inkscape:window-y="-8"
     inkscape:window-maximized="1"
     inkscape:current-layer="layer3" />
  <g
     inkscape:groupmode="layer"
     id="layer2"
     inkscape:label="artwork"
     sodipodi:insensitive="true"
     style="display:inline">
    <image
       sodipodi:absref="C:\Users\jamesmichael\Downloads\Compressed\peppercarrot_ep03_translation-master\peppercarrot_ep03_translation-master\en\..\gfx_Pepper-and-Carrot_by-David-Revoy_E03P04.png"
       xlink:href="../gfx_Pepper-and-Carrot_by-David-Revoy_E03P04.png"
       width="2481"
       height="3503"
       id="image10"
       x="0"
       y="0" />
  </g>
  <g
     inkscape:groupmode="layer"
     id="layer3"
     inkscape:label="speechbubbles">
    <path
       style="fill:#ffffff;stroke:none"
       d="m 224.19782,1380.2353 c 1.37932,-33.1037 29.59695,-40.0081 54.4247,-42.7668 24.82775,-2.7586 100.69031,8.276 92.4144,48.2762 -8.27592,40.0003 -53.74673,43.4447 -84.09176,39.3068 -30.34503,-4.138 -62.10052,-15.8662 -62.74734,-44.8162 z"
       id="path3938"
       inkscape:connector-curvature="0"
       sodipodi:nodetypes="csssc" />
    <path
       style="color:#000000;fill:#ffffff;fill-opacity:1;fill-rule:nonzero;stroke:none;stroke-width:1px;marker:none;visibility:visible;display:inline;overflow:visible;enable-background:accumulate"
       d="m 368.94185,1386.0419 c 24.68756,9.5472 45.26052,39.3825 48.00359,45.9462 -12.34378,-7.1604 -50.74665,-26.8516 -68.57656,-29.8351 -15.13337,-2.5324 20.57297,-16.1111 20.57297,-16.1111 z"
       id="path3940"
       inkscape:connector-curvature="0"
       sodipodi:nodetypes="ccsc" />
    <path
       style="fill:#ffffff;stroke:none;stroke-width:1px;stroke-linecap:butt;stroke-linejoin:miter;stroke-opacity:1;color:#000000;fill-opacity:1;fill-rule:nonzero;marker:none;visibility:visible;display:inline;overflow:visible;enable-background:accumulate"
       d="m 280.23979,2358.4608 c -54.41549,-7.2554 -134.22488,-30.8355 -149.64261,-75.2748 -15.41772,-44.4393 -11.79002,-99.7617 19.95235,-124.2487 31.74237,-24.487 86.15787,-45.3462 133.31796,-37.1839 47.1601,8.1623 108.83099,38.0908 123.34179,79.8094 14.5108,41.7185 0.90692,130.5972 -59.85705,147.8287 -60.76396,17.2316 -67.11244,9.0693 -67.11244,9.0693 z"
       id="path3970"
       inkscape:connector-curvature="0" />
    <path
       style="fill:#ffffff;stroke:none;stroke-width:1px;stroke-linecap:butt;stroke-linejoin:miter;stroke-opacity:1;color:#000000;fill-opacity:1;fill-rule:nonzero;marker:none;visibility:visible;display:inline;overflow:visible;enable-background:accumulate"
       d="m 254.8459,2340.3223 c 1.81384,47.1601 45.34624,116.0864 91.59941,107.924 -55.32242,-26.3008 -69.83322,-87.0647 -66.20552,-101.5755 3.6277,-14.5108 -25.39389,-6.3485 -25.39389,-6.3485 z"
       id="path3978"
       inkscape:connector-curvature="0" />
    <path
       style="color:#000000;display:inline;overflow:visible;visibility:visible;fill:#ffffff;fill-opacity:1;fill-rule:nonzero;stroke:none;stroke-width:1.17438269px;stroke-linecap:butt;stroke-linejoin:miter;stroke-opacity:1;marker:none;enable-background:accumulate;filter:url(#filter1061)"
       d="M 1257.3105 2121.1582 C 1191.7506 2121.1977 1123.4256 2124.7145 1085.5898 2128.2324 C 1004.8735 2135.7373 977.66406 2177.0147 977.66406 2257.0664 C 981.29176 2320.8576 1030.2664 2349.6266 1073.7988 2368.3887 C 1083.4788 2372.5607 1096.6268 2375.427 1112.0859 2377.4141 C 1115.6229 2389.8844 1122.0451 2416.5555 1113.957 2421.9727 C 1103.3343 2429.0875 1014.298 2447.73 1000.3926 2494.2383 C 1035.7627 2450.7059 1122.1854 2452.0093 1130.3477 2442.0332 C 1138.51 2432.057 1150.9408 2426.2178 1149.127 2385.4062 C 1149.0509 2383.6949 1148.9145 2382.0705 1148.75 2380.4844 C 1199.3493 2383.0469 1261.593 2381.0823 1311.4141 2383.3984 C 1392.1304 2387.1509 1472.845 2305.8484 1471.0312 2253.3145 C 1469.2173 2200.7806 1456.5205 2165.7573 1421.1504 2139.4902 C 1402.36 2125.5359 1331.6118 2121.1134 1257.3105 2121.1582 z "
       id="path3986" />
    <path
       style="color:#000000;display:inline;overflow:visible;visibility:visible;fill:#ffffff;fill-opacity:1;fill-rule:nonzero;stroke:none;stroke-width:1px;stroke-linecap:butt;stroke-linejoin:miter;stroke-opacity:1;marker:none;enable-background:accumulate"
       d="m 1697.7516,2375.8957 c -15.4178,-30.8355 -48.974,-41.7186 -58.0432,-43.5324 28.1146,-3.6277 43.5324,-4.5346 55.3224,2.7208 -27.2078,-24.487 -34.4632,-36.277 -39.9047,-38.9978 -5.4416,-2.7208 17.2316,-3.6277 28.1147,0 -0.907,-7.2554 9.0692,-2.7208 9.0692,-2.7208 l -17.2316,-20.8593 20.8593,8.1624 -6.3485,-43.5324 40.8117,7.2554 17.2315,-34.4632 4.5347,23.5801 79.8093,-38.9978 2.7208,35.3701 58.0432,-34.4632 22.6731,32.6493 18.1385,-24.487 5.4416,18.1385 65.2986,-18.1385 1.8138,27.2078 80.7163,-9.0693 -21.7662,22.6732 34.4632,1.8138 -18.1385,8.1623 19.9523,2.7208 -31.7423,19.0454 37.1839,2.7208 c 0,0 -10.8831,11.79 -17.2316,14.5108 9.9762,5.4416 26.3008,10.8831 26.3008,10.8831 0,0 -17.2315,7.2554 -23.58,8.1623 9.9762,6.3485 17.2316,7.2554 17.2316,7.2554 l -9.9762,3.6277 33.5562,21.7662 -42.6255,4.5346 c 0,0 14.5108,11.7901 19.9524,12.697 -15.4177,-0.9069 -27.2078,-1.8139 -27.2078,-1.8139 0,0 12.697,9.9762 16.3247,9.9762 3.6277,0 -19.0454,1.8139 -19.0454,1.8139 13.6038,12.6969 24.4869,15.4177 24.4869,15.4177 l -42.6254,-1.8139 -8.1624,28.1147 -15.4177,-22.6731 -7.2554,69.8332 -51.6947,-68.0194 -21.7662,20.8593 -24.487,-27.2077 -38.0908,80.7163 0.9069,-57.1363 -65.2986,36.277 17.2316,-29.9285 -109.7379,29.0216 23.58,-30.8355 -50.7878,0.907 12.697,-19.9524 c 0,0 -66.2055,11.79 -61.6709,9.0693 4.5346,-2.7208 26.3009,-17.2315 35.3701,-29.0216 z"
       id="path4002"
       inkscape:connector-curvature="0"
       sodipodi:nodetypes="cccsccccccccccccccccccccccccccccccccsc" />
    <path
       style="color:#000000;display:inline;overflow:visible;visibility:visible;fill:#ffffff;fill-opacity:1;fill-rule:nonzero;stroke:none;stroke-width:1.03558981px;stroke-linecap:butt;stroke-linejoin:miter;stroke-opacity:1;marker:none;enable-background:accumulate"
       d="m 1688.4485,2579.1327 c 7.2554,-47.6587 46.2532,-87.5366 89.7856,-95.3176 43.5324,-7.781 402.6746,5.8358 429.8824,17.5074 27.2077,11.6715 68.9263,20.4251 57.1363,102.1259 -11.7901,81.7008 -63.4848,99.208 -115.1795,101.1534 -51.6947,1.9452 -359.1423,13.6167 -402.6747,-31.1242 -43.5323,-44.7408 -60.7639,-40.8503 -58.9501,-94.3449 z"
       id="path4010"
       inkscape:connector-curvature="0" />
    <path
       style="color:#000000;display:inline;overflow:visible;visibility:visible;fill:#ffffff;fill-opacity:1;fill-rule:nonzero;stroke:none;stroke-width:1px;stroke-linecap:butt;stroke-linejoin:miter;stroke-opacity:1;marker:none;enable-background:accumulate"
       d="m 1710.3533,2761.1002 c 26.3008,-46.2531 61.6709,-30.8354 73.4609,-29.9285 11.79,0.9069 54.4155,4.5346 73.4609,-34.4631 19.0455,-38.9978 67.1125,-44.4393 67.1125,-44.4393 l -27.2078,58.9501 c 0,0 -38.0908,33.5562 -66.2055,37.1839 -28.1147,3.6277 -67.1124,-9.0693 -80.7163,-4.5346 -13.6039,4.5346 -29.0216,4.5346 -39.9047,17.2315 z"
       id="path4018"
       inkscape:connector-curvature="0" />
    <text
       xml:space="preserve"
       style="font-style:normal;font-variant:normal;font-weight:normal;font-stretch:normal;font-size:27.74284935px;line-height:1.25;font-family:Lavi;-inkscape-font-specification:Lavi;letter-spacing:0px;word-spacing:0px;fill:#806600;fill-opacity:1;stroke:#806600;stroke-width:0.94577891px;stroke-linecap:butt;stroke-linejoin:miter;stroke-opacity:1"
       x="1207.0542"
       y="1079.5059"
       id="text46"
       transform="matrix(0.84469864,-0.30858223,0.54738554,0.98388527,0,0)"><tspan
         sodipodi:role="line"
         id="tspan44"
         x="1207.0542"
         y="1079.5059"
         style="fill:#806600;stroke:#806600;stroke-width:0.94577891px;stroke-opacity:1">nyaw</tspan></text>
    <text
       xml:space="preserve"
       style="font-style:normal;font-variant:normal;font-weight:normal;font-stretch:normal;font-size:30.907444px;line-height:1.25;font-family:Lavi;-inkscape-font-specification:Lavi;letter-spacing:0px;word-spacing:0px;fill:#806600;fill-opacity:1;stroke:#806600;stroke-width:1.0536629px;stroke-linecap:butt;stroke-linejoin:miter;stroke-opacity:1"
       x="1179.4917"
       y="1201.7194"
       id="text46-7"
       transform="matrix(1.0398568,-0.28459836,0.34078934,0.86840025,0,0)"><tspan
         sodipodi:role="line"
         id="tspan44-2"
         x="1179.4917"
         y="1201.7194"
         style="fill:#806600;stroke:#806600;stroke-width:1.0536629px;stroke-opacity:1">nyaw!</tspan></text>
    <text
       xml:space="preserve"
       style="font-style:normal;font-weight:normal;font-size:40px;line-height:1.25;font-family:sans-serif;letter-spacing:0px;word-spacing:0px;fill:#000000;fill-opacity:1;stroke:none;stroke-width:1px;stroke-linecap:butt;stroke-linejoin:miter;stroke-opacity:1"
       x="1724.3599"
       y="810.52673"
       id="text876"><tspan
         sodipodi:role="line"
         id="tspan874"
         x="1724.3599"
         y="810.52673">     </tspan></text>
  </g>
  <g
     inkscape:groupmode="layer"
     id="layer1"
     inkscape:label="txt"
     style="display:inline">
    <flowRoot
       xml:space="preserve"
       id="flowRoot2987-4"
       style="font-style:normal;font-variant:normal;font-weight:normal;font-stretch:normal;line-height:0.01%;font-family:Lavi;-inkscape-font-specification:Lavi;text-align:center;letter-spacing:0px;word-spacing:0px;text-anchor:middle;fill:#554400;fill-opacity:1;stroke:none;"
       transform="translate(22.035887,1895.6508)"><flowRegion
         id="flowRegion2989-5"
         style="fill:#554400;"><rect
           id="rect2991-7"
           width="247.77328"
           height="219.06728"
           x="120.55251"
           y="265.53046"
           style="font-style:normal;font-variant:normal;font-weight:normal;font-stretch:normal;font-family:Lavi;-inkscape-font-specification:Lavi;text-align:center;text-anchor:middle;fill:#554400;" /></flowRegion><flowPara
         style="font-size:48px;line-height:1.25;text-align:center;text-anchor:middle;fill:#554400;"
         id="flowPara3033">Ooo!</flowPara><flowPara
         style="font-size:48px;line-height:1.25;text-align:center;text-anchor:middle;fill:#554400;"
         id="flowPara3024">Alam ko </flowPara><flowPara
         style="font-size:48px;line-height:1.25;text-align:center;text-anchor:middle;fill:#554400;"
         id="flowPara884">na!</flowPara></flowRoot>    <flowRoot
       xml:space="preserve"
       id="flowRoot2987-4-5"
       style="font-style:normal;font-variant:normal;font-weight:normal;font-stretch:normal;line-height:0.01%;font-family:Lavi;-inkscape-font-specification:Lavi;text-align:center;letter-spacing:0px;word-spacing:0px;text-anchor:middle;fill:#000000;fill-opacity:1;stroke:none"
       transform="translate(879.39544,1890.0077)"><flowRegion
         id="flowRegion2989-5-5"><rect
           id="rect2991-7-8"
           width="441.97461"
           height="219.18785"
           x="120.55251"
           y="265.53046"
           style="font-style:normal;font-variant:normal;font-weight:normal;font-stretch:normal;font-family:Lavi;-inkscape-font-specification:Lavi;text-align:center;text-anchor:middle" /></flowRegion><flowPara
         style="font-size:48px;line-height:1.25;text-align:center;text-anchor:middle"
         id="flowPara3022-2">... yun nga </flowPara><flowPara
         style="font-size:48px;line-height:1.25;text-align:center;text-anchor:middle"
         id="flowPara3024-5">tamang tama sa kailangan ko !</flowPara></flowRoot>    <flowRoot
       xml:space="preserve"
       id="flowRoot2987-4-5-9"
       style="font-style:normal;font-variant:normal;font-weight:normal;font-stretch:normal;line-height:0.01%;font-family:Lavi;-inkscape-font-specification:Lavi;text-align:center;letter-spacing:0px;word-spacing:0px;text-anchor:middle;fill:#000000;fill-opacity:1;stroke:none"
       transform="matrix(1.6940983,0,0,1.5764632,1283.9363,1854.2203)"><flowRegion
         id="flowRegion2989-5-5-0"><rect
           id="rect2991-7-8-3"
           width="469.71762"
           height="144.28166"
           x="120.55251"
           y="265.53046"
           style="font-style:normal;font-variant:normal;font-weight:normal;font-stretch:normal;font-family:Lavi;-inkscape-font-specification:Lavi;text-align:center;text-anchor:middle" /></flowRegion><flowPara
         style="font-size:48px;line-height:1.25;text-align:center;text-anchor:middle"
         id="flowPara3024-5-4">Carrot !</flowPara></flowRoot>    <flowRoot
       xml:space="preserve"
       id="flowRoot2987-4-5-6"
       style="font-style:normal;font-variant:normal;font-weight:normal;font-stretch:normal;line-height:0.01%;font-family:Lavi;-inkscape-font-specification:Lavi;text-align:center;letter-spacing:0px;word-spacing:0px;text-anchor:middle;fill:#504416;fill-opacity:1;stroke:none"
       transform="rotate(2.7063472,-46396.157,35564.977)"><flowRegion
         id="flowRegion2989-5-5-8"
         style="fill:#504416"><rect
           id="rect2991-7-8-5"
           width="503.49176"
           height="207.00507"
           x="120.55251"
           y="265.53046"
           style="font-style:normal;font-variant:normal;font-weight:normal;font-stretch:normal;font-family:Lavi;-inkscape-font-specification:Lavi;text-align:center;text-anchor:middle;fill:#504416" /></flowRegion><flowPara
         style="font-size:48px;line-height:1.25;text-align:center;text-anchor:middle;fill:#504416"
         id="flowPara3131">Handa ka na! Sasama ka maghanap ng mga gamit! <flowSpan
   style="font-size:64.99999762%;baseline-shift:super;fill:#c87137"
   id="flowSpan1063">♫</flowSpan><flowSpan
   style="fill:#c87137"
   id="flowSpan1065">♪</flowSpan></flowPara></flowRoot>    <flowRoot
       xml:space="preserve"
       id="flowRoot2987-4-0"
       style="font-style:normal;font-variant:normal;font-weight:normal;font-stretch:normal;line-height:0.01%;font-family:Lavi;-inkscape-font-specification:Lavi;text-align:center;letter-spacing:0px;word-spacing:0px;text-anchor:middle;fill:#000000;fill-opacity:1;stroke:none"
       transform="translate(47.104249,1074.6036)"><flowRegion
         id="flowRegion2989-5-2"><rect
           id="rect2991-7-3"
           width="247.77328"
           height="219.06728"
           x="120.55251"
           y="265.53046"
           style="font-style:normal;font-variant:normal;font-weight:normal;font-stretch:normal;font-family:Lavi;-inkscape-font-specification:Lavi;text-align:center;text-anchor:middle" /></flowRegion><flowPara
         style="font-size:48px;line-height:1.25;text-align:center;text-anchor:middle"
         id="flowPara3024-3">...</flowPara></flowRoot>    <text
       xml:space="preserve"
       style="font-style:normal;font-weight:normal;font-size:40px;line-height:1.25;font-family:sans-serif;letter-spacing:0px;word-spacing:0px;fill:#000000;fill-opacity:1;stroke:none;stroke-width:1px;stroke-linecap:butt;stroke-linejoin:miter;stroke-opacity:1"
       x="596.36566"
       y="2673.1887"
       id="text888"><tspan
         sodipodi:role="line"
         id="tspan886"
         x="596.36566"
         y="2673.1887">       </tspan></text>
    <text
       xml:space="preserve"
       style="font-style:normal;font-weight:normal;font-size:40px;line-height:1.25;font-family:sans-serif;letter-spacing:0px;word-spacing:0px;fill:#000000;fill-opacity:1;stroke:none;stroke-width:1px;stroke-linecap:butt;stroke-linejoin:miter;stroke-opacity:1"
       x="1316.3203"
       y="2457.3984"
       id="text892"><tspan
         sodipodi:role="line"
         id="tspan890"
         x="1316.3203"
         y="2493.8916" /></text>
  </g>
</svg>
