<?xml version="1.0" encoding="UTF-8" standalone="no"?>
<!-- Created with Inkscape (http://www.inkscape.org/) -->

<svg
   xmlns:dc="http://purl.org/dc/elements/1.1/"
   xmlns:cc="http://creativecommons.org/ns#"
   xmlns:rdf="http://www.w3.org/1999/02/22-rdf-syntax-ns#"
   xmlns:svg="http://www.w3.org/2000/svg"
   xmlns="http://www.w3.org/2000/svg"
   xmlns:xlink="http://www.w3.org/1999/xlink"
   xmlns:sodipodi="http://sodipodi.sourceforge.net/DTD/sodipodi-0.dtd"
   xmlns:inkscape="http://www.inkscape.org/namespaces/inkscape"
   id="svg2"
   version="1.1"
   inkscape:version="0.92.1 r15371"
   width="2646.3999"
   height="3736.5334"
   sodipodi:docname="Pepper-and-Carrot_by-David-Revoy_E03P04.svg">
  <metadata
     id="metadata8">
    <rdf:RDF>
      <cc:Work
         rdf:about="">
        <dc:format>image/svg+xml</dc:format>
        <dc:type
           rdf:resource="http://purl.org/dc/dcmitype/StillImage" />
        <dc:title />
      </cc:Work>
    </rdf:RDF>
  </metadata>
  <defs
     id="defs6" />
  <sodipodi:namedview
     pagecolor="#ffffff"
     bordercolor="#666666"
     borderopacity="1"
     objecttolerance="10"
     gridtolerance="10"
     guidetolerance="10"
     inkscape:pageopacity="0"
     inkscape:pageshadow="2"
     inkscape:window-width="1372"
     inkscape:window-height="1368"
     id="namedview4"
     showgrid="false"
     inkscape:zoom="0.36045077"
     inkscape:cx="1369.3192"
     inkscape:cy="1488.3494"
     inkscape:window-x="1179"
     inkscape:window-y="0"
     inkscape:window-maximized="0"
     inkscape:current-layer="layer1" />
  <g
     inkscape:groupmode="layer"
     id="layer2"
     inkscape:label="artwork"
     sodipodi:insensitive="true"
     style="display:inline">
    <image
       sodipodi:absref="D:\Mes Documents\GitHub\peppercarrot\peppercarrot_ep03_translation\da\../gfx_Pepper-and-Carrot_by-David-Revoy_E03P04.png"
       xlink:href="../gfx_Pepper-and-Carrot_by-David-Revoy_E03P04.png"
       y="0"
       x="0"
       id="image10"
       height="3736.5334"
       width="2646.3999" />
  </g>
  <g
     inkscape:groupmode="layer"
     id="layer3"
     inkscape:label="speechbubbles">
    <path
       style="fill:#ffffff;stroke:none;stroke-width:1.06666672"
       d="m 239.14434,1472.251 c 1.47128,-35.3106 31.57008,-42.6753 58.05301,-45.6179 26.48294,-2.9425 107.403,8.8277 98.57536,51.4946 -8.82764,42.667 -57.32984,46.341 -89.69787,41.9272 -32.36803,-4.4138 -66.24056,-16.9239 -66.9305,-47.8039 z"
       id="path3938"
       inkscape:connector-curvature="0"
       sodipodi:nodetypes="csssc" />
    <path
       style="color:#000000;display:inline;overflow:visible;visibility:visible;fill:#ffffff;fill-opacity:1;fill-rule:nonzero;stroke:none;stroke-width:1.06666672px;marker:none;enable-background:accumulate"
       d="m 393.53797,1478.4447 c 26.3334,10.1837 48.27789,42.008 51.20383,49.0093 -13.1667,-7.6378 -54.12976,-28.6417 -73.14833,-31.8241 -16.14226,-2.7013 21.9445,-17.1852 21.9445,-17.1852 z"
       id="path3940"
       inkscape:connector-curvature="0"
       sodipodi:nodetypes="ccsc" />
    <path
       style="color:#000000;display:inline;overflow:visible;visibility:visible;fill:#ffffff;fill-opacity:1;fill-rule:nonzero;stroke:none;stroke-width:1.06666672px;stroke-linecap:butt;stroke-linejoin:miter;stroke-opacity:1;marker:none;enable-background:accumulate"
       d="m 298.92244,2515.6915 c -58.04319,-7.7391 -143.1732,-32.8912 -159.61878,-80.2931 -16.44557,-47.4019 -12.57602,-106.4125 21.28251,-132.5319 33.85852,-26.1195 91.90172,-48.3693 142.20582,-39.6629 50.30411,8.7065 116.08639,40.6302 131.56458,85.1301 15.47818,44.4997 0.96738,139.3036 -63.84752,157.6839 -64.8149,18.3804 -71.58661,9.6739 -71.58661,9.6739 z"
       id="path3970"
       inkscape:connector-curvature="0" />
    <path
       style="color:#000000;display:inline;overflow:visible;visibility:visible;fill:#ffffff;fill-opacity:1;fill-rule:nonzero;stroke:none;stroke-width:1.06666672px;stroke-linecap:butt;stroke-linejoin:miter;stroke-opacity:1;marker:none;enable-background:accumulate"
       d="m 271.83563,2496.3438 c 1.93476,50.3041 48.36932,123.8255 97.70603,115.1189 -59.01058,-28.0542 -74.48876,-92.869 -70.61922,-108.3472 3.86955,-15.4782 -27.08681,-6.7717 -27.08681,-6.7717 z"
       id="path3978"
       inkscape:connector-curvature="0" />
    <path
       style="color:#000000;display:inline;overflow:visible;visibility:visible;fill:#ffffff;fill-opacity:1;fill-rule:nonzero;stroke:none;stroke-width:1.06666672px;marker:none;enable-background:accumulate"
       d="m 1042.8427,2367.6814 c 0,-61.9128 31.143,-93.8365 123.5338,-99.6409 92.391,-5.8042 343.611,-11.6086 384.097,8.7065 40.486,20.3152 55.0193,47.402 57.0956,88.0322 2.076,40.6302 -90.3148,103.5104 -182.7056,100.6082 -92.391,-2.9022 -222.1534,2.9022 -271.9822,-11.6086 -49.8288,-14.5109 -105.8862,-36.7608 -110.0386,-86.0974 z"
       id="path3986"
       inkscape:connector-curvature="0" />
    <path
       style="color:#000000;display:inline;overflow:visible;visibility:visible;fill:#ffffff;fill-opacity:1;fill-rule:nonzero;stroke:none;stroke-width:1.06666672px;marker:none;enable-background:accumulate"
       d="m 1064.1252,2574.7021 c 37.7281,-46.4346 129.9133,-45.043 138.6198,-55.6842 8.7064,-10.6413 21.9664,-16.8698 20.0316,-60.4022 -1.9348,-43.5324 -31.9238,-48.3693 -31.9238,-48.3693 l -9.6738,32.8911 c 0,0 15.4126,46.8917 4.0816,54.4808 -11.3309,7.5892 -106.3029,27.4749 -121.1354,77.0838 z"
       id="path3994"
       inkscape:connector-curvature="0"
       sodipodi:nodetypes="csscczc" />
    <path
       style="color:#000000;display:inline;overflow:visible;visibility:visible;fill:#ffffff;fill-opacity:1;fill-rule:nonzero;stroke:none;stroke-width:1.06666672px;stroke-linecap:butt;stroke-linejoin:miter;stroke-opacity:1;marker:none;enable-background:accumulate"
       d="m 1922.1971,2410.2464 c -16.4456,-32.8912 -52.2389,-44.4998 -61.9127,-46.4346 29.9889,-3.8695 46.4345,-4.8369 59.0105,2.9022 -29.0216,-26.1194 -36.7607,-38.6954 -42.565,-41.5976 -5.8044,-2.9022 18.3804,-3.8696 29.989,0 -0.9674,-7.7391 9.6738,-2.9022 9.6738,-2.9022 l -18.3803,-22.2499 22.2499,8.7065 -6.7717,-46.4345 43.5324,7.7391 18.3803,-36.7608 4.837,25.1521 85.1299,-41.5976 2.9022,37.7281 61.9128,-36.7608 24.1846,34.8259 19.3477,-26.1194 5.8044,19.3477 69.6519,-19.3477 1.9347,29.0216 86.0974,-9.6739 -23.2173,24.1848 36.7607,1.9347 -19.3477,8.7064 21.2825,2.9022 -33.8585,20.3151 39.6628,2.9022 c 0,0 -11.6086,12.576 -18.3803,15.4782 10.6412,5.8044 28.0541,11.6086 28.0541,11.6086 0,0 -18.3802,7.7391 -25.152,8.7065 10.6413,6.7717 18.3804,7.7391 18.3804,7.7391 l -10.6413,3.8695 35.7933,23.2173 -45.4672,4.8369 c 0,0 15.4782,12.5761 21.2826,13.5435 -16.4456,-0.9674 -29.0217,-1.9349 -29.0217,-1.9349 0,0 13.5435,10.6413 17.413,10.6413 3.8696,0 -20.3151,1.9349 -20.3151,1.9349 14.5108,13.5433 26.1194,16.4455 26.1194,16.4455 l -45.4671,-1.9348 -8.7066,29.989 -16.4455,-24.1847 -7.7391,74.4888 -55.141,-72.554 -23.2173,22.2499 -26.1195,-29.0216 -40.6301,86.0974 0.9673,-60.9454 -69.6518,38.6955 18.3804,-31.9237 -117.0538,30.9563 25.152,-32.8912 -54.1737,0.9675 13.5435,-21.2825 c 0,0 -70.6192,12.576 -65.7823,9.6739 4.8369,-2.9022 28.0543,-18.3803 37.7281,-30.9564 z"
       id="path4002"
       inkscape:connector-curvature="0"
       sodipodi:nodetypes="cccsccccccccccccccccccccccccccccccccsc" />
    <path
       style="color:#000000;display:inline;overflow:visible;visibility:visible;fill:#ffffff;fill-opacity:1;fill-rule:nonzero;stroke:none;stroke-width:1.06666672px;marker:none;enable-background:accumulate"
       d="m 1788.319,2498.4965 c 8.7774,-49.2751 55.9561,-90.5054 108.6206,-98.5503 52.6647,-8.0449 487.147,6.0339 520.0624,18.1012 32.9153,12.0674 83.3855,21.1178 69.1223,105.5894 -14.2634,84.4716 -76.8026,102.5726 -139.3417,104.5839 -62.5391,2.0112 -434.4824,14.0785 -487.1471,-32.1796 -52.6644,-46.2583 -73.5108,-42.2358 -71.3165,-97.5446 z"
       id="path4010"
       inkscape:connector-curvature="0" />
    <path
       style="color:#000000;display:inline;overflow:visible;visibility:visible;fill:#ffffff;fill-opacity:1;fill-rule:nonzero;stroke:none;stroke-width:1.06666672px;stroke-linecap:butt;stroke-linejoin:miter;stroke-opacity:1;marker:none;enable-background:accumulate"
       d="m 1830.2954,2646.2886 c 28.0541,-49.3366 65.7823,-32.8911 78.3583,-31.9237 12.576,0.9674 58.0432,4.8369 78.3582,-36.7606 20.3152,-41.5977 71.5867,-47.402 71.5867,-47.402 l -29.0216,62.8802 c 0,0 -40.6302,35.7932 -70.6192,39.6628 -29.9891,3.8695 -71.5866,-9.6739 -86.0974,-4.8369 -14.5109,4.8369 -30.9564,4.8369 -42.565,18.3802 z"
       id="path4018"
       inkscape:connector-curvature="0" />
  </g>
  <g
     inkscape:groupmode="layer"
     id="layer1"
     inkscape:label="txt"
     style="display:inline">
    <flowRoot
       xml:space="preserve"
       id="flowRoot2987-4"
       style="font-style:normal;font-variant:normal;font-weight:normal;font-stretch:normal;font-size:12.80000019px;line-height:0.01%;font-family:Lavi;-inkscape-font-specification:Lavi;text-align:center;letter-spacing:0px;word-spacing:0px;text-anchor:middle;fill:#000000;fill-opacity:1;stroke:none;stroke-width:1.06666672"><flowRegion
         id="flowRegion2989-5"
         style="stroke-width:1.06666672"><rect
           id="rect2991-7"
           width="293.88409"
           height="233.67177"
           x="152.0943"
           y="2305.26"
           style="font-style:normal;font-variant:normal;font-weight:normal;font-stretch:normal;font-family:Lavi;-inkscape-font-specification:Lavi;text-align:center;text-anchor:middle;stroke-width:1.13777781" /></flowRegion><flowPara
         style="font-size:51.20000076px;line-height:1.25;text-align:center;text-anchor:middle;stroke-width:1.06666672"
         id="flowPara3024">Ah!... Nu ved jeg</flowPara><flowPara
         style="font-size:51.20000076px;line-height:1.25;text-align:center;text-anchor:middle;stroke-width:1.06666672"
         id="flowPara42">det !</flowPara></flowRoot>    <flowRoot
       xml:space="preserve"
       id="flowRoot2987-4-5"
       style="font-style:normal;font-variant:normal;font-weight:normal;font-stretch:normal;font-size:12.80000019px;line-height:0.01%;font-family:Lavi;-inkscape-font-specification:Lavi;text-align:center;letter-spacing:0px;word-spacing:0px;text-anchor:middle;fill:#000000;fill-opacity:1;stroke:none;stroke-width:1.06666672"><flowRegion
         id="flowRegion2989-5-5"
         style="stroke-width:1.06666672"><rect
           id="rect2991-7-8"
           width="501.03214"
           height="153.90044"
           x="1066.6112"
           y="2299.2407"
           style="font-style:normal;font-variant:normal;font-weight:normal;font-stretch:normal;font-family:Lavi;-inkscape-font-specification:Lavi;text-align:center;text-anchor:middle;stroke-width:1.13777781" /></flowRegion><flowPara
         style="font-size:51.20000076px;line-height:1.25;text-align:center;text-anchor:middle;stroke-width:1.06666672"
         id="flowPara3024-5">... det er lige, hvad jeg har brug for !</flowPara></flowRoot>    <flowRoot
       xml:space="preserve"
       id="flowRoot2987-4-5-9"
       style="font-style:normal;font-variant:normal;font-weight:normal;font-stretch:normal;line-height:0.01%;font-family:Lavi;-inkscape-font-specification:Lavi;text-align:center;letter-spacing:0px;word-spacing:0px;text-anchor:middle;fill:#000000;fill-opacity:1;stroke:none"
       transform="matrix(1.8070382,0,0,1.6815607,1476.6092,1853.7926)"><flowRegion
         id="flowRegion2989-5-5-0"><rect
           id="rect2991-7-8-3"
           width="469.71762"
           height="144.28166"
           x="120.55251"
           y="265.53046"
           style="font-style:normal;font-variant:normal;font-weight:normal;font-stretch:normal;font-family:Lavi;-inkscape-font-specification:Lavi;text-align:center;text-anchor:middle" /></flowRegion><flowPara
         style="font-size:48px;line-height:1.25;text-align:center;text-anchor:middle"
         id="flowPara3024-5-4">Carrot !</flowPara></flowRoot>    <flowRoot
       xml:space="preserve"
       id="flowRoot2987-4-5-6"
       style="font-style:normal;font-variant:normal;font-weight:normal;font-stretch:normal;font-size:12.80000019px;line-height:0.01%;font-family:Lavi;-inkscape-font-specification:Lavi;text-align:center;letter-spacing:0px;word-spacing:0px;text-anchor:middle;fill:#000000;fill-opacity:1;stroke:none;stroke-width:1.06666672"><flowRegion
         id="flowRegion2989-5-5-8"
         style="stroke-width:1.06666672"><rect
           id="rect2991-7-8-5"
           width="596.24304"
           height="256.3165"
           x="1846.2356"
           y="2413.0728"
           style="font-style:normal;font-variant:normal;font-weight:normal;font-stretch:normal;font-family:Lavi;-inkscape-font-specification:Lavi;text-align:center;text-anchor:middle;stroke-width:1.13777781" /></flowRegion><flowPara
         style="font-size:51.20000076px;line-height:1.25;text-align:center;text-anchor:middle;stroke-width:1.06666672"
         id="flowPara3035">Gør dig klar !</flowPara><flowPara
         style="font-size:51.20000076px;line-height:1.25;text-align:center;text-anchor:middle;stroke-width:1.06666672"
         id="flowPara3037">Vi skal ud at lede efter ingredienserne !</flowPara></flowRoot>    <flowRoot
       xml:space="preserve"
       id="flowRoot2987-4-0"
       style="font-style:normal;font-variant:normal;font-weight:normal;font-stretch:normal;font-size:12.80000019px;line-height:0.01%;font-family:Lavi;-inkscape-font-specification:Lavi;text-align:center;letter-spacing:0px;word-spacing:0px;text-anchor:middle;fill:#000000;fill-opacity:1;stroke:none;stroke-width:1.06666672"><flowRegion
         id="flowRegion2989-5-2"
         style="stroke-width:1.06666672"><rect
           id="rect2991-7-3"
           width="264.2915"
           height="233.67177"
           x="178.83388"
           y="1429.4763"
           style="font-style:normal;font-variant:normal;font-weight:normal;font-stretch:normal;font-family:Lavi;-inkscape-font-specification:Lavi;text-align:center;text-anchor:middle;stroke-width:1.13777781" /></flowRegion><flowPara
         style="font-size:51.20000076px;line-height:1.25;text-align:center;text-anchor:middle;stroke-width:1.06666672"
         id="flowPara3024-3">...</flowPara></flowRoot>    <text
       xml:space="preserve"
       style="font-style:normal;font-weight:normal;font-size:12.80000019px;line-height:0%;font-family:sans-serif;letter-spacing:0px;word-spacing:0px;fill:#000000;fill-opacity:1;stroke:none;stroke-width:1.06666672"
       x="1068.2919"
       y="2327.9268"
       id="text3024"><tspan
         sodipodi:role="line"
         id="tspan3026"
         x="1068.2919"
         y="2327.9268"
         style="font-size:42.66666794px;line-height:1.25;font-family:sans-serif;stroke-width:1.06666672"> </tspan></text>
  </g>
</svg>
