<?xml version="1.0" encoding="UTF-8" standalone="no"?>
<!-- Created with Inkscape (http://www.inkscape.org/) -->

<svg
   xmlns:dc="http://purl.org/dc/elements/1.1/"
   xmlns:cc="http://creativecommons.org/ns#"
   xmlns:rdf="http://www.w3.org/1999/02/22-rdf-syntax-ns#"
   xmlns:svg="http://www.w3.org/2000/svg"
   xmlns="http://www.w3.org/2000/svg"
   xmlns:xlink="http://www.w3.org/1999/xlink"
   xmlns:sodipodi="http://sodipodi.sourceforge.net/DTD/sodipodi-0.dtd"
   xmlns:inkscape="http://www.inkscape.org/namespaces/inkscape"
   id="svg2"
   version="1.1"
   inkscape:version="0.92.1 r15371"
   width="2646.3999"
   height="3736.5334"
   sodipodi:docname="Pepper-and-Carrot_by-David-Revoy_E03P06.svg">
  <metadata
     id="metadata8">
    <rdf:RDF>
      <cc:Work
         rdf:about="">
        <dc:format>image/svg+xml</dc:format>
        <dc:type
           rdf:resource="http://purl.org/dc/dcmitype/StillImage" />
        <dc:title />
      </cc:Work>
    </rdf:RDF>
  </metadata>
  <defs
     id="defs6" />
  <sodipodi:namedview
     pagecolor="#ffffff"
     bordercolor="#666666"
     borderopacity="1"
     objecttolerance="10"
     gridtolerance="10"
     guidetolerance="10"
     inkscape:pageopacity="0"
     inkscape:pageshadow="2"
     inkscape:window-width="1372"
     inkscape:window-height="1368"
     id="namedview4"
     showgrid="false"
     inkscape:zoom="0.50975437"
     inkscape:cx="1179.8543"
     inkscape:cy="897.58508"
     inkscape:window-x="1179"
     inkscape:window-y="0"
     inkscape:window-maximized="0"
     inkscape:current-layer="layer1" />
  <g
     inkscape:groupmode="layer"
     id="layer2"
     inkscape:label="artwork"
     sodipodi:insensitive="true">
    <image
       sodipodi:absref="D:\Mes Documents\GitHub\peppercarrot\peppercarrot_ep03_translation\da\../gfx_Pepper-and-Carrot_by-David-Revoy_E03P06.png"
       xlink:href="../gfx_Pepper-and-Carrot_by-David-Revoy_E03P06.png"
       y="0"
       x="0"
       id="image10"
       height="3736.5334"
       width="2646.3999" />
  </g>
  <g
     inkscape:groupmode="layer"
     id="layer3"
     inkscape:label="speechbubbles">
    <path
       style="fill:#ffffff;stroke:none;stroke-width:1.06666672"
       d="m 170.41089,1016.4507 c 7.67627,-86.99711 71.64469,-153.52428 120.26069,-167.59733 48.616,-14.07306 223.8895,-2.55875 241.80064,0 17.91126,2.55874 116.42262,39.66042 140.73056,85.7177 24.30806,46.05727 -10.23488,173.99413 -66.52714,203.41963 -56.29216,29.4255 -225.16886,52.4541 -249.47691,47.3367 -24.30795,-5.1175 -195.74336,-46.0573 -186.78784,-168.8767 z"
       id="path3021"
       inkscape:connector-curvature="0" />
    <path
       style="fill:#ffffff;stroke:none;stroke-width:1.06666672"
       d="m 782.80865,1157.6201 c -47.25973,13.8014 -57.71541,2.9275 -68.58933,-10.4558 -10.87392,-13.3833 -19.23851,-26.7665 -30.53067,-27.603 -11.29216,-0.8365 -25.51189,4.6005 -35.54933,10.0374 -10.03755,5.437 -17.60747,-2.0494 -26.80843,-9.5775 -9.20107,-7.5281 -66.87467,-34.7546 -66.87467,-34.7546 0,0 20.07499,43.9139 30.53067,55.206 10.45568,11.2922 14.21973,15.4745 19.65664,18.8203 5.43701,3.3458 20.07499,9.6193 31.78539,6.6916 11.7104,-2.9275 21.3296,-11.2921 29.69418,-15.4743 8.36448,-4.1823 22.56342,-0.5856 33.0191,7.779 10.45568,8.3646 37.05493,23.7553 55.45696,17.0637 18.40202,-6.6917 28.20949,-17.7328 28.20949,-17.7328 z"
       id="path3023"
       inkscape:connector-curvature="0"
       sodipodi:nodetypes="csssscssssssc" />
    <path
       style="fill:#ffffff;stroke:none;stroke-width:1.06666672"
       d="m 1299.4624,3351.797 c 3.0064,-99.2113 151.7648,-110.3351 228.7055,-116.2536 76.9407,-5.9185 281.1294,-26.6333 358.0701,53.2666 76.9407,79.9 35.5111,150.9222 -11.837,171.6369 -47.3481,20.7149 -68.063,59.1852 -103.574,59.1852 -35.5112,0 -317.6341,7.4687 -389.7593,-32.1204 -38.4635,-21.1126 -84.6117,-36.5033 -81.6053,-135.7147 z"
       id="path3100"
       inkscape:connector-curvature="0"
       sodipodi:nodetypes="zsssssz" />
    <path
       style="fill:#ffffff;stroke:none;stroke-width:1.06666672px;stroke-linecap:butt;stroke-linejoin:miter;stroke-opacity:1"
       d="m 1190.7275,3309.7287 c 16.5379,17.8101 27.9872,28.6233 38.8004,27.3512 10.8132,-1.2721 23.5346,-1.9083 31.1676,-12.0853 7.6328,-10.1772 23.5346,-20.9904 30.5314,-18.4462 6.9968,2.5443 32.4397,12.7215 41.3447,31.1675 8.905,18.4461 26.715,-22.8985 26.715,-22.8985 0,0 -24.8068,-27.3512 -30.5314,-30.5315 -5.7247,-3.1804 -20.9904,-17.174 -45.1612,-0.6361 -24.1707,16.5379 -35.62,34.984 -48.3415,39.4365 -12.7214,4.4525 -33.0758,0.636 -44.525,-13.3576 z"
       id="path3137"
       inkscape:connector-curvature="0" />
  </g>
  <g
     inkscape:groupmode="layer"
     id="layer1"
     inkscape:label="txt">
    <flowRoot
       xml:space="preserve"
       id="flowRoot2987"
       style="font-style:normal;font-variant:normal;font-weight:normal;font-stretch:normal;font-size:12.80000019px;line-height:0.01%;font-family:Lavi;-inkscape-font-specification:Lavi;letter-spacing:0px;word-spacing:0px;fill:#000000;fill-opacity:1;stroke:none;stroke-width:1.06666672"
       transform="translate(-11.770375,-29.425937)"><flowRegion
         id="flowRegion2989"
         style="stroke-width:1.06666672"><rect
           id="rect2991"
           width="722.04608"
           height="329.51019"
           x="67.670502"
           y="913.23328"
           style="font-style:normal;font-variant:normal;font-weight:normal;font-stretch:normal;font-family:Lavi;-inkscape-font-specification:Lavi;stroke-width:1.13777781" /></flowRegion><flowPara
         style="font-size:51.20000076px;line-height:1.25;text-align:center;text-anchor:middle;stroke-width:1.06666672"
         id="flowPara3019">... så nogle</flowPara><flowPara
         style="font-size:51.20000076px;line-height:1.25;text-align:center;text-anchor:middle;stroke-width:1.06666672"
         id="flowPara29">æggeskaller</flowPara><flowPara
         style="font-size:51.20000076px;line-height:1.25;text-align:center;text-anchor:middle;stroke-width:1.06666672"
         id="flowPara3013">fra vulkan-dalens</flowPara><flowPara
         style="font-size:51.20000076px;line-height:1.25;text-align:center;text-anchor:middle;stroke-width:1.06666672"
         id="flowPara27">føniks...</flowPara></flowRoot>    <flowRoot
       xml:space="preserve"
       id="flowRoot2987-0"
       style="font-style:normal;font-variant:normal;font-weight:normal;font-stretch:normal;font-size:12.80000019px;line-height:0.01%;font-family:Lavi;-inkscape-font-specification:Lavi;letter-spacing:0px;word-spacing:0px;fill:#000000;fill-opacity:1;stroke:none;stroke-width:1.06666672"><flowRegion
         id="flowRegion2989-9"
         style="stroke-width:1.06666672"><rect
           id="rect2991-9"
           width="667.9032"
           height="219.53249"
           x="1271.7433"
           y="3285.1069"
           style="font-style:normal;font-variant:normal;font-weight:normal;font-stretch:normal;font-family:Lavi;-inkscape-font-specification:Lavi;stroke-width:1.13777781" /></flowRegion><flowPara
         style="font-size:51.20000076px;line-height:1.25;text-align:center;text-anchor:middle;stroke-width:1.06666672"
         id="flowPara3117"> ... og til sidst nogle mælkedråber fra en ung drageko</flowPara><flowPara
         style="font-size:51.20000076px;line-height:1.25;text-align:center;text-anchor:middle;stroke-width:1.06666672"
         id="flowPara3020"> </flowPara></flowRoot>  </g>
</svg>
