<?xml version="1.0" encoding="UTF-8" standalone="no"?>
<!-- Created with Inkscape (http://www.inkscape.org/) -->

<svg
   xmlns:dc="http://purl.org/dc/elements/1.1/"
   xmlns:cc="http://creativecommons.org/ns#"
   xmlns:rdf="http://www.w3.org/1999/02/22-rdf-syntax-ns#"
   xmlns:svg="http://www.w3.org/2000/svg"
   xmlns="http://www.w3.org/2000/svg"
   xmlns:xlink="http://www.w3.org/1999/xlink"
   xmlns:sodipodi="http://sodipodi.sourceforge.net/DTD/sodipodi-0.dtd"
   xmlns:inkscape="http://www.inkscape.org/namespaces/inkscape"
   id="svg2"
   version="1.1"
   inkscape:version="0.92.1 r15371"
   width="2646.3999"
   height="3736.5334"
   sodipodi:docname="Pepper-and-Carrot_by-David-Revoy_E03P07.svg">
  <metadata
     id="metadata8">
    <rdf:RDF>
      <cc:Work
         rdf:about="">
        <dc:format>image/svg+xml</dc:format>
        <dc:type
           rdf:resource="http://purl.org/dc/dcmitype/StillImage" />
        <dc:title />
      </cc:Work>
    </rdf:RDF>
  </metadata>
  <defs
     id="defs6" />
  <sodipodi:namedview
     pagecolor="#ffffff"
     bordercolor="#666666"
     borderopacity="1"
     objecttolerance="10"
     gridtolerance="10"
     guidetolerance="10"
     inkscape:pageopacity="0"
     inkscape:pageshadow="2"
     inkscape:window-width="1372"
     inkscape:window-height="1368"
     id="namedview4"
     showgrid="false"
     inkscape:zoom="0.38544754"
     inkscape:cx="1259.4974"
     inkscape:cy="2140.4425"
     inkscape:window-x="1179"
     inkscape:window-y="0"
     inkscape:window-maximized="0"
     inkscape:current-layer="layer1" />
  <g
     inkscape:groupmode="layer"
     id="layer2"
     inkscape:label="artwork"
     sodipodi:insensitive="true">
    <image
       sodipodi:absref="D:\Mes Documents\GitHub\peppercarrot\peppercarrot_ep03_translation\da\../gfx_Pepper-and-Carrot_by-David-Revoy_E03P07.png"
       xlink:href="../gfx_Pepper-and-Carrot_by-David-Revoy_E03P07.png"
       y="0"
       x="0"
       id="image10"
       height="3736.5334"
       width="2646.3999" />
  </g>
  <g
     inkscape:groupmode="layer"
     id="layer3"
     inkscape:label="speechbubbles">
    <path
       style="fill:#ffffff;stroke:none;stroke-width:1.06666672"
       d="m 537.04285,2358.8817 c -6.83818,-28.2237 53.73613,-32.7387 61.57264,-38.5848 7.83652,-5.8462 25.74857,-26.8925 39.18264,-30.4003 13.43397,-3.5077 62.69208,11.6925 79.48466,19.8771 16.79248,8.1847 41.28802,-8.5829 66.0506,-4.6768 24.76259,3.9059 32.46563,25.7232 43.66062,32.7384 11.19498,7.0155 63.81162,9.354 64.93116,39.7541 1.11954,30.4003 -76.12615,30.4003 -89.56022,32.7387 -13.43407,2.3386 -50.37765,18.7077 -70.52865,16.3693 -20.151,-2.3385 -58.21412,-14.0308 -77.24569,-16.3693 -19.03156,-2.3384 -47.0191,10.5231 -59.33363,1.1693 -12.31453,-9.354 -11.19503,-16.3694 -16.79253,-21.0463 -5.59752,-4.6769 -34.58343,-3.3458 -41.4216,-31.5694 z"
       id="path3250"
       inkscape:connector-curvature="0"
       sodipodi:nodetypes="zssszsssssssz" />
    <path
       style="fill:#ffffff;stroke:none;stroke-width:1.06666672"
       d="m 369.34818,2562.3365 c 12.64399,-80.2844 56.32324,-157.1282 319.54816,-167.4505 263.22493,-10.3223 371.27356,95.1945 372.42306,155.9813 1.1494,60.7868 -77.01343,174.3321 -289.66238,176.6259 -212.64896,2.2939 -395.41211,-8.0285 -402.30884,-165.1567 z"
       id="path3270"
       inkscape:connector-curvature="0" />
    <path
       style="fill:#ffffff;stroke:none;stroke-width:1.06666672"
       d="m 991.23263,2598.4514 c 20.02487,15.5749 48.94977,34.4874 58.96217,33.3748 10.0125,-1.1124 42.2749,-1.1124 61.1873,-10.0124 18.9123,-8.9 87.6704,38.6934 92.1204,73.1808 -37.8248,-40.0499 -90.6273,-46.3989 -107.912,-43.3873 -14.907,2.5972 -47.6206,28.0563 -57.6331,28.0563 -27.8124,2.2249 -58.96221,-11.125 -68.97466,-36.7123 -10.01245,-25.5875 22.24989,-44.4999 22.24989,-44.4999 z"
       id="path3272"
       inkscape:connector-curvature="0"
       sodipodi:nodetypes="ccscscsc" />
    <path
       style="fill:#ffffff;stroke:none;stroke-width:1.06666672"
       d="m 332.78097,2943.2764 c 10.64126,-111.2495 111.24946,-238.9446 347.29178,-220.5642 236.04231,18.3804 326.00925,97.706 319.23755,249.5857 -6.7717,151.8797 -134.46673,210.8904 -332.78097,202.1838 -198.31424,-8.7064 -345.357,-70.6192 -333.74836,-231.2053 z"
       id="path3274"
       inkscape:connector-curvature="0" />
    <path
       style="fill:#ffffff;stroke:none;stroke-width:1.06666672"
       d="m 986.26009,2933.6026 c 51.99701,-19.3478 88.70081,8.7064 99.91591,30.9563 11.215,22.2498 67.2901,10.6412 79.5248,-12.5761 -21.2916,56.1878 -85.0165,58.2819 -129.8479,27.8153 -13.1618,-8.9446 -37.17643,3.6352 -44.31114,29.7334 -6.59423,24.1213 -33.82907,36.2348 -33.82907,36.2348 z"
       id="path3276"
       inkscape:connector-curvature="0"
       sodipodi:nodetypes="cscsscc" />
    <path
       style="fill:#ffffff;stroke:none;stroke-width:1.06666672"
       d="m 584.6715,1258.3962 c 2.55874,-35.8224 33.26359,-51.1749 47.33665,-56.2923 14.07306,-5.1174 74.20338,-12.7937 113.86381,-12.7937 39.66043,0 138.17183,2.5587 154.80361,3.8382 16.6318,1.2793 62.68907,26.8666 63.96844,49.8953 1.27937,23.0286 -6.39684,38.381 -29.42548,52.4541 -23.02863,14.0731 -166.31793,20.4699 -175.27352,19.1905 -8.95557,-1.2793 -127.93686,-10.2349 -135.61307,-14.073 -7.67622,-3.8381 -38.38107,-14.073 -39.66044,-42.2191 z"
       id="path3278"
       inkscape:connector-curvature="0" />
    <path
       style="fill:#ffffff;stroke:none;stroke-width:1.06666672"
       d="m 619.21445,1356.9075 c 8.95559,-55.0129 33.2636,-90.8352 180.391,-83.1589 147.1274,7.6761 197.02278,34.5429 195.74341,78.0415 -1.27937,43.4984 -65.2478,101.0701 -181.67035,90.8351 -116.42256,-10.2349 -198.30216,-21.7493 -194.46406,-85.7177 z"
       id="path3280"
       inkscape:connector-curvature="0" />
    <path
       style="fill:#ffffff;stroke:none;stroke-width:1.06666672"
       d="m 977.78145,1335.3872 c 37.30565,-10.2407 47.02655,-24.4522 63.11915,-31.0355 16.0926,-6.5834 39.8638,14.6378 50.1004,14.6213 9.873,-0.7438 21.2626,-9.4845 38.4091,-27.788 -23.424,42.9699 -35.4295,39.5692 -44.5916,40.2274 -12.5949,0.9047 -23.7036,-10.814 -37.3221,-2.6118 -13.1912,7.9448 -48.50526,51.3104 -71.91273,52.7734 -23.40746,1.4629 -30.50735,-6.9999 -30.50735,-6.9999 z"
       id="path3282"
       inkscape:connector-curvature="0"
       sodipodi:nodetypes="csccssscc" />
    <path
       style="fill:#ffffff;stroke:none;stroke-width:1.06666672"
       d="m 577.52978,258.77868 c -12.57603,-60.94536 20.31511,-111.24945 41.59761,-123.82549 21.28251,-12.57602 58.0432,-28.0542 76.42354,-30.95636 18.38034,-2.90216 309.56367,-11.608641 326.97667,-3.86955 17.4129,7.7391 95.7713,35.79331 113.1842,73.52138 17.413,37.72808 19.3477,105.44513 -3.8696,126.72764 -23.2172,21.28251 -45.4671,62.88013 -177.99906,68.68445 -132.53196,5.80432 -306.6376,-10.52502 -344.38961,-55.14104 -21.28251,-25.15205 -31.92375,-55.14103 -31.92375,-55.14103 z"
       id="path3286"
       inkscape:connector-curvature="0"
       sodipodi:nodetypes="csssssssc" />
    <path
       style="fill:#ffffff;stroke:none;stroke-width:1.06666672"
       d="m 1130.5805,224.49954 c 61.408,-29.4422 188.4301,-72.34369 310.4049,56.36079 -156.4643,-92.53263 -175.8121,-69.82007 -299.4692,-30.28341 -123.6573,39.53667 -113.5628,3.36482 -113.5628,3.36482 z"
       id="path3288"
       inkscape:connector-curvature="0" />
  </g>
  <g
     inkscape:groupmode="layer"
     id="layer1"
     inkscape:label="txt">
    <flowRoot
       xml:space="preserve"
       id="flowRoot2987"
       style="font-style:normal;font-variant:normal;font-weight:normal;font-stretch:normal;font-size:12.80000019px;line-height:0.01%;font-family:Lavi;-inkscape-font-specification:Lavi;letter-spacing:0px;word-spacing:0px;fill:#000000;fill-opacity:1;stroke:none;stroke-width:1.06666672"><flowRegion
         id="flowRegion2989"
         style="stroke-width:1.06666672"><rect
           id="rect2991"
           width="595.57172"
           height="241.951"
           x="564.54956"
           y="136.79715"
           style="font-style:normal;font-variant:normal;font-weight:normal;font-stretch:normal;font-family:Lavi;-inkscape-font-specification:Lavi;stroke-width:1.13777781" /></flowRegion><flowPara
         style="font-size:51.20000076px;line-height:1.25;text-align:center;text-anchor:middle;stroke-width:1.06666672"
         id="flowPara3017">Det var det, Carrot.</flowPara><flowPara
         style="font-size:51.20000076px;line-height:1.25;text-align:center;text-anchor:middle;stroke-width:1.06666672"
         id="flowPara3043">Jeg tror vi har</flowPara><flowPara
         style="font-size:51.20000076px;line-height:1.25;text-align:center;text-anchor:middle;stroke-width:1.06666672"
         id="flowPara63">det hele</flowPara><flowPara
         style="font-size:51.20000076px;line-height:1.25;text-align:center;text-anchor:middle;stroke-width:1.06666672"
         id="flowPara3039"> </flowPara></flowRoot>    <flowRoot
       xml:space="preserve"
       id="flowRoot2987-8"
       style="font-style:normal;font-variant:normal;font-weight:normal;font-stretch:normal;font-size:12.80000019px;line-height:0.01%;font-family:Lavi;-inkscape-font-specification:Lavi;letter-spacing:0px;word-spacing:0px;fill:#000000;fill-opacity:1;stroke:none;stroke-width:1.06666672"><flowRegion
         id="flowRegion2989-57"
         style="stroke-width:1.06666672"><rect
           id="rect2991-1"
           width="689.55188"
           height="85.317352"
           x="445.08466"
           y="1209.7252"
           style="font-style:normal;font-variant:normal;font-weight:normal;font-stretch:normal;font-family:Lavi;-inkscape-font-specification:Lavi;stroke-width:1.13777781" /></flowRegion><flowPara
         style="font-size:51.20000076px;line-height:1.25;text-align:center;text-anchor:middle;stroke-width:1.06666672"
         id="flowPara3017-3">Det ser ...</flowPara><flowPara
         style="font-size:51.20000076px;line-height:1.25;text-align:center;text-anchor:middle;stroke-width:1.06666672"
         id="flowPara3057"> </flowPara></flowRoot>    <flowRoot
       xml:space="preserve"
       id="flowRoot2987-8-6"
       style="font-style:normal;font-variant:normal;font-weight:normal;font-stretch:normal;font-size:12.80000019px;line-height:0.01%;font-family:Lavi;-inkscape-font-specification:Lavi;letter-spacing:0px;word-spacing:0px;fill:#000000;fill-opacity:1;stroke:none;stroke-width:1.06666672"><flowRegion
         id="flowRegion2989-57-9"
         style="stroke-width:1.06666672"><rect
           id="rect2991-1-7"
           width="689.55188"
           height="85.317352"
           x="446.4039"
           y="1326.2277"
           style="font-style:normal;font-variant:normal;font-weight:normal;font-stretch:normal;font-family:Lavi;-inkscape-font-specification:Lavi;stroke-width:1.13777781" /></flowRegion><flowPara
         style="font-size:51.20000076px;line-height:1.25;text-align:center;text-anchor:middle;stroke-width:1.06666672"
         id="flowPara3017-3-3">... perfekt ud</flowPara><flowPara
         style="font-size:51.20000076px;line-height:1.25;text-align:center;text-anchor:middle;stroke-width:1.06666672"
         id="flowPara3057-7"> </flowPara></flowRoot>    <flowRoot
       xml:space="preserve"
       id="flowRoot2987-8-6-0"
       style="font-style:normal;font-variant:normal;font-weight:normal;font-stretch:normal;font-size:12.80000019px;line-height:0.01%;font-family:Lavi;-inkscape-font-specification:Lavi;letter-spacing:0px;word-spacing:0px;fill:#000000;fill-opacity:1;stroke:none;stroke-width:1.06666672"><flowRegion
         id="flowRegion2989-57-9-5"
         style="stroke-width:1.06666672"><rect
           id="rect2991-1-7-6"
           width="689.55188"
           height="85.317352"
           x="358.10718"
           y="2325.4805"
           style="font-style:normal;font-variant:normal;font-weight:normal;font-stretch:normal;font-family:Lavi;-inkscape-font-specification:Lavi;stroke-width:1.13777781" /></flowRegion><flowPara
         style="font-size:51.20000076px;line-height:1.25;text-align:center;text-anchor:middle;stroke-width:1.06666672"
         id="flowPara3017-3-3-0">Mmm ...</flowPara><flowPara
         style="font-size:51.20000076px;line-height:1.25;text-align:center;text-anchor:middle;stroke-width:1.06666672"
         id="flowPara3057-7-3"> </flowPara></flowRoot>    <flowRoot
       xml:space="preserve"
       id="flowRoot2987-8-6-0-1"
       style="font-style:normal;font-variant:normal;font-weight:normal;font-stretch:normal;line-height:0.01%;font-family:Lavi;-inkscape-font-specification:Lavi;letter-spacing:0px;word-spacing:0px;fill:#000000;fill-opacity:1;stroke:none"
       transform="matrix(1.095474,0,0,1.1227921,204.13568,2189.4243)"><flowRegion
         id="flowRegion2989-57-9-5-4"><rect
           id="rect2991-1-7-6-9"
           width="697.53107"
           height="220.44458"
           x="120.55251"
           y="265.53046"
           style="font-style:normal;font-variant:normal;font-weight:normal;font-stretch:normal;font-family:Lavi;-inkscape-font-specification:Lavi" /></flowRegion><flowPara
         style="font-size:64px;line-height:1.25;text-align:center;text-anchor:middle"
         id="flowPara3149">Bedste ... Kaffe ... Nogensinde!</flowPara><flowPara
         style="font-size:64px;line-height:1.25;text-align:center;text-anchor:middle"
         id="flowPara3057-7-3-2"> </flowPara></flowRoot>    <flowRoot
       xml:space="preserve"
       id="flowRoot2987-4"
       style="font-style:normal;font-variant:normal;font-weight:normal;font-stretch:normal;font-size:12.80000019px;line-height:0.01%;font-family:Lavi;-inkscape-font-specification:Lavi;letter-spacing:0px;word-spacing:0px;fill:#000000;fill-opacity:1;stroke:none;stroke-width:1.06666672"
       transform="translate(2.5943868,15.566321)"><flowRegion
         id="flowRegion2989-3"
         style="stroke-width:1.06666672"><rect
           id="rect2991-15"
           width="721.6618"
           height="427.22623"
           x="306.6402"
           y="2764.5999"
           style="font-style:normal;font-variant:normal;font-weight:normal;font-stretch:normal;font-family:Lavi;-inkscape-font-specification:Lavi;stroke-width:1.13777781" /></flowRegion><flowPara
         style="font-size:51.20000076px;line-height:1.25;text-align:center;text-anchor:middle;stroke-width:1.06666672"
         id="flowPara3061">Det er lige, hvad jeg</flowPara><flowPara
         style="font-size:51.20000076px;line-height:1.25;text-align:center;text-anchor:middle;stroke-width:1.06666672"
         id="flowPara75">har brug for, så jeg kan</flowPara><flowPara
         style="font-size:51.20000076px;line-height:1.25;text-align:center;text-anchor:middle;stroke-width:1.06666672"
         id="flowPara3063">arbejde hele natten og</flowPara><flowPara
         style="font-size:51.20000076px;line-height:1.25;text-align:center;text-anchor:middle;stroke-width:1.06666672"
         id="flowPara3065">lave den bedste eliksir</flowPara><flowPara
         style="font-size:51.20000076px;line-height:1.25;text-align:center;text-anchor:middle;stroke-width:1.06666672"
         id="flowPara81">til morgendagens</flowPara><flowPara
         style="font-size:51.20000076px;line-height:1.25;text-align:center;text-anchor:middle;stroke-width:1.06666672"
         id="flowPara3067">konkurrence !</flowPara></flowRoot>    <flowRoot
       xml:space="preserve"
       id="flowRoot2987-4-6"
       style="font-style:normal;font-variant:normal;font-weight:normal;font-stretch:normal;font-size:12.80000019px;line-height:0.01%;font-family:Lavi;-inkscape-font-specification:Lavi;letter-spacing:0px;word-spacing:0px;fill:#000000;fill-opacity:1;stroke:none;stroke-width:1.06666672"
       transform="translate(-2)"><flowRegion
         id="flowRegion2989-3-2"
         style="stroke-width:1.06666672"><rect
           id="rect2991-15-0"
           width="721.6618"
           height="427.22623"
           x="2029.5277"
           y="3648.7517"
           style="font-style:normal;font-variant:normal;font-weight:normal;font-stretch:normal;font-family:Lavi;-inkscape-font-specification:Lavi;stroke-width:1.13777781" /></flowRegion><flowPara
         style="font-size:51.20000076px;line-height:1.25;text-align:center;text-anchor:middle;stroke-width:1.06666672"
         id="flowPara3195-9">Fortsættes...</flowPara></flowRoot>    <text
       xml:space="preserve"
       style="font-style:normal;font-weight:normal;font-size:12.80000019px;line-height:0%;font-family:sans-serif;letter-spacing:0px;word-spacing:0px;fill:#000000;fill-opacity:1;stroke:none;stroke-width:1.06666672"
       x="122.62996"
       y="3691.5979"
       id="text3069"><tspan
         sodipodi:role="line"
         id="tspan3071"
         x="122.62996"
         y="3691.5979"
         style="font-size:42.66666794px;line-height:1.25;font-family:sans-serif;stroke-width:1.06666672">Script og kunst: David Revoy. Oversættelse: Marie Moestrup og Juan José Segura</tspan></text>
    <text
       xml:space="preserve"
       style="font-style:normal;font-weight:normal;font-size:40px;line-height:1.25;font-family:sans-serif;letter-spacing:0px;word-spacing:0px;fill:#000000;fill-opacity:1;stroke:none"
       x="933.97925"
       y="2561.2761"
       id="text67"><tspan
         sodipodi:role="line"
         id="tspan65"
         x="933.97925"
         y="2561.2761"> </tspan></text>
  </g>
</svg>
