<?xml version="1.0" encoding="UTF-8" standalone="no"?>
<!-- Created with Inkscape (http://www.inkscape.org/) -->

<svg
   xmlns:dc="http://purl.org/dc/elements/1.1/"
   xmlns:cc="http://creativecommons.org/ns#"
   xmlns:rdf="http://www.w3.org/1999/02/22-rdf-syntax-ns#"
   xmlns:svg="http://www.w3.org/2000/svg"
   xmlns="http://www.w3.org/2000/svg"
   xmlns:xlink="http://www.w3.org/1999/xlink"
   xmlns:sodipodi="http://sodipodi.sourceforge.net/DTD/sodipodi-0.dtd"
   xmlns:inkscape="http://www.inkscape.org/namespaces/inkscape"
   id="svg2"
   version="1.1"
   inkscape:version="0.92.1 r15371"
   width="2646.3999"
   height="3736.5334"
   sodipodi:docname="Pepper-and-Carrot_by-David-Revoy_E03P02.svg">
  <metadata
     id="metadata8">
    <rdf:RDF>
      <cc:Work
         rdf:about="">
        <dc:format>image/svg+xml</dc:format>
        <dc:type
           rdf:resource="http://purl.org/dc/dcmitype/StillImage" />
        <dc:title />
      </cc:Work>
    </rdf:RDF>
  </metadata>
  <defs
     id="defs6" />
  <sodipodi:namedview
     pagecolor="#ffffff"
     bordercolor="#666666"
     borderopacity="1"
     objecttolerance="10"
     gridtolerance="10"
     guidetolerance="10"
     inkscape:pageopacity="0"
     inkscape:pageshadow="2"
     inkscape:window-width="1372"
     inkscape:window-height="1368"
     id="namedview4"
     showgrid="false"
     inkscape:zoom="0.36213234"
     inkscape:cx="1011.9756"
     inkscape:cy="1376.0635"
     inkscape:window-x="1179"
     inkscape:window-y="0"
     inkscape:window-maximized="0"
     inkscape:current-layer="layer1" />
  <g
     inkscape:groupmode="layer"
     id="layer3"
     inkscape:label="artwork"
     sodipodi:insensitive="true">
    <image
       sodipodi:absref="D:\Mes Documents\GitHub\peppercarrot\peppercarrot_ep03_translation\da\../gfx_Pepper-and-Carrot_by-David-Revoy_E03P02.png"
       xlink:href="../gfx_Pepper-and-Carrot_by-David-Revoy_E03P02.png"
       width="2646.3999"
       height="3736.5334"
       id="image10"
       x="0"
       y="0" />
  </g>
  <g
     inkscape:groupmode="layer"
     id="layer2"
     inkscape:label="speechbubbles">
    <path
       style="color:#000000;display:inline;overflow:visible;visibility:visible;fill:#ffffff;fill-opacity:1;fill-rule:nonzero;stroke:none;stroke-width:1.06666672px;marker:none;enable-background:accumulate"
       d="m 864.74835,1434.2268 c 27.99657,-50.8087 49.77167,-53.9194 65.32531,-58.067 2.07383,5.1845 7.25837,13.4798 7.25837,13.4798 0,0 30.07038,-11.406 42.5133,-11.406 12.44292,0 12.44292,17.6275 12.44292,17.6275 0,0 -58.06695,23.8489 -69.47295,33.181 -5.18455,-14.5167 -9.33219,-20.7381 -9.33219,-26.9595 -9.33219,-1.0369 -38.36566,14.5167 -48.73476,32.1442 z"
       id="path4456"
       inkscape:connector-curvature="0" />
    <path
       style="color:#000000;display:inline;overflow:visible;visibility:visible;fill:#ffffff;fill-opacity:1;fill-rule:nonzero;stroke:none;stroke-width:1.06666672px;marker:none;enable-background:accumulate"
       d="m 954.84064,1232.2758 c -24.21305,24.5317 -29.97806,54.9043 -27.67205,68.9224 2.306,14.018 34.59007,79.4359 36.89607,96.9585 2.30601,17.5228 -32.28405,95.7904 -25.36605,121.4903 6.91801,25.7 27.67206,102.7995 118.75929,109.8086 91.0871,7.009 115.3002,-8.1772 144.1251,-8.1772 28.8251,0 136.0543,22.1952 152.1964,18.6908 16.1421,-3.5046 24.213,-9.3454 35.7429,-11.6818 11.5301,-2.3364 98.0053,1.1682 127.9834,-56.0725 29.978,-57.2406 32.2841,-77.0996 17.295,-116.8176 -14.9891,-39.7178 -4.6119,-81.7722 8.071,-129.6675 12.683,-47.8951 -15.5641,-98.2349 -34.5901,-106.304 -49.579,-21.0271 -496.9439,-54.9042 -553.44096,12.85 z"
       id="path4464"
       inkscape:connector-curvature="0"
       sodipodi:nodetypes="csssssssssssc" />
    <path
       style="color:#000000;display:inline;overflow:visible;visibility:visible;fill:#ffffff;fill-opacity:1;fill-rule:nonzero;stroke:none;stroke-width:1.06666672px;marker:none;enable-background:accumulate"
       d="m 982.20138,1845.6928 c 3.42714,-61.5034 39.41212,-88.3125 51.40712,-94.6206 11.995,-6.308 23.99,-59.9264 219.337,-70.9654 118.2363,-6.3081 173.0705,33.1171 185.0656,36.2711 11.995,3.154 104.0755,83.7362 82.7114,151.7776 -15.4221,49.1169 -33.6403,67.0135 -65.1578,76.1585 -36.2635,10.5223 -259.1669,13.3465 -308.8606,0.7304 -49.6935,-12.616 -143.9399,6.308 -164.50272,-99.3516 z"
       id="path4472"
       inkscape:connector-curvature="0"
       sodipodi:nodetypes="cscssssc" />
    <path
       style="color:#000000;display:inline;overflow:visible;visibility:visible;fill:#ffffff;fill-opacity:1;fill-rule:nonzero;stroke:none;stroke-width:1.06666672px;marker:none;enable-background:accumulate"
       d="m 1494.5248,1845.8645 c 53.1074,38.1583 131.614,40.5432 157.0131,38.1583 -66.9614,20.2716 -133.9229,22.6565 -168.5581,-4.7698 -34.6353,-27.4262 11.545,-33.3885 11.545,-33.3885 z"
       id="path4480"
       inkscape:connector-curvature="0" />
    <path
       style="color:#000000;display:inline;overflow:visible;visibility:visible;fill:#ffffff;fill-opacity:1;fill-rule:nonzero;stroke:none;stroke-width:1.12781894px;marker:none;enable-background:accumulate"
       d="m 1210.7684,2162.8858 c -10e-5,-23.9253 9.1266,-35.888 15.6456,-40.2381 6.5192,-4.3502 0,-25.013 40.4182,-38.0634 40.418,-13.0502 122.558,-9.7877 134.2923,-8.7002 13.0381,-5.4376 134.2925,-8.7001 187.7487,31.5382 53.4562,40.2383 80.8361,106.5772 -22.1648,137.0277 75.621,21.7505 177.3182,94.6145 170.799,165.3035 -6.519,70.6889 -164.2801,157.6907 -284.2304,170.7409 -119.9506,13.0503 -303.7877,-63.0763 -325.9525,-128.3276 -22.1649,-65.2514 40.4181,-168.5659 70.4058,-182.7038 29.9875,-14.1376 66.4942,-20.6628 91.2665,-26.1005 -61.279,-15.2252 -78.2285,-64.1638 -78.2284,-80.4767 z"
       id="path4488"
       inkscape:connector-curvature="0"
       sodipodi:nodetypes="csscscsssscc" />
    <path
       style="color:#000000;display:inline;overflow:visible;visibility:visible;fill:#ffffff;fill-opacity:1;fill-rule:nonzero;stroke:none;stroke-width:1.06666672px;marker:none;enable-background:accumulate"
       d="m 1007.3251,2459.2484 c 5.9449,18.2593 11.907,37.3647 24.9503,51.9724 3.7958,4.0746 8.0069,8.0268 12.9406,10.6131 5.7306,1.5465 11.5727,-1.5063 15.0694,-5.9874 5.5028,-6.1176 8.7428,-14.8317 16.6064,-18.4373 5.7879,-2.486 11.5978,0.9401 16.7212,3.3817 12.937,6.4798 25.072,14.7498 38.9764,19.1321 15.334,5.9519 31.9005,11.102 48.5165,8.535 6.5576,-1.1258 13.26,-3.2207 18.1404,-7.9599 13.0714,-11.5899 19.6839,-30.85 14.5377,-47.8113 -4.3097,-10.5078 -17.7903,-16.9077 -28.3108,-11.7435 -5.5943,2.6428 -8.5014,8.6354 -9.4352,14.473 -3.7219,10.4102 -13.2817,18.0244 -23.9594,20.3569 -8.7806,2.0691 -18.1199,1.3599 -26.6217,-1.5709 -12.614,-0.9325 -22.133,-10.09 -32.3511,-16.4705 -4.7117,-2.8454 -9.9164,-5.5529 -15.4836,-5.8363 -8.0348,1.4843 -12.6382,9.0402 -15.7949,15.8817 -3.4375,6.972 -6.6371,15.4478 -14.4859,18.4773 -5.1636,2.8357 -9.3813,-2.671 -13.3771,-5.202 -11.8023,-9.8288 -20.3838,-23.2184 -25.6685,-37.5459 -0.4015,-1.4025 -0.6879,-2.8282 -0.9707,-4.2582 z"
       id="path4496"
       inkscape:connector-curvature="0" />
    <path
       style="color:#000000;display:inline;overflow:visible;visibility:visible;fill:#ffffff;fill-opacity:1;fill-rule:nonzero;stroke:none;stroke-width:1.06666672px;marker:none;enable-background:accumulate"
       d="m 1662.1918,2758.7228 c 4.7725,-28.635 38.1799,-49.0886 78.4052,-48.4067 40.2253,0.6817 69.5421,36.1345 62.0425,62.7241 -7.4997,26.5897 -35.4528,42.2707 -74.9964,37.4981 -39.5436,-4.7724 -70.2239,-32.0438 -65.4513,-51.8155 z"
       id="path4514"
       inkscape:connector-curvature="0" />
    <path
       style="color:#000000;display:inline;overflow:visible;visibility:visible;fill:#ffffff;fill-opacity:1;fill-rule:nonzero;stroke:none;stroke-width:1.06666672px;marker:none;enable-background:accumulate"
       d="m 1796.5034,2766.9041 c 19.09,-1.3635 39.5435,-7.4996 42.2707,-19.0899 2.0453,15.6811 -15.6811,38.8617 -44.3161,37.4981 -28.635,-1.3635 -21.1353,-15.681 -21.1353,-15.681 z"
       id="path4522"
       inkscape:connector-curvature="0" />
    <path
       style="color:#000000;display:inline;overflow:visible;visibility:visible;fill:#ffffff;fill-opacity:1;fill-rule:nonzero;stroke:none;stroke-width:1.06666672px;marker:none;enable-background:accumulate"
       d="m 770.70545,3136.1123 c 31.19073,-77.7004 102.50862,-127.8424 280.19015,-123.4718 177.6817,4.3709 210.7122,18.5755 234.6309,39.3362 23.9186,20.7608 59.2271,139.8618 41.0035,221.8121 -18.224,81.9503 -91.1189,168.2713 -265.3835,161.7153 -174.26462,-6.5562 -174.62276,-9.5455 -201.60025,-26.2241 -51.2543,-31.6875 -120.03152,-195.4674 -88.8408,-273.1677 z"
       id="path4530"
       inkscape:connector-curvature="0"
       sodipodi:nodetypes="zsssssz" />
    <path
       style="color:#000000;display:inline;overflow:visible;visibility:visible;fill:#ffffff;fill-opacity:1;fill-rule:nonzero;stroke:none;stroke-width:1.06666672px;marker:none;enable-background:accumulate"
       d="m 783.90373,3478.8937 c 29.03348,11.4059 33.18111,10.369 42.5133,-2.0739 9.3322,-12.4428 18.66438,-33.1811 46.66094,-37.3287 27.99657,-4.1476 41.47639,6.2214 50.80858,12.4429 2.07381,-19.7013 -8.29528,-48.7347 -17.62747,-60.1407 -9.33219,-11.4061 57.03004,8.2952 57.03004,8.2952 0,0 9.33218,50.8086 -8.29529,69.473 -17.62745,18.6643 -57.03002,-5.1845 -76.73131,-5.1845 -19.70128,0 -34.21802,27.9964 -49.77166,31.1072 -15.55365,3.1107 -32.1442,-8.2953 -44.58713,-16.5905 z"
       id="path4538"
       inkscape:connector-curvature="0" />
    <path
       style="color:#000000;display:inline;overflow:visible;visibility:visible;fill:#ffffff;fill-opacity:1;fill-rule:nonzero;stroke:none;stroke-width:1.09355354px;marker:none;enable-background:accumulate"
       d="m 1339.6861,3233.3096 c 9.5892,-70.9051 90.0181,-120.3497 292.469,-100.2452 108.4434,10.769 231.7376,19.56 218.952,123.4729 -12.7855,103.9127 -190.1847,95.3553 -226.943,96.5777 -36.7585,1.2226 -227.1356,-16.024 -258.9069,-52.5677 -19.8882,-22.8755 -27.1693,-45.2325 -25.5711,-67.2377 z"
       id="path4546"
       inkscape:connector-curvature="0"
       sodipodi:nodetypes="cssssc" />
    <path
       style="color:#000000;display:inline;overflow:visible;visibility:visible;fill:#ffffff;fill-opacity:1;fill-rule:nonzero;stroke:none;stroke-width:1.06666672px;marker:none;enable-background:accumulate"
       d="m 1393.9696,3427.0481 c 7.7855,-46.1008 100.1654,-70.3542 131.1691,-67.9694 31.0036,2.3849 110.8975,14.3094 129.9766,14.3094 19.0792,0 88.241,-8.3471 113.2824,-10.732 25.0413,-2.385 56.045,40.5432 53.66,58.4299 -2.3848,17.8866 -21.464,67.9694 -87.0485,73.9316 -65.5846,5.9622 -153.8256,-1.1924 -171.7122,4.7698 -17.8868,5.9623 -95.3958,11.9244 -124.0144,-4.7698 -28.6188,-16.6943 -53.0985,-21.8687 -45.313,-67.9695 z"
       id="path4554"
       inkscape:connector-curvature="0"
       sodipodi:nodetypes="zsssssssz" />
    <path
       style="color:#000000;display:inline;overflow:visible;visibility:visible;fill:#ffffff;fill-opacity:1;fill-rule:nonzero;stroke:none;stroke-width:1.06666672px;marker:none;enable-background:accumulate"
       d="m 1559.7196,3326.8827 c 16.6943,41.7356 134.7464,126.3993 147.8633,140.7087 13.1169,14.3093 40.5432,34.5809 62.0072,38.1583 21.4641,3.5772 31.8566,-16.9054 50.4584,-20.2062 15.9819,-2.836 28.243,2.3194 37.7826,13.0514 -15.5018,-27.4263 -41.7356,-27.4263 -52.4676,-22.6564 -10.732,4.7698 -29.8112,19.0791 -47.6979,5.9622 -17.8866,-13.1169 -91.8183,-94.2033 -110.8975,-97.7806 -19.0791,-3.5774 -42.928,-31.0036 -42.928,-46.5054 0,-15.5018 -44.1205,-10.732 -44.1205,-10.732 z"
       id="path4562"
       inkscape:connector-curvature="0"
       sodipodi:nodetypes="cssscssssc" />
    <path
       style="fill:#ffffff;fill-opacity:1;stroke:none;stroke-width:1.06666672"
       d="m 328.3792,270.64852 c -5.74649,-72.01302 32.36896,-107.83627 67.07328,-124.80598 43.98286,-21.50667 361.26912,-45.47649 399.55671,14.8032 35.26162,55.51563 60.31426,157.58134 -44.97662,207.99926 -105.29085,50.41792 -281.01422,22.80182 -310.9264,13.63488 -29.9122,-9.16693 -104.74454,-33.71285 -110.72697,-111.63136 z"
       id="path3659-8"
       inkscape:connector-curvature="0"
       sodipodi:nodetypes="cssssc" />
    <path
       style="color:#000000;display:inline;overflow:visible;visibility:visible;fill:#ffffff;fill-opacity:1;fill-rule:nonzero;stroke:none;stroke-width:1.06666672px;marker:none;enable-background:accumulate"
       d="m 776.15985,260.07924 c 55.20244,-10.1569 153.97234,27.4991 162.85934,139.0719 C 896.67793,296.9889 819.99124,283.39434 775.26237,299.63818 732.87645,315.03103 744.92988,286.44394 744.92988,286.44394 Z"
       id="path4440-1"
       inkscape:connector-curvature="0"
       sodipodi:nodetypes="ccscc" />
    <path
       style="color:#000000;display:inline;overflow:visible;visibility:visible;fill:#ffffff;fill-opacity:1;fill-rule:nonzero;stroke:none;stroke-width:1.06666672px;marker:none;enable-background:accumulate"
       d="m 2067.0654,307.54783 c -3.0418,-0.36395 -11.9432,39.66891 -11.9432,39.66891 0,0 -10.2533,7.99594 -12.2083,10.06752 -0.7588,7.97877 0.7857,18.53856 0.7857,18.53856 l -31.3269,12.39189 17.704,-15.17408 -7.9768,-15.94016 15.6398,-16.57397 8.0294,-29.56299 z"
       id="path4448-7"
       inkscape:connector-curvature="0"
       sodipodi:nodetypes="cccccccccc" />
    <path
       style="color:#000000;display:inline;overflow:visible;visibility:visible;fill:#ffffff;fill-opacity:1;fill-rule:nonzero;stroke:none;stroke-width:1.06666672px;marker:none;enable-background:accumulate"
       d="m 1947.2944,248.78623 11.2031,21.07499 -15.8516,4.16437 7.5964,8.20651 7.6395,5.93877 10.0284,3.33067 -9.6115,13.61002 13.6425,1.38816 1.436,11.10475 12.2064,9.02272 10.0522,-6.24651 5.0502,12.35947 20.7986,-7.50112 4.3081,8.32864 11.4884,-6.2464 27.2847,11.10475 1.436,-9.02262 8.6163,9.7167 2.1542,-11.79883 12.9243,10.41067 20.1045,-12.49291 17.2325,-1.38805 2.1541,-9.7167 13.6424,6.94048 -5.0262,-18.73941 23.6948,-12.49291 2.8721,-13.88106 -4.3082,-4.85835 -2.8721,-7.63456 12.9244,-9.02261 -19.3866,2.08213 17.2324,-10.41077 -14.6538,-6.14272 -10.2815,0.33397 -4.2717,-3.48939 -6.2787,-12.71414 -16.2953,8.89686 -8.8916,-18.11691 -18.4727,15.13078 -6.7143,-10.63617 -10.3032,6.85888 -10.8043,-4.13355 -13.6604,-14.8545 -9.0447,14.75989 -15.577,-6.85109 -10.7867,11.85077 -18.6692,-9.17835 -2.6715,8.43968 -14.2414,6.123 -14.6334,-4.94636 2.9042,18.62369 z"
       id="path4448-1-6"
       inkscape:connector-curvature="0"
       sodipodi:nodetypes="cccccccccccccccccccccccccccccccccccccccccccccccccccc" />
  </g>
  <g
     inkscape:groupmode="layer"
     id="layer1"
     inkscape:label="txt">
    <flowRoot
       xml:space="preserve"
       id="flowRoot2987"
       style="font-style:normal;font-variant:normal;font-weight:normal;font-stretch:normal;font-size:12.80000019px;line-height:0.01%;font-family:Arial;-inkscape-font-specification:Arial;letter-spacing:0px;word-spacing:0px;fill:#000000;fill-opacity:1;stroke:none;stroke-width:1.06666672"><flowRegion
         id="flowRegion2989"
         style="stroke-width:1.06666672"><rect
           id="rect2991"
           width="504.1701"
           height="190.42397"
           x="329.84039"
           y="171.89198"
           style="stroke-width:1.13777781" /></flowRegion><flowPara
         style="font-style:normal;font-variant:normal;font-weight:normal;font-stretch:normal;font-size:51.20000076px;line-height:1.25;font-family:Lavi;-inkscape-font-specification:Lavi;text-align:center;text-anchor:middle;stroke-width:1.06666672"
         id="flowPara3062">Øhhh... Undskyld,</flowPara><flowPara
         style="font-style:normal;font-variant:normal;font-weight:normal;font-stretch:normal;font-size:51.20000076px;line-height:1.25;font-family:Lavi;-inkscape-font-specification:Lavi;text-align:center;text-anchor:middle;stroke-width:1.06666672"
         id="flowPara3066">jeg tager alligevel</flowPara><flowPara
         style="font-style:normal;font-variant:normal;font-weight:normal;font-stretch:normal;font-size:51.20000076px;line-height:1.25;font-family:Lavi;-inkscape-font-specification:Lavi;text-align:center;text-anchor:middle;stroke-width:1.06666672"
         id="flowPara3068">kun fire</flowPara></flowRoot>    <flowRoot
       xml:space="preserve"
       id="flowRoot2987-4"
       style="font-style:normal;font-variant:normal;font-weight:normal;font-stretch:normal;font-size:12.80000019px;line-height:0.01%;font-family:Arial;-inkscape-font-specification:Arial;letter-spacing:0px;word-spacing:0px;fill:#000000;fill-opacity:1;stroke:none;stroke-width:1.06666672"><flowRegion
         id="flowRegion2989-7"
         style="stroke-width:1.06666672"><rect
           id="rect2991-1"
           width="504.1701"
           height="190.42397"
           x="1809.3412"
           y="250.27069"
           style="stroke-width:1.13777781" /></flowRegion><flowPara
         style="font-style:normal;font-variant:normal;font-weight:normal;font-stretch:normal;font-size:42.66666794px;line-height:1.25;font-family:Lavi;-inkscape-font-specification:Lavi;text-align:center;text-anchor:middle;stroke-width:1.06666672"
         id="flowPara2997-1">Hrmf...</flowPara></flowRoot>    <flowRoot
       xml:space="preserve"
       id="flowRoot2987-5"
       style="font-style:normal;font-variant:normal;font-weight:normal;font-stretch:normal;font-size:12.80000019px;line-height:0.01%;font-family:Arial;-inkscape-font-specification:Arial;letter-spacing:0px;word-spacing:0px;fill:#000000;fill-opacity:1;stroke:none;stroke-width:1.06666672"><flowRegion
         id="flowRegion2989-6"
         style="stroke-width:1.06666672"><rect
           id="rect2991-0"
           width="628.96509"
           height="475.93588"
           x="925.91669"
           y="1235.8282"
           style="stroke-width:1.13777781" /></flowRegion><flowPara
         style="font-style:normal;font-variant:normal;font-weight:normal;font-stretch:normal;font-size:51.20000076px;line-height:1.25;font-family:Lavi;-inkscape-font-specification:Lavi;text-align:center;text-anchor:middle;stroke-width:1.06666672"
         id="flowPara2997-6">Hilsner min gode mand.</flowPara><flowPara
         style="font-style:normal;font-variant:normal;font-weight:normal;font-stretch:normal;font-size:51.20000076px;line-height:1.25;font-family:Lavi;-inkscape-font-specification:Lavi;text-align:center;text-anchor:middle;stroke-width:1.06666672"
         id="flowPara3081">Klargør venligst</flowPara><flowPara
         style="font-style:normal;font-variant:normal;font-weight:normal;font-stretch:normal;font-size:51.20000076px;line-height:1.25;font-family:Lavi;-inkscape-font-specification:Lavi;text-align:center;text-anchor:middle;stroke-width:1.06666672"
         id="flowPara3079">to dusiner af</flowPara><flowPara
         style="font-style:normal;font-variant:normal;font-weight:normal;font-stretch:normal;font-size:51.20000076px;line-height:1.25;font-family:Lavi;-inkscape-font-specification:Lavi;text-align:center;text-anchor:middle;stroke-width:1.06666672"
         id="flowPara3082">det hele til mig.</flowPara><flowPara
         style="font-style:normal;font-variant:normal;font-weight:normal;font-stretch:normal;font-size:51.20000076px;line-height:1.25;font-family:Lavi;-inkscape-font-specification:Lavi;text-align:center;text-anchor:middle;stroke-width:1.06666672"
         id="flowPara3084">Den fineste kvalitet</flowPara><flowPara
         style="font-style:normal;font-variant:normal;font-weight:normal;font-stretch:normal;font-size:51.20000076px;line-height:1.25;font-family:Lavi;-inkscape-font-specification:Lavi;text-align:center;text-anchor:middle;stroke-width:1.06666672"
         id="flowPara77">som sædvanlig.   </flowPara></flowRoot>    <flowRoot
       xml:space="preserve"
       id="flowRoot2987-5-4"
       style="font-style:normal;font-variant:normal;font-weight:normal;font-stretch:normal;font-size:12.80000019px;line-height:0.01%;font-family:Arial;-inkscape-font-specification:Arial;letter-spacing:0px;word-spacing:0px;fill:#000000;fill-opacity:1;stroke:none;stroke-width:1.06666672"><flowRegion
         id="flowRegion2989-6-3"
         style="stroke-width:1.06666672"><rect
           id="rect2991-0-3"
           width="528.16815"
           height="254.39569"
           x="989.05011"
           y="1730.6113"
           style="stroke-width:1.13777781" /></flowRegion><flowPara
         style="font-style:normal;font-variant:normal;font-weight:normal;font-stretch:normal;font-size:51.20000076px;line-height:1.25;font-family:Lavi;-inkscape-font-specification:Lavi;text-align:center;text-anchor:middle;stroke-width:1.06666672"
         id="flowPara3103">Det er altid en fornøjelse at betjene Dem, Frøken Safran</flowPara><flowPara
         style="font-style:normal;font-variant:normal;font-weight:normal;font-stretch:normal;font-size:51.20000076px;line-height:1.25;font-family:Lavi;-inkscape-font-specification:Lavi;text-align:center;text-anchor:middle;stroke-width:1.06666672"
         id="flowPara3091"> </flowPara></flowRoot>    <flowRoot
       xml:space="preserve"
       id="flowRoot2987-5-4-3"
       style="font-style:normal;font-variant:normal;font-weight:normal;font-stretch:normal;font-size:12.80000019px;line-height:0.01%;font-family:Arial;-inkscape-font-specification:Arial;letter-spacing:0px;word-spacing:0px;fill:#000000;fill-opacity:1;stroke:none;stroke-width:1.06666672"
       transform="translate(2.7614213,-11.045686)"><flowRegion
         id="flowRegion2989-6-3-5"
         style="stroke-width:1.06666672"><rect
           id="rect2991-0-3-3"
           width="337.34991"
           height="155.04408"
           x="1244.9949"
           y="2108.4006"
           style="stroke-width:1.13777781" /></flowRegion><flowPara
         style="font-style:normal;font-variant:normal;font-weight:normal;font-stretch:normal;font-size:51.20000076px;line-height:1.25;font-family:Lavi;-inkscape-font-specification:Lavi;text-align:center;text-anchor:middle;stroke-width:1.06666672"
         id="flowPara87">Næh, der har vi jo Pepper</flowPara></flowRoot>    <flowRoot
       xml:space="preserve"
       id="flowRoot2987-5-4-3-8"
       style="font-style:normal;font-variant:normal;font-weight:normal;font-stretch:normal;font-size:12.80000019px;line-height:0.01%;font-family:Arial;-inkscape-font-specification:Arial;letter-spacing:0px;word-spacing:0px;fill:#000000;fill-opacity:1;stroke:none;stroke-width:1.06666672"
       transform="translate(22.091371,22.091371)"><flowRegion
         id="flowRegion2989-6-3-5-1"
         style="stroke-width:1.06666672"><rect
           id="rect2991-0-3-3-7"
           width="576.26849"
           height="562.61188"
           x="1118.1643"
           y="2263.3215"
           style="stroke-width:1.13777781" /></flowRegion><flowPara
         style="font-style:normal;font-variant:normal;font-weight:normal;font-stretch:normal;font-size:51.20000076px;line-height:1.25;font-family:Lavi;-inkscape-font-specification:Lavi;text-align:center;text-anchor:middle;stroke-width:1.06666672"
         id="flowPara3055">Det ser ud til,</flowPara><flowPara
         style="font-style:normal;font-variant:normal;font-weight:normal;font-stretch:normal;font-size:51.20000076px;line-height:1.25;font-family:Lavi;-inkscape-font-specification:Lavi;text-align:center;text-anchor:middle;stroke-width:1.06666672"
         id="flowPara106">at der er gang i forretningen ude</flowPara><flowPara
         style="font-style:normal;font-variant:normal;font-weight:normal;font-stretch:normal;font-size:51.20000076px;line-height:1.25;font-family:Lavi;-inkscape-font-specification:Lavi;text-align:center;text-anchor:middle;stroke-width:1.06666672"
         id="flowPara100">på landet?</flowPara></flowRoot>    <flowRoot
       xml:space="preserve"
       id="flowRoot2987-5-4-3-3"
       style="font-style:normal;font-variant:normal;font-weight:normal;font-stretch:normal;line-height:0.01%;font-family:Arial;-inkscape-font-specification:Arial;letter-spacing:0px;word-spacing:0px;fill:#000000;fill-opacity:1;stroke:none"
       transform="matrix(1.1911295,0,0,1.2818034,976.68117,1892.3086)"><flowRegion
         id="flowRegion2989-6-3-5-2"><rect
           id="rect2991-0-3-3-1"
           width="316.26553"
           height="145.35382"
           x="481.16055"
           y="638.16943" /></flowRegion><flowPara
         style="font-style:normal;font-variant:normal;font-weight:normal;font-stretch:normal;font-size:48px;line-height:1.25;font-family:Lavi;-inkscape-font-specification:Lavi;text-align:center;text-anchor:middle"
         id="flowPara3178-4">...</flowPara></flowRoot>    <flowRoot
       xml:space="preserve"
       id="flowRoot2987-5-4-3-8-4"
       style="font-style:normal;font-variant:normal;font-weight:normal;font-stretch:normal;font-size:12.80000019px;line-height:0.01%;font-family:Arial;-inkscape-font-specification:Arial;letter-spacing:0px;word-spacing:0px;fill:#000000;fill-opacity:1;stroke:none;stroke-width:1.06666672"><flowRegion
         id="flowRegion2989-6-3-5-1-2"
         style="stroke-width:1.06666672"><rect
           id="rect2991-0-3-3-7-1"
           width="537.63019"
           height="371.09451"
           x="789.00378"
           y="3064.0813"
           style="stroke-width:1.13777781" /></flowRegion><flowPara
         style="font-style:normal;font-variant:normal;font-weight:normal;font-stretch:normal;font-size:51.20000076px;line-height:1.25;font-family:Lavi;-inkscape-font-specification:Lavi;text-align:center;text-anchor:middle;stroke-width:1.06666672"
         id="flowPara3292">Jeg går ud fra, du</flowPara><flowPara
         style="font-style:normal;font-variant:normal;font-weight:normal;font-stretch:normal;font-size:51.20000076px;line-height:1.25;font-family:Lavi;-inkscape-font-specification:Lavi;text-align:center;text-anchor:middle;stroke-width:1.06666672"
         id="flowPara3134">er ved at forberede ingredienserne til morgendagens eliksirkonkurrence?</flowPara></flowRoot>    <flowRoot
       xml:space="preserve"
       id="flowRoot2987-5-4-3-8-4-1"
       style="font-style:normal;font-variant:normal;font-weight:normal;font-stretch:normal;font-size:12.80000019px;line-height:0.01%;font-family:Arial;-inkscape-font-specification:Arial;letter-spacing:0px;word-spacing:0px;fill:#000000;fill-opacity:1;stroke:none;stroke-width:1.06666672"
       transform="translate(-8.2842643,-16.568529)"><flowRegion
         id="flowRegion2989-6-3-5-1-2-0"
         style="stroke-width:1.06666672"><rect
           id="rect2991-0-3-3-7-1-3"
           width="486.67682"
           height="253.24832"
           x="1356.079"
           y="3173.0769"
           style="stroke-width:1.13777781" /></flowRegion><flowPara
         style="font-style:normal;font-variant:normal;font-weight:normal;font-stretch:normal;font-size:51.20000076px;line-height:1.25;font-family:Lavi;-inkscape-font-specification:Lavi;text-align:center;text-anchor:middle;stroke-width:1.06666672"
         id="flowPara3142">... en elikisirkonkurrence?</flowPara></flowRoot>    <flowRoot
       xml:space="preserve"
       id="flowRoot2987-5-4-3-8-4-1-1"
       style="font-style:normal;font-variant:normal;font-weight:normal;font-stretch:normal;font-size:12.80000019px;line-height:0.01%;font-family:Arial;-inkscape-font-specification:Arial;letter-spacing:0px;word-spacing:0px;fill:#000000;fill-opacity:1;stroke:none;stroke-width:1.06666672"><flowRegion
         id="flowRegion2989-6-3-5-1-2-0-9"
         style="stroke-width:1.06666672"><rect
           id="rect2991-0-3-3-7-1-3-7"
           width="349.96597"
           height="164.50621"
           x="1436.6006"
           y="3400.2295"
           style="stroke-width:1.13777781" /></flowRegion><flowPara
         style="font-style:normal;font-variant:normal;font-weight:normal;font-stretch:normal;font-size:51.20000076px;line-height:1.25;font-family:Lavi;-inkscape-font-specification:Lavi;text-align:center;text-anchor:middle;stroke-width:1.06666672"
         id="flowPara3347-5">... I morgen?</flowPara></flowRoot>  </g>
</svg>
