<?xml version="1.0" encoding="UTF-8" standalone="no"?>
<!-- Created with Inkscape (http://www.inkscape.org/) -->

<svg
   xmlns:dc="http://purl.org/dc/elements/1.1/"
   xmlns:cc="http://creativecommons.org/ns#"
   xmlns:rdf="http://www.w3.org/1999/02/22-rdf-syntax-ns#"
   xmlns:svg="http://www.w3.org/2000/svg"
   xmlns="http://www.w3.org/2000/svg"
   xmlns:sodipodi="http://sodipodi.sourceforge.net/DTD/sodipodi-0.dtd"
   xmlns:inkscape="http://www.inkscape.org/namespaces/inkscape"
   id="svg2"
   version="1.1"
   inkscape:version="0.91 r13725"
   width="2481"
   height="663"
   sodipodi:docname="Pepper-and-Carrot_by-David-Revoy_E03P00.svg">
  <metadata
     id="metadata8">
    <rdf:RDF>
      <cc:Work
         rdf:about="">
        <dc:format>image/svg+xml</dc:format>
        <dc:type
           rdf:resource="http://purl.org/dc/dcmitype/StillImage" />
        <dc:title />
      </cc:Work>
    </rdf:RDF>
  </metadata>
  <defs
     id="defs6">
    <pattern
       y="0"
       x="0"
       height="6"
       width="6"
       patternUnits="userSpaceOnUse"
       id="EMFhbasepattern" />
    <pattern
       y="0"
       x="0"
       height="6"
       width="6"
       patternUnits="userSpaceOnUse"
       id="EMFhbasepattern-4" />
  </defs>
  <sodipodi:namedview
     pagecolor="#ffffff"
     bordercolor="#666666"
     borderopacity="1"
     objecttolerance="10"
     gridtolerance="10"
     guidetolerance="10"
     inkscape:pageopacity="0"
     inkscape:pageshadow="2"
     inkscape:window-width="1600"
     inkscape:window-height="847"
     id="namedview4"
     showgrid="false"
     inkscape:zoom="0.40071843"
     inkscape:cx="728.25183"
     inkscape:cy="318.21386"
     inkscape:window-x="1358"
     inkscape:window-y="-8"
     inkscape:window-maximized="1"
     inkscape:current-layer="layer1" />
  <g
     inkscape:groupmode="layer"
     id="layer2"
     inkscape:label="artwork" />
  <g
     inkscape:groupmode="layer"
     id="layer1"
     inkscape:label="txt"
     style="display:inline">
    <flowRoot
       xml:space="preserve"
       id="flowRoot2987"
       style="font-style:normal;font-variant:normal;font-weight:normal;font-stretch:normal;font-size:12px;line-height:125%;font-family:Arial;-inkscape-font-specification:Arial;letter-spacing:0px;word-spacing:0px;fill:#301b0b;fill-opacity:1;stroke:none"
       transform="matrix(1.3433447,0,0,1.4332496,-1337.4004,-431.87103)"><flowRegion
         id="flowRegion2989"><rect
           id="rect2991"
           width="2405.8"
           height="107.55731"
           x="739.22333"
           y="644.36664"
           style="fill:#301b0b;fill-opacity:1" /></flowRegion><flowPara
         id="flowPara2993"
         style="font-style:normal;font-variant:normal;font-weight:normal;font-stretch:normal;font-size:90px;font-family:Midan;-inkscape-font-specification:Midan;text-align:center;text-anchor:middle;fill:#301b0b;fill-opacity:1">قسمت 3: مواد اولیه سری</flowPara></flowRoot>    <flowRoot
       xml:space="preserve"
       id="flowRoot3371"
       style="font-style:normal;font-weight:normal;font-size:437.5px;line-height:125%;font-family:sans-serif;letter-spacing:0px;word-spacing:0px;display:inline;opacity:1;fill:#301b0b;fill-opacity:1;stroke:none;stroke-width:1px;stroke-linecap:butt;stroke-linejoin:miter;stroke-opacity:1"
       transform="translate(150.97998,28.786406)"><flowRegion
         id="flowRegion3373"><rect
           id="rect3375"
           width="1548.4232"
           height="424.68536"
           x="267.07019"
           y="-5.405139"
           style="font-size:437.5px;fill:#301b0b;fill-opacity:1" /></flowRegion><flowPara
         id="flowPara3377"
         style="font-style:normal;font-variant:normal;font-weight:normal;font-stretch:normal;font-size:437.5px;font-family:Midan;-inkscape-font-specification:Midan;fill:#301b0b;fill-opacity:1">فلفل و هویج</flowPara></flowRoot>    <path
       inkscape:connector-curvature="0"
       id="path4156"
       d="m 1854.3671,730.94622 0.6562,-0.8255 1.143,0.9525 c -0.127,0.16933 -0.254,0.33867 -0.3598,0.48683 -0.1059,0.127 -0.2117,0.23284 -0.2964,0.33867 -0.1058,0.0847 -0.1693,0.12697 -0.2328,0.12697 -0.127,0 -0.2963,-0.0635 -0.508,-0.2328 -0.1905,-0.14817 -0.3598,-0.29634 -0.4657,-0.4445 -0.1058,0.14816 -0.2328,0.29633 -0.381,0.4445 -0.1481,0.16933 -0.254,0.2328 -0.3175,0.2328 -0.085,0 -0.1693,-0.0212 -0.2751,-0.0846 -0.1059,-0.0635 -0.2117,-0.14816 -0.3387,-0.23283 -0.1058,-0.0847 -0.1905,-0.16933 -0.2963,-0.27517 -0.085,-0.0847 -0.127,-0.14816 -0.1694,-0.21166 l 0.8467,-1.10067 0.9948,0.8255 z m 0.6774,3.6618 c -0.2117,0 -0.4022,0.0423 -0.5927,0.10584 -0.1693,0.0847 -0.3387,0.1905 -0.4868,0.29633 -0.1482,0.127 -0.2752,0.254 -0.3599,0.42333 -0.085,0.14817 -0.1058,0.27517 -0.1058,0.40214 0,0.3175 0.1482,0.61384 0.4445,0.889 0.2963,0.29634 0.635,0.52917 1.0372,0.71967 0.2751,0.14817 0.5291,0.254 0.762,0.3175 0.2116,0.0635 0.381,0.10583 0.4656,0.10583 0.063,0 0.127,-0.0847 0.1482,-0.23283 0.021,-0.127 0.042,-0.3175 0.042,-0.55033 0,-0.27517 -0.042,-0.5715 -0.085,-0.86784 -0.063,-0.29633 -0.127,-0.57147 -0.2328,-0.8043 -0.1059,-0.23284 -0.254,-0.42334 -0.4234,-0.5715 -0.1693,-0.16934 -0.381,-0.23284 -0.6138,-0.23284 z m -1.4817,3.25964 c -0.3387,-0.27516 -0.5927,-0.55033 -0.762,-0.86783 -0.1693,-0.3175 -0.254,-0.59267 -0.254,-0.84667 0,-0.29633 0.085,-0.6138 0.254,-0.95247 0.1693,-0.33867 0.4022,-0.65617 0.6773,-0.9525 0.2752,-0.29633 0.5715,-0.52917 0.9102,-0.71967 0.3598,-0.1905 0.6985,-0.29633 1.0372,-0.29633 0.3598,0 0.6561,0.127 0.9101,0.33867 0.254,0.21166 0.4445,0.48683 0.6139,0.8255 0.1481,0.35983 0.2751,0.74083 0.3386,1.16416 0.063,0.42331 0.1056,0.84664 0.1056,1.24881 0,0.27517 -0.021,0.55033 -0.042,0.84667 -0.042,0.3175 -0.127,0.5715 -0.2752,0.8255 -0.085,0.14816 -0.1905,0.29633 -0.3175,0.4445 -0.1482,0.127 -0.2328,0.1905 -0.2752,0.1905 l -4.6355,0 c -0.085,0 -0.1481,-0.0212 -0.2328,-0.0635 -0.085,-0.0635 -0.1482,-0.127 -0.2117,-0.21167 -0.085,-0.0635 -0.1481,-0.14817 -0.1905,-0.254 -0.042,-0.0847 -0.063,-0.16933 -0.063,-0.254 0,-0.10583 0.063,-0.21167 0.1482,-0.3175 0.085,-0.10583 0.2752,-0.14817 0.5503,-0.14817 l 1.7145,0 z"
       style="fill:#ffffff;fill-opacity:1;fill-rule:nonzero;stroke:none" />
    <path
       inkscape:connector-curvature="0"
       id="path4158"
       d="m 1851.8483,739.1165 -0.2963,0 c -0.254,0 -0.508,-0.0847 -0.6985,-0.29634 -0.2117,-0.21166 -0.381,-0.42333 -0.4869,-0.67733 -0.1905,0.3175 -0.4021,0.5715 -0.6773,0.762 -0.254,0.1905 -0.5292,0.27517 -0.8467,0.27517 -0.5291,0 -0.9525,-0.35984 -1.2488,-1.0795 l -0.042,0.0212 c -0.1905,0.33866 -0.4022,0.59266 -0.6562,0.78316 -0.2328,0.1905 -0.5503,0.27517 -0.9313,0.27517 -0.1482,0 -0.3175,-0.0212 -0.4657,-0.0847 -0.1693,-0.0847 -0.3175,-0.16934 -0.4445,-0.27517 -0.127,-0.10583 -0.2328,-0.1905 -0.3386,-0.29633 -0.085,-0.10584 -0.1482,-0.1905 -0.1905,-0.254 -0.1059,0.21166 -0.254,0.40216 -0.4445,0.5715 -0.1694,0.1905 -0.4445,0.27516 -0.8255,0.27516 l -0.508,0 c -0.085,0 -0.1694,-0.0212 -0.2329,-0.0635 -0.085,-0.0635 -0.1693,-0.127 -0.2328,-0.21166 -0.063,-0.0635 -0.127,-0.14817 -0.1693,-0.254 -0.042,-0.0847 -0.063,-0.16934 -0.063,-0.254 0,-0.10584 0.042,-0.21167 0.1481,-0.3175 0.085,-0.10584 0.2752,-0.14817 0.5504,-0.14817 l 0.5291,0 c 0.254,0 0.4445,-0.0423 0.5292,-0.127 0.1058,-0.0847 0.1693,-0.1905 0.1693,-0.29633 0,-0.127 -0.042,-0.254 -0.085,-0.40217 -0.042,-0.127 -0.085,-0.27517 -0.1482,-0.381 -0.1481,-0.27517 -0.2116,-0.40217 -0.2116,-0.42333 0,-0.0212 0.063,-0.0847 0.1905,-0.14817 0.1058,-0.0847 0.2328,-0.16933 0.381,-0.254 0.1481,-0.0635 0.2751,-0.12697 0.381,-0.19047 0.127,-0.0423 0.1905,-0.0847 0.2116,-0.0847 0.021,0.0847 0.063,0.1905 0.085,0.31747 0.042,0.14817 0.085,0.27517 0.127,0.4445 0.021,0.14817 0.063,0.3175 0.1059,0.48684 0.042,0.16933 0.085,0.29633 0.1058,0.42333 0.064,0.254 0.1905,0.42333 0.3598,0.508 0.1694,0.0847 0.4022,0.14817 0.6774,0.14817 0.1905,0 0.3598,-0.0423 0.5503,-0.127 0.1693,-0.0847 0.2752,-0.23284 0.2752,-0.4445 0,-0.23284 -0.021,-0.4445 -0.042,-0.65617 -0.042,-0.23283 -0.063,-0.4445 -0.127,-0.67733 0.063,-0.0423 0.2328,-0.10584 0.4868,-0.19047 0.254,-0.10584 0.4868,-0.16934 0.7197,-0.254 l 0,0.84663 c 0,0.4445 0.063,0.80434 0.1693,1.0795 0.127,0.27517 0.4233,0.42334 0.889,0.42334 0.2117,0 0.3598,-0.0635 0.4868,-0.16934 0.127,-0.10583 0.1905,-0.254 0.1905,-0.46566 0,-0.23284 -0.021,-0.48684 -0.085,-0.71967 -0.064,-0.254 -0.1481,-0.508 -0.254,-0.8043 0.042,-0.0212 0.1059,-0.0423 0.2117,-0.0847 0.085,-0.0423 0.1905,-0.0847 0.2963,-0.10583 0.1059,-0.0635 0.2329,-0.10584 0.3387,-0.127 0.1482,-0.0423 0.254,-0.0635 0.3387,-0.10584 0.063,0.27517 0.127,0.52914 0.1481,0.78314 0.042,0.254 0.063,0.508 0.1059,0.762 0.021,0.3175 0.085,0.5715 0.1905,0.762 0.1058,0.16933 0.2963,0.254 0.5715,0.254 l 0.2328,0 0,1.24883 z"
       style="fill:#ffffff;fill-opacity:1;fill-rule:nonzero;stroke:none" />
    <path
       inkscape:connector-curvature="0"
       id="path4160"
       d="m 1842.7678,739.1165 -6.6252,0 c -0.085,0 -0.1481,-0.0212 -0.2328,-0.0635 -0.085,-0.0635 -0.1482,-0.127 -0.2117,-0.21167 -0.085,-0.0635 -0.1481,-0.14817 -0.1905,-0.254 -0.042,-0.0847 -0.063,-0.16933 -0.063,-0.254 0,-0.10583 0.063,-0.21167 0.1482,-0.3175 0.085,-0.10583 0.2752,-0.14817 0.5503,-0.14817 l 1.905,0 c -0.127,-0.35983 -0.1905,-0.74083 -0.1905,-1.12183 0,-0.67733 0.1905,-1.24881 0.5504,-1.71447 0.381,-0.46567 0.889,-0.67734 1.524,-0.67734 0.3598,0 0.6773,0.0847 0.9736,0.254 0.2964,0.16934 0.5292,0.381 0.7409,0.65617 0.2116,0.27517 0.3598,0.59264 0.4656,0.95247 0.127,0.35984 0.1694,0.71967 0.1694,1.0795 0,0.10584 0,0.1905 -0.021,0.29634 0,0.0635 0,0.16933 0,0.27516 l 0.508,0 0,1.24884 z m -3.0057,-3.36548 c -0.381,0 -0.6985,0.14814 -0.9525,0.42331 -0.254,0.27517 -0.381,0.61383 -0.381,1.016 0,0.23283 0.063,0.46567 0.1482,0.67733 l 2.4977,0 c 0.063,0 0.127,-0.0212 0.1905,-0.0635 0.085,-0.0423 0.1058,-0.14816 0.1058,-0.33866 0,-0.46567 -0.1482,-0.86784 -0.4445,-1.2065 -0.2963,-0.33867 -0.6773,-0.50798 -1.1642,-0.50798 z"
       style="fill:#ffffff;fill-opacity:1;fill-rule:nonzero;stroke:none" />
    <path
       inkscape:connector-curvature="0"
       id="path4162"
       d="m 1830.6816,733.76136 0.6774,-0.84667 1.1218,0.9525 c -0.1058,0.1905 -0.2328,0.35983 -0.3387,0.48683 -0.1058,0.127 -0.2116,0.23284 -0.2963,0.33867 -0.1058,0.10583 -0.1693,0.14817 -0.254,0.14817 -0.127,0 -0.2963,-0.0847 -0.4868,-0.23284 -0.1905,-0.16933 -0.3599,-0.3175 -0.4657,-0.46566 -0.127,0.14816 -0.254,0.29633 -0.4022,0.46566 -0.127,0.14817 -0.2328,0.23284 -0.2963,0.23284 -0.085,0 -0.1693,-0.0423 -0.2752,-0.10584 -0.1058,-0.0635 -0.2116,-0.127 -0.3386,-0.21166 -0.1059,-0.0847 -0.2117,-0.1905 -0.2964,-0.27517 -0.085,-0.0847 -0.1481,-0.16933 -0.1905,-0.21167 l 0.8467,-1.12183 0.9948,0.84667 z m -2.6458,5.35514 c -0.4233,0 -0.8043,-0.0423 -1.1007,-0.14817 -0.2963,-0.127 -0.508,-0.27517 -0.6985,-0.46567 -0.1693,-0.16933 -0.2963,-0.381 -0.3598,-0.61383 -0.063,-0.254 -0.1058,-0.48683 -0.1058,-0.762 0,-0.23283 0.063,-0.48683 0.1693,-0.762 0.1058,-0.29633 0.2328,-0.508 0.3387,-0.65614 0.1058,-0.0635 0.254,-0.10583 0.4445,-0.16933 0.1905,-0.0847 0.3598,-0.127 0.508,-0.14817 l 0.042,0.0423 c -0.1059,0.1905 -0.2117,0.38098 -0.3387,0.61381 -0.1058,0.21167 -0.1482,0.42333 -0.1482,0.67733 0,0.42334 0.1482,0.71967 0.4657,0.889 0.3175,0.16934 0.7408,0.254 1.2912,0.254 l 5.4186,0 c 0.1694,0 0.2752,-0.0423 0.2964,-0.0847 0.042,-0.0635 0.063,-0.10583 0.063,-0.16933 0,-0.127 -0.021,-0.29633 -0.063,-0.48683 -0.021,-0.1905 -0.042,-0.40217 -0.085,-0.61384 -0.042,-0.21166 -0.085,-0.40216 -0.127,-0.5715 -0.021,-0.19047 -0.042,-0.31747 -0.042,-0.40214 0,-0.0635 0.021,-0.127 0.021,-0.16933 0.021,-0.0423 0.1058,-0.0847 0.2116,-0.127 0.127,-0.0423 0.2964,-0.0847 0.4869,-0.14817 0.2116,-0.0635 0.4021,-0.127 0.5503,-0.1905 0.021,0.35984 0.021,0.74084 0.021,1.14298 0,0.381 0.021,0.78316 0.085,1.2065 0.021,0.29633 0.1058,0.46566 0.254,0.52916 0.1481,0.0423 0.3175,0.0847 0.508,0.0847 l 0.021,0 0,1.24884 c -0.1482,0 -0.3387,-0.0423 -0.5503,-0.14817 -0.2117,-0.127 -0.381,-0.27517 -0.5292,-0.46567 -0.1058,0.16934 -0.254,0.3175 -0.4022,0.4445 -0.1481,0.127 -0.254,0.16934 -0.3386,0.16934 l -6.3077,0 z"
       style="fill:#ffffff;fill-opacity:1;fill-rule:nonzero;stroke:none" />
    <path
       inkscape:connector-curvature="0"
       id="path4164"
       d="m 1819.9501,730.54405 c 0.1059,0.10584 0.2329,0.254 0.3599,0.508 0.1481,0.21167 0.2963,0.42334 0.4233,0.61384 -0.064,0.33863 -0.254,0.76197 -0.5503,1.20647 -0.2964,0.46566 -0.7197,0.91016 -1.2698,1.31233 0.5924,0.16933 1.0581,0.46567 1.3968,0.86783 0.3598,0.40217 0.5291,0.88898 0.5291,1.39698 0,0.35983 -0.063,0.6985 -0.2116,1.03716 -0.127,0.33867 -0.3175,0.635 -0.5927,0.889 -0.2328,0.254 -0.5715,0.4445 -0.9522,0.61384 -0.381,0.14816 -0.8255,0.21166 -1.3335,0.21166 -0.1059,0 -0.2329,0 -0.381,-0.0212 -0.127,0 -0.2964,-0.0212 -0.4445,-0.0423 -0.1482,0 -0.2752,-0.0212 -0.4234,-0.0423 -0.127,-0.0212 -0.2116,-0.0423 -0.2751,-0.0423 -0.021,-0.0635 -0.064,-0.14816 -0.085,-0.254 -0.042,-0.127 -0.063,-0.254 -0.1058,-0.381 -0.021,-0.14816 -0.063,-0.29633 -0.085,-0.42333 -0.021,-0.14817 -0.042,-0.254 -0.063,-0.35983 l 0.063,-0.0212 c 0.2117,0.0847 0.4657,0.16933 0.7832,0.254 0.3175,0.0635 0.5715,0.10583 0.7831,0.10583 0.7409,0 1.2912,-0.14817 1.6299,-0.48683 0.3595,-0.33867 0.55,-0.762 0.55,-1.27 0,-0.42331 -0.1905,-0.76198 -0.55,-0.99481 -0.3387,-0.254 -0.7832,-0.35983 -1.3124,-0.35983 l -1.1853,0 0,-1.10067 1.016,0 c 0.254,0 0.4868,-0.0847 0.6985,-0.23283 0.2328,-0.14817 0.4233,-0.3175 0.5927,-0.52917 0.1905,-0.21167 0.3383,-0.42333 0.4442,-0.67733 0.1058,-0.23284 0.1905,-0.46564 0.2328,-0.63497 l -1.0369,0 c -0.3386,0 -0.7196,0 -1.1218,0.0212 -0.4022,0.0423 -0.762,0.0847 -1.1007,0.1905 l -0.3175,-1.35466 3.8944,0 z"
       style="fill:#ffffff;fill-opacity:1;fill-rule:nonzero;stroke:none" />
    <path
       inkscape:connector-curvature="0"
       id="path4166"
       d="m 1814.4047,738.26983 c -0.042,0.0847 -0.1058,0.16933 -0.1693,0.27517 -0.085,0.10583 -0.1693,0.1905 -0.2752,0.27516 -0.063,0.0847 -0.1481,0.16934 -0.254,0.23284 -0.063,0.0423 -0.1481,0.0635 -0.2328,0.0635 -0.127,0 -0.2963,-0.0635 -0.4868,-0.1905 -0.2117,-0.14817 -0.4022,-0.3175 -0.5715,-0.52917 l 0.8678,-1.0795 1.1218,0.9525 z m 0,-2.87864 c -0.042,0.0847 -0.1058,0.16933 -0.1693,0.27517 -0.085,0.0847 -0.1693,0.19047 -0.2752,0.27514 -0.063,0.0847 -0.1481,0.14816 -0.254,0.21166 -0.063,0.0635 -0.1481,0.0847 -0.2328,0.0847 -0.127,0 -0.2963,-0.0635 -0.4868,-0.1905 -0.2117,-0.14817 -0.4022,-0.31747 -0.5715,-0.52914 l 0.8678,-1.0795 1.1218,0.9525 z"
       style="fill:#ffffff;fill-opacity:1;fill-rule:nonzero;stroke:none" />
    <path
       inkscape:connector-curvature="0"
       id="path4168"
       d="m 1803.6521,737.86766 c -0.063,-0.127 -0.1059,-0.27516 -0.1482,-0.48683 -0.042,-0.1905 -0.063,-0.381 -0.063,-0.5715 0,-0.27517 0.042,-0.5715 0.127,-0.86783 0.085,-0.29631 0.2117,-0.57148 0.381,-0.80431 0.1693,-0.23283 0.381,-0.42333 0.635,-0.5715 0.2752,-0.14817 0.5715,-0.21167 0.9313,-0.21167 0.4022,0 0.7409,0.0847 1.0372,0.29634 0.2963,0.1905 0.5503,0.42333 0.7408,0.71966 0.2117,0.29634 0.3387,0.61381 0.4445,0.97364 0.085,0.33867 0.127,0.65617 0.127,0.9525 0,0.27517 -0.021,0.52917 -0.085,0.74084 -0.063,0.23283 -0.127,0.42333 -0.2329,0.5715 -0.064,0.16933 -0.1481,0.29633 -0.254,0.381 -0.085,0.0847 -0.1693,0.127 -0.254,0.127 l -5.3128,0 c -0.085,0 -0.1482,-0.0212 -0.2328,-0.0635 -0.085,-0.0635 -0.1482,-0.127 -0.2117,-0.21167 -0.085,-0.0635 -0.1482,-0.14817 -0.1905,-0.254 -0.042,-0.0847 -0.063,-0.16933 -0.063,-0.254 0,-0.10583 0.063,-0.21167 0.1482,-0.3175 0.085,-0.10583 0.2751,-0.14817 0.5503,-0.14817 l 1.9262,0 z m 1.6933,-2.11664 c -0.4022,0 -0.7408,0.14814 -0.9737,0.42331 -0.2328,0.29633 -0.3598,0.635 -0.3598,1.016 0,0.10583 0.021,0.23283 0.042,0.35983 0.021,0.127 0.063,0.23284 0.1059,0.3175 l 2.4765,0 c 0.085,0 0.1481,-0.0212 0.2116,-0.0635 0.085,-0.0423 0.1059,-0.14816 0.1059,-0.33866 0,-0.46567 -0.127,-0.86784 -0.4234,-1.2065 -0.2963,-0.33867 -0.6773,-0.50798 -1.1853,-0.50798 z"
       style="fill:#ffffff;fill-opacity:1;fill-rule:nonzero;stroke:none" />
    <path
       inkscape:connector-curvature="0"
       id="path4170"
       d="m 1801.6836,739.1165 -0.8255,0 c -0.1059,0.50797 -0.2964,0.9948 -0.5715,1.46047 -0.2752,0.4445 -0.5504,0.86783 -0.8679,1.2065 -0.2963,0.35983 -0.5926,0.65616 -0.9101,0.86783 -0.2752,0.21167 -0.508,0.29633 -0.6562,0.29633 -0.127,0 -0.2752,-0.0212 -0.4868,-0.0847 -0.1694,-0.0635 -0.381,-0.14816 -0.5927,-0.254 -0.1905,-0.10583 -0.381,-0.21166 -0.5715,-0.3175 -0.1693,-0.127 -0.3387,-0.23283 -0.4445,-0.3175 l 0.021,-0.0635 c 0.3598,-0.0212 0.7408,-0.0847 1.143,-0.1905 0.4021,-0.10583 0.8043,-0.27516 1.1853,-0.508 0.381,-0.21166 0.7197,-0.508 1.016,-0.86783 0.3175,-0.33867 0.5715,-0.7408 0.7197,-1.22764 l -1.1642,0 c -0.8467,0 -1.5452,-0.16933 -2.032,-0.508 -0.508,-0.33866 -0.762,-0.86783 -0.762,-1.5875 0,-0.381 0.063,-0.74083 0.2117,-1.0795 0.127,-0.3598 0.3175,-0.6773 0.5503,-0.95247 0.2328,-0.27517 0.508,-0.48683 0.8467,-0.635 0.3386,-0.1905 0.6985,-0.27517 1.1006,-0.27517 0.4022,0 0.7409,0.0847 1.0584,0.27517 0.3175,0.16933 0.5715,0.40217 0.7831,0.6985 0.2329,0.29633 0.381,0.65617 0.4869,1.07947 0.127,0.381 0.1905,0.80434 0.1905,1.24884 0,0.0847 -0.021,0.16933 -0.021,0.23283 l 0,0.254 0.5927,0 0,1.24883 z m -5.08,-2.30717 c 0,0.21167 0.042,0.35983 0.1481,0.508 0.127,0.127 0.2752,0.23283 0.4445,0.3175 0.1905,0.0847 0.381,0.14817 0.5927,0.1905 0.2328,0.0212 0.4445,0.0423 0.6773,0.0423 l 1.6299,0 c 0.021,-0.0635 0.021,-0.14817 0.021,-0.254 0.021,-0.0847 0.021,-0.1905 0.021,-0.254 0,-0.59267 -0.1693,-1.05833 -0.4868,-1.37583 -0.3175,-0.31748 -0.762,-0.46564 -1.3124,-0.46564 -0.2116,0 -0.4233,0.0212 -0.635,0.0847 -0.2116,0.0635 -0.4021,0.16934 -0.5715,0.27514 -0.1481,0.10584 -0.2963,0.254 -0.4021,0.40217 -0.085,0.14817 -0.127,0.33867 -0.127,0.52917 z"
       style="fill:#ffffff;fill-opacity:1;fill-rule:nonzero;stroke:none" />
    <path
       inkscape:connector-curvature="0"
       id="path4172"
       d="m 1792.8994,730.75572 c 0.2117,-0.16933 0.4022,-0.3175 0.6138,-0.4445 0.2117,-0.127 0.4234,-0.254 0.635,-0.35983 0.2329,0.381 0.4022,0.71966 0.5504,1.05833 0.127,0.3175 0.2116,0.55033 0.2116,0.67733 -0.085,0.16934 -0.1905,0.29634 -0.3598,0.40214 -0.1482,0.10583 -0.2752,0.1905 -0.381,0.23283 0.042,0.3175 0.063,0.71967 0.063,1.22767 0.021,0.508 0.042,1.05833 0.063,1.651 0.021,0.59267 0.021,1.18531 0.021,1.82031 0,0.61383 0.021,1.18533 0.021,1.7145 -0.085,0.14816 -0.2328,0.254 -0.4445,0.35983 -0.2116,0.0847 -0.381,0.14817 -0.5503,0.21167 0,-0.14817 0,-0.40217 -0.021,-0.78317 0,-0.381 0,-0.8255 -0.042,-1.3335 0,-0.508 -0.021,-1.0795 -0.042,-1.67214 -0.021,-0.61383 -0.042,-1.2065 -0.085,-1.778 -0.021,-0.59267 -0.063,-1.16417 -0.127,-1.67217 -0.042,-0.52913 -0.085,-0.97363 -0.127,-1.3123 z"
       style="fill:#ffffff;fill-opacity:1;fill-rule:nonzero;stroke:none" />
    <path
       inkscape:connector-curvature="0"
       id="path4174"
       d="m 1787.9887,734.96786 c 0.042,-0.127 0.085,-0.254 0.1482,-0.40217 0.085,-0.14817 0.1693,-0.29633 0.2752,-0.42333 0.085,-0.127 0.1905,-0.23284 0.2963,-0.3175 0.1058,-0.0847 0.2328,-0.127 0.3387,-0.127 0.1905,0 0.4233,0.10583 0.7196,0.3175 0.2964,0.21166 0.5715,0.48683 0.8467,0.86783 0.2752,0.35983 0.508,0.762 0.7197,1.24881 0.2116,0.508 0.3175,1.016 0.3175,1.5875 l 0,0.35983 c 0,0.0635 -0.042,0.14817 -0.085,0.27517 -0.063,0.127 -0.127,0.23283 -0.1905,0.35983 -0.085,0.10583 -0.1693,0.1905 -0.254,0.29633 -0.063,0.0847 -0.1482,0.10584 -0.1905,0.10584 -0.2328,0.0423 -0.508,0.0423 -0.7832,0.0423 -0.2963,0.0212 -0.5926,0.0212 -0.8678,0.0212 -0.762,0 -1.3335,-0.0423 -1.7568,-0.127 -0.4022,-0.10584 -0.5927,-0.35984 -0.5927,-0.78317 0,-0.14817 0,-0.3175 0.021,-0.508 0.042,-0.1905 0.063,-0.33867 0.127,-0.40217 l 0.063,-0.0423 c 0.1693,0.1905 0.4656,0.33867 0.8678,0.46567 0.4022,0.10583 0.8255,0.14817 1.2912,0.14817 0.1905,0 0.4021,0 0.6138,-0.0212 0.2328,0 0.5292,-0.0423 0.9102,-0.10584 l 0,-0.14816 c 0,-0.21167 -0.085,-0.4445 -0.254,-0.74084 -0.1694,-0.29633 -0.381,-0.59266 -0.6774,-0.86783 -0.2751,-0.29631 -0.5715,-0.52914 -0.9101,-0.74081 -0.3387,-0.21166 -0.6774,-0.3175 -0.9949,-0.33866 z"
       style="fill:#ffffff;fill-opacity:1;fill-rule:nonzero;stroke:none" />
    <path
       inkscape:connector-curvature="0"
       id="path4176"
       d="m 1780.3478,730.75572 c 0.2117,-0.16933 0.4234,-0.3175 0.6139,-0.4445 0.2116,-0.127 0.423,-0.254 0.6559,-0.35983 0.2328,0.381 0.4021,0.71966 0.5291,1.05833 0.1482,0.3175 0.2117,0.55033 0.2117,0.67733 -0.063,0.16934 -0.1905,0.29634 -0.3387,0.40214 -0.1481,0.10583 -0.2751,0.1905 -0.381,0.23283 0.021,0.3175 0.042,0.71967 0.063,1.22767 0.021,0.508 0.042,1.05833 0.042,1.651 0.021,0.59267 0.021,1.18531 0.021,1.82031 0.021,0.61383 0.021,1.18533 0.021,1.7145 -0.063,0.14816 -0.2117,0.254 -0.4233,0.35983 -0.2114,0.0847 -0.4019,0.14817 -0.5501,0.21167 0,-0.14817 -0.021,-0.40217 -0.021,-0.78317 0,-0.381 -0.021,-0.8255 -0.042,-1.3335 -0.021,-0.508 -0.042,-1.0795 -0.063,-1.67214 -0.021,-0.61383 -0.042,-1.2065 -0.085,-1.778 -0.021,-0.59267 -0.063,-1.16417 -0.1058,-1.67217 -0.042,-0.52913 -0.085,-0.97363 -0.1482,-1.3123 z"
       style="fill:#ffffff;fill-opacity:1;fill-rule:nonzero;stroke:none" />
    <path
       inkscape:connector-curvature="0"
       id="path4178"
       d="m 1779.2683,735.30652 c 0.063,0.27517 0.1059,0.52914 0.127,0.82548 0.042,0.27516 0.064,0.48683 0.064,0.61383 0,0.21167 -0.042,0.4445 -0.127,0.74083 -0.085,0.27517 -0.2116,0.52917 -0.381,0.78317 -0.1693,0.254 -0.381,0.46567 -0.6138,0.65617 -0.2328,0.16933 -0.508,0.254 -0.8255,0.254 -0.5503,0 -0.9737,-0.35984 -1.27,-1.0795 l -0.042,0.0212 c -0.1905,0.33866 -0.4022,0.59266 -0.6562,0.78316 -0.2328,0.1905 -0.5503,0.27517 -0.9313,0.27517 -0.1482,0 -0.3175,-0.0212 -0.4657,-0.0847 -0.1481,-0.0847 -0.2963,-0.16934 -0.4445,-0.27517 -0.127,-0.10583 -0.2328,-0.1905 -0.3175,-0.29633 -0.1058,-0.10584 -0.1693,-0.1905 -0.2116,-0.254 -0.1059,0.21166 -0.254,0.40216 -0.4234,0.5715 -0.1693,0.1905 -0.4445,0.27516 -0.8255,0.27516 l -0.5291,0 c -0.063,0 -0.1482,-0.0212 -0.2329,-0.0635 -0.085,-0.0635 -0.1481,-0.127 -0.2116,-0.21166 -0.085,-0.0635 -0.1482,-0.14817 -0.1905,-0.254 -0.021,-0.0847 -0.042,-0.16934 -0.042,-0.254 0,-0.10584 0.042,-0.21167 0.127,-0.3175 0.085,-0.10584 0.2752,-0.14817 0.5504,-0.14817 l 0.5291,0 c 0.2752,0 0.4445,-0.0423 0.5504,-0.127 0.1058,-0.0847 0.1481,-0.1905 0.1481,-0.29633 0,-0.127 -0.021,-0.254 -0.085,-0.40217 -0.021,-0.127 -0.085,-0.27517 -0.1482,-0.381 -0.127,-0.27517 -0.1905,-0.40217 -0.1905,-0.42333 0,-0.0212 0.042,-0.0847 0.1693,-0.14817 0.127,-0.0847 0.254,-0.16933 0.4022,-0.254 0.1482,-0.0635 0.254,-0.12697 0.3598,-0.19047 0.127,-0.0423 0.1905,-0.0847 0.2329,-0.0847 0.021,0.0847 0.042,0.1905 0.063,0.31747 0.042,0.14817 0.085,0.27517 0.127,0.4445 0.042,0.14817 0.085,0.3175 0.127,0.48684 0.021,0.16933 0.063,0.29633 0.085,0.42333 0.063,0.254 0.1905,0.42333 0.3599,0.508 0.1693,0.0847 0.4021,0.14817 0.6985,0.14817 0.1693,0 0.3598,-0.0423 0.5291,-0.127 0.1905,-0.0847 0.2752,-0.23284 0.2752,-0.4445 0,-0.23284 -0.021,-0.4445 -0.042,-0.65617 -0.021,-0.23283 -0.063,-0.4445 -0.1059,-0.67733 0.063,-0.0423 0.2117,-0.10584 0.4657,-0.19047 0.254,-0.10584 0.508,-0.16934 0.7197,-0.254 l 0,0.84663 c 0,0.4445 0.063,0.80434 0.1905,1.0795 0.1058,0.27517 0.4021,0.42334 0.889,0.42334 0.1905,0 0.3598,-0.0635 0.4656,-0.16934 0.127,-0.10583 0.2117,-0.254 0.2117,-0.46566 0,-0.23284 -0.042,-0.48684 -0.1058,-0.71967 -0.063,-0.254 -0.127,-0.508 -0.2329,-0.8043 0.042,-0.0212 0.1059,-0.0423 0.1905,-0.0847 0.085,-0.0423 0.1905,-0.0847 0.2964,-0.10583 0.127,-0.0635 0.2328,-0.10584 0.3598,-0.127 0.127,-0.0423 0.2328,-0.0635 0.3387,-0.10584 z"
       style="fill:#ffffff;fill-opacity:1;fill-rule:nonzero;stroke:none" />
    <path
       inkscape:connector-curvature="0"
       id="path4180"
       d="m 1771.3943,739.1165 -0.042,0 c -0.2328,0 -0.4868,-0.21167 -0.8043,-0.635 0,0.508 -0.085,1.016 -0.254,1.54513 -0.1693,0.55034 -0.381,1.03717 -0.635,1.43934 -0.2328,0.4445 -0.508,0.80433 -0.7832,1.0795 -0.254,0.27516 -0.4868,0.40216 -0.6773,0.40216 -0.1058,0 -0.2328,-0.0212 -0.4022,-0.0635 -0.1481,-0.0635 -0.3386,-0.127 -0.508,-0.23283 -0.1905,-0.0635 -0.3598,-0.16933 -0.5291,-0.27517 -0.1905,-0.0847 -0.3175,-0.16933 -0.4234,-0.27516 l 0.063,-0.0847 c 0.4869,-0.10584 0.9314,-0.254 1.3124,-0.508 0.4021,-0.21167 0.7408,-0.48684 1.016,-0.78317 0.2751,-0.29633 0.4868,-0.635 0.635,-0.99483 0.1481,-0.33864 0.2328,-0.69847 0.2328,-1.01597 0,-0.33867 -0.085,-0.80434 -0.2328,-1.35467 -0.1482,-0.55033 -0.381,-1.0795 -0.7197,-1.60864 0.063,-0.0635 0.1693,-0.14817 0.2752,-0.21167 0.127,-0.10583 0.2751,-0.1905 0.4021,-0.27516 0.127,-0.0847 0.254,-0.16934 0.381,-0.23284 0.1059,-0.0847 0.2117,-0.127 0.2752,-0.16933 0.1482,0.381 0.254,0.74083 0.3387,1.10064 0.063,0.33867 0.1481,0.6985 0.2116,1.05833 0.085,0.508 0.3599,0.78317 0.8255,0.84667 l 0.042,0 0,1.24883 z"
       style="fill:#ffffff;fill-opacity:1;fill-rule:nonzero;stroke:none" />
    <path
       inkscape:connector-curvature="0"
       id="path4182"
       d="m 1765.0443,730.75572 c 0.1905,-0.16933 0.4022,-0.3175 0.5927,-0.4445 0.2117,-0.127 0.4445,-0.254 0.6562,-0.35983 0.2328,0.381 0.4021,0.71966 0.5291,1.05833 0.1482,0.3175 0.2329,0.55033 0.2329,0.67733 -0.085,0.16934 -0.2117,0.29634 -0.3599,0.40214 -0.1481,0.10583 -0.2751,0.1905 -0.381,0.23283 0.021,0.3175 0.042,0.71967 0.063,1.22767 0.021,0.508 0.042,1.05833 0.063,1.651 0,0.59267 0.021,1.18531 0.021,1.82031 0,0.61383 0.021,1.18533 0.021,1.7145 -0.085,0.14816 -0.2328,0.254 -0.4445,0.35983 -0.2117,0.0847 -0.4022,0.14817 -0.5503,0.21167 0,-0.14817 0,-0.40217 -0.021,-0.78317 0,-0.381 -0.021,-0.8255 -0.042,-1.3335 0,-0.508 -0.021,-1.0795 -0.063,-1.67214 0,-0.61383 -0.021,-1.2065 -0.064,-1.778 -0.042,-0.59267 -0.063,-1.16417 -0.127,-1.67217 -0.042,-0.52913 -0.085,-0.97363 -0.127,-1.3123 z"
       style="fill:#ffffff;fill-opacity:1;fill-rule:nonzero;stroke:none" />
    <path
       inkscape:connector-curvature="0"
       id="path4184"
       d="m 1763.0547,734.86202 c 0.2116,0.5715 0.381,1.16414 0.4445,1.73564 0.1058,0.5715 0.1481,1.143 0.1481,1.73567 0,0.55033 -0.1058,1.10067 -0.2751,1.65097 -0.1694,0.5715 -0.381,1.05833 -0.635,1.48167 -0.254,0.4445 -0.508,0.80433 -0.7832,1.0795 -0.2752,0.27516 -0.4868,0.40216 -0.6773,0.40216 -0.1059,0 -0.2329,-0.0212 -0.4022,-0.0635 -0.1482,-0.0635 -0.3175,-0.127 -0.508,-0.23283 -0.1905,-0.0635 -0.3598,-0.16933 -0.5292,-0.27517 -0.1693,-0.0847 -0.3175,-0.16933 -0.4233,-0.27516 l 0.063,-0.0847 c 0.4868,-0.10584 0.9313,-0.254 1.3123,-0.508 0.4022,-0.21167 0.7409,-0.48684 1.016,-0.78317 0.2752,-0.29633 0.4869,-0.635 0.635,-0.99483 0.1482,-0.33864 0.2329,-0.69847 0.2329,-1.01597 0,-0.33867 -0.085,-0.80434 -0.2329,-1.35467 -0.1481,-0.55033 -0.381,-1.0795 -0.7196,-1.60864 0.2116,-0.16933 0.4445,-0.33867 0.6985,-0.508 0.254,-0.16933 0.4656,-0.29633 0.635,-0.381 z"
       style="fill:#ffffff;fill-opacity:1;fill-rule:nonzero;stroke:none" />
    <path
       inkscape:connector-curvature="0"
       id="path4186"
       d="m 1754.2282,730.75572 c 0.2116,-0.16933 0.4233,-0.3175 0.6138,-0.4445 0.2117,-0.127 0.4233,-0.254 0.6562,-0.35983 0.2116,0.381 0.4021,0.71966 0.5291,1.05833 0.1482,0.3175 0.2117,0.55033 0.2117,0.67733 -0.063,0.16934 -0.1905,0.29634 -0.3598,0.40214 -0.127,0.10583 -0.254,0.1905 -0.3599,0.23283 0.021,0.3175 0.042,0.71967 0.063,1.22767 0.021,0.508 0.042,1.05833 0.042,1.651 0.021,0.59267 0.021,1.18531 0.021,1.82031 0.021,0.61383 0.021,1.18533 0.021,1.7145 -0.085,0.14816 -0.2116,0.254 -0.4233,0.35983 -0.2117,0.0847 -0.4022,0.14817 -0.5503,0.21167 0,-0.14817 -0.021,-0.40217 -0.021,-0.78317 0,-0.381 -0.021,-0.8255 -0.042,-1.3335 -0.021,-0.508 -0.042,-1.0795 -0.063,-1.67214 -0.021,-0.61383 -0.042,-1.2065 -0.085,-1.778 -0.021,-0.59267 -0.063,-1.16417 -0.1059,-1.67217 -0.042,-0.52913 -0.085,-0.97363 -0.1481,-1.3123 z m -1.1642,-1.5875 c 0,-0.0847 0.021,-0.19049 0.042,-0.33866 0.021,-0.14816 0.063,-0.29633 0.127,-0.42333 0.063,-0.16933 0.127,-0.29633 0.2329,-0.40216 0.1058,-0.127 0.2328,-0.16933 0.3598,-0.16933 0.1058,0 0.254,0 0.4868,0.0423 0.2117,0.0423 0.4657,0.0847 0.6985,0.14816 0.2752,0.0423 0.5292,0.0847 0.762,0.10584 0.254,0.0423 0.4445,0.0635 0.5927,0.0635 0.2117,0 0.381,-0.0423 0.508,-0.10584 0.127,-0.0847 0.254,-0.19049 0.3598,-0.29633 l 0.063,0.0212 c -0.021,0.0847 -0.042,0.1905 -0.1058,0.3175 -0.042,0.14816 -0.127,0.27516 -0.2117,0.40216 -0.085,0.127 -0.1905,0.23283 -0.2963,0.3175 -0.127,0.0847 -0.254,0.127 -0.4022,0.127 -0.1481,0 -0.3386,-0.0212 -0.5291,-0.0212 l -0.5927,-0.0423 c -0.1905,-0.0212 -0.3598,-0.0423 -0.5503,-0.0635 -0.1694,-0.0212 -0.3175,-0.0423 -0.4445,-0.0423 -0.063,0 -0.1694,0.0212 -0.2752,0.0212 -0.1058,0 -0.2117,0.0212 -0.3175,0.0423 -0.1058,0.0212 -0.1905,0.0423 -0.2752,0.10584 -0.085,0.0423 -0.127,0.12699 -0.1481,0.21166 l -0.085,-0.0212 z"
       style="fill:#ffffff;fill-opacity:1;fill-rule:nonzero;stroke:none" />
    <path
       inkscape:connector-curvature="0"
       id="path4188"
       d="m 1748.7673,737.86766 c -0.042,-0.127 -0.085,-0.27516 -0.127,-0.48683 -0.042,-0.1905 -0.063,-0.381 -0.063,-0.5715 0,-0.27517 0.042,-0.5715 0.127,-0.86783 0.063,-0.29631 0.1905,-0.57148 0.3598,-0.80431 0.1905,-0.23283 0.4022,-0.42333 0.6562,-0.5715 0.2751,-0.14817 0.5715,-0.21167 0.9313,-0.21167 0.4022,0 0.7408,0.0847 1.0372,0.29634 0.2963,0.1905 0.5503,0.42333 0.7407,0.71966 0.1905,0.29634 0.3387,0.61381 0.4445,0.97364 0.085,0.33867 0.127,0.65617 0.127,0.9525 0,0.27517 -0.021,0.52917 -0.1058,0.74084 -0.042,0.23283 -0.1059,0.42333 -0.2117,0.5715 -0.085,0.16933 -0.1693,0.29633 -0.254,0.381 -0.085,0.0847 -0.1693,0.127 -0.2539,0.127 l -5.3128,0 c -0.085,0 -0.1693,-0.0212 -0.2328,-0.0635 -0.085,-0.0635 -0.1482,-0.127 -0.2329,-0.21167 -0.063,-0.0635 -0.127,-0.14817 -0.1693,-0.254 -0.042,-0.0847 -0.063,-0.16933 -0.063,-0.254 0,-0.10583 0.042,-0.21167 0.1482,-0.3175 0.085,-0.10583 0.2751,-0.14817 0.5503,-0.14817 l 1.905,0 z m 1.7145,-2.11664 c -0.4234,0 -0.7409,0.14814 -0.9737,0.42331 -0.2328,0.29633 -0.3598,0.635 -0.3598,1.016 0,0.10583 0.021,0.23283 0.042,0.35983 0.021,0.127 0.064,0.23284 0.1058,0.3175 l 2.4765,0 c 0.063,0 0.1482,-0.0212 0.2117,-0.0635 0.063,-0.0423 0.1058,-0.14816 0.1058,-0.33866 0,-0.46567 -0.1481,-0.86784 -0.4233,-1.2065 -0.2963,-0.33867 -0.6985,-0.50798 -1.1853,-0.50798 z"
       style="fill:#ffffff;fill-opacity:1;fill-rule:nonzero;stroke:none" />
    <path
       inkscape:connector-curvature="0"
       id="path4190"
       d="m 1743.518,740.8733 0.6562,-0.84667 1.1429,0.9525 c -0.127,0.1905 -0.2328,0.35984 -0.3598,0.48684 -0.1058,0.127 -0.2116,0.23283 -0.3175,0.3175 -0.085,0.10583 -0.1693,0.16933 -0.2116,0.16933 -0.1482,0 -0.3175,-0.0847 -0.508,-0.254 -0.2117,-0.16933 -0.3599,-0.3175 -0.4869,-0.4445 -0.1058,0.14817 -0.2328,0.29633 -0.3598,0.46567 -0.1482,0.14816 -0.2328,0.23283 -0.2963,0.23283 -0.085,0 -0.1905,-0.0423 -0.2964,-0.10583 -0.1058,-0.0635 -0.2116,-0.14817 -0.3175,-0.23284 -0.1058,-0.0847 -0.2116,-0.16933 -0.2963,-0.254 -0.1058,-0.0847 -0.1693,-0.16933 -0.2117,-0.23283 l 0.8467,-1.10067 1.016,0.84667 z m 3.3443,-1.7568 -0.254,0 c -0.4657,0 -0.8467,-0.21167 -1.1642,-0.61384 -0.1058,0.16934 -0.2328,0.3175 -0.381,0.4445 -0.1481,0.127 -0.2539,0.16934 -0.3386,0.16934 l -3.4925,0 c -0.085,0 -0.1693,-0.0212 -0.2328,-0.0635 -0.085,-0.0635 -0.1693,-0.127 -0.2328,-0.21167 -0.063,-0.0635 -0.127,-0.14817 -0.1694,-0.254 -0.042,-0.0847 -0.063,-0.16933 -0.063,-0.254 0,-0.10583 0.042,-0.21167 0.1482,-0.3175 0.085,-0.10583 0.2752,-0.14817 0.5503,-0.14817 l 3.1115,0 c 0.1693,0 0.254,-0.0423 0.2963,-0.0847 0.042,-0.0635 0.063,-0.10583 0.063,-0.16933 0,-0.127 -0.021,-0.29633 -0.063,-0.48683 -0.021,-0.1905 -0.063,-0.40217 -0.085,-0.61384 -0.042,-0.21166 -0.085,-0.40216 -0.127,-0.5715 -0.021,-0.19047 -0.042,-0.31747 -0.042,-0.40214 0,-0.0635 0,-0.127 0.021,-0.16933 0.021,-0.0423 0.085,-0.0847 0.1905,-0.127 0.1482,-0.0423 0.2963,-0.10583 0.508,-0.16933 0.1905,-0.0635 0.381,-0.127 0.5503,-0.16934 0,0.35984 0.021,0.74084 0.021,1.14298 0,0.381 0.021,0.78316 0.064,1.2065 0.042,0.29633 0.127,0.46566 0.2751,0.52916 0.1482,0.0423 0.3175,0.0847 0.508,0.0847 l 0.3387,0 0,1.24884 z"
       style="fill:#ffffff;fill-opacity:1;fill-rule:nonzero;stroke:none" />
    <path
       inkscape:connector-curvature="0"
       id="path4192"
       d="m 1739.962,732.61836 c -0.127,0.16933 -0.2328,0.33866 -0.3386,0.48683 -0.085,0.10583 -0.1905,0.23283 -0.2964,0.33867 -0.1058,0.0847 -0.1905,0.127 -0.254,0.127 -0.064,0 -0.1481,-0.0212 -0.254,-0.0847 -0.1058,-0.0635 -0.2116,-0.127 -0.3175,-0.21167 l -0.2751,-0.27516 c -0.1059,-0.0847 -0.1694,-0.16934 -0.1905,-0.21167 l 0.8466,-1.10064 1.0795,0.93131 z m 1.2488,6.49814 -0.042,0 c -0.2328,0 -0.4868,-0.21167 -0.8043,-0.635 0,0.508 -0.085,1.016 -0.254,1.54513 -0.1905,0.55034 -0.4022,1.03717 -0.635,1.43934 -0.254,0.4445 -0.508,0.80433 -0.7832,1.0795 -0.254,0.27516 -0.4868,0.40216 -0.6773,0.40216 -0.1058,0 -0.2328,-0.0212 -0.4022,-0.0635 -0.1693,-0.0635 -0.3386,-0.127 -0.5079,-0.23283 -0.1905,-0.0635 -0.3599,-0.16933 -0.5504,-0.27517 -0.1693,-0.0847 -0.2963,-0.16933 -0.4021,-0.27516 l 0.063,-0.0847 c 0.4868,-0.10584 0.9313,-0.254 1.3123,-0.508 0.4021,-0.21167 0.7408,-0.48684 1.016,-0.78317 0.2751,-0.29633 0.4868,-0.635 0.635,-0.99483 0.1481,-0.33864 0.2328,-0.69847 0.2328,-1.01597 0,-0.33867 -0.085,-0.80434 -0.2328,-1.35467 -0.1482,-0.55033 -0.381,-1.0795 -0.7197,-1.60864 0.063,-0.0635 0.1693,-0.14817 0.2752,-0.21167 0.127,-0.10583 0.2751,-0.1905 0.4021,-0.27516 0.127,-0.0847 0.254,-0.16934 0.381,-0.23284 0.1059,-0.0847 0.1905,-0.127 0.2752,-0.16933 0.127,0.381 0.254,0.74083 0.3175,1.10064 0.085,0.33867 0.1693,0.6985 0.2328,1.05833 0.063,0.508 0.3599,0.78317 0.8255,0.84667 l 0.042,0 0,1.24883 z"
       style="fill:#ffffff;fill-opacity:1;fill-rule:nonzero;stroke:none" />
  </g>
</svg>
