<?xml version="1.0" encoding="UTF-8" standalone="no"?>
<!-- Created with Inkscape (http://www.inkscape.org/) -->

<svg
   xmlns:dc="http://purl.org/dc/elements/1.1/"
   xmlns:cc="http://creativecommons.org/ns#"
   xmlns:rdf="http://www.w3.org/1999/02/22-rdf-syntax-ns#"
   xmlns:svg="http://www.w3.org/2000/svg"
   xmlns="http://www.w3.org/2000/svg"
   xmlns:xlink="http://www.w3.org/1999/xlink"
   xmlns:sodipodi="http://sodipodi.sourceforge.net/DTD/sodipodi-0.dtd"
   xmlns:inkscape="http://www.inkscape.org/namespaces/inkscape"
   id="svg2"
   version="1.1"
   inkscape:version="0.91 r"
   width="2481"
   height="3503"
   sodipodi:docname="Pepper-and-Carrot_by-David-Revoy_E03P02.svg">
  <metadata
     id="metadata8">
    <rdf:RDF>
      <cc:Work
         rdf:about="">
        <dc:format>image/svg+xml</dc:format>
        <dc:type
           rdf:resource="http://purl.org/dc/dcmitype/StillImage" />
        <dc:title />
      </cc:Work>
    </rdf:RDF>
  </metadata>
  <defs
     id="defs6" />
  <sodipodi:namedview
     pagecolor="#ffffff"
     bordercolor="#666666"
     borderopacity="1"
     objecttolerance="10"
     gridtolerance="10"
     guidetolerance="10"
     inkscape:pageopacity="0"
     inkscape:pageshadow="2"
     inkscape:window-width="1680"
     inkscape:window-height="1033"
     id="namedview4"
     showgrid="false"
     inkscape:zoom="0.2924201"
     inkscape:cx="1097.9302"
     inkscape:cy="1816.312"
     inkscape:window-x="1920"
     inkscape:window-y="0"
     inkscape:window-maximized="1"
     inkscape:current-layer="layer2" />
  <g
     inkscape:groupmode="layer"
     id="layer3"
     inkscape:label="artwork"
     sodipodi:insensitive="true">
    <image
       sodipodi:absref="/home/deevad/peppercarrot/webcomics/ep03_The-secret-ingredients/lang/eo/../gfx_Pepper-and-Carrot_by-David-Revoy_E03P02.png"
       xlink:href="../gfx_Pepper-and-Carrot_by-David-Revoy_E03P02.png"
       width="2481"
       height="3503"
       id="image10"
       x="0"
       y="0" />
  </g>
  <g
     inkscape:groupmode="layer"
     id="layer2"
     inkscape:label="speechbubbles">
    <path
       style="color:#000000;display:inline;overflow:visible;visibility:visible;fill:#ffffff;fill-opacity:1;fill-rule:nonzero;stroke:none;stroke-width:1px;marker:none;enable-background:accumulate"
       d="m 797.12143,1351.7567 c 26.24678,-47.6331 46.66094,-50.5494 61.24248,-54.4378 1.94421,4.8605 6.80472,12.6373 6.80472,12.6373 0,0 28.19098,-10.6931 39.85622,-10.6931 11.66523,0 11.66523,16.5258 11.66523,16.5258 0,0 -54.43776,22.3583 -65.13089,31.1072 -4.86051,-13.6094 -8.74892,-19.442 -8.74892,-25.2746 -8.74893,-0.9721 -35.96781,13.6094 -45.68884,30.1352 z"
       id="path4456"
       inkscape:connector-curvature="0" />
    <path
       style="color:#000000;display:inline;overflow:visible;visibility:visible;fill:#ffffff;fill-opacity:1;fill-rule:nonzero;stroke:none;stroke-width:1px;marker:none;enable-background:accumulate"
       d="m 892.38365,1160.9555 c -22.9711,21.0295 -28.4404,47.066 -26.25269,59.0828 2.18774,12.0168 32.81585,68.0954 35.00358,83.1165 2.18773,15.0211 -30.62812,82.115 -24.06495,104.1459 6.56317,22.0309 26.25268,88.1235 112.66771,94.1319 86.4151,6.0085 109.3862,-7.0098 136.7326,-7.0098 27.3467,0 129.0759,19.0267 144.3898,16.0225 15.3142,-3.0042 22.9712,-8.0113 33.9098,-10.0141 10.9385,-2.0028 92.9782,1.0014 121.4186,-48.0674 28.4404,-49.0687 30.6281,-66.0926 16.408,-100.1403 -14.2203,-34.0476 -4.3754,-70.0982 7.6569,-111.1557 12.0325,-41.0576 -14.7659,-84.2106 -32.8159,-91.1277 -47.0359,-18.0253 -471.45424,-47.066 -525.05345,11.0154 z"
       id="path4464"
       inkscape:connector-curvature="0"
       sodipodi:nodetypes="csssssssssssc" />
    <path
       style="color:#000000;display:inline;overflow:visible;visibility:visible;fill:#ffffff;fill-opacity:1;fill-rule:nonzero;stroke:none;stroke-width:1px;marker:none;enable-background:accumulate"
       d="m 902.72484,1758.0355 c 3.54013,-62.2021 40.71139,-89.3159 53.10181,-95.6957 12.3904,-6.3797 24.78082,-60.6072 226.56765,-71.7717 122.1342,-6.3797 178.7761,33.4934 191.1665,36.6833 12.3904,3.1898 107.5065,84.6875 85.438,153.5021 -15.9305,49.6748 -34.7492,67.7747 -67.3057,77.0237 -37.459,10.6419 -267.7107,13.4981 -319.0425,0.7387 -51.3318,-12.7593 -148.68503,6.3797 -169.92576,-100.4804 z"
       id="path4472"
       inkscape:connector-curvature="0"
       sodipodi:nodetypes="cscssssc" />
    <path
       style="color:#000000;display:inline;overflow:visible;visibility:visible;fill:#ffffff;fill-opacity:1;fill-rule:nonzero;stroke:none;stroke-width:1px;marker:none;enable-background:accumulate"
       d="m 1443.4736,1775.8528 c 58.4773,18.4121 129.086,-2.4772 151.0046,-12.0462 -53.6863,37.6803 -112.616,59.4327 -151.498,45.1626 -38.8821,-14.2701 0.4934,-33.1164 0.4934,-33.1164 z"
       id="path4480"
       inkscape:connector-curvature="0" />
    <path
       style="color:#000000;display:inline;overflow:visible;visibility:visible;fill:#ffffff;fill-opacity:1;fill-rule:nonzero;stroke:none;stroke-width:1px;marker:none;enable-background:accumulate"
       d="m 1109.0297,2041.5975 c -10e-5,-26.918 9.6268,-40.3771 16.5032,-45.2713 6.8764,-4.8943 0,-28.1417 42.6336,-42.8243 42.6336,-14.6827 100.045,-26.7517 132.6593,-25.5282 42.9837,-3.8692 197.8667,-5.2913 254.253,39.98 56.3863,45.2714 118.995,140.1448 10.3483,174.4043 79.766,24.471 121.83,74.9696 114.9536,154.5004 -6.8764,79.5309 -177.7818,125.6987 -304.3072,140.3813 -126.5254,14.6826 -324.9363,-34.9895 -348.316,-108.4026 -23.3796,-73.4131 35.888,-151.4253 67.5193,-167.3315 31.6314,-15.9062 54.3995,-20.999 80.5297,-27.1168 -64.638,-17.1296 -66.7769,-74.438 -66.7768,-92.7913 z"
       id="path4488"
       inkscape:connector-curvature="0"
       sodipodi:nodetypes="csscscsssscc" />
    <path
       style="color:#000000;display:inline;overflow:visible;visibility:visible;fill:#ffffff;fill-opacity:1;fill-rule:nonzero;stroke:none;stroke-width:1px;marker:none;enable-background:accumulate"
       d="m 942.00632,2249.2586 c 5.57335,17.1181 11.16282,35.0294 23.39088,48.7241 3.55856,3.8199 7.50649,7.5251 12.13185,9.9498 5.37246,1.4498 10.84946,-1.4122 14.12756,-5.6132 5.1589,-5.7353 8.1963,-13.9047 15.56849,-17.285 5.4261,-2.3306 10.8729,0.8814 15.6761,3.1704 12.1284,6.0748 23.505,13.8279 36.5404,17.9363 14.3756,5.5799 29.9067,10.4081 45.4842,8.0016 6.1477,-1.0555 12.4312,-3.0194 17.0066,-7.4624 12.2544,-10.8656 18.4537,-28.9219 13.6291,-44.8231 -4.0403,-9.8511 -16.6784,-15.851 -26.5414,-11.0096 -5.2446,2.4777 -7.97,8.0957 -8.8455,13.5685 -3.4893,9.7595 -12.4516,16.8979 -22.4619,19.0846 -8.2318,1.9398 -16.9874,1.2749 -24.9579,-1.4727 -11.8256,-0.8743 -20.7496,-9.4594 -30.3291,-15.4411 -4.4172,-2.6676 -9.2966,-5.2059 -14.5159,-5.4716 -7.5326,1.3916 -11.84829,8.4752 -14.80769,14.8891 -3.2226,6.5363 -6.2222,14.4823 -13.5805,17.3225 -4.84088,2.6585 -8.79493,-2.5041 -12.54101,-4.8769 -11.06465,-9.2145 -19.10985,-21.7672 -24.06428,-35.1993 -0.37642,-1.3148 -0.64489,-2.6514 -0.91,-3.992 z"
       id="path4496"
       inkscape:connector-curvature="0" />
    <path
       style="color:#000000;display:inline;overflow:visible;visibility:visible;fill:#ffffff;fill-opacity:1;fill-rule:nonzero;stroke:none;stroke-width:1px;marker:none;enable-background:accumulate"
       d="m 1540.2041,2595.2232 c 4.4742,-26.8453 35.7937,-46.0205 73.5049,-45.3813 37.7112,0.6391 65.1957,33.8761 58.1648,58.8039 -7.0309,24.9278 -33.237,39.6288 -70.3091,35.1545 -37.0721,-4.4742 -65.8349,-30.0411 -61.3606,-48.5771 z"
       id="path4514"
       inkscape:connector-curvature="0" />
    <path
       style="color:#000000;display:inline;overflow:visible;visibility:visible;fill:#ffffff;fill-opacity:1;fill-rule:nonzero;stroke:none;stroke-width:1px;marker:none;enable-background:accumulate"
       d="m 1666.1212,2602.8932 c 17.8969,-1.2783 37.0721,-7.0309 39.6288,-17.8968 1.9175,14.701 -14.701,36.4329 -41.5463,35.1545 -26.8453,-1.2783 -19.8144,-14.701 -19.8144,-14.701 z"
       id="path4522"
       inkscape:connector-curvature="0" />
    <path
       style="color:#000000;display:inline;overflow:visible;visibility:visible;fill:#ffffff;fill-opacity:1;fill-rule:nonzero;stroke:none;stroke-width:1px;marker:none;enable-background:accumulate"
       d="m 737.08282,2973.1341 c 27.74612,-79.0281 91.18786,-130.0271 249.24679,-125.5818 158.05889,4.4455 187.44169,18.8929 208.71889,40.0084 21.277,21.1156 52.6862,142.252 36.4751,225.6028 -16.2113,83.3508 -81.0559,171.147 -236.07519,164.479 -155.01936,-6.6682 -155.33793,-9.7086 -179.33612,-26.6723 -45.59392,-32.229 -106.77558,-198.8079 -79.02947,-277.8361 z"
       id="path4530"
       inkscape:connector-curvature="0"
       sodipodi:nodetypes="zsssssz" />
    <path
       style="color:#000000;display:inline;overflow:visible;visibility:visible;fill:#ffffff;fill-opacity:1;fill-rule:nonzero;stroke:none;stroke-width:1px;marker:none;enable-background:accumulate"
       d="m 662.84427,3223.1642 c 27.21888,10.6931 31.10729,9.721 39.85622,-1.9442 8.74893,-11.6652 17.49785,-31.1073 43.74463,-34.9957 26.24678,-3.8884 38.88411,5.8326 47.63304,11.6652 1.9442,-18.4699 -7.77682,-45.6888 -16.52575,-56.3819 -8.74893,-10.6932 53.46566,7.7768 53.46566,7.7768 0,0 8.74892,47.633 -7.77683,65.1309 -16.52574,17.4978 -53.46565,-4.8605 -71.93561,-4.8605 -18.46995,0 -32.07939,26.2467 -46.66093,29.163 -14.58155,2.9163 -30.13519,-7.7768 -41.80043,-15.5536 z"
       id="path4538"
       inkscape:connector-curvature="0" />
    <path
       style="color:#000000;display:inline;overflow:visible;visibility:visible;fill:#ffffff;fill-opacity:1;fill-rule:nonzero;stroke:none;stroke-width:1px;marker:none;enable-background:accumulate"
       d="m 1274.948,3013.3877 c 7.4539,-57.0318 69.9735,-96.802 227.3436,-80.6312 84.2958,8.6619 180.1354,15.7329 170.197,99.3141 -9.9386,83.5811 -147.8354,76.698 -176.4086,77.6813 -28.5733,0.9834 -176.5583,-12.8887 -201.2549,-42.2823 -15.4595,-18.3996 -21.1194,-36.3823 -19.8771,-54.0819 z"
       id="path4546"
       inkscape:connector-curvature="0"
       sodipodi:nodetypes="cssssc" />
    <path
       style="color:#000000;display:inline;overflow:visible;visibility:visible;fill:#ffffff;fill-opacity:1;fill-rule:nonzero;stroke:none;stroke-width:1px;marker:none;enable-background:accumulate"
       d="m 1302.237,3185.8017 c 7.2989,-43.2195 93.9051,-65.9571 122.971,-63.7213 29.0659,2.2358 103.9664,13.415 121.8531,13.415 17.8867,0 82.7259,-7.8254 106.2022,-10.0612 23.4763,-2.2359 52.5422,38.0092 50.3063,54.778 -2.2358,16.7687 -20.1225,63.7213 -81.608,69.3109 -61.4855,5.5896 -144.2115,-1.1179 -160.9802,4.4717 -16.7688,5.5896 -89.4335,11.1791 -116.2635,-4.4717 -26.8301,-15.6509 -49.7798,-20.5019 -42.4809,-63.7214 z"
       id="path4554"
       inkscape:connector-curvature="0"
       sodipodi:nodetypes="zsssssssz" />
    <path
       style="color:#000000;display:inline;overflow:visible;visibility:visible;fill:#ffffff;fill-opacity:1;fill-rule:nonzero;stroke:none;stroke-width:1px;marker:none;enable-background:accumulate"
       d="m 1455.3791,3105.3878 c 15.6509,39.1272 126.3248,118.4994 138.6219,131.9144 12.2971,13.415 38.0092,32.4196 58.1317,35.7734 20.1226,3.3537 29.8656,-15.8488 47.3048,-18.9433 14.983,-2.6587 26.4778,2.1745 35.4212,12.2357 -14.533,-25.7121 -39.1272,-25.7121 -49.1884,-21.2404 -10.0613,4.4717 -27.948,17.8867 -44.7168,5.5896 -16.7687,-12.2971 -86.0797,-88.3156 -103.9664,-91.6693 -17.8867,-3.3538 -40.245,-29.0659 -40.245,-43.5988 0,-14.533 -41.363,-10.0613 -41.363,-10.0613 z"
       id="path4562"
       inkscape:connector-curvature="0"
       sodipodi:nodetypes="cssscssssc" />
    <path
       style="fill:#ffffff;fill-opacity:1;stroke:none"
       d="m 329.03241,237.21861 c -5.53661,-58.05354 31.18678,-86.93258 64.62363,-100.61277 42.37649,-17.33767 348.07474,-36.661021 384.96398,11.93365 33.97378,44.75412 58.11144,127.03475 -43.33398,167.67933 C 633.84065,356.8634 464.5351,334.60058 435.71538,327.21063 406.89566,319.82067 334.79635,300.03289 329.03241,237.21861 Z"
       id="path3659-8"
       inkscape:connector-curvature="0"
       sodipodi:nodetypes="cssssc" />
    <path
       style="color:#000000;display:inline;overflow:visible;visibility:visible;fill:#ffffff;fill-opacity:1;fill-rule:nonzero;stroke:none;stroke-width:1px;marker:none;enable-background:accumulate"
       d="m 748.81174,246.77136 c 51.75229,-9.5221 144.34907,25.7804 152.68067,130.3799 -39.695,-95.7771 -111.58874,-108.522 -153.52206,-93.2934 -39.7368,14.4308 -28.43671,-12.3696 -28.43671,-12.3696 z"
       id="path4440-1"
       inkscape:connector-curvature="0"
       sodipodi:nodetypes="ccscc" />
    <path
       style="color:#000000;display:inline;overflow:visible;visibility:visible;fill:#ffffff;fill-opacity:1;fill-rule:nonzero;stroke:none;stroke-width:1px;marker:none;enable-background:accumulate"
       d="m 1959.0357,291.27316 c -2.8517,-0.3412 -11.1967,37.1896 -11.1967,37.1896 0,0 -9.6125,7.4962 -11.4453,9.4383 -0.7114,7.4801 0.7366,17.3799 0.7366,17.3799 l -29.369,11.6174 16.5975,-14.2257 -7.4782,-14.9439 14.6623,-15.5381 7.5275,-27.7153 z"
       id="path4448-7"
       inkscape:connector-curvature="0"
       sodipodi:nodetypes="cccccccccc" />
    <path
       style="color:#000000;display:inline;overflow:visible;visibility:visible;fill:#ffffff;fill-opacity:1;fill-rule:nonzero;stroke:none;stroke-width:1px;marker:none;enable-background:accumulate"
       d="m 1846.7504,236.18416 10.5029,19.7578 -14.8609,3.9041 7.1217,7.6936 7.162,5.5676 9.4016,3.1225 -9.0108,12.7594 12.7899,1.3014 1.3462,10.4107 11.4435,8.4588 9.424,-5.8561 4.7345,11.587 19.4987,-7.0323 4.0389,7.8081 10.7703,-5.856 25.5794,10.4107 1.3463,-8.4587 8.0778,9.1094 2.0195,-11.0614 12.1166,9.76 18.8479,-11.7121 16.1555,-1.3013 2.0195,-9.1094 12.7897,6.5067 -4.712,-17.5682 22.2138,-11.7121 2.6926,-13.0135 -4.0389,-4.5547 -2.6926,-7.1574 12.1166,-8.4587 -18.1749,1.952 16.1554,-9.7601 -13.738,-5.7588 -9.6389,0.3131 -4.0047,-3.2713 -5.8863,-11.9195 -15.2768,8.3408 -8.3359,-16.9846 -17.3182,14.1851 -6.2946,-9.9714 -9.6593,6.4302 -10.129,-3.8752 -12.8066,-13.9261 -8.4794,13.8374 -14.6035,-6.4229 -10.1125,11.1101 -17.5024,-8.6047 -2.5045,7.9122 -13.3513,5.7403 -13.7188,-4.6372 2.7227,17.4597 z"
       id="path4448-1-6"
       inkscape:connector-curvature="0"
       sodipodi:nodetypes="cccccccccccccccccccccccccccccccccccccccccccccccccccc" />
  </g>
  <g
     inkscape:groupmode="layer"
     id="layer1"
     inkscape:label="txt">
    <flowRoot
       xml:space="preserve"
       id="flowRoot2987"
       style="font-style:normal;font-variant:normal;font-weight:normal;font-stretch:normal;font-size:12px;line-height:125%;font-family:Arial;-inkscape-font-specification:Arial;letter-spacing:0px;word-spacing:0px;fill:#000000;fill-opacity:1;stroke:none"
       transform="translate(-195.90057,-471.18028)"><flowRegion
         id="flowRegion2989"><rect
           id="rect2991"
           width="555.85522"
           height="250.47551"
           x="481.16055"
           y="638.16943" /></flowRegion><flowPara
         style="font-style:normal;font-variant:normal;font-weight:normal;font-stretch:normal;font-size:48px;font-family:Lavi;-inkscape-font-specification:Lavi;text-align:center;text-anchor:middle"
         id="flowPara2997">Be… pardonu, fine,</flowPara><flowPara
         style="font-style:normal;font-variant:normal;font-weight:normal;font-stretch:normal;font-size:48px;font-family:Lavi;-inkscape-font-specification:Lavi;text-align:center;text-anchor:middle"
         id="flowPara3066">nur kvar mi aĉetos</flowPara></flowRoot>    <flowRoot
       xml:space="preserve"
       id="flowRoot2987-4"
       style="font-style:normal;font-variant:normal;font-weight:normal;font-stretch:normal;font-size:12px;line-height:125%;font-family:Arial;-inkscape-font-specification:Arial;letter-spacing:0px;word-spacing:0px;fill:#000000;fill-opacity:1;stroke:none"
       transform="translate(1239.4564,-403.22599)"><flowRegion
         id="flowRegion2989-7"><rect
           id="rect2991-1"
           width="472.65948"
           height="178.52246"
           x="481.16055"
           y="638.16943" /></flowRegion><flowPara
         style="font-style:normal;font-variant:normal;font-weight:normal;font-stretch:normal;font-size:40px;font-family:Lavi;-inkscape-font-specification:Lavi;text-align:center;text-anchor:middle"
         id="flowPara2997-1">Grrr...</flowPara></flowRoot>    <flowRoot
       xml:space="preserve"
       id="flowRoot2987-5"
       style="font-style:normal;font-variant:normal;font-weight:normal;font-stretch:normal;font-size:12px;line-height:125%;font-family:Arial;-inkscape-font-specification:Arial;letter-spacing:0px;word-spacing:0px;fill:#000000;fill-opacity:1;stroke:none"
       transform="translate(421.28402,536.37909)"><flowRegion
         id="flowRegion2989-6"><rect
           id="rect2991-0"
           width="526.69586"
           height="315.77493"
           x="481.16055"
           y="638.16943" /></flowRegion><flowPara
         style="font-style:normal;font-variant:normal;font-weight:normal;font-stretch:normal;font-size:48px;font-family:Lavi;-inkscape-font-specification:Lavi;text-align:center;text-anchor:middle"
         id="flowPara3081">Bonan tagon, kara komercisto, bonvolu doni al mi du dekduojn de ĉiuj. La plej bonspeca, kiel kutime  </flowPara></flowRoot>    <flowRoot
       xml:space="preserve"
       id="flowRoot2987-5-4"
       style="font-style:normal;font-variant:normal;font-weight:normal;font-stretch:normal;font-size:12px;line-height:125%;font-family:Arial;-inkscape-font-specification:Arial;letter-spacing:0px;word-spacing:0px;fill:#000000;fill-opacity:1;stroke:none"
       transform="translate(472.94387,1000.9391)"><flowRegion
         id="flowRegion2989-6-3"><rect
           id="rect2991-0-3"
           width="463.67816"
           height="225.00478"
           x="481.16055"
           y="638.16943" /></flowRegion><flowPara
         style="font-style:normal;font-variant:normal;font-weight:normal;font-stretch:normal;font-size:48px;font-family:Lavi;-inkscape-font-specification:Lavi;text-align:center;text-anchor:middle"
         id="flowPara3138"> Ĉiam plezuro estas la servado de vi, Fraŭlino Safrano</flowPara></flowRoot>    <flowRoot
       xml:space="preserve"
       id="flowRoot2987-5-4-3"
       style="font-style:normal;font-variant:normal;font-weight:normal;font-stretch:normal;font-size:12px;line-height:125%;font-family:Arial;-inkscape-font-specification:Arial;letter-spacing:0px;word-spacing:0px;fill:#000000;fill-opacity:1;stroke:none"
       transform="translate(680.15025,1307.4513)"><flowRegion
         id="flowRegion2989-6-3-5"><rect
           id="rect2991-0-3-3"
           width="399.46124"
           height="206.06419"
           x="481.16055"
           y="638.16943" /></flowRegion><flowPara
         style="font-style:normal;font-variant:normal;font-weight:normal;font-stretch:normal;font-size:48px;font-family:Lavi;-inkscape-font-specification:Lavi;text-align:center;text-anchor:middle"
         id="flowPara3178">He, nu! </flowPara><flowPara
         style="font-style:normal;font-variant:normal;font-weight:normal;font-stretch:normal;font-size:48px;font-family:Lavi;-inkscape-font-specification:Lavi;text-align:center;text-anchor:middle"
         id="flowPara3093">Jen estas Pipro, ĉu ne?</flowPara></flowRoot>    <flowRoot
       xml:space="preserve"
       id="flowRoot2987-5-4-3-8"
       style="font-style:normal;font-variant:normal;font-weight:normal;font-stretch:normal;font-size:12px;line-height:125%;font-family:Arial;-inkscape-font-specification:Arial;letter-spacing:0px;word-spacing:0px;fill:#000000;fill-opacity:1;stroke:none"
       transform="translate(597.39261,1548.615)"><flowRegion
         id="flowRegion2989-6-3-5-1"><rect
           id="rect2991-0-3-3-7"
           width="555.99146"
           height="286.85565"
           x="481.16055"
           y="638.16943" /></flowRegion><flowPara
         style="font-style:normal;font-variant:normal;font-weight:normal;font-stretch:normal;font-size:48px;font-family:Lavi;-inkscape-font-specification:Lavi;text-align:center;text-anchor:middle"
         id="flowPara3214">Nu, videble </flowPara><flowPara
         style="font-style:normal;font-variant:normal;font-weight:normal;font-stretch:normal;font-size:48px;font-family:Lavi;-inkscape-font-specification:Lavi;text-align:center;text-anchor:middle"
         id="flowPara3100">la aferoj prosperegas en la kamparo, ĉu ne?</flowPara></flowRoot>    <flowRoot
       xml:space="preserve"
       id="flowRoot2987-5-4-3-3"
       style="font-style:normal;font-variant:normal;font-weight:normal;font-stretch:normal;font-size:12px;line-height:125%;font-family:Arial;-inkscape-font-specification:Arial;letter-spacing:0px;word-spacing:0px;fill:#000000;fill-opacity:1;stroke:none"
       transform="matrix(1.1166839,0,0,1.2016907,897.53791,1782.9599)"><flowRegion
         id="flowRegion2989-6-3-5-2"><rect
           id="rect2991-0-3-3-1"
           width="316.26553"
           height="145.35382"
           x="481.16055"
           y="638.16943" /></flowRegion><flowPara
         style="font-style:normal;font-variant:normal;font-weight:normal;font-stretch:normal;font-size:48px;font-family:Lavi;-inkscape-font-specification:Lavi;text-align:center;text-anchor:middle"
         id="flowPara3178-4">...</flowPara></flowRoot>    <flowRoot
       xml:space="preserve"
       id="flowRoot2987-5-4-3-8-4"
       style="font-style:normal;font-variant:normal;font-weight:normal;font-stretch:normal;font-size:12px;line-height:125%;font-family:Arial;-inkscape-font-specification:Arial;letter-spacing:0px;word-spacing:0px;fill:#000000;fill-opacity:1;stroke:none"
       transform="translate(244.92686,2254.57)"><flowRegion
         id="flowRegion2989-6-3-5-1-2"><rect
           id="rect2991-0-3-3-7-1"
           width="506.27682"
           height="417.60565"
           x="481.16055"
           y="638.16943" /></flowRegion><flowPara
         style="font-style:normal;font-variant:normal;font-weight:normal;font-stretch:normal;font-size:48px;font-family:Lavi;-inkscape-font-specification:Lavi;text-align:center;text-anchor:middle"
         id="flowPara3292">Mi supozas, ke </flowPara><flowPara
         style="font-style:normal;font-variant:normal;font-weight:normal;font-stretch:normal;font-size:48px;font-family:Lavi;-inkscape-font-specification:Lavi;text-align:center;text-anchor:middle"
         id="flowPara3116">vi preparas jam</flowPara><flowPara
         style="font-style:normal;font-variant:normal;font-weight:normal;font-stretch:normal;font-size:48px;font-family:Lavi;-inkscape-font-specification:Lavi;text-align:center;text-anchor:middle"
         id="flowPara3118">viajn ingrediencojn </flowPara><flowPara
         style="font-style:normal;font-variant:normal;font-weight:normal;font-stretch:normal;font-size:48px;font-family:Lavi;-inkscape-font-specification:Lavi;text-align:center;text-anchor:middle"
         id="flowPara3120">por la morgaŭa </flowPara><flowPara
         style="font-style:normal;font-variant:normal;font-weight:normal;font-stretch:normal;font-size:48px;font-family:Lavi;-inkscape-font-specification:Lavi;text-align:center;text-anchor:middle"
         id="flowPara3122">sorĉotrinkaĵa </flowPara><flowPara
         style="font-style:normal;font-variant:normal;font-weight:normal;font-stretch:normal;font-size:48px;font-family:Lavi;-inkscape-font-specification:Lavi;text-align:center;text-anchor:middle"
         id="flowPara3124">konkurso?</flowPara></flowRoot>    <flowRoot
       xml:space="preserve"
       id="flowRoot2987-5-4-3-8-4-1"
       style="font-style:normal;font-variant:normal;font-weight:normal;font-stretch:normal;font-size:12px;line-height:125%;font-family:Arial;-inkscape-font-specification:Arial;letter-spacing:0px;word-spacing:0px;fill:#000000;fill-opacity:1;stroke:none"
       transform="translate(805.54223,2256.8239)"><flowRegion
         id="flowRegion2989-6-3-5-1-2-0"><rect
           id="rect2991-0-3-3-7-1-3"
           width="357.32404"
           height="181.207"
           x="481.16055"
           y="638.16943" /></flowRegion><flowPara
         style="font-style:normal;font-variant:normal;font-weight:normal;font-stretch:normal;font-size:48px;font-family:Lavi;-inkscape-font-specification:Lavi;text-align:center;text-anchor:middle"
         id="flowPara3347" /><flowPara
         style="font-style:normal;font-variant:normal;font-weight:normal;font-stretch:normal;font-size:48px;font-family:Lavi;-inkscape-font-specification:Lavi;text-align:center;text-anchor:middle"
         id="flowPara3128">... konkurso</flowPara><flowPara
         style="font-style:normal;font-variant:normal;font-weight:normal;font-stretch:normal;font-size:48px;font-family:Lavi;-inkscape-font-specification:Lavi;text-align:center;text-anchor:middle"
         id="flowPara3130">sorĉotrinkaĵa?</flowPara></flowRoot>    <flowRoot
       xml:space="preserve"
       id="flowRoot2987-5-4-3-8-4-1-1"
       style="font-style:normal;font-variant:normal;font-weight:normal;font-stretch:normal;font-size:12px;line-height:125%;font-family:Arial;-inkscape-font-specification:Arial;letter-spacing:0px;word-spacing:0px;fill:#000000;fill-opacity:1;stroke:none"
       transform="translate(852.04882,2517.9928)"><flowRegion
         id="flowRegion2989-6-3-5-1-2-0-9"><rect
           id="rect2991-0-3-3-7-1-3-7"
           width="328.09311"
           height="154.22458"
           x="481.16055"
           y="638.16943" /></flowRegion><flowPara
         style="font-style:normal;font-variant:normal;font-weight:normal;font-stretch:normal;font-size:48px;font-family:Lavi;-inkscape-font-specification:Lavi;text-align:center;text-anchor:middle"
         id="flowPara3347-5">... morgău?</flowPara></flowRoot>  </g>
</svg>
