<?xml version="1.0" encoding="UTF-8" standalone="no"?>
<!-- Created with Inkscape (http://www.inkscape.org/) -->

<svg
   xmlns:dc="http://purl.org/dc/elements/1.1/"
   xmlns:cc="http://creativecommons.org/ns#"
   xmlns:rdf="http://www.w3.org/1999/02/22-rdf-syntax-ns#"
   xmlns:svg="http://www.w3.org/2000/svg"
   xmlns="http://www.w3.org/2000/svg"
   xmlns:xlink="http://www.w3.org/1999/xlink"
   xmlns:sodipodi="http://sodipodi.sourceforge.net/DTD/sodipodi-0.dtd"
   xmlns:inkscape="http://www.inkscape.org/namespaces/inkscape"
   id="svg2"
   version="1.1"
   inkscape:version="0.92.0 r15299"
   width="2481"
   height="3503"
   sodipodi:docname="Pepper-and-Carrot_by-David-Revoy_E03P01.svg">
  <metadata
     id="metadata8">
    <rdf:RDF>
      <cc:Work
         rdf:about="">
        <dc:format>image/svg+xml</dc:format>
        <dc:type
           rdf:resource="http://purl.org/dc/dcmitype/StillImage" />
        <dc:title />
      </cc:Work>
    </rdf:RDF>
  </metadata>
  <defs
     id="defs6" />
  <sodipodi:namedview
     pagecolor="#ffffff"
     bordercolor="#666666"
     borderopacity="1"
     objecttolerance="10"
     gridtolerance="10"
     guidetolerance="10"
     inkscape:pageopacity="0"
     inkscape:pageshadow="2"
     inkscape:window-width="1366"
     inkscape:window-height="705"
     id="namedview4"
     showgrid="false"
     inkscape:zoom="0.40000002"
     inkscape:cx="1261.9251"
     inkscape:cy="3134.6071"
     inkscape:window-x="-8"
     inkscape:window-y="-8"
     inkscape:window-maximized="1"
     inkscape:current-layer="layer1" />
  <g
     inkscape:groupmode="layer"
     id="layer2"
     inkscape:label="artwork"
     sodipodi:insensitive="true">
    <image
       sodipodi:absref="C:\Users\Gebruiker\Downloads\peppercarrot_ep03_translation-master\eo\..\gfx_Pepper-and-Carrot_by-David-Revoy_E03P01.png"
       xlink:href="../gfx_Pepper-and-Carrot_by-David-Revoy_E03P01.png"
       y="0"
       x="0"
       id="image10"
       height="3503"
       width="2481" />
  </g>
  <g
     inkscape:groupmode="layer"
     id="layer3"
     inkscape:label="speechbubbles">
    <path
       style="fill:#ffffff;fill-opacity:1;stroke:none"
       d="m 205.96486,2296.5121 c -7.13208,-127.7935 68.46811,-169.9071 266.74031,-164.0983 198.2722,5.8087 245.34402,79.8708 259.60822,124.8889 14.26418,45.0182 -17.11704,156.8374 -139.78904,206.2122 -122.67201,49.3746 -328.07632,-20.3308 -353.75185,-56.6358 -25.67554,-36.305 -31.38122,-76.9665 -32.80764,-110.367 z"
       id="path3238"
       inkscape:connector-curvature="0" />
    <path
       style="fill:#ffffff;stroke:none;stroke-width:1px;stroke-linecap:butt;stroke-linejoin:miter;stroke-opacity:1;color:#000000;fill-opacity:1;fill-rule:nonzero;marker:none;visibility:visible;display:inline;overflow:visible;enable-background:accumulate"
       d="m 457.93404,2454.7172 c 28.96571,41.3796 44.13823,118.6215 -13.79319,227.5877 73.10393,-81.3798 70.34529,-179.3115 67.58665,-208.2772 -2.75864,-28.9657 -53.79346,-19.3105 -53.79346,-19.3105 z"
       id="path4008"
       inkscape:connector-curvature="0" />
    <path
       style="color:#000000;display:inline;overflow:visible;visibility:visible;fill:#ffffff;fill-opacity:1;fill-rule:nonzero;stroke:none;stroke-width:0.99361914px;marker:none;enable-background:accumulate"
       d="m 1085.2556,2263.429 c -2.6004,-72.3368 23.4032,-113.1085 206.7282,-102.5867 183.3251,10.5215 185.9255,55.239 179.4246,102.5867 -6.5009,47.3477 -20.8029,59.1847 -41.6057,69.7064 -20.8029,10.5218 -152.1208,-10.5217 -182.0248,-11.8369 -29.9042,-1.3153 -119.6164,-1.3153 -128.7177,-6.576 -20.8154,-12.032 -33.8046,-28.9349 -33.8046,-51.2935 z"
       id="path4027"
       inkscape:connector-curvature="0"
       sodipodi:nodetypes="csssssc" />
    <path
       style="color:#000000;fill:#ffffff;fill-opacity:1;fill-rule:nonzero;stroke:none;stroke-width:1px;marker:none;visibility:visible;display:inline;overflow:visible;enable-background:accumulate"
       d="m 1483.027,2238.4227 c 31.7244,1.3794 64.828,-19.3104 70.3453,-30.345 5.5173,-11.0345 -8.2759,49.6555 -67.5867,63.4487 -59.3107,13.7932 -30.345,-26.2071 -30.345,-26.2071 z"
       id="path4035"
       inkscape:connector-curvature="0" />
    <path
       style="color:#000000;fill:#ffffff;fill-opacity:1;fill-rule:nonzero;stroke:none;stroke-width:1px;marker:none;visibility:visible;display:inline;overflow:visible;enable-background:accumulate"
       d="m 2104.6489,2526.786 c -0.8033,-19.8163 5.623,-17.7303 8.8362,-20.8592 -3.2132,-16.6875 4.0164,-35.4608 31.3279,-41.7186 7.2296,-12.5155 29.7215,-20.8593 44.1807,-9.3867 11.2459,-9.3866 28.1148,-8.3437 34.5411,0 8.0329,-8.3437 17.6722,2.086 18.4755,4.1719 9.6394,-4.1719 22.4919,0 27.3116,5.2148 12.8526,-6.2578 38.5576,6.2578 36.9511,20.8593 13.6558,11.4726 13.6558,23.9882 8.8361,31.2889 10.4427,9.3867 13.6558,50.0623 -17.6722,52.1482 -9.6395,14.6015 -33.738,19.8163 -44.1805,10.4296 -15.2625,3.1289 -24.9019,6.2578 -28.1151,-2.0859 -8.0328,8.3437 -27.3115,7.3007 -20.8852,-7.3008 -9.9226,9.326 -20.8492,6.1783 -29.1162,-0.3812 -15.1562,10.7337 -33.5273,5.3668 -32.6089,-5.9632 -20.6676,3.5779 -22.964,-14.3117 -21.586,-20.8711 -3.2151,-1.1927 -11.0229,-2.3853 -16.2961,-15.546 z"
       id="path4043"
       inkscape:connector-curvature="0" />
    <path
       style="color:#000000;fill:#ffffff;fill-opacity:1;fill-rule:nonzero;stroke:none;stroke-width:1px;marker:none;visibility:visible;display:inline;overflow:visible;enable-background:accumulate"
       d="m 2119.8192,2601.0952 c 12.5227,-13.119 32.7975,-12.5227 31.0085,5.3668 8.9448,7.7522 4.7706,29.8159 -30.4122,16.6969 -13.7153,-6.5595 -18.4858,-19.6785 -0.5963,-22.0637 z"
       id="path4051"
       inkscape:connector-curvature="0" />
    <path
       style="fill:#ffffff;stroke:none;stroke-width:1px;stroke-linecap:butt;stroke-linejoin:miter;stroke-opacity:1;color:#000000;fill-opacity:1;fill-rule:nonzero;marker:none;visibility:visible;display:inline;overflow:visible;enable-background:accumulate"
       d="m 2084.0818,2637.1793 c 4.5827,-1.0212 8.3975,1.1598 11.3791,4.1414 7.7521,-4.1742 29.8159,11.3301 -0.5963,19.6785 -11.33,2.9816 -22.6601,-9.5411 -14.3116,-14.9079 -3.2186,-3.2186 -1.0539,-7.8909 3.5288,-8.912 z"
       id="path4059"
       inkscape:connector-curvature="0"
       sodipodi:nodetypes="zcccz" />
    <flowRoot
       xml:space="preserve"
       id="flowRoot2987-4-9-9-9"
       style="font-style:normal;font-variant:normal;font-weight:normal;font-stretch:normal;font-size:12px;line-height:125%;font-family:Lavi;-inkscape-font-specification:Lavi;text-align:center;letter-spacing:0px;word-spacing:0px;text-anchor:middle;fill:#000000;fill-opacity:1;stroke:none"
       transform="matrix(0.66530597,0,0,0.68592152,834.16897,3220.5234)"><flowRegion
         id="flowRegion2989-5-4-7-7"><rect
           id="rect2991-7-9-4-3"
           width="884.68256"
           height="56.407585"
           x="120.55251"
           y="265.53046"
           style="font-style:normal;font-variant:normal;font-weight:normal;font-stretch:normal;font-family:Lavi;-inkscape-font-specification:Lavi;text-align:center;text-anchor:middle" /></flowRegion><flowPara
         style="font-size:48px;line-height:125%;text-align:start;text-anchor:start;fill:#a0a0a0;fill-opacity:1"
         id="flowPara3080-9-7">* koo = la monunuo de Komono</flowPara></flowRoot>  </g>
  <g
     inkscape:groupmode="layer"
     id="layer1"
     inkscape:label="txt">
    <flowRoot
       xml:space="preserve"
       id="flowRoot2987"
       style="font-style:normal;font-variant:normal;font-weight:normal;font-stretch:normal;font-size:12px;line-height:125%;font-family:Lavi;-inkscape-font-specification:Lavi;letter-spacing:0px;word-spacing:0px;fill:#000000;fill-opacity:1;stroke:none"
       transform="matrix(0.95842652,0,0,0.92639044,61.631114,-94.148029)"><flowRegion
         id="flowRegion2989"><rect
           id="rect2991"
           width="802.00476"
           height="222.0042"
           x="120.55251"
           y="265.53046"
           style="font-style:normal;font-variant:normal;font-weight:normal;font-stretch:normal;font-family:Lavi;-inkscape-font-specification:Lavi" /></flowRegion><flowPara
         id="flowPara2993"
         style="font-size:48px;line-height:125%">La urbo Komono</flowPara><flowPara
         id="flowPara2995"
         style="font-size:48px;line-height:125%">           dum bazartago</flowPara></flowRoot>    <flowRoot
       xml:space="preserve"
       id="flowRoot2987-4"
       style="font-style:normal;font-variant:normal;font-weight:normal;font-stretch:normal;font-size:12px;line-height:125%;font-family:Lavi;-inkscape-font-specification:Lavi;text-align:center;letter-spacing:0px;word-spacing:0px;text-anchor:middle;fill:#000000;fill-opacity:1;stroke:none"
       transform="translate(53.005366,1941.5191)"><flowRegion
         id="flowRegion2989-5"><rect
           id="rect2991-7"
           width="602.40173"
           height="310.73996"
           x="120.55251"
           y="265.53046"
           style="font-style:normal;font-variant:normal;font-weight:normal;font-stretch:normal;font-family:Lavi;-inkscape-font-specification:Lavi;text-align:center;text-anchor:middle" /></flowRegion><flowPara
         style="font-size:48px;line-height:125%;text-align:center;text-anchor:middle"
         id="flowPara3022">Bonan tagon sinjoro,</flowPara><flowPara
         style="font-size:48px;line-height:125%;text-align:center;text-anchor:middle"
         id="flowPara46">mi volas aĉeti ok</flowPara><flowPara
         style="font-size:48px;line-height:125%;text-align:center;text-anchor:middle"
         id="flowPara3024">stelkukurbojn, </flowPara><flowPara
         style="font-size:48px;line-height:125%;text-align:center;text-anchor:middle"
         id="flowPara3026">bonvolu!</flowPara></flowRoot>    <flowRoot
       xml:space="preserve"
       id="flowRoot2987-4-9"
       style="font-style:normal;font-variant:normal;font-weight:normal;font-stretch:normal;font-size:12px;line-height:125%;font-family:Lavi;-inkscape-font-specification:Lavi;text-align:center;letter-spacing:0px;word-spacing:0px;text-anchor:middle;fill:#000000;fill-opacity:1;stroke:none"
       transform="translate(862.44277,1928.7801)"><flowRegion
         id="flowRegion2989-5-4"><rect
           id="rect2991-7-9"
           width="602.40173"
           height="310.73996"
           x="120.55251"
           y="265.53046"
           style="font-style:normal;font-variant:normal;font-weight:normal;font-stretch:normal;font-family:Lavi;-inkscape-font-specification:Lavi;text-align:center;text-anchor:middle" /></flowRegion><flowPara
         style="font-size:48px;line-height:125%;text-align:center;text-anchor:middle"
         id="flowPara52">Jen. Tio kostas</flowPara><flowPara
         style="font-size:48px;line-height:125%;text-align:center;text-anchor:middle"
         id="flowPara50">60 koojn*</flowPara></flowRoot>    <flowRoot
       xml:space="preserve"
       id="flowRoot2987-4-9-9"
       style="font-style:normal;font-variant:normal;font-weight:normal;font-stretch:normal;font-size:12px;line-height:125%;font-family:Lavi;-inkscape-font-specification:Lavi;text-align:center;letter-spacing:0px;word-spacing:0px;text-anchor:middle;fill:#000000;fill-opacity:1;stroke:none"
       transform="translate(1791.4943,2246.6016)"><flowRegion
         id="flowRegion2989-5-4-7"><rect
           id="rect2991-7-9-4"
           width="602.40173"
           height="310.73996"
           x="120.55251"
           y="265.53046"
           style="font-style:normal;font-variant:normal;font-weight:normal;font-stretch:normal;font-family:Lavi;-inkscape-font-specification:Lavi;text-align:center;text-anchor:middle" /></flowRegion><flowPara
         style="font-size:48px;text-align:center;text-anchor:middle"
         id="flowPara3080-9">...fuŝ</flowPara></flowRoot>  </g>
</svg>
