<?xml version="1.0" encoding="UTF-8" standalone="no"?>
<!-- Created with Inkscape (http://www.inkscape.org/) -->

<svg
   xmlns:dc="http://purl.org/dc/elements/1.1/"
   xmlns:cc="http://creativecommons.org/ns#"
   xmlns:rdf="http://www.w3.org/1999/02/22-rdf-syntax-ns#"
   xmlns:svg="http://www.w3.org/2000/svg"
   xmlns="http://www.w3.org/2000/svg"
   xmlns:xlink="http://www.w3.org/1999/xlink"
   xmlns:sodipodi="http://sodipodi.sourceforge.net/DTD/sodipodi-0.dtd"
   xmlns:inkscape="http://www.inkscape.org/namespaces/inkscape"
   id="svg2"
   version="1.1"
   inkscape:version="0.91 r13725"
   width="2481"
   height="3503"
   sodipodi:docname="Pepper-and-Carrot_by-David-Revoy_E03P01.svg">
  <metadata
     id="metadata8">
    <rdf:RDF>
      <cc:Work
         rdf:about="">
        <dc:format>image/svg+xml</dc:format>
        <dc:type
           rdf:resource="http://purl.org/dc/dcmitype/StillImage" />
        <dc:title />
      </cc:Work>
    </rdf:RDF>
  </metadata>
  <defs
     id="defs6" />
  <sodipodi:namedview
     pagecolor="#ffffff"
     bordercolor="#666666"
     borderopacity="1"
     objecttolerance="10"
     gridtolerance="10"
     guidetolerance="10"
     inkscape:pageopacity="0"
     inkscape:pageshadow="2"
     inkscape:window-width="1181"
     inkscape:window-height="846"
     id="namedview4"
     showgrid="false"
     inkscape:zoom="0.40000002"
     inkscape:cx="1261.9251"
     inkscape:cy="505.28374"
     inkscape:window-x="735"
     inkscape:window-y="160"
     inkscape:window-maximized="0"
     inkscape:current-layer="layer1" />
  <g
     inkscape:groupmode="layer"
     id="layer2"
     inkscape:label="artwork"
     sodipodi:insensitive="true">
    <image
       sodipodi:absref="/home/Kdes/Arts_Crafts/2015/Translation P&amp;C/GIT/peppercarrot_ep03_translation/mx/../gfx_Pepper-and-Carrot_by-David-Revoy_E03P01.png"
       xlink:href="../gfx_Pepper-and-Carrot_by-David-Revoy_E03P01.png"
       width="2481"
       height="3503"
       id="image10"
       x="0"
       y="0" />
  </g>
  <g
     inkscape:groupmode="layer"
     id="layer3"
     inkscape:label="speechbubbles">
    <path
       style="fill:#ffffff;fill-opacity:1;stroke:none"
       d="m 205.96486,2296.5121 c -7.13208,-127.7935 68.46811,-169.9071 266.74031,-164.0983 198.2722,5.8087 245.34402,79.8708 259.60822,124.8889 14.26418,45.0182 -17.11704,156.8374 -139.78904,206.2122 -122.67201,49.3746 -328.07632,-20.3308 -353.75185,-56.6358 -25.67554,-36.305 -31.38122,-76.9665 -32.80764,-110.367 z"
       id="path3238"
       inkscape:connector-curvature="0" />
    <path
       style="fill:#ffffff;stroke:none;stroke-width:1px;stroke-linecap:butt;stroke-linejoin:miter;stroke-opacity:1;color:#000000;fill-opacity:1;fill-rule:nonzero;marker:none;visibility:visible;display:inline;overflow:visible;enable-background:accumulate"
       d="m 457.93404,2454.7172 c 28.96571,41.3796 44.13823,118.6215 -13.79319,227.5877 73.10393,-81.3798 70.34529,-179.3115 67.58665,-208.2772 -2.75864,-28.9657 -53.79346,-19.3105 -53.79346,-19.3105 z"
       id="path4008"
       inkscape:connector-curvature="0" />
    <path
       style="color:#000000;fill:#ffffff;fill-opacity:1;fill-rule:nonzero;stroke:none;stroke-width:1px;marker:none;visibility:visible;display:inline;overflow:visible;enable-background:accumulate"
       d="m 1082.7577,2263.429 c -2.6339,-72.3368 23.7048,-113.1085 209.3919,-102.5867 185.6872,10.5215 188.3211,55.239 181.7365,102.5867 -6.5847,47.3477 -21.071,59.1847 -42.1418,69.7064 -21.0709,10.5218 -154.0809,-10.5217 -184.3702,-11.8369 -30.2895,-1.3153 -121.1576,-1.3153 -130.3762,-6.576 -21.0836,-12.032 -34.2402,-28.9349 -34.2402,-51.2935 z"
       id="path4027"
       inkscape:connector-curvature="0"
       sodipodi:nodetypes="csssssc" />
    <path
       style="color:#000000;fill:#ffffff;fill-opacity:1;fill-rule:nonzero;stroke:none;stroke-width:1px;marker:none;visibility:visible;display:inline;overflow:visible;enable-background:accumulate"
       d="m 1483.027,2238.4227 c 31.7244,1.3794 64.828,-19.3104 70.3453,-30.345 5.5173,-11.0345 -8.2759,49.6555 -67.5867,63.4487 -59.3107,13.7932 -30.345,-26.2071 -30.345,-26.2071 z"
       id="path4035"
       inkscape:connector-curvature="0" />
    <path
       style="color:#000000;display:inline;overflow:visible;visibility:visible;fill:#ffffff;fill-opacity:1;fill-rule:nonzero;stroke:none;stroke-width:1px;marker:none;enable-background:accumulate"
       d="m 2089.6702,2526.786 c -1.0522,-19.8163 7.3653,-17.7303 11.5742,-20.8592 -4.2089,-16.6875 5.2608,-35.4608 41.0349,-41.7186 9.4697,-12.5155 38.9308,-20.8593 57.8702,-9.3867 14.7304,-9.3866 36.8263,-8.3437 45.2438,0 10.5219,-8.3437 23.1479,2.086 24.2001,4.1719 12.6261,-4.1719 29.4611,0 35.7742,5.2148 16.835,-6.2578 50.5047,6.2578 48.4005,20.8593 17.8871,11.4726 17.8871,23.9882 11.5739,31.2889 13.6785,9.3867 17.8871,50.0623 -23.1479,52.1482 -12.6264,14.6015 -44.1918,19.8163 -57.8699,10.4296 -19.9916,3.1289 -32.6179,6.2578 -36.8267,-2.0859 -10.5217,8.3437 -35.774,7.3007 -27.3565,-7.3008 -12.9971,9.326 -27.3094,6.1783 -38.1379,-0.3812 -19.8524,10.7337 -43.9159,5.3668 -42.7128,-5.9632 -27.0716,3.5779 -30.0796,-14.3117 -28.2746,-20.8711 -4.2113,-1.1927 -14.4384,-2.3853 -21.3455,-15.546 z"
       id="path4043"
       inkscape:connector-curvature="0" />
    <path
       style="color:#000000;fill:#ffffff;fill-opacity:1;fill-rule:nonzero;stroke:none;stroke-width:1px;marker:none;visibility:visible;display:inline;overflow:visible;enable-background:accumulate"
       d="m 2119.8192,2601.0952 c 12.5227,-13.119 32.7975,-12.5227 31.0085,5.3668 8.9448,7.7522 4.7706,29.8159 -30.4122,16.6969 -13.7153,-6.5595 -18.4858,-19.6785 -0.5963,-22.0637 z"
       id="path4051"
       inkscape:connector-curvature="0" />
    <path
       style="fill:#ffffff;stroke:none;stroke-width:1px;stroke-linecap:butt;stroke-linejoin:miter;stroke-opacity:1;color:#000000;fill-opacity:1;fill-rule:nonzero;marker:none;visibility:visible;display:inline;overflow:visible;enable-background:accumulate"
       d="m 2084.0818,2637.1793 c 4.5827,-1.0212 8.3975,1.1598 11.3791,4.1414 7.7521,-4.1742 29.8159,11.3301 -0.5963,19.6785 -11.33,2.9816 -22.6601,-9.5411 -14.3116,-14.9079 -3.2186,-3.2186 -1.0539,-7.8909 3.5288,-8.912 z"
       id="path4059"
       inkscape:connector-curvature="0"
       sodipodi:nodetypes="zcccz" />
    <flowRoot
       xml:space="preserve"
       id="flowRoot2987-4-9-9-9"
       style="font-size:12px;font-style:normal;font-variant:normal;font-weight:normal;font-stretch:normal;text-align:center;line-height:125%;letter-spacing:0px;word-spacing:0px;text-anchor:middle;fill:#000000;fill-opacity:1;stroke:none;font-family:Lavi;-inkscape-font-specification:Lavi"
       transform="matrix(0.66530597,0,0,0.68592152,834.16897,3220.5234)"><flowRegion
         id="flowRegion2989-5-4-7-7"><rect
           id="rect2991-7-9-4-3"
           width="884.68256"
           height="56.407585"
           x="120.55251"
           y="265.53046"
           style="font-style:normal;font-variant:normal;font-weight:normal;font-stretch:normal;text-align:center;text-anchor:middle;font-family:Lavi;-inkscape-font-specification:Lavi" /></flowRegion><flowPara
         style="font-size:48px;text-align:start;text-anchor:start;fill:#a0a0a0;fill-opacity:1"
         id="flowPara3080-9-7">* Ko =  moneda de Komona</flowPara></flowRoot>  </g>
  <g
     inkscape:groupmode="layer"
     id="layer1"
     inkscape:label="txt">
    <flowRoot
       xml:space="preserve"
       id="flowRoot2987"
       style="font-style:normal;font-variant:normal;font-weight:normal;font-stretch:normal;font-size:12px;line-height:125%;font-family:Lavi;-inkscape-font-specification:Lavi;letter-spacing:0px;word-spacing:0px;fill:#000000;fill-opacity:1;stroke:none"
       transform="matrix(0.95842652,0,0,0.92639044,61.631114,-94.148029)"><flowRegion
         id="flowRegion2989"><rect
           id="rect2991"
           width="802.00476"
           height="222.0042"
           x="120.55251"
           y="265.53046"
           style="font-style:normal;font-variant:normal;font-weight:normal;font-stretch:normal;font-family:Lavi;-inkscape-font-specification:Lavi" /></flowRegion><flowPara
         id="flowPara2993"
         style="font-size:48px">Villa de Komona;</flowPara><flowPara
         id="flowPara2995"
         style="font-size:48px">           ¡Día de mercado!</flowPara></flowRoot>    <flowRoot
       xml:space="preserve"
       id="flowRoot2987-4"
       style="font-style:normal;font-variant:normal;font-weight:normal;font-stretch:normal;font-size:12px;line-height:125%;font-family:Lavi;-inkscape-font-specification:Lavi;text-align:center;letter-spacing:0px;word-spacing:0px;text-anchor:middle;fill:#000000;fill-opacity:1;stroke:none"
       transform="translate(53.005366,1925.5191)"><flowRegion
         id="flowRegion2989-5"><rect
           id="rect2991-7"
           width="602.40173"
           height="310.73996"
           x="120.55251"
           y="265.53046"
           style="font-style:normal;font-variant:normal;font-weight:normal;font-stretch:normal;font-family:Lavi;-inkscape-font-specification:Lavi;text-align:center;text-anchor:middle" /></flowRegion><flowPara
         style="font-size:48px;text-align:center;text-anchor:middle"
         id="flowPara3033">Buenos días señor,</flowPara><flowPara
         style="font-size:48px;text-align:center;text-anchor:middle"
         id="flowPara3022"> deme ocho </flowPara><flowPara
         style="font-size:48px;text-align:center;text-anchor:middle"
         id="flowPara3024">estrellas de calabaza, </flowPara><flowPara
         style="font-size:48px;text-align:center;text-anchor:middle"
         id="flowPara3026">por favor.</flowPara></flowRoot>    <flowRoot
       xml:space="preserve"
       id="flowRoot2987-4-9"
       style="font-style:normal;font-variant:normal;font-weight:normal;font-stretch:normal;font-size:12px;line-height:125%;font-family:Lavi;-inkscape-font-specification:Lavi;text-align:center;letter-spacing:0px;word-spacing:0px;text-anchor:middle;fill:#000000;fill-opacity:1;stroke:none"
       transform="translate(862.44277,1928.7801)"><flowRegion
         id="flowRegion2989-5-4"><rect
           id="rect2991-7-9"
           width="602.40173"
           height="310.73996"
           x="120.55251"
           y="265.53046"
           style="font-style:normal;font-variant:normal;font-weight:normal;font-stretch:normal;font-family:Lavi;-inkscape-font-specification:Lavi;text-align:center;text-anchor:middle" /></flowRegion><flowPara
         style="font-size:48px;text-align:center;text-anchor:middle"
         id="flowPara3080">Aquí tienes, </flowPara><flowPara
         style="font-size:48px;text-align:center;text-anchor:middle"
         id="flowPara3030">son 60Ko*.</flowPara></flowRoot>    <flowRoot
       xml:space="preserve"
       id="flowRoot2987-4-9-9"
       style="font-style:normal;font-variant:normal;font-weight:normal;font-stretch:normal;font-size:12px;line-height:125%;font-family:Lavi;-inkscape-font-specification:Lavi;text-align:center;letter-spacing:0px;word-spacing:0px;text-anchor:middle;fill:#000000;fill-opacity:1;stroke:none"
       transform="translate(1803.4943,2222.6016)"><flowRegion
         id="flowRegion2989-5-4-7"><rect
           id="rect2991-7-9-4"
           width="602.40173"
           height="310.73996"
           x="120.55251"
           y="265.53046"
           style="font-style:normal;font-variant:normal;font-weight:normal;font-stretch:normal;font-family:Lavi;-inkscape-font-specification:Lavi;text-align:center;text-anchor:middle" /></flowRegion><flowPara
         style="font-size:48px;text-align:center;text-anchor:middle"
         id="flowPara3080-9">... ¡Cáspita! </flowPara></flowRoot>  </g>
</svg>
